<?xml version="1.0" encoding="UTF-8"?>
<!DOCTYPE svg PUBLIC "-//W3C//DTD SVG 1.1//EN" "http://www.w3.org/Graphics/SVG/1.1/DTD/svg11.dtd">
<!-- Creator: CorelDRAW -->
<svg xmlns="http://www.w3.org/2000/svg" xml:space="preserve" width="75.9234mm" height="91.9679mm" style="shape-rendering:geometricPrecision; text-rendering:geometricPrecision; image-rendering:optimizeQuality; fill-rule:evenodd; clip-rule:evenodd"
viewBox="0 0 3.84271 4.65477"
 xmlns:xlink="http://www.w3.org/1999/xlink">
 <defs>
  <style type="text/css">
   <![CDATA[
    .str0 {stroke:#2B2A29;stroke-width:0.00385671}
    .fil2 {fill:#FEFEFE}
    .fil1 {fill:#00BBFF}
    .fil0 {fill:red}
    .fil3 {fill:#FFED00}
    .fil5 {fill:#00C200;fill-rule:nonzero}
    .fil4 {fill:#E00000;fill-rule:nonzero}
   ]]>
  </style>
 </defs>
 <g id="Слой_x0020_1">
  <metadata id="CorelCorpID_0Corel-Layer"/>
  <rect class="fil0 str0" x="0.00192836" y="0.00192836" width="3.83886" height="3.5392"/>
  <path class="fil1 str0" d="M3.45566 3.21491c-0.127914,0.0964988 -0.255834,0.0964988 -0.383748,0 -0.127914,0.0964988 -0.255834,0.0964988 -0.383748,0 -0.127914,0.0964988 -0.255834,0.0964988 -0.383748,0 -0.127914,0.0964988 -0.255834,0.0964988 -0.383748,0 -0.127914,0.0964988 -0.255834,0.0964988 -0.383748,0 -0.127914,0.0964988 -0.255834,0.0964988 -0.383748,0 -0.127914,0.0964988 -0.255834,0.0964988 -0.383748,0 -0.127914,0.0964988 -0.255834,0.0964988 -0.383748,0 -0.127914,0.0964988 -0.255834,0.0964988 -0.383743,0l-5.0613e-006 0.652427c0,0.186124 0.142025,0.342918 0.278184,0.395146 0.0937809,0.0359707 0.179899,0.0306968 0.305991,0.0306968l0.339568 0 0.336693 0c0.112973,0 0.232025,-0.00721236 0.32403,0.0155331 0.088092,0.0217788 0.158323,0.0687426 0.213385,0.123288 0.04128,0.0408953 0.11267,0.148372 0.118698,0.22084l0.00575976 0c0.00593691,-0.0713796 0.0766382,-0.179246 0.11726,-0.219397 0.0548746,-0.054242 0.124888,-0.102507 0.212514,-0.124159 0.0917766,-0.0226848 0.207883,-0.0161051 0.320583,-0.0161051l0.339573 0 0.336688 0c0.135309,0 0.205312,0.00515241 0.30962,-0.0299477 0.13583,-0.0457086 0.28031,-0.214007 0.28031,-0.395895l0 -0.652427c-0.127914,0.0964988 -0.25721,0.0964988 -0.385125,0z"/>
  <path class="fil1 str0" d="M1.53692 3.12811c0.127914,0.0964988 0.255834,0.0964988 0.383748,0 0.127914,0.0964988 0.255834,0.0964988 0.383748,0 0.127914,0.0964988 0.255834,0.0964988 0.383753,0 0.127909,0.0964988 0.255829,0.0964988 0.383743,0 0.127914,0.0964988 0.255834,0.0964988 0.383748,0 0.127914,0.0964988 0.25721,0.0964988 0.385125,0l5.0613e-006 -0.0894079c-0.127914,0.0964988 -0.25721,0.0964988 -0.385125,0 -0.127914,0.0964988 -0.255834,0.0964988 -0.383748,0 -0.127914,0.0964988 -0.255834,0.0964988 -0.383748,0 -0.127914,0.0964988 -0.255834,0.0964988 -0.383748,0 -0.127914,0.0964988 -0.255834,0.0964988 -0.383748,0 -0.127914,0.0964988 -0.255834,0.0964988 -0.383748,0 -0.127914,0.0964988 -0.255834,0.0964988 -0.383748,0 -0.127914,0.0964988 -0.255834,0.0964988 -0.383748,0 -0.127914,0.0964988 -0.255834,0.0964988 -0.383748,0 -0.127914,0.0964988 -0.255834,0.0964988 -0.383743,0l-5.0613e-006 0.0894079c0.127909,0.0964988 0.255829,0.0964988 0.383743,0 0.127914,0.0964988 0.255834,0.0964988 0.383748,0 0.127914,0.0964988 0.255834,0.0964988 0.383748,0 0.127914,0.0964988 0.255834,0.0964988 0.383748,0z"/>
  <path class="fil2 str0" d="M0.769424 3.21491c0.127914,0.0964988 0.255834,0.0964988 0.383748,0 0.127914,0.0964988 0.255834,0.0964988 0.383748,0 0.127914,0.0964988 0.255834,0.0964988 0.383748,0 0.127914,0.0964988 0.255834,0.0964988 0.383748,0 0.127914,0.0964988 0.255834,0.0964988 0.383748,0 0.127914,0.0964988 0.255834,0.0964988 0.383748,0 0.127914,0.0964988 0.255834,0.0964988 0.383748,0 0.127914,0.0964988 0.25721,0.0964988 0.385125,0l-5.0613e-006 -0.0868064c-0.127914,0.0964988 -0.25721,0.0964988 -0.385125,0 -0.127914,0.0964988 -0.255834,0.0964988 -0.383748,0 -0.127914,0.0964988 -0.255834,0.0964988 -0.383743,0 -0.127919,0.0964988 -0.255839,0.0964988 -0.383753,0 -0.127914,0.0964988 -0.255834,0.0964988 -0.383748,0 -0.127914,0.0964988 -0.255834,0.0964988 -0.383748,0 -0.127914,0.0964988 -0.255834,0.0964988 -0.383748,0 -0.127914,0.0964988 -0.255834,0.0964988 -0.383748,0 -0.127914,0.0964988 -0.255834,0.0964988 -0.383748,0 -0.127914,0.0964988 -0.255834,0.0964988 -0.383743,0l5.0613e-006 0.0868064c0.127909,0.0964988 0.255829,0.0964988 0.383743,0 0.127914,0.0964988 0.255834,0.0964988 0.383748,0z"/>
  <path class="fil2 str0" d="M1.53692 3.0387c0.127914,0.0964988 0.255834,0.0964988 0.383748,0 0.127914,0.0964988 0.255834,0.0964988 0.383748,0 0.127914,0.0964988 0.255834,0.0964988 0.383748,0 0.127914,0.0964988 0.255834,0.0964988 0.383748,0 0.127914,0.0964988 0.255834,0.0964988 0.383748,0 0.127914,0.0964988 0.25721,0.0964988 0.385125,0l0 -0.0792701c-0.127914,0.0964988 -0.25721,0.0964988 -0.385125,0 -0.0306563,0.0231302 -0.0613177,0.0407131 -0.091974,0.052754 -0.097258,0.0382027 -0.194516,0.0206147 -0.291774,-0.052754 -0.127914,0.0964988 -0.255834,0.0964988 -0.383748,0 -0.127914,0.0964988 -0.255834,0.0964988 -0.383748,0 -0.127914,0.0964988 -0.255834,0.0964988 -0.383748,0 -0.127914,0.0964988 -0.255834,0.0964988 -0.383748,0 -0.127914,0.0964988 -0.255834,0.0964988 -0.383748,0 -0.127914,0.0964988 -0.255834,0.0964988 -0.383748,0 -0.097258,0.0733686 -0.194516,0.0909567 -0.291774,0.052754 -0.0306563,-0.0120408 -0.0613177,-0.0296238 -0.091974,-0.052754 -0.127914,0.0964988 -0.255834,0.0964988 -0.383743,0l0 0.0792701c0.127909,0.0964988 0.255829,0.0964988 0.383743,0 0.127914,0.0964988 0.255834,0.0964988 0.383748,0 0.127914,0.0964988 0.255834,0.0964988 0.383748,0 0.127914,0.0964988 0.255834,0.0964988 0.383748,0z"/>
  <path class="fil3 str0" d="M3.0063 2.71478c-0.0999455,-0.0713998 -0.199901,-0.132925 -0.299867,-0.184586l1.13435 -2.41662 0 -0.111647 -0.143184 0 -1.04914 2.49941c-0.114826,-0.0549556 -0.229667,-0.0968885 -0.344518,-0.125799l0.597517 -2.37361 -0.153828 0 -0.502871 2.35986c-0.0964279,-0.0205185 -0.192866,-0.0318558 -0.289309,-0.034017l0.0521567 -2.32585 -0.191798 0 0.0638281 2.32603c-0.100745,0.00276347 -0.201496,0.0155433 -0.302261,0.0383292l-0.46362 -2.36436 -0.202655 0 0.616011 2.37656c-0.120985,0.0313598 -0.241986,0.0771545 -0.362997,0.137384l-1.04916 -2.51394 -0.113029 0 0 0.132834 1.11982 2.40278c-0.101282,0.0532247 -0.202579,0.116562 -0.303881,0.190006l-0.815938 -1.1773 0 0.202655 0.782725 0.999086c-0.0818463,0.0611254 -0.163703,0.128851 -0.245564,0.203171l-0.537161 -0.51106 0 0.137516 0.495795 0.411661 -0.0200731 0.018904c0.097258,0.0382027 0.194516,0.0206147 0.291774,-0.052754 0.127914,0.0964988 0.255834,0.0964988 0.383748,0 0.127914,0.0964988 0.255834,0.0964988 0.383748,0 0.127914,0.0964988 0.255834,0.0964988 0.383748,0 0.127914,0.0964988 0.255834,0.0964988 0.383748,0 0.127914,0.0964988 0.255834,0.0964988 0.383748,0 0.127914,0.0964988 0.255834,0.0964988 0.383748,0 0.097258,0.0733686 0.194516,0.0909567 0.291774,0.052754 -0.0133871,-0.012714 -0.0267692,-0.0252559 -0.0401564,-0.0376156l0.517255 -0.40951 0 -0.164427 -0.558889 0.536058c-0.0819678,-0.0734547 -0.163946,-0.140264 -0.245929,-0.200433l0.804818 -0.989718 0 -0.199906 -0.834482 1.16814z"/>
  <polygon class="fil2 str0" points="1.08988,2.88885 2.75169,2.88884 2.51631,1.45833 2.56445,1.45833 2.56446,1.357 2.49963,1.357 2.38351,0.651329 1.45806,0.651339 1.34193,1.35701 1.27711,1.35701 1.27711,1.45834 1.32526,1.45834 "/>
  <polygon class="fil2 str0" points="1.45806,0.651339 2.38351,0.651329 2.38351,0.571715 1.45806,0.571725 "/>
  <polygon class="fil2 str0" points="1.45806,0.571725 2.38351,0.571715 2.49208,0.571715 2.49208,0.484863 1.34949,0.484873 1.34949,0.571725 "/>
  <polygon class="fil2 str0" points="1.34949,0.484873 2.49208,0.484863 2.59702,0.484863 2.59702,0.325634 2.44808,0.325634 2.44808,0.224307 2.30303,0.224307 2.30303,0.325634 2.14537,0.325634 2.14537,0.224307 2.00123,0.224307 2.00123,0.325634 1.84034,0.325644 1.84034,0.224317 1.69619,0.224317 1.69619,0.325644 1.53853,0.325644 1.53853,0.224317 1.39348,0.224317 1.39348,0.325644 1.24454,0.325644 1.24454,0.484873 "/>
  <path class="fil4 str0" d="M1.92346 2.27741c0.0496666,0 0.0899849,0.040455 0.0899849,0.0904455 0,0.0499905 -0.0403183,0.0904252 -0.0899849,0.0904252 -0.0497172,0 -0.0900203,-0.0404347 -0.0900203,-0.0904252 0,-0.0499905 0.0403032,-0.0904455 0.0900203,-0.0904455z"/>
  <path class="fil4 str0" d="M1.82772 2.12463c0.049702,0 0.0899849,0.0404854 0.0899849,0.0903898 0,0.0499247 -0.0402829,0.0903746 -0.0899849,0.0903746 -0.0497222,0 -0.0900355,-0.0404499 -0.0900355,-0.0903746 0,-0.0499044 0.0403133,-0.0903898 0.0900355,-0.0903898z"/>
  <path class="fil4 str0" d="M2.01542 2.12463c0.0496362,0 0.0899495,0.0404854 0.0899495,0.0903898 0,0.0499247 -0.0403133,0.0903746 -0.0899495,0.0903746 -0.0497526,0 -0.0900709,-0.0404499 -0.0900709,-0.0903746 0,-0.0499044 0.0403183,-0.0903898 0.0900709,-0.0903898z"/>
  <path class="fil4 str0" d="M1.73346 1.96464c0.0497222,0 0.0900051,0.0402981 0.0900051,0.0900203 0,0.0497172 -0.0402829,0.0900153 -0.0900051,0.0900153 -0.0497324,0 -0.0900507,-0.0402981 -0.0900507,-0.0900153 0,-0.0497222 0.0403183,-0.0900203 0.0900507,-0.0900203z"/>
  <path class="fil4 str0" d="M1.92112 1.96464c0.0497374,0 0.0899849,0.0402981 0.0899849,0.0900203 0,0.0497172 -0.0402475,0.0900153 -0.0899849,0.0900153 -0.049702,0 -0.0900203,-0.0402981 -0.0900203,-0.0900153 0,-0.0497222 0.0403183,-0.0900203 0.0900203,-0.0900203z"/>
  <path class="fil4 str0" d="M1.64222 1.80396c0.0497172,0 0.0900355,0.0404854 0.0900355,0.0903898 0,0.0499247 -0.0403183,0.0903949 -0.0900355,0.0903949 -0.049702,0 -0.0900203,-0.0404702 -0.0900203,-0.0903949 0,-0.0499044 0.0403183,-0.0903898 0.0900203,-0.0903898z"/>
  <path class="fil4 str0" d="M1.8299 1.80396c0.0497374,0 0.0900355,0.0404854 0.0900355,0.0903898 0,0.0499247 -0.0402981,0.0903949 -0.0900355,0.0903949 -0.049702,0 -0.0900203,-0.0404702 -0.0900203,-0.0903949 0,-0.0499044 0.0403183,-0.0903898 0.0900203,-0.0903898z"/>
  <path class="fil4 str0" d="M2.10806 1.9647c0.0497526,0 0.0900001,0.0402525 0.0900001,0.0899545 0,0.049702 -0.0402475,0.0899495 -0.0900001,0.0899495 -0.0496514,0 -0.0899545,-0.0402475 -0.0899545,-0.0899495 0,-0.049702 0.0403032,-0.0899545 0.0899545,-0.0899545z"/>
  <path class="fil4 str0" d="M2.01687 1.80396c0.049702,0 0.0899545,0.0404854 0.0899545,0.0903898 0,0.0499247 -0.0402525,0.0903949 -0.0899545,0.0903949 -0.049702,0 -0.0899849,-0.0404702 -0.0899849,-0.0903949 0,-0.0499044 0.0402829,-0.0903898 0.0899849,-0.0903898z"/>
  <path class="fil4 str0" d="M2.20454 1.80396c0.049702,0 0.0899495,0.0404854 0.0899495,0.0903898 0,0.0499247 -0.0402475,0.0903949 -0.0899495,0.0903949 -0.0496514,0 -0.0899545,-0.0404702 -0.0899545,-0.0903949 0,-0.0499044 0.0403032,-0.0903898 0.0899545,-0.0903898z"/>
  <path class="fil5 str0" d="M1.98865 0.847287c-0.00744518,0.103974 -0.0372917,0.12136 -0.0379446,0.177409 0.0489985,-0.0236413 0.0858852,-0.0720021 0.126695,-0.10564 0.0335817,0.0157609 0.0742999,0.0532044 0.0951677,0.0848274l-0.000136655 0.00023282c0.00081487,0.00103757 0.00161962,0.0020802 0.00241424,0.00314813 -0.00281408,0.00212575 -0.00566866,0.00426162 -0.0085536,0.00639243 -0.0326707,0.0458503 -0.0893118,0.0587263 -0.104212,0.115453 0.0537814,-0.00162974 0.106105,-0.0253116 0.151768,-0.0528451 0.0318052,0.059779 0.0853589,0.103159 0.132434,0.150407 -0.0140654,0.00919639 -0.028728,0.0183675 -0.0430616,0.0280953 -0.0154775,0.0143032 -0.0399894,0.0315269 -0.0631144,0.0543027 -0.011474,0.013954 -0.0208222,0.0296137 -0.0269008,0.0477028 -0.0316382,-0.000571927 -0.0862294,-0.0718199 -0.16764,-0.0829497 0.00417051,0.0348724 0.0283382,0.0630689 0.0560691,0.0853336 0.0173653,0.0138325 0.0349534,0.0273816 0.0515241,0.0422973 -0.0208627,0.0200731 -0.0918272,0.0797914 -0.097339,0.0940086 -0.0226746,-0.00152345 -0.0466399,-0.00101732 -0.068778,0.0038719 -0.0210348,0.00901418 -0.0464526,0.0345687 -0.0656805,0.0462046 -0.00207513,-0.00102744 -0.0040288,-0.00217636 -0.00589136,-0.00341638 -0.0175475,-0.0106338 -0.0402272,-0.0328175 -0.0600372,-0.0434563 -0.0201693,-0.00292543 -0.0405866,-0.00240918 -0.0608925,-0.0032038 -0.00134125,-0.00131088 -0.00269767,-0.00260657 -0.00406423,-0.00388708 -0.00315319,0.000126533 -0.0062912,0.000298617 -0.0094039,0.00050613 -0.00918626,-0.0236869 -0.0722653,-0.0630891 -0.0973693,-0.0872467 0.0165758,-0.0149157 0.0341638,-0.0284648 0.0515291,-0.0422973 0.0038972,-0.00312789 0.00771849,-0.00637218 0.0114284,-0.00973289 0.00900912,-0.0088421 0.0175526,-0.0180537 0.0252205,-0.0278928 0.0110083,-0.0154825 0.0185244,-0.0328428 0.0198555,-0.0522073 -0.0589085,0.0163733 -0.154562,0.0872062 -0.168086,0.0874492 -0.0210196,-0.0625729 -0.0811732,-0.0961597 -0.133092,-0.130101 0.0470802,-0.0472473 0.101307,-0.0946464 0.133117,-0.154425 0.0280953,0.0169351 0.0732269,0.0392808 0.106095,0.0485986 0.0143589,0.00311776 0.0293404,0.00475762 0.0441852,0.005284 -0.0171882,-0.0579418 -0.0790829,-0.0690615 -0.109668,-0.122246l0.000759195 -0.00113373 -0.00298617 -0.00224722c0.0282826,-0.0379851 0.0668649,-0.0550214 0.0980121,-0.0848274 0.0173704,0.0125875 0.0326049,0.0308841 0.0483101,0.0490592 0.0238893,0.0231858 0.0486847,0.0459111 0.0777416,0.059941 0.00175121,-0.0618339 -0.0300844,-0.0727461 -0.0378181,-0.180769 0.0515089,-0.00379092 0.0936088,-0.00343156 0.140345,0z"/>
  <path class="fil4 str0" d="M1.64222 1.47979c0.0497172,0 0.0900355,0.0404347 0.0900355,0.0903038 0,0.0499044 -0.0403183,0.0903392 -0.0900355,0.0903392 -0.049702,0 -0.0900203,-0.0404347 -0.0900203,-0.0903392 0,-0.049869 0.0403183,-0.0903038 0.0900203,-0.0903038z"/>
  <path class="fil4 str0" d="M1.8299 1.48007c0.0497374,0 0.0900355,0.0403032 0.0900355,0.0900203 0,0.0497374 -0.0402981,0.0900558 -0.0900355,0.0900558 -0.049702,0 -0.0900203,-0.0403183 -0.0900203,-0.0900558 0,-0.0497172 0.0403183,-0.0900203 0.0900203,-0.0900203z"/>
  <path class="fil4 str0" d="M2.01687 1.47979c0.049702,0 0.0899545,0.0404347 0.0899545,0.0903038 0,0.0499044 -0.0402525,0.0903392 -0.0899545,0.0903392 -0.049702,0 -0.0899849,-0.0404347 -0.0899849,-0.0903392 0,-0.049869 0.0402829,-0.0903038 0.0899849,-0.0903038z"/>
  <path class="fil4 str0" d="M2.20454 1.47979c0.049702,0 0.0899495,0.0404347 0.0899495,0.0903038 0,0.0499044 -0.0402475,0.0903392 -0.0899495,0.0903392 -0.0496514,0 -0.0899545,-0.0404347 -0.0899545,-0.0903392 0,-0.049869 0.0403032,-0.0903038 0.0899545,-0.0903038z"/>
  <path class="fil4 str0" d="M1.54672 1.64188c0.0496666,0 0.0899495,0.0404347 0.0899495,0.090324 0,0.049869 -0.0402829,0.0903088 -0.0899495,0.0903088 -0.0496868,0 -0.0899849,-0.0404398 -0.0899849,-0.0903088 0,-0.0498893 0.0402981,-0.090324 0.0899849,-0.090324z"/>
  <path class="fil4 str0" d="M1.73442 1.64188c0.0496514,0 0.0899495,0.0404347 0.0899495,0.090324 0,0.049869 -0.0402981,0.0903088 -0.0899495,0.0903088 -0.049702,0 -0.0899849,-0.0404398 -0.0899849,-0.0903088 0,-0.0498893 0.0402829,-0.090324 0.0899849,-0.090324z"/>
  <path class="fil4 str0" d="M1.92136 1.64188c0.0497172,0 0.0899849,0.0404347 0.0899849,0.090324 0,0.049869 -0.0402677,0.0903088 -0.0899849,0.0903088 -0.049702,0 -0.0900051,-0.0404398 -0.0900051,-0.0903088 0,-0.0498893 0.0403032,-0.090324 0.0900051,-0.090324z"/>
  <path class="fil4 str0" d="M2.10904 1.64188c0.049702,0 0.0899495,0.0404347 0.0899495,0.090324 0,0.049869 -0.0402475,0.0903088 -0.0899495,0.0903088 -0.0496868,0 -0.0899545,-0.0404398 -0.0899545,-0.0903088 0,-0.0498893 0.0402677,-0.090324 0.0899545,-0.090324z"/>
  <path class="fil4 str0" d="M2.2928 1.64212c0.0497526,0 0.0900709,0.0403335 0.0900709,0.0900861 0,0.0497374 -0.0403183,0.0900709 -0.0900709,0.0900709 -0.0497526,0 -0.0901367,-0.0403335 -0.0901367,-0.0900709 0,-0.0497526 0.0403841,-0.0900861 0.0901367,-0.0900861z"/>
  <path class="fil3 str0" d="M1.92077 3.35458c0.0322709,0 0.0584429,0.026172 0.0584429,0.0584429 0,0.0322709 -0.026172,0.0584429 -0.0584429,0.0584429 -0.0322709,0 -0.0584429,-0.026172 -0.0584429,-0.0584429 0,-0.0322709 0.026172,-0.0584429 0.0584429,-0.0584429zm5.0613e-006 1.03077c-0.171001,-0.141413 -0.284304,-0.257615 -0.330382,-0.33684 -0.0241222,0.0224772 -0.0349078,0.0639141 -0.0323518,0.124316 -0.106495,-0.112604 -0.11438,-0.245159 -0.0236667,-0.397667 0.0320482,0.106292 0.0946615,0.1961 0.18784,0.269408 -0.0461743,-0.0171831 -0.0826258,-0.020554 -0.109365,-0.0101125 0.111045,0.134955 0.1965,0.138234 0.252837,0.00922169l0 -0.42849 -0.236469 0 0 -0.0716225 0.236469 0 -5.0613e-006 -0.0258886c-0.0375599,-0.019815 -0.0631651,-0.0592577 -0.0631651,-0.104658 0,-0.0652959 0.0529564,-0.118252 0.118252,-0.118252 0.0652959,0 0.118262,0.0529412 0.118252,0.118252 -1.01226e-005,0.0454505 -0.0255646,0.084878 -0.06316,0.104663l0 0.0258835 0.236469 0 0 0.0716225 -0.236469 -0.00565348 0 0.434143c0.0563374,0.129013 0.141792,0.125733 0.252837,-0.00922169 -0.0267389,-0.0104415 -0.0631904,-0.00707064 -0.109365,0.0101125 0.0931786,-0.0733079 0.155792,-0.163116 0.18784,-0.269408 0.0907137,0.152507 0.0828282,0.285063 -0.0236667,0.397667 0.00255596,-0.0604016 -0.00822968,-0.101838 -0.0323518,-0.124316 -0.0460781,0.0792246 -0.159385,0.195432 -0.330382,0.33684z"/>
 </g>
</svg>
