<?xml version="1.0" encoding="utf-8"?>
<!-- Generator: Adobe Illustrator 14.0.0, SVG Export Plug-In . SVG Version: 6.00 Build 43363)  -->
<!DOCTYPE svg PUBLIC "-//W3C//DTD SVG 1.1//EN" "http://www.w3.org/Graphics/SVG/1.1/DTD/svg11.dtd">
<svg version="1.1" id="Layer_1" xmlns="http://www.w3.org/2000/svg" xmlns:xlink="http://www.w3.org/1999/xlink" x="0px" y="0px"
	 width="460px" height="545px" viewBox="0 0 460 545" enable-background="new 0 0 460 545" xml:space="preserve">
<g transform="translate(0.470703, 0.887695)">
	<path fill="#FFFFFF" d="M0.501-0.005h457.841v423.523l-0.211,4.396l-0.209,4.393l-0.418,4.396l-0.627,4.394l-0.839,4.188
		l-1.047,3.976l-1.254,4.188l-1.465,3.767l-1.467,3.976l-1.883,3.56l-1.883,3.766l-2.095,3.351l-2.303,3.348l-2.721,3.348
		l-2.72,2.933l-2.721,2.93l-3.141,2.719l-3.349,2.723l-3.348,2.303l-3.768,2.511l-3.767,1.882l-3.77,2.094l-4.185,1.676
		l-4.186,1.674l-4.395,1.256l-4.605,1.256l-4.604,1.254l-4.813,0.837l-5.021,0.629l-5.23,0.419l-5.23,0.21l-5.44,0.209h-51.896
		h-3.557l-3.35,0.209h-3.349l-3.35,0.419l-3.14,0.21l-3.139,0.419l-2.93,0.419l-2.932,0.627l-2.929,0.628l-2.721,0.628l-2.722,0.628
		l-2.721,0.837l-2.721,0.837l-2.51,0.837l-2.305,0.836l-2.511,1.047l-2.301,1.048l-2.304,1.047l-2.303,1.047l-2.092,1.255
		l-2.094,1.256l-2.092,1.255l-2.08,1.245l-2.094,1.256l-1.884,1.466l-1.885,1.467l-1.883,1.464l-1.675,1.465l-1.885,1.465
		l-1.674,1.464l-1.883,1.675l-7.324,7.323l-7.323-7.323l-1.884-1.675l-1.674-1.464l-1.884-1.465l-1.674-1.465l-1.883-1.464
		l-1.885-1.467l-2.092-1.466l-1.884-1.256l-2.093-1.255l-2.093-1.255l-2.093-1.256l-2.093-1.255l-2.302-1.048l-2.302-1.048
		l-2.303-1.047l-2.511-1.046l-2.511-0.836l-2.513-0.837l-2.511-0.837l-2.721-0.837l-2.72-0.628l-2.723-0.628l-2.928-0.628
		l-2.93-0.627l-3.14-0.419l-2.93-0.42l-3.139-0.21l-3.349-0.42h-3.349l-3.558-0.209h-3.558H93.199l-5.44-0.209l-5.23-0.209
		l-5.23-0.419l-5.021-0.628l-4.813-0.837l-4.604-1.254l-4.604-1.256l-4.395-1.256l-4.186-1.675l-4.186-1.676l-3.977-2.093
		l-3.767-1.882l-3.558-2.511l-3.349-2.305l-3.348-2.721l-2.93-2.719l-2.931-2.931l-2.721-2.932l-2.511-3.348l-2.511-3.349
		l-2.094-3.35l-1.883-3.766l-1.884-3.561l-1.674-3.975l-1.255-3.768l-1.257-4.187l-1.046-3.977l-0.832-4.178l-0.628-4.394
		l-0.418-4.396l-0.209-4.393l-0.209-4.395V-0.005H0.501z"/>
</g>
<g transform="translate(6.12012, 6.32813)">
	<path fill="#161413" d="M0.501-0.005h446.75v418.083l-0.209,4.186l-0.209,4.187l-0.421,4.186l-0.627,3.978l-0.838,3.976
		l-1.045,3.978l-1.045,3.558l-1.258,3.766l-1.465,3.56l-1.674,3.558l-1.884,3.14l-1.885,3.349l-2.303,3.139l-2.301,2.931
		l-2.513,2.722l-2.721,2.72l-2.721,2.511l-3.14,2.515l-3.139,2.301l-3.35,2.092l-3.558,1.884l-3.557,1.884l-3.769,1.676
		l-4.186,1.465l-3.977,1.255l-4.396,1.256l-4.396,1.046l-4.813,0.628l-4.605,0.837l-5.021,0.42l-5.021,0.209l-5.23,0.21h-51.895
		h-3.558l-3.559,0.209h-3.56l-3.348,0.419l-3.348,0.209l-3.141,0.419l-3.14,0.629l-3.14,0.418l-2.93,0.628l-2.93,0.627l-2.93,0.837
		l-2.93,0.837l-2.722,0.837l-2.512,0.837l-2.72,1.046l-2.514,1.049l-2.51,1.046l-2.303,1.257l-2.51,1.046l-2.304,1.255l-2.094,1.256
		l-2.302,1.255l-2.094,1.466l-2.092,1.466l-2.094,1.465l-2.092,1.465l-1.885,1.465l-1.883,1.675l-1.884,1.675l-1.885,1.465
		l-1.674,1.674l-3.767,3.558l-3.559-3.558l-1.883-1.674l-1.884-1.465l-1.883-1.675l-1.883-1.675l-1.885-1.465l-2.093-1.465
		l-2.092-1.465l-2.093-1.466l-2.094-1.466l-2.092-1.255L198,510.796l-2.512-1.255l-2.302-1.046l-2.303-1.257l-2.511-1.046
		l-2.511-1.049l-2.722-1.046l-2.511-0.837l-2.931-0.837l-2.719-0.837l-2.722-0.837l-2.93-0.627l-3.139-0.628l-3.14-0.418
		l-3.139-0.629l-3.139-0.419l-3.35-0.209l-3.349-0.419h-3.557l-3.558-0.209h-3.767H87.549l-5.229-0.21l-5.022-0.209l-5.021-0.42
		l-4.813-0.837l-4.604-0.628l-4.395-1.046l-4.395-1.256l-4.187-1.255l-3.767-1.465l-3.976-1.676l-3.768-1.884l-3.348-1.884
		l-3.35-2.092l-3.139-2.301l-3.136-2.521L22.679,475l-2.722-2.72l-2.511-2.723l-2.302-2.93l-2.302-3.139l-1.885-3.35l-1.883-3.139
		l-1.674-3.559l-1.465-3.559l-1.256-3.766l-1.256-3.558l-0.837-3.978l-0.837-3.977l-0.628-3.977l-0.419-4.186l-0.206-4.181v-4.186
		V-0.005H0.501z"/>
</g>
<rect x="9.475" y="110.995" fill="#FFF700" width="441.303" height="204"/>
<path fill="#00943A" d="M9.485,310.196h51.644l86.558-124.273v108.029l33.048-46.947l-13.496-0.001l30.668-50.67h-11.734
	l43.202-64.271l43.203,64.271h-11.201l32.27,50.668l-15.332-0.001l32.59,46.344l-0.01-108.486l86.584,125.337l53.312,0.027
	l-0.267,114.184c0,44.776-28.668,76.377-84.326,76.377h-51.895c-39.967,0-65.494,13.811-84.328,32.434
	c-18.831-18.623-44.57-32.434-84.327-32.434H93.752c-55.66,0-84.537-31.6-84.537-76.377L9.485,310.196z"/>
<path fill="#0094DE" d="M51.583,298.867c0,0-4.225-78.921,47.688-130.834c40.247-40.248,88.724-51.576,129.256-51.576
	c43.408,0,89.549,10.283,134.031,54.767c50.676,50.676,45.07,127.645,45.07,127.645h43.149l0.002-289.764H230.232H9.473v289.774
	L51.583,298.867z"/>
<g>
	<polygon fill-rule="evenodd" clip-rule="evenodd" fill="#FFFFFF" points="246.478,78.704 231.845,68.633 231.845,86.55 
		224.438,86.55 224.438,68.633 209.805,78.704 205.642,72.503 221.554,61.549 205.642,50.596 209.805,44.394 224.438,54.466 
		224.438,36.55 231.845,36.55 231.845,54.466 246.478,44.394 250.642,50.596 234.728,61.549 250.642,72.503 	"/>
	<polygon fill-rule="evenodd" clip-rule="evenodd" fill="#FFFFFF" points="336.478,98.704 321.845,88.633 321.845,106.55 
		314.438,106.55 314.438,88.633 299.806,98.704 295.642,92.503 311.554,81.549 295.642,70.596 299.806,64.394 314.438,74.466 
		314.438,56.55 321.845,56.55 321.845,74.466 336.478,64.394 340.642,70.596 324.728,81.549 340.642,92.503 	"/>
	<polygon fill-rule="evenodd" clip-rule="evenodd" fill="#FFFFFF" points="156.478,98.704 141.845,88.633 141.845,106.55 
		134.438,106.55 134.438,88.633 119.806,98.704 115.642,92.503 131.554,81.549 115.642,70.596 119.806,64.394 134.438,74.466 
		134.438,56.55 141.845,56.55 141.845,74.466 156.478,64.394 160.642,70.596 144.728,81.549 160.642,92.503 	"/>
	<path fill="#FFFFFF" d="M228.115,466.55c0,0,6.411-6.369,11.179-15.741c1.262-2.486,4.445-11.843,6.009-20.669
		c1.388-7.826,1.24-16.521,1.24-16.521s6.606,3.109,12.166,3.109c8.984,0,9.51-2.798,17.119-10.154
		c2.653-2.563,4.886-2.26,4.886-2.26l67.68,0.037c0,0,18.668-3.432,32.584-15.347c14.011-12.002,14.664-19.757,14.664-19.757
		l-121.229-0.041c0,0-8.673,13.648-20.599,13.648c-22.026,0-22.053-50.579-22.053-50.579v-54.155c0,0,3.683-14.757,3.683-29.542
		c0-18.618-7.328-32.029-7.328-32.029h0.052c0,0-7.327,13.411-7.327,32.029c0,14.785,3.683,29.542,3.683,29.542v54.155
		c0,0-0.029,50.579-22.056,50.579c-11.922,0-20.594-13.648-20.594-13.648l-121.231,0.041c0,0,0.65,7.755,14.665,19.757
		c13.914,11.915,32.584,15.347,32.584,15.347l67.679-0.037c0,0,2.233-0.304,4.885,2.26c7.608,7.356,8.135,10.154,17.121,10.154
		c5.556,0,12.164-3.109,12.164-3.109s-0.148,8.694,1.238,16.521c1.563,8.826,4.748,18.183,6.012,20.669
		c4.766,9.372,11.178,15.741,11.178,15.741H228.115z"/>
</g>
</svg>
