<?xml version="1.0" encoding="UTF-8" standalone="no"?>
<!-- Created with Inkscape (http://www.inkscape.org/) -->
<svg
   xmlns:dc="http://purl.org/dc/elements/1.1/"
   xmlns:cc="http://creativecommons.org/ns#"
   xmlns:rdf="http://www.w3.org/1999/02/22-rdf-syntax-ns#"
   xmlns:svg="http://www.w3.org/2000/svg"
   xmlns="http://www.w3.org/2000/svg"
   xmlns:sodipodi="http://sodipodi.sourceforge.net/DTD/sodipodi-0.dtd"
   xmlns:inkscape="http://www.inkscape.org/namespaces/inkscape"
   width="589"
   height="754"
   id="svg2"
   sodipodi:version="0.32"
   inkscape:version="0.46"
   version="1.0"
   sodipodi:docname="shikhani_coat_of_arms.svg"
   inkscape:output_extension="org.inkscape.output.svg.inkscape">
  <defs
     id="defs4">
    <inkscape:perspective
       sodipodi:type="inkscape:persp3d"
       inkscape:vp_x="0 : 526.18109 : 1"
       inkscape:vp_y="0 : 1000 : 0"
       inkscape:vp_z="744.09448 : 526.18109 : 1"
       inkscape:persp3d-origin="372.04724 : 350.78739 : 1"
       id="perspective10" />
    <inkscape:perspective
       id="perspective2467"
       inkscape:persp3d-origin="372.04724 : 350.78739 : 1"
       inkscape:vp_z="744.09448 : 526.18109 : 1"
       inkscape:vp_y="0 : 1000 : 0"
       inkscape:vp_x="0 : 526.18109 : 1"
       sodipodi:type="inkscape:persp3d" />
  </defs>
  <sodipodi:namedview
     id="base"
     pagecolor="#ffffff"
     bordercolor="#666666"
     borderopacity="1.0"
     gridtolerance="10000"
     guidetolerance="10"
     objecttolerance="10"
     inkscape:pageopacity="0.0"
     inkscape:pageshadow="2"
     inkscape:zoom="0.7"
     inkscape:cx="-332.29883"
     inkscape:cy="278.70354"
     inkscape:document-units="px"
     inkscape:current-layer="layer2"
     showgrid="false"
     inkscape:window-width="1920"
     inkscape:window-height="1130"
     inkscape:window-x="-4"
     inkscape:window-y="-4"
     showguides="true"
     inkscape:guide-bbox="true" />
  <metadata
     id="metadata7">
    <rdf:RDF>
      <cc:Work
         rdf:about="">
        <dc:format>image/svg+xml</dc:format>
        <dc:type
           rdf:resource="http://purl.org/dc/dcmitype/StillImage" />
      </cc:Work>
    </rdf:RDF>
  </metadata>
  <g
     inkscape:groupmode="layer"
     id="layer2"
     inkscape:label="vector"
     style="display:inline">
    <path
       style="fill:#0067ac;fill-opacity:1;fill-rule:evenodd;stroke:#000000;stroke-width:6.20699501;stroke-linecap:butt;stroke-linejoin:miter;stroke-miterlimit:4;stroke-dasharray:none;stroke-opacity:1"
       d="M 585.43106,5.9106399 L 5.823123,5.9106399 L 5.823123,629.85426 C 29.456438,820.76174 239.21636,641.33226 296.70844,748.80365 C 349.55559,637.67097 551.16349,821.72001 585.43106,629.85426 L 585.43106,302.70434 L 585.43106,5.9106399 z"
       id="path2474"
       sodipodi:nodetypes="ccccccc" />
    <path
       style="fill:#000000;fill-rule:evenodd;stroke:none;stroke-width:1px;stroke-linecap:butt;stroke-linejoin:miter;stroke-opacity:1"
       d="M 275.86429,204.30271 C 269.2853,200.756 261.37255,193.89013 251.73405,190.21524 C 261.0341,191.87831 271.82342,200.21035 275.86429,204.30271 z"
       id="path3363"
       sodipodi:nodetypes="ccc" />
    <path
       sodipodi:nodetypes="ccc"
       id="path3361"
       d="M 273.3543,202.32012 C 267.78074,197.3404 261.68203,188.82233 253.16269,183.0063 C 261.82081,186.78696 270.37616,197.40008 273.3543,202.32012 z"
       style="fill:#000000;fill-rule:evenodd;stroke:none;stroke-width:1px;stroke-linecap:butt;stroke-linejoin:miter;stroke-opacity:1" />
    <path
       style="fill:#f8c300;fill-opacity:1;fill-rule:evenodd;stroke:#000000;stroke-width:1.51390135px;stroke-linecap:butt;stroke-linejoin:miter;stroke-opacity:1"
       d="M 281.69355,261.60518 C 279.39672,254.19719 281.2817,249.08808 280.9527,241.8783 C 280.82351,239.04758 290.90175,236.87928 289.96993,232.72946 C 277.09306,233.4126 275.44064,224.09873 271.35535,218.21766 L 261.04839,203.49287 C 270.99527,182.91431 298.28596,164.93972 326.04243,165.64341 C 377.60079,175.35547 375.03443,233.71501 371.34709,242.48928 L 281.69355,261.60518 z"
       id="path3357"
       sodipodi:nodetypes="cscccccc" />
    <path
       style="fill:#f8c300;fill-opacity:1;fill-rule:evenodd;stroke:#000000;stroke-width:1.51390135px;stroke-linecap:butt;stroke-linejoin:miter;stroke-opacity:1"
       d="M 379.56693,306.52752 C 391.00277,287.18835 379.62138,264.58958 370.39129,242.29812 L 281.69357,261.41402 C 269.48397,295.2166 245.41439,312.81291 227.59559,338.06875 C 225.09399,349.66011 230.2715,381.80684 253.15164,372.06096 C 254.06505,371.67189 255.84445,365.57941 250.98261,360.56762 C 244.16014,353.53475 240.85931,343.03227 242.03181,343.32506 C 255.44911,346.67552 267.14477,350.35321 277.87038,350.87638 C 296.00137,362.20427 312.99941,354.87364 330.1147,341.62813 C 346.07021,329.28016 362.69295,314.10597 379.56693,306.52752 z"
       id="path3317"
       sodipodi:nodetypes="ccccscscsc" />
    <path
       style="fill:#f8c300;fill-opacity:1;fill-rule:evenodd;stroke:#000000;stroke-width:1.51390135px;stroke-linecap:butt;stroke-linejoin:miter;stroke-opacity:1"
       d="M 359.6864,535.15358 C 425.31988,513.03153 454.13981,452.69999 395.15039,363.93991 C 385.09999,348.81731 382.54686,326.76996 380.33157,304.99825 C 361.52737,315.90774 354.98129,315.27593 340.34155,332.01926 C 335.76355,337.25507 326.59658,333.51917 320.78185,342.56172 C 314.37278,352.52856 295.8698,361.82682 277.10575,350.87638 C 263.49115,376.79592 263.55418,401.19572 269.49296,424.94266 C 251.53667,468.24017 282.16256,505.41182 298.05427,518.83111 C 297.6638,512.85058 235.57346,516.1115 247.00662,543.44383 C 248.02384,545.87562 309.07621,530.64847 309.98508,532.09503 L 359.6864,535.15358 z"
       id="path3269"
       sodipodi:nodetypes="cscsscccscc" />
    <path
       sodipodi:nodetypes="cccccccc"
       id="path3248"
       d="M 402.68153,621.20338 L 256.6982,622.28475 C 171.71303,590.77471 75.058202,531.92283 5.823123,529.28796 L 5.823123,629.85426 C 29.456438,820.76174 239.21636,641.33226 296.70844,748.80365 C 349.55559,637.67097 551.16349,821.72001 585.43106,629.85426 L 585.43106,513.06758 C 519.10777,515.24178 469.00484,582.74187 402.68153,621.20338 z"
       style="fill:#00923f;fill-opacity:1;fill-rule:evenodd;stroke:#000000;stroke-width:6.20699501;stroke-linecap:butt;stroke-linejoin:miter;stroke-miterlimit:4;stroke-dasharray:none;stroke-opacity:1" />
    <path
       sodipodi:nodetypes="cccsc"
       id="path3246"
       d="M 21.009289,682.32302 C 76.02329,783.03156 245.87818,653.78537 296.70844,748.80365 C 348.64858,639.57832 544.28697,815.48935 583.52039,639.40435 C 436.28465,570.15139 416.27476,538.3185 313.81407,535.92192 C 189.62463,533.01709 181.37096,612.14447 21.009289,682.32302 z"
       style="fill:#00923f;fill-opacity:1;fill-rule:evenodd;stroke:#000000;stroke-width:6.20699501;stroke-linecap:butt;stroke-linejoin:miter;stroke-miterlimit:4;stroke-dasharray:none;stroke-opacity:1" />
    <path
       style="fill:#000000;fill-rule:evenodd;stroke:#000000;stroke-width:1.51390135px;stroke-linecap:butt;stroke-linejoin:miter;stroke-opacity:1"
       d="M 298.06014,520.09641 C 256.42168,512.11364 245.94471,525.58495 245.88461,541.9939 C 245.76663,521.8344 268.12998,516.72578 298.06014,520.09641 z"
       id="path3252"
       sodipodi:nodetypes="ccc" />
    <path
       sodipodi:nodetypes="ccc"
       id="path3254"
       d="M 277.244,527.39558 C 264.53186,525.08994 255.94727,530.45107 245.88461,541.9939 C 256.85055,525.34882 261.91218,528.08004 277.244,527.39558 z"
       style="fill:#000000;fill-rule:evenodd;stroke:#000000;stroke-width:1.51390135px;stroke-linecap:butt;stroke-linejoin:miter;stroke-opacity:1" />
    <path
       style="fill:#f8c300;fill-opacity:1;fill-rule:evenodd;stroke:#000000;stroke-width:1.51390135px;stroke-linecap:butt;stroke-linejoin:miter;stroke-opacity:1"
       d="M 359.49524,534.5801 L 398.10934,517.18463 C 406.4046,513.72272 411.2725,516.43001 417.22524,517.18463 L 410.72583,524.06636 C 417.75858,519.92301 422.76819,514.09369 432.51794,512.21451 L 429.84171,521.58129 C 433.20876,517.74299 437.24873,514.91404 442.64936,514.1261 L 439.78199,520.05202 C 443.99926,516.49255 448.04177,512.80202 456.22165,512.21451 L 461.00062,512.59683 L 451.06035,520.43434 C 459.43087,517.8428 464.80376,518.46377 469.07448,521.41874 C 481.38689,529.93789 478.1829,543.39055 449.91341,540.31487 C 465.82421,549.92379 447.83944,547.20705 437.29692,547.19659 C 410.95556,548.69564 385.38155,539.45182 359.49524,534.5801 z"
       id="path3267"
       sodipodi:nodetypes="cccccccccccsccc" />
    <path
       style="fill:#000000;fill-rule:evenodd;stroke:none;stroke-width:1px;stroke-linecap:butt;stroke-linejoin:miter;stroke-opacity:1"
       d="M 314.01017,533.61338 C 302.43768,525.77689 288.49435,516.27744 278.76252,502.42067 C 265.68032,483.79345 258.68132,459.58314 260.77655,442.71244 C 263.9389,417.24952 293.04444,401.05612 359.42721,431.96572 C 290.65879,407.90989 265.29971,421.8029 264.05517,444.53151 C 263.25218,459.19611 269.739,480.62881 280.66263,497.54578 C 291.26878,513.97106 306.1892,525.98444 314.01017,533.61338 z"
       id="path3250"
       sodipodi:nodetypes="csscssc" />
    <path
       style="fill:#000000;fill-rule:evenodd;stroke:#000000;stroke-width:1.51390135px;stroke-linecap:butt;stroke-linejoin:miter;stroke-opacity:1"
       d="M 368.61324,412.92831 C 377.28216,403.41607 381.18297,406.29328 380.87686,390.98315 C 380.11992,408.00233 374.15396,407.85232 368.61324,412.92831 z"
       id="path3271"
       sodipodi:nodetypes="ccc" />
    <path
       sodipodi:nodetypes="ccc"
       id="path3273"
       d="M 318.70282,356.24336 C 306.00396,358.33428 291.72759,364.74578 282.47774,376.94962 C 293.62114,364.0636 311.20856,356.79213 318.70282,356.24336 z"
       style="fill:#000000;fill-rule:evenodd;stroke:#000000;stroke-width:1.51390135px;stroke-linecap:butt;stroke-linejoin:miter;stroke-opacity:1" />
    <path
       style="fill:#000000;fill-rule:evenodd;stroke:#000000;stroke-width:1.51390135px;stroke-linecap:butt;stroke-linejoin:miter;stroke-opacity:1"
       d="M 362.76021,515.16683 C 372.86682,507.19882 382.26627,494.68592 384.46574,479.53153 C 380.93828,496.19831 369.05582,511.06434 362.76021,515.16683 z"
       id="path3275"
       sodipodi:nodetypes="ccc" />
    <path
       sodipodi:nodetypes="ccc"
       id="path3277"
       d="M 385.75739,470.37754 C 390.29139,464.57266 394.50813,455.45673 395.49486,444.41639 C 393.91238,456.55853 388.58171,467.38879 385.75739,470.37754 z"
       style="fill:#000000;fill-rule:evenodd;stroke:#000000;stroke-width:0.86547983px;stroke-linecap:butt;stroke-linejoin:miter;stroke-opacity:1" />
    <path
       style="fill:#000000;fill-rule:evenodd;stroke:#000000;stroke-width:0.62889719px;stroke-linecap:butt;stroke-linejoin:miter;stroke-opacity:1"
       d="M 392.90312,440.29274 C 395.5891,435.11883 398.08715,426.9938 398.67169,417.15354 C 397.73421,427.97583 394.57627,437.62885 392.90312,440.29274 z"
       id="path3279"
       sodipodi:nodetypes="ccc" />
    <path
       sodipodi:nodetypes="ccc"
       id="path3281"
       d="M 287.68103,454.9032 C 285.49266,460.5798 286.46134,468.92995 293.88633,478.24199 C 286.47492,467.90397 285.81099,457.92113 287.68103,454.9032 z"
       style="fill:#000000;fill-rule:evenodd;stroke:#000000;stroke-width:1.02789104px;stroke-linecap:butt;stroke-linejoin:miter;stroke-opacity:1" />
    <path
       style="fill:#000000;fill-rule:evenodd;stroke:#000000;stroke-width:1.02789104px;stroke-linecap:butt;stroke-linejoin:miter;stroke-opacity:1"
       d="M 280.79931,469.43128 C 278.61093,475.10788 277.28571,474.66472 284.7107,483.97675 C 281.23088,474.62163 278.94084,472.4521 280.79931,469.43128 z"
       id="path3283"
       sodipodi:nodetypes="ccc" />
    <path
       sodipodi:nodetypes="ccc"
       id="path3285"
       d="M 299.15056,477.45995 C 296.96219,483.13655 295.63696,482.69339 303.06195,492.00543 C 299.58213,482.6503 297.2921,480.48078 299.15056,477.45995 z"
       style="fill:#000000;fill-rule:evenodd;stroke:#000000;stroke-width:1.02789104px;stroke-linecap:butt;stroke-linejoin:miter;stroke-opacity:1" />
    <path
       style="fill:#000000;fill-rule:evenodd;stroke:#000000;stroke-width:1.02789104px;stroke-linecap:butt;stroke-linejoin:miter;stroke-opacity:1"
       d="M 292.24754,496.78339 C 292.39605,502.86538 291.00206,502.96264 301.42349,508.7279 C 294.63096,501.41429 291.68538,500.28529 292.24754,496.78339 z"
       id="path3287"
       sodipodi:nodetypes="ccc" />
    <path
       sodipodi:nodetypes="ccc"
       id="path3289"
       d="M 304.86403,491.81325 C 305.01254,497.89524 303.61855,497.9925 314.03998,503.75777 C 307.24745,496.44415 304.30187,495.31515 304.86403,491.81325 z"
       style="fill:#000000;fill-rule:evenodd;stroke:#000000;stroke-width:1.02789104px;stroke-linecap:butt;stroke-linejoin:miter;stroke-opacity:1" />
    <path
       style="fill:#000000;fill-rule:evenodd;stroke:#000000;stroke-width:1.02789104px;stroke-linecap:butt;stroke-linejoin:miter;stroke-opacity:1"
       d="M 274.34237,444.79441 C 270.46516,449.48269 269.34916,448.64177 273.434,459.82919 C 273.10393,449.8533 271.62107,447.06902 274.34237,444.79441 z"
       id="path3291"
       sodipodi:nodetypes="ccc" />
    <path
       sodipodi:nodetypes="ccc"
       id="path3293"
       d="M 282.75336,450.14686 C 278.87615,454.83514 277.76015,453.99421 281.84499,465.18164 C 281.51493,455.20574 280.03206,452.42146 282.75336,450.14686 z"
       style="fill:#000000;fill-rule:evenodd;stroke:#000000;stroke-width:1.02789104px;stroke-linecap:butt;stroke-linejoin:miter;stroke-opacity:1" />
    <path
       style="fill:#000000;fill-rule:evenodd;stroke:none;stroke-width:1px;stroke-linecap:butt;stroke-linejoin:miter;stroke-opacity:1"
       d="M 291.74259,331.86619 C 305.46833,331.49852 327.522,317.14036 334.4798,301.35069 C 326.56255,315.51666 301.04731,327.96654 291.74259,331.86619 z"
       id="path3319"
       sodipodi:nodetypes="ccc" />
    <path
       sodipodi:nodetypes="ccc"
       id="path3321"
       d="M 258.48094,309.88292 C 270.8322,305.00146 290.40385,270.68597 298.15961,250.1201 C 288.06693,268.39778 266.75651,306.55361 258.48094,309.88292 z"
       style="fill:#000000;fill-rule:evenodd;stroke:none;stroke-width:1px;stroke-linecap:butt;stroke-linejoin:miter;stroke-opacity:1" />
    <path
       style="fill:#000000;fill-rule:evenodd;stroke:none;stroke-width:1px;stroke-linecap:butt;stroke-linejoin:miter;stroke-opacity:1"
       d="M 275.49408,315.80884 C 286.31095,310.42765 317.8962,278.31125 325.11302,264.26586 C 315.49623,285.72603 283.01171,313.89892 275.49408,315.80884 z"
       id="path3323"
       sodipodi:nodetypes="ccc" />
    <path
       style="fill:#000000;fill-rule:evenodd;stroke:none;stroke-width:1px;stroke-linecap:butt;stroke-linejoin:miter;stroke-opacity:1"
       d="M 245.67328,326.13142 C 251.17185,323.93487 257.96421,320.43625 260.5013,315.87877 C 257.21309,318.46177 249.43972,323.53691 245.67328,326.13142 z"
       id="path3325"
       sodipodi:nodetypes="ccc" />
    <path
       sodipodi:nodetypes="ccc"
       id="path3327"
       d="M 227.68231,338.8214 C 232.99848,341.42859 240.14814,344.12282 245.23062,342.94984 C 241.10958,342.24177 232.1325,339.87659 227.68231,338.8214 z"
       style="fill:#000000;fill-rule:evenodd;stroke:none;stroke-width:1px;stroke-linecap:butt;stroke-linejoin:miter;stroke-opacity:1" />
    <path
       style="fill:#000000;fill-rule:evenodd;stroke:none;stroke-width:1px;stroke-linecap:butt;stroke-linejoin:miter;stroke-opacity:1"
       d="M 237.78344,357.24995 C 241.70785,361.68368 247.29476,366.8955 252.4413,367.74444 C 248.89957,365.5217 241.49748,359.91893 237.78344,357.24995 z"
       id="path3329"
       sodipodi:nodetypes="ccc" />
    <path
       style="fill:#000000;fill-rule:evenodd;stroke:none;stroke-width:1px;stroke-linecap:butt;stroke-linejoin:miter;stroke-opacity:1"
       d="M 290.29814,263.43782 C 311.02792,266.0019 348.44741,250.42417 349.95733,222.67742 C 350.15281,219.08526 352.76504,215.34456 353.34764,211.69178 C 348.15244,216.61533 347.65001,225.20368 345.43558,231.34556 C 338.93301,249.38091 302.0513,267.23533 290.29814,263.43782 z"
       id="path3331"
       sodipodi:nodetypes="cscsc" />
    <path
       sodipodi:nodetypes="cscsc"
       id="path3333"
       d="M 347.45467,218.13315 C 350.51222,218.13054 353.44565,216.04668 354.88031,214.21574 C 361.92263,205.22819 350.51116,180.26023 340.46546,187.37901 C 353.83151,190.7646 359.25853,210.72993 351.25234,210.93867 C 343.93187,211.12954 347.71294,216.81169 347.45467,218.13315 z"
       style="fill:#000000;fill-rule:evenodd;stroke:none;stroke-width:1px;stroke-linecap:butt;stroke-linejoin:miter;stroke-opacity:1" />
    <path
       style="fill:#000000;fill-rule:evenodd;stroke:none;stroke-width:1px;stroke-linecap:butt;stroke-linejoin:miter;stroke-opacity:1"
       d="M 347.42273,206.50913 C 351.86785,203.35612 338.34335,188.89768 337.6799,194.89933 C 333.92388,200.86452 339.2542,210.69225 347.42273,206.50913 z"
       id="path3335"
       sodipodi:nodetypes="ccc" />
    <path
       sodipodi:nodetypes="ccc"
       id="path3337"
       d="M 300.37631,196.72141 C 301.32022,202.08886 320.17953,196.06515 315.04121,192.89377 C 311.26112,186.9438 300.09728,187.54832 300.37631,196.72141 z"
       style="fill:#000000;fill-rule:evenodd;stroke:none;stroke-width:1px;stroke-linecap:butt;stroke-linejoin:miter;stroke-opacity:1" />
    <path
       style="fill:#000000;fill-rule:evenodd;stroke:none;stroke-width:1px;stroke-linecap:butt;stroke-linejoin:miter;stroke-opacity:1"
       d="M 261.4439,203.59855 C 270.93174,194.04228 293.75249,184.03777 304.27669,168.49525 C 298.30035,185.40081 271.51891,199.66943 261.4439,203.59855 z"
       id="path3339"
       sodipodi:nodetypes="ccc" />
    <path
       sodipodi:nodetypes="ccc"
       id="path3341"
       d="M 331.69481,229.40503 C 331.2541,222.01976 335.67712,225.64121 339.64109,217.04962 C 337.39009,226.39468 335.48958,227.23308 331.69481,229.40503 z"
       style="fill:#000000;fill-rule:evenodd;stroke:none;stroke-width:1px;stroke-linecap:butt;stroke-linejoin:miter;stroke-opacity:1" />
    <path
       style="fill:#000000;fill-rule:evenodd;stroke:none;stroke-width:1px;stroke-linecap:butt;stroke-linejoin:miter;stroke-opacity:1"
       d="M 287.81309,232.66123 C 290.87064,232.65861 293.80298,230.57391 295.23873,228.74382 C 302.2707,219.78043 291.35585,200.50356 269.64108,198.08391 C 291.80045,204.14574 297.79744,218.17806 294.47815,225.46675 C 292.1278,230.62776 288.07136,231.33976 287.81309,232.66123 z"
       id="path3343"
       sodipodi:nodetypes="cscsc" />
    <path
       style="fill:#000000;fill-rule:evenodd;stroke:none;stroke-width:1px;stroke-linecap:butt;stroke-linejoin:miter;stroke-opacity:1"
       d="M 275.36072,225.93965 C 282.79009,223.19891 281.98624,223.76311 289.88611,218.7136 C 282.70127,225.09913 279.71619,226.32398 275.36072,225.93965 z"
       id="path3345"
       sodipodi:nodetypes="ccc" />
    <path
       style="fill:#000000;fill-rule:evenodd;stroke:none;stroke-width:1px;stroke-linecap:butt;stroke-linejoin:miter;stroke-opacity:1"
       d="M 295.18568,182.17268 C 306.12831,176.76851 307.03485,182.46964 326.4394,179.42953 C 314.38463,187.55254 304.25495,183.42957 295.18568,182.17268 z"
       id="path3347"
       sodipodi:nodetypes="ccc"
       inkscape:transform-center-x="-2.4838674" />
    <path
       sodipodi:nodetypes="cscsc"
       id="path3349"
       d="M 318.10147,196.90408 C 318.77056,193.96263 316.08624,191.71854 314.99019,189.8366 C 309.62197,180.61935 291.82005,185.87708 292.85272,195.20654 C 298.39715,183.27804 309.12495,183.33607 314.01672,188.524 C 317.4805,192.19751 317.13916,196.2939 318.10147,196.90408 z"
       style="fill:#000000;fill-rule:evenodd;stroke:none;stroke-width:1px;stroke-linecap:butt;stroke-linejoin:miter;stroke-opacity:1" />
    <path
       style="fill:#000000;fill-rule:evenodd;stroke:none;stroke-width:1px;stroke-linecap:butt;stroke-linejoin:miter;stroke-opacity:1"
       d="M 318.10147,196.90408 C 318.77056,197.63808 317.80667,198.48427 316.71062,198.95389 C 311.3424,201.25394 291.82005,199.65573 292.85272,197.32768 C 298.39715,200.30429 309.12495,200.28981 314.01672,198.99523 C 317.4805,198.07855 317.13916,197.05635 318.10147,196.90408 z"
       id="path3351"
       sodipodi:nodetypes="cscsc" />
    <path
       sodipodi:nodetypes="ccc"
       id="path3353"
       d="M 310.58311,223.99486 C 301.33483,222.05782 289.70345,215.90966 276.45172,215.30581 C 288.87014,213.67373 304.52865,221.83899 310.58311,223.99486 z"
       style="fill:#000000;fill-rule:evenodd;stroke:none;stroke-width:1px;stroke-linecap:butt;stroke-linejoin:miter;stroke-opacity:1" />
    <path
       style="fill:#000000;fill-rule:evenodd;stroke:none;stroke-width:1px;stroke-linecap:butt;stroke-linejoin:miter;stroke-opacity:1"
       d="M 311.64592,213.41688 C 301.58516,213.47635 287.6744,211.26483 273.99417,212.68762 C 285.88312,209.66162 304.1339,211.77286 311.64592,213.41688 z"
       id="path3355"
       sodipodi:nodetypes="ccc" />
    <path
       sodipodi:nodetypes="ccc"
       id="path3359"
       d="M 275.76624,225.12864 C 280.72784,218.43948 280.85255,220.13795 289.88611,218.7136 C 279.30215,220.66833 281.65341,223.2154 275.76624,225.12864 z"
       style="fill:#000000;fill-rule:evenodd;stroke:none;stroke-width:1px;stroke-linecap:butt;stroke-linejoin:miter;stroke-opacity:1" />
    <rect
       style="opacity:1;fill:none;fill-opacity:1;stroke:#000000;stroke-width:6.20699501;stroke-miterlimit:4;stroke-dasharray:none;stroke-opacity:1"
       id="rect3365"
       width="207.9809"
       height="276.03348"
       x="5.660099"
       y="6.0257211" />
    <path
       sodipodi:nodetypes="ccc"
       id="path3371"
       d="M 261.4439,203.59855 C 270.93174,194.04228 293.75249,184.03777 304.27669,168.49525 C 298.30035,185.40081 271.51891,199.66943 261.4439,203.59855 z"
       style="fill:#000000;fill-rule:evenodd;stroke:none;stroke-width:1px;stroke-linecap:butt;stroke-linejoin:miter;stroke-opacity:1" />
    <g
       id="g3407"
       transform="matrix(1.5139013,0,0,1.5139013,-10.397249,-9.228372)">
      <g
         inkscape:transform-center-y="-29.7995"
         inkscape:transform-center-x="-28.789348"
         transform="matrix(0.821649,-0.1587977,-0.1767981,0.842039,27.872799,26.728554)"
         id="g3377">
        <path
           style="fill:#f9f9f9;fill-rule:evenodd;stroke:#000000;stroke-width:1px;stroke-linecap:butt;stroke-linejoin:miter;stroke-opacity:1"
           d="M 84.852814,79.397733 C 95.874195,76.263526 108.46758,61.803046 121.2593,46.811181 C 124.22063,43.340512 125.30685,37.498863 128.53541,34.431896 C 130.04835,32.994684 132.55886,33.288444 134.11404,31.962361 L 127.53176,26.238455 C 126.30113,27.66997 126.16968,29.770187 124.98095,31.086233 C 108.69386,49.117743 95.364375,55.930734 89.982969,62.518386 C 84.823785,68.834004 86.609499,71.000725 86.194415,75.072278 C 86.05031,76.485801 84.884999,77.804795 84.852814,79.397733 z"
           id="path3367"
           sodipodi:nodetypes="cssccsssc" />
        <path
           style="fill:#000000;fill-rule:evenodd;stroke:#000000;stroke-width:1px;stroke-linecap:butt;stroke-linejoin:miter;stroke-opacity:1"
           d="M 86.74685,67.780979 L 87.504464,55.785417 L 91.166267,55.532879 L 91.418805,51.239731 L 94.954339,51.113462 L 95.459416,47.32539 L 99.121219,46.567775 L 98.742411,42.274627 L 102.40421,42.653434 L 102.53048,40.759398 L 106.06602,40.885667 L 106.69736,36.339981 L 111.49559,35.961174 L 110.99051,33.8146 L 115.66247,33.8146 L 115.28366,31.541756 C 117.93531,31.583846 120.10904,33.375286 123.72366,32.486315 C 112.47935,41.054849 106.03308,46.75975 86.74685,67.780979 z"
           id="path3369"
           sodipodi:nodetypes="cccccccccccccccccc" />
        <path
           style="fill:#000000;fill-rule:evenodd;stroke:none;stroke-width:1px;stroke-linecap:butt;stroke-linejoin:miter;stroke-opacity:1"
           d="M 95.468191,65.969745 C 99.944582,58.283078 118.13972,47.58723 122.28328,35.90139 C 121.2737,47.702399 101.25559,61.782749 95.468191,65.969745 z"
           id="path3373"
           sodipodi:nodetypes="ccc" />
        <path
           sodipodi:nodetypes="cccccc"
           style="fill:#000000;fill-rule:evenodd;stroke:#000000;stroke-width:1px;stroke-linecap:butt;stroke-linejoin:miter;stroke-opacity:1"
           d="M 126.14374,29.052994 L 130.42979,33.49181 L 137.12821,31.541756 L 131.19356,29.142644 L 127.84743,23.776208 L 126.14374,29.052994 z"
           id="path3375" />
      </g>
      <path
         sodipodi:nodetypes="cscsc"
         id="path3403"
         d="M 95.445572,68.539122 C 95.745934,68.257322 95.61352,67.798347 95.633199,67.501653 C 95.729578,66.048521 93.313316,65.284026 92.717694,66.418749 C 94.256167,65.492176 95.465849,66.318028 95.62327,67.278756 C 95.734735,67.959034 95.383261,68.396573 95.445572,68.539122 z"
         style="fill:#000000;fill-rule:evenodd;stroke:none;stroke-width:1px;stroke-linecap:butt;stroke-linejoin:miter;stroke-opacity:1" />
      <path
         sodipodi:nodetypes="ccc"
         id="path3405"
         d="M 89.361881,71.856904 C 89.426051,72.650313 90.708168,71.759896 90.358848,71.291106 C 90.101866,70.411589 89.342912,70.500947 89.361881,71.856904 z"
         style="fill:#000000;fill-rule:evenodd;stroke:none;stroke-width:1px;stroke-linecap:butt;stroke-linejoin:miter;stroke-opacity:1" />
    </g>
    <g
       id="g3416"
       transform="matrix(-1.0855098,1.0552561,-1.0552561,-1.0855098,283.96174,115.66281)">
      <g
         id="g3418"
         transform="matrix(0.821649,-0.1587977,-0.1767981,0.842039,27.872799,26.728554)"
         inkscape:transform-center-x="-28.789348"
         inkscape:transform-center-y="-29.7995">
        <path
           sodipodi:nodetypes="cssccsssc"
           id="path3420"
           d="M 84.852814,79.397733 C 95.874195,76.263526 108.46758,61.803046 121.2593,46.811181 C 124.22063,43.340512 125.30685,37.498863 128.53541,34.431896 C 130.04835,32.994684 132.55886,33.288444 134.11404,31.962361 L 127.53176,26.238455 C 126.30113,27.66997 126.16968,29.770187 124.98095,31.086233 C 108.69386,49.117743 95.364375,55.930734 89.982969,62.518386 C 84.823785,68.834004 86.609499,71.000725 86.194415,75.072278 C 86.05031,76.485801 84.884999,77.804795 84.852814,79.397733 z"
           style="fill:#f9f9f9;fill-rule:evenodd;stroke:#000000;stroke-width:1px;stroke-linecap:butt;stroke-linejoin:miter;stroke-opacity:1" />
        <path
           sodipodi:nodetypes="cccccccccccccccccc"
           id="path3422"
           d="M 86.74685,67.780979 L 87.504464,55.785417 L 91.166267,55.532879 L 91.418805,51.239731 L 94.954339,51.113462 L 95.459416,47.32539 L 99.121219,46.567775 L 98.742411,42.274627 L 102.40421,42.653434 L 102.53048,40.759398 L 106.06602,40.885667 L 106.69736,36.339981 L 111.49559,35.961174 L 110.99051,33.8146 L 115.66247,33.8146 L 115.28366,31.541756 C 117.93531,31.583846 120.10904,33.375286 123.72366,32.486315 C 112.47935,41.054849 106.03308,46.75975 86.74685,67.780979 z"
           style="fill:#000000;fill-rule:evenodd;stroke:#000000;stroke-width:1px;stroke-linecap:butt;stroke-linejoin:miter;stroke-opacity:1" />
        <path
           sodipodi:nodetypes="ccc"
           id="path3424"
           d="M 95.468191,65.969745 C 99.944582,58.283078 118.13972,47.58723 122.28328,35.90139 C 121.2737,47.702399 101.25559,61.782749 95.468191,65.969745 z"
           style="fill:#000000;fill-rule:evenodd;stroke:none;stroke-width:1px;stroke-linecap:butt;stroke-linejoin:miter;stroke-opacity:1" />
        <path
           id="path3426"
           d="M 126.14374,29.052994 L 130.42979,33.49181 L 137.12821,31.541756 L 131.19356,29.142644 L 127.84743,23.776208 L 126.14374,29.052994 z"
           style="fill:#000000;fill-rule:evenodd;stroke:#000000;stroke-width:1px;stroke-linecap:butt;stroke-linejoin:miter;stroke-opacity:1"
           sodipodi:nodetypes="cccccc" />
      </g>
      <path
         style="fill:#000000;fill-rule:evenodd;stroke:none;stroke-width:1px;stroke-linecap:butt;stroke-linejoin:miter;stroke-opacity:1"
         d="M 95.445572,68.539122 C 95.745934,68.257322 95.61352,67.798347 95.633199,67.501653 C 95.729578,66.048521 93.313316,65.284026 92.717694,66.418749 C 94.256167,65.492176 95.465849,66.318028 95.62327,67.278756 C 95.734735,67.959034 95.383261,68.396573 95.445572,68.539122 z"
         id="path3428"
         sodipodi:nodetypes="cscsc" />
      <path
         style="fill:#000000;fill-rule:evenodd;stroke:none;stroke-width:1px;stroke-linecap:butt;stroke-linejoin:miter;stroke-opacity:1"
         d="M 89.361881,71.856904 C 89.426051,72.650313 90.708168,71.759896 90.358848,71.291106 C 90.101866,70.411589 89.342912,70.500947 89.361881,71.856904 z"
         id="path3430"
         sodipodi:nodetypes="ccc" />
    </g>
    <g
       transform="matrix(-1.5113036,8.8648909e-2,8.8648909e-2,1.5113036,222.16176,-21.718709)"
       id="g3432">
      <g
         inkscape:transform-center-y="-29.7995"
         inkscape:transform-center-x="-28.789348"
         transform="matrix(0.821649,-0.1587977,-0.1767981,0.842039,27.872799,26.728554)"
         id="g3434">
        <path
           style="fill:#f9f9f9;fill-rule:evenodd;stroke:#000000;stroke-width:1px;stroke-linecap:butt;stroke-linejoin:miter;stroke-opacity:1"
           d="M 84.852814,79.397733 C 95.874195,76.263526 108.46758,61.803046 121.2593,46.811181 C 124.22063,43.340512 125.30685,37.498863 128.53541,34.431896 C 130.04835,32.994684 132.55886,33.288444 134.11404,31.962361 L 127.53176,26.238455 C 126.30113,27.66997 126.16968,29.770187 124.98095,31.086233 C 108.69386,49.117743 95.364375,55.930734 89.982969,62.518386 C 84.823785,68.834004 86.609499,71.000725 86.194415,75.072278 C 86.05031,76.485801 84.884999,77.804795 84.852814,79.397733 z"
           id="path3436"
           sodipodi:nodetypes="cssccsssc" />
        <path
           style="fill:#000000;fill-rule:evenodd;stroke:#000000;stroke-width:1px;stroke-linecap:butt;stroke-linejoin:miter;stroke-opacity:1"
           d="M 86.74685,67.780979 L 87.504464,55.785417 L 91.166267,55.532879 L 91.418805,51.239731 L 94.954339,51.113462 L 95.459416,47.32539 L 99.121219,46.567775 L 98.742411,42.274627 L 102.40421,42.653434 L 102.53048,40.759398 L 106.06602,40.885667 L 106.69736,36.339981 L 111.49559,35.961174 L 110.99051,33.8146 L 115.66247,33.8146 L 115.28366,31.541756 C 117.93531,31.583846 120.10904,33.375286 123.72366,32.486315 C 112.47935,41.054849 106.03308,46.75975 86.74685,67.780979 z"
           id="path3438"
           sodipodi:nodetypes="cccccccccccccccccc" />
        <path
           style="fill:#000000;fill-rule:evenodd;stroke:none;stroke-width:1px;stroke-linecap:butt;stroke-linejoin:miter;stroke-opacity:1"
           d="M 95.468191,65.969745 C 99.944582,58.283078 118.13972,47.58723 122.28328,35.90139 C 121.2737,47.702399 101.25559,61.782749 95.468191,65.969745 z"
           id="path3440"
           sodipodi:nodetypes="ccc" />
        <path
           sodipodi:nodetypes="cccccc"
           style="fill:#000000;fill-rule:evenodd;stroke:#000000;stroke-width:1px;stroke-linecap:butt;stroke-linejoin:miter;stroke-opacity:1"
           d="M 126.14374,29.052994 L 130.42979,33.49181 L 137.12821,31.541756 L 131.19356,29.142644 L 127.84743,23.776208 L 126.14374,29.052994 z"
           id="path3442" />
      </g>
      <path
         sodipodi:nodetypes="cscsc"
         id="path3444"
         d="M 95.445572,68.539122 C 95.745934,68.257322 95.61352,67.798347 95.633199,67.501653 C 95.729578,66.048521 93.313316,65.284026 92.717694,66.418749 C 94.256167,65.492176 95.465849,66.318028 95.62327,67.278756 C 95.734735,67.959034 95.383261,68.396573 95.445572,68.539122 z"
         style="fill:#000000;fill-rule:evenodd;stroke:none;stroke-width:1px;stroke-linecap:butt;stroke-linejoin:miter;stroke-opacity:1" />
      <path
         sodipodi:nodetypes="ccc"
         id="path3446"
         d="M 89.361881,71.856904 C 89.426051,72.650313 90.708168,71.759896 90.358848,71.291106 C 90.101866,70.411589 89.342912,70.500947 89.361881,71.856904 z"
         style="fill:#000000;fill-rule:evenodd;stroke:none;stroke-width:1px;stroke-linecap:butt;stroke-linejoin:miter;stroke-opacity:1" />
    </g>
    <path
       sodipodi:nodetypes="ccc"
       id="path3448"
       d="M 363.25111,291.74998 C 367.3341,279.54499 372.06515,280.59945 365.59525,266.72018 C 371.78384,282.59238 366.26656,284.86723 363.25111,291.74998 z"
       style="fill:#000000;fill-rule:evenodd;stroke:#000000;stroke-width:1.51390135px;stroke-linecap:butt;stroke-linejoin:miter;stroke-opacity:1" />
  </g>
</svg>
