<?xml version="1.0" encoding="UTF-8" standalone="no"?>
<!-- Created with Inkscape (http://www.inkscape.org/) -->

<svg xmlns:svg="http://www.w3.org/2000/svg" xmlns="http://www.w3.org/2000/svg" version="1.1" viewBox="0 0 479.4 564.8" id="svg2">
 <path d="M 2.5,2.5 V 442 C 3.4,487.6 37.5,523.7 93.8,524.9 H 186.7 C 215.4,525.4 227.7,535.7 240,562.3 250.3,536.1 261.1,525.7 293,524.9 H 385.6 C 441.5,523.7 475.9,487.6 476.9,442 V 2.5 H 2.5 z" style="fill:#d81e05;fill-opacity:1;stroke:#000000;stroke-width:5;stroke-linecap:butt;stroke-linejoin:miter;stroke-miterlimit:5;stroke-dasharray:none" />
 <g style="stroke-width:3;stroke-linecap:round;stroke-linejoin:round;stroke-miterlimit:4;stroke-opacity:1;stroke-dasharray:none">
  <path d="M 82.7,346.2 308.4,346.2 C 312,346.2 314.8,345.3 318,343.3 L 407.7,286.3 C 410.3,284.6 412,281.5 412,278.3 L 412,218.3 C 412,215.7 408.7,212.5 406.2,212.5 L 180.9,212.5 C 176.6,212.5 172.8,213.7 170.3,215.3 L 82,271.4 C 79.1,273.3 76.2,275.4 76.2,279.8 L 76.2,339.1 C 76.2,342.7 79.3,346.2 82.7,346.2 z" style="fill:#ffd900;fill-opacity:1;stroke:#d81e05" />
  <path d="M 317.4,275.1 405.1,218.5 M 313.4,283.1 313.4,338.8 M 84.9,277.1 307.4,277.1" style="fill:none;stroke:#d81e05" />
 </g>
</svg>
