<?xml version="1.0" encoding="UTF-8" standalone="no"?>
<!-- Created with Inkscape (http://www.inkscape.org/) -->

<svg
   xmlns:dc="http://purl.org/dc/elements/1.1/"
   xmlns:cc="http://creativecommons.org/ns#"
   xmlns:rdf="http://www.w3.org/1999/02/22-rdf-syntax-ns#"
   xmlns:svg="http://www.w3.org/2000/svg"
   xmlns="http://www.w3.org/2000/svg"
   xmlns:xlink="http://www.w3.org/1999/xlink"
   xmlns:sodipodi="http://sodipodi.sourceforge.net/DTD/sodipodi-0.dtd"
   xmlns:inkscape="http://www.inkscape.org/namespaces/inkscape"
   id="svg2816"
   version="1.1"
   inkscape:version="0.47 r22583"
   width="173.32658"
   height="221.06435"
   sodipodi:docname="gerb_boksitogorsk.svg"
   style="display:inline">
  <metadata
     id="metadata2822">
    <rdf:RDF>
      <cc:Work
         rdf:about="">
        <dc:format>image/svg+xml</dc:format>
        <dc:type
           rdf:resource="http://purl.org/dc/dcmitype/StillImage" />
        <dc:title />
      </cc:Work>
    </rdf:RDF>
  </metadata>
  <defs
     id="defs2820" />
  <sodipodi:namedview
     pagecolor="#ffffff"
     bordercolor="#666666"
     borderopacity="1"
     objecttolerance="10"
     gridtolerance="10"
     guidetolerance="10"
     inkscape:pageopacity="0"
     inkscape:pageshadow="2"
     inkscape:window-width="1280"
     inkscape:window-height="753"
     id="namedview2818"
     showgrid="false"
     inkscape:zoom="1.5102009"
     inkscape:cx="44.572781"
     inkscape:cy="81.030167"
     inkscape:window-x="-4"
     inkscape:window-y="-4"
     inkscape:window-maximized="1"
     inkscape:current-layer="svg2816" />
  <path
     style="fill:#00943a;fill-opacity:1;stroke:#000000;stroke-width:1.5;stroke-linecap:butt;stroke-linejoin:miter;stroke-miterlimit:4;stroke-opacity:1;stroke-dasharray:none;display:inline"
     d="m 86.674361,220.31435 c 2.6781,-5.92134 5.42389,-10.45327 13.789209,-10.91298 l 58.54912,-0.1173 c 7.63376,-0.12925 13.71237,-7.67468 13.56113,-15.73745 l 0,-192.79662 -171.79890944,0 0,192.79662 c -0.42076,8.9718 4.47732004,15.00006 15.56114044,15.73745 l 57.48555,0.1173 c 8.36533,0.45971 10.17467,4.99164 12.85276,10.91298 z"
     id="path4517-8-5" />
  <path
     style="fill:#ffffff;fill-opacity:1;stroke:#000000;stroke-width:1;stroke-linecap:butt;stroke-linejoin:miter;stroke-miterlimit:4;stroke-opacity:1;stroke-dasharray:none;display:inline"
     d="m 0.76411056,0.7547446 0,158.1874954 c 2.11005004,-0.4383 4.36921004,-0.80305 6.00000004,-0.71875 3.7318304,0.19291 6.8964404,3.04186 10.5937504,2.5 4.8157,-0.70577 7.96853,-5.3532 12.4375,-7.28125 5.81167,-2.50732 13.84023,-1.65914 17.875,-4.46875 1.24812,-0.86912 16.84185,-10.67068 25.3218,-10.6799 5.3816,-0.006 19.37742,6.08681 29.803209,6.02365 6.31387,-0.0383 13.22201,-3.14969 18.64611,-2.63767 8.61375,0.81312 9.40274,7.85742 14.60389,9.26267 5.63072,1.52133 9.71782,5.90588 15.75,6.78125 2.88185,0.4182 5.36265,-1.34715 8.25,-0.96875 4.06645,0.53293 9.14739,2.62097 12.53125,4.21875 l 0,-160.2187454 -171.81250944,0 z"
     id="path3840"
     sodipodi:nodetypes="ccssssssssssccc" />
  <path
     style="fill:#00943a;fill-opacity:1;stroke:#000000;stroke-width:1px;stroke-linecap:butt;stroke-linejoin:miter;stroke-opacity:1;display:inline"
     d="m 92.456381,85.482238 -6.02834,0 0,-6.028337 -1.9314,-1.960673 -6.49656,0 10.47643,-35.057997 11.00318,35.087261 -7.05257,0 -1.93141,1.960673 0,3.950609 1.96067,2.048464 z"
     id="path2828"
     sodipodi:nodetypes="ccccccccccc" />
  <use
     style="display:inline"
     x="0"
     y="0"
     xlink:href="#path2828"
     id="use3607"
     transform="translate(38.376941,-16.414217)"
     width="174"
     height="221" />
  <use
     style="display:inline"
     x="0"
     y="0"
     xlink:href="#path2828"
     id="use3609"
     transform="translate(-37.006544,-17.818878)"
     width="174"
     height="221" />
  <use
     style="display:inline"
     x="0"
     y="0"
     xlink:href="#path2828"
     id="use3611"
     transform="translate(-62.290434,44.922647)"
     width="174"
     height="221" />
  <use
     style="display:inline"
     x="0"
     y="0"
     xlink:href="#path2828"
     id="use3613"
     transform="translate(59.446851,44.922648)"
     width="174"
     height="221" />
  <path
     style="fill:#030000;fill-opacity:1;stroke:none;display:inline"
     d="m 67.358001,138.94798 c -0.78814,-1.35929 0.29883,-2.43984 0.66217,-3.31082 0.78527,-1.88239 1.9258,-3.25859 1.98649,-5.29731 0.0462,-1.51123 -1.62411,-3.54153 -1.57264,-9.5186 0.0202,-2.34648 0.46553,-4.27511 0.89126,-5.40271 1.04224,-2.01049 2.6872,-4.14476 1.67463,-5.60576 0.7177,3.11777 -4.55617,7.80263 -8.18718,7.17263 -1.22097,-0.21185 -1.13665,-0.12817 -2.99566,-0.0887 0.0619,-2.69535 1.78932,-3.17276 2.16796,-4.42821 -2.36289,0.33534 -3.58607,3.11106 -4.79481,1.81972 -0.75488,-0.29857 -1.30904,-0.63875 -2.08224,-1.3302 -0.30887,-0.51572 -0.39628,-1.94691 0,-2.2348 1.37183,-1.0565 2.01781,-2.04858 2.15203,-2.73143 0.4789,-2.43629 0.21601,-4.40143 1.07602,-5.50424 0.79582,-1.0205 1.13697,-1.33142 1.63411,-2.790797 -0.798,-1.464578 -0.63601,-2.641072 0.76623,-3.044506 1.61344,-0.464194 1.87457,0.531108 2.66996,0.397319 -0.071,-0.630848 0.5016,-1.143286 1.07063,-1.261388 2.2365,-0.464184 1.96161,1.766981 3.04658,1.705975 8.01201,-0.450501 10.88762,1.008755 12.25003,1.310126 1.63019,0.360607 3.52332,-1.978951 9.02198,0 2.61129,0.939796 8.36892,2.764671 15.298339,4.235491 13.34886,2.83339 17.35442,13.19961 17.6443,20.51287 0.30337,7.77614 3.03395,11.24082 3.27238,14.21227 0.16099,2.00639 -0.63387,3.57334 -1.73403,3.83168 -2.45637,0.5768 -7.63003,0.80787 -9.31877,0.66217 -1.44306,-0.12451 1.05614,-2.69386 0.95186,-4.13852 -0.22445,-3.15094 -5.52814,-5.94996 -4.96622,-9.27029 0.0125,-1.2176 0.16856,-2.26118 2.02787,-3.72467 -1.71743,0.98764 -2.24145,1.66585 -2.40035,2.85558 -0.34568,2.58819 0.22761,2.40667 0.0828,7.32518 -0.12439,4.22487 -1.21254,5.21035 -2.31758,6.53887 -2.22652,2.67679 -6.7546,2.60844 -10.180769,2.31757 -1.59801,-1.62009 1.72871,-4.40041 1.82095,-5.87671 0.0419,-0.67122 -0.28173,-2.55092 -1.36571,-3.31082 -1.1602,-0.81334 -3.03888,-1.24877 -4.28276,-2.82839 -2.55794,-3.24835 -2.20322,-5.16123 -2.04918,-7.35237 -0.69547,1.9685 -0.5987,3.12478 -0.20043,4.38683 -1.71922,-0.0104 -4.00314,-0.76123 -5.17965,-1.15881 -4.37032,-1.47687 -2.23394,-2.09661 -5.13176,-5.21454 1.29111,1.95936 2.40195,4.69089 2.15203,6.37333 -0.40781,2.74528 -4.1983,7.11404 -6.78718,8.85644 -1.83085,0.79338 -7.06673,1.01715 -8.77367,0.9105 l -2e-5,0 0,4e-5 z"
     id="path3847"
     sodipodi:nodetypes="csssccscccccsscscssssssssssccssscsssccscscccc" />
  <g
     style="display:inline"
     id="g3869"
     transform="translate(0.45108056,-0.0265054)">
    <rect
       transform="matrix(0.70710678,0.70710678,-0.70710678,0.70710678,0,0)"
       ry="0"
       y="59.840462"
       x="182.63124"
       height="15.872972"
       width="15.872972"
       id="rect3865"
       style="fill:#ffffff;fill-opacity:1;fill-rule:evenodd;stroke:#000000;stroke-width:1;stroke-linejoin:miter;stroke-miterlimit:4;stroke-opacity:1;stroke-dasharray:none" />
    <rect
       transform="matrix(0.70710678,-0.70710678,0.70710678,0.70710678,0,0)"
       y="185.38783"
       x="-72.956856"
       height="10.359833"
       width="10.359833"
       id="rect3867"
       style="fill:#de2119;fill-opacity:1;fill-rule:evenodd;stroke:#000000;stroke-width:1;stroke-linecap:round;stroke-linejoin:miter;stroke-miterlimit:4;stroke-opacity:1;stroke-dasharray:none" />
  </g>
  <use
     style="display:inline"
     x="0"
     y="0"
     xlink:href="#g3869"
     id="use3873"
     transform="translate(50.812321,-0.0265053)"
     width="174"
     height="221" />
  <use
     style="display:inline"
     x="0"
     y="0"
     xlink:href="#g3869"
     id="use3881"
     transform="translate(-52.017134,-0.0265053)"
     width="174"
     height="221" />
</svg>
