<svg height="599.88208" version="1.1" width="474.1568" xmlns="http://www.w3.org/2000/svg">
<g transform="translate(-372.156,-470.8122)">
<path d="m845.4047,848.03388c-156.8555,-0.66481 -309.21007,-6.44431 -472.3216,0l0,127.98488c0,27.08954 35.43998,60.13754 65.11918,60.13754l138.71926,0c17.81779,0 32.32234,15.1286 32.32236,33.7457 3e-5,-18.6169 14.50458,-33.7457 32.32236,-33.7457l138.71927,0c29.6792,0 65.11917,-33.048 65.11917,-60.13754z" style="fill:#1da800"/>
<path d="m373.0831,471.72988 0,376.304 472.3216,0 0,-376.304 -472.3216,0z" style="fill:#de0b00"/>
<g style="stroke:#000;fill:#ffd600;stroke-width:0.52691817" transform="matrix(1.89783,0,0,1.89783,-150.47968,-875.89789)">
<path d="m361.78125,891.5 -11.25,8.90625 0,35.53125 105.90625,0 12.46875,-10 0,-3.5C454.27835,915.69938 445.06416,905.85273 443.625,891.5z" style="stroke:#000;stroke-linejoin:round;fill:#ffd600;stroke-width:0.52691817;stroke-linecap:square"/>
<path d="m361.78125,891.5 -5.8125,4.59375 -5.4375,4.3125 80.375,0 3.71875,-2.9375 -75.90625,0 1.5625,-1.375 3.40625,-3.03125 77.96875,0 1.96875,-1.5625 -78.15625,0 -3.6875,0z" style="stroke:#000;stroke-linejoin:round;fill:#ffd600;stroke-width:0.52691817;stroke-linecap:square"/>
<g style="stroke:#000;fill:#ffd600;stroke-width:0.52691817">
<path d="m385.625,863.9375c-0.18357,2.06892 -1.69527,4.29859 -2.84375,5.96875 -1.33951,1.94797 -2.91373,3.7387 -4.59375,5.40625 -1.68003,1.66755 -3.4796,3.20628 -5.4375,4.53125 -1.67866,1.13601 -3.89852,2.64435 -5.96875,2.8125 5.84785,3.17794 8.63569,10.36765 11.1875,14.8125l47.9375,0c-0.0469,-0.28305 -0.0987,-0.57578 -0.1875,-0.84375 -4.79836,-14.47959 -16.51423,-15.97368 -24.8125,-21.0625 -4.36016,-2.67382 -12.01849,-5.51298 -15.28125,-11.625z" style="stroke:#000;fill:#ffd600;stroke-width:0.52691817"/>
<path d="m366.25254,863.28098c-6.25854,6.2121 -10.06344,12.52913 -8.51571,14.08842 1.54772,1.5593 7.87091,-2.22062 14.12944,-8.43272 6.25854,-6.21209 10.08545,-12.50695 8.53773,-14.06624 -1.54773,-1.5593 -7.89292,2.19845 -14.15146,8.41054z" style="stroke:#000;fill:#ffd600;stroke-width:0.52691817"/>
<path d="m367.33126,864.36776c-4.53222,4.49859 -7.41781,8.93982 -6.44515,9.91976 0.97267,0.97994 5.43527,-1.87249 9.96749,-6.37108 4.53222,-4.49859 7.41781,-8.93982 6.44514,-9.91976 -0.97267,-0.97994 -5.43526,1.87249 -9.96748,6.37108z" style="stroke:#000;fill:#ffd600;stroke-width:0.52691817"/>
<path d="m357.73683,877.3694c0.0517,0.2565 0.15219,0.5041 0.28454,0.73027 0.86623,1.41005 2.66209,1.67005 3.99058,2.42346 1.19824,0.59794 2.52621,-0.11074 3.64821,-0.58304 3.67605,-1.85374 6.83196,-4.54979 9.75047,-7.43255 2.90442,-2.89696 5.6239,-6.0327 7.50497,-9.69484 0.48065,-1.11846 1.19919,-2.44111 0.6102,-3.64377 -0.7435,-1.33406 -0.99012,-3.13181 -2.39367,-4.00852 -0.22519,-0.13403 -0.47203,-0.23634 -0.72813,-0.28997 0.73168,0.9739 0.12998,2.2509 -0.25517,3.24734 -1.69756,3.5805 -4.20111,6.72322 -8.29533,10.78706 -4.09422,4.06384 -7.27448,6.56274 -10.86752,8.23359 -0.99928,0.37771 -2.28073,0.96989 -3.24915,0.23097z" style="stroke:#000;stroke-linejoin:round;fill:#ffd600;stroke-width:0.52691817;stroke-linecap:square"/>
<path d="m362.54162,880.70188c1.47985,0.68358 2.75828,1.28771 4.23537,1.96033 2.07023,-0.16815 4.27744,-1.70122 5.9767,-2.80619 1.93677,-1.35566 3.75057,-2.88654 5.43079,-4.5539 1.67983,-1.66775 3.22417,-3.47009 4.59422,-5.39671 1.11759,-1.69099 2.66706,-3.88672 2.85063,-5.95564 -0.6616,-1.48206 -1.25619,-2.76495 -1.92873,-4.24986 0.19071,1.53731 -0.69802,2.9333 -1.38581,4.23751 -1.86254,3.17747 -4.27929,5.99258 -6.90416,8.57012 -2.597,2.60562 -5.43004,5.00131 -8.6213,6.84013 -1.3093,0.67806 -2.71187,1.55637 -4.24771,1.35421z" style="stroke:#000;fill:#ffd600;stroke-width:0.52691817"/>
<path d="m406.6875,878.5c-0.69389,2.90252 -4.9143,8.70829 -10.84375,14.59375 -1.61495,1.60297 -3.2067,3.06243 -4.75,4.375l6.875,0c0.42035,-0.38686 0.84416,-0.75273 1.15625,-1.0625 3.23531,-3.2113 11.2205,-12.85348 11.90625,-15.8125 -1.46332,-0.72542 -2.8891,-1.4155 -4.34375,-2.09375z" style="stroke:#000;fill:#ffd600;stroke-width:0.52691817"/>
<path d="m418.03125,885.03125c1.09567,1.28675 -2.03694,6.36103 -7.375,12.4375l5.96875,0c2.67166,-3.41283 4.58918,-6.43309 5.25,-8.34375 -5.5e-4,-8.6e-4 0.0319,-0.0304 0.0312,-0.0312 -1.17609,-1.58611 -2.48778,-2.90684 -3.875,-4.0625z" style="stroke:#000;fill:#ffd600;stroke-width:0.52691817"/>
<path d="m388.28125,888.40625c-1.27156,-0.005 -2.55747,0.47094 -3.53125,1.4375 -1.94757,1.93311 -1.96436,5.08368 -0.0312,7.03125 0.23101,0.23273 0.48847,0.41632 0.75,0.59375l5.59375,0c0.24181,-0.1664 0.47181,-0.34841 0.6875,-0.5625 1.94757,-1.93311 1.96436,-5.08368 0.0312,-7.03125 -0.96656,-0.97378 -2.22844,-1.46401 -3.5,-1.46875z" style="stroke:#000;stroke-linejoin:round;fill:#ffd600;stroke-width:0.52691817;stroke-linecap:square"/>
</g>
<path d="m456.4375,932.3125 12.45738,-9.87947 0,3.51569 -12.45738,9.98878z" style="stroke:#000;stroke-linejoin:round;fill:#ffd600;stroke-width:0.52691817;stroke-linecap:square"/>
<path d="m443.625,891.5 -1.96875,1.5625c1.43916,14.35273 10.6221,24.19938 25.25,30.9375l2,-1.5625C454.27835,915.69938 445.06416,905.85273 443.625,891.5z" style="stroke:#000;stroke-linejoin:round;fill:#ffd600;stroke-width:0.52691817;stroke-linecap:square"/>
<path d="m434.625,897.46875 -3.71875,2.9375c1.45387,14.79899 10.75385,24.95863 25.53125,31.90625l3.71875,-2.9375c-14.7774,-6.94762 -24.07738,-17.10726 -25.53125,-31.90625z" style="stroke:#000;stroke-linejoin:round;fill:#ffd600;stroke-width:0.52691817;stroke-linecap:square"/>
</g>
<path d="m373.08326,471.739 0,504.28891c0,27.08939 35.43998,60.13749 65.11918,60.13749l138.71927,0c17.81778,0 32.32234,15.1286 32.32235,33.7456 10e-6,-18.6168 14.50458,-33.7456 32.32237,-33.7456l138.71926,0c29.6792,0 65.11919,-33.0481 65.11919,-60.13749l0,-504.28891z" style="stroke:#000;stroke-linejoin:round;fill:none;stroke-width:1.83004677;stroke-linecap:round"/>
<g style="stroke:#000;fill:#ffd600;stroke-width:0.52691817" transform="matrix(1.89783,0,0,1.89783,-150.47968,-875.89789)">
<path d="m318.95566,890.48523a7.323606,7.323606 0 1 1 -14.64722,0 7.323606,7.323606 0 1 1 14.64722,0z" style="stroke:#000;fill:#ffd600;stroke-width:0.4850992" transform="matrix(1.08621,0,0,1.08621,-27.42545,-76.66553)"/>
<path d="m318.95566,890.48523a7.323606,7.323606 0 1 1 -14.64722,0 7.323606,7.323606 0 1 1 14.64722,0z" style="stroke:#000;fill:#ffd600;stroke-width:0.4850992" transform="matrix(1.08621,0,0,1.08621,-19.4705,-62.556)"/>
<path d="m318.95566,890.48523a7.323606,7.323606 0 1 1 -14.64722,0 7.323606,7.323606 0 1 1 14.64722,0z" style="stroke:#000;fill:#ffd600;stroke-width:0.4850992" transform="matrix(1.08621,0,0,1.08621,-35.3804,-62.556)"/>
<path d="m318.95566,890.48523a7.323606,7.323606 0 1 1 -14.64722,0 7.323606,7.323606 0 1 1 14.64722,0z" style="stroke:#000;fill:#ffd600;stroke-width:0.4850992" transform="matrix(1.08621,0,0,1.08621,-27.42545,-48.73683)"/>
<path d="m318.95566,890.48523a7.323606,7.323606 0 1 1 -14.64722,0 7.323606,7.323606 0 1 1 14.64722,0z" style="stroke:#000;fill:#ffd600;stroke-width:0.4850992" transform="matrix(1.08621,0,0,1.08621,-11.51555,-48.73683)"/>
<path d="m318.95566,890.48523a7.323606,7.323606 0 1 1 -14.64722,0 7.323606,7.323606 0 1 1 14.64722,0z" style="stroke:#000;fill:#ffd600;stroke-width:0.4850992" transform="matrix(1.08621,0,0,1.08621,-43.33511,-48.79996)"/>
</g>
<g style="stroke:#000;fill:#ffd600;stroke-width:0.52691817" transform="matrix(1.89783,0,0,1.89783,-150.47968,-875.89789)">
<path d="m486.93547,932.04877a5.1348748,5.1348748 0 1 1 -10.26975,0 5.1348748,5.1348748 0 1 1 10.26975,0z" style="stroke:#000;stroke-linejoin:round;fill:#ffd600;stroke-width:0.52691817;stroke-linecap:square"/>
<path d="m486.93547,932.04877a5.1348748,5.1348748 0 1 1 -10.26975,0 5.1348748,5.1348748 0 1 1 10.26975,0z" style="stroke:#000;stroke-linejoin:round;fill:#ffd600;stroke-width:0.52691817;stroke-linecap:square" transform="translate(10.2698)"/>
<path d="m486.93547,932.04877a5.1348748,5.1348748 0 1 1 -10.26975,0 5.1348748,5.1348748 0 1 1 10.26975,0z" style="stroke:#000;stroke-linejoin:round;fill:#ffd600;stroke-width:0.52691817;stroke-linecap:square" transform="translate(20.5395)"/>
<path d="m486.93547,932.04877a5.1348748,5.1348748 0 1 1 -10.26975,0 5.1348748,5.1348748 0 1 1 10.26975,0z" style="stroke:#000;stroke-linejoin:round;fill:#ffd600;stroke-width:0.52691817;stroke-linecap:square" transform="translate(30.8092)"/>
<path d="m486.93547,932.04877a5.1348748,5.1348748 0 1 1 -10.26975,0 5.1348748,5.1348748 0 1 1 10.26975,0z" style="stroke:#000;stroke-linejoin:round;fill:#ffd600;stroke-width:0.52691817;stroke-linecap:square" transform="translate(25.7585,-9.2808)"/>
<path d="m486.93547,932.04877a5.1348748,5.1348748 0 1 1 -10.26975,0 5.1348748,5.1348748 0 1 1 10.26975,0z" style="stroke:#000;stroke-linejoin:round;fill:#ffd600;stroke-width:0.52691817;stroke-linecap:square" transform="translate(15.4887,-9.2808)"/>
<path d="m486.93547,932.04877a5.1348748,5.1348748 0 1 1 -10.26975,0 5.1348748,5.1348748 0 1 1 10.26975,0z" style="stroke:#000;stroke-linejoin:round;fill:#ffd600;stroke-width:0.52691817;stroke-linecap:square" transform="translate(5.219,-9.2808)"/>
<path d="m486.93547,932.04877a5.1348748,5.1348748 0 1 1 -10.26975,0 5.1348748,5.1348748 0 1 1 10.26975,0z" style="stroke:#000;stroke-linejoin:round;fill:#ffd600;stroke-width:0.52691817;stroke-linecap:square" transform="translate(20.3293,-18.309)"/>
<path d="m486.93547,932.04877a5.1348748,5.1348748 0 1 1 -10.26975,0 5.1348748,5.1348748 0 1 1 10.26975,0z" style="stroke:#000;stroke-linejoin:round;fill:#ffd600;stroke-width:0.52691817;stroke-linecap:square" transform="translate(10.0596,-18.309)"/>
<path d="m486.93547,932.04877a5.1348748,5.1348748 0 1 1 -10.26975,0 5.1348748,5.1348748 0 1 1 10.26975,0z" style="stroke:#000;stroke-linejoin:round;fill:#ffd600;stroke-width:0.52691817;stroke-linecap:square" transform="translate(15.1945,-27.5477)"/>
</g>
<path d="m436.48252,922.88866 0,31.31419 -14.82678,-16.13156 -5.1004,5.57489 22.95184,25.02763 22.95184,-25.02763 -5.10041,-5.57489 -14.82676,16.13156 0,-31.31419 -6.04933,0z" style="fill:#ffd600"/>
<path d="m513.75118,960.50636 0,31.31417 -14.82676,-16.13155 -5.10041,5.57489 22.95184,25.02763 22.95183,-25.02763 -5.1004,-5.57489 -14.82678,16.13155 0,-31.31417 -6.04932,0z" style="fill:#ffd600"/>
<path d="m606.21933,928.58353 0,31.31417 -14.82677,-16.13155 -5.10041,5.57488 22.95185,25.02762 22.95184,-25.02762 -5.10042,-5.57488 -14.82675,16.13155 0,-31.31417 -6.04934,0z" style="fill:#ffd600"/>
<path d="m782.00548,922.88866 0,31.31419 14.82676,-16.13156 5.10041,5.57489 -22.95184,25.02763 -22.95183,-25.02763 5.10039,-5.57489 14.82679,16.13156 0,-31.31419 6.04932,0z" style="fill:#ffd600"/>
<path d="m704.7368,960.50636 0,31.31417 14.82677,-16.13155 5.10043,5.57489 -22.95186,25.02763 -22.95184,-25.02763 5.10041,-5.57489 14.82676,16.13155 0,-31.31417 6.04933,0z" style="fill:#ffd600"/>
<g transform="matrix(1.89783,0,0,1.89783,-152.82265,-875.74292)">
<rect height="5.9673271" style="stroke:#000;fill:#ffd600;stroke-width:0.52691823" width="11.557451" x="357.35999" y="907.68268"/>
<path d="m363.13871,905.44432 0,2.23836" style="stroke:#000;stroke-linejoin:round;fill:#1da800;stroke-width:0.52691817;stroke-linecap:square"/>
<g transform="translate(0,17.0861)">
<rect height="5.9673271" style="stroke:#000;fill:#ffd600;stroke-width:0.52691823" width="11.557451" x="357.35999" y="907.68268"/>
<path d="m363.13871,905.44432 0,2.23836" style="stroke:#000;stroke-linejoin:round;fill:#1da800;stroke-width:0.52691817;stroke-linecap:square"/>
</g>
</g>
<g transform="matrix(1.89783,0,0,1.89783,-43.45241,-875.74292)">
<rect height="5.9673271" style="stroke:#000;fill:#ffd600;stroke-width:0.52691823" width="11.557451" x="357.35999" y="907.68268"/>
<path d="m363.13871,905.44432 0,2.23836" style="stroke:#000;stroke-linejoin:round;fill:#1da800;stroke-width:0.52691817;stroke-linecap:square"/>
<g transform="translate(0,17.0861)">
<rect height="5.9673271" style="stroke:#000;fill:#ffd600;stroke-width:0.52691823" width="11.557451" x="357.35999" y="907.68268"/>
<path d="m363.13871,905.44432 0,2.23836" style="stroke:#000;stroke-linejoin:round;fill:#1da800;stroke-width:0.52691817;stroke-linecap:square"/>
</g>
</g>
<rect height="67.432236" style="stroke-linejoin:round;fill:#ffd600;stroke-linecap:square;stroke:#000" width="7.8285351" x="562.33215" y="832.91968"/>
<rect height="67.432236" style="stroke-linejoin:round;fill:#ffd600;stroke-linecap:square;stroke:#000" width="7.8285351" x="616.18304" y="832.91968"/>
</g>
</svg>
