<?xml version="1.0" encoding="UTF-8"?>
<!DOCTYPE svg PUBLIC "-//W3C//DTD SVG 1.1//EN" "http://www.w3.org/Graphics/SVG/1.1/DTD/svg11.dtd">
<!-- Creator: CorelDRAW X5 -->
<svg xmlns="http://www.w3.org/2000/svg" xml:space="preserve" width="170px" height="288px" style="shape-rendering:geometricPrecision; text-rendering:geometricPrecision; image-rendering:optimizeQuality; fill-rule:evenodd; clip-rule:evenodd"
viewBox="0 0 170 287.585"
 xmlns:xlink="http://www.w3.org/1999/xlink">
 <defs>
  <style type="text/css">
   <![CDATA[
    .str0 {stroke:black;stroke-width:0.215892}
    .str5 {stroke:#C4B936;stroke-width:0.269865}
    .str4 {stroke:#FFCC00;stroke-width:0.269865}
    .str3 {stroke:black;stroke-width:0.539731}
    .str7 {stroke:black;stroke-width:0.539731;stroke-linejoin:round}
    .str2 {stroke:white;stroke-width:0.809596}
    .str6 {stroke:white;stroke-width:1.07946;stroke-linecap:round;stroke-linejoin:round}
    .str1 {stroke:#FFCC00;stroke-width:2.15892}
    .fil4 {fill:none}
    .fil0 {fill:#003399}
    .fil7 {fill:#CC9933}
    .fil9 {fill:#D19E2E}
    .fil8 {fill:#D29F2D}
    .fil10 {fill:#D5A22A}
    .fil11 {fill:#D6A329}
    .fil12 {fill:#D8A527}
    .fil14 {fill:#DAA725}
    .fil13 {fill:#DBA824}
    .fil16 {fill:#DDAA22}
    .fil15 {fill:#E0AD1F}
    .fil19 {fill:#E3B01C}
    .fil17 {fill:#E5B21A}
    .fil22 {fill:#E8B517}
    .fil18 {fill:#EAB715}
    .fil24 {fill:#EBB814}
    .fil25 {fill:#EEBB11}
    .fil20 {fill:#EFBC10}
    .fil27 {fill:#F0BD0F}
    .fil29 {fill:#F3C00C}
    .fil21 {fill:#F4C10B}
    .fil31 {fill:#F6C309}
    .fil23 {fill:#F9C606}
    .fil34 {fill:#FBC804}
    .fil6 {fill:#FDFFCB}
    .fil36 {fill:#FECB01}
    .fil2 {fill:#FFCC00}
    .fil38 {fill:#FFCF00}
    .fil26 {fill:#FFD000}
    .fil40 {fill:#FFD300}
    .fil28 {fill:#FFD500}
    .fil42 {fill:#FFD800}
    .fil30 {fill:#FFDA00}
    .fil44 {fill:#FFDD00}
    .fil32 {fill:#FFDF00}
    .fil46 {fill:#FFE100}
    .fil33 {fill:#FFE400}
    .fil48 {fill:#FFE600}
    .fil35 {fill:#FFE900}
    .fil50 {fill:#FFEB00}
    .fil37 {fill:#FFEE00}
    .fil51 {fill:#FFEF00}
    .fil39 {fill:#FFF200}
    .fil49 {fill:#FFF400}
    .fil41 {fill:#FFF700}
    .fil47 {fill:#FFF900}
    .fil43 {fill:#FFFC00}
    .fil45 {fill:#FFFD00}
    .fil3 {fill:white}
    .fil5 {fill:#A2842B}
    .fil1 {fill:#AC8700}
   ]]>
  </style>
    <clipPath id="id0">
     <path d="M85 0.269865c2.90753,0 5.77684,0.101901 8.59996,0.299442l-0.995371 11.3764 15.1286 2.0757 2.94391 -10.9869c5.89591,1.31424 11.4575,3.06794 16.5841,5.19825l-4.75006 10.1864 13.8056 7.15467 6.26368 -8.94549c5.07573,3.63174 9.28617,7.74783 12.4297,12.2231l-31.9708 31.9708 0.00172714 0.00118741c-11.5388,-2.56771 -24.4332,-4.00437 -38.041,-4.00437 -13.6084,0 -26.5034,1.43687 -38.0427,4.0048l0.00453374 -0.00194303 -31.9713 -31.9713c3.14361,-4.47523 7.35372,-8.59132 12.4291,-12.2233l6.26422 8.94603 13.8059 -7.15456 -4.7506 -10.1876c5.12658,-2.13053 10.6885,-3.88422 16.5844,-5.19847l2.94434 10.9884 15.1285 -2.07548 -0.995371 -11.3768c2.82268,-0.197541 5.69178,-0.299119 8.59888,-0.299119z"/>
    </clipPath>
 </defs>
 <g id="Слой_x0020_1">
  <metadata id="CorelCorpID_0Corel-Layer"/>
  <path class="fil0 str0" d="M0.107946 72.1762l169.784 0 0 179.856c0,10.838 -8.86788,19.7059 -19.7059,19.7059 -16.2965,0 -38.8773,0 -49.7417,0 -4.05176,0 -10.9547,9.92586 -15.4445,15.6724 -4.48948,-5.74651 -11.1318,-15.766 -15.1836,-15.7591l-50.0027 0.0866807c-10.8372,0.0184588 -19.7059,-8.86766 -19.7059,-19.7059l0 -179.856z"/>
  <g id="_618134864">
   <polygon id="_618421504" class="fil1 str0" points="82.1458,118.794 87.8542,118.794 87.8542,126.445 82.1458,126.445 "/>
   <polygon id="_618421336" class="fil2" points="82.8748,118.794 87.1252,118.794 87.1252,126.445 82.8748,126.445 "/>
   <polygon id="_618421048" class="fil3" points="84.0894,118.794 85.9106,118.794 85.9106,126.445 84.0894,126.445 "/>
   <path id="_618420904" class="fil1 str0" d="M85.0001 103.066c4.67828,0 8.47107,3.79279 8.47107,8.47107 0,4.6786 -3.79279,8.47129 -8.47107,8.47129 -4.67849,0 -8.47129,-3.79269 -8.47129,-8.47129 0,-4.67828 3.79279,-8.47107 8.47129,-8.47107zm-0.000215892 5.16166c1.82785,0 3.30963,1.48178 3.30963,3.30974 0,1.82764 -1.48178,3.30963 -3.30963,3.30963 -1.82764,0 -3.30963,-1.48199 -3.30963,-3.30963 0,-1.82796 1.48199,-3.30974 3.30963,-3.30974z"/>
   <polygon id="_618420880" class="fil1 str0" points="76.9231,126.338 93.0765,126.338 93.0765,129.252 76.9231,129.252 "/>
   <circle id="_618420784" class="fil4 str1" cx="84.9999" cy="111.537" r="6.49789"/>
   <circle id="_618420688" class="fil4 str2" cx="84.9999" cy="111.537" r="6.31979"/>
   <polygon id="_618420520" class="fil2" points="78.7455,126.536 91.2545,126.536 91.2545,129.053 78.7455,129.053 "/>
   <polygon id="_618420160" class="fil3" points="82.2062,126.536 87.7934,126.536 87.7934,129.053 82.2062,129.053 "/>
   <path id="_618420208" class="fil5 str0" d="M103.735 135.89c0,0 6.3156,4.85822 7.46944,5.76918 1.15373,0.910957 4.67601,4.85801 4.67601,4.85801 0,0 -3.88671,2.79365 -5.89062,2.67221 -2.00391,-0.121331 -4.31126,1.94335 -6.31549,2.24679 -2.00413,0.303436 2.85409,-1.76082 2.429,-6.43704 -0.424984,-4.67623 -2.36834,-9.10914 -2.36834,-9.10914z"/>
   <path id="_618420040" class="fil2" d="M103.735 135.89c0,0 5.89062,5.89062 7.04435,6.80158 1.15384,0.910957 4.00804,4.00782 4.00804,4.00782 0,0 -2.97564,1.63992 -4.97955,1.51848 -2.00391,-0.121439 -2.36823,1.6397 -4.37236,1.94314 -2.00413,0.303436 1.88226,-0.48565 1.45716,-5.16187 -0.424984,-4.67623 -3.15764,-9.10914 -3.15764,-9.10914z"/>
   <path id="_618419680" class="fil3" d="M104.646 150.525c0,0 2.85377,-1.21461 3.09687,-2.97564 0.243095,-1.76114 -1.45749,-4.85801 -1.45749,-4.85801 0,0 0.546531,3.70417 0.182321,4.73657 -0.364318,1.0324 -1.8217,3.09708 -1.8217,3.09708z"/>
   <path id="_618419728" class="fil5 str0" d="M84.9999 129.252l0 46.0176c0,0 1.78403,-5.50957 5.28353,-5.7083 5.34366,-0.303652 16.3958,-2.36845 19.7969,-9.53423 3.40095,-7.16579 0.546639,-14.7869 -2.30756,-18.8861 0.575137,2.22477 0.941398,5.8904 -1.45749,9.35202 0.425092,2.30778 1.09317,3.52217 -1.57882,6.19416 -2.6721,2.6721 -5.54336,4.89158 -11.4167,1.33605 -6.00698,-3.63627 -5.34409,-28.7712 -5.34409,-28.7712l-2.97575 0z"/>
   <path id="_618419560" class="fil2" d="M85.6372 129.577l0.0914303 42.657c0,0 0.327077,-3.62731 3.82604,-3.82593 5.34344,-0.303113 15.9102,-1.27517 19.3112,-8.44095 3.40095,-7.16579 1.76103,-14.7263 -1.09317,-18.8256 0.575137,2.22477 2.03435,6.61915 -0.364534,10.0807 0.425092,2.30789 0.546531,4.91889 -2.12557,7.59088 -2.67199,2.6721 -7.06183,4.58695 -12.9345,1.0324 -6.00601,-3.63552 -5.31397,-30.259 -5.31397,-30.259l-1.39693 -0.00939131z"/>
   <path id="_618419392" class="fil3" d="M95.2931 160.422c-0.758969,0.637854 -5.8605,7.22645 -5.40497,7.71232 0.455641,0.485865 5.58675,-0.0305487 8.53217,-0.819851 2.94542,-0.789302 7.46965,-3.21874 9.53423,-5.76918 2.06447,-2.55033 3.07754,-6.70561 2.44023,-10.7803 -0.301601,3.15246 -0.672936,6.2436 -1.6505,8.13849 -0.97756,1.89489 -2.73309,4.19036 -6.61958,6.01227 -3.88638,1.82191 -4.70602,-3.52217 -6.83159,-4.4938z"/>
   <path id="_618419032" class="fil3" d="M115.516 146.335c0,0 -3.52217,-2.42922 -4.49369,-3.15796 -0.971623,-0.728744 0.72842,4.55435 1.09295,4.79734 0.364426,0.243095 3.40073,-1.63938 3.40073,-1.63938z"/>
   <path id="_618419080" class="fil5 str0" d="M66.265 135.89c0,0 -6.3156,4.85822 -7.46944,5.76918 -1.15384,0.910957 -4.67601,4.85801 -4.67601,4.85801 0,0 3.88671,2.79365 5.89062,2.67221 2.00391,-0.121331 4.31126,1.94335 6.31539,2.24679 2.00424,0.303436 -2.85399,-1.76082 -2.4289,-6.43704 0.424984,-4.67623 2.36834,-9.10914 2.36834,-9.10914z"/>
   <path id="_618418912" class="fil2" d="M66.265 135.89c0,0 -5.89062,5.89062 -7.04435,6.80158 -1.15384,0.910957 -4.00815,4.00782 -4.00815,4.00782 0,0 2.97575,1.63992 4.97966,1.51848 2.00391,-0.121439 2.36823,1.6397 4.37236,1.94314 2.00413,0.303436 -1.88226,-0.48565 -1.45727,-5.16187 0.425092,-4.67623 3.15775,-9.10914 3.15775,-9.10914z"/>
   <path id="_618418552" class="fil3" d="M65.354 150.525c0,0 -2.85377,-1.21461 -3.09687,-2.97564 -0.243095,-1.76114 1.45738,-4.85801 1.45738,-4.85801 0,0 -0.546423,3.70417 -0.182213,4.73657 0.364318,1.0324 1.8217,3.09708 1.8217,3.09708z"/>
   <path id="_618418600" class="fil5 str0" d="M84.9999 129.252l0 46.0176c0,0 -1.78403,-5.50957 -5.28353,-5.7083 -5.34366,-0.303652 -16.3958,-2.36845 -19.7969,-9.53423 -3.40095,-7.16579 -0.546639,-14.7869 2.30756,-18.8861 -0.575137,2.22477 -0.941398,5.8904 1.45749,9.35202 -0.425092,2.30778 -1.09317,3.52217 1.57882,6.19416 2.6721,2.6721 5.54336,4.89158 11.4167,1.33605 6.00698,-3.63627 5.34409,-28.7712 5.34409,-28.7712l2.97575 0z"/>
   <path id="_618418432" class="fil2" d="M84.3625 129.577l-0.0913224 42.657c0,0 -0.327077,-3.62731 -3.82604,-3.82593 -5.34344,-0.303113 -15.9102,-1.27517 -19.3112,-8.44095 -3.40095,-7.16579 -1.76103,-14.7263 1.09317,-18.8256 -0.575137,2.22477 -2.03446,6.61915 0.364534,10.0807 -0.425092,2.30789 -0.546531,4.91889 2.12557,7.59088 2.67199,2.6721 7.06183,4.58695 12.9345,1.0324 6.00601,-3.63552 5.31397,-30.259 5.31397,-30.259l1.39682 -0.00939131z"/>
   <path id="_618418264" class="fil3" d="M74.7067 160.422c0.758969,0.637854 5.8605,7.22645 5.40486,7.71232 -0.455533,0.485865 -5.58664,-0.0305487 -8.53206,-0.819851 -2.94542,-0.789302 -7.46965,-3.21874 -9.53423,-5.76918 -2.06447,-2.55033 -3.07754,-6.70561 -2.44023,-10.7803 0.301601,3.15246 0.672936,6.2436 1.6505,8.13849 0.97756,1.89489 2.73309,4.19036 6.61958,6.01227 3.88638,1.82191 4.70602,-3.52217 6.83159,-4.4938z"/>
   <path id="_618418096" class="fil3" d="M54.4841 146.335c0,0 3.52217,-2.42922 4.49369,-3.15796 0.971623,-0.728744 -0.72842,4.55435 -1.09295,4.79734 -0.364426,0.243095 -3.40073,-1.63938 -3.40073,-1.63938z"/>
   <path id="_618417736" class="fil4 str3" d="M85.8353 185.625c0,0 19.4325,1.21439 27.0841,-4.25092 7.65165,-5.4652 19.311,-18.8253 22.5903,-31.2135 3.2794,-12.3883 1.70058,-21.1331 -0.36421,-30.1206 -2.06469,-8.98748 -6.80125,-18.9465 -10.2021,-22.9546"/>
   <path id="_618417784" class="fil5 str0" d="M106.239 90.7694c0,0 5.34387,-4.97966 9.47346,-2.79354 4.12948,2.18623 9.10882,8.86605 9.10882,8.86605 0,0 -7.28723,0.72896 -9.59479,-0.606981 -2.30756,-1.33605 -8.98748,-5.46553 -8.98748,-5.46553z"/>
   <path id="_618417616" class="fil4 str4" d="M85.8353 185.625c0,0 19.4325,1.21439 27.0841,-4.25092 7.65165,-5.4652 19.311,-18.8253 22.5903,-31.2135 3.2794,-12.3883 1.70058,-21.1331 -0.36421,-30.1206 -2.06469,-8.98748 -6.80125,-18.9465 -10.2021,-22.9546"/>
   <path id="_618417448" class="fil2" d="M106.786 90.83c0,0 5.28331,-3.82561 9.41279,-1.63949 4.12948,2.18623 8.62295,7.65144 8.62295,7.65144 0,0 -6.13339,-1.21407 -9.35191,-3.33964 -3.21852,-2.12557 -8.68383,-2.67231 -8.68383,-2.67231z"/>
   <path id="_618417088" class="fil3" d="M108.304 90.8911c2.61122,-1.03218 6.19406,-1.33626 8.25874,-0.364534 2.06479,0.971839 7.40866,6.07262 7.40866,6.07262 0,0 -3.94727,-1.82191 -6.37627,-2.6721 -2.429,-0.850076 -5.70808,-2.30735 -9.29114,-3.03598z"/>
   <path id="_618417136" class="fil5 str0" d="M110.582 98.9966c0,0 6.27178,-4.48646 10.5366,-1.94303 4.26473,2.54353 9.01739,9.6384 9.01739,9.6384 0,0 -7.96815,0.0803119 -10.3404,-1.4549 -2.37212,-1.53532 -9.21363,-6.24047 -9.21363,-6.24047z"/>
   <path id="_618416968" class="fil2" d="M111.168 99.1054c0,0 6.09496,-3.34244 10.3597,-0.798909 4.26484,2.54343 8.60795,8.38547 8.60795,8.38547 0,0 -6.53031,-1.75294 -9.8137,-4.15528 -3.28329,-2.40245 -9.15394,-3.43128 -9.15394,-3.43128z"/>
   <path id="_618416608" class="fil3" d="M112.808 99.3008c2.92955,-0.79675 6.84184,-0.782177 8.98597,0.368744 2.14413,1.15092 7.44396,6.70518 7.44396,6.70518 0,0 -4.10238,-2.16454 -6.65293,-3.22651 -2.55055,-1.06208 -5.96402,-2.80412 -9.777,-3.84742z"/>
   <path id="_618416656" class="fil5 str0" d="M115.197 108.637c0,0 6.10727,-4.39567 10.1685,-1.79115 4.06115,2.60452 8.51706,9.76696 8.51706,9.76696 0,0 -7.66709,-0.0343269 -9.92402,-1.60354 -2.25694,-1.56921 -8.76155,-6.37227 -8.76155,-6.37227z"/>
   <path id="_618416488" class="fil2" d="M115.759 108.754c0,0 5.91836,-3.25425 9.97962,-0.64962 4.06115,2.60452 8.14367,8.50831 8.14367,8.50831 0,0 -6.25375,-1.84663 -9.37307,-4.29604 -3.11932,-2.44941 -8.75022,-3.56265 -8.75022,-3.56265z"/>
   <path id="_618416128" class="fil3" d="M117.334 108.973c2.83153,-0.754327 6.59508,-0.683515 8.63893,0.498171 2.04385,1.18158 7.05147,6.81151 7.05147,6.81151 0,0 -3.91121,-2.22337 -6.34755,-3.32193 -2.43634,-1.09857 -5.69157,-2.88961 -9.34284,-3.98774z"/>
   <path id="_618416176" class="fil5 str0" d="M118.233 117.93c0,0 6.04736,-4.39567 10.0687,-1.79104 4.02121,2.60452 8.4334,9.76696 8.4334,9.76696 0,0 -7.59174,-0.0344348 -9.82644,-1.60365 -2.23481,-1.5691 -8.67563,-6.37227 -8.67563,-6.37227z"/>
   <path id="_618416008" class="fil2" d="M118.79 118.047c0,0 5.86018,-3.25425 9.88149,-0.64962 4.02132,2.60452 8.06368,8.50831 8.06368,8.50831 0,0 -6.19233,-1.84663 -9.28099,-4.29604 -3.08866,-2.44941 -8.66419,-3.56265 -8.66419,-3.56265z"/>
   <path id="_618415648" class="fil3" d="M120.349 118.266c2.80358,-0.754435 6.5302,-0.683515 8.55397,0.498171 2.02377,1.18158 6.98217,6.81151 6.98217,6.81151 0,0 -3.87267,-2.22337 -6.28516,-3.32193 -2.41238,-1.09868 -5.63565,-2.88961 -9.25098,-3.98774z"/>
   <path id="_618415696" class="fil5 str0" d="M120.962 126.846c0,0 6.23831,-3.79981 9.84209,-0.825788 3.60389,2.97402 7.13394,10.5208 7.13394,10.5208 0,0 -7.28453,-0.755515 -9.27527,-2.52939 -1.99074,-1.77388 -7.70077,-7.16557 -7.70077,-7.16557z"/>
   <path id="_618415528" class="fil2" d="M121.485 127.015c0,0 5.94621,-2.6816 9.54999,0.292426 3.60378,2.97392 6.90294,9.23306 6.90294,9.23306 0,0 -5.76259,-2.42598 -8.4864,-5.15691 -2.7238,-2.73093 -7.96653,-4.36858 -7.96653,-4.36858z"/>
   <path id="_618415168" class="fil3" d="M122.96 127.381c2.76569,-0.484462 6.33622,-0.0598021 8.16256,1.30841 1.82634,1.36811 6.03192,7.4418 6.03192,7.4418 0,0 -3.49886,-2.58045 -5.70646,-3.90301 -2.20771,-1.32245 -5.1256,-3.41099 -8.48802,-4.84721z"/>
   <path id="_618415216" class="fil5 str0" d="M121.634 136.123c0,0 5.94578,-3.19294 9.12145,-0.26857 3.17577,2.92426 6.05437,10.0637 6.05437,10.0637 0,0 -6.68262,-1.06208 -8.43037,-2.79839 -1.74776,-1.73631 -6.74544,-6.99674 -6.74544,-6.99674z"/>
   <path id="_618415048" class="fil2" d="M122.108 136.305c0,0 5.62021,-2.17609 8.79599,0.748282 3.17577,2.92437 5.90573,8.86421 5.90573,8.86421 0,0 -5.1948,-2.52702 -7.57091,-5.18303 -2.376,-2.65601 -7.13081,-4.42946 -7.13081,-4.42946z"/>
   <path id="_618414688" class="fil3" d="M123.45 136.717c2.57592,-0.308294 5.84874,0.262417 7.46512,1.61617 1.61638,1.35375 5.19188,7.16795 5.19188,7.16795 0,0 -3.09859,-2.55595 -5.06904,-3.88671 -1.97045,-1.33076 -4.55781,-3.40386 -7.58796,-4.89741z"/>
   <path id="_618414736" class="fil5 str0" d="M120.784 142.669c0,0 6.76779,-1.55302 9.12468,2.21182 2.3569,3.76494 3.27368,11.6318 3.27368,11.6318 0,0 -6.34302,-2.86964 -7.60567,-5.06764 -1.26254,-2.19789 -4.7927,-8.77602 -4.7927,-8.77602z"/>
   <path id="_618414568" class="fil2" d="M121.205 142.979c0,0 6.16847,-0.63224 8.52537,3.1326 2.357,3.76484 3.45222,10.401 3.45222,10.401 0,0 -4.46854,-3.9192 -6.10478,-7.20044 -1.63625,-3.28124 -5.87281,-6.3332 -5.87281,-6.3332z"/>
   <path id="_618414208" class="fil3" d="M122.425 143.752c2.63993,0.394003 5.73259,1.84955 6.96878,3.63217 1.2362,1.78262 3.2047,8.52375 3.2047,8.52375 0,0 -2.38043,-3.37828 -3.97425,-5.23431 -1.59382,-1.85592 -3.59817,-4.6161 -6.19924,-6.92161z"/>
   <path id="_618414256" class="fil5 str0" d="M120.102 150.191c0,0 6.70453,0.45726 7.83322,4.6052 1.12868,4.14783 -0.225931,11.6923 -0.225931,11.6923 0,0 -5.07196,-4.43518 -5.62583,-6.825 -0.553979,-2.38982 -1.98146,-9.47249 -1.98146,-9.47249z"/>
   <path id="_618414088" class="fil2" d="M120.405 150.596c0,0 5.89137,1.14229 7.02006,5.29011 1.12879,4.14794 0.284222,10.6023 0.284222,10.6023 0,0 -3.0416,-4.88229 -3.63811,-8.3804 -0.59651,-3.49799 -3.66617,-7.51197 -3.66617,-7.51197z"/>
   <path id="_618413728" class="fil3" d="M121.318 151.654c2.3352,1.1045 4.79238,3.31923 5.43822,5.31689 0.645734,1.99765 0.580858,8.79394 0.580858,8.79394 0,0 -1.25876,-3.79646 -2.21527,-5.96219 -0.956618,-2.16583 -2.04007,-5.28429 -3.8038,-8.14864z"/>
   <path id="_618413776" class="fil5 str0" d="M117.505 158.308c0,0 5.62378,1.49948 5.89612,5.21261 0.272348,3.71313 -2.12913,9.90244 -2.12913,9.90244 0,0 -3.5769,-4.61081 -3.65192,-6.73411 -0.0749146,-2.12341 -0.115071,-8.38094 -0.115071,-8.38094z"/>
   <path id="_618413608" class="fil2" d="M117.695 158.703c0,0 4.81915,1.94713 5.09149,5.66026 0.272348,3.71313 -1.51492,9.06024 -1.51492,9.06024 0,0 -1.77679,-4.65442 -1.70436,-7.727 0.0723239,-3.07258 -1.87222,-6.9935 -1.87222,-6.9935z"/>
   <path id="_618413248" class="fil3" d="M118.297 159.753c1.80216,1.32579 3.52412,3.61565 3.74217,5.42095 0.218051,1.80518 -0.963095,7.57199 -0.963095,7.57199 0,0 -0.441068,-3.43592 -0.895413,-5.43552 -0.454453,-1.9997 -0.858819,-4.83016 -1.88366,-7.55741z"/>
   <path id="_618413296" class="fil5 str0" d="M112.584 164.079c0,0 5.62378,1.49948 5.89612,5.21261 0.272348,3.71313 -2.12913,9.90244 -2.12913,9.90244 0,0 -3.57701,-4.61081 -3.65192,-6.73422 -0.0749146,-2.1233 -0.115071,-8.38083 -0.115071,-8.38083z"/>
   <path id="_618413128" class="fil2" d="M112.775 164.473c0,0 4.81915,1.94713 5.09149,5.66026 0.272348,3.71313 -1.51492,9.06024 -1.51492,9.06024 0,0 -1.77679,-4.65453 -1.70436,-7.72711 0.0723239,-3.07247 -1.87222,-6.9934 -1.87222,-6.9934z"/>
   <path id="_618412768" class="fil3" d="M113.376 165.524c1.80227,1.3259 3.52422,3.61576 3.74228,5.42095 0.218051,1.80529 -0.963095,7.5721 -0.963095,7.5721 0,0 -0.441068,-3.43592 -0.895413,-5.43563 -0.454453,-1.99959 -0.858819,-4.83016 -1.88377,-7.55741z"/>
   <path id="_618412816" class="fil5 str0" d="M109.235 168.224c0,0 4.95451,3.05433 4.14675,6.68877 -0.807653,3.63455 -4.88866,8.8709 -4.88866,8.8709 0,0 -2.0988,-5.44513 -1.55961,-7.5002 0.539299,-2.05508 2.30152,-8.05947 2.30152,-8.05947z"/>
   <path id="_618412648" class="fil2" d="M109.304 168.657c0,0 4.055,3.25155 3.24723,6.88599 -0.807653,3.63444 -4.05802,8.24104 -4.05802,8.24104 0,0 -0.362267,-4.96887 0.591221,-7.89064 0.953596,-2.92178 0.219562,-7.23638 0.219562,-7.23638z"/>
   <path id="_618412288" class="fil3" d="M109.577 169.836c1.34436,1.78834 2.33455,4.47696 2.02388,6.26854 -0.310669,1.79158 -3.10129,6.97461 -3.10129,6.97461 0,0 0.566285,-3.41757 0.706615,-5.46337 0.140222,-2.04579 0.567473,-4.8729 0.370795,-7.77978z"/>
   <path id="_618412336" class="fil5 str0" d="M105.336 171.118c0,0 3.2468,4.83059 1.00768,7.80515 -2.23902,2.97467 -8.12079,6.0534 -8.12079,6.0534 0,0 0.342081,-5.82564 1.68331,-7.47343 1.34112,-1.64791 5.4298,-6.38512 5.4298,-6.38512z"/>
   <path id="_618412168" class="fil2" d="M105.22 171.541c0,0 2.34632,4.6379 0.10719,7.61247 -2.23902,2.97467 -7.10404,5.82369 -7.10404,5.82369 0,0 1.72606,-4.67363 3.80294,-6.93899 2.07699,-2.26546 3.19391,-6.49717 3.19391,-6.49717z"/>
   <path id="_618411808" class="fil3" d="M104.981 172.728c0.48403,2.1844 0.273104,5.04173 -0.750981,6.54423 -1.02408,1.50261 -5.70916,5.06645 -5.70916,5.06645 0,0 1.92964,-2.87698 2.90375,-4.68141 0.974106,-1.80443 2.53274,-4.20148 3.55639,-6.92928z"/>
   <path id="_618411856" class="fil5 str0" d="M112.633 193.86c0,0 -5.84507,3.09266 -9.39854,0.560672 -3.55337,-2.53209 -7.19256,-8.88375 -7.19256,-8.88375 0,0 7.0029,0.726909 8.97032,2.23513 1.96743,1.50822 7.62078,6.08794 7.62078,6.08794z"/>
   <path id="_618411688" class="fil2" d="M112.126 193.712c0,0 -5.60359,2.16238 -9.15707,-0.369715 -3.55348,-2.53198 -6.92733,-7.80483 -6.92733,-7.80483 0,0 5.60229,2.10268 8.30462,4.42007 2.70221,2.31739 7.77978,3.75447 7.77978,3.75447z"/>
   <path id="_618411328" class="fil3" d="M110.701 193.387c-2.63237,0.36842 -6.06679,-0.0332474 -7.8629,-1.20036 -1.79612,-1.16711 -6.03181,-6.29682 -6.03181,-6.29682 0,0 3.43938,2.20199 5.59916,3.33586 2.15968,1.13387 5.02586,2.91714 8.29555,4.16132z"/>
   <path id="_618411376" class="fil5 str0" d="M123.402 187.725c0,0 -4.52381,5.44199 -9.08885,3.95191 -4.56515,-1.48998 -10.7863,-7.10339 -10.7863,-7.10339 0,0 7.24297,-1.69983 9.81424,-0.759185 2.57128,0.940534 10.0609,3.91067 10.0609,3.91067z"/>
   <path id="_618411208" class="fil2" d="M122.838 187.743c0,0 -4.66694,4.3444 -9.23209,2.85431 -4.56504,-1.48998 -10.0795,-6.02447 -10.0795,-6.02447 0,0 6.42009,0.294369 10.0529,1.85365 3.63271,1.55939 9.25865,1.31651 9.25865,1.31651z"/>
   <path id="_618410848" class="fil3" d="M121.291 187.896c-2.4588,1.3368 -6.02955,2.12125 -8.29058,1.49074 -2.26104,-0.630513 -8.57114,-4.70289 -8.57114,-4.70289 0,0 4.31612,1.17154 6.92409,1.63668 2.60798,0.46514 6.18369,1.38516 9.93763,1.57547z"/>
   <path id="_618410896" class="fil5 str0" d="M131.008 181.163c0,0 -3.18452,5.14093 -7.22429,4.42007 -4.03977,-0.720864 -9.96915,-4.73527 -9.96915,-4.73527 0,0 5.92872,-2.29569 8.2161,-1.80389 2.28738,0.491802 8.97734,2.11909 8.97734,2.11909z"/>
   <path id="_618410728" class="fil2" d="M130.533 181.245c0,0 -3.4356,4.2289 -7.47538,3.50803 -4.03988,-0.720864 -9.24332,-3.90581 -9.24332,-3.90581 0,0 5.46823,-0.510585 8.72723,0.379215 3.25889,0.8898 7.99147,0.0185667 7.99147,0.0185667z"/>
   <path id="_618410368" class="fil3" d="M129.242 181.558c-1.92274,1.4223 -4.85185,2.50867 -6.84,2.24269 -1.98815,-0.266087 -7.81033,-2.96593 -7.81033,-2.96593 0,0 3.7915,0.480792 6.05362,0.565853 2.26223,0.0849536 5.3972,0.440528 8.59672,0.157385z"/>
   <path id="_618410416" class="fil5 str0" d="M137.52 175.479c0,0 -3.3609,5.02748 -7.37326,4.16704 -4.01236,-0.860438 -9.79892,-5.078 -9.79892,-5.078 0,0 6.00472,-2.08876 8.27364,-1.51805 2.26892,0.570819 8.89854,2.429 8.89854,2.429z"/>
   <path id="_618410248" class="fil2" d="M137.043 175.545c0,0 -3.58014,4.10724 -7.59261,3.2468 -4.01236,-0.860438 -9.10223,-4.22382 -9.10223,-4.22382 0,0 5.48258,-0.320708 8.70877,0.681464 3.22619,1.00217 7.98607,0.295556 7.98607,0.295556z"/>
   <path id="_618409888" class="fil3" d="M135.742 175.813c-1.97077,1.35472 -4.93584,2.33898 -6.91352,2.00424 -1.97779,-0.334849 -7.70293,-3.23482 -7.70293,-3.23482 0,0 3.7725,0.611839 6.03041,0.775269 2.25791,0.16343 5.37863,0.627383 8.58603,0.455317z"/>
   <path id="_618409936" class="fil5 str0" d="M141.55 168.216c0,0 -2.52508,5.49489 -6.62293,5.27867 -4.09796,-0.216216 -10.4778,-3.46744 -10.4778,-3.46744 0,0 5.59981,-3.01051 7.93037,-2.80509 2.33066,0.205421 9.17035,0.99386 9.17035,0.99386z"/>
   <path id="_618409768" class="fil2" d="M141.089 168.357c0,0 -2.88691,4.62096 -6.98476,4.40463 -4.09785,-0.216216 -9.65502,-2.73395 -9.65502,-2.73395 0,0 5.3633,-1.18223 8.70726,-0.701866 3.34385,0.48036 7.93253,-0.968816 7.93253,-0.968816z"/>
   <path id="_618409408" class="fil3" d="M139.846 168.826c-1.73232,1.64888 -4.50481,3.08877 -6.51055,3.07042 -2.00575,-0.0184588 -8.1169,-1.97833 -8.1169,-1.97833 0,0 3.82172,0.00874363 6.07715,-0.186315 2.25532,-0.195167 5.41026,-0.229601 8.5503,-0.905776z"/>
   <path id="_618409456" class="fil5 str0" d="M146.775 159.251c0,0 -1.69206,6.17506 -6.01012,6.65455 -4.31817,0.479497 -11.5427,-1.81868 -11.5427,-1.81868 0,0 5.33157,-4.10886 7.8017,-4.2955 2.47002,-0.186639 9.7511,-0.540378 9.7511,-0.540378z"/>
   <path id="_618409288" class="fil2" d="M146.317 159.477c0,0 -2.22045,5.32433 -6.53851,5.80383 -4.31817,0.479497 -10.5569,-1.1941 -10.5569,-1.1941 0,0 5.39936,-2.15827 8.97529,-2.23211 3.57593,-0.0737272 8.12014,-2.37762 8.12014,-2.37762z"/>
   <path id="_618408928" class="fil3" d="M145.1 160.181c-1.52582,2.02064 -4.17417,4.00221 -6.27275,4.32831 -2.09847,0.325997 -8.81995,-0.669374 -8.81995,-0.669374 0,0 3.9939,-0.648864 6.31647,-1.24084 2.32257,-0.592084 5.61244,-1.17111 8.77623,-2.4181z"/>
   <path id="_618408976" class="fil5 str0" d="M149.423 149.648c0,0 -0.638393,6.72774 -5.04119,8.01014 -4.40291,1.28229 -12.3318,0.204018 -12.3318,0.204018 0,0 4.79777,-5.24003 7.33224,-5.88241 2.53436,-0.642279 10.0407,-2.33174 10.0407,-2.33174z"/>
   <path id="_618408808" class="fil2" d="M148.989 149.966c0,0 -1.3422,5.93898 -5.74511,7.22138 -4.4028,1.2824 -11.1934,0.674555 -11.1934,0.674555 0,0 5.22232,-3.22413 8.92703,-3.94996 3.70482,-0.725722 8.01144,-3.94597 8.01144,-3.94597z"/>
   <path id="_618408448" class="fil3" d="M147.851 150.919c-1.21968,2.37805 -3.61371,4.9191 -5.73658,5.639 -2.12276,0.719893 -9.29222,0.904912 -9.29222,0.904912 0,0 4.03503,-1.39952 6.34248,-2.43667 2.30746,-1.03715 5.62302,-2.23643 8.68631,-4.10724z"/>
   <path id="_618408496" class="fil5 str0" d="M149.765 141.358c0,0 0.286921,6.20636 -3.55531,7.9417 -3.84234,1.73545 -11.1989,1.77701 -11.1989,1.77701 0,0 3.69122,-5.38889 5.91534,-6.3006 2.22412,-0.911821 8.83884,-3.41811 8.83884,-3.41811z"/>
   <path id="_618408328" class="fil2" d="M149.411 141.704c0,0 -0.455533,5.5793 -4.29787,7.31464 -3.84223,1.73545 -10.1019,2.05842 -10.1019,2.05842 0,0 4.33771,-3.60864 7.61635,-4.74736 3.27865,-1.13872 6.78344,-4.62571 6.78344,-4.62571z"/>
   <path id="_618407968" class="fil3" d="M148.498 142.719c-0.803443,2.32203 -2.65483,4.94393 -4.49423,5.87313 -1.8394,0.9292 -8.34164,2.02269 -8.34164,2.02269 0,0 3.49238,-1.7946 5.45894,-3.03642 1.96656,-1.24181 4.82983,-2.76126 7.37693,-4.85941z"/>
   <path id="_618408016" class="fil5 str0" d="M148.788 131.214c0,0 1.76416,6.12022 -1.65384,8.76566 -3.41801,2.64554 -10.7436,4.43885 -10.7436,4.43885 0,0 2.39727,-6.25245 4.39783,-7.69127 2.00067,-1.43871 7.99956,-5.51324 7.99956,-5.51324z"/>
   <path id="_618407848" class="fil2" d="M148.517 131.643c0,0 0.874471,5.67181 -2.54353,8.31725 -3.41801,2.64544 -9.58281,4.45817 -9.58281,4.45817 0,0 3.46593,-4.63132 6.46392,-6.54758 2.9981,-1.91615 5.66242,-6.22784 5.66242,-6.22784z"/>
   <path id="_618407488" class="fil3" d="M147.848 132.872c-0.248168,2.50672 -1.46979,5.56192 -3.08262,6.92658 -1.61293,1.36465 -7.83602,4.00351 -7.83602,4.00351 0,0 3.05498,-2.62126 4.72016,-4.32778 1.66518,-1.70663 4.15841,-3.90355 6.19848,-6.60231z"/>
   <path id="_618407536" class="fil5 str0" d="M144.517 123.518c0,0 3.20114,4.76453 0.99807,7.97668 -2.20307,3.21215 -7.99362,6.7707 -7.99362,6.7707 0,0 0.33269,-6.02534 1.65244,-7.81141 1.31964,-1.78608 5.34312,-6.93597 5.34312,-6.93597z"/>
   <path id="_618407368" class="fil2" d="M144.403 123.961c0,0 2.31415,4.62506 0.111077,7.83721 -2.20296,3.21215 -6.99232,6.46727 -6.99232,6.46727 0,0 1.69648,-4.92914 3.74044,-7.39981 2.04385,-2.47078 3.1408,-6.90466 3.1408,-6.90466z"/>
   <path id="_618407008" class="fil3" d="M144.168 125.199c0.478309,2.21916 0.272672,5.17731 -0.734897,6.79283 -1.00746,1.61552 -5.61913,5.59549 -5.61913,5.59549 0,0 1.89834,-3.09125 2.85647,-5.01464 0.958022,-1.92328 2.4914,-4.49563 3.49756,-7.37369z"/>
   <path id="_618407056" class="fil5 str0" d="M143.347 112.419c0,0 3.58608,5.27727 1.65762,9.26188 -1.92846,3.98461 -7.40327,8.72679 -7.40327,8.72679 0,0 -0.169152,-7.10253 0.99753,-9.32741 1.16668,-2.22488 4.74812,-8.66127 4.74812,-8.66127z"/>
   <path id="_618406888" class="fil2" d="M143.27 112.95c0,0 2.69056,5.20041 0.762207,9.18503 -1.92846,3.98461 -6.43078,8.27277 -6.43078,8.27277 0,0 1.2811,-5.94977 3.11252,-9.0488 1.83141,-3.09913 2.55606,-8.409 2.55606,-8.409z"/>
   <path id="_618406528" class="fil3" d="M143.14 114.426c0.661062,2.55703 0.701974,6.04811 -0.167748,8.04231 -0.86983,1.9942 -5.13467,7.11548 -5.13467,7.11548 0,0 1.63484,-3.81298 2.42976,-6.16351 0.794915,-2.35053 2.10916,-5.51885 2.87266,-8.99429z"/>
   <path id="_618406576" class="fil5 str0" d="M140.22 103.188c0,0 3.94619,5.25438 2.30573,9.70759 -1.64056,4.4531 -6.76164,10.0861 -6.76164,10.0861 0,0 -0.670021,-7.55979 0.335604,-10.0557 1.00563,-2.49582 4.1203,-9.73793 4.1203,-9.73793z"/>
   <path id="_618406408" class="fil2" d="M140.181 103.763c0,0 3.0484,5.26626 1.40783,9.71936 -1.64046,4.4531 -5.82445,9.4998 -5.82445,9.4998 0,0 0.85666,-6.48184 2.46301,-9.98005 1.60624,-3.49832 1.95361,-9.23911 1.95361,-9.23911z"/>
   <path id="_618406048" class="fil3" d="M140.155 105.352c0.839281,2.65871 1.12653,6.37907 0.400588,8.59769 -0.726045,2.21872 -4.61459,8.12931 -4.61459,8.12931 0,0 1.36001,-4.23926 1.98621,-6.83018 0.626303,-2.59103 1.71224,-6.10899 2.22779,-9.89682z"/>
   <path id="_618406096" class="fil5 str0" d="M134.897 96.4093c0,0 4.47199,3.85389 3.49486,7.84498 -0.977128,3.99098 -5.12604,9.48209 -5.12604,9.48209 0,0 -1.64531,-6.27286 -1.01523,-8.52224 0.630081,-2.24938 2.64641,-8.80484 2.64641,-8.80484z"/>
   <path id="_618405928" class="fil2" d="M134.935 96.899c0,0 3.61511,3.99444 2.63799,7.98553 -0.977128,3.99098 -4.30781,8.8518 -4.30781,8.8518 0,0 -0.042099,-5.58643 1.02927,-8.76781 1.07126,-3.18139 0.640552,-8.06951 0.640552,-8.06951z"/>
   <path id="_618405568" class="fil3" d="M135.122 98.2417c1.15589,2.11833 1.925,5.21153 1.52549,7.18662 -0.399401,1.9752 -3.33284,7.52114 -3.33284,7.52114 0,0 0.737272,-3.76991 0.991917,-6.04433 0.254645,-2.27432 0.825788,-5.39666 0.815425,-8.66343z"/>
   <path id="_618405616" class="fil5 str0" d="M128.443 91.3654c0,0 4.61211,2.26406 4.49304,5.52134 -0.119065,3.25717 -2.73071,8.19527 -2.73071,8.19527 0,0 -2.58952,-4.60196 -2.45318,-6.45064 0.136228,-1.84879 0.690855,-7.26596 0.690855,-7.26596z"/>
   <path id="_618405448" class="fil2" d="M128.567 91.7393c0,0 3.88995,2.51255 3.77088,5.76983 -0.119065,3.25727 -2.13237,7.57285 -2.13237,7.57285 0,0 -1.06402,-4.32993 -0.713848,-6.97407 0.350069,-2.64403 -0.924666,-6.3686 -0.924666,-6.3686z"/>
   <path id="_618331328" class="fil3" d="M128.976 92.7513c1.39855,1.45641 2.63853,3.73245 2.6531,5.33081 0.0144648,1.59836 -1.52614,6.38113 -1.52614,6.38113 0,0 -0.0496552,-3.04667 -0.245577,-4.85369 -0.19603,-1.80702 -0.271592,-4.32389 -0.88138,-6.85825z"/>
   <path id="_618331376" class="fil5 str0" d="M119.95 89.3965c0,0 5.13769,0.0302249 6.4487,3.01439 1.31101,2.98406 1.10979,8.56671 1.10979,8.56671 0,0 -4.3349,-3.01547 -5.01701,-4.73916 -0.682219,-1.72368 -2.54148,-6.84195 -2.54148,-6.84195z"/>
   <path id="_618331208" class="fil2" d="M120.224 89.6792c0,0 4.59581,0.568336 5.9067,3.55251 1.31101,2.98417 1.3775,7.74589 1.3775,7.74589 0,0 -2.84308,-3.43485 -3.67902,-5.96758 -0.836043,-2.53274 -3.60518,-5.33081 -3.60518,-5.33081z"/>
   <path id="_618330848" class="fil3" d="M121.033 90.412c1.89305,0.702189 4.00037,2.21138 4.70936,3.64394 0.708882,1.43255 1.40427,6.40898 1.40427,6.40898 0,0 -1.37113,-2.721 -2.33433,-4.26247 -0.963095,-1.54147 -2.12697,-3.77434 -3.7793,-5.79044z"/>
   <path id="_618330896" class="fil5 str0" d="M100.873 175.497c0,0 0.957158,5.74101 -2.31199,7.52266 -3.26915,1.78165 -9.89769,2.15093 -9.89769,2.15093 0,0 2.72175,-5.16198 4.62452,-6.10727 1.90287,-0.945284 7.58516,-3.56632 7.58516,-3.56632z"/>
   <path id="_618330728" class="fil2" d="M100.592 175.833c0,0 0.217188,5.19307 -3.05207,6.97472 -3.26915,1.78165 -8.87695,2.36251 -8.87695,2.36251 0,0 3.50501,-3.54063 6.3332,-4.74369 2.82808,-1.20317 5.59582,-4.59354 5.59582,-4.59354z"/>
   <path id="_618330368" class="fil3" d="M99.8834 176.815c-0.463089,2.18893 -1.83735,4.703 -3.39134,5.6472 -1.55399,0.944205 -7.29381,2.25024 -7.29381,2.25024 0,0 2.94704,-1.82083 4.58048,-3.06049 1.63344,-1.23965 4.0442,-2.77713 6.10468,-4.83696z"/>
   <path id="_618330416" class="fil5 str0" d="M101.728 193.964c0,0 -5.08426,2.83294 -7.86193,0.353847 -2.77778,-2.4792 -5.35564,-8.59704 -5.35564,-8.59704 0,0 5.77684,0.826327 7.3072,2.30022 1.53035,1.47379 5.91037,5.94297 5.91037,5.94297z"/>
   <path id="_618330248" class="fil2" d="M101.317 193.813c0,0 -4.81731,1.95167 -7.59498,-0.527425 -2.77767,-2.4792 -5.21142,-7.56465 -5.21142,-7.56465 0,0 4.51344,2.10948 6.59799,4.36793 2.08444,2.25845 6.20841,3.72414 6.20841,3.72414z"/>
   <path id="_618330080" class="fil3" d="M100.154 193.476c-2.21711,0.300306 -5.04691,-0.147886 -6.45885,-1.29363 -1.41204,-1.14574 -4.57314,-6.11148 -4.57314,-6.11148 0,0 2.70621,2.16259 4.4232,3.28372 1.71699,1.12113 3.97587,2.87406 6.60878,4.12138z"/>
   <path id="_618329720" class="fil4 str3" d="M84.1644 185.625c0,0 -19.4323,1.21439 -27.084,-4.25092 -7.65176,-5.4652 -19.311,-18.8253 -22.5904,-31.2135 -3.27929,-12.3883 -1.70047,-21.1331 0.364318,-30.1206 2.06469,-8.98748 6.80125,-18.9465 10.2021,-22.9546"/>
   <path id="_618329768" class="fil5 str0" d="M63.7603 90.7694c0,0 -5.34387,-4.97966 -9.47346,-2.79354 -4.12948,2.18623 -9.10882,8.86605 -9.10882,8.86605 0,0 7.28712,0.72896 9.59479,-0.606981 2.30756,-1.33605 8.98748,-5.46553 8.98748,-5.46553z"/>
   <path id="_618329600" class="fil2" d="M63.2138 90.83c0,0 -5.28331,-3.82561 -9.41279,-1.63949 -4.12948,2.18623 -8.62295,7.65144 -8.62295,7.65144 0,0 6.13339,-1.21407 9.35191,-3.33964 3.21852,-2.12557 8.68383,-2.67231 8.68383,-2.67231z"/>
   <path id="_618329240" class="fil3" d="M61.6955 90.8911c-2.61122,-1.03218 -6.19406,-1.33626 -8.25874,-0.364534 -2.06479,0.971839 -7.40866,6.07262 -7.40866,6.07262 0,0 3.94727,-1.82191 6.37627,-2.6721 2.429,-0.850076 5.70808,-2.30735 9.29114,-3.03598z"/>
   <path id="_618329288" class="fil5 str0" d="M59.4177 98.9966c0,0 -6.27178,-4.48646 -10.5366,-1.94303 -4.26473,2.54353 -9.01739,9.6384 -9.01739,9.6384 0,0 7.96815,0.0803119 10.3403,-1.4549 2.37222,-1.53532 9.21374,-6.24047 9.21374,-6.24047z"/>
   <path id="_618329120" class="fil2" d="M58.8314 99.1054c0,0 -6.09496,-3.34244 -10.3597,-0.798909 -4.26484,2.54343 -8.60795,8.38547 -8.60795,8.38547 0,0 6.53031,-1.75294 9.8137,-4.15528 3.28329,-2.40245 9.15394,-3.43128 9.15394,-3.43128z"/>
   <path id="_618328760" class="fil3" d="M57.1917 99.3008c-2.92955,-0.79675 -6.84195,-0.782177 -8.98597,0.368744 -2.14413,1.15092 -7.44407,6.70518 -7.44407,6.70518 0,0 4.10249,-2.16454 6.65304,-3.22651 2.55055,-1.06208 5.96402,-2.80412 9.777,-3.84742z"/>
   <path id="_618328808" class="fil5 str0" d="M54.8026 108.637c0,0 -6.10727,-4.39567 -10.1685,-1.79115 -4.06115,2.60452 -8.51706,9.76696 -8.51706,9.76696 0,0 7.66709,-0.0343269 9.92402,-1.60354 2.25694,-1.56921 8.76155,-6.37227 8.76155,-6.37227z"/>
   <path id="_618328640" class="fil2" d="M54.2402 108.754c0,0 -5.91836,-3.25425 -9.97951,-0.64962 -4.06115,2.60452 -8.14367,8.50831 -8.14367,8.50831 0,0 6.25375,-1.84663 9.37307,-4.29604 3.11932,-2.44941 8.75011,-3.56265 8.75011,-3.56265z"/>
   <path id="_618328280" class="fil3" d="M52.666 108.973c-2.83143,-0.754327 -6.59497,-0.683515 -8.63882,0.498171 -2.04385,1.18158 -7.05147,6.81151 -7.05147,6.81151 0,0 3.9111,-2.22337 6.34755,-3.32193 2.43634,-1.09857 5.69157,-2.88961 9.34274,-3.98774z"/>
   <path id="_618328328" class="fil5 str0" d="M51.7663 117.93c0,0 -6.04725,-4.39567 -10.0686,-1.79104 -4.02132,2.60452 -8.4334,9.76696 -8.4334,9.76696 0,0 7.59174,-0.0344348 9.82644,-1.60365 2.23481,-1.5691 8.67552,-6.37227 8.67552,-6.37227z"/>
   <path id="_618328160" class="fil2" d="M51.2095 118.047c0,0 -5.86018,-3.25425 -9.88149,-0.64962 -4.02132,2.60452 -8.06368,8.50831 -8.06368,8.50831 0,0 6.19233,-1.84663 9.28099,-4.29604 3.08855,-2.44941 8.66419,-3.56265 8.66419,-3.56265z"/>
   <path id="_618327800" class="fil3" d="M49.6508 118.266c-2.80358,-0.754435 -6.5302,-0.683515 -8.55397,0.498171 -2.02377,1.18158 -6.98217,6.81151 -6.98217,6.81151 0,0 3.87267,-2.22337 6.28516,-3.32193 2.41238,-1.09868 5.63565,-2.88961 9.25098,-3.98774z"/>
   <path id="_618327848" class="fil5 str0" d="M49.0375 126.846c0,0 -6.23821,-3.79981 -9.84199,-0.825788 -3.60389,2.97402 -7.13394,10.5208 -7.13394,10.5208 0,0 7.28453,-0.755515 9.27527,-2.52939 1.99074,-1.77388 7.70066,-7.16557 7.70066,-7.16557z"/>
   <path id="_618327680" class="fil2" d="M48.5145 127.015c0,0 -5.94621,-2.6816 -9.54999,0.292426 -3.60378,2.97392 -6.90294,9.23306 -6.90294,9.23306 0,0 5.76259,-2.42598 8.4864,-5.15691 2.7238,-2.73093 7.96653,-4.36858 7.96653,-4.36858z"/>
   <path id="_618327320" class="fil3" d="M47.0398 127.381c-2.76569,-0.484462 -6.33622,-0.0598021 -8.16256,1.30841 -1.82645,1.36811 -6.03192,7.4418 -6.03192,7.4418 0,0 3.49875,-2.58045 5.70646,-3.90301 2.20761,-1.32245 5.1256,-3.41099 8.48802,-4.84721z"/>
   <path id="_618327368" class="fil5 str0" d="M48.3657 136.123c0,0 -5.94578,-3.19294 -9.12155,-0.26857 -3.17577,2.92426 -6.05427,10.0637 -6.05427,10.0637 0,0 6.68262,-1.06208 8.43037,-2.79839 1.74776,-1.73631 6.74544,-6.99674 6.74544,-6.99674z"/>
   <path id="_618327200" class="fil2" d="M47.8916 136.305c0,0 -5.62021,-2.17609 -8.79599,0.748282 -3.17577,2.92437 -5.90573,8.86421 -5.90573,8.86421 0,0 5.1948,-2.52702 7.57091,-5.18303 2.376,-2.65601 7.13081,-4.42946 7.13081,-4.42946z"/>
   <path id="_618326840" class="fil3" d="M46.5494 136.717c-2.57592,-0.308294 -5.84874,0.262417 -7.46512,1.61617 -1.61638,1.35375 -5.19188,7.16795 -5.19188,7.16795 0,0 3.09859,-2.55595 5.06904,-3.88671 1.97045,-1.33076 4.55781,-3.40386 7.58796,-4.89741z"/>
   <path id="_618326888" class="fil5 str0" d="M49.2159 142.669c0,0 -6.76779,-1.55302 -9.12468,2.21182 -2.3569,3.76494 -3.27368,11.6318 -3.27368,11.6318 0,0 6.34302,-2.86964 7.60556,-5.06764 1.26265,-2.19789 4.79281,-8.77602 4.79281,-8.77602z"/>
   <path id="_618326720" class="fil2" d="M48.7951 142.979c0,0 -6.16847,-0.63224 -8.52548,3.1326 -2.3569,3.76484 -3.45212,10.401 -3.45212,10.401 0,0 4.46854,-3.9192 6.10478,-7.20044 1.63625,-3.28124 5.87281,-6.3332 5.87281,-6.3332z"/>
   <path id="_618326360" class="fil3" d="M47.5749 143.752c-2.63993,0.394003 -5.73259,1.84955 -6.96878,3.63217 -1.2362,1.78262 -3.2047,8.52375 -3.2047,8.52375 0,0 2.38043,-3.37828 3.97425,-5.23431 1.59382,-1.85592 3.59806,-4.6161 6.19924,-6.92161z"/>
   <path id="_618326408" class="fil5 str0" d="M49.8982 150.191c0,0 -6.70453,0.45726 -7.83322,4.6052 -1.12868,4.14783 0.225823,11.6923 0.225823,11.6923 0,0 5.07206,-4.43518 5.62594,-6.825 0.553979,-2.38982 1.98146,-9.47249 1.98146,-9.47249z"/>
   <path id="_618326240" class="fil2" d="M49.5952 150.596c0,0 -5.89137,1.14229 -7.02017,5.29011 -1.12868,4.14794 -0.284222,10.6023 -0.284222,10.6023 0,0 3.0416,-4.88229 3.63822,-8.3804 0.59651,-3.49799 3.66617,-7.51197 3.66617,-7.51197z"/>
   <path id="_618325880" class="fil3" d="M48.6814 151.654c-2.3352,1.1045 -4.79238,3.31923 -5.43822,5.31689 -0.645842,1.99765 -0.580858,8.79394 -0.580858,8.79394 0,0 1.25876,-3.79646 2.21527,-5.96219 0.95651,-2.16583 2.04007,-5.28429 3.8038,-8.14864z"/>
   <path id="_618325928" class="fil5 str0" d="M52.4953 158.308c0,0 -5.62388,1.49948 -5.89612,5.21261 -0.272348,3.71313 2.12913,9.90244 2.12913,9.90244 0,0 3.5769,-4.61081 3.65192,-6.73411 0.0749146,-2.12341 0.115071,-8.38094 0.115071,-8.38094z"/>
   <path id="_618325760" class="fil2" d="M52.3049 158.703c0,0 -4.81915,1.94713 -5.09149,5.66026 -0.272348,3.71313 1.51492,9.06024 1.51492,9.06024 0,0 1.77679,-4.65442 1.70436,-7.727 -0.0723239,-3.07258 1.87222,-6.9935 1.87222,-6.9935z"/>
   <path id="_618325400" class="fil3" d="M51.7033 159.753c-1.80216,1.32579 -3.52412,3.61565 -3.74217,5.42095 -0.218051,1.80518 0.963095,7.57199 0.963095,7.57199 0,0 0.441068,-3.43592 0.895413,-5.43552 0.454345,-1.9997 0.858819,-4.83016 1.88366,-7.55741z"/>
   <path id="_618325448" class="fil5 str0" d="M57.4157 164.079c0,0 -5.62378,1.49948 -5.89612,5.21261 -0.272348,3.71313 2.12913,9.90244 2.12913,9.90244 0,0 3.57701,-4.61081 3.65192,-6.73422 0.0749146,-2.1233 0.115071,-8.38083 0.115071,-8.38083z"/>
   <path id="_618325280" class="fil2" d="M57.2253 164.473c0,0 -4.81915,1.94713 -5.09149,5.66026 -0.272348,3.71313 1.51492,9.06024 1.51492,9.06024 0,0 1.77679,-4.65453 1.70436,-7.72711 -0.0723239,-3.07247 1.87222,-6.9934 1.87222,-6.9934z"/>
   <path id="_618324920" class="fil3" d="M56.6237 165.524c-1.80216,1.3259 -3.52412,3.61576 -3.74217,5.42095 -0.218051,1.80529 0.963095,7.5721 0.963095,7.5721 0,0 0.441068,-3.43592 0.895413,-5.43563 0.454453,-1.99959 0.858819,-4.83016 1.88366,-7.55741z"/>
   <path id="_618324968" class="fil5 str0" d="M60.7649 168.224c0,0 -4.95451,3.05433 -4.14675,6.68877 0.807653,3.63455 4.88866,8.8709 4.88866,8.8709 0,0 2.0988,-5.44513 1.55961,-7.5002 -0.539299,-2.05508 -2.30152,-8.05947 -2.30152,-8.05947z"/>
   <path id="_618324800" class="fil2" d="M60.696 168.657c0,0 -4.055,3.25155 -3.24723,6.88599 0.807653,3.63444 4.05802,8.24104 4.05802,8.24104 0,0 0.362267,-4.96887 -0.591329,-7.89064 -0.953488,-2.92178 -0.219454,-7.23638 -0.219454,-7.23638z"/>
   <path id="_618324440" class="fil3" d="M60.4223 169.836c-1.34436,1.78834 -2.33455,4.47696 -2.02388,6.26854 0.310561,1.79158 3.10129,6.97461 3.10129,6.97461 0,0 -0.566285,-3.41757 -0.706615,-5.46337 -0.140222,-2.04579 -0.567473,-4.8729 -0.370795,-7.77978z"/>
   <path id="_618324488" class="fil5 str0" d="M64.6636 171.118c0,0 -3.2468,4.83059 -1.00768,7.80515 2.23902,2.97467 8.12079,6.0534 8.12079,6.0534 0,0 -0.342081,-5.82564 -1.68331,-7.47343 -1.34123,-1.64791 -5.4298,-6.38512 -5.4298,-6.38512z"/>
   <path id="_618324320" class="fil2" d="M64.7799 171.541c0,0 -2.34632,4.6379 -0.10719,7.61247 2.23902,2.97467 7.10404,5.82369 7.10404,5.82369 0,0 -1.72606,-4.67363 -3.80294,-6.93899 -2.07699,-2.26546 -3.19391,-6.49717 -3.19391,-6.49717z"/>
   <path id="_618323960" class="fil3" d="M65.0187 172.728c-0.48403,2.1844 -0.273212,5.04173 0.750981,6.54423 1.02408,1.50261 5.70916,5.06645 5.70916,5.06645 0,0 -1.92964,-2.87698 -2.90375,-4.68141 -0.974106,-1.80443 -2.53285,-4.20148 -3.55639,-6.92928z"/>
   <path id="_618324008" class="fil5 str0" d="M57.3666 193.86c0,0 5.84517,3.09266 9.39854,0.560672 3.55348,-2.53209 7.19266,-8.88375 7.19266,-8.88375 0,0 -7.0029,0.726909 -8.97032,2.23513 -1.96743,1.50822 -7.62089,6.08794 -7.62089,6.08794z"/>
   <path id="_618323840" class="fil2" d="M57.8734 193.712c0,0 5.60359,2.16238 9.15707,-0.369715 3.55348,-2.53198 6.92733,-7.80483 6.92733,-7.80483 0,0 -5.60229,2.10268 -8.30462,4.42007 -2.70221,2.31739 -7.77978,3.75447 -7.77978,3.75447z"/>
   <path id="_618323480" class="fil3" d="M59.2985 193.387c2.63237,0.36842 6.06679,-0.0332474 7.8629,-1.20036 1.79601,-1.16711 6.03181,-6.29682 6.03181,-6.29682 0,0 -3.43938,2.20199 -5.59916,3.33586 -2.15968,1.13387 -5.02586,2.91714 -8.29555,4.16132z"/>
   <path id="_618323528" class="fil5 str0" d="M46.5983 187.725c0,0 4.52381,5.44199 9.08885,3.95191 4.56504,-1.48998 10.7863,-7.10339 10.7863,-7.10339 0,0 -7.24308,-1.69983 -9.81424,-0.759185 -2.57128,0.940534 -10.0609,3.91067 -10.0609,3.91067z"/>
   <path id="_618253672" class="fil2" d="M47.1619 187.743c0,0 4.66694,4.3444 9.23209,2.85431 4.56504,-1.48998 10.0795,-6.02447 10.0795,-6.02447 0,0 -6.42009,0.294369 -10.0529,1.85365 -3.63271,1.55939 -9.25865,1.31651 -9.25865,1.31651z"/>
   <path id="_618253336" class="fil3" d="M48.7086 187.896c2.4588,1.3368 6.02955,2.12125 8.29058,1.49074 2.26104,-0.630513 8.57114,-4.70289 8.57114,-4.70289 0,0 -4.31612,1.17154 -6.92409,1.63668 -2.60809,0.46514 -6.18369,1.38516 -9.93763,1.57547z"/>
   <path id="_618253384" class="fil5 str0" d="M38.992 181.163c0,0 3.18452,5.14093 7.22429,4.42007 4.03977,-0.720864 9.96915,-4.73527 9.96915,-4.73527 0,0 -5.92872,-2.29569 -8.2161,-1.80389 -2.28738,0.491802 -8.97734,2.11909 -8.97734,2.11909z"/>
   <path id="_618253216" class="fil2" d="M39.4667 181.245c0,0 3.4356,4.2289 7.47538,3.50803 4.03977,-0.720864 9.24332,-3.90581 9.24332,-3.90581 0,0 -5.46823,-0.510585 -8.72723,0.379215 -3.259,0.8898 -7.99147,0.0185667 -7.99147,0.0185667z"/>
   <path id="_618252856" class="fil3" d="M40.7576 181.558c1.92274,1.4223 4.85175,2.50867 6.8399,2.24269 1.98815,-0.266087 7.81044,-2.96593 7.81044,-2.96593 0,0 -3.7915,0.480792 -6.05373,0.565853 -2.26212,0.0849536 -5.39709,0.440528 -8.59661,0.157385z"/>
   <path id="_618252904" class="fil5 str0" d="M32.4796 175.479c0,0 3.3609,5.02748 7.37326,4.16704 4.01236,-0.860438 9.79892,-5.078 9.79892,-5.078 0,0 -6.00472,-2.08876 -8.27364,-1.51805 -2.26903,0.570819 -8.89854,2.429 -8.89854,2.429z"/>
   <path id="_618252736" class="fil2" d="M32.9569 175.545c0,0 3.58014,4.10724 7.5925,3.2468 4.01246,-0.860438 9.10234,-4.22382 9.10234,-4.22382 0,0 -5.48258,-0.320708 -8.70877,0.681464 -3.22619,1.00217 -7.98607,0.295556 -7.98607,0.295556z"/>
   <path id="_618252376" class="fil3" d="M34.2579 175.813c1.97088,1.35472 4.93584,2.33898 6.91362,2.00424 1.97768,-0.334849 7.70282,-3.23482 7.70282,-3.23482 0,0 -3.7725,0.611839 -6.0303,0.775269 -2.25791,0.16343 -5.37863,0.627383 -8.58614,0.455317z"/>
   <path id="_618252424" class="fil5 str0" d="M28.4502 168.216c0,0 2.52518,5.49489 6.62303,5.27867 4.09785,-0.216216 10.4777,-3.46744 10.4777,-3.46744 0,0 -5.5997,-3.01051 -7.93026,-2.80509 -2.33066,0.205421 -9.17045,0.99386 -9.17045,0.99386z"/>
   <path id="_618252256" class="fil2" d="M28.9111 168.357c0,0 2.88702,4.62096 6.98487,4.40463 4.09785,-0.216216 9.65492,-2.73395 9.65492,-2.73395 0,0 -5.36319,-1.18223 -8.70715,-0.701866 -3.34395,0.48036 -7.93264,-0.968816 -7.93264,-0.968816z"/>
   <path id="_618251896" class="fil3" d="M30.1536 168.826c1.73232,1.64888 4.5047,3.08877 6.51055,3.07042 2.00575,-0.0184588 8.1169,-1.97833 8.1169,-1.97833 0,0 -3.82183,0.00874363 -6.07715,-0.186315 -2.25543,-0.195167 -5.41026,-0.229601 -8.5503,-0.905776z"/>
   <path id="_618251944" class="fil5 str0" d="M23.2253 159.251c0,0 1.69195,6.17506 6.01012,6.65455 4.31817,0.479497 11.5427,-1.81868 11.5427,-1.81868 0,0 -5.33157,-4.10886 -7.8017,-4.2955 -2.47002,-0.186639 -9.7511,-0.540378 -9.7511,-0.540378z"/>
   <path id="_618251776" class="fil2" d="M23.6826 159.477c0,0 2.22034,5.32433 6.53851,5.80383 4.31817,0.479497 10.5569,-1.1941 10.5569,-1.1941 0,0 -5.39936,-2.15827 -8.97529,-2.23211 -3.57604,-0.0737272 -8.12014,-2.37762 -8.12014,-2.37762z"/>
   <path id="_618251416" class="fil3" d="M24.8997 160.181c1.52582,2.02064 4.17417,4.00221 6.27275,4.32831 2.09847,0.325997 8.81995,-0.669374 8.81995,-0.669374 0,0 -3.99401,-0.648864 -6.31647,-1.24084 -2.32257,-0.592084 -5.61244,-1.17111 -8.77623,-2.4181z"/>
   <path id="_618251464" class="fil5 str0" d="M20.5764 149.648c0,0 0.638501,6.72774 5.0413,8.01014 4.40291,1.28229 12.3318,0.204018 12.3318,0.204018 0,0 -4.79777,-5.24003 -7.33224,-5.88241 -2.53447,-0.642279 -10.0408,-2.33174 -10.0408,-2.33174z"/>
   <path id="_618251296" class="fil2" d="M21.0108 149.966c0,0 1.34231,5.93898 5.74522,7.22138 4.4028,1.2824 11.1934,0.674555 11.1934,0.674555 0,0 -5.22232,-3.22413 -8.92703,-3.94996 -3.70482,-0.725722 -8.01154,-3.94597 -8.01154,-3.94597z"/>
   <path id="_618250936" class="fil3" d="M22.1485 150.919c1.21968,2.37805 3.61371,4.9191 5.73658,5.639 2.12276,0.719893 9.29222,0.904912 9.29222,0.904912 0,0 -4.03503,-1.39952 -6.34248,-2.43667 -2.30746,-1.03715 -5.62302,-2.23643 -8.68631,-4.10724z"/>
   <path id="_618250984" class="fil5 str0" d="M20.2345 141.358c0,0 -0.286921,6.20636 3.55531,7.9417 3.84223,1.73545 11.1989,1.77701 11.1989,1.77701 0,0 -3.69122,-5.38889 -5.91534,-6.3006 -2.22412,-0.911821 -8.83884,-3.41811 -8.83884,-3.41811z"/>
   <path id="_618250816" class="fil2" d="M20.5889 141.704c0,0 0.455533,5.5793 4.29787,7.31464 3.84223,1.73545 10.1019,2.05842 10.1019,2.05842 0,0 -4.33771,-3.60864 -7.61635,-4.74736 -3.27865,-1.13872 -6.78344,-4.62571 -6.78344,-4.62571z"/>
   <path id="_618250456" class="fil3" d="M21.5014 142.719c0.803443,2.32203 2.65472,4.94393 4.49423,5.87313 1.8394,0.9292 8.34164,2.02269 8.34164,2.02269 0,0 -3.49238,-1.7946 -5.45894,-3.03642 -1.96656,-1.24181 -4.82983,-2.76126 -7.37693,-4.85941z"/>
   <path id="_618250504" class="fil5 str0" d="M21.2122 131.214c0,0 -1.76416,6.12022 1.65384,8.76566 3.4179,2.64554 10.7434,4.43885 10.7434,4.43885 0,0 -2.39716,-6.25245 -4.39783,-7.69127 -2.00057,-1.43871 -7.99945,-5.51324 -7.99945,-5.51324z"/>
   <path id="_618250336" class="fil2" d="M21.4832 131.643c0,0 -0.874471,5.67181 2.54353,8.31725 3.4179,2.64544 9.5827,4.45817 9.5827,4.45817 0,0 -3.46583,-4.63132 -6.46392,-6.54758 -2.99799,-1.91615 -5.66231,-6.22784 -5.66231,-6.22784z"/>
   <path id="_618249976" class="fil3" d="M22.1514 132.872c0.248168,2.50672 1.46979,5.56192 3.08262,6.92658 1.61293,1.36465 7.83602,4.00351 7.83602,4.00351 0,0 -3.05498,-2.62126 -4.72016,-4.32778 -1.66518,-1.70663 -4.15841,-3.90355 -6.19848,-6.60231z"/>
   <path id="_618250024" class="fil5 str0" d="M25.4826 123.518c0,0 -3.20114,4.76453 -0.99807,7.97668 2.20307,3.21215 7.99362,6.7707 7.99362,6.7707 0,0 -0.33269,-6.02534 -1.65244,-7.81141 -1.31975,-1.78608 -5.34312,-6.93597 -5.34312,-6.93597z"/>
   <path id="_618249856" class="fil2" d="M25.5969 123.961c0,0 -2.31415,4.62506 -0.111184,7.83721 2.20307,3.21215 6.99242,6.46727 6.99242,6.46727 0,0 -1.69648,-4.92914 -3.74044,-7.39981 -2.04385,-2.47078 -3.1408,-6.90466 -3.1408,-6.90466z"/>
   <path id="_618249496" class="fil3" d="M25.8313 125.199c-0.478309,2.21916 -0.272672,5.17731 0.734897,6.79283 1.00746,1.61552 5.61913,5.59549 5.61913,5.59549 0,0 -1.89834,-3.09125 -2.85647,-5.01464 -0.95813,-1.92328 -2.4914,-4.49563 -3.49756,-7.37369z"/>
   <path id="_618249544" class="fil5 str0" d="M26.6524 112.419c0,0 -3.58608,5.27727 -1.65762,9.26188 1.92846,3.98461 7.40316,8.72679 7.40316,8.72679 0,0 0.169259,-7.10253 -0.997422,-9.32741 -1.16668,-2.22488 -4.74812,-8.66127 -4.74812,-8.66127z"/>
   <path id="_618249376" class="fil2" d="M26.7295 112.95c0,0 -2.69066,5.20041 -0.762207,9.18503 1.92846,3.98461 6.43067,8.27277 6.43067,8.27277 0,0 -1.281,-5.94977 -3.11241,-9.0488 -1.83141,-3.09913 -2.55606,-8.409 -2.55606,-8.409z"/>
   <path id="_618249016" class="fil3" d="M26.86 114.426c-0.661062,2.55703 -0.701974,6.04811 0.167748,8.04231 0.86983,1.9942 5.13467,7.11548 5.13467,7.11548 0,0 -1.63484,-3.81298 -2.42976,-6.16351 -0.794915,-2.35053 -2.10916,-5.51885 -2.87266,-8.99429z"/>
   <path id="_618249064" class="fil5 str0" d="M29.7793 103.188c0,0 -3.94619,5.25438 -2.30573,9.70759 1.64046,4.4531 6.76153,10.0861 6.76153,10.0861 0,0 0.670129,-7.55979 -0.335496,-10.0557 -1.00563,-2.49582 -4.1203,-9.73793 -4.1203,-9.73793z"/>
   <path id="_618248896" class="fil2" d="M29.8186 103.763c0,0 -3.0484,5.26626 -1.40794,9.71936 1.64056,4.4531 5.82445,9.4998 5.82445,9.4998 0,0 -0.856552,-6.48184 -2.4629,-9.98005 -1.60635,-3.49832 -1.95361,-9.23911 -1.95361,-9.23911z"/>
   <path id="_618248536" class="fil3" d="M29.8445 105.352c-0.839281,2.65871 -1.12653,6.37907 -0.400588,8.59769 0.725938,2.21872 4.61459,8.12931 4.61459,8.12931 0,0 -1.36001,-4.23926 -1.98621,-6.83018 -0.626303,-2.59103 -1.71235,-6.10899 -2.22779,-9.89682z"/>
   <path id="_618248584" class="fil5 str0" d="M35.103 96.4093c0,0 -4.4721,3.85389 -3.49497,7.84498 0.977128,3.99098 5.12614,9.48209 5.12614,9.48209 0,0 1.64531,-6.27286 1.01523,-8.52224 -0.630081,-2.24938 -2.64641,-8.80484 -2.64641,-8.80484z"/>
   <path id="_618248416" class="fil2" d="M35.0642 96.899c0,0 -3.61501,3.99444 -2.63788,7.98553 0.977128,3.99098 4.30781,8.8518 4.30781,8.8518 0,0 0.042099,-5.58643 -1.02927,-8.76781 -1.07137,-3.18139 -0.64066,-8.06951 -0.64066,-8.06951z"/>
   <path id="_618248056" class="fil3" d="M34.8779 98.2417c-1.15589,2.11833 -1.925,5.21153 -1.52549,7.18662 0.399401,1.9752 3.33284,7.52114 3.33284,7.52114 0,0 -0.73738,-3.76991 -0.991917,-6.04433 -0.254645,-2.27432 -0.825788,-5.39666 -0.815425,-8.66343z"/>
   <path id="_618248104" class="fil5 str0" d="M41.5568 91.3654c0,0 -4.61211,2.26406 -4.49304,5.52134 0.118957,3.25717 2.73071,8.19527 2.73071,8.19527 0,0 2.58952,-4.60196 2.45318,-6.45064 -0.136336,-1.84879 -0.690855,-7.26596 -0.690855,-7.26596z"/>
   <path id="_618247936" class="fil2" d="M41.433 91.7393c0,0 -3.88995,2.51255 -3.77088,5.76983 0.118957,3.25727 2.13237,7.57285 2.13237,7.57285 0,0 1.06402,-4.32993 0.713848,-6.97407 -0.350177,-2.64403 0.924666,-6.3686 0.924666,-6.3686z"/>
   <path id="_618247576" class="fil3" d="M41.0233 92.7513c-1.39844,1.45641 -2.63842,3.73245 -2.65299,5.33081 -0.0144648,1.59836 1.52614,6.38113 1.52614,6.38113 0,0 0.0496552,-3.04667 0.245577,-4.85369 0.19603,-1.80702 0.271592,-4.32389 0.881272,-6.85825z"/>
   <path id="_618247624" class="fil5 str0" d="M50.0501 89.3965c0,0 -5.13769,0.0302249 -6.4487,3.01439 -1.31101,2.98406 -1.10979,8.56671 -1.10979,8.56671 0,0 4.3349,-3.01547 5.01701,-4.73916 0.682219,-1.72368 2.54148,-6.84195 2.54148,-6.84195z"/>
   <path id="_618247456" class="fil2" d="M49.7758 89.6792c0,0 -4.59581,0.568336 -5.90681,3.55251 -1.3109,2.98417 -1.37739,7.74589 -1.37739,7.74589 0,0 2.84308,-3.43485 3.67902,-5.96758 0.836043,-2.53274 3.60518,-5.33081 3.60518,-5.33081z"/>
   <path id="_618247096" class="fil3" d="M48.9665 90.412c-1.89305,0.702189 -4.00037,2.21138 -4.70936,3.64394 -0.708882,1.43255 -1.40427,6.40898 -1.40427,6.40898 0,0 1.37113,-2.721 2.33423,-4.26247 0.963203,-1.54147 2.12708,-3.77434 3.77941,-5.79044z"/>
   <path id="_618247144" class="fil5 str0" d="M69.1272 175.497c0,0 -0.957158,5.74101 2.31199,7.52266 3.26915,1.78165 9.89769,2.15093 9.89769,2.15093 0,0 -2.72175,-5.16198 -4.62452,-6.10727 -1.90287,-0.945284 -7.58516,-3.56632 -7.58516,-3.56632z"/>
   <path id="_618246976" class="fil2" d="M69.4078 175.833c0,0 -0.217188,5.19307 3.05196,6.97472 3.26926,1.78165 8.87706,2.36251 8.87706,2.36251 0,0 -3.50501,-3.54063 -6.3332,-4.74369 -2.82808,-1.20317 -5.59582,-4.59354 -5.59582,-4.59354z"/>
   <path id="_618246616" class="fil3" d="M70.1164 176.815c0.463089,2.18893 1.83735,4.703 3.39134,5.6472 1.55399,0.944205 7.29381,2.25024 7.29381,2.25024 0,0 -2.94704,-1.82083 -4.58048,-3.06049 -1.63344,-1.23965 -4.0442,-2.77713 -6.10468,-4.83696z"/>
   <path id="_618246664" class="fil5 str0" d="M68.2715 193.964c0,0 5.08426,2.83294 7.86193,0.353847 2.77767,-2.4792 5.35564,-8.59704 5.35564,-8.59704 0,0 -5.77684,0.826327 -7.3072,2.30022 -1.53035,1.47379 -5.91037,5.94297 -5.91037,5.94297z"/>
   <path id="_618246496" class="fil2" d="M68.6827 193.813c0,0 4.81731,1.95167 7.59498,-0.527425 2.77767,-2.4792 5.21142,-7.56465 5.21142,-7.56465 0,0 -4.51344,2.10948 -6.59799,4.36793 -2.08444,2.25845 -6.20841,3.72414 -6.20841,3.72414z"/>
   <path id="_618246328" class="fil3" d="M69.8457 193.476c2.21711,0.300306 5.04691,-0.147886 6.45885,-1.29363 1.41204,-1.14574 4.57314,-6.11148 4.57314,-6.11148 0,0 -2.70621,2.16259 -4.4232,3.28372 -1.71699,1.12113 -3.97587,2.87406 -6.60878,4.12138z"/>
   <path id="_618245968" class="fil4 str5" d="M84.1644 185.625c0,0 -19.4323,1.21439 -27.084,-4.25092 -7.65176,-5.4652 -19.311,-18.8253 -22.5904,-31.2135 -3.27929,-12.3883 -1.70047,-21.1331 0.364318,-30.1206 2.06469,-8.98748 6.80125,-18.9465 10.2021,-22.9546"/>
   <path id="_618246016" class="fil5 str0" d="M77.9987 176.852c3.225,1.0596 4.00599,1.4699 7.02664,1.4699 3.02055,0 4.10713,-0.341649 7.23012,-1.46958 -2.03684,4.53449 -3.56406,6.47115 -3.56406,9.70684 0,3.23568 1.52765,6.6077 3.56449,9.8435 -2.35938,-0.786279 -3.90398,-1.60656 -7.23055,-1.60656 -3.32668,0 -4.25999,0.0682219 -7.28107,1.29881 2.24053,-3.64566 3.71691,-6.1634 3.71691,-9.39908 0,-3.23568 -1.52765,-5.17267 -3.46248,-9.84382z"/>
   <path id="_618245848" class="fil2" d="M80.3321 178.403c2.15018,0.891419 2.6708,1.23652 4.68475,1.23652 2.01384,0 2.73827,-0.287353 4.82033,-1.23631 -1.35796,3.81482 -2.37622,5.44405 -2.37622,8.16623 0,2.72218 1.01858,5.55912 2.37654,8.28119 -1.5731,-0.661386 -2.6028,-1.35149 -4.82066,-1.35149 -2.21797,0 -2.84017,0.0574273 -4.85434,1.09263 1.49376,-3.06707 2.47812,-5.18519 2.47812,-7.90738 0,-2.72208 -1.01858,-4.35163 -2.30854,-8.28141z"/>
   <path id="_618139616" class="fil6" d="M82.2975 181.537c1.24483,0.551605 1.54633,0.76523 2.71225,0.76523 1.16593,0 1.5854,-0.177787 2.79084,-0.765122 -0.786279,2.36111 -1.37577,3.36943 -1.37577,5.05425 0,1.68482 0.58971,3.44067 1.37588,5.1255 -0.910633,-0.40944 -1.50693,-0.836582 -2.79095,-0.836582 -1.28402,0 -1.64434,0.0355143 -2.81038,0.676282 0.864756,-1.89823 1.43471,-3.20924 1.43471,-4.89406 0,-1.68471 -0.58971,-2.69326 -1.33659,-5.1255z"/>
   <path id="_618139640" class="fil7 str0" d="M53.2497 230.915c0,0 19.0681,-11.5379 29.6347,-17.3679 10.5666,-5.82995 61.4557,-33.0355 63.399,-33.0355 1.94335,0 -58.2979,40.2013 -62.5488,43.2376 -4.25092,3.03631 -25.7478,13.6028 -26.5981,14.5745 -0.850399,0.971515 -3.88671,-7.40866 -3.88671,-7.40866z"/>
   <path id="_618139304" class="fil2" d="M53.3711 231.4c0,0 18.4608,-10.2016 29.0274,-16.0316 10.5666,-5.82995 56.5366,-30.9102 63.8849,-34.8574 -5.16166,3.88649 -59.6945,39.594 -64.5527,42.6303 -4.85822,3.03631 -24.1081,13.6635 -24.9585,14.635 -0.850399,0.971515 -3.40095,-6.37627 -3.40095,-6.37627z"/>
   <path id="_618139352" class="fil5 str0" d="M24.0221 252.092c1.15384,1.21461 5.89062,0.425092 6.98379,-1.45738 1.09317,-1.88247 2.12535,0.182429 2.73266,0.546747 0.607305,0.36421 2.55044,-1.57914 3.15775,-2.6721 0.607305,-1.09295 4.12948,-0.242879 4.12948,-0.242879 0,0 0.48565,-2.42922 0.971515,-3.27929 0.485973,-0.850184 3.76527,0.364426 3.76527,0.364426l2.06458 -2.55066c0,0 1.42759,-0.0451215 3.02659,-0.620366 1.02441,-0.368312 2.28695,-0.827623 2.28695,-0.502813 0,0.36421 1.26232,2.56966 2.36845,3.88638 1.27517,1.51826 3.88638,1.94335 6.10284,1.33626 1.17122,-0.3206 3.24907,-2.73287 3.06686,-4.73678 -0.182321,-2.00391 -2.01384,-2.80109 -3.64361,-2.6721 -2.02345,0.160192 -3.81762,-0.958669 -4.55457,-2.58067 -0.988786,-2.17533 -1.2851,-3.18851 -2.00391,-5.0101 -0.455425,-1.15405 -2.11391,-3.2549 -3.7956,-4.28125 -2.48222,-1.51502 -5.9814,-1.60937 -7.25689,-0.516198 -1.27538,1.09317 -2.28306,3.56255 -2.12535,4.7669 0.242879,1.85192 2.42922,2.88454 2.85431,3.55272 0.251514,0.394975 0.0992025,1.10925 0.00831185,1.79018 -3.60529,-0.213625 -1.61056,1.51923 -2.46786,1.51923 -1.09295,0 -5.16155,0.242987 -5.16155,0.242987 0,0 0.72842,3.09697 -0.607305,2.97553 -1.33583,-0.121439 -3.70449,-0.424876 -4.67601,-0.0605578 -0.971623,0.36421 0.668078,1.7606 -0.48565,2.30702 -1.15384,0.546531 -3.15796,1.51859 -3.15796,1.51859 0,0 -1.51826,-0.0608816 -2.12557,0.303652 -0.607305,0.364426 -2.61122,4.8579 -1.45749,6.07251z"/>
   <path id="_618139184" class="fil2" d="M24.0221 252.092c1.15384,1.21461 5.34409,-0.607305 6.43737,-2.48978 1.09317,-1.88247 1.97336,-0.333661 2.58067,0.0305487 0.607305,0.36421 2.52011,-1.70047 3.12741,-2.79343 0.607305,-1.09306 3.30963,-0.0912145 3.30963,-0.0912145 0,0 1.63949,-2.55055 2.12535,-3.40073 0.485865,-0.850184 3.46162,0.273643 3.46162,0.273643l2.611 -1.94335c0.102873,-0.0766417 1.53391,-1.32256 3.08769,-1.89607 1.01912,-0.375976 1.50747,-1.26696 2.59017,0.954783 1.08259,2.22175 2.51935,5.59539 6.16372,5.55685 1.21299,-0.0126297 4.70667,-1.97379 4.52445,-3.97771 -0.182213,-2.00402 -1.40719,-1.70771 -3.03652,-1.57914 -2.02302,0.15976 -3.90851,0.103952 -4.64546,-1.51805 -0.988786,-2.17533 -1.43773,-4.22123 -2.1559,-6.0425 -0.454885,-1.1533 -1.9929,-4.34828 -3.67405,-5.3742 -2.48179,-1.51459 -5.67764,-1.57904 -6.95302,-0.485865 -1.27549,1.09317 -1.7063,3.50199 -1.54859,4.70623 0.242879,1.85203 2.5662,2.27205 3.06686,2.88464 0.64487,0.789518 0.281092,2.26331 0.129643,2.88313 -3.60529,-0.213625 -1.82289,1.94433 -2.68009,1.94433 -1.09295,0 -4.19004,0.911173 -4.19004,0.911173 0,0 -0.0610975,2.24679 -1.39693,2.12535 -1.33573,-0.121439 -3.18819,-0.363994 -4.15981,0.000215892 -0.971515,0.36421 0.086141,1.18482 -0.940966,1.9426 -1.27517,0.941074 -2.88486,1.39715 -2.88486,1.39715 0,0 -1.73081,0.242771 -2.33811,0.607305 -0.607305,0.364426 -3.76494,4.15949 -2.61122,5.3741z"/>
   <path id="_618139016" class="fil3" d="M45.6109 232.721c-0.226363,-1.86229 -2.12557,-0.0913224 -2.52033,-0.820067 -0.394867,-0.728636 0.0302249,-2.18612 0.728636,-2.58088 0.698411,-0.394759 2.42922,-1.06273 3.91704,-0.212546 2.00683,1.14693 4.0347,9.15944 5.79919,12.2062 0.347479,0.599749 2.64176,4.64622 5.01021,5.04076 2.36834,0.394543 4.25059,-0.941506 4.82767,-1.79169 0.576972,-0.850076 0.72896,-2.58088 0.15188,-2.94542 -0.576972,-0.364426 -1.27517,0.333985 -2.18612,0.607305 -0.910957,0.273427 -1.9128,-0.819851 -2.91487,-1.76103 -1.00206,-0.94129 -1.98901,-0.576864 -2.18645,-0.242879 -0.197325,0.333985 -0.303652,1.3055 0.698411,2.429 1.00217,1.1235 1.57893,1.6397 1.57893,2.03446 0,0.394759 -2.94542,-1.48771 -3.21852,-2.48978 -0.273212,-1.00217 0.242987,-3.91704 0.0607737,-5.58697 -0.182213,-1.67003 -1.03218,-4.25092 -1.70026,-5.31354 -0.668078,-1.06273 -3.4614,-4.34213 -5.89062,-4.43324 -1.75369,-0.0658471 -2.5295,0.00788007 -4.02024,0.828378 -2.01492,1.10882 -2.5566,4.53255 -1.17165,5.66933 1.32838,1.09069 3.26256,1.22497 3.03631,-0.637422z"/>
   <path id="_618138848" class="fil3" d="M44.1835 230.504c0.63753,-0.212546 1.57904,-0.576972 2.48978,0.212546 0.910741,0.789518 0.971515,1.21483 1.0324,1.82191 0.0607737,0.607089 -0.182213,0.121223 -1.1235,-0.516414 -0.94129,-0.63753 -1.18384,-0.698411 -1.76092,-0.850076 -0.576972,-0.151772 -1.36649,-0.242879 -0.637746,-0.66797z"/>
   <path id="_618138680" class="fil3" d="M49.6491 234.785c0.455317,0.576972 1.27517,2.07991 1.54849,2.91487 0.273427,0.834963 0.197433,1.22951 -0.409871,1.04751 -0.607305,-0.181997 -1.04751,-0.834747 -1.9888,-1.22951 -0.94129,-0.394759 0.303652,-1.18428 0.850184,-2.73287z"/>
   <path id="_618138512" class="fil3" d="M50.1653 239.309c-0.622309,-0.485865 -3.18808,-2.32268 -4.20547,-2.45934 0.804414,0.804522 1.18406,1.27528 1.7307,1.6397 0.546747,0.364534 1.24494,0.683083 2.47477,0.819635z"/>
   <path id="_618138344" class="fil3" d="M47.7073 241.072c-0.622309,-0.485865 -3.18808,-2.32268 -4.20547,-2.45923 0.804414,0.804414 1.18406,1.27517 1.73081,1.6397 0.546639,0.364426 1.24483,0.682975 2.47466,0.819527z"/>
   <path id="_618138176" class="fil3" d="M45.2494 242.834c-0.622201,-0.485973 -3.18797,-2.32278 -4.20547,-2.45934 0.804414,0.804522 1.18406,1.27517 1.73081,1.6397 0.546747,0.364426 1.24494,0.683083 2.47466,0.819635z"/>
   <path id="_618138008" class="fil3" d="M41.1034 243.841c-0.430921,-0.336468 -2.20761,-1.6085 -2.91217,-1.70307 0.55711,0.55711 0.819959,0.883107 1.19853,1.13549 0.378567,0.252378 0.862058,0.472912 1.71364,0.567581z"/>
   <path id="_618137840" class="fil3" d="M39.1555 245.58c-0.501841,-0.391952 -2.57128,-1.8734 -3.39188,-1.98351 0.648864,0.648756 0.954999,1.02851 1.39596,1.32245 0.44096,0.293937 1.00401,0.550849 1.99592,0.661062z"/>
   <path id="_618137672" class="fil3" d="M32.966 244.487c0.622525,0.136876 2.39802,1.73059 2.18591,2.12535 -0.212006,0.394759 -1.36627,1.97369 -2.18612,1.97369 -0.819851,0 -3.52217,-1.36638 -3.79549,-1.36638 -0.273427,0 1.82191,-0.333661 2.30778,-0.880408 0.485865,-0.546747 0.865512,-1.98901 1.48793,-1.85225z"/>
   <path id="_618137384" class="fil3" d="M29.3222 249.861c0.895629,-1.0324 -1.94335,-2.67199 -2.58088,-2.36834 -0.637638,0.303652 -3.33996,3.58295 -2.48988,4.09915 0.850184,0.516198 4.17525,-0.698411 5.07077,-1.73081z"/>
   <path id="_618137168" class="fil4 str6" d="M120.535 195.754c0,0 -63.8849,35.5256 -64.3705,36.8613 -0.48565,1.33583 0.486081,2.6721 1.70047,2.06479 1.21439,-0.607305 62.9739,-38.0149 62.9739,-38.0149"/>
   <path id="_618137216" class="fil7 str0" d="M116.75 230.915c0,0 -19.0681,-11.5379 -29.6347,-17.3679 -10.5666,-5.82995 -61.4557,-33.0355 -63.399,-33.0355 -1.94335,0 58.2979,40.2013 62.5488,43.2376 4.25092,3.03631 25.7478,13.6028 26.5981,14.5745 0.850399,0.971515 3.88671,-7.40866 3.88671,-7.40866z"/>
   <path id="_618136856" class="fil2" d="M116.629 231.4c0,0 -18.4608,-10.2016 -29.0274,-16.0316 -10.5666,-5.82995 -56.5366,-30.9102 -63.8849,-34.8574 5.16166,3.88649 59.6945,39.594 64.5527,42.6303 4.85822,3.03631 24.1081,13.6635 24.9585,14.635 0.850399,0.971515 3.40095,-6.37627 3.40095,-6.37627z"/>
   <path id="_618136904" class="fil5 str0" d="M145.978 252.092c-1.15384,1.21461 -5.89062,0.425092 -6.98379,-1.45738 -1.09317,-1.88247 -2.12535,0.182429 -2.73266,0.546747 -0.607305,0.36421 -2.55044,-1.57914 -3.15775,-2.6721 -0.607305,-1.09295 -4.12948,-0.242879 -4.12948,-0.242879 0,0 -0.48565,-2.42922 -0.971515,-3.27929 -0.485973,-0.850184 -3.76527,0.364426 -3.76527,0.364426l-2.06458 -2.55066c0,0 -1.42759,-0.0451215 -3.02659,-0.620366 -1.02441,-0.368312 -2.28695,-0.827623 -2.28695,-0.502813 0,0.36421 -1.26232,2.56966 -2.36845,3.88638 -1.27517,1.51826 -3.88638,1.94335 -6.10284,1.33626 -1.17122,-0.3206 -3.24907,-2.73287 -3.06686,-4.73678 0.182321,-2.00391 2.01384,-2.80109 3.64361,-2.6721 2.02345,0.160192 3.81762,-0.958669 4.55457,-2.58067 0.988786,-2.17533 1.2851,-3.18851 2.00391,-5.0101 0.455425,-1.15405 2.11391,-3.2549 3.7956,-4.28125 2.48222,-1.51502 5.9814,-1.60937 7.25689,-0.516198 1.27538,1.09317 2.28306,3.56255 2.12535,4.7669 -0.242879,1.85192 -2.42922,2.88454 -2.85431,3.55272 -0.251514,0.394975 -0.0992025,1.10925 -0.00831185,1.79018 3.60529,-0.213625 1.61056,1.51923 2.46786,1.51923 1.09295,0 5.16155,0.242987 5.16155,0.242987 0,0 -0.72842,3.09697 0.607305,2.97553 1.33583,-0.121439 3.70449,-0.424876 4.67601,-0.0605578 0.971623,0.36421 -0.668078,1.7606 0.48565,2.30702 1.15384,0.546531 3.15796,1.51859 3.15796,1.51859 0,0 1.51826,-0.0608816 2.12557,0.303652 0.607305,0.364426 2.61122,4.8579 1.45749,6.07251z"/>
   <path id="_618136736" class="fil2" d="M145.978 252.092c-1.15384,1.21461 -5.34409,-0.607305 -6.43737,-2.48978 -1.09317,-1.88247 -1.97336,-0.333661 -2.58067,0.0305487 -0.607305,0.36421 -2.52011,-1.70047 -3.12741,-2.79343 -0.607305,-1.09306 -3.30963,-0.0912145 -3.30963,-0.0912145 0,0 -1.63949,-2.55055 -2.12535,-3.40073 -0.485865,-0.850184 -3.46162,0.273643 -3.46162,0.273643l-2.611 -1.94335c-0.102873,-0.0766417 -1.53391,-1.32256 -3.08769,-1.89607 -1.01912,-0.375976 -1.50747,-1.26696 -2.59017,0.954783 -1.08259,2.22175 -2.51935,5.59539 -6.16372,5.55685 -1.21299,-0.0126297 -4.70667,-1.97379 -4.52445,-3.97771 0.182213,-2.00402 1.40719,-1.70771 3.03652,-1.57914 2.02302,0.15976 3.90851,0.103952 4.64546,-1.51805 0.988786,-2.17533 1.43773,-4.22123 2.1559,-6.0425 0.454885,-1.1533 1.9929,-4.34828 3.67405,-5.3742 2.48179,-1.51459 5.67764,-1.57904 6.95302,-0.485865 1.27549,1.09317 1.7063,3.50199 1.54859,4.70623 -0.242879,1.85203 -2.5662,2.27205 -3.06686,2.88464 -0.64487,0.789518 -0.281092,2.26331 -0.129643,2.88313 3.60529,-0.213625 1.82289,1.94433 2.68009,1.94433 1.09295,0 4.19004,0.911173 4.19004,0.911173 0,0 0.0610975,2.24679 1.39693,2.12535 1.33573,-0.121439 3.18819,-0.363994 4.15981,0.000215892 0.971515,0.36421 -0.086141,1.18482 0.940966,1.9426 1.27517,0.941074 2.88486,1.39715 2.88486,1.39715 0,0 1.73081,0.242771 2.33811,0.607305 0.607305,0.364426 3.76494,4.15949 2.61122,5.3741z"/>
   <path id="_618136568" class="fil3" d="M124.389 232.721c0.226363,-1.86229 2.12557,-0.0913224 2.52033,-0.820067 0.394867,-0.728636 -0.0302249,-2.18612 -0.728636,-2.58088 -0.698411,-0.394759 -2.42922,-1.06273 -3.91704,-0.212546 -2.00683,1.14693 -4.0347,9.15944 -5.79919,12.2062 -0.347479,0.599749 -2.64176,4.64622 -5.01021,5.04076 -2.36834,0.394543 -4.25059,-0.941506 -4.82767,-1.79169 -0.576972,-0.850076 -0.72896,-2.58088 -0.15188,-2.94542 0.576972,-0.364426 1.27517,0.333985 2.18612,0.607305 0.910957,0.273427 1.9128,-0.819851 2.91487,-1.76103 1.00206,-0.94129 1.98901,-0.576864 2.18645,-0.242879 0.197325,0.333985 0.303652,1.3055 -0.698411,2.429 -1.00217,1.1235 -1.57893,1.6397 -1.57893,2.03446 0,0.394759 2.94542,-1.48771 3.21852,-2.48978 0.273212,-1.00217 -0.242987,-3.91704 -0.0607737,-5.58697 0.182213,-1.67003 1.03218,-4.25092 1.70026,-5.31354 0.668078,-1.06273 3.4614,-4.34213 5.89062,-4.43324 1.75369,-0.0658471 2.5295,0.00788007 4.02024,0.828378 2.01492,1.10882 2.5566,4.53255 1.17165,5.66933 -1.32838,1.09069 -3.26256,1.22497 -3.03631,-0.637422z"/>
   <path id="_618136400" class="fil3" d="M125.816 230.504c-0.63753,-0.212546 -1.57904,-0.576972 -2.48978,0.212546 -0.910741,0.789518 -0.971515,1.21483 -1.0324,1.82191 -0.0607737,0.607089 0.182213,0.121223 1.1235,-0.516414 0.94129,-0.63753 1.18384,-0.698411 1.76092,-0.850076 0.576972,-0.151772 1.36649,-0.242879 0.637746,-0.66797z"/>
   <path id="_618136232" class="fil3" d="M120.351 234.785c-0.455317,0.576972 -1.27517,2.07991 -1.54849,2.91487 -0.273427,0.834963 -0.197433,1.22951 0.409871,1.04751 0.607305,-0.181997 1.04751,-0.834747 1.9888,-1.22951 0.94129,-0.394759 -0.303652,-1.18428 -0.850184,-2.73287z"/>
   <path id="_618136064" class="fil3" d="M119.835 239.309c0.622201,-0.485865 3.18797,-2.32268 4.20536,-2.45934 -0.804414,0.804522 -1.18406,1.27528 -1.7307,1.6397 -0.546747,0.364534 -1.24494,0.683083 -2.47466,0.819635z"/>
   <path id="_618135896" class="fil3" d="M122.293 241.072c0.622309,-0.485865 3.18808,-2.32268 4.20547,-2.45923 -0.804414,0.804414 -1.18406,1.27517 -1.73081,1.6397 -0.546639,0.364426 -1.24483,0.682975 -2.47466,0.819527z"/>
   <path id="_618135728" class="fil3" d="M124.751 242.834c0.622201,-0.485973 3.18797,-2.32278 4.20547,-2.45934 -0.804414,0.804522 -1.18406,1.27517 -1.73081,1.6397 -0.546747,0.364426 -1.24494,0.683083 -2.47466,0.819635z"/>
   <path id="_618135560" class="fil3" d="M128.897 243.841c0.430921,-0.336468 2.20761,-1.6085 2.91217,-1.70307 -0.55711,0.55711 -0.819959,0.883107 -1.19853,1.13549 -0.378567,0.252378 -0.862058,0.472912 -1.71364,0.567581z"/>
   <path id="_618135392" class="fil3" d="M130.844 245.58c0.501841,-0.391952 2.57128,-1.8734 3.39188,-1.98351 -0.648864,0.648756 -0.954999,1.02851 -1.39596,1.32245 -0.44096,0.293937 -1.00401,0.550849 -1.99592,0.661062z"/>
   <path id="_618135224" class="fil3" d="M137.034 244.487c-0.622525,0.136876 -2.39802,1.73059 -2.18591,2.12535 0.212006,0.394759 1.36627,1.97369 2.18612,1.97369 0.819851,0 3.52217,-1.36638 3.79549,-1.36638 0.273427,0 -1.82191,-0.333661 -2.30778,-0.880408 -0.485865,-0.546747 -0.865512,-1.98901 -1.48793,-1.85225z"/>
   <path id="_618134816" class="fil3" d="M140.678 249.861c-0.895629,-1.0324 1.94335,-2.67199 2.58088,-2.36834 0.637638,0.303652 3.33996,3.58295 2.48988,4.09915 -0.850184,0.516198 -4.17525,-0.698411 -5.07077,-1.73081z"/>
   <path id="_618134840" class="fil4 str6" d="M49.4649 195.754c0,0 63.8849,35.5256 64.3705,36.8613 0.48565,1.33583 -0.486081,2.6721 -1.70047,2.06479 -1.21439,-0.607305 -62.9739,-38.0149 -62.9739,-38.0149"/>
  </g>
  <g>
   <g style="clip-path:url(#id0)">
    <polygon class="fil7" points="80.7998,77.1735 187.592,82.6163 187.721,75.7631 "/>
    <polygon id="1" class="fil7" points="80.7998,77.1735 -25.9923,71.7306 -26.1217,78.5839 "/>
    <polygon id="12" class="fil8" points="80.7998,77.1735 187.721,75.7631 187.411,68.9155 "/>
    <polygon id="123" class="fil9" points="80.7998,77.1735 -26.1217,78.5839 -25.8116,85.4315 "/>
    <polygon id="1234" class="fil10" points="80.7998,77.1735 187.411,68.9155 186.663,62.1018 "/>
    <polygon id="12345" class="fil11" points="80.7998,77.1735 -25.8116,85.4315 -25.0635,92.2451 "/>
    <polygon id="123456" class="fil12" points="80.7998,77.1735 186.663,62.1018 185.48,55.3501 "/>
    <polygon id="1234567" class="fil13" points="80.7998,77.1735 -25.0635,92.2451 -23.8804,98.9968 "/>
    <polygon id="12345678" class="fil14" points="80.7998,77.1735 185.48,55.3501 183.867,48.6881 "/>
    <polygon id="123456789" class="fil15" points="80.7998,77.1735 -23.8804,98.9968 -22.267,105.659 "/>
    <polygon id="12345678910" class="fil16" points="80.7998,77.1735 183.867,48.6881 181.83,42.1431 "/>
    <polygon id="1234567891011" class="fil17" points="80.7998,77.1735 -22.267,105.659 -20.2302,112.204 "/>
    <polygon id="123456789101112" class="fil15" points="80.7998,77.1735 181.83,42.1431 179.378,35.742 "/>
    <polygon id="12345678910111213" class="fil18" points="80.7998,77.1735 -20.2302,112.204 -17.7782,118.605 "/>
    <polygon id="1234567891011121314" class="fil19" points="80.7998,77.1735 179.378,35.742 176.521,29.5113 "/>
    <polygon id="123456789101112131415" class="fil20" points="80.7998,77.1735 -17.7782,118.605 -14.9212,124.836 "/>
    <polygon id="12345678910111213141516" class="fil17" points="80.7998,77.1735 176.521,29.5113 173.27,23.4763 "/>
    <polygon id="1234567891011121314151617" class="fil21" points="80.7998,77.1735 -14.9212,124.836 -11.6708,130.871 "/>
    <polygon id="123456789101112131415161718" class="fil22" points="80.7998,77.1735 173.27,23.4763 169.64,17.662 "/>
    <polygon id="12345678910111213141516171819" class="fil23" points="80.7998,77.1735 -11.6708,130.871 -8.04037,136.685 "/>
    <polygon id="1234567891011121314151617181920" class="fil24" points="80.7998,77.1735 169.64,17.662 165.645,12.0922 "/>
    <polygon id="123456789101112131415161718192021" class="fil2" points="80.7998,77.1735 -8.04037,136.685 -4.04496,142.255 "/>
    <polygon id="12345678910111213141516171819202122" class="fil25" points="80.7998,77.1735 165.645,12.0922 161.301,6.78992 "/>
    <polygon id="1234567891011121314151617181920212223" class="fil26" points="80.7998,77.1735 -4.04496,142.255 0.299119,147.557 "/>
    <polygon id="123456789101112131415161718192021222324" class="fil27" points="80.7998,77.1735 161.301,6.78992 156.626,1.7769 "/>
    <polygon id="12345678910111213141516171819202122232425" class="fil28" points="80.7998,77.1735 0.299119,147.557 4.97405,152.57 "/>
    <polygon id="1234567891011121314151617181920212223242526" class="fil29" points="80.7998,77.1735 156.626,1.7769 151.639,-2.92642 "/>
    <polygon id="123456789101112131415161718192021222324252627" class="fil30" points="80.7998,77.1735 4.97405,152.57 9.96051,157.273 "/>
    <polygon id="12345678910111213141516171819202122232425262728" class="fil31" points="80.7998,77.1735 151.639,-2.92642 146.362,-7.3005 "/>
    <polygon id="1234567891011121314151617181920212223242526272829" class="fil32" points="80.7998,77.1735 9.96051,157.273 15.2381,161.647 "/>
    <polygon id="123456789101112131415161718192021222324252627282930" class="fil23" points="80.7998,77.1735 146.362,-7.3005 140.815,-11.3275 "/>
    <polygon id="12345678910111213141516171819202122232425262728293031" class="fil33" points="80.7998,77.1735 15.2381,161.647 20.785,165.674 "/>
    <polygon id="1234567891011121314151617181920212223242526272829303132" class="fil34" points="80.7998,77.1735 140.815,-11.3275 135.021,-14.9908 "/>
    <polygon id="123456789101112131415161718192021222324252627282930313233" class="fil35" points="80.7998,77.1735 20.785,165.674 26.5786,169.338 "/>
    <polygon id="12345678910111213141516171819202122232425262728293031323334" class="fil36" points="80.7998,77.1735 135.021,-14.9908 129.005,-18.2754 "/>
    <polygon id="1234567891011121314151617181920212223242526272829303132333435" class="fil37" points="80.7998,77.1735 26.5786,169.338 32.5951,172.622 "/>
    <polygon id="123456789101112131415161718192021222324252627282930313233343536" class="fil38" points="80.7998,77.1735 129.005,-18.2754 122.79,-21.1678 "/>
    <polygon id="12345678910111213141516171819202122232425262728293031323334353637" class="fil39" points="80.7998,77.1735 32.5951,172.622 38.8095,175.515 "/>
    <polygon id="1234567891011121314151617181920212223242526272829303132333435363738" class="fil40" points="80.7998,77.1735 122.79,-21.1678 116.403,-23.6561 "/>
    <polygon id="123456789101112131415161718192021222324252627282930313233343536373839" class="fil41" points="80.7998,77.1735 38.8095,175.515 45.1965,178.003 "/>
    <polygon id="12345678910111213141516171819202122232425262728293031323334353637383940" class="fil42" points="80.7998,77.1735 116.403,-23.6561 109.87,-25.73 "/>
    <polygon id="1234567891011121314151617181920212223242526272829303132333435363738394041" class="fil43" points="80.7998,77.1735 45.1965,178.003 51.7298,180.077 "/>
    <polygon id="123456789101112131415161718192021222324252627282930313233343536373839404142" class="fil44" points="80.7998,77.1735 109.87,-25.73 103.217,-27.3812 "/>
    <polygon id="12345678910111213141516171819202122232425262728293031323334353637383940414243" class="fil45" points="80.7998,77.1735 51.7298,180.077 58.3826,181.728 "/>
    <polygon id="1234567891011121314151617181920212223242526272829303132333435363738394041424344" class="fil46" points="80.7998,77.1735 103.217,-27.3812 96.4721,-28.6026 "/>
    <polygon id="123456789101112131415161718192021222324252627282930313233343536373839404142434445" class="fil47" points="80.7998,77.1735 58.3826,181.728 65.1276,182.95 "/>
    <polygon id="12345678910111213141516171819202122232425262728293031323334353637383940414243444546" class="fil48" points="80.7998,77.1735 96.4721,-28.6026 89.6628,-29.3894 "/>
    <polygon id="1234567891011121314151617181920212223242526272829303132333435363738394041424344454647" class="fil49" points="80.7998,77.1735 65.1276,182.95 71.9368,183.736 "/>
    <polygon id="123456789101112131415161718192021222324252627282930313233343536373839404142434445464748" class="fil50" points="80.7998,77.1735 89.6628,-29.3894 82.8171,-29.7383 "/>
    <polygon id="12345678910111213141516171819202122232425262728293031323334353637383940414243444546474849" class="fil51" points="80.7998,77.1735 71.9368,183.736 78.7825,184.085 "/>
    <polygon id="1234567891011121314151617181920212223242526272829303132333435363738394041424344454647484950" class="fil51" points="80.7998,77.1735 82.8171,-29.7383 75.9632,-29.6479 "/>
    <polygon id="123456789101112131415161718192021222324252627282930313233343536373839404142434445464748495051" class="fil50" points="80.7998,77.1735 78.7825,184.085 85.6365,183.995 "/>
    <polygon id="12345678910111213141516171819202122232425262728293031323334353637383940414243444546474849505152" class="fil49" points="80.7998,77.1735 75.9632,-29.6479 69.129,-29.1186 "/>
    <polygon id="1234567891011121314151617181920212223242526272829303132333435363738394041424344454647484950515253" class="fil48" points="80.7998,77.1735 85.6365,183.995 92.4706,183.466 "/>
    <polygon id="123456789101112131415161718192021222324252627282930313233343536373839404142434445464748495051525354" class="fil47" points="80.7998,77.1735 69.129,-29.1186 62.3429,-28.1523 "/>
    <polygon id="12345678910111213141516171819202122232425262728293031323334353637383940414243444546474849505152535455" class="fil46" points="80.7998,77.1735 92.4706,183.466 99.2568,182.499 "/>
    <polygon id="1234567891011121314151617181920212223242526272829303132333435363738394041424344454647484950515253545556" class="fil45" points="80.7998,77.1735 62.3429,-28.1523 55.6325,-26.7535 "/>
    <polygon id="123456789101112131415161718192021222324252627282930313233343536373839404142434445464748495051525354555657" class="fil44" points="80.7998,77.1735 99.2568,182.499 105.967,181.1 "/>
    <polygon id="12345678910111213141516171819202122232425262728293031323334353637383940414243444546474849505152535455565758" class="fil43" points="80.7998,77.1735 55.6325,-26.7535 49.0257,-24.9275 "/>
    <polygon id="1234567891011121314151617181920212223242526272829303132333435363738394041424344454647484950515253545556575859" class="fil42" points="80.7998,77.1735 105.967,181.1 112.574,179.274 "/>
    <polygon id="123456789101112131415161718192021222324252627282930313233343536373839404142434445464748495051525354555657585960" class="fil41" points="80.7998,77.1735 49.0257,-24.9275 42.5492,-22.6819 "/>
    <polygon id="12345678910111213141516171819202122232425262728293031323334353637383940414243444546474849505152535455565758596061" class="fil40" points="80.7998,77.1735 112.574,179.274 119.05,177.029 "/>
    <polygon id="1234567891011121314151617181920212223242526272829303132333435363738394041424344454647484950515253545556575859606162" class="fil39" points="80.7998,77.1735 42.5492,-22.6819 36.2301,-20.0259 "/>
    <polygon id="123456789101112131415161718192021222324252627282930313233343536373839404142434445464748495051525354555657585960616263" class="fil38" points="80.7998,77.1735 119.05,177.029 125.37,174.373 "/>
    <polygon id="12345678910111213141516171819202122232425262728293031323334353637383940414243444546474849505152535455565758596061626364" class="fil37" points="80.7998,77.1735 36.2301,-20.0259 30.0941,-16.9706 "/>
    <polygon id="1234567891011121314151617181920212223242526272829303132333435363738394041424344454647484950515253545556575859606162636465" class="fil36" points="80.7998,77.1735 125.37,174.373 131.506,171.318 "/>
    <polygon id="123456789101112131415161718192021222324252627282930313233343536373839404142434445464748495051525354555657585960616263646566" class="fil35" points="80.7998,77.1735 30.0941,-16.9706 24.1664,-13.5286 "/>
    <polygon id="12345678910111213141516171819202122232425262728293031323334353637383940414243444546474849505152535455565758596061626364656667" class="fil34" points="80.7998,77.1735 131.506,171.318 137.433,167.876 "/>
    <polygon id="1234567891011121314151617181920212223242526272829303132333435363738394041424344454647484950515253545556575859606162636465666768" class="fil33" points="80.7998,77.1735 24.1664,-13.5286 18.4715,-9.71364 "/>
    <polygon id="123456789101112131415161718192021222324252627282930313233343536373839404142434445464748495051525354555657585960616263646566676869" class="fil23" points="80.7998,77.1735 137.433,167.876 143.128,164.061 "/>
    <polygon id="12345678910111213141516171819202122232425262728293031323334353637383940414243444546474849505152535455565758596061626364656667686970" class="fil32" points="80.7998,77.1735 18.4715,-9.71364 13.0327,-5.54174 "/>
    <polygon id="1234567891011121314151617181920212223242526272829303132333435363738394041424344454647484950515253545556575859606162636465666768697071" class="fil31" points="80.7998,77.1735 143.128,164.061 148.567,159.889 "/>
    <polygon id="123456789101112131415161718192021222324252627282930313233343536373839404142434445464748495051525354555657585960616263646566676869707172" class="fil30" points="80.7998,77.1735 13.0327,-5.54174 7.87229,-1.02991 "/>
    <polygon id="12345678910111213141516171819202122232425262728293031323334353637383940414243444546474849505152535455565758596061626364656667686970717273" class="fil29" points="80.7998,77.1735 148.567,159.889 153.727,155.377 "/>
    <polygon id="1234567891011121314151617181920212223242526272829303132333435363738394041424344454647484950515253545556575859606162636465666768697071727374" class="fil28" points="80.7998,77.1735 7.87229,-1.02991 3.01159,3.80327 "/>
    <polygon id="123456789101112131415161718192021222324252627282930313233343536373839404142434445464748495051525354555657585960616263646566676869707172737475" class="fil27" points="80.7998,77.1735 153.727,155.377 158.588,150.544 "/>
    <polygon id="12345678910111213141516171819202122232425262728293031323334353637383940414243444546474849505152535455565758596061626364656667686970717273747576" class="fil26" points="80.7998,77.1735 3.01159,3.80327 -1.52938,8.93794 "/>
    <polygon id="1234567891011121314151617181920212223242526272829303132333435363738394041424344454647484950515253545556575859606162636465666768697071727374757677" class="fil25" points="80.7998,77.1735 158.588,150.544 163.129,145.409 "/>
    <polygon id="123456789101112131415161718192021222324252627282930313233343536373839404142434445464748495051525354555657585960616263646566676869707172737475767778" class="fil2" points="80.7998,77.1735 -1.52938,8.93794 -5.73215,14.3529 "/>
    <polygon id="12345678910111213141516171819202122232425262728293031323334353637383940414243444546474849505152535455565758596061626364656667686970717273747576777879" class="fil24" points="80.7998,77.1735 163.129,145.409 167.332,139.994 "/>
    <polygon id="1234567891011121314151617181920212223242526272829303132333435363738394041424344454647484950515253545556575859606162636465666768697071727374757677787980" class="fil23" points="80.7998,77.1735 -5.73215,14.3529 -9.57925,20.0262 "/>
    <polygon id="123456789101112131415161718192021222324252627282930313233343536373839404142434445464748495051525354555657585960616263646566676869707172737475767778798081" class="fil22" points="80.7998,77.1735 167.332,139.994 171.179,134.321 "/>
    <polygon id="12345678910111213141516171819202122232425262728293031323334353637383940414243444546474849505152535455565758596061626364656667686970717273747576777879808182" class="fil21" points="80.7998,77.1735 -9.57925,20.0262 -13.055,25.9342 "/>
    <polygon id="1234567891011121314151617181920212223242526272829303132333435363738394041424344454647484950515253545556575859606162636465666768697071727374757677787980818283" class="fil17" points="80.7998,77.1735 171.179,134.321 174.655,128.413 "/>
    <polygon id="123456789101112131415161718192021222324252627282930313233343536373839404142434445464748495051525354555657585960616263646566676869707172737475767778798081828384" class="fil20" points="80.7998,77.1735 -13.055,25.9342 -16.1451,32.0528 "/>
    <polygon id="12345678910111213141516171819202122232425262728293031323334353637383940414243444546474849505152535455565758596061626364656667686970717273747576777879808182838485" class="fil19" points="80.7998,77.1735 174.655,128.413 177.745,122.294 "/>
    <polygon id="1234567891011121314151617181920212223242526272829303132333435363738394041424344454647484950515253545556575859606162636465666768697071727374757677787980818283848586" class="fil18" points="80.7998,77.1735 -16.1451,32.0528 -18.8368,38.3567 "/>
    <polygon id="123456789101112131415161718192021222324252627282930313233343536373839404142434445464748495051525354555657585960616263646566676869707172737475767778798081828384858687" class="fil15" points="80.7998,77.1735 177.745,122.294 180.436,115.99 "/>
    <polygon id="12345678910111213141516171819202122232425262728293031323334353637383940414243444546474849505152535455565758596061626364656667686970717273747576777879808182838485868788" class="fil17" points="80.7998,77.1735 -18.8368,38.3567 -21.1191,44.8202 "/>
    <polygon id="1234567891011121314151617181920212223242526272829303132333435363738394041424344454647484950515253545556575859606162636465666768697071727374757677787980818283848586878889" class="fil16" points="80.7998,77.1735 180.436,115.99 182.719,109.527 "/>
    <polygon id="123456789101112131415161718192021222324252627282930313233343536373839404142434445464748495051525354555657585960616263646566676869707172737475767778798081828384858687888990" class="fil15" points="80.7998,77.1735 -21.1191,44.8202 -22.9826,51.4167 "/>
    <polygon id="12345678910111213141516171819202122232425262728293031323334353637383940414243444546474849505152535455565758596061626364656667686970717273747576777879808182838485868788899091" class="fil14" points="80.7998,77.1735 182.719,109.527 184.582,102.93 "/>
    <polygon id="1234567891011121314151617181920212223242526272829303132333435363738394041424344454647484950515253545556575859606162636465666768697071727374757677787980818283848586878889909192" class="fil13" points="80.7998,77.1735 -22.9826,51.4167 -24.4196,58.1189 "/>
    <polygon id="123456789101112131415161718192021222324252627282930313233343536373839404142434445464748495051525354555657585960616263646566676869707172737475767778798081828384858687888990919293" class="fil12" points="80.7998,77.1735 184.582,102.93 186.019,96.228 "/>
    <polygon id="12345678910111213141516171819202122232425262728293031323334353637383940414243444546474849505152535455565758596061626364656667686970717273747576777879808182838485868788899091929394" class="fil11" points="80.7998,77.1735 -24.4196,58.1189 -25.4242,64.8996 "/>
    <polygon id="1234567891011121314151617181920212223242526272829303132333435363738394041424344454647484950515253545556575859606162636465666768697071727374757677787980818283848586878889909192939495" class="fil10" points="80.7998,77.1735 186.019,96.228 187.024,89.4474 "/>
    <polygon id="123456789101112131415161718192021222324252627282930313233343536373839404142434445464748495051525354555657585960616263646566676869707172737475767778798081828384858687888990919293949596" class="fil9" points="80.7998,77.1735 -25.4242,64.8996 -25.9923,71.7306 "/>
    <polygon id="12345678910111213141516171819202122232425262728293031323334353637383940414243444546474849505152535455565758596061626364656667686970717273747576777879808182838485868788899091929394959697" class="fil8" points="80.7998,77.1735 187.024,89.4474 187.592,82.6163 "/>
   </g>
   <path id="1234567891011121314151617181920212223242526272829303132333435363738394041424344454647484950515253545556575859606162636465666768697071727374757677787980818283848586878889909192939495969798" class="fil4 str7" d="M85 0.269865c2.90753,0 5.77684,0.101901 8.59996,0.299442l-0.995371 11.3764 15.1286 2.0757 2.94391 -10.9869c5.89591,1.31424 11.4575,3.06794 16.5841,5.19825l-4.75006 10.1864 13.8056 7.15467 6.26368 -8.94549c5.07573,3.63174 9.28617,7.74783 12.4297,12.2231l-31.9708 31.9708 0.00172714 0.00118741c-11.5388,-2.56771 -24.4332,-4.00437 -38.041,-4.00437 -13.6084,0 -26.5034,1.43687 -38.0427,4.0048l0.00453374 -0.00194303 -31.9713 -31.9713c3.14361,-4.47523 7.35372,-8.59132 12.4291,-12.2233l6.26422 8.94603 13.8059 -7.15456 -4.7506 -10.1876c5.12658,-2.13053 10.6885,-3.88422 16.5844,-5.19847l2.94434 10.9884 15.1285 -2.07548 -0.995371 -11.3768c2.82268,-0.197541 5.69178,-0.299119 8.59888,-0.299119z"/>
  </g>
  <line class="fil4 str3" x1="17.5222" y1="31.3824" x2="29.5904" y2= "19.7275" />
  <line class="fil4 str3" x1="20.7325" y1="34.5926" x2="33.0612" y2= "24.6841" />
  <polyline class="fil4 str3" points="24.2632,38.1233 36.7109,29.8965 50.349,24.5504 64.2346,21.3611 78.0908,19.881 91.9104,19.8811 105.766,21.3613 119.652,24.5507 133.29,29.8968 145.738,38.124 "/>
  <polyline class="fil4 str3" points="28.1535,42.0137 40.5503,35.3797 53.4417,31.1828 66.207,28.7222 78.7654,27.591 91.2358,27.5911 103.794,28.7224 116.559,31.1831 129.45,35.38 141.847,42.0142 "/>
  <polyline class="fil4 str3" points="32.444,46.3041 44.5889,41.1474 56.6076,37.972 68.1951,36.1415 79.4405,35.3077 90.5607,35.3077 101.806,36.1417 113.393,37.9722 125.412,41.1477 137.557,46.3046 "/>
  <polyline class="fil4 str3" points="37.1734,51.0336 48.8338,47.2099 59.8463,44.9176 70.1982,43.6176 80.1161,43.0303 89.885,43.0303 99.8029,43.6177 110.155,44.9177 121.167,47.2101 132.827,51.034 "/>
  <polyline class="fil4 str3" points="42.3768,56.237 53.2895,53.5732 63.157,52.0173 72.2162,51.1485 80.9207,50.7563 89.3577,50.7624 97.7709,51.1477 106.844,52.0175 116.711,53.5734 127.624,56.2373 "/>
  <line class="fil4 str3" x1="44.3784" y1="11.7464" x2="60.3371" y2= "6.81507" />
  <line class="fil4 str3" x1="76.7434" y1="4.48084" x2="93.2577" y2= "4.48084" />
  <line class="fil4 str3" x1="109.664" y1="6.81529" x2="125.623" y2= "11.7467" />
  <line class="fil4 str3" x1="140.41" y1="19.7279" x2="152.478" y2= "31.3832" />
  <line class="fil4 str3" x1="47.3283" y1="18.0727" x2="62.268" y2= "14.0212" />
  <line class="fil4 str3" x1="77.4168" y1="12.1776" x2="92.5843" y2= "12.1776" />
  <line class="fil4 str3" x1="107.733" y1="14.0214" x2="122.673" y2= "18.073" />
  <line class="fil4 str3" x1="136.939" y1="24.6845" x2="149.268" y2= "34.5933" />
  <g>
   <line class="fil4 str3" x1="21.9665" y1="21.0192" x2="24.7254" y2= "24.426" />
   <line class="fil4 str3" x1="28.1383" y1="28.6407" x2="31.7893" y2= "33.1493" />
   <line class="fil4 str3" x1="35.6981" y1="37.9763" x2="39.8838" y2= "43.1453" />
   <line class="fil4 str3" x1="44.3626" y1="48.6761" x2="49.1471" y2= "54.5845" />
  </g>
  <line class="fil4 str3" x1="36.7109" y1="29.8965" x2="40.5503" y2= "35.3797" />
  <line class="fil4 str3" x1="44.5889" y1="41.1474" x2="48.8338" y2= "47.2099" />
  <line class="fil4 str3" x1="53.2895" y1="53.5732" x2="57.0389" y2= "58.9266" />
  <line class="fil4 str3" x1="41.9913" y1="21.2685" x2="44.9776" y2= "26.656" />
  <line class="fil4 str3" x1="48.3972" y1="32.8251" x2="51.9345" y2= "39.2067" />
  <line class="fil4 str3" x1="55.5911" y1="45.8034" x2="59.3668" y2= "52.615" />
  <line class="fil4 str3" x1="50.349" y1="24.5504" x2="53.4417" y2= "31.1828" />
  <line class="fil4 str3" x1="56.6076" y1="37.972" x2="59.8463" y2= "44.9176" />
  <line class="fil4 str3" x1="63.157" y1="52.0173" x2="65.8498" y2= "57.7907" />
  <line class="fil4 str3" x1="52.6007" y1="4.76247" x2="53.9835" y2= "8.77839" />
  <line class="fil4 str3" x1="56.3421" y1="15.6283" x2="58.7499" y2= "22.621" />
  <line class="fil4 str3" x1="61.1841" y1="29.6905" x2="63.6525" y2= "36.8592" />
  <line class="fil4 str3" x1="66.1543" y1="44.1255" x2="68.6891" y2= "51.4868" />
  <line class="fil4 str3" x1="64.2346" y1="21.3611" x2="66.207" y2= "28.7222" />
  <line class="fil4 str3" x1="68.1951" y1="36.1415" x2="70.1982" y2= "43.6176" />
  <line class="fil4 str3" x1="72.2162" y1="51.1485" x2="73.8237" y2= "57.1461" />
  <line class="fil4 str3" x1="71.3664" y1="12.773" x2="72.5853" y2= "20.4692" />
  <line class="fil4 str3" x1="73.7843" y1="28.0398" x2="74.9878" y2= "35.6379" />
  <line class="fil4 str3" x1="76.1954" y1="43.2625" x2="77.4073" y2= "50.9146" />
  <line class="fil4 str3" x1="78.0908" y1="19.881" x2="78.7654" y2= "27.591" />
  <line class="fil4 str3" x1="79.4405" y1="35.3077" x2="80.1161" y2= "43.0303" />
  <line class="fil4 str3" x1="80.9207" y1="50.7563" x2="81.3261" y2= "56.8542" />
  <line class="fil4 str3" x1="85.8407" y1="50.7599" x2="85.9756" y2= "43.0303" />
  <line class="fil4 str3" x1="86.1104" y1="35.3077" x2="86.2452" y2= "27.5911" />
  <line class="fil4 str3" x1="86.3798" y1="19.8811" x2="86.5142" y2= "12.1776" />
  <line class="fil4 str3" x1="86.6486" y1="4.48084" x2="86.7218" y2= "0.281847" />
  <line class="fil4 str3" x1="91.2358" y1="27.5911" x2="91.9104" y2= "19.8811" />
  <line class="fil4 str3" x1="89.885" y1="43.0303" x2="90.5607" y2= "35.3077" />
  <line class="fil4 str3" x1="88.6761" y1="56.8542" x2="89.3577" y2= "50.7624" />
  <line class="fil4 str3" x1="94.3064" y1="50.9891" x2="95.7854" y2= "43.3799" />
  <line class="fil4 str3" x1="97.258" y1="35.8044" x2="98.7234" y2= "28.2657" />
  <line class="fil4 str3" x1="100.181" y1="20.7647" x2="101.654" y2= "13.1875" />
  <line class="fil4 str3" x1="96.1784" y1="57.1462" x2="97.7854" y2= "51.1491" />
  <line class="fil4 str3" x1="99.8029" y1="43.6177" x2="101.806" y2= "36.1417" />
  <line class="fil4 str3" x1="103.794" y1="28.7224" x2="105.766" y2= "21.3613" />
  <line class="fil4 str3" x1="120.724" y1="5.80038" x2="119.203" y2= "9.76286" />
  <line class="fil4 str3" x1="116.641" y1="16.4372" x2="114.022" y2= "23.2577" />
  <line class="fil4 str3" x1="111.364" y1="30.1818" x2="108.661" y2= "37.2247" />
  <line class="fil4 str3" x1="105.912" y1="44.385" x2="103.152" y2= "51.5751" />
  <line class="fil4 str3" x1="104.152" y1="57.7909" x2="106.844" y2= "52.0175" />
  <line class="fil4 str3" x1="110.155" y1="44.9177" x2="113.393" y2= "37.9722" />
  <line class="fil4 str3" x1="116.559" y1="31.1831" x2="119.652" y2= "24.5507" />
  <line class="fil4 str3" x1="130.765" y1="22.6969" x2="127.745" y2= "27.7231" />
  <line class="fil4 str3" x1="124.176" y1="33.6629" x2="120.464" y2= "39.8404" />
  <line class="fil4 str3" x1="116.606" y1="46.2607" x2="112.602" y2= "52.9254" />
  <line class="fil4 str3" x1="112.963" y1="58.9269" x2="116.711" y2= "53.5734" />
  <line class="fil4 str3" x1="121.167" y1="47.2101" x2="125.412" y2= "41.1477" />
  <line class="fil4 str3" x1="129.45" y1="35.38" x2="133.29" y2= "29.8968" />
  <line class="fil4 str3" x1="123.028" y1="55.1154" x2="127.963" y2= "49.4388" />
  <line class="fil4 str3" x1="132.539" y1="44.174" x2="136.776" y2= "39.3004" />
  <line class="fil4 str3" x1="140.695" y1="34.7915" x2="144.157" y2= "30.4851" />
  <line class="fil4 str3" x1="147.684" y1="26.7525" x2="150.546" y2= "23.46" />
 </g>
</svg>
