<?xml version="1.0" encoding="UTF-8" standalone="no"?>
<svg
   xmlns:dc="http://purl.org/dc/elements/1.1/"
   xmlns:cc="http://creativecommons.org/ns#"
   xmlns:rdf="http://www.w3.org/1999/02/22-rdf-syntax-ns#"
   xmlns:svg="http://www.w3.org/2000/svg"
   xmlns="http://www.w3.org/2000/svg"
   xmlns:xlink="http://www.w3.org/1999/xlink"
   xmlns:sodipodi="http://sodipodi.sourceforge.net/DTD/sodipodi-0.dtd"
   xmlns:inkscape="http://www.inkscape.org/namespaces/inkscape"
   version="1.1"
   width="509.11279"
   height="728.22388"
   id="svg2"
   inkscape:version="0.91 r"
   viewBox="0 0 509.11279 728.22388"
   sodipodi:docname="Vorkuta COA.svg">
  <metadata
     id="metadata146">
    <rdf:RDF>
      <cc:Work
         rdf:about="">
        <dc:format>image/svg+xml</dc:format>
        <dc:type
           rdf:resource="http://purl.org/dc/dcmitype/StillImage" />
        <dc:title />
      </cc:Work>
    </rdf:RDF>
  </metadata>
  <defs
     id="defs144">
    <defs
       id="defs20">
      <linearGradient
         id="grad1">
        <stop
           id="stop23"
           stop-opacity="1"
           stop-color="#15109c"
           offset="0%" />
        <stop
           id="stop25"
           stop-opacity="1"
           stop-color="#9edbf4"
           offset="100%" />
      </linearGradient>
      <linearGradient
         gradientUnits="objectBoundingBox"
         y2="1"
         x2="0"
         y1="0"
         x1="0"
         id="grad2"
         xlink:href="#grad1" />
    </defs>
  </defs>
  <sodipodi:namedview
     pagecolor="#ffffff"
     bordercolor="#666666"
     borderopacity="1"
     objecttolerance="10"
     gridtolerance="10"
     guidetolerance="10"
     inkscape:pageopacity="0"
     inkscape:pageshadow="2"
     inkscape:window-width="1920"
     inkscape:window-height="1056"
     id="namedview142"
     showgrid="false"
     showguides="true"
     inkscape:guide-bbox="true"
     inkscape:object-nodes="true"
     inkscape:zoom="2"
     inkscape:cx="298.12218"
     inkscape:cy="90.084699"
     inkscape:window-x="0"
     inkscape:window-y="24"
     inkscape:window-maximized="1"
     inkscape:current-layer="svg2"
     fit-margin-top="0"
     fit-margin-left="0"
     fit-margin-right="0"
     fit-margin-bottom="0" />
  <path
     id="path3728"
     style="fill:#ffffff;stroke:#085a8c;stroke-width:5.66930008;stroke-linecap:butt;stroke-linejoin:round;stroke-dasharray:none;stroke-opacity:1"
     d="m 2.83465,2.83465 503.4435,0 0,598.74901 c 0,34.90616 -14.06653,69.67283 -43.9934,71.48199 l -105.39038,0 c -42.55157,0 -80.7538,21.52242 -97.96267,52.3236 l -8.7506,0 0,0 c -26.18423,-41.1554 -53.33147,-52.3236 -97.96267,-52.3236 l -105.39038,0 0,0 C 4.2821672,664.0366 2.83465,637.52471 2.83465,601.58366 Z"
     inkscape:connector-curvature="0"
     sodipodi:nodetypes="ccscscccsccsc" />
  <path
     inkscape:connector-curvature="0"
     id="path18"
     style="fill:#085a8c;fill-opacity:1;fill-rule:evenodd"
     d="m 112.33349,586.93775 c 19.6182,13.3978 39.2362,26.7955 58.8542,40.1931 6.2201,-4.3064 12.4405,-8.6127 18.6607,-12.9192 21.8506,14.5139 43.702,29.0283 65.553,43.5425 22.1697,-14.6736 44.3398,-29.3473 66.5098,-44.021 7.1774,4.3064 14.3547,8.6128 21.532,12.9192 19.937,-13.3977 39.8739,-26.7955 59.8111,-40.193 -14.195,-2e-4 -28.39,0 -42.5855,-10e-5 -6.3796,3.9871 -12.7596,7.9747 -19.1396,11.9623 -6.6986,-4.1469 -13.3975,-8.2938 -20.0963,-12.4409 -5.5028,3.5888 -11.0053,7.1775 -16.5079,10.7661 -5.9011,-3.8279 -11.8026,-7.6556 -17.704,-11.4836 -6.0608,4.3064 -12.1216,8.6126 -18.1826,12.9193 5.0239,3.7481 10.048,7.496 15.0722,11.2444 -4.0671,2.8707 -8.134,5.7417 -12.2013,8.6127 -5.4228,-3.6683 -10.8457,-7.3368 -16.2687,-11.0053 -5.2633,3.1898 -10.5267,6.3798 -15.7901,9.5698 -3.5086,-2.3923 -7.0176,-4.785 -10.5266,-7.1772 5.1834,-3.6686 10.367,-7.3367 15.5508,-11.0053 -5.8215,-3.9077 -11.6429,-7.815 -17.4649,-11.7231 -5.4226,3.6683 -10.8455,7.3367 -16.2686,11.0053 -5.981,-3.9074 -11.9622,-7.815 -17.9433,-11.7228 -6.6988,4.7048 -13.3976,9.41 -20.0964,14.1153 -7.7353,-4.6253 -15.471,-9.2505 -23.2068,-13.8762 -12.5203,0.2391 -25.0405,0.4786 -37.5612,0.7177 z"
     sodipodi:nodetypes="ccccccccccccccccccccccccc" />
  <path
     inkscape:connector-curvature="0"
     id="path28"
     style="fill:#085a8c;fill-opacity:1"
     d="m 29.63875,113.98595 0,424.2759 447.1186,0 0,-424.2759 -447.1186,0 z" />
  <path
     inkscape:connector-curvature="0"
     id="path30"
     style="fill:#e30325;fill-rule:evenodd;stroke:#ffffff;stroke-width:2"
     d="m 405.86445,246.13455 4.7411,14.7779 15.4337,-0.0298 -12.5036,9.1034 4.7975,14.7594 -12.4687,-9.1516 -12.4687,9.1516 4.7975,-14.7594 -12.5036,-9.1034 15.4337,0.0298 4.7411,-14.7779 z" />
  <path
     inkscape:connector-curvature="0"
     id="path32"
     style="fill:none;stroke:#000000;stroke-width:0.2;stroke-dasharray:none"
     d="m 254.49195,524.25585 c 2.791,-0.0798 5.5822,-0.1595 8.3735,-0.2393" />
  <path
     inkscape:connector-curvature="0"
     id="path34"
     style="fill:#ffffff;fill-rule:evenodd"
     d="m 262.86545,524.01655 c -1.9142,-11.6429 -3.8281,-23.2861 -5.7418,-34.9294 -0.877,11.7228 -1.7543,23.4457 -2.6318,35.1686" />
  <path
     inkscape:connector-curvature="0"
     id="path36"
     style="fill:#73738c;fill-opacity:1;fill-rule:evenodd;stroke:#ffffff;stroke-width:8.50389957;stroke-linecap:butt;stroke-linejoin:miter;stroke-dasharray:none"
     d="m 373.10225,511.17055 c 0,-1.1962 0,-2.3925 0,-3.5887 0,-64.277 0,-128.554 0,-192.8307 12.9192,0 25.8384,0 38.7576,0 0,28.7093 0,57.4186 0,86.1279 3.9875,2.552 7.975,5.104 11.9622,7.6558 0,34.1322 0,68.2645 0,102.3964 -16.9064,0.0797 -33.8131,0.1594 -50.7198,0.2393 z" />
  <g
     id="g38"
     transform="translate(-36.51365,-62.39705)">
    <path
       inkscape:connector-curvature="0"
       id="path40"
       style="fill:#000200;fill-rule:evenodd;stroke:#ffffff;stroke-width:8.50389957;stroke-linecap:butt;stroke-linejoin:miter;stroke-dasharray:none"
       d="m 292.7027,455.6818 99.9522,80.8884 99.9522,80.8885 -199.9044,0 -199.9044,0 99.9522,-80.8885 99.9522,-80.8884 z" />
    <path
       inkscape:connector-curvature="0"
       id="path42"
       style="fill:#ffffff;fill-rule:evenodd"
       d="m 380.2436,590.9593 c 4.1466,0.1592 8.2935,0.3187 12.4406,0.4785 -8.2935,-13.637 -16.5873,-27.2739 -24.8814,-40.9108 4.1469,13.4774 8.2936,26.9545 12.4408,40.4323 z" />
    <path
       inkscape:connector-curvature="0"
       id="path44"
       style="fill:#ffffff;fill-rule:evenodd"
       d="m 333.8303,599.5721 c 3.429,-0.0798 6.858,-0.1595 10.2872,-0.2393 -6.3,-22.0105 -12.6001,-44.0208 -18.8999,-66.0313 8.6127,66.2706 11.4835,88.3606 8.6127,66.2706 z" />
    <path
       inkscape:connector-curvature="0"
       id="path46"
       style="fill:#ffffff;fill-rule:evenodd"
       d="m 316.6047,579.4756 c 2.6317,0 5.2634,0 7.895,0 -1.7543,-16.3483 -3.5087,-32.6965 -5.2633,-49.0451 -0.8771,16.3483 -1.7544,32.6965 -2.6317,49.0451 z" />
    <path
       inkscape:connector-curvature="0"
       id="path48"
       style="fill:#ffffff;fill-rule:evenodd"
       d="m 301.0538,556.7474 c 2.3925,0 4.7849,0 7.1773,0 -1.9936,-9.8887 -3.9872,-19.7774 -5.9811,-29.6663 -0.3985,9.8887 -0.7973,19.7773 -1.1962,29.6663 z" />
    <path
       inkscape:connector-curvature="0"
       id="path50"
       style="fill:#ffffff;fill-rule:evenodd"
       d="m 226.6489,601.2468 c 4.7851,-0.0798 9.5699,-0.1595 14.3549,-0.2393 7.0973,-15.6305 14.1949,-31.261 21.2924,-46.8917 -2.4719,-0.2392 -4.9441,-0.4787 -7.4165,-0.7179 5.5026,-14.4341 11.0053,-28.8686 16.5079,-43.3031 -11.9623,19.2988 -23.9246,38.5978 -35.8866,57.8971 0.7898,0.7282 1.5799,1.4564 2.37,2.1849 2.2237,0.0301 4.4477,0.06 6.6718,0.0901 -5.9647,10.3265 -11.9293,20.6533 -17.8939,30.9799 z" />
    <path
       inkscape:connector-curvature="0"
       id="path52"
       style="fill:#ffffff;fill-rule:evenodd"
       d="m 141.478,612.4912 c 25.1207,-21.2927 50.2413,-42.5854 75.3619,-63.8782 -10.0484,22.9674 -20.0964,45.9349 -30.1449,68.9023 -2.7908,0.0795 -5.5821,0.1595 -8.3734,0.2394 9.2507,-17.8634 18.5014,-35.727 27.7524,-53.5906 -11.643,17.4646 -23.2865,34.9295 -34.9297,52.3943 -2.6317,-10e-5 -5.2633,-10e-5 -7.8952,0 10.7661,-14.3545 21.5319,-28.7093 32.298,-43.0639 -15.8697,14.5937 -31.7394,29.1879 -47.6095,43.7816 -3.4291,-1e-4 -6.858,10e-5 -10.2875,0 1.2759,-1.5946 2.5518,-3.1896 3.8279,-4.7849 z" />
  </g>
  <path
     inkscape:connector-curvature="0"
     id="path54"
     style="fill:#1b1918;fill-rule:evenodd;stroke:#ffffff;stroke-width:2.83459997;stroke-linecap:butt;stroke-linejoin:miter;stroke-dasharray:none"
     d="m 377.64795,360.44675 c 10.2072,-7.7355 20.4152,-15.4709 30.6232,-23.2067 1e-4,3.2696 0,6.5393 -10e-5,9.809 -10.2074,7.7356 -20.4154,15.471 -30.6232,23.2066 10e-5,-3.2693 0,-6.5392 10e-5,-9.8089 z" />
  <path
     inkscape:connector-curvature="0"
     id="path56"
     style="fill:#73738c;fill-rule:evenodd;stroke:#ffffff;stroke-width:2.83459997;stroke-linecap:butt;stroke-linejoin:miter;stroke-dasharray:none;fill-opacity:1"
     d="m 383.07655,317.98085 c 7.9796,0 15.9592,1e-4 23.9385,0 -0.0327,5.0242 -0.0657,10.0483 -0.0985,15.0724 -7.881,-4.1375 -15.762,-8.2751 -23.6429,-12.4125 -1.3146,-0.8301 -2.6289,-1.6602 -3.9437,-2.4905 1.249,-0.0564 2.4978,-0.1129 3.7466,-0.1694 z" />
  <path
     inkscape:connector-curvature="0"
     id="path58"
     style="fill:none;stroke:#ffffff;stroke-width:2.83459997;stroke-linecap:butt;stroke-linejoin:miter;stroke-dasharray:none"
     d="m 375.37515,335.44575 c 2.6316,0 5.2633,0 7.895,0 0,2.5917 0,5.1834 0,7.7754 2.791,0 5.5823,0 8.3736,0 0,-2.6316 0,-5.2633 0,-7.895 6.26,0 12.5203,0 18.7806,0" />
  <path
     inkscape:connector-curvature="0"
     id="path60"
     style="fill:#ffffff;fill-rule:evenodd"
     d="m 410.42435,331.44835 0,8.8543 -9.0845,0 0,-8.8543 9.0845,0 z" />
  <path
     inkscape:connector-curvature="0"
     id="path62"
     style="fill:none;stroke:#ffffff;stroke-width:2.83459997;stroke-linecap:butt;stroke-linejoin:miter;stroke-dasharray:none"
     d="m 375.01625,383.53325 c 3.3493,1.5149 6.6988,3.0301 10.0481,4.5456" />
  <path
     inkscape:connector-curvature="0"
     id="path64"
     style="fill:none;stroke:#ffffff;stroke-width:2.83459997;stroke-linecap:butt;stroke-linejoin:miter;stroke-dasharray:none"
     d="m 385.06445,388.07885 c 0,-1.9139 0,-3.8279 0,-5.7418 2.791,0.957 5.5823,1.9139 8.3736,2.8709 0.0796,1.6747 0.1593,3.3494 0.2392,5.0241 5.5026,2.2329 11.0053,4.4657 16.5079,6.6989" />
  <path
     inkscape:connector-curvature="0"
     id="path66"
     style="fill:#ffffff;fill-rule:evenodd"
     d="m 411.97945,404.34765 c -10.0484,-3.4296 -20.0965,-6.8584 -30.1447,-10.2876 -0.04,1.1166 -0.08,2.2332 -0.1197,3.3493 -1.7945,-0.7978 -3.5888,-1.5953 -5.383,-2.3924 0.0398,1.515 0.0795,3.0303 0.1196,4.5455 2.3524,0.4784 4.705,0.957 7.0577,1.4356 0.2789,-1.3554 0.5582,-2.7112 0.8373,-4.0671 10.128,3.3892 20.2558,6.7784 30.3841,10.1678 -0.9171,-0.9169 -1.8341,-1.8339 -2.7513,-2.7511 z" />
  <path
     inkscape:connector-curvature="0"
     id="path68"
     style="fill:none;stroke:#ffffff;stroke-width:2.83459997;stroke-linecap:butt;stroke-linejoin:round;stroke-dasharray:none"
     d="m 365.69305,291.04215 a 10.1679,10.0483 0 0 1 10.1679,10.0483 10.1679,10.0483 0 1 1 -10.1679,-10.0483 z" />
  <path
     inkscape:connector-curvature="0"
     id="path70"
     style="fill:#ffffff;fill-rule:evenodd"
     d="m 350.33045,310.44475 c 13.7166,0 27.4331,0 41.15,0 0,3.3494 0,6.6988 0,10.0482 -13.7962,0 -27.5927,0 -41.3892,0 0.0796,-3.3494 0.1593,-6.6988 0.2392,-10.0482 z" />
  <path
     inkscape:connector-curvature="0"
     id="path72"
     style="fill:#ffffff;fill-rule:evenodd"
     d="m 345.78475,380.54315 c 9.0913,-20.0167 18.1827,-40.0336 27.2738,-60.0501 -6.9381,-10e-5 -13.876,0 -20.8142,1e-4 -10.5269,14.6738 -21.0536,29.3474 -31.5802,44.0208 8.3737,5.3429 16.747,10.686 25.1206,16.0292 z" />
  <path
     inkscape:connector-curvature="0"
     id="path74"
     style="fill:#1b1918;fill-rule:evenodd"
     d="m 345.42595,345.49405 c 5.4225,-7.5363 10.8453,-15.0723 16.2685,-22.6084 -3.1898,7.7354 -6.3796,15.4709 -9.5698,23.2065 -2.233,-0.1995 -4.4659,-0.3985 -6.6987,-0.5981 z" />
  <path
     inkscape:connector-curvature="0"
     id="path76"
     style="fill:#1b1918;fill-rule:evenodd"
     d="m 342.31575,352.07325 c 2.2728,0.0396 4.5455,0.0794 6.8183,0.1196 -1.1163,2.5918 -2.2326,5.1833 -3.3492,7.7754 -1.1564,-2.6317 -2.3126,-5.2633 -3.4691,-7.895 z" />
  <path
     inkscape:connector-curvature="0"
     id="path78"
     style="fill:#000000;fill-rule:evenodd"
     d="m 343.49245,347.77875 c -1.0767,1.8005 -1.4357,2.4006 -1.0772,1.8003 2.5331,0.04 5.066,0.0799 7.5994,0.1201 0.2791,-0.52 0.5584,-1.0404 0.8375,-1.5604 -2.4529,-0.12 -4.9063,-0.2398 -7.3597,-0.36 z" />
  <path
     inkscape:connector-curvature="0"
     id="path80"
     style="fill:#1b1918;fill-rule:evenodd;stroke:#000000;stroke-width:0.2;stroke-dasharray:none"
     d="m 338.46605,354.62015 c 1.775,3.2203 3.55,6.4406 5.3253,9.6614 -0.5585,1.1601 -1.1168,2.3204 -1.6754,3.4809 -1.6354,-3.6006 -3.2708,-7.2012 -4.9067,-10.8021 0.4187,-0.7801 0.8378,-1.56 1.2568,-2.3402 z" />
  <path
     inkscape:connector-curvature="0"
     id="path82"
     style="fill:#1b1918;fill-rule:evenodd;stroke:#000000;stroke-width:0.2;stroke-dasharray:none"
     d="m 331.88375,364.22165 c 2.6326,1.6798 5.2655,3.3604 7.8985,5.0407 -1.3563,-3.6203 -2.7127,-7.2409 -4.069,-10.8616 -1.2763,1.9402 -2.5529,3.8806 -3.8295,5.8209 z" />
  <path
     inkscape:connector-curvature="0"
     id="path84"
     style="fill:#ffffff;fill-rule:evenodd"
     d="m 347.81835,284.48675 c 17.983,0 35.9663,0 53.9496,0 -0.0397,9.3702 -0.0797,18.7407 -0.1196,28.1112 -3.3891,0.0796 -6.7785,0.1593 -10.1679,0.2392 -0.0397,-6.9777 -0.0797,-13.9558 -0.1196,-20.9338 -14.6336,0 -29.2675,0 -43.9013,0 0.1196,-2.4721 0.2392,-4.9442 0.3588,-7.4166 z" />
  <path
     inkscape:connector-curvature="0"
     id="path86"
     style="fill:#ffffff;fill-rule:evenodd"
     d="m 372.56085,456.91285 c 16.1298,-9.5699 32.2598,-19.1396 48.3902,-28.7093 10e-5,7.3368 10e-5,14.6735 0,22.0106 -14.4989,7.0179 -28.9976,14.0356 -43.4968,21.0535 -1.6311,-4.7848 -3.2621,-9.5697 -4.8934,-14.3548 z" />
  <path
     inkscape:connector-curvature="0"
     id="path88"
     style="fill:none;stroke:#868789;stroke-width:2.83459997;stroke-linecap:butt;stroke-linejoin:round;stroke-dasharray:none"
     d="m 66.14215,415.47685 c 10.447,10.4469 20.8941,20.8941 31.3412,31.3412 -0.1992,3.3096 -0.3987,6.6191 -0.5983,9.9284 -5.383,-2.352 -11.4836,-4.9441 -18.3022,-7.7755 -1.1162,-1.4353 -2.8709,-4.3064 -5.2633,-8.6127 -2.1132,-1.475 -4.2265,-2.9505 -6.3399,-4.4261 -0.0796,-2.6713 -0.1596,-5.3429 -0.2395,-8.0146 -0.1995,-4.1469 -0.3987,-8.2936 -0.598,-12.4407 z" />
  <path
     inkscape:connector-curvature="0"
     id="path90"
     style="fill:none;stroke:#868789;stroke-width:2.83459997;stroke-linecap:butt;stroke-linejoin:round;stroke-dasharray:none"
     d="m 100.35405,449.21025 c 0.1197,2.5124 0.2393,5.0244 0.3589,7.5365 4.8646,2.8707 9.7292,5.7417 14.594,8.6126 1.4752,-3.5089 2.9504,-7.0177 4.4259,-10.5269 -6.938,1.396 -13.3977,-0.4784 -19.3788,-5.6222 z" />
  <path
     inkscape:connector-curvature="0"
     id="path92"
     style="fill:none;stroke:#868789;stroke-width:2.83459997;stroke-linecap:butt;stroke-linejoin:round;stroke-dasharray:none"
     d="m 450.36825,548.73585 c 4.5852,2.0334 9.1707,4.067 13.7564,6.1007 4.2669,-11.9623 3.1903,-22.3297 -3.2297,-31.1017 -4.7449,0.2788 -9.4898,0.5582 -14.2351,0.8374 2.4325,5.5025 3.6687,13.5571 3.7084,24.1636 z" />
  <path
     inkscape:connector-curvature="0"
     id="path94"
     style="fill:none;stroke:#868789;stroke-width:2.83459997;stroke-linecap:butt;stroke-linejoin:round;stroke-dasharray:none"
     d="m 441.63575,523.85445 c 10.9251,-2.4723 17.8633,-3.509 20.8142,-3.1102 -2.3126,-4.3861 -4.6251,-8.7722 -6.938,-13.1583 -2.5119,0.1593 -3.9872,0.7973 -4.4259,1.9139 -4.3862,3.2696 -7.4965,4.7847 -9.3307,4.5455 -0.0397,3.2696 -0.0796,6.5392 -0.1196,9.8091 z" />
  <path
     inkscape:connector-curvature="0"
     id="path96"
     style="fill:none;stroke:#868789;stroke-width:2.83459997;stroke-linecap:butt;stroke-linejoin:round;stroke-dasharray:none"
     d="m 412.20875,505.79155 c 6.42,10.9654 12.2814,15.1521 17.5843,12.5601 2.153,-1.515 4.3063,-3.0299 6.4596,-4.5455 -1.6745,-2.0732 -3.3494,-4.1467 -5.024,-6.2203 -5.9407,2.9904 -12.281,2.3925 -19.0199,-1.7943 z" />
  <path
     inkscape:connector-curvature="0"
     id="path98"
     style="fill:none;stroke:#868789;stroke-width:2.83459997;stroke-linecap:butt;stroke-linejoin:round;stroke-dasharray:none"
     d="m 441.75525,514.04545 c -1.8285,-0.96 -3.3955,-1.1729 -4.7005,-0.6395 -0.2673,0.1333 -0.5347,0.2668 -0.8023,0.4004" />
  <path
     inkscape:connector-curvature="0"
     id="path100"
     style="fill:#ffffff;fill-rule:evenodd"
     d="m 434.21755,503.48975 c 2.7112,5.8214 5.7419,8.2934 9.0912,7.4165 3.7881,-2.8708 7.5759,-5.7418 11.364,-8.6126 7.5364,6.7784 12.6005,12.7596 15.1922,17.9432 0.0797,18.1027 -1.2762,30.6231 -4.0672,37.5614 -5.5823,1.1163 -20.4156,-5.4229 -44.4995,-19.6181 -9.2504,0.6379 -17.5445,-6.6987 -24.8815,-22.0104 -15.7098,-17.5446 -42.4253,-36.6844 -80.1464,-57.4186 -9.1708,-5.9812 -18.3422,-11.9622 -27.5132,-17.9432 -4.7848,0.1196 -9.5696,0.2391 -14.3547,0.3589 -3.0702,-3.7082 -6.1404,-7.4165 -9.2109,-11.1249 -36.7238,-1.276 -70.3376,-5.423 -100.8413,-12.4407 -1.5889,1.2799 -3.178,2.5601 -4.767,3.8402 -1.2365,-1.4403 -2.4732,-2.8805 -3.71,-4.3208 -1.0172,0.6002 -2.0346,1.2002 -3.052,1.8003 -0.1194,-1.6801 -0.2389,-3.3605 -0.3588,-5.0408 -3.511,0.34 -6.8617,2.4007 -10.053,6.1808 -3.1335,-2.8931 -6.2669,-5.7866 -9.4003,-8.6801 -23.8847,-5.0637 -41.15,-9.0913 -51.7962,-12.0819 6.8978,7.6958 16.1091,15.7901 27.6326,24.2833 3.9237,3.4204 6.2162,6.3475 6.8763,8.7813 0.2611,1.2271 1.1991,1.37 2.8132,0.4296 2.3521,-3.1101 5.7418,-5.2634 10.1677,-6.4596 0.3031,-0.0509 2.7978,2.6789 7.4836,8.1902 4.6027,-2.0124 9.206,-4.0247 13.8093,-6.0369 6.18,4.3859 9.729,8.2934 10.6462,11.7228 6.4994,6.4201 9.7292,14.1955 9.6894,23.3262 -15.7101,-3.2692 -31.4206,-6.5391 -47.131,-9.8089 -0.6372,0.4605 -0.557,1.4406 0.2407,2.9408 1.8944,7.9213 1.8347,13.0421 -0.1795,15.3626 -8.7537,-5.1445 -16.0311,-8.4547 -21.8326,-9.9298 -5.1438,-3.8279 -13.0785,-7.4965 -23.8046,-11.0052 -1.3158,-0.5979 -2.8709,-2.3926 -4.6653,-5.383 -0.5581,-2.5913 -3.19,-5.2633 -7.895,-8.0148 -0.3188,-6.3796 -1.5947,-14.9926 -3.828,-25.8384 -2.4721,-3.2692 -9.0912,-8.9317 -19.8573,-16.9862 -5.8213,-8.0941 -4.7849,-16.9063 3.1101,-26.4365 2.5916,-2.1531 5.2636,-3.5091 8.0148,-4.0672 -1.5549,-4.0671 -0.957,-7.1771 1.7944,-9.3305 3.4687,-5.9812 7.9747,-7.6558 13.5172,-5.0242 14.4744,3.7881 28.9486,7.5761 43.423,11.3642 -1.5554,-3.1101 -2.7118,-6.6988 -3.4692,-10.7659 -3.8279,-2.2328 -7.4962,-3.5089 -11.0053,-3.828 -1.0765,-2.193 0,-6.5395 3.23,-13.0387 1.7942,-3.8675 3.5885,-7.7356 5.3829,-11.6033 0.4516,-1.0393 -0.8071,-1.4658 -3.7768,-1.2794 -0.5185,-0.9805 0.0797,-2.2408 1.7954,-3.7806 2.8519,-5.2214 4.3881,-8.0018 4.6073,-8.3414 -3.3837,0.163 -4.6178,-0.6331 -3.7026,-2.3887 1.7546,-1.5552 4.6257,-7.1774 8.613,-16.8667 0.6945,-1.2088 -0.1643,-2.4117 -2.5767,-3.6089 -0.2989,-1.12 0.5589,-2.0002 2.5731,-2.6405 1.516,-0.8199 4.6276,-5.0408 9.3348,-12.662 0.3414,-1.0517 0.0831,-1.5624 -0.7753,-1.5317 -8.5197,-3.7691 -15.0029,-10.9201 -19.4498,-21.4524 -3.4708,-8.9616 -7.6595,-13.2025 -12.5663,-12.7222 -4.109,0.4396 -6.0637,-0.7204 -5.8641,-3.4808 -0.479,-5.3411 0.2392,-9.5219 2.1544,-12.5422 -1.2166,-0.1405 -2.4732,-0.8005 -3.7699,-1.9805 -0.6783,-1.0202 -0.3992,-2.5605 0.8377,-4.6207 -1.1566,-9.2818 0.6384,-14.1623 5.3854,-14.6427 10.4413,-1.3012 16.8461,-1.2563 19.214,0.1343 12.7197,4.3862 28.7093,11.6434 47.9684,21.7713 1.3236,-1.184 1.42,-2.2456 0.2872,-3.1844 -12.409,-8.7378 -20.7986,-17.7644 -25.1686,-27.0798 -4.4032,-7.4241 -5.1797,-12.0593 -2.329,-13.9052 0.7178,-0.28 1.4357,-0.2402 2.1542,0.1199 1.2162,-1.16 2.4732,-1.1998 3.7696,-0.1199 5.7443,6.081 10.2122,11.8418 13.4041,17.283 0.6974,0.5397 1.4356,0.2398 2.2138,-0.9003 1.7351,-1.9 2.952,-6.8808 3.6502,-14.9425 1.1766,-2.7405 2.3934,-3.9208 3.6502,-3.5408 2.2931,-0.0199 4.3081,1.7603 6.0435,5.341 1.6152,19.6363 3.8019,30.6478 6.5597,33.034 8.7722,10.9254 21.6916,13.3977 38.7576,7.4166 16.3084,-4.1869 26.4763,-8.4534 30.5037,-12.7997 1.6344,-2.3125 1.1163,-5.2634 -1.5552,-8.8519 -0.9841,-2.696 -1.7641,-5.2214 -2.3401,-7.5768 -3.9691,-6.5413 -5.1863,-12.1623 -3.6503,-16.8631 4.4083,-4.2207 8.8563,-3.6009 13.3439,1.8605 4.9867,14.1419 10.2125,19.763 15.6779,16.8626 9.3066,-3.7735 15.2268,-9.9226 17.7598,-18.4468 0.3711,-1.9369 -1.1009,-5.089 -4.4161,-9.458 -7.4993,-6.4409 -9.973,-11.2019 -7.4199,-14.2827 4.4477,-5.661 8.3772,-5.1208 11.7882,1.6205 3.4111,7.0409 6.3032,8.9613 8.6764,5.7612 2.952,-2.581 2.633,-5.7616 -0.9575,-9.542 -3.8829,-3.6457 -4.4865,-7.2538 -1.8096,-10.823 3.3494,-1.9937 6.0608,-1.9142 8.1344,0.2391 3.2496,3.7624 5.5295,8.0309 6.8395,12.8043 2.015,5.661 4.229,7.2812 6.6424,4.8609 5.2659,-7.5213 9.0153,-10.1618 11.2494,-7.9215 4.5878,2.3804 3.5107,7.5217 -3.2313,15.4229 -5.7897,6.8123 -10.9628,11.7414 -15.5191,14.7871 -6.6987,5.5027 -10.3673,12.7599 -11.0051,21.7712 -0.5977,5.0242 -1.5948,8.4537 -2.9907,10.2876 -3.9872,-0.877 -7.0179,-2.0731 -9.0913,-3.5886 -5.9011,-0.2394 -7.8153,-0.319 -5.7417,-0.2393 -7.0176,2.3924 -16.1092,8.1343 -27.2738,17.2257 -10.6464,7.3361 -20.575,11.8022 -29.7859,13.3974 -1.5947,0.3987 -1.5947,1.1168 1e-4,2.1533 13.118,11.7229 27.4329,16.5878 42.9442,14.5941 14.4344,-6.5795 22.4889,-7.4967 24.1636,-2.7514 1.7543,2.7909 -1.4356,6.8584 -9.5697,12.2015 -0.5183,2.8707 0.6381,4.147 3.4691,3.8277 18.6213,0.2789 29.5067,-5.104 32.6567,-16.1487 0.8771,-2.8312 -10e-5,-9.4106 -2.6315,-19.7379 0.2391,-7.2173 2.8708,-11.0051 7.8948,-11.3641 3.828,0.2789 5.9014,3.828 6.2204,10.6464 1.1961,6.6189 2.3925,8.7726 3.5887,6.4596 1.1962,-2.3125 1.7543,-7.3365 1.6749,-15.0723 2.193,-5.9013 4.7848,-7.1774 7.7753,-3.828 1.9936,2.3522 3.1899,4.6253 3.5887,6.8185 1.5549,0.1594 2.0736,-1.2759 1.555,-4.3066 -4.8246,-14.3545 -4.4657,-21.691 1.0766,-22.0102 5.9811,-1.6748 9.5696,0.6381 10.766,6.9379 -0.7973,6.579 0.7975,9.8888 4.785,9.9287 12.2412,-7.536 19.2989,-9.5698 21.1729,-6.1006 3.3894,5.7417 -3.03,14.3546 -19.259,25.8383 -2.7115,11.2444 -8.932,15.9498 -18.6613,14.1154 -8.732,4.0671 -16.2683,12.7598 -22.6083,26.0776 1.6351,6.4993 -0.1595,9.8888 -5.3832,10.1679 -7.177,-4.7849 -12.2814,-5.2633 -15.3116,-1.4355 -2.8707,2.0334 -8.932,1.9139 -18.1825,-0.3588 -2.1129,4.9043 -6.5393,4.9442 -13.2779,0.1197 -7.7354,-8.6529 -21.3725,-15.4714 -40.9109,-20.4556 -9.0112,-2.9504 -16.1089,-7.8151 -21.2927,-14.5938 -5.024,-4.0671 -11.6429,-9.729 -19.8573,-16.9862 -4.1468,-2.5123 -7.3364,-2.3926 -9.5696,0.3588 9.8088,3.4686 14.8329,6.5392 15.0723,9.2108 0.199,10.0484 -2.0735,14.674 -6.8186,13.8762 -0.4782,2.2329 7.9751,14.6738 25.3599,37.3221 5.0242,7.0175 6.6989,12.7597 5.0242,17.2255 3.7083,0.1992 7.4164,0.3987 11.1248,0.5982 1.7144,3.429 4.147,6.061 7.2971,7.8951 3.4686,3.5884 10.8455,9.2508 22.13,16.9863 17.4251,9.5294 37.4815,16.7467 60.1701,21.6515 16.6673,3.748 28.7092,10.5268 36.1255,20.3358 8.5331,0.6379 17.0661,1.2758 25.5994,1.9139 -1.5152,11.0052 -6.0611,16.5875 -13.637,16.7472 9.3304,20.0165 16.2685,40.5117 20.8143,61.4856 0.7575,2.3926 1.9139,3.5086 3.469,3.3495 6.2204,0.6378 11.1644,5.2634 14.8332,13.8761 5.3828,9.6496 10.7658,19.299 16.1489,28.9484 5.4226,4.7852 12.9191,5.2637 22.4889,1.4356 z" />
  <path
     inkscape:connector-curvature="0"
     id="path102"
     style="fill:none;stroke:#73738c;stroke-width:2.83459997;stroke-linecap:butt;stroke-linejoin:round;stroke-dasharray:none;stroke-opacity:1"
     d="m 67.45805,391.31325 c 17.0663,16.1886 29.9856,27.1142 38.7577,32.7765 4.0667,2.4721 6.0603,5.7417 5.9809,9.8087 3.2696,1.1167 9.251,-0.3183 17.9432,-4.3061 3.2696,5.2634 7.018,9.5697 11.2446,12.9191 0.5581,2.4722 1.914,5.742 4.0673,9.809 0.319,-1.1165 0.638,-2.2329 0.9568,-3.3495 -3.3494,-5.4227 -3.8279,-10.5268 -1.4353,-15.3116 5.3429,-1.9935 9.2508,-0.3191 11.7229,5.0242 5.5026,5.4227 8.9319,12.1217 10.2874,20.0966 -12.6,-2.8712 -25.2003,-5.7421 -37.8005,-8.6129 -2.3925,0.6377 -4.7848,1.276 -7.1773,1.9141 -3.5887,1.3554 -7.0178,1.1162 -10.2876,-0.718 -6.1806,-2.3122 -11.8029,-7.0178 -16.8666,-14.1152 -8.9718,-9.9684 -22.8082,-22.3297 -41.5089,-37.0831 -2.8308,-2.6315 -5.6619,-5.2633 -8.4931,-7.8948 -3.0302,-3.07 -3.3496,-6.3798 -0.9571,-9.9288 1.5551,-3.8678 3.1103,-7.7354 4.6654,-11.6032 1.2757,-2.6714 7.6557,-3.1898 19.1395,-1.5553 22.5684,0.9169 45.1373,1.8342 67.706,2.7516 -3.429,-2.5519 -8.9318,-3.0305 -16.5079,-1.4354 -16.9064,-2.0336 -36.8435,-3.9873 -59.811,-5.8616 -1.9934,-0.6775 -2.5516,-2.871 -1.6745,-6.5793 3.1893,-4.5053 6.6985,-6.0608 10.5266,-4.6652 15.9494,3.9076 31.8992,7.815 47.849,11.7229 6.4595,-6.8981 12.919,-13.7962 19.3786,-20.6945 0.4266,-0.6861 0.0904,-0.8079 -1.0093,-0.3657 -5.904,6.181 -11.8079,12.3621 -17.7118,18.5435 -2.5134,-4.2207 -4.2288,-8.8021 -5.1461,-13.7428 -3.4105,-2.04 -6.8215,-4.0804 -10.2324,-6.1207 2.5942,-7.6124 5.1884,-15.2244 7.7826,-22.8368 -0.9568,-0.8374 -1.9137,-1.6748 -2.8709,-2.5122 2.5121,-3.7084 5.0243,-7.4165 7.5362,-11.1247 -1.4751,-0.2395 -2.9505,-0.4786 -4.426,-0.7177 4.8247,-14.0356 10.367,-25.2004 16.6275,-33.4945 4.9042,0.4784 8.6129,-0.9567 11.1248,-4.3063 2.3526,-2.472 4.705,-4.9441 7.0578,-7.4163 1.2758,-1.8743 0.6379,-2.3926 -1.9139,-1.5551 -3.8681,5.8609 -7.3369,8.6125 -10.4074,8.2538 -5.5424,0.8369 -10.8458,-1.1167 -15.9096,-5.8615 -4.3462,-3.2694 -6.8584,-5.7417 -7.5361,-7.4167 0.3986,-1.1561 0.7973,-2.3124 1.1962,-3.4689 -0.5982,-0.279 -1.1962,-0.5583 -1.7944,-0.8373 -3.5886,-9.6894 -6.6987,-15.3116 -9.3305,-16.8668 -3.5887,-1.2363 -7.1771,-1.7547 -10.7658,-1.555 0.4435,-3.8849 1.2565,-7.1536 2.4383,-9.8061 4.767,-0.7197 9.0158,1.3606 12.7457,6.2411 0,-1.78 0,-3.5601 0,-5.3406 -4.8672,-3.7407 -10.133,-5.1212 -15.7976,-4.1411 -1.1367,0.4803 -1.1966,-4.0003 -0.1794,-13.4424 0.3539,-2.9383 2.1733,-4.2367 5.4581,-3.8948 8.6924,-1.8743 15.1524,-1.1167 19.3789,2.2727 15.1518,7.1373 30.304,14.2746 45.4562,21.4123 1.7544,2.4321 3.5087,4.8647 5.2633,7.297 4.9839,2.1132 9.9684,4.2265 14.953,6.3399 3.1899,0.9966 4.3063,3.0303 3.3494,6.1009 -0.5186,6.3792 -2.8711,8.6123 -7.0579,6.6987 -0.9172,-0.7578 -2.233,-0.4785 -3.9475,0.8373 -1.7147,0.7177 -3.8279,1e-4 -6.34,-2.1533 -1.1959,0.7576 0.6382,2.5518 5.5027,5.383 4.346,-0.6377 6.699,0.9571 7.0576,4.785 5.622,10.2472 11.3242,18.023 17.1062,23.3263 7.3366,9.0113 11.4837,15.9498 12.4407,20.8142 0.0792,1.236 -0.6384,3.6684 -2.1533,7.2969 0.0797,0.7179 3.6685,1.2763 10.766,1.6746 4.7049,4.1069 9.8889,8.1346 15.5509,12.082 2.8307,3.5483 5.901,6.858 9.2107,9.9287 3.0701,0.9569 6.3797,2.233 9.9288,3.8278 18.3419,9.6895 33.813,15.4712 46.4132,17.3453 21.612,4.3064 37.0036,11.8024 46.1743,22.4889 8.254,0.2789 16.5077,0.5581 24.7617,0.8375 -2.2726,3.3493 -3.0301,6.0606 -2.2728,8.134 -1.7941,3.4692 -5.4226,4.4661 -10.8856,2.9905 -0.6778,-0.598 -1.3555,-1.196 -2.0337,-1.794 -1.6345,-1.1963 -2.0733,-0.7978 -1.3156,1.1961 6.4993,7.6558 10.6862,16.1088 12.5603,25.3598 4.3063,13.7565 8.6128,27.5132 12.9191,41.2696 1.515,3.6286 3.9871,6.0611 7.4164,7.297 5.0642,0.7176 8.7723,4.3065 11.1249,10.766 6.7386,12.002 13.4774,24.0041 20.2162,36.0062 6.1007,9.1311 12.1218,12.1219 18.0628,8.9717 6.8584,-3.6684 9.7293,-1.5951 8.6129,6.2202 2.1131,-0.3587 4.2265,-0.7177 6.34,-1.0764 0.2392,7.7755 0.4784,15.5507 0.7176,23.3262 -14.8331,-7.3763 -24.7219,-11.9622 -29.6663,-13.7565 -10.2871,-5.3432 -16.7467,-12.1219 -19.3787,-20.3358 -5.9011,-9.4101 -11.8025,-18.8204 -17.7041,-28.2308 -1.4354,-2.7509 -5.4229,-5.2632 -11.9621,-7.536 -51.6768,-23.5653 -80.3861,-40.3525 -86.1279,-50.361 1.1565,14.1153 -3.6682,14.8331 -14.4742,2.1531 -31.5404,-5.2634 -63.0806,-10.5266 -94.621,-15.79 -3.0705,-1.794 -3.9875,-2.3924 -2.7514,-1.7944 -3.3495,1.4752 -6.6988,2.9507 -10.0481,4.4261 -0.3188,-1.1963 -0.6379,-2.3923 -0.9571,-3.5886 -1.1963,0.6775 -2.3925,1.3554 -3.5885,2.0335 2e-4,-1.9537 1e-4,-3.9076 -1e-4,-5.8616 -4.9843,2.0733 -9.9683,4.1468 -14.9528,6.2204 -2.3924,-5.5025 -6.0608,-8.2937 -11.0053,-8.3737 -32.5372,-6.8577 -50.7196,-11.8021 -54.5477,-14.833 -3.9379,-1.3957 -6.649,-1.7149 -8.1342,-0.9569 z" />
  <g
     id="g104"
     transform="translate(-36.51365,-62.39705)">
    <path
       d="m 164.8318,284.4315 c 3.1899,0.3587 4.466,1.5949 3.828,3.7083 0.3986,2.1128 1.9139,2.8708 4.5456,2.2727 2.5517,-0.4785 3.9874,0.4786 4.3064,2.8711 1.0763,-4.5857 0.4785,-7.6559 -1.7944,-9.211 -3.2298,-2.1931 -6.8586,-2.0735 -10.8856,0.3589 z"
       style="fill:#1b1918;fill-rule:evenodd;stroke:#000000;stroke-width:0.2;stroke-dasharray:none"
       id="path106"
       inkscape:connector-curvature="0" />
    <path
       d="m 167.3489,288.5836 c -1.4762,4.3408 0.8775,6.2408 7.0609,5.7011 0.8775,-0.7805 0.4791,-1.3605 -1.1967,-1.7401 -2.4737,-0.4004 -4.2288,-1.7607 -5.2657,-4.0808 0.1993,-0.0402 -10e-5,-4e-4 -0.5985,0.1198 z"
       style="fill:#1b1918;fill-rule:evenodd;stroke:#000000;stroke-width:0.2;stroke-dasharray:none"
       id="path108"
       inkscape:connector-curvature="0" />
    <path
       d="m 125.4022,269.1403 c 1.8551,-1.22 3.7102,-2.4403 5.565,-3.6608 2.7923,0.46 4.8671,1.2001 6.223,2.2205 -0.1995,1.5396 -0.7183,2.7203 -1.5555,3.5407 -3.6903,-0.9003 -7.1008,-1.6005 -10.2325,-2.1004 z"
       style="fill:#1b1918;fill-rule:evenodd;stroke:#000000;stroke-width:0.2;stroke-dasharray:none"
       id="path110"
       inkscape:connector-curvature="0" />
    <path
       d="m 201.4566,302.6262 c 3.012,0.2201 6.0237,0.4401 9.0357,0.6602 -1.775,2.5207 -2.7127,4.401 -2.8127,5.6409 -2.2735,-0.68 -4.5476,-1.36 -6.8214,-2.0403 0.1993,-1.4202 0.3988,-2.8403 0.5984,-4.2608 z"
       style="fill:#1b1918;fill-rule:evenodd;stroke:#000000;stroke-width:0.2;stroke-dasharray:none"
       id="path112"
       inkscape:connector-curvature="0" />
    <path
       d="m 147.0081,406.0871 c 1.1165,-5.3832 2.233,-10.7662 3.3495,-16.1491 0.8373,5.4625 1.6746,10.9255 2.5119,16.3883 -1.9536,-0.0795 -3.9073,-0.1593 -5.8614,-0.2392 z"
       style="fill:#73738c;fill-opacity:1;fill-rule:evenodd;stroke:#1b1918;stroke-width:0.21600001;stroke-linecap:butt;stroke-linejoin:miter;stroke-dasharray:none"
       id="path114"
       inkscape:connector-curvature="0" />
    <path
       d="m 171.1718,346.8742 c 0,-3.5088 0,-7.0178 0,-10.5268 2.3125,-2.0335 4.6253,-4.0671 6.9381,-6.1007 0.7973,0 1.5947,0 2.3924,0 -1.0766,7.7754 -2.1532,15.5509 -3.2298,23.3263 -0.4785,-3.3494 -0.957,-6.6988 -1.4355,-10.0482 -1.555,1.1162 -3.1101,2.2328 -4.6652,3.3494 z"
       style="fill:#73738c;fill-opacity:1;fill-rule:evenodd"
       id="path116"
       inkscape:connector-curvature="0" />
    <path
       d="m 161.7216,351.6591 c 1.834,3.7084 3.6682,7.4167 5.5027,11.125 0.4785,-7.7753 0.9569,-15.5509 1.4355,-23.3266 -0.6378,-1.1162 -1.2759,-2.2328 -1.9142,-3.3494 -3.11,2.1929 -6.2201,4.3862 -9.3303,6.5792 2.9905,-0.9567 5.981,-1.9138 8.9717,-2.8709 0.8619,-0.003 1.0429,0.4218 0.543,1.2769 -1.2166,1.6801 -2.4332,3.3603 -3.6501,5.0406 0.5385,0.06 1.077,0.12 1.6157,0.1803 -0.0396,0.4999 -0.0798,0.9998 -0.1197,1.5003 -1.0179,1.2814 -2.0361,2.563 -3.0543,3.8446 z"
       style="fill:#73738c;fill-opacity:1;fill-rule:evenodd"
       id="path118"
       inkscape:connector-curvature="0" />
    <path
       d="m 151.5538,382.0431 c 1.7943,-7.7755 3.5886,-15.551 5.383,-23.3264 2.4322,11.9223 4.8644,23.8444 7.2969,35.7671 -1.1162,1.8338 -2.2327,3.6681 -3.3493,5.5024 -1.2359,-7.3363 -2.4722,-14.6734 -3.7084,-22.0102 -0.917,2.432 -1.8341,4.8644 -2.7512,7.2969 -0.9571,-1.0767 -1.914,-2.1531 -2.871,-3.2298 z"
       style="fill:#73738c;fill-opacity:1;fill-rule:evenodd"
       id="path120"
       inkscape:connector-curvature="0" />
    <path
       d="m 230.0258,372.9518 c -5.1035,4.8246 -10.2076,11.9623 -15.3116,21.4123 10.3672,-5.5822 17.2255,-9.2505 20.5749,-11.0052 -0.5981,-1.4355 -3.509,-1.5948 -8.7323,-0.4784 2.5117,-4.1869 3.6685,-7.4966 3.469,-9.9287 z"
       style="fill:#73738c;fill-opacity:1;fill-rule:evenodd"
       id="path122"
       inkscape:connector-curvature="0" />
    <path
       d="m 175.2389,428.9349 c 0.1594,-5.5028 2.7116,-8.6128 7.656,-9.3307 3.3491,-0.8766 7.3364,-5.2629 11.962,-13.1581 0.6565,-0.2817 1.0617,-0.0819 1.2152,0.5988 0.0399,1.1602 0.0797,2.3205 0.1196,3.4807 2.5929,-1.5205 4.7074,-2.6408 6.3428,-3.3607 -1.2763,5.1011 -1.6752,8.4017 -1.1968,9.9015 1.693,-1.6883 3.1616,-3.7933 4.4049,-6.3141 0.7975,-0.5978 3.0304,-0.3189 6.6988,0.8375 0.5979,-2.2727 2.2328,-2.5519 4.9045,-0.8374 12.8393,-10.6861 22.4889,-16.7471 28.9486,-18.1825 -7.7755,8.9715 -15.5509,17.9432 -23.3263,26.9148 -0.957,2.7909 -2.871,3.3494 -5.7418,1.6747 -1.1962,0.9967 -2.3926,1.9936 -3.5888,2.9907 -1.2759,-1.1965 -1.5948,-2.3924 -0.9571,-3.5888 -0.8373,1.0366 -1.6745,2.0734 -2.5121,3.1103 -0.8373,0.2791 -1.4354,-1.4355 -1.7943,-5.1438 -3.1501,1.8341 -7.3367,5.2634 -12.5603,10.2876 -0.3985,-0.0399 -0.6376,-1.914 -0.7174,-5.6224 -1.3956,0.997 -2.0738,-0.1593 -2.0337,-3.469 -6.0211,6.978 -11.9623,10.0481 -17.8238,9.2109 z"
       style="fill:#73738c;fill-opacity:1;fill-rule:evenodd"
       id="path124"
       inkscape:connector-curvature="0" />
    <path
       d="m 422.1388,564.1078 c -14.3546,-13.7171 -32.537,-26.1578 -54.5476,-37.3221 19.8573,8.0145 32.0586,13.3977 36.6044,16.1491 10.6064,9.3703 16.5873,16.428 17.9432,21.173 z"
       style="fill:#c5c7c8;fill-rule:evenodd"
       id="path126"
       inkscape:connector-curvature="0" />
  </g>
  <g
     id="g128"
     transform="translate(-36.51365,-62.39705)">
    <path
       inkscape:connector-curvature="0"
       id="path130"
       style="fill:none;stroke:#73738c;stroke-width:1.98430002;stroke-linecap:butt;stroke-linejoin:miter;stroke-dasharray:none;stroke-opacity:1"
       d="m 103.8144,479.2533 c 0.0658,6.3654 0.1316,12.7305 0.1974,19.0959 3.4785,2.0704 6.1108,4.5605 7.8968,7.4705 2.2908,4.091 4.9091,6.5454 7.8549,7.364 5.5225,1.6775 10.9637,3.9273 16.3233,6.7502 0.0161,-3.1344 0.0329,-6.2688 0.0493,-9.4031 -16.9674,-18.05 -27.7413,-28.476 -32.3217,-31.2775 z" />
    <path
       inkscape:connector-curvature="0"
       id="path132"
       style="fill:none;stroke:#73738c;stroke-width:1.98430002;stroke-linecap:butt;stroke-linejoin:miter;stroke-dasharray:none;stroke-opacity:1"
       d="m 139.6729,513.1566 c -0.0905,2.4637 -0.1813,4.9274 -0.2725,7.3911 7.6982,4.6295 13.0575,7.3294 16.078,8.1 1.2859,-1.9211 2.2378,-5.4806 2.8549,-10.6775 -4.8191,0.818 -8.7162,0.3271 -11.6917,-1.4729 -2.323,-1.1136 -4.6457,-2.2272 -6.9687,-3.3407 z" />
  </g>
  <g
     id="g134"
     transform="translate(-36.51365,-62.39705)">
    <path
       inkscape:connector-curvature="0"
       id="path136"
       style="fill:none;stroke:#868789;stroke-width:1.98430002;stroke-linecap:butt;stroke-linejoin:miter;stroke-dasharray:none"
       d="m 448.5912,568.1405 c 2.4342,6.4796 7.4767,11.2129 15.1277,14.2001 3.6952,-1.4241 7.3031,-3.4922 10.8243,-6.2038 -2.8691,-1.3786 -5.0427,-3.6767 -6.5206,-6.8932 -4.8686,2.1599 -8.5203,2.5737 -10.9548,1.2406 -3.0857,-0.3215 -5.9117,-1.103 -8.4766,-2.3437 z" />
    <path
       inkscape:connector-curvature="0"
       id="path138"
       style="fill:none;stroke:#868789;stroke-width:1.98430002;stroke-linecap:butt;stroke-linejoin:miter;stroke-dasharray:none"
       d="m 474.5432,574.8959 c 5.0859,2.6649 8.5201,2.5734 10.3023,-0.2757 4.3907,-3.6764 7.1295,-5.331 8.2163,-4.9631 4.3902,3.3548 7.3813,8.0882 8.2158,14.2002 -7.2158,1.4703 -14.4322,2.9409 -21.6483,4.4115 -1.2169,-1.608 -1.9131,-4.9629 -2.0865,-10.0642 -0.9999,-1.1027 -1.9995,-2.2057 -2.9996,-3.3087 z" />
  </g>
  <path
     inkscape:connector-curvature="0"
     id="path140"
     style="fill:none;stroke:#868789;stroke-width:1.98430002;stroke-linecap:butt;stroke-linejoin:miter;stroke-dasharray:none"
     d="m 446.09615,525.17025 c 2.6719,6.0209 3.9877,13.557 3.9475,22.6084 3.5088,1.3956 8.1343,3.5093 13.876,6.3402 4.1071,-11.8823 2.8711,-22.3297 -3.708,-31.341 -7.7356,0.4785 -12.441,1.2759 -14.1155,2.3924 z" />
  <path
     inkscape:connector-curvature="0"
     id="path3684"
     style="fill:#085a8c;fill-opacity:1;fill-rule:evenodd"
     d="m 28.10035,28.55055 0,66.051 447.9977,0 0,-66.051 -447.9977,0 z" />
  <path
     style="font-style:normal;font-variant:normal;font-weight:bold;font-stretch:normal;font-size:16.01731873px;font-family:Candara;-inkscape-font-specification:'Candara Bold';fill:#ffffff"
     d="m 135.90627,38.28068 c -9.19905,0 -16.92066,2.35118 -23.16406,7.05469 -6.2434,4.70352 -9.36524,10.62894 -9.36524,17.77735 0,6.65943 2.95589,12.15537 8.86719,16.48632 5.91131,4.30768 13.25025,6.46094 22.01758,6.46094 9.19905,0 16.92066,-2.35117 23.16406,-7.05469 6.2434,-4.70351 9.36524,-10.62893 9.36524,-17.77734 0,-6.68272 -2.95589,-12.17865 -8.86719,-16.48633 -5.9113,-4.30767 -13.25025,-6.46094 -22.01758,-6.46094 z m -65.95508,0.83789 c -2.02578,0 -4.84695,0.0337 -8.466793,0.10352 -3.586635,0.0699 -6.144235,0.10547 -7.671875,0.10547 l -8.070313,0 c 0.431725,5.98417 0.648438,13.21381 0.648438,21.68945 0,8.82491 -0.216713,16.75317 -0.648438,23.78516 7.93709,0.13971 13.782474,0.21094 17.535157,0.21094 21.619434,0 32.429684,-4.63503 32.429684,-13.90235 0,-3.46942 -1.49551,-6.07591 -4.48437,-7.82226 -2.98886,-1.76964 -6.49141,-2.87595 -10.50977,-3.31836 l 0,-0.52539 c 7.53858,-1.6765 11.30664,-5.09837 11.30664,-10.26758 0,-6.706 -7.35651,-10.0586 -22.06836,-10.0586 z m 132.70704,0 c -2.55714,0 -5.57941,0.0337 -9.06641,0.10352 -3.48701,0.0699 -5.84547,0.10547 -7.07422,0.10547 l -8.66797,0 c 0.43173,6.07731 0.64844,13.30695 0.64844,21.68945 0,9.12761 -0.21671,17.05587 -0.64844,23.78516 l 13.99805,0 c -0.36531,-7.1717 -0.54688,-12.94474 -0.54688,-17.32227 0.66419,0.0466 1.77509,0.0684 3.33594,0.0684 8.56807,0 15.79183,-1.32601 21.66992,-3.98047 5.91131,-2.65445 8.86719,-6.76503 8.86719,-12.33007 0,-4.07483 -2.17494,-7.11275 -6.52539,-9.11524 -4.35046,-2.00248 -9.68042,-3.00391 -15.99023,-3.00391 z m 31.98046,0.20899 c 0.43173,5.98417 0.64649,13.21381 0.64649,21.68945 0,8.82491 -0.21476,16.75317 -0.64649,23.78516 l 14.04688,0 c -0.36531,-6.35673 -0.54688,-12.89962 -0.54688,-19.62891 0.76382,-0.0931 1.7771,-0.13867 3.03907,-0.13867 4.45008,0 7.87063,1.05883 10.26171,3.17774 2.39109,2.1189 4.94674,6.85687 7.66993,14.21484 0.59777,1.23409 1.04681,2.02573 1.3457,2.375 l 15.64063,0 c -0.99629,-1.58336 -1.72648,-2.86384 -2.19141,-3.8418 -3.71947,-7.6141 -6.77493,-12.58559 -9.16602,-14.91406 -2.35788,-2.32847 -5.74523,-3.9929 -10.16211,-4.99414 l 0,-0.38477 c 4.25083,-1.25737 7.62257,-3.13158 10.11328,-5.62304 2.52393,-2.49147 4.88239,-6.46154 7.07422,-11.91016 0.89666,-1.81621 1.56047,-3.08481 1.99219,-3.80664 l -13.45117,0 c -0.59777,0.62869 -0.99606,1.35105 -1.19531,2.16601 -2.85603,11.15339 -8.83222,16.73047 -17.93164,16.73047 -0.6642,0 -1.67747,-0.0237 -3.03907,-0.0703 0,-5.65819 0.18157,-11.93389 0.54688,-18.82617 l -14.04688,0 z m 54.7461,0 c 0,0.51226 3.96721,5.69353 11.90429,15.54297 7.93709,9.82615 11.90625,15.51805 11.90625,17.07812 -1.62726,2.84074 -3.86858,4.7169 -6.7246,5.625 -2.82282,0.88482 -7.22345,1.32618 -13.20118,1.32618 l 0.94727,7.30078 c 7.80425,0 13.84878,-0.98955 18.13281,-2.96875 4.28404,-2.00249 8.45039,-5.54308 12.50195,-10.61914 4.05157,-5.07607 8.20426,-11.55961 12.45508,-19.45313 4.28404,-7.9168 6.42578,-12.52809 6.42578,-13.83203 l -13.45117,0 c 0,2.91059 -3.36978,10.96748 -10.11133,24.16992 l -0.54882,0 c 0,-1.00124 -2.42289,-5.11181 -7.27149,-12.33008 -4.81539,-7.24155 -7.22461,-11.18787 -7.22461,-11.83984 l -15.74023,0 z m 59.22265,0 -0.39843,7.54492 c 8.16955,-0.37255 14.59674,-0.55859 19.27929,-0.55859 0.13284,4.49395 0.19922,9.39421 0.19922,14.70312 0,8.45236 -0.21671,16.38062 -0.64844,23.78516 l 13.94922,0 c -0.3653,-7.4744 -0.54883,-15.40266 -0.54883,-23.78516 0,-5.40205 0.0332,-10.30231 0.0996,-14.70312 5.8781,0 12.13739,0.17416 18.7793,0.52344 l 0.34961,-7.50977 -51.06055,0 z m 69.94727,0 c 0,1.42037 -3.88521,9.12698 -11.65625,23.12109 -7.73783,13.99412 -11.60742,21.44541 -11.60742,22.35352 l 14.99414,0 c 0,-1.65322 1.56189,-6.00723 4.68359,-13.0625 l 23.01367,0 c 3.02208,7.17169 4.53321,11.52571 4.53321,13.0625 l 15.9414,0 c 0,-1.25738 -3.52011,-8.81356 -10.56054,-22.66797 -7.00722,-13.87769 -10.51172,-21.47941 -10.51172,-22.80664 l -18.83008,0 z m 7.57226,6.25195 0.79688,0 c 0,0.97796 2.83874,7.47532 8.51758,19.49024 l -18.13281,0 c 5.87809,-12.08477 8.81835,-18.58213 8.81835,-19.49024 z M 67.46096,45.68498 c 7.43894,0 11.1582,2.08399 11.1582,6.25195 0,4.30768 -5.24601,6.46094 -15.740232,6.46094 -1.394802,0 -2.724364,-0.0237 -3.986328,-0.0703 0,-5.72804 -0.18157,-9.76738 -0.546875,-12.11914 2.656766,-0.34927 5.694645,-0.52344 9.115235,-0.52344 z m 130.71289,0 c 9.43152,0 14.14844,2.49168 14.14844,7.47461 0,5.37877 -6.0621,8.06836 -18.1836,8.06836 -1.09591,0 -2.05843,-0.0237 -2.88867,-0.0703 0,-5.56505 -0.18352,-10.54841 -0.54883,-14.94922 2.62356,-0.34927 5.11478,-0.52344 7.47266,-0.52344 z m -63.61328,0.17383 c 5.2139,0 9.59892,1.514 13.15234,4.54102 3.55343,3.02701 5.33008,6.97333 5.33008,11.83984 0,4.63366 -1.69465,8.48696 -5.08203,11.56055 -3.38738,3.05029 -7.50492,4.57617 -12.35352,4.57617 -5.18069,0 -9.56375,-1.514 -13.15039,-4.54102 -3.55342,-3.0503 -5.33008,-6.99662 -5.33008,-11.83984 1e-5,-4.65695 1.69271,-8.51025 5.08008,-11.56055 3.38738,-3.0503 7.50492,-4.57617 12.35352,-4.57617 z M 64.87112,64.54436 c 11.59014,0 17.38476,2.31751 17.38476,6.95117 0,2.56132 -1.42718,4.36625 -4.2832,5.41406 -2.85603,1.02453 -7.35623,1.53711 -13.5,1.53711 -2.258253,0 -3.952907,-0.093 -5.082033,-0.2793 -0.298886,-4.09811 -0.447266,-8.58076 -0.447266,-13.44726 1.660479,-0.11643 3.636274,-0.17578 5.927739,-0.17578 z"
     id="text3686"
     inkscape:connector-curvature="0" />
</svg>
