<?xml version="1.0" encoding="UTF-8" ?>
<!DOCTYPE svg PUBLIC "-//W3C//DTD SVG 1.1//EN" "http://www.w3.org/Graphics/SVG/1.1/DTD/svg11.dtd">
<svg width="794pt" height="940pt" viewBox="0 0 794 940" version="1.1" xmlns="http://www.w3.org/2000/svg">
<g id="#86641fff">
<path fill="#86641f" opacity="1.00" d=" M 0.00 0.00 L 794.00 0.00 L 794.00 0.96 C 529.68 0.75 265.36 0.83 1.04 1.01 L 0.00 1.04 L 0.00 0.00 Z" />
<path fill="#86641f" opacity="1.00" d=" M 464.93 185.61 C 464.44 181.61 468.90 186.62 464.93 185.61 Z" />
</g>
<g id="#d2120fff">
<path fill="#d2120f" opacity="1.00" d=" M 0.00 1.04 L 1.04 1.01 C 0.96 38.19 2.60 75.69 0.00 112.69 L 0.00 1.04 Z" />
<path fill="#d2120f" opacity="1.00" d=" M 0.00 113.70 C 2.60 114.38 1.85 117.62 0.00 118.74 L 0.00 113.70 Z" />
</g>
<g id="#ff0000ff">
<path fill="#ff0000" opacity="1.00" d=" M 1.04 1.01 C 265.36 0.83 529.68 0.75 794.00 0.96 L 794.00 432.99 C 719.43 433.03 644.87 432.96 570.30 432.67 C 561.58 405.25 551.50 378.00 536.70 353.22 C 531.46 343.23 518.86 348.91 510.00 347.30 C 502.77 345.66 498.61 352.31 495.84 357.82 C 483.30 381.78 472.68 406.81 464.55 432.62 C 457.75 433.08 450.93 433.05 444.13 432.66 C 446.50 421.76 450.34 411.22 452.25 400.21 C 442.43 399.72 435.74 392.80 427.08 389.71 C 428.40 384.54 429.67 379.36 431.00 374.19 C 423.68 372.30 415.97 371.83 408.94 368.95 C 399.51 364.72 397.25 353.54 390.06 346.91 C 374.29 331.18 354.35 320.58 334.93 310.08 C 331.01 307.34 327.59 311.37 324.81 313.78 C 313.46 324.42 300.96 333.94 290.08 345.00 C 286.13 355.29 282.96 367.92 271.69 372.68 C 264.37 377.20 252.90 371.40 248.26 380.26 C 244.68 386.37 238.77 391.26 236.39 397.93 C 240.09 409.60 246.20 420.61 248.25 432.84 C 165.73 433.13 83.20 432.98 0.67 432.91 C 0.02 365.12 1.34 297.27 0.00 229.51 L 0.00 228.62 C 1.98 229.09 1.98 225.81 0.00 226.29 L 0.00 118.74 C 1.85 117.62 2.60 114.38 0.00 113.70 L 0.00 112.69 C 2.60 75.69 0.96 38.19 1.04 1.01 M 399.27 83.26 C 400.03 86.45 400.63 89.67 401.11 92.90 C 397.33 92.47 393.56 91.91 389.83 91.20 C 389.43 94.42 389.07 97.66 389.30 100.91 C 393.25 100.36 397.23 100.06 401.22 99.84 C 401.87 106.62 396.40 110.13 391.86 113.83 C 386.80 118.80 390.67 125.68 394.08 130.29 C 390.54 129.97 387.03 129.42 383.58 128.57 C 385.01 117.09 369.75 113.66 364.09 122.60 C 358.30 117.88 349.33 118.66 346.07 125.92 C 339.15 122.20 329.64 125.89 330.59 134.69 C 323.88 135.61 319.69 142.24 324.65 147.87 C 319.17 150.31 317.38 156.67 321.98 161.00 C 319.27 164.12 317.15 170.13 321.94 172.40 L 323.11 172.31 C 320.80 178.16 323.06 185.15 330.48 184.23 C 329.67 186.74 327.96 190.29 330.82 192.15 C 341.91 196.58 347.85 208.32 350.91 219.24 C 352.32 225.84 360.49 225.71 365.74 227.08 C 391.39 230.32 417.65 230.51 443.29 227.13 C 448.62 225.85 456.71 226.20 458.60 219.77 C 461.74 208.99 467.63 198.50 477.06 192.06 C 480.05 190.28 478.24 186.73 477.49 184.20 C 484.13 185.09 487.98 178.71 484.53 173.14 C 485.97 171.95 487.42 170.76 488.88 169.60 C 489.06 166.44 487.83 163.55 486.07 161.00 C 490.23 156.54 488.68 150.45 483.36 147.85 C 488.31 142.22 484.05 135.63 477.40 134.68 C 477.92 126.31 468.92 122.18 462.04 125.75 C 458.41 118.77 449.64 117.55 443.86 122.67 C 438.37 113.58 421.70 117.19 424.50 128.93 C 421.72 129.50 418.93 130.01 416.13 130.46 C 416.71 129.12 417.32 127.80 417.95 126.48 L 418.72 125.91 L 419.70 126.17 C 426.99 113.57 408.31 110.98 409.61 99.80 C 413.39 99.99 417.17 100.33 420.92 100.93 C 420.96 97.70 420.95 94.47 420.92 91.25 C 417.22 91.93 413.51 92.48 409.78 92.94 C 410.07 89.74 410.47 86.55 410.87 83.36 C 407.00 83.28 403.14 83.27 399.27 83.26 Z" />
<path fill="#ff0000" opacity="1.00" d=" M 345.38 158.24 C 347.84 141.59 369.27 139.18 381.89 144.06 C 383.71 154.72 385.44 165.72 385.64 176.58 C 378.77 180.17 371.67 183.49 365.90 188.85 C 349.83 189.83 345.21 171.04 345.38 158.24 Z" />
<path fill="#ff0000" opacity="1.00" d=" M 427.61 143.56 C 439.01 141.26 454.51 140.04 461.86 151.07 C 468.30 162.72 462.26 176.34 455.62 186.47 C 451.77 187.22 447.93 188.03 444.10 188.87 C 438.03 183.95 431.40 179.80 424.18 176.79 C 424.30 165.63 426.68 154.66 427.61 143.56 Z" />
</g>
<g id="#3a383cff">
<path fill="#3a383c" opacity="1.00" d=" M 399.27 83.26 C 403.14 83.27 407.00 83.28 410.87 83.36 C 410.47 86.55 410.07 89.74 409.78 92.94 C 413.51 92.48 417.22 91.93 420.92 91.25 C 420.95 94.47 420.96 97.70 420.92 100.93 C 417.17 100.33 413.39 99.99 409.61 99.80 C 408.31 110.98 426.99 113.57 419.70 126.17 L 418.72 125.91 C 410.16 123.54 401.14 124.74 392.41 125.09 C 397.81 133.81 411.07 132.94 417.95 126.48 C 417.32 127.80 416.71 129.12 416.13 130.46 C 418.93 130.01 421.72 129.50 424.50 128.93 C 421.70 117.19 438.37 113.58 443.86 122.67 C 449.64 117.55 458.41 118.77 462.04 125.75 C 468.92 122.18 477.92 126.31 477.40 134.68 C 484.05 135.63 488.31 142.22 483.36 147.85 C 488.68 150.45 490.23 156.54 486.07 161.00 C 487.83 163.55 489.06 166.44 488.88 169.60 C 487.42 170.76 485.97 171.95 484.53 173.14 C 487.98 178.71 484.13 185.09 477.49 184.20 C 478.24 186.73 480.05 190.28 477.06 192.06 C 467.63 198.50 461.74 208.99 458.60 219.77 C 456.71 226.20 448.62 225.85 443.29 227.13 C 417.65 230.51 391.39 230.32 365.74 227.08 C 360.49 225.71 352.32 225.84 350.91 219.24 C 347.85 208.32 341.91 196.58 330.82 192.15 C 327.96 190.29 329.67 186.74 330.48 184.23 C 323.06 185.15 320.80 178.16 323.11 172.31 C 327.56 172.77 335.31 170.71 332.39 164.73 C 327.37 157.37 315.66 165.11 321.94 172.40 C 317.15 170.13 319.27 164.12 321.98 161.00 C 317.38 156.67 319.17 150.31 324.65 147.87 C 319.69 142.24 323.88 135.61 330.59 134.69 C 329.64 125.89 339.15 122.20 346.07 125.92 C 349.33 118.66 358.30 117.88 364.09 122.60 C 369.75 113.66 385.01 117.09 383.58 128.57 C 387.03 129.42 390.54 129.97 394.08 130.29 C 390.67 125.68 386.80 118.80 391.86 113.83 C 396.40 110.13 401.87 106.62 401.22 99.84 C 397.23 100.06 393.25 100.36 389.30 100.91 C 389.07 97.66 389.43 94.42 389.83 91.20 C 393.56 91.91 397.33 92.47 401.11 92.90 C 400.63 89.67 400.03 86.45 399.27 83.26 M 401.26 84.64 C 401.72 87.77 402.11 90.90 402.35 94.05 C 398.56 93.79 394.79 93.43 391.02 92.96 C 390.98 95.09 390.96 97.23 390.94 99.37 C 394.89 98.90 398.85 98.63 402.81 98.22 C 402.38 101.43 401.84 104.63 401.21 107.81 C 403.87 107.67 406.53 107.59 409.20 107.57 C 408.76 104.45 408.38 101.32 408.15 98.19 C 411.88 98.54 415.62 98.90 419.36 99.31 C 419.32 97.22 419.29 95.12 419.25 93.02 C 415.52 93.44 411.77 93.75 408.01 93.92 C 408.35 90.86 408.74 87.80 409.12 84.75 C 406.50 84.72 403.87 84.69 401.26 84.64 M 401.88 108.91 C 401.76 111.82 401.67 114.73 401.61 117.65 C 398.03 117.62 394.45 117.69 390.87 117.84 C 390.88 119.61 390.90 121.39 390.94 123.17 C 399.30 121.01 419.68 129.14 419.32 117.67 C 415.98 117.67 412.65 117.67 409.32 117.67 C 409.15 114.75 408.98 111.83 408.83 108.92 C 406.51 108.93 404.19 108.93 401.88 108.91 M 410.82 109.89 C 410.78 112.01 410.75 114.13 410.74 116.25 C 413.33 116.23 415.92 116.19 418.51 116.11 C 417.40 112.57 413.96 111.16 410.82 109.89 M 391.74 116.08 C 394.53 116.22 397.33 116.27 400.13 116.29 C 400.11 114.33 400.07 112.37 400.02 110.42 C 396.27 110.52 393.63 113.09 391.74 116.08 M 370.37 119.17 C 359.22 123.03 370.60 137.04 378.60 130.67 C 387.04 125.92 377.48 115.31 370.37 119.17 M 430.37 119.30 C 419.60 124.02 431.65 136.97 439.30 130.41 C 447.40 125.26 437.25 114.98 430.37 119.30 M 352.38 121.35 C 341.78 125.76 353.57 138.56 360.97 131.95 C 368.15 126.64 358.96 117.55 352.38 121.35 M 449.34 121.13 C 438.79 123.94 447.33 137.69 455.64 132.81 C 464.68 129.58 456.82 117.43 449.34 121.13 M 336.38 126.26 C 326.35 130.34 337.40 142.74 344.39 136.45 C 351.92 131.71 342.72 122.57 336.38 126.26 M 465.36 126.13 C 455.20 129.06 464.29 142.05 471.93 137.10 C 480.22 133.61 472.30 122.53 465.36 126.13 M 422.59 136.36 C 431.39 135.11 440.28 133.99 449.17 135.04 C 446.95 133.30 444.79 131.48 442.73 129.56 C 436.88 139.41 421.59 122.88 422.59 136.36 M 358.65 135.15 C 368.26 133.54 377.83 135.00 387.35 136.36 C 387.89 121.81 372.26 139.43 365.64 130.10 C 363.22 131.66 360.91 133.36 358.65 135.15 M 388.69 131.08 C 390.17 147.78 392.31 164.49 395.01 181.04 C 396.01 180.77 397.01 180.50 398.01 180.23 C 396.65 176.31 397.14 172.21 400.36 169.38 C 396.16 166.37 396.32 160.63 400.61 157.80 C 396.46 154.74 396.32 149.42 400.07 145.96 C 395.60 142.24 396.51 134.23 403.00 133.70 C 410.73 131.21 416.24 141.18 409.40 145.87 C 413.42 149.21 413.54 154.66 409.32 157.88 C 413.61 160.90 413.62 166.49 409.18 169.38 C 412.35 172.30 413.63 176.31 411.31 180.21 C 412.72 180.49 414.13 180.75 415.55 181.01 C 417.03 164.30 420.07 147.76 421.28 131.04 C 410.44 133.31 399.56 132.81 388.69 131.08 M 349.15 133.30 C 347.02 136.84 343.53 139.01 339.40 139.34 C 339.93 143.94 337.67 147.70 333.34 149.32 C 336.56 153.34 336.12 158.84 331.19 161.21 C 334.42 164.13 335.41 168.10 333.14 171.96 C 336.15 174.46 337.15 178.09 336.25 181.86 C 341.66 182.99 345.39 187.96 341.28 192.85 C 343.64 192.56 346.01 192.31 348.38 192.05 C 342.07 180.93 335.08 168.35 338.31 155.08 C 340.25 145.05 348.71 137.80 358.31 135.25 C 355.25 134.59 352.20 133.93 349.15 133.30 M 450.98 135.26 C 473.55 138.82 476.67 166.45 466.63 183.15 C 468.95 183.04 471.28 182.92 473.62 182.88 C 470.05 179.52 471.22 174.73 474.84 171.97 C 472.75 168.17 473.15 163.91 476.68 161.16 C 471.91 158.84 471.94 153.38 474.47 149.34 C 470.12 147.86 468.00 144.00 468.49 139.49 C 464.32 139.08 460.77 136.86 458.69 133.21 C 456.11 133.86 453.54 134.56 450.98 135.26 M 402.38 135.09 C 393.66 137.76 401.80 149.15 408.32 144.35 C 415.16 140.99 408.16 131.98 402.38 135.09 M 345.11 144.14 C 333.34 158.32 340.64 179.23 350.77 192.17 C 356.42 193.62 362.09 195.26 367.84 196.24 C 374.77 189.23 383.30 184.06 392.94 181.72 C 391.57 167.12 389.06 152.65 387.89 138.04 C 373.90 134.70 356.08 132.85 345.11 144.14 M 422.18 138.09 C 420.58 152.64 418.37 167.12 416.96 181.69 C 426.49 184.28 435.40 189.03 441.98 196.50 C 447.59 194.55 453.60 194.00 459.19 192.08 C 468.99 179.45 475.91 160.39 466.20 145.81 C 455.59 132.57 436.88 135.15 422.18 138.09 M 327.37 137.19 C 317.90 141.70 329.18 152.75 335.68 146.64 C 342.14 141.67 333.09 133.78 327.37 137.19 M 474.36 137.16 C 464.41 139.96 474.01 152.64 481.10 147.21 C 488.77 143.38 480.87 133.27 474.36 137.16 M 401.42 147.26 C 393.39 151.19 402.98 160.85 408.78 155.90 C 415.51 151.88 406.87 143.46 401.42 147.26 M 323.45 150.23 C 314.82 155.31 327.02 165.00 332.47 158.47 C 337.64 153.00 328.57 146.88 323.45 150.23 M 477.36 150.14 C 468.63 154.24 478.88 164.61 485.04 159.19 C 491.72 154.62 483.14 146.39 477.36 150.14 M 401.38 159.13 C 393.50 163.52 403.87 173.04 409.36 167.43 C 415.23 162.55 406.63 155.79 401.38 159.13 M 478.41 162.31 C 469.98 165.82 479.01 176.01 485.18 171.25 C 491.87 167.34 483.99 159.02 478.41 162.31 M 401.36 171.06 C 392.56 177.22 406.26 183.60 410.88 177.65 C 413.37 171.95 405.72 168.77 401.36 171.06 M 327.36 173.26 C 318.84 175.14 325.55 186.66 332.13 182.26 C 338.89 179.57 333.02 170.99 327.36 173.26 M 477.36 173.23 C 468.45 174.36 474.53 186.18 481.41 182.52 C 488.14 180.31 483.30 170.93 477.36 173.23 M 368.00 198.28 C 358.81 194.61 348.56 191.95 338.77 194.85 C 342.65 198.55 344.34 205.63 350.22 206.35 C 349.33 203.28 347.97 200.37 346.18 197.72 C 346.96 197.41 347.74 197.09 348.52 196.77 C 349.29 197.44 350.05 198.12 350.82 198.80 C 351.00 198.11 351.34 196.73 351.52 196.04 C 353.48 200.96 353.45 206.35 349.13 209.99 C 350.45 213.45 351.79 216.91 353.00 220.42 C 387.02 212.95 422.77 213.42 456.86 220.21 C 458.75 215.03 462.75 208.98 457.00 204.73 C 457.38 201.82 457.85 198.93 458.31 196.04 C 458.56 196.85 458.81 197.66 459.06 198.46 C 459.65 198.41 460.83 198.31 461.42 198.25 C 461.74 201.06 460.86 203.76 460.01 206.39 C 465.65 205.30 467.24 198.44 471.18 194.85 C 461.43 192.25 450.80 193.99 441.97 198.71 C 424.33 175.73 385.99 175.63 368.00 198.28 M 332.45 184.39 C 325.84 189.81 337.20 197.27 340.81 190.61 C 344.36 185.65 336.41 181.99 332.45 184.39 M 464.93 185.61 C 468.90 186.62 464.44 181.61 464.93 185.61 M 469.36 184.20 C 461.72 187.16 469.55 196.58 475.13 192.26 C 481.12 188.99 474.38 181.43 469.36 184.20 M 461.10 192.62 C 462.55 192.71 464.00 192.80 465.46 192.90 C 465.25 190.47 465.07 188.04 464.93 185.61 C 463.60 187.92 462.31 190.25 461.10 192.62 M 363.42 219.91 C 390.68 223.96 419.22 224.91 446.32 219.44 C 418.91 215.60 390.69 214.69 363.42 219.91 M 354.00 221.96 C 375.29 230.52 399.43 228.14 422.01 228.16 C 433.37 226.77 445.70 227.67 455.99 221.94 C 448.76 218.78 441.04 223.55 433.51 223.31 C 407.07 226.82 379.79 222.25 354.00 221.96 Z" />
<path fill="#3a383c" opacity="1.00" d=" M 403.62 188.80 C 404.40 188.27 405.18 187.74 405.97 187.20 C 405.56 190.16 405.24 193.13 405.00 196.11 C 406.84 196.26 408.69 196.42 410.54 196.59 C 411.16 198.03 411.79 199.48 412.41 200.92 C 409.98 200.41 407.53 199.98 405.09 199.60 C 405.36 201.01 405.40 202.42 405.22 203.83 C 404.49 204.78 403.76 205.74 403.03 206.69 C 403.06 204.42 403.01 202.16 402.90 199.90 L 401.92 199.92 C 400.46 199.96 399.01 199.98 397.57 200.00 C 397.47 199.43 397.27 198.29 397.17 197.72 C 398.92 197.29 400.67 196.87 402.42 196.46 C 402.88 193.92 403.32 191.37 403.62 188.80 M 403.43 198.15 C 403.93 198.66 403.93 198.66 403.43 198.15 Z" />
<path fill="#3a383c" opacity="1.00" d=" M 377.29 191.84 C 380.39 193.62 381.14 198.08 379.08 200.86 C 377.86 198.00 377.24 194.95 377.29 191.84 Z" />
<path fill="#3a383c" opacity="1.00" d=" M 427.56 192.99 C 428.18 193.06 429.42 193.18 430.04 193.25 C 429.72 195.50 429.41 197.87 427.93 199.71 C 427.75 197.47 427.67 195.23 427.56 192.99 Z" />
<path fill="#3a383c" opacity="1.00" d=" M 421.62 197.90 C 428.71 198.30 429.76 205.65 428.45 211.30 C 425.72 208.85 426.42 205.15 426.67 201.90 C 424.89 201.83 423.11 201.75 421.33 201.66 C 421.42 200.41 421.52 199.15 421.62 197.90 Z" />
<path fill="#3a383c" opacity="1.00" d=" M 380.09 202.00 C 381.67 200.64 383.46 199.56 385.39 198.78 C 385.49 200.18 385.59 201.59 385.70 203.00 C 383.83 202.63 381.96 202.31 380.09 202.00 Z" />
<path fill="#3a383c" opacity="1.00" d=" M 428.49 199.68 C 431.72 199.26 435.49 200.02 435.91 203.80 C 433.31 202.85 428.84 203.24 428.49 199.68 Z" />
<path fill="#3a383c" opacity="1.00" d=" M 353.37 207.21 C 355.00 203.07 360.34 203.14 363.90 201.50 C 364.11 202.96 364.31 204.43 364.52 205.89 C 360.86 206.69 357.13 207.25 353.37 207.21 Z" />
<path fill="#3a383c" opacity="1.00" d=" M 371.80 203.03 C 373.56 201.09 376.02 200.53 378.56 200.59 C 378.79 204.51 374.25 203.74 371.80 203.03 Z" />
<path fill="#3a383c" opacity="1.00" d=" M 447.51 201.81 C 450.57 203.37 455.30 203.44 456.58 207.14 C 454.69 207.17 452.80 207.16 450.92 207.13 C 449.92 206.18 448.91 205.25 447.91 204.32 C 447.81 203.47 447.67 202.63 447.51 201.81 Z" />
<path fill="#3a383c" opacity="1.00" d=" M 379.17 202.34 C 380.01 204.00 380.81 205.68 381.52 207.41 C 380.79 207.63 379.33 208.06 378.60 208.28 C 378.79 206.30 378.97 204.31 379.17 202.34 Z" />
<path fill="#3a383c" opacity="1.00" d=" M 351.92 207.54 C 356.24 207.76 356.83 212.74 358.51 215.83 C 357.78 215.99 357.05 216.15 356.33 216.32 C 355.63 215.69 354.94 215.06 354.25 214.43 C 353.93 215.26 353.61 216.10 353.30 216.93 C 352.80 213.81 352.28 210.69 351.92 207.54 Z" />
<path fill="#3a383c" opacity="1.00" d=" M 455.23 207.87 C 455.98 207.87 457.48 207.87 458.24 207.87 C 457.75 210.93 457.18 213.98 456.62 217.03 C 456.31 215.76 456.00 214.50 455.70 213.23 C 455.12 214.28 454.54 215.34 453.97 216.39 C 453.04 216.01 452.11 215.64 451.18 215.28 C 452.59 212.84 453.93 210.37 455.23 207.87 Z" />
<path fill="#3a383c" opacity="1.00" d=" M 324.81 313.78 C 327.59 311.37 331.01 307.34 334.93 310.08 C 354.35 320.58 374.29 331.18 390.06 346.91 C 397.25 353.54 399.51 364.72 408.94 368.95 C 415.97 371.83 423.68 372.30 431.00 374.19 C 429.67 379.36 428.40 384.54 427.08 389.71 C 435.74 392.80 442.43 399.72 452.25 400.21 C 450.34 411.22 446.50 421.76 444.13 432.66 C 450.93 433.05 457.75 433.08 464.55 432.62 C 472.68 406.81 483.30 381.78 495.84 357.82 C 498.61 352.31 502.77 345.66 510.00 347.30 C 518.86 348.91 531.46 343.23 536.70 353.22 C 551.50 378.00 561.58 405.25 570.30 432.67 C 644.87 432.96 719.43 433.03 794.00 432.99 L 794.00 436.01 C 719.90 435.97 645.80 436.04 571.70 436.26 C 583.11 481.24 590.02 527.34 591.25 573.77 C 591.32 589.25 591.28 604.74 591.26 620.23 C 589.39 679.99 582.40 739.47 572.51 798.41 C 572.37 801.80 570.23 806.93 574.54 808.49 C 593.27 817.14 613.09 824.15 633.76 826.12 C 635.46 826.38 637.15 826.71 638.86 827.05 C 639.17 830.78 639.54 834.51 639.87 838.25 C 640.01 840.41 640.17 842.58 640.28 844.75 C 640.30 847.53 640.18 850.31 640.07 853.10 C 527.00 853.70 413.93 853.06 300.87 853.39 C 300.43 853.39 299.56 853.40 299.13 853.40 C 280.37 853.23 261.62 853.24 242.87 853.38 C 242.44 853.38 241.57 853.38 241.13 853.38 C 232.38 853.28 223.62 853.28 214.87 853.38 C 214.44 853.38 213.57 853.38 213.13 853.38 C 204.38 853.28 195.62 853.29 186.87 853.37 C 186.44 853.37 185.57 853.37 185.13 853.37 C 178.76 853.32 172.38 853.36 166.01 853.28 C 166.26 852.70 166.76 851.55 167.01 850.97 C 174.62 845.56 181.10 834.07 191.95 837.70 C 190.50 836.53 189.08 835.34 187.67 834.14 C 201.39 826.29 217.94 818.36 233.89 824.12 C 256.53 834.87 278.37 813.01 301.41 816.66 C 305.59 818.15 309.80 819.56 314.09 820.73 C 309.15 816.84 303.29 813.96 296.89 813.88 C 292.98 813.51 289.04 813.72 285.12 813.78 C 288.22 810.31 291.14 806.69 294.09 803.11 C 282.01 795.59 273.32 784.40 277.21 769.36 C 279.88 769.13 282.54 768.89 285.21 768.65 C 277.99 743.14 255.33 727.07 236.80 709.91 C 237.26 703.60 237.98 697.32 239.11 691.10 C 250.04 689.39 261.11 688.88 272.12 687.81 C 272.71 687.74 273.90 687.62 274.49 687.56 C 274.62 683.63 274.74 679.70 274.92 675.78 C 275.10 671.03 275.48 665.71 272.12 661.89 C 246.80 630.55 225.34 596.56 199.36 565.76 C 196.99 545.27 198.23 524.06 198.17 503.30 C 207.39 501.16 215.96 495.11 225.32 494.72 C 235.99 502.98 245.73 514.27 260.92 509.63 C 258.76 484.89 255.88 459.94 249.13 435.98 C 166.35 436.02 83.57 436.08 0.79 435.95 C 0.76 435.19 0.70 433.67 0.67 432.91 C 83.20 432.98 165.73 433.13 248.25 432.84 C 246.20 420.61 240.09 409.60 236.39 397.93 C 238.77 391.26 244.68 386.37 248.26 380.26 C 252.90 371.40 264.37 377.20 271.69 372.68 C 282.96 367.92 286.13 355.29 290.08 345.00 C 300.96 333.94 313.46 324.42 324.81 313.78 M 328.23 314.87 L 328.33 315.63 C 315.99 325.71 303.70 336.17 292.40 347.33 C 289.48 365.94 273.25 381.85 253.46 378.45 C 251.79 380.96 250.11 383.47 248.48 386.01 C 278.17 416.40 304.10 450.42 325.59 487.05 C 324.93 487.46 323.60 488.28 322.93 488.69 C 301.17 452.68 275.95 418.59 246.06 388.91 C 243.74 391.83 241.56 394.87 239.55 398.02 C 253.38 428.43 259.10 461.61 262.90 494.56 C 263.91 494.37 264.92 494.18 265.94 494.00 C 288.46 517.04 311.34 542.16 321.31 573.38 C 319.82 573.07 317.83 573.28 317.52 571.35 C 305.70 542.29 284.97 518.07 263.08 496.06 C 263.37 501.61 264.41 507.08 264.91 512.62 C 257.70 512.54 250.41 514.05 243.26 513.02 C 236.27 508.78 230.99 502.14 223.94 498.02 C 216.39 500.50 207.88 502.52 201.49 507.03 C 228.05 526.45 247.18 553.82 264.80 581.20 C 283.67 611.87 302.85 642.39 321.36 673.25 C 320.00 673.41 318.11 674.42 317.41 672.64 C 290.95 632.54 268.47 589.81 239.77 551.20 C 228.70 536.60 216.58 522.36 201.26 512.07 C 202.06 529.28 200.25 546.84 202.20 563.83 C 227.88 594.31 249.37 627.65 274.00 658.96 C 282.46 667.45 276.35 680.26 277.62 690.78 C 265.83 692.05 254.00 693.01 242.15 693.49 C 242.11 694.08 242.02 695.26 241.98 695.86 C 269.50 725.58 296.99 755.34 324.43 785.14 C 323.65 785.92 322.87 786.71 322.09 787.51 C 294.83 758.83 268.77 728.97 241.04 700.76 C 240.84 704.26 239.24 708.84 242.88 711.15 C 262.50 727.86 284.10 746.17 289.93 772.55 C 286.89 772.61 283.85 772.68 280.81 772.80 C 276.44 786.51 288.27 794.96 298.16 801.48 C 308.31 798.85 319.06 799.54 328.87 803.20 C 330.70 804.16 332.66 804.84 334.69 805.24 C 337.51 807.57 340.99 808.81 344.42 809.94 C 347.48 799.27 357.09 790.51 368.62 795.75 C 369.80 787.36 369.35 778.85 370.40 770.45 C 384.90 761.30 398.93 751.37 413.60 742.48 C 413.70 739.48 413.71 736.49 413.62 733.50 C 405.80 724.79 389.00 719.98 389.10 707.13 C 396.22 692.70 406.63 680.00 415.08 666.27 C 384.12 687.56 358.83 717.29 343.89 751.87 C 342.93 751.58 341.96 751.30 341.00 751.03 C 355.10 715.17 381.86 685.09 413.18 663.13 C 422.13 660.72 424.32 650.45 429.92 644.13 C 415.13 643.19 400.29 643.56 385.49 642.85 C 392.92 624.64 402.05 607.13 410.10 589.18 C 412.46 580.81 423.37 580.46 426.11 572.08 C 436.01 547.74 444.86 522.95 454.35 498.43 C 460.89 485.02 458.93 469.64 459.89 455.18 C 456.58 454.98 451.58 453.35 451.05 458.12 C 445.15 474.74 442.15 492.73 434.53 508.50 C 398.35 538.00 366.92 573.25 341.49 612.38 C 340.42 615.02 336.79 612.87 338.70 610.67 C 362.15 573.90 391.40 540.86 424.51 512.50 C 428.08 509.15 433.32 506.79 434.45 501.57 C 439.08 485.71 444.08 469.96 448.75 454.11 C 435.17 452.10 421.46 451.26 407.85 449.45 C 412.85 424.84 421.03 400.92 426.99 376.50 C 423.74 375.95 420.49 375.41 417.22 375.03 C 412.29 397.21 404.74 418.87 393.71 438.78 C 374.81 467.42 365.68 502.68 339.08 526.04 C 338.40 525.65 337.05 524.88 336.37 524.49 C 338.30 522.38 340.33 520.34 341.95 517.97 C 359.23 500.52 369.72 477.71 379.50 455.50 C 395.89 430.87 408.13 403.28 413.98 374.20 C 409.20 372.64 404.27 371.60 399.33 370.68 C 391.42 342.07 360.80 328.28 336.63 315.37 L 337.19 314.82 C 335.15 314.10 333.13 313.36 331.10 312.63 C 330.14 313.37 329.19 314.12 328.23 314.87 M 503.19 351.64 L 503.32 352.54 C 486.43 379.52 475.26 409.85 465.45 440.05 C 476.50 448.48 484.01 461.14 496.77 467.29 C 496.76 468.03 496.75 469.51 496.74 470.25 C 482.64 466.70 475.92 451.69 464.18 444.17 C 460.87 451.85 464.57 460.38 463.15 468.51 C 463.83 468.68 465.20 469.01 465.88 469.18 C 466.03 470.67 466.19 472.17 466.36 473.67 C 472.22 475.26 478.19 476.46 484.25 476.99 C 482.72 492.74 485.51 509.54 478.28 524.20 C 476.33 531.12 472.47 537.57 471.35 544.64 C 479.58 555.10 489.12 564.50 497.56 574.81 C 497.09 575.43 496.17 576.67 495.71 577.29 C 486.35 568.33 478.83 557.59 469.30 548.79 C 459.14 568.26 458.73 595.39 439.43 608.42 C 436.87 645.81 484.08 655.30 495.07 686.70 C 494.30 686.88 492.77 687.24 492.00 687.42 C 480.71 662.53 451.89 652.86 439.33 628.98 C 439.33 639.75 439.44 650.52 440.62 661.24 C 446.19 662.30 451.83 662.84 457.50 663.07 C 448.88 676.60 437.29 689.60 443.62 706.84 C 444.72 712.08 442.71 718.76 447.35 722.62 C 464.75 740.61 481.97 758.78 499.21 776.91 C 501.96 778.58 498.38 782.01 496.79 779.38 C 479.78 762.01 463.42 743.97 446.08 726.93 C 448.90 757.22 453.97 787.29 459.93 817.11 C 474.30 815.91 488.83 816.83 502.96 819.73 C 494.10 812.98 482.67 810.76 471.74 811.13 C 475.24 796.25 492.18 794.55 504.03 800.14 L 504.02 801.08 C 505.68 801.67 507.34 802.28 509.00 802.88 C 522.02 818.78 546.02 809.74 559.09 824.89 C 562.30 832.74 568.56 840.73 578.24 837.64 C 572.83 833.09 566.87 829.18 562.21 823.80 C 551.80 812.75 536.03 809.84 521.53 808.89 C 521.78 795.14 537.86 795.61 547.61 797.83 C 551.10 775.10 555.38 752.42 557.22 729.49 C 536.88 735.36 531.09 759.21 519.00 774.30 C 518.01 773.81 517.03 773.33 516.05 772.86 C 528.24 755.97 535.65 730.22 558.39 725.24 C 562.48 686.56 566.25 647.72 566.08 608.79 C 544.93 622.34 532.74 645.43 519.88 666.24 C 518.87 665.79 517.87 665.35 516.88 664.91 C 529.85 642.24 543.70 618.41 566.24 603.97 C 566.67 575.53 565.35 547.10 562.46 518.83 C 543.65 526.20 529.31 541.45 515.97 556.12 C 513.19 552.64 517.12 549.80 519.20 547.22 C 530.69 534.42 544.21 523.32 559.56 515.49 C 562.26 514.42 561.08 511.14 561.06 508.96 C 557.29 484.46 553.32 459.83 545.74 436.17 C 537.68 447.20 529.15 460.38 515.26 464.19 C 515.25 463.45 515.23 461.97 515.23 461.23 C 526.99 455.58 535.21 445.07 542.60 434.69 C 545.95 430.66 542.59 425.56 541.51 421.29 C 532.94 397.56 524.27 373.17 509.76 352.37 L 509.91 351.43 C 507.67 350.48 505.28 350.15 503.19 351.64 M 520.36 349.69 C 541.08 384.08 554.42 422.48 563.39 461.48 C 587.78 573.34 575.85 689.03 558.11 800.94 C 559.23 801.24 560.36 801.56 561.49 801.89 C 576.59 709.19 586.99 614.69 577.00 520.87 C 570.48 464.00 556.07 407.25 527.98 357.02 C 526.30 353.80 523.79 351.05 520.36 349.69 M 528.05 350.00 C 562.00 408.17 577.08 475.39 582.48 541.98 C 588.93 629.63 578.59 717.35 565.00 803.81 C 566.15 804.16 567.32 804.54 568.49 804.91 C 577.99 744.27 586.53 683.31 587.78 621.84 C 590.49 533.93 580.16 442.85 539.06 363.84 C 536.16 358.75 533.85 352.41 528.05 350.00 M 514.08 350.54 C 549.77 413.74 565.82 486.42 568.74 558.48 C 573.08 639.00 563.99 719.55 550.97 798.91 C 551.82 799.02 553.51 799.25 554.36 799.36 C 570.17 706.98 579.47 612.51 569.61 518.92 C 563.34 465.62 549.93 412.64 525.03 364.85 C 521.95 359.78 520.05 352.91 514.08 350.54 M 426.08 393.76 C 421.53 411.41 415.83 428.79 412.14 446.66 C 414.31 446.64 416.49 446.65 418.67 446.66 C 423.19 429.26 427.96 411.92 432.00 394.39 C 430.02 394.17 428.05 393.96 426.08 393.76 M 434.50 399.14 C 431.24 415.35 425.48 430.99 422.74 447.29 C 424.01 447.15 425.28 447.01 426.55 446.87 C 429.60 431.06 434.83 415.79 437.94 400.00 C 436.79 399.71 435.64 399.42 434.50 399.14 M 441.59 400.98 C 437.98 416.91 433.05 432.56 429.99 448.63 C 432.15 448.66 434.32 448.71 436.49 448.74 C 440.05 433.34 444.89 418.26 448.46 402.86 C 446.17 402.20 443.88 401.58 441.59 400.98 M 443.26 436.15 C 441.78 440.55 440.53 445.04 439.89 449.65 C 442.28 449.79 444.67 449.91 447.07 450.00 C 450.17 450.75 453.36 450.96 456.52 451.42 L 456.17 452.17 C 461.12 448.53 461.35 441.22 462.47 435.61 L 462.27 436.27 C 458.27 436.08 454.25 435.67 450.26 436.21 C 447.92 436.19 445.59 436.16 443.26 436.15 M 465.35 478.16 C 468.25 509.09 451.32 536.31 442.97 565.10 C 437.61 577.39 436.21 594.50 421.93 600.02 C 415.96 613.30 410.08 626.62 404.25 639.96 C 406.10 639.88 407.96 639.81 409.82 639.74 C 415.35 628.17 419.59 615.85 425.71 604.66 C 438.65 599.43 440.26 584.39 444.94 573.02 C 454.57 541.68 471.94 511.63 468.26 477.79 C 467.53 477.88 466.08 478.07 465.35 478.16 M 472.25 479.63 C 474.81 512.55 457.63 543.16 448.27 574.33 C 443.75 586.67 440.91 601.58 427.96 608.00 C 422.75 618.37 418.33 629.27 413.97 640.06 C 415.84 639.97 417.71 639.88 419.59 639.78 C 424.64 628.81 429.29 617.58 434.96 606.92 C 440.96 603.79 446.59 599.51 448.94 592.80 C 458.13 569.50 466.48 545.86 475.36 522.43 C 481.84 509.26 479.62 494.14 480.30 479.95 C 477.61 479.86 474.93 479.75 472.25 479.63 M 431.23 569.15 C 428.46 576.88 422.98 583.20 415.53 586.64 C 406.52 604.04 398.97 622.23 390.27 639.81 C 393.71 639.70 397.16 639.66 400.61 639.57 C 406.71 625.21 413.08 610.96 419.49 596.73 C 431.59 593.57 433.62 579.45 437.61 569.52 C 445.25 542.60 460.72 517.23 461.70 488.92 C 451.28 515.56 442.01 542.66 431.23 569.15 M 423.05 640.12 L 423.97 640.08 C 427.79 640.80 431.68 640.82 435.56 640.88 C 433.90 645.22 431.06 648.92 428.83 652.96 C 431.28 653.00 433.73 653.04 436.18 653.10 C 436.30 648.72 436.17 644.33 435.81 639.96 C 436.06 631.21 436.17 622.44 435.76 613.70 C 431.09 622.29 427.75 631.54 423.05 640.12 M 424.15 659.20 C 413.83 674.82 403.43 690.41 393.08 706.00 C 390.27 710.32 394.32 714.02 397.82 716.06 C 410.03 696.42 422.57 676.96 434.27 657.02 C 430.85 657.14 426.08 655.32 424.15 659.20 M 434.09 664.73 C 423.41 682.09 412.42 699.28 401.72 716.62 C 399.85 719.33 403.93 720.63 405.52 722.08 C 417.04 702.95 429.55 684.35 440.40 664.85 C 438.29 664.80 436.19 664.76 434.09 664.73 M 444.14 666.16 C 433.92 683.20 423.30 699.99 412.89 716.92 C 411.06 720.18 406.15 725.01 411.58 727.24 C 425.04 706.89 438.05 686.23 451.79 666.06 C 449.24 666.11 446.68 666.13 444.14 666.16 M 416.38 726.31 C 414.28 728.60 415.72 731.54 417.45 733.53 C 418.50 735.74 419.64 738.21 422.37 738.60 C 422.79 738.95 423.62 739.65 424.04 740.00 C 425.39 741.99 426.81 744.16 429.36 744.66 C 436.70 749.17 441.77 756.53 438.43 765.42 C 425.08 774.48 411.60 783.43 397.94 792.03 C 395.01 795.41 396.53 800.23 396.18 804.30 C 396.14 806.20 395.25 808.99 397.54 809.92 C 396.25 811.75 399.46 814.76 401.22 813.36 C 405.87 818.10 411.83 821.60 417.97 824.07 C 425.40 827.78 434.50 827.16 441.94 823.84 C 446.77 822.61 451.38 820.68 455.98 818.79 C 455.90 818.39 455.73 817.59 455.65 817.19 C 455.55 813.73 455.70 810.10 453.86 807.02 L 453.69 806.16 C 453.38 800.64 452.80 795.10 451.02 789.84 C 450.81 787.55 450.41 785.28 449.86 783.06 C 449.68 778.93 449.41 774.77 448.00 770.86 C 447.86 768.23 447.46 765.62 446.87 763.06 C 446.70 758.84 446.40 754.56 444.74 750.63 L 444.60 749.80 C 445.93 748.24 445.97 743.90 443.90 743.38 C 444.02 740.12 443.71 736.84 442.75 733.72 C 444.00 732.16 443.96 727.85 441.80 727.50 L 441.74 726.62 C 441.62 716.32 440.55 705.99 439.02 695.81 C 438.98 695.05 438.88 693.52 438.83 692.75 C 430.94 703.63 423.99 715.21 416.38 726.31 M 373.51 772.52 C 375.00 781.06 367.05 796.07 378.63 798.90 C 378.98 793.07 379.19 787.23 379.51 781.41 C 392.77 771.98 405.99 762.45 419.59 753.50 C 419.71 750.28 419.74 747.06 419.68 743.85 C 403.47 750.88 389.31 763.80 373.51 772.52 M 422.74 744.27 C 427.66 750.02 431.38 755.87 429.27 763.97 C 416.11 773.63 402.43 782.57 389.30 792.26 C 389.06 797.38 386.78 804.18 392.47 807.14 C 393.19 801.80 392.02 795.87 394.02 790.90 C 407.62 781.11 421.98 772.35 435.73 762.76 C 435.69 760.01 435.65 757.26 435.59 754.52 C 431.06 751.41 427.17 747.50 422.74 744.27 M 423.75 751.02 C 415.15 765.51 395.90 771.85 383.09 783.16 C 384.34 788.75 378.63 798.97 385.51 801.19 C 385.56 797.50 385.64 793.82 385.85 790.14 C 399.23 780.73 412.62 771.31 425.98 761.87 C 426.12 758.10 426.39 754.05 423.75 751.02 M 350.86 804.96 C 375.22 804.05 381.27 833.04 400.03 842.76 C 389.03 842.73 375.36 843.81 367.51 834.51 C 356.72 819.85 340.08 810.61 323.02 805.16 C 312.72 802.85 299.49 801.35 292.06 810.63 C 306.63 809.19 319.84 817.98 329.27 828.29 C 312.33 826.16 294.92 813.82 278.06 823.15 C 263.32 827.41 246.19 834.84 231.62 826.54 C 219.25 823.55 205.61 827.24 195.35 834.11 C 198.92 837.98 206.48 839.79 211.01 843.86 C 197.95 842.13 182.17 835.61 173.66 849.84 C 328.12 850.26 482.60 849.86 637.07 849.97 C 636.87 843.21 636.60 836.46 636.45 829.71 C 608.63 827.33 582.68 816.37 557.83 804.38 C 547.99 801.82 532.50 795.10 525.60 805.66 C 537.21 807.51 549.73 809.11 559.10 816.88 C 568.80 824.83 577.49 834.34 589.01 839.78 C 580.82 840.21 572.62 842.93 564.44 841.38 C 556.72 838.73 559.21 828.22 553.33 823.68 C 541.66 814.59 524.35 821.19 513.62 810.34 C 503.58 803.12 485.63 794.12 476.90 807.64 C 491.97 807.83 505.61 815.66 517.03 824.87 C 500.05 822.97 483.14 819.15 465.96 820.06 C 452.79 821.25 441.63 830.89 428.00 829.51 C 404.30 829.23 392.02 803.49 369.52 799.51 C 362.75 797.03 353.47 796.63 350.86 804.96 M 347.86 812.09 C 351.88 815.10 355.96 818.04 360.11 820.86 C 362.15 823.48 364.51 825.82 367.08 827.92 C 369.39 831.80 372.31 835.94 377.06 836.88 C 379.48 838.56 382.42 838.60 385.26 838.55 C 386.55 838.74 387.85 838.91 389.15 839.08 C 377.13 828.76 367.37 801.43 347.86 812.09 Z" />
<path fill="#3a383c" opacity="1.00" d=" M 671.76 885.92 C 693.78 884.60 715.91 886.37 737.89 883.87 C 716.23 887.44 693.74 885.53 671.76 885.92 Z" />
</g>
<g id="#ffff00ff">
<path fill="#ffff00" opacity="1.00" d=" M 401.26 84.64 C 403.87 84.69 406.50 84.72 409.12 84.75 C 408.74 87.80 408.35 90.86 408.01 93.92 C 411.77 93.75 415.52 93.44 419.25 93.02 C 419.29 95.12 419.32 97.22 419.36 99.31 C 415.62 98.90 411.88 98.54 408.15 98.19 C 408.38 101.32 408.76 104.45 409.20 107.57 C 406.53 107.59 403.87 107.67 401.21 107.81 C 401.84 104.63 402.38 101.43 402.81 98.22 C 398.85 98.63 394.89 98.90 390.94 99.37 C 390.96 97.23 390.98 95.09 391.02 92.96 C 394.79 93.43 398.56 93.79 402.35 94.05 C 402.11 90.90 401.72 87.77 401.26 84.64 Z" />
<path fill="#ffff00" opacity="1.00" d=" M 401.88 108.91 C 404.19 108.93 406.51 108.93 408.83 108.92 C 408.98 111.83 409.15 114.75 409.32 117.67 C 412.65 117.67 415.98 117.67 419.32 117.67 C 419.68 129.14 399.30 121.01 390.94 123.17 C 390.90 121.39 390.88 119.61 390.87 117.84 C 394.45 117.69 398.03 117.62 401.61 117.65 C 401.67 114.73 401.76 111.82 401.88 108.91 Z" />
<path fill="#ffff00" opacity="1.00" d=" M 422.59 136.36 C 421.59 122.88 436.88 139.41 442.73 129.56 C 444.79 131.48 446.95 133.30 449.17 135.04 C 440.28 133.99 431.39 135.11 422.59 136.36 Z" />
<path fill="#ffff00" opacity="1.00" d=" M 358.65 135.15 C 360.91 133.36 363.22 131.66 365.64 130.10 C 372.26 139.43 387.89 121.81 387.35 136.36 C 377.83 135.00 368.26 133.54 358.65 135.15 Z" />
<path fill="#ffff00" opacity="1.00" d=" M 388.69 131.08 C 399.56 132.81 410.44 133.31 421.28 131.04 C 420.07 147.76 417.03 164.30 415.55 181.01 C 414.13 180.75 412.72 180.49 411.31 180.21 C 413.63 176.31 412.35 172.30 409.18 169.38 C 413.62 166.49 413.61 160.90 409.32 157.88 C 413.54 154.66 413.42 149.21 409.40 145.87 C 416.24 141.18 410.73 131.21 403.00 133.70 C 396.51 134.23 395.60 142.24 400.07 145.96 C 396.32 149.42 396.46 154.74 400.61 157.80 C 396.32 160.63 396.16 166.37 400.36 169.38 C 397.14 172.21 396.65 176.31 398.01 180.23 C 397.01 180.50 396.01 180.77 395.01 181.04 C 392.31 164.49 390.17 147.78 388.69 131.08 Z" />
<path fill="#ffff00" opacity="1.00" d=" M 349.15 133.30 C 352.20 133.93 355.25 134.59 358.31 135.25 C 348.71 137.80 340.25 145.05 338.31 155.08 C 335.08 168.35 342.07 180.93 348.38 192.05 C 346.01 192.31 343.64 192.56 341.28 192.85 C 345.39 187.96 341.66 182.99 336.25 181.86 C 337.15 178.09 336.15 174.46 333.14 171.96 C 335.41 168.10 334.42 164.13 331.19 161.21 C 336.12 158.84 336.56 153.34 333.34 149.32 C 337.67 147.70 339.93 143.94 339.40 139.34 C 343.53 139.01 347.02 136.84 349.15 133.30 Z" />
<path fill="#ffff00" opacity="1.00" d=" M 450.98 135.26 C 453.54 134.56 456.11 133.86 458.69 133.21 C 460.77 136.86 464.32 139.08 468.49 139.49 C 468.00 144.00 470.12 147.86 474.47 149.34 C 471.94 153.38 471.91 158.84 476.68 161.16 C 473.15 163.91 472.75 168.17 474.84 171.97 C 471.22 174.73 470.05 179.52 473.62 182.88 C 471.28 182.92 468.95 183.04 466.63 183.15 C 476.67 166.45 473.55 138.82 450.98 135.26 Z" />
<path fill="#ffff00" opacity="1.00" d=" M 461.10 192.62 C 462.31 190.25 463.60 187.92 464.93 185.61 C 465.07 188.04 465.25 190.47 465.46 192.90 C 464.00 192.80 462.55 192.71 461.10 192.62 Z" />
<path fill="#ffff00" opacity="1.00" d=" M 350.86 804.96 C 353.47 796.63 362.75 797.03 369.52 799.51 C 392.02 803.49 404.30 829.23 428.00 829.51 C 441.63 830.89 452.79 821.25 465.96 820.06 C 483.14 819.15 500.05 822.97 517.03 824.87 C 505.61 815.66 491.97 807.83 476.90 807.64 C 485.63 794.12 503.58 803.12 513.62 810.34 C 524.35 821.19 541.66 814.59 553.33 823.68 C 559.21 828.22 556.72 838.73 564.44 841.38 C 572.62 842.93 580.82 840.21 589.01 839.78 C 577.49 834.34 568.80 824.83 559.10 816.88 C 549.73 809.11 537.21 807.51 525.60 805.66 C 532.50 795.10 547.99 801.82 557.83 804.38 C 582.68 816.37 608.63 827.33 636.45 829.71 C 636.60 836.46 636.87 843.21 637.07 849.97 C 482.60 849.86 328.12 850.26 173.66 849.84 C 182.17 835.61 197.95 842.13 211.01 843.86 C 206.48 839.79 198.92 837.98 195.35 834.11 C 205.61 827.24 219.25 823.55 231.62 826.54 C 246.19 834.84 263.32 827.41 278.06 823.15 C 294.92 813.82 312.33 826.16 329.27 828.29 C 319.84 817.98 306.63 809.19 292.06 810.63 C 299.49 801.35 312.72 802.85 323.02 805.16 C 340.08 810.61 356.72 819.85 367.51 834.51 C 375.36 843.81 389.03 842.73 400.03 842.76 C 381.27 833.04 375.22 804.05 350.86 804.96 M 378.16 809.96 C 386.82 822.05 397.98 832.92 412.49 837.51 C 458.49 852.18 507.38 841.41 554.62 842.84 C 553.91 826.41 536.09 821.92 522.85 824.87 C 512.72 841.09 493.56 826.28 479.10 827.12 C 459.07 823.55 442.10 840.11 422.14 835.94 C 404.37 833.49 393.17 818.01 378.16 809.96 M 322.89 812.91 C 331.87 815.91 340.63 828.30 330.26 835.18 C 315.82 837.41 303.15 823.56 288.11 826.95 C 271.75 832.62 254.23 839.25 236.69 836.19 C 228.78 831.55 219.19 830.78 210.73 834.52 C 217.53 842.91 228.90 841.43 238.48 842.41 C 280.92 843.85 323.39 844.06 365.83 842.77 C 355.06 828.72 340.34 817.11 322.89 812.91 M 572.13 819.11 C 581.01 825.44 586.19 835.70 595.03 841.91 C 606.51 843.93 618.40 842.66 630.04 842.95 C 629.96 840.67 629.90 838.40 629.86 836.13 C 609.90 833.20 590.79 826.56 572.13 819.11 Z" />
<path fill="#ffff00" opacity="1.00" d=" M 772.93 866.94 C 783.19 856.62 791.30 843.98 794.00 829.49 L 794.00 833.32 C 790.78 846.39 783.73 858.71 772.93 866.94 Z" />
<path fill="#ffff00" opacity="1.00" d=" M 17.18 866.84 C 27.97 879.33 43.48 886.63 59.86 887.97 C 43.25 888.14 26.83 880.53 17.18 866.84 Z" />
<path fill="#ffff00" opacity="1.00" d=" M 752.02 878.93 C 758.61 875.20 765.48 871.96 771.88 867.90 C 766.38 873.32 758.88 875.78 752.02 878.93 Z" />
<path fill="#ffff00" opacity="1.00" d=" M 351.83 901.17 C 368.33 909.15 381.42 923.03 392.85 937.09 C 380.06 924.20 367.80 910.28 351.83 901.17 Z" />
</g>
<g id="#0000ffff">
<path fill="#0000ff" opacity="1.00" d=" M 410.82 109.89 C 413.96 111.16 417.40 112.57 418.51 116.11 C 415.92 116.19 413.33 116.23 410.74 116.25 C 410.75 114.13 410.78 112.01 410.82 109.89 Z" />
<path fill="#0000ff" opacity="1.00" d=" M 391.74 116.08 C 393.63 113.09 396.27 110.52 400.02 110.42 C 400.07 112.37 400.11 114.33 400.13 116.29 C 397.33 116.27 394.53 116.22 391.74 116.08 Z" />
<path fill="#0000ff" opacity="1.00" d=" M 392.41 125.09 C 401.14 124.74 410.16 123.54 418.72 125.91 L 417.95 126.48 C 411.07 132.94 397.81 133.81 392.41 125.09 Z" />
<path fill="#0000ff" opacity="1.00" d=" M 0.00 229.51 C 1.34 297.27 0.02 365.12 0.67 432.91 C 0.70 433.67 0.76 435.19 0.79 435.95 C 83.57 436.08 166.35 436.02 249.13 435.98 C 255.88 459.94 258.76 484.89 260.92 509.63 C 245.73 514.27 235.99 502.98 225.32 494.72 C 215.96 495.11 207.39 501.16 198.17 503.30 C 198.23 524.06 196.99 545.27 199.36 565.76 C 225.34 596.56 246.80 630.55 272.12 661.89 C 275.48 665.71 275.10 671.03 274.92 675.78 C 274.74 679.92 273.72 683.98 272.12 687.81 C 261.11 688.88 250.04 689.39 239.11 691.10 C 237.98 697.32 237.26 703.60 236.80 709.91 C 255.33 727.07 277.99 743.14 285.21 768.65 C 282.54 768.89 279.88 769.13 277.21 769.36 C 273.32 784.40 282.01 795.59 294.09 803.11 C 291.14 806.69 288.22 810.31 285.12 813.78 C 289.04 813.72 292.98 813.51 296.89 813.88 C 298.41 814.78 299.88 815.76 301.41 816.66 C 278.37 813.01 256.53 834.87 233.89 824.12 C 217.94 818.36 201.39 826.29 187.67 834.14 C 189.08 835.34 190.50 836.53 191.95 837.70 C 181.10 834.07 174.62 845.56 167.01 850.97 C 166.19 851.83 165.41 852.74 164.63 853.65 C 171.46 854.30 178.31 853.75 185.13 853.37 C 185.57 853.37 186.44 853.37 186.87 853.37 C 195.62 854.01 204.38 853.99 213.13 853.38 C 213.57 853.38 214.44 853.38 214.87 853.38 C 223.62 854.00 232.39 854.01 241.13 853.38 C 241.57 853.38 242.44 853.38 242.87 853.38 C 261.60 854.01 280.39 854.02 299.13 853.40 C 299.56 853.40 300.43 853.39 300.87 853.39 C 414.21 854.33 527.58 853.73 640.93 853.74 C 640.72 850.73 640.47 847.74 640.28 844.75 C 640.17 842.58 640.01 840.41 639.87 838.25 C 639.71 834.28 639.80 830.31 639.81 826.34 C 637.78 826.28 635.77 826.24 633.76 826.12 C 613.09 824.15 593.27 817.14 574.54 808.49 C 570.23 806.93 572.37 801.80 572.51 798.41 C 582.40 739.47 589.39 679.99 591.26 620.23 C 592.11 604.76 592.23 589.23 591.25 573.77 C 590.02 527.34 583.11 481.24 571.70 436.26 C 645.80 436.04 719.90 435.97 794.00 436.01 L 794.00 829.49 C 791.30 843.98 783.19 856.62 772.93 866.94 C 772.67 867.18 772.14 867.66 771.88 867.90 C 765.48 871.96 758.61 875.20 752.02 878.93 C 747.41 880.86 742.65 882.38 737.89 883.87 C 715.91 886.37 693.78 884.60 671.76 885.92 C 606.70 886.71 541.56 886.66 476.60 889.34 C 455.75 890.55 437.34 901.29 421.58 914.24 C 421.49 914.31 421.31 914.47 421.23 914.55 C 412.64 922.34 405.02 931.14 397.56 940.00 L 394.84 940.00 C 394.19 939.01 393.52 938.04 392.85 937.09 C 381.42 923.03 368.33 909.15 351.83 901.17 C 334.33 892.99 315.56 887.46 295.99 888.62 C 217.29 888.11 138.51 889.35 59.86 887.97 C 43.48 886.63 27.97 879.33 17.18 866.84 C 13.52 862.80 10.60 858.16 8.31 853.22 C 8.25 853.09 8.12 852.82 8.05 852.68 L 7.85 852.28 C 7.79 852.13 7.65 851.85 7.58 851.70 L 7.23 850.95 C 2.57 838.24 1.22 824.71 0.00 811.33 L 0.00 229.51 Z" />
<path fill="#0000ff" opacity="1.00" d=" M 450.26 436.21 C 454.25 435.67 458.27 436.08 462.27 436.27 C 460.53 441.38 458.97 446.59 456.52 451.42 C 453.36 450.96 450.17 450.75 447.07 450.00 C 444.94 449.42 442.84 448.73 440.75 448.06 C 441.73 444.34 442.87 440.67 444.15 437.05 C 446.18 436.75 448.21 436.45 450.26 436.21 Z" />
<path fill="#0000ff" opacity="1.00" d=" M 423.05 640.12 C 427.75 631.54 431.09 622.29 435.76 613.70 C 436.17 622.44 436.06 631.21 435.81 639.96 C 431.86 639.86 427.91 639.90 423.97 640.08 L 423.05 640.12 Z" />
<path fill="#0000ff" opacity="1.00" d=" M 416.38 726.31 C 423.99 715.21 430.94 703.63 438.83 692.75 C 438.88 693.52 438.98 695.05 439.02 695.81 C 439.24 706.13 440.53 716.38 441.74 726.62 L 441.80 727.50 C 441.84 729.60 442.12 731.70 442.75 733.72 C 443.71 736.84 444.02 740.12 443.90 743.38 C 443.79 745.54 444.16 747.68 444.60 749.80 L 444.74 750.63 C 445.27 754.80 445.88 758.97 446.87 763.06 C 447.46 765.62 447.86 768.23 448.00 770.86 C 448.18 774.98 448.80 779.07 449.86 783.06 C 450.41 785.28 450.81 787.55 451.02 789.84 C 451.39 795.36 452.38 800.79 453.69 806.16 L 453.86 807.02 C 454.43 810.41 454.91 813.82 455.65 817.19 C 455.73 817.59 455.90 818.39 455.98 818.79 C 451.38 820.68 446.77 822.61 441.94 823.84 C 434.09 825.77 425.82 826.27 417.97 824.07 C 411.83 821.60 405.87 818.10 401.22 813.36 C 400.15 812.05 398.93 810.86 397.54 809.92 C 395.25 808.99 396.14 806.20 396.18 804.30 C 396.72 800.20 397.49 796.13 397.94 792.03 C 411.60 783.43 425.08 774.48 438.43 765.42 C 441.77 756.53 436.70 749.17 429.36 744.66 C 427.64 743.03 425.87 741.48 424.04 740.00 C 423.62 739.65 422.79 738.95 422.37 738.60 C 420.63 737.01 418.97 735.32 417.45 733.53 C 415.72 731.54 414.28 728.60 416.38 726.31 Z" />
<path fill="#0000ff" opacity="1.00" d=" M 347.86 812.09 C 367.37 801.43 377.13 828.76 389.15 839.08 C 387.85 838.91 386.55 838.74 385.26 838.55 C 382.51 838.07 379.76 837.56 377.06 836.88 C 372.31 835.94 369.39 831.80 367.08 827.92 C 365.37 825.02 362.92 822.67 360.11 820.86 C 355.96 818.04 351.88 815.10 347.86 812.09 Z" />
</g>
<g id="#fefefeff">
<path fill="#fefefe" opacity="1.00" d=" M 370.37 119.17 C 377.48 115.31 387.04 125.92 378.60 130.67 C 370.60 137.04 359.22 123.03 370.37 119.17 Z" />
<path fill="#fefefe" opacity="1.00" d=" M 430.37 119.30 C 437.25 114.98 447.40 125.26 439.30 130.41 C 431.65 136.97 419.60 124.02 430.37 119.30 Z" />
<path fill="#fefefe" opacity="1.00" d=" M 352.38 121.35 C 358.96 117.55 368.15 126.64 360.97 131.95 C 353.57 138.56 341.78 125.76 352.38 121.35 Z" />
<path fill="#fefefe" opacity="1.00" d=" M 449.34 121.13 C 456.82 117.43 464.68 129.58 455.64 132.81 C 447.33 137.69 438.79 123.94 449.34 121.13 Z" />
<path fill="#fefefe" opacity="1.00" d=" M 336.38 126.26 C 342.72 122.57 351.92 131.71 344.39 136.45 C 337.40 142.74 326.35 130.34 336.38 126.26 Z" />
<path fill="#fefefe" opacity="1.00" d=" M 465.36 126.13 C 472.30 122.53 480.22 133.61 471.93 137.10 C 464.29 142.05 455.20 129.06 465.36 126.13 Z" />
<path fill="#fefefe" opacity="1.00" d=" M 402.38 135.09 C 408.16 131.98 415.16 140.99 408.32 144.35 C 401.80 149.15 393.66 137.76 402.38 135.09 Z" />
<path fill="#fefefe" opacity="1.00" d=" M 327.37 137.19 C 333.09 133.78 342.14 141.67 335.68 146.64 C 329.18 152.75 317.90 141.70 327.37 137.19 Z" />
<path fill="#fefefe" opacity="1.00" d=" M 474.36 137.16 C 480.87 133.27 488.77 143.38 481.10 147.21 C 474.01 152.64 464.41 139.96 474.36 137.16 Z" />
<path fill="#fefefe" opacity="1.00" d=" M 401.42 147.26 C 406.87 143.46 415.51 151.88 408.78 155.90 C 402.98 160.85 393.39 151.19 401.42 147.26 Z" />
<path fill="#fefefe" opacity="1.00" d=" M 323.45 150.23 C 328.57 146.88 337.64 153.00 332.47 158.47 C 327.02 165.00 314.82 155.31 323.45 150.23 Z" />
<path fill="#fefefe" opacity="1.00" d=" M 477.36 150.14 C 483.14 146.39 491.72 154.62 485.04 159.19 C 478.88 164.61 468.63 154.24 477.36 150.14 Z" />
<path fill="#fefefe" opacity="1.00" d=" M 401.38 159.13 C 406.63 155.79 415.23 162.55 409.36 167.43 C 403.87 173.04 393.50 163.52 401.38 159.13 Z" />
<path fill="#fefefe" opacity="1.00" d=" M 321.94 172.40 C 315.66 165.11 327.37 157.37 332.39 164.73 C 335.31 170.71 327.56 172.77 323.11 172.31 L 321.94 172.40 Z" />
<path fill="#fefefe" opacity="1.00" d=" M 478.41 162.31 C 483.99 159.02 491.87 167.34 485.18 171.25 C 479.01 176.01 469.98 165.82 478.41 162.31 Z" />
<path fill="#fefefe" opacity="1.00" d=" M 401.36 171.06 C 405.72 168.77 413.37 171.95 410.88 177.65 C 406.26 183.60 392.56 177.22 401.36 171.06 Z" />
<path fill="#fefefe" opacity="1.00" d=" M 327.36 173.26 C 333.02 170.99 338.89 179.57 332.13 182.26 C 325.55 186.66 318.84 175.14 327.36 173.26 Z" />
<path fill="#fefefe" opacity="1.00" d=" M 477.36 173.23 C 483.30 170.93 488.14 180.31 481.41 182.52 C 474.53 186.18 468.45 174.36 477.36 173.23 Z" />
<path fill="#fefefe" opacity="1.00" d=" M 368.00 198.28 C 385.99 175.63 424.33 175.73 441.97 198.71 C 450.80 193.99 461.43 192.25 471.18 194.85 C 467.24 198.44 465.65 205.30 460.01 206.39 C 460.86 203.76 461.74 201.06 461.42 198.25 C 460.83 198.31 459.65 198.41 459.06 198.46 C 458.81 197.66 458.56 196.85 458.31 196.04 C 457.85 198.93 457.38 201.82 457.00 204.73 C 462.75 208.98 458.75 215.03 456.86 220.21 C 422.77 213.42 387.02 212.95 353.00 220.42 C 351.79 216.91 350.45 213.45 349.13 209.99 C 353.45 206.35 353.48 200.96 351.52 196.04 C 351.34 196.73 351.00 198.11 350.82 198.80 C 350.05 198.12 349.29 197.44 348.52 196.77 C 347.74 197.09 346.96 197.41 346.18 197.72 C 347.97 200.37 349.33 203.28 350.22 206.35 C 344.34 205.63 342.65 198.55 338.77 194.85 C 348.56 191.95 358.81 194.61 368.00 198.28 M 402.21 196.23 C 399.94 196.18 397.68 196.13 395.42 196.10 C 395.50 197.72 395.58 199.33 395.66 200.95 C 396.17 200.90 397.19 200.82 397.70 200.77 L 397.57 200.00 C 399.01 199.98 400.46 199.96 401.92 199.92 C 402.06 203.24 402.29 206.55 402.72 209.85 C 403.39 209.35 404.06 208.85 404.74 208.35 C 405.08 208.72 405.76 209.45 406.10 209.82 C 405.77 207.82 405.55 205.82 405.22 203.83 C 405.40 202.42 405.36 201.01 405.09 199.60 C 407.53 199.98 409.98 200.41 412.41 200.92 C 411.79 199.48 411.16 198.03 410.54 196.59 C 408.69 196.42 406.84 196.26 405.00 196.11 C 405.24 193.13 405.56 190.16 405.97 187.20 C 405.18 187.74 404.40 188.27 403.62 188.80 C 403.68 188.06 403.80 186.59 403.87 185.86 C 401.28 188.70 402.37 192.76 402.21 196.23 M 377.29 191.84 C 377.24 194.95 377.86 198.00 379.08 200.86 C 381.14 198.08 380.39 193.62 377.29 191.84 M 427.56 192.99 C 427.67 195.23 427.75 197.47 427.93 199.71 C 429.41 197.87 429.72 195.50 430.04 193.25 C 429.42 193.18 428.18 193.06 427.56 192.99 M 421.62 197.90 C 421.52 199.15 421.42 200.41 421.33 201.66 C 423.11 201.75 424.89 201.83 426.67 201.90 C 426.42 205.15 425.72 208.85 428.45 211.30 C 429.76 205.65 428.71 198.30 421.62 197.90 M 380.09 202.00 C 381.96 202.31 383.83 202.63 385.70 203.00 C 385.59 201.59 385.49 200.18 385.39 198.78 C 383.46 199.56 381.67 200.64 380.09 202.00 M 428.49 199.68 C 428.84 203.24 433.31 202.85 435.91 203.80 C 435.49 200.02 431.72 199.26 428.49 199.68 M 353.37 207.21 C 357.13 207.25 360.86 206.69 364.52 205.89 C 364.31 204.43 364.11 202.96 363.90 201.50 C 360.34 203.14 355.00 203.07 353.37 207.21 M 371.80 203.03 C 374.25 203.74 378.79 204.51 378.56 200.59 C 376.02 200.53 373.56 201.09 371.80 203.03 M 446.19 204.87 C 445.63 205.04 444.49 205.38 443.92 205.54 C 446.25 206.09 448.58 206.63 450.92 207.13 C 452.80 207.16 454.69 207.17 456.58 207.14 C 455.30 203.44 450.57 203.37 447.51 201.81 C 445.72 200.39 443.97 204.39 446.19 204.87 M 379.17 202.34 C 378.97 204.31 378.79 206.30 378.60 208.28 C 379.27 209.58 379.94 210.88 380.60 212.20 C 381.04 210.45 381.71 208.78 382.44 207.14 L 381.52 207.41 C 380.81 205.68 380.01 204.00 379.17 202.34 M 351.92 207.54 C 352.28 210.69 352.80 213.81 353.30 216.93 C 353.61 216.10 353.93 215.26 354.25 214.43 C 354.94 215.06 355.63 215.69 356.33 216.32 C 357.05 216.15 357.78 215.99 358.51 215.83 C 356.83 212.74 356.24 207.76 351.92 207.54 M 455.23 207.87 C 453.93 210.37 452.59 212.84 451.18 215.28 C 452.11 215.64 453.04 216.01 453.97 216.39 C 454.54 215.34 455.12 214.28 455.70 213.23 C 456.00 214.50 456.31 215.76 456.62 217.03 C 457.18 213.98 457.75 210.93 458.24 207.87 C 457.48 207.87 455.98 207.87 455.23 207.87 Z" />
<path fill="#fefefe" opacity="1.00" d=" M 332.45 184.39 C 336.41 181.99 344.36 185.65 340.81 190.61 C 337.20 197.27 325.84 189.81 332.45 184.39 Z" />
<path fill="#fefefe" opacity="1.00" d=" M 469.36 184.20 C 474.38 181.43 481.12 188.99 475.13 192.26 C 469.55 196.58 461.72 187.16 469.36 184.20 Z" />
<path fill="#fefefe" opacity="1.00" d=" M 403.43 198.15 C 403.93 198.66 403.93 198.66 403.43 198.15 Z" />
<path fill="#fefefe" opacity="1.00" d=" M 354.00 221.96 C 379.79 222.25 407.07 226.82 433.51 223.31 C 441.04 223.55 448.76 218.78 455.99 221.94 C 445.70 227.67 433.37 226.77 422.01 228.16 C 399.43 228.14 375.29 230.52 354.00 221.96 Z" />
<path fill="#fefefe" opacity="1.00" d=" M 292.40 347.33 C 303.70 336.17 315.99 325.71 328.33 315.63 C 329.86 478.08 328.78 640.69 328.87 803.20 C 319.06 799.54 308.31 798.85 298.16 801.48 C 288.27 794.96 276.44 786.51 280.81 772.80 C 283.85 772.68 286.89 772.61 289.93 772.55 C 284.10 746.17 262.50 727.86 242.88 711.15 C 239.24 708.84 240.84 704.26 241.04 700.76 C 268.77 728.97 294.83 758.83 322.09 787.51 C 322.87 786.71 323.65 785.92 324.43 785.14 C 296.99 755.34 269.50 725.58 241.98 695.86 C 242.02 695.26 242.11 694.08 242.15 693.49 C 254.00 693.01 265.83 692.05 277.62 690.78 C 276.35 680.26 282.46 667.45 274.00 658.96 C 249.37 627.65 227.88 594.31 202.20 563.83 C 200.25 546.84 202.06 529.28 201.26 512.07 C 216.58 522.36 228.70 536.60 239.77 551.20 C 268.47 589.81 290.95 632.54 317.41 672.64 C 318.11 674.42 320.00 673.41 321.36 673.25 C 302.85 642.39 283.67 611.87 264.80 581.20 C 247.18 553.82 228.05 526.45 201.49 507.03 C 207.88 502.52 216.39 500.50 223.94 498.02 C 230.99 502.14 236.27 508.78 243.26 513.02 C 250.41 514.05 257.70 512.54 264.91 512.62 C 264.41 507.08 263.37 501.61 263.08 496.06 C 284.97 518.07 305.70 542.29 317.52 571.35 C 317.83 573.28 319.82 573.07 321.31 573.38 C 311.34 542.16 288.46 517.04 265.94 494.00 C 264.92 494.18 263.91 494.37 262.90 494.56 C 259.10 461.61 253.38 428.43 239.55 398.02 C 241.56 394.87 243.74 391.83 246.06 388.91 C 275.95 418.59 301.17 452.68 322.93 488.69 C 323.60 488.28 324.93 487.46 325.59 487.05 C 304.10 450.42 278.17 416.40 248.48 386.01 C 250.11 383.47 251.79 380.96 253.46 378.45 C 273.25 381.85 289.48 365.94 292.40 347.33 Z" />
<path fill="#fefefe" opacity="1.00" d=" M 334.83 317.15 C 335.28 316.70 336.18 315.81 336.63 315.37 C 360.80 328.28 391.42 342.07 399.33 370.68 C 404.27 371.60 409.20 372.64 413.98 374.20 C 408.13 403.28 395.89 430.87 379.50 455.50 C 369.72 477.71 359.23 500.52 341.95 517.97 C 339.82 519.55 337.59 520.98 335.38 522.44 C 333.83 454.10 334.92 385.56 334.83 317.15 Z" />
<path fill="#fefefe" opacity="1.00" d=" M 520.36 349.69 C 523.79 351.05 526.30 353.80 527.98 357.02 C 556.07 407.25 570.48 464.00 577.00 520.87 C 586.99 614.69 576.59 709.19 561.49 801.89 C 560.36 801.56 559.23 801.24 558.11 800.94 C 575.85 689.03 587.78 573.34 563.39 461.48 C 554.42 422.48 541.08 384.08 520.36 349.69 Z" />
<path fill="#fefefe" opacity="1.00" d=" M 528.05 350.00 C 533.85 352.41 536.16 358.75 539.06 363.84 C 580.16 442.85 590.49 533.93 587.78 621.84 C 586.53 683.31 577.99 744.27 568.49 804.91 C 567.32 804.54 566.15 804.16 565.00 803.81 C 578.59 717.35 588.93 629.63 582.48 541.98 C 577.08 475.39 562.00 408.17 528.05 350.00 Z" />
<path fill="#fefefe" opacity="1.00" d=" M 514.08 350.54 C 520.05 352.91 521.95 359.78 525.03 364.85 C 549.93 412.64 563.34 465.62 569.61 518.92 C 579.47 612.51 570.17 706.98 554.36 799.36 C 553.51 799.25 551.82 799.02 550.97 798.91 C 563.99 719.55 573.08 639.00 568.74 558.48 C 565.82 486.42 549.77 413.74 514.08 350.54 Z" />
<path fill="#fefefe" opacity="1.00" d=" M 465.45 440.05 C 475.26 409.85 486.43 379.52 503.32 352.54 C 505.07 501.66 503.66 650.96 504.03 800.14 C 492.18 794.55 475.24 796.25 471.74 811.13 C 482.67 810.76 494.10 812.98 502.96 819.73 C 488.83 816.83 474.30 815.91 459.93 817.11 C 453.97 787.29 448.90 757.22 446.08 726.93 C 463.42 743.97 479.78 762.01 496.79 779.38 C 498.38 782.01 501.96 778.58 499.21 776.91 C 481.97 758.78 464.75 740.61 447.35 722.62 C 442.71 718.76 444.72 712.08 443.62 706.84 C 437.29 689.60 448.88 676.60 457.50 663.07 C 451.83 662.84 446.19 662.30 440.62 661.24 C 439.44 650.52 439.33 639.75 439.33 628.98 C 451.89 652.86 480.71 662.53 492.00 687.42 C 492.77 687.24 494.30 686.88 495.07 686.70 C 484.08 655.30 436.87 645.81 439.43 608.42 C 458.73 595.39 459.14 568.26 469.30 548.79 C 478.83 557.59 486.35 568.33 495.71 577.29 C 496.17 576.67 497.09 575.43 497.56 574.81 C 489.12 564.50 479.58 555.10 471.35 544.64 C 472.47 537.57 476.33 531.12 478.28 524.20 C 485.51 509.54 482.72 492.74 484.25 476.99 C 478.19 476.46 472.22 475.26 466.36 473.67 C 466.19 472.17 466.03 470.67 465.88 469.18 C 465.20 469.01 463.83 468.68 463.15 468.51 C 464.57 460.38 460.87 451.85 464.18 444.17 C 475.92 451.69 482.64 466.70 496.74 470.25 C 496.75 469.51 496.76 468.03 496.77 467.29 C 484.01 461.14 476.50 448.48 465.45 440.05 Z" />
<path fill="#fefefe" opacity="1.00" d=" M 508.91 379.00 C 509.16 370.13 508.14 361.17 509.76 352.37 C 524.27 373.17 532.94 397.56 541.51 421.29 C 542.59 425.56 545.95 430.66 542.60 434.69 C 535.21 445.07 526.99 455.58 515.23 461.23 C 515.23 461.97 515.25 463.45 515.26 464.19 C 529.15 460.38 537.68 447.20 545.74 436.17 C 553.32 459.83 557.29 484.46 561.06 508.96 C 561.08 511.14 562.26 514.42 559.56 515.49 C 544.21 523.32 530.69 534.42 519.20 547.22 C 517.12 549.80 513.19 552.64 515.97 556.12 C 529.31 541.45 543.65 526.20 562.46 518.83 C 565.35 547.10 566.67 575.53 566.24 603.97 C 543.70 618.41 529.85 642.24 516.88 664.91 C 517.87 665.35 518.87 665.79 519.88 666.24 C 532.74 645.43 544.93 622.34 566.08 608.79 C 566.25 647.72 562.48 686.56 558.39 725.24 C 535.65 730.22 528.24 755.97 516.05 772.86 C 517.03 773.33 518.01 773.81 519.00 774.30 C 531.09 759.21 536.88 735.36 557.22 729.49 C 555.38 752.42 551.10 775.10 547.61 797.83 C 537.86 795.61 521.78 795.14 521.53 808.89 C 536.03 809.84 551.80 812.75 562.21 823.80 C 566.87 829.18 572.83 833.09 578.24 837.64 C 568.56 840.73 562.30 832.74 559.09 824.89 C 546.02 809.74 522.02 818.78 509.00 802.88 C 508.79 661.60 508.97 520.30 508.91 379.00 Z" />
<path fill="#fefefe" opacity="1.00" d=" M 417.22 375.03 C 420.49 375.41 423.74 375.95 426.99 376.50 C 421.03 400.92 412.85 424.84 407.85 449.45 C 421.46 451.26 435.17 452.10 448.75 454.11 C 444.08 469.96 439.08 485.71 434.45 501.57 C 433.32 506.79 428.08 509.15 424.51 512.50 C 391.40 540.86 362.15 573.90 338.70 610.67 C 336.79 612.87 340.42 615.02 341.49 612.38 C 366.92 573.25 398.35 538.00 434.53 508.50 C 442.15 492.73 445.15 474.74 451.05 458.12 C 451.58 453.35 456.58 454.98 459.89 455.18 C 458.93 469.64 460.89 485.02 454.35 498.43 C 444.86 522.95 436.01 547.74 426.11 572.08 C 423.37 580.46 412.46 580.81 410.10 589.18 C 402.05 607.13 392.92 624.64 385.49 642.85 C 400.29 643.56 415.13 643.19 429.92 644.13 C 424.32 650.45 422.13 660.72 413.18 663.13 C 381.86 685.09 355.10 715.17 341.00 751.03 C 341.96 751.30 342.93 751.58 343.89 751.87 C 358.83 717.29 384.12 687.56 415.08 666.27 C 406.63 680.00 396.22 692.70 389.10 707.13 C 389.00 719.98 405.80 724.79 413.62 733.50 C 413.71 736.49 413.70 739.48 413.60 742.48 C 398.93 751.37 384.90 761.30 370.40 770.45 C 369.35 778.85 369.80 787.36 368.62 795.75 C 357.09 790.51 347.48 799.27 344.42 809.94 C 340.99 808.81 337.51 807.57 334.69 805.24 C 334.59 713.47 334.76 621.69 334.60 529.93 C 334.55 527.95 335.27 526.09 336.37 524.49 C 337.05 524.88 338.40 525.65 339.08 526.04 C 365.68 502.68 374.81 467.42 393.71 438.78 C 404.74 418.87 412.29 397.21 417.22 375.03 Z" />
<path fill="#fefefe" opacity="1.00" d=" M 426.08 393.76 C 428.05 393.96 430.02 394.17 432.00 394.39 C 427.96 411.92 423.19 429.26 418.67 446.66 C 416.49 446.65 414.31 446.64 412.14 446.66 C 415.83 428.79 421.53 411.41 426.08 393.76 Z" />
<path fill="#fefefe" opacity="1.00" d=" M 434.50 399.14 C 435.64 399.42 436.79 399.71 437.94 400.00 C 434.83 415.79 429.60 431.06 426.55 446.87 C 425.28 447.01 424.01 447.15 422.74 447.29 C 425.48 430.99 431.24 415.35 434.50 399.14 Z" />
<path fill="#fefefe" opacity="1.00" d=" M 441.59 400.98 C 443.88 401.58 446.17 402.20 448.46 402.86 C 444.89 418.26 440.05 433.34 436.49 448.74 C 434.32 448.71 432.15 448.66 429.99 448.63 C 433.05 432.56 437.98 416.91 441.59 400.98 Z" />
<path fill="#fefefe" opacity="1.00" d=" M 465.35 478.16 C 466.08 478.07 467.53 477.88 468.26 477.79 C 471.94 511.63 454.57 541.68 444.94 573.02 C 440.26 584.39 438.65 599.43 425.71 604.66 C 419.59 615.85 415.35 628.17 409.82 639.74 C 407.96 639.81 406.10 639.88 404.25 639.96 C 410.08 626.62 415.96 613.30 421.93 600.02 C 436.21 594.50 437.61 577.39 442.97 565.10 C 451.32 536.31 468.25 509.09 465.35 478.16 Z" />
<path fill="#fefefe" opacity="1.00" d=" M 472.25 479.63 C 474.93 479.75 477.61 479.86 480.30 479.95 C 479.62 494.14 481.84 509.26 475.36 522.43 C 466.48 545.86 458.13 569.50 448.94 592.80 C 446.59 599.51 440.96 603.79 434.96 606.92 C 429.29 617.58 424.64 628.81 419.59 639.78 C 417.71 639.88 415.84 639.97 413.97 640.06 C 418.33 629.27 422.75 618.37 427.96 608.00 C 440.91 601.58 443.75 586.67 448.27 574.33 C 457.63 543.16 474.81 512.55 472.25 479.63 Z" />
<path fill="#fefefe" opacity="1.00" d=" M 431.23 569.15 C 442.01 542.66 451.28 515.56 461.70 488.92 C 460.72 517.23 445.25 542.60 437.61 569.52 C 433.62 579.45 431.59 593.57 419.49 596.73 C 413.08 610.96 406.71 625.21 400.61 639.57 C 397.16 639.66 393.71 639.70 390.27 639.81 C 398.97 622.23 406.52 604.04 415.53 586.64 C 422.98 583.20 428.46 576.88 431.23 569.15 Z" />
<path fill="#fefefe" opacity="1.00" d=" M 424.15 659.20 C 426.08 655.32 430.85 657.14 434.27 657.02 C 422.57 676.96 410.03 696.42 397.82 716.06 C 394.32 714.02 390.27 710.32 393.08 706.00 C 403.43 690.41 413.83 674.82 424.15 659.20 Z" />
<path fill="#fefefe" opacity="1.00" d=" M 434.09 664.73 C 436.19 664.76 438.29 664.80 440.40 664.85 C 429.55 684.35 417.04 702.95 405.52 722.08 C 403.93 720.63 399.85 719.33 401.72 716.62 C 412.42 699.28 423.41 682.09 434.09 664.73 Z" />
<path fill="#fefefe" opacity="1.00" d=" M 444.14 666.16 C 446.68 666.13 449.24 666.11 451.79 666.06 C 438.05 686.23 425.04 706.89 411.58 727.24 C 406.15 725.01 411.06 720.18 412.89 716.92 C 423.30 699.99 433.92 683.20 444.14 666.16 Z" />
<path fill="#fefefe" opacity="1.00" d=" M 373.51 772.52 C 389.31 763.80 403.47 750.88 419.68 743.85 C 419.74 747.06 419.71 750.28 419.59 753.50 C 405.99 762.45 392.77 771.98 379.51 781.41 C 379.19 787.23 378.98 793.07 378.63 798.90 C 367.05 796.07 375.00 781.06 373.51 772.52 Z" />
<path fill="#fefefe" opacity="1.00" d=" M 422.74 744.27 C 427.17 747.50 431.06 751.41 435.59 754.52 C 435.65 757.26 435.69 760.01 435.73 762.76 C 421.98 772.35 407.62 781.11 394.02 790.90 C 392.02 795.87 393.19 801.80 392.47 807.14 C 386.78 804.18 389.06 797.38 389.30 792.26 C 402.43 782.57 416.11 773.63 429.27 763.97 C 431.38 755.87 427.66 750.02 422.74 744.27 Z" />
<path fill="#fefefe" opacity="1.00" d=" M 423.75 751.02 C 426.39 754.05 426.12 758.10 425.98 761.87 C 412.62 771.31 399.23 780.73 385.85 790.14 C 385.64 793.82 385.56 797.50 385.51 801.19 C 378.63 798.97 384.34 788.75 383.09 783.16 C 395.90 771.85 415.15 765.51 423.75 751.02 Z" />
</g>
<g id="#810202ff">
<path fill="#810202" opacity="1.00" d=" M 345.11 144.14 C 356.08 132.85 373.90 134.70 387.89 138.04 C 389.06 152.65 391.57 167.12 392.94 181.72 C 383.30 184.06 374.77 189.23 367.84 196.24 C 362.09 195.26 356.42 193.62 350.77 192.17 C 340.64 179.23 333.34 158.32 345.11 144.14 M 345.38 158.24 C 345.21 171.04 349.83 189.83 365.90 188.85 C 371.67 183.49 378.77 180.17 385.64 176.58 C 385.44 165.72 383.71 154.72 381.89 144.06 C 369.27 139.18 347.84 141.59 345.38 158.24 Z" />
<path fill="#810202" opacity="1.00" d=" M 422.18 138.09 C 436.88 135.15 455.59 132.57 466.20 145.81 C 475.91 160.39 468.99 179.45 459.19 192.08 C 453.60 194.00 447.59 194.55 441.98 196.50 C 435.40 189.03 426.49 184.28 416.96 181.69 C 418.37 167.12 420.58 152.64 422.18 138.09 M 427.61 143.56 C 426.68 154.66 424.30 165.63 424.18 176.79 C 431.40 179.80 438.03 183.95 444.10 188.87 C 447.93 188.03 451.77 187.22 455.62 186.47 C 462.26 176.34 468.30 162.72 461.86 151.07 C 454.51 140.04 439.01 141.26 427.61 143.56 Z" />
<path fill="#810202" opacity="1.00" d=" M 0.00 226.29 C 1.98 225.81 1.98 229.09 0.00 228.62 L 0.00 226.29 Z" />
</g>
<g id="#969393ff">
<path fill="#969393" opacity="1.00" d=" M 402.21 196.23 C 402.37 192.76 401.28 188.70 403.87 185.86 C 403.80 186.59 403.68 188.06 403.62 188.80 C 403.32 191.37 402.88 193.92 402.42 196.46 C 400.67 196.87 398.92 197.29 397.17 197.72 C 397.27 198.29 397.47 199.43 397.57 200.00 L 397.70 200.77 C 397.19 200.82 396.17 200.90 395.66 200.95 C 395.58 199.33 395.50 197.72 395.42 196.10 C 397.68 196.13 399.94 196.18 402.21 196.23 Z" />
<path fill="#969393" opacity="1.00" d=" M 401.92 199.92 L 402.90 199.90 C 403.01 202.16 403.06 204.42 403.03 206.69 C 403.76 205.74 404.49 204.78 405.22 203.83 C 405.55 205.82 405.77 207.82 406.10 209.82 C 405.76 209.45 405.08 208.72 404.74 208.35 C 404.06 208.85 403.39 209.35 402.72 209.85 C 402.29 206.55 402.06 203.24 401.92 199.92 Z" />
<path fill="#969393" opacity="1.00" d=" M 446.19 204.87 C 446.62 204.73 447.48 204.45 447.91 204.32 C 448.91 205.25 449.92 206.18 450.92 207.13 C 448.58 206.63 446.25 206.09 443.92 205.54 C 444.49 205.38 445.63 205.04 446.19 204.87 Z" />
<path fill="#969393" opacity="1.00" d=" M 381.52 207.41 L 382.44 207.14 C 381.71 208.78 381.04 210.45 380.60 212.20 C 379.94 210.88 379.27 209.58 378.60 208.28 C 379.33 208.06 380.79 207.63 381.52 207.41 Z" />
<path fill="#969393" opacity="1.00" d=" M 421.23 914.55 C 421.31 914.47 421.49 914.31 421.58 914.24 C 421.49 914.31 421.31 914.47 421.23 914.55 Z" />
</g>
<g id="#c2c1c3ff">
<path fill="#c2c1c3" opacity="1.00" d=" M 446.19 204.87 C 443.97 204.39 445.72 200.39 447.51 201.81 C 447.67 202.63 447.81 203.47 447.91 204.32 C 447.48 204.45 446.62 204.73 446.19 204.87 Z" />
</g>
<g id="#4e35e8ff">
<path fill="#4e35e8" opacity="1.00" d=" M 363.42 219.91 C 390.69 214.69 418.91 215.60 446.32 219.44 C 419.22 224.91 390.68 223.96 363.42 219.91 Z" />
<path fill="#4e35e8" opacity="1.00" d=" M 8.05 852.68 C 8.12 852.82 8.25 853.09 8.31 853.22 C 8.25 853.09 8.12 852.82 8.05 852.68 Z" />
</g>
<g id="#ecededff">
<path fill="#eceded" opacity="1.00" d=" M 328.23 314.87 C 329.19 314.12 330.14 313.37 331.10 312.63 C 333.13 313.36 335.15 314.10 337.19 314.82 L 336.63 315.37 C 336.18 315.81 335.28 316.70 334.83 317.15 C 334.92 385.56 333.83 454.10 335.38 522.44 C 337.59 520.98 339.82 519.55 341.95 517.97 C 340.33 520.34 338.30 522.38 336.37 524.49 C 335.27 526.09 334.55 527.95 334.60 529.93 C 334.76 621.69 334.59 713.47 334.69 805.24 C 332.66 804.84 330.70 804.16 328.87 803.20 C 328.78 640.69 329.86 478.08 328.33 315.63 L 328.23 314.87 Z" />
<path fill="#eceded" opacity="1.00" d=" M 503.19 351.64 C 505.28 350.15 507.67 350.48 509.91 351.43 L 509.76 352.37 C 508.14 361.17 509.16 370.13 508.91 379.00 C 508.97 520.30 508.79 661.60 509.00 802.88 C 507.34 802.28 505.68 801.67 504.02 801.08 L 504.03 800.14 C 503.66 650.96 505.07 501.66 503.32 352.54 L 503.19 351.64 Z" />
</g>
<g id="#0e18b6ff">
<path fill="#0e18b6" opacity="1.00" d=" M 443.26 436.15 C 445.59 436.16 447.92 436.19 450.26 436.21 C 448.21 436.45 446.18 436.75 444.15 437.05 C 442.87 440.67 441.73 444.34 440.75 448.06 C 442.84 448.73 444.94 449.42 447.07 450.00 C 444.67 449.91 442.28 449.79 439.89 449.65 C 440.53 445.04 441.78 440.55 443.26 436.15 Z" />
<path fill="#0e18b6" opacity="1.00" d=" M 462.27 436.27 L 462.47 435.61 C 461.35 441.22 461.12 448.53 456.17 452.17 L 456.52 451.42 C 458.97 446.59 460.53 441.38 462.27 436.27 Z" />
<path fill="#0e18b6" opacity="1.00" d=" M 591.25 573.77 C 592.23 589.23 592.11 604.76 591.26 620.23 C 591.28 604.74 591.32 589.25 591.25 573.77 Z" />
<path fill="#0e18b6" opacity="1.00" d=" M 423.97 640.08 C 427.91 639.90 431.86 639.86 435.81 639.96 C 436.17 644.33 436.30 648.72 436.18 653.10 C 433.73 653.04 431.28 653.00 428.83 652.96 C 431.06 648.92 433.90 645.22 435.56 640.88 C 431.68 640.82 427.79 640.80 423.97 640.08 Z" />
<path fill="#0e18b6" opacity="1.00" d=" M 272.12 687.81 C 273.72 683.98 274.74 679.92 274.92 675.78 C 274.74 679.70 274.62 683.63 274.49 687.56 C 273.90 687.62 272.71 687.74 272.12 687.81 Z" />
<path fill="#0e18b6" opacity="1.00" d=" M 439.02 695.81 C 440.55 705.99 441.62 716.32 441.74 726.62 C 440.53 716.38 439.24 706.13 439.02 695.81 Z" />
<path fill="#0e18b6" opacity="1.00" d=" M 441.80 727.50 C 443.96 727.85 444.00 732.16 442.75 733.72 C 442.12 731.70 441.84 729.60 441.80 727.50 Z" />
<path fill="#0e18b6" opacity="1.00" d=" M 417.45 733.53 C 418.97 735.32 420.63 737.01 422.37 738.60 C 419.64 738.21 418.50 735.74 417.45 733.53 Z" />
<path fill="#0e18b6" opacity="1.00" d=" M 424.04 740.00 C 425.87 741.48 427.64 743.03 429.36 744.66 C 426.81 744.16 425.39 741.99 424.04 740.00 Z" />
<path fill="#0e18b6" opacity="1.00" d=" M 443.90 743.38 C 445.97 743.90 445.93 748.24 444.60 749.80 C 444.16 747.68 443.79 745.54 443.90 743.38 Z" />
<path fill="#0e18b6" opacity="1.00" d=" M 444.74 750.63 C 446.40 754.56 446.70 758.84 446.87 763.06 C 445.88 758.97 445.27 754.80 444.74 750.63 Z" />
<path fill="#0e18b6" opacity="1.00" d=" M 448.00 770.86 C 449.41 774.77 449.68 778.93 449.86 783.06 C 448.80 779.07 448.18 774.98 448.00 770.86 Z" />
<path fill="#0e18b6" opacity="1.00" d=" M 451.02 789.84 C 452.80 795.10 453.38 800.64 453.69 806.16 C 452.38 800.79 451.39 795.36 451.02 789.84 Z" />
<path fill="#0e18b6" opacity="1.00" d=" M 396.18 804.30 C 396.53 800.23 395.01 795.41 397.94 792.03 C 397.49 796.13 396.72 800.20 396.18 804.30 Z" />
<path fill="#0e18b6" opacity="1.00" d=" M 453.86 807.02 C 455.70 810.10 455.55 813.73 455.65 817.19 C 454.91 813.82 454.43 810.41 453.86 807.02 Z" />
<path fill="#0e18b6" opacity="1.00" d=" M 397.54 809.92 C 398.93 810.86 400.15 812.05 401.22 813.36 C 399.46 814.76 396.25 811.75 397.54 809.92 Z" />
<path fill="#0e18b6" opacity="1.00" d=" M 296.89 813.88 C 303.29 813.96 309.15 816.84 314.09 820.73 C 309.80 819.56 305.59 818.15 301.41 816.66 C 299.88 815.76 298.41 814.78 296.89 813.88 Z" />
<path fill="#0e18b6" opacity="1.00" d=" M 360.11 820.86 C 362.92 822.67 365.37 825.02 367.08 827.92 C 364.51 825.82 362.15 823.48 360.11 820.86 Z" />
<path fill="#0e18b6" opacity="1.00" d=" M 417.97 824.07 C 425.82 826.27 434.09 825.77 441.94 823.84 C 434.50 827.16 425.40 827.78 417.97 824.07 Z" />
<path fill="#0e18b6" opacity="1.00" d=" M 633.76 826.12 C 635.77 826.24 637.78 826.28 639.81 826.34 C 639.80 830.31 639.71 834.28 639.87 838.25 C 639.54 834.51 639.17 830.78 638.86 827.05 C 637.15 826.71 635.46 826.38 633.76 826.12 Z" />
<path fill="#0e18b6" opacity="1.00" d=" M 377.06 836.88 C 379.76 837.56 382.51 838.07 385.26 838.55 C 382.42 838.60 379.48 838.56 377.06 836.88 Z" />
<path fill="#0e18b6" opacity="1.00" d=" M 640.28 844.75 C 640.47 847.74 640.72 850.73 640.93 853.74 C 527.58 853.73 414.21 854.33 300.87 853.39 C 413.93 853.06 527.00 853.70 640.07 853.10 C 640.18 850.31 640.30 847.53 640.28 844.75 Z" />
<path fill="#0e18b6" opacity="1.00" d=" M 164.63 853.65 C 165.41 852.74 166.19 851.83 167.01 850.97 C 166.76 851.55 166.26 852.70 166.01 853.28 C 172.38 853.36 178.76 853.32 185.13 853.37 C 178.31 853.75 171.46 854.30 164.63 853.65 Z" />
<path fill="#0e18b6" opacity="1.00" d=" M 186.87 853.37 C 195.62 853.29 204.38 853.28 213.13 853.38 C 204.38 853.99 195.62 854.01 186.87 853.37 Z" />
<path fill="#0e18b6" opacity="1.00" d=" M 214.87 853.38 C 223.62 853.28 232.38 853.28 241.13 853.38 C 232.39 854.01 223.62 854.00 214.87 853.38 Z" />
<path fill="#0e18b6" opacity="1.00" d=" M 242.87 853.38 C 261.62 853.24 280.37 853.23 299.13 853.40 C 280.39 854.02 261.60 854.01 242.87 853.38 Z" />
</g>
<g id="#ff8000ff">
<path fill="#ff8000" opacity="1.00" d=" M 378.16 809.96 C 393.17 818.01 404.37 833.49 422.14 835.94 C 442.10 840.11 459.07 823.55 479.10 827.12 C 493.56 826.28 512.72 841.09 522.85 824.87 C 536.09 821.92 553.91 826.41 554.62 842.84 C 507.38 841.41 458.49 852.18 412.49 837.51 C 397.98 832.92 386.82 822.05 378.16 809.96 Z" />
<path fill="#ff8000" opacity="1.00" d=" M 322.89 812.91 C 340.34 817.11 355.06 828.72 365.83 842.77 C 323.39 844.06 280.92 843.85 238.48 842.41 C 228.90 841.43 217.53 842.91 210.73 834.52 C 219.19 830.78 228.78 831.55 236.69 836.19 C 254.23 839.25 271.75 832.62 288.11 826.95 C 303.15 823.56 315.82 837.41 330.26 835.18 C 340.63 828.30 331.87 815.91 322.89 812.91 Z" />
<path fill="#ff8000" opacity="1.00" d=" M 572.13 819.11 C 590.79 826.56 609.90 833.20 629.86 836.13 C 629.90 838.40 629.96 840.67 630.04 842.95 C 618.40 842.66 606.51 843.93 595.03 841.91 C 586.19 835.70 581.01 825.44 572.13 819.11 Z" />
</g>
<g id="#676564ff">
<path fill="#676564" opacity="1.00" d=" M 0.00 811.33 C 1.22 824.71 2.57 838.24 7.23 850.95 C 2.38 843.54 2.02 834.59 0.00 826.24 L 0.00 811.33 Z" />
<path fill="#676564" opacity="1.00" d=" M 7.58 851.70 C 7.65 851.85 7.79 852.13 7.85 852.28 C 7.79 852.13 7.65 851.85 7.58 851.70 Z" />
</g>
</svg>
