<?xml version="1.0" encoding="UTF-8" standalone="no"?>
<svg
   xmlns:dc="http://purl.org/dc/elements/1.1/"
   xmlns:cc="http://web.resource.org/cc/"
   xmlns:rdf="http://www.w3.org/1999/02/22-rdf-syntax-ns#"
   xmlns:svg="http://www.w3.org/2000/svg"
   xmlns="http://www.w3.org/2000/svg"
   xmlns:sodipodi="http://sodipodi.sourceforge.net/DTD/sodipodi-0.dtd"
   xmlns:inkscape="http://www.inkscape.org/namespaces/inkscape"
   width="2930"
   height="4063"
   id="svg8931"
   sodipodi:version="0.32"
   inkscape:version="0.45.1"
   sodipodi:docname="divbig.svg"
   inkscape:output_extension="org.inkscape.output.svg.inkscape"
   sodipodi:docbase="C:\Downloads\SVG\autotrace-0.31.1-w32">
  <metadata
     id="metadata8990">
    <rdf:RDF>
      <cc:Work
         rdf:about="">
        <dc:format>image/svg+xml</dc:format>
        <dc:type
           rdf:resource="http://purl.org/dc/dcmitype/StillImage" />
      </cc:Work>
    </rdf:RDF>
  </metadata>
  <defs
     id="defs8988" />
  <sodipodi:namedview
     inkscape:window-height="1005"
     inkscape:window-width="1280"
     inkscape:pageshadow="2"
     inkscape:pageopacity="0.0"
     guidetolerance="10.0"
     gridtolerance="10.0"
     objecttolerance="10.0"
     borderopacity="1.0"
     bordercolor="#666666"
     pagecolor="#ffffff"
     id="base"
     inkscape:zoom="0.18606941"
     inkscape:cx="368.14316"
     inkscape:cy="961.75193"
     inkscape:window-x="-4"
     inkscape:window-y="-4"
     inkscape:current-layer="svg8931" />
  <path
     style="fill:#000000; stroke:none;"
     d="M24 24L24 2732L24 3425L24 3567C24 3611.45 23.7549 3656.06 40.7569 3698C48.0725 3716.04 59.7592 3732.3 71.0394 3748C97.9853 3785.5 149.445 3816.16 195 3823.68C230.058 3829.46 266.585 3827 302 3827L452 3827L1094 3827L1256 3827C1290.05 3827 1324.82 3824.72 1355 3843.47C1377.58 3857.49 1388.9 3884.3 1400.25 3907C1421.99 3950.49 1446.32 3994.13 1465 4039L1466 4039C1483.14 3997.82 1505.31 3958.16 1524.74 3918C1539.34 3887.83 1551.8 3857.2 1582 3839.33C1608.85 3823.43 1642.21 3827 1672 3827L1839 3827L2480 3827L2627 3827C2657.91 3827 2690.33 3829.69 2721 3825.71C2779.12 3818.16 2832.89 3785.83 2866.56 3738C2904.69 3683.84 2906 3624.56 2906 3561L2906 3428L2906 2728L2906 24L24 24z"
     id="path8935" />
  <path
     style="fill:#ffffff; stroke:none;"
     d="M71 71L71 709L2858 709L2858 71L71 71z"
     id="path8937" />
  <path
     style="fill:#ed1c24; stroke:none;"
     d="M142 142L142 638L2787 638L2787 142L142 142z"
     id="path8939" />
  <path
     style="fill:#000000; stroke:none;"
     d="M430.04 269.653C423.725 271.735 420.33 280.651 417.281 286C409.034 300.467 400.368 314.72 391.8 329C373.305 359.827 355.593 391.117 337.201 422C328.914 435.914 321.82 453.006 310.674 464.891C303.869 472.148 292.256 466.924 285.699 473.652C276.485 483.106 275.683 506.611 272.626 519C271.542 523.394 268.443 530.349 271.18 534.606C274.66 540.019 285.575 538.833 289.482 534.771C300.222 523.608 304.263 502.415 320 496.403C333.125 491.389 353.049 495 367 495L435 495C448.735 495 463.507 493.885 477 496.819C491.367 499.943 494.165 514.705 497.371 527C499.758 536.156 504.519 542.797 514.956 538.272C520.146 536.022 520.307 529.902 520.834 525C522.135 512.89 528.46 492.475 523.852 481.015C520.111 471.71 507.656 472.01 503.711 462C496.497 443.696 493.643 423.094 489.116 404C481.796 373.125 473.301 342.328 463.975 312C458.512 294.231 456.396 260.964 430.04 269.653M1444 269.71C1394.6 270.367 1348.3 294.726 1324.31 339C1299.19 385.366 1298.41 461.502 1353 488.099C1373.57 498.119 1395.68 498.262 1418 497.996C1476.48 497.3 1525.83 449.396 1540.12 395C1552.59 347.511 1535.09 292.175 1485 275.671C1471.7 271.289 1457.96 269.524 1444 269.71M1886 269.71C1836.6 270.367 1790.3 294.726 1766.31 339C1741.19 385.366 1740.41 461.502 1795 488.099C1815.57 498.119 1837.68 498.262 1860 497.996C1918.48 497.3 1967.83 449.396 1982.12 395C1994.59 347.511 1977.09 292.175 1927 275.671C1913.7 271.289 1899.96 269.524 1886 269.71M2494 367C2497.26 354.414 2499.5 340.918 2500.95 328C2501.72 321.104 2501.57 310.181 2505.18 304.145C2512.71 291.538 2535.51 303.579 2539.19 284C2539.61 281.765 2540.13 279.306 2539.24 277.109C2536.14 269.397 2521.14 273.913 2515 273.996C2492.26 274.303 2469.65 273.072 2447 273C2440.78 272.98 2429.17 270.343 2425.65 277.109C2424.57 279.179 2424 281.745 2423.44 284C2418.78 302.859 2449.39 293.779 2449.98 309.004C2450.4 319.773 2446.65 330.436 2445.13 341C2440.9 370.423 2434.93 399.589 2430.58 429C2429.26 437.926 2429.56 456.062 2422.72 462.582C2414.99 469.954 2401.7 469.84 2393.13 475.994C2389.22 478.809 2386.4 488.457 2389.76 492.566C2394.45 498.317 2408.67 494.031 2415 494.001C2432.7 493.915 2450.36 493.881 2468 495.09C2476.59 495.678 2488.72 498.398 2496.98 495.106C2503.39 492.552 2505.22 481.458 2500.57 476.529C2495.5 471.169 2484.91 468.887 2478 467C2483.32 449.475 2484.51 429.175 2487 411C2487.5 407.331 2487.21 393.706 2492.15 393.241C2500.86 392.422 2508.09 407.797 2511.19 414C2520.76 433.143 2528.51 453.73 2535.33 474C2537.22 479.621 2538.56 492.647 2545.05 494.566C2550.98 496.319 2557.96 494.03 2564 494.001C2577.86 493.934 2597.74 498.593 2610.89 494.566C2615.76 493.076 2617.87 484.396 2616.24 480.019C2613.65 473.029 2602.66 472.096 2597 468.451C2588.13 462.735 2583.79 454.149 2579.25 445C2567.12 420.565 2561.02 378.857 2534 366C2545.07 350.279 2558.78 334.612 2571.43 320C2574.98 315.898 2582.05 307.125 2587.98 306.832C2593.85 306.542 2597.23 318.216 2600.38 321.96C2608.01 331.018 2622.51 331.203 2632 324.892C2647.31 314.702 2650.58 287.239 2634.98 275.789C2623.47 267.332 2605.81 268.492 2593 273.09C2565.34 283.023 2547.31 308.42 2530.37 331C2520.14 344.643 2509.88 359.577 2494 367M2312 270.428C2254.75 278.624 2209.3 322.396 2197.8 379C2189.24 421.114 2198.87 466.089 2240 487.68C2260.24 498.304 2283.84 498 2306 498C2324 498 2343.38 496.175 2360 488.688C2377.32 480.888 2379.31 463.355 2385.42 447C2387.22 442.203 2392.82 431.899 2386.77 428.179C2371.08 418.526 2358.08 438.272 2349 446.961C2327.74 467.3 2289.65 486.203 2265.19 458.985C2253.98 446.515 2251.23 425.996 2252.83 410C2255.78 380.511 2261.32 350.734 2278.72 326C2288.17 312.565 2302.53 298.449 2320 298.015C2335.98 297.617 2350.13 300.438 2361.99 312.039C2372.88 322.699 2379.92 346.399 2399.78 337.258C2404.48 335.09 2403.99 328.286 2404 324C2404.02 313.128 2403.17 302.787 2401.95 292C2401.47 287.784 2401.33 281.86 2397.61 279.089C2392.11 275 2381.62 274.197 2375 273.081C2355.05 269.719 2332.15 267.543 2312 270.428M981 371C991.182 365.057 1000.67 360.104 1007.48 350C1025.42 323.391 1015.1 290.121 986 277.876C957.828 266.021 923.477 274 894 274C879.988 274 866.052 274.999 852 275C847.067 275 840.099 274.106 837.178 279.134C836.003 281.157 835.908 283.737 835.579 286C834.099 296.2 837.217 299.088 847 300.424C851.32 301.013 859.325 299.947 859.566 306.044C860.038 317.945 856.246 331.253 854.424 343C850.597 367.676 846.859 392.366 842.753 417C840.752 429.009 839.047 441.111 836.424 453C835.388 457.698 834.916 464.118 830.775 467.261C823.77 472.58 811.858 467.942 805.433 474.43C801.449 478.452 798.432 492.72 805.059 495.396C818.326 500.755 842.003 495.048 856 494.09C897.953 491.216 944.746 502.679 981 475.101C1013.68 450.239 1026.91 390.214 981 371M1600 301C1595.88 333.448 1589.44 365.676 1584.42 398C1581.53 416.645 1580.59 436.965 1574.97 455C1569.14 473.74 1537.31 464.55 1538.77 487.999C1539.41 498.292 1555.99 495 1563 495C1585.07 495 1607.01 494.893 1629 494.999C1635.47 495.031 1647.41 497.29 1652.44 492.427C1670.05 475.408 1639.44 467.683 1628 466L1646.08 353L1654 302C1670.06 302 1686 302.26 1702 302.961C1707.83 303.216 1717.76 301.684 1722.61 305.604C1731.3 312.623 1728.66 335.095 1738.13 339.258C1761.89 349.697 1761.15 311.061 1763.41 297C1764.43 290.643 1766.21 281.109 1758.91 277.703C1747.27 272.276 1729.5 275 1717 275C1685.57 275 1653.35 277.058 1622 274.91C1610.67 274.135 1599.33 273.688 1588 272.91C1583.49 272.601 1578.39 270.934 1574.13 273.318C1568.17 276.656 1566.63 291.07 1572.15 295.272C1578.43 300.051 1592.33 300.842 1600 301M621 416C625.211 393.401 629.595 370.76 632.869 348C634.747 334.946 635.108 317.048 640.703 305.059C646.704 292.199 669.514 305.94 673.764 288C674.289 285.783 674.943 283.298 674.682 281.004C673.547 271.023 657.923 274 651 274L587 274C580.588 274 568.625 271.714 563.652 276.653C561.738 278.554 560.955 281.427 560.468 284C557.338 300.525 573.917 299.473 586 301C585.98 331.225 577.407 362.319 572.25 392C568.373 414.317 567.026 439.549 559.467 460.956C556.534 469.262 541.97 467.304 535.005 469.419C528.703 471.332 525.977 480.957 526.319 486.995C526.836 496.145 543.835 493 550 493C570.851 493 592.201 491.665 613 493.09C619.793 493.555 631.982 496.782 637.57 491.486C639.614 489.55 640.226 486.626 640.869 484C645.112 466.65 625.879 466.017 613 465C615.972 449.233 632.535 439.2 644 428.83C672.207 403.318 698.755 374.045 729 351C725.937 374.72 721.064 398.41 717.081 422C715.037 434.104 714.489 449.751 709.146 460.891C706.836 465.707 700.596 465.594 696 466.424C684.368 468.527 673.759 471.646 674.833 485.995C675.575 495.898 691.296 493 698 493C719.666 493 741.334 492.896 763 493.001C769.625 493.033 780.995 496.847 786.297 491.347C788.432 489.132 788.714 485.885 789.13 483C791.388 467.341 776.614 465.604 764 463C767.919 451.424 768.391 438.058 770.414 426C776.835 387.706 779.281 346.363 789.862 309.005C794.782 291.634 826.367 306.581 823.485 280.015C822.496 270.894 806.356 274 800 274C779.81 274 759.14 275.29 739 273.91C731.976 273.429 719.212 270.119 713.419 275.514C711.586 277.221 710.825 279.666 710.156 282C706.37 295.21 715.408 296.082 726 298.884C730.855 300.169 738.13 302.442 734.968 309C729.369 320.61 714.03 330.029 705 339.001C678.084 365.744 648.904 390.298 621 416M1075 300L1054.73 427L1047 465C1039.7 465.983 1024.87 466.476 1019.3 471.514C1015.07 475.34 1011.18 489.617 1018.06 492.396C1026.21 495.689 1040.24 493 1049 493C1072.52 493 1096.53 494.432 1120 492.956C1128.12 492.445 1132.89 479.6 1127.34 473.419C1122.27 467.773 1108.11 467.147 1101 467L1112 397L1208 397C1207.87 412.678 1204.06 428.675 1201 444C1199.91 449.462 1199.74 458.223 1196.15 462.683C1187.73 473.137 1168.12 461.499 1163.89 479C1163.34 481.234 1162.66 483.676 1162.83 485.995C1163.59 496.073 1180.19 493 1187 493L1247 493C1254.24 493 1266.13 495.275 1272.79 492.258C1278.41 489.708 1279.6 475.456 1275.68 471.278C1270.62 465.885 1258.96 464.436 1252 463C1255.71 452.035 1256.19 439.422 1258.08 428C1262.27 402.682 1266.64 377.359 1270.58 352C1272.79 337.734 1273.61 321.731 1278.23 308.019C1281.66 297.819 1298.22 301.209 1305.78 296.547C1309.3 294.373 1310.01 289.74 1310.79 286C1311.25 283.769 1311.86 281.319 1311.34 279.044C1309.47 270.954 1293.15 274 1287 274C1266.76 274 1245.07 276.209 1225 273.576C1218.19 272.682 1204.54 270.465 1200.09 277.134C1198.94 278.851 1198.27 281.015 1197.76 283C1192.99 301.663 1221.29 291.246 1223.51 304.105C1226.88 323.603 1216.5 348.612 1214 368L1117 368C1119.82 353.025 1122.53 338.023 1125.08 323C1125.97 317.778 1126.03 307.75 1129.03 303.434C1131.14 300.389 1136.7 300.462 1140 299.92C1151.14 298.088 1159.44 298.693 1162 286C1162.44 283.773 1163.08 281.31 1162.53 279.044C1160.49 270.734 1144.22 273.998 1138 274C1117.76 274.008 1096.06 276.209 1076 273.576C1069.7 272.749 1055.26 271.5 1051.01 277.229C1037.13 295.919 1062.74 299.032 1075 300M2081 391C2092.14 409.872 2126.5 407.287 2144 400.771C2179.87 387.413 2201.94 345.711 2190.56 309C2175 258.775 2102.52 274.937 2063 275C2050.99 275.019 2039.05 274 2027 274C2021.78 274 2015.54 272.92 2013.56 279.019C2012.26 283.018 2010.53 290.845 2013.74 294.297C2019.74 300.733 2037.73 295.262 2038.49 307.001C2039.35 320.48 2034.76 335.604 2033.16 349C2028.98 383.815 2022.75 418.292 2017.87 453C2017.36 456.615 2017.28 461.605 2014.49 464.301C2005 473.452 1977.78 470.669 1985.18 491.891C1987.89 499.668 2005.94 495.373 2012 494.576C2032.44 491.885 2054.38 494 2075 494C2084.24 494 2094.7 496.301 2097.32 485C2100.6 470.843 2091.21 470.332 2080 468.729C2076.21 468.187 2070.48 468.56 2069.33 463.941C2067.69 457.322 2071.53 446.649 2072.8 440C2075.92 423.735 2077.93 407.278 2081 391z"
     id="path8941" />
  <path
     style="fill:#ffffff; stroke:none;"
     d="M430.329 276.028C424.496 279.559 420.79 290.277 417.397 296C407.122 313.33 396.688 330.575 386.576 348C371.639 373.736 356.222 399.183 341.421 425C333.212 439.319 325.537 457.095 313.907 468.956C306.957 476.043 295.845 471.546 289.702 477.589C281.334 485.821 280.624 507.993 277.873 519C277.131 521.972 273.769 529.521 276.643 531.972C285.762 539.748 297.136 513.131 300.721 508C315.742 486.504 332.555 489.717 356 489.996C372.995 490.198 390.004 490 407 490L457 490C466.581 490 478.634 489.808 486.999 495.134C499.885 503.337 497.882 518.818 504.109 530.852C505.689 533.906 510.495 535.264 513.397 532.972C516.024 530.897 515.766 524.064 515.975 521C516.656 511.038 523.158 492.167 518.667 483.044C514.724 475.033 503.562 474.388 499.313 465C492.472 449.884 490.58 432.023 486.626 416C478.934 384.83 470.705 353.861 461.859 323C458.787 312.284 455.225 301.709 452.141 291C450.968 286.927 450.144 279.72 447.146 276.604C444.386 273.735 433.561 274.071 430.329 276.028M1429 275.424C1389.36 280.691 1351.82 301.568 1331.43 337C1305.45 382.14 1302 453.744 1354 482.651C1375.56 494.634 1404.22 494.922 1428 491.718C1480.78 484.607 1523.76 442.415 1535.76 391C1538.56 379.009 1540.02 366.311 1538.83 354C1533.37 297.533 1482.29 268.344 1429 275.424M1871 275.424C1831.36 280.691 1793.82 301.568 1773.43 337C1747.45 382.14 1744 453.744 1796 482.651C1817.56 494.634 1846.22 494.922 1870 491.718C1922.78 484.607 1965.76 442.415 1977.76 391C1980.56 379.009 1982.02 366.311 1980.83 354C1975.37 297.533 1924.29 268.344 1871 275.424M2385 432C2365.59 432 2359.77 444.73 2346 456.711C2329.43 471.125 2308.19 481.171 2286 476.332C2259.72 470.599 2247.3 445.21 2247 420C2246.51 378.275 2261.17 319.128 2301 298.121C2320.02 288.091 2345.8 290.95 2362 305.185C2367.62 310.125 2372.81 315.74 2376.92 322C2378.96 325.094 2380.87 330.746 2384.39 332.396C2388.05 334.112 2394.02 333 2398 333C2400.2 321.14 2398.82 308.856 2397.28 297C2396.78 293.116 2397.17 286.734 2394.26 283.728C2389.92 279.246 2377.9 278.895 2372 277.92C2351.03 274.454 2328.06 273.048 2307 276.438C2255.9 284.664 2215.37 326.407 2203.65 376C2193.73 418.016 2203.39 466.449 2247 485.127C2265.34 492.981 2285.45 493 2305 493C2322.84 493 2352.64 492.105 2366.61 479.211C2377.08 469.539 2380.69 445.24 2385 432M2488 375C2488.69 358.927 2493.93 342.977 2495.84 327C2496.76 319.354 2496.5 306.611 2500.86 300.109C2507.28 290.536 2524.94 297.034 2532.14 288.49C2534.38 285.839 2534.57 281.296 2535 278C2509.86 278 2485.17 282.848 2460 279.424C2453.7 278.566 2435.78 274.482 2430.85 279.604C2418.81 292.126 2447.43 295.143 2452.72 300.39C2456.45 304.094 2455.23 309.272 2454.96 314C2453.7 336.837 2447.2 360.41 2443.41 383C2439.28 407.658 2437.41 433.888 2430.84 458C2425.63 477.122 2394.17 469.91 2394 490L2497 490C2500.37 471.753 2479.69 480.095 2474.12 467.956C2471.99 463.331 2474.75 453.889 2475.61 449C2478.21 434.338 2480.35 419.739 2482.42 405C2483.04 400.641 2482.98 389.567 2487.43 387.201C2496.56 382.345 2508.66 398.936 2512.13 405C2522.66 423.405 2530.21 444.07 2537.31 464C2539.44 469.992 2541.37 485.19 2546.56 488.971C2550.06 491.518 2558.79 489.002 2563 489C2573.52 488.996 2584.55 488.053 2595 489.286C2598.77 489.73 2605.97 491.583 2609.26 488.972C2611.37 487.299 2611.52 483.441 2612 481C2604.65 477.128 2596.54 475.088 2590 469.671C2575.66 457.783 2569.79 436.76 2563.2 420C2555.7 400.902 2546.44 372.656 2524 367L2524 365C2550.96 353.584 2557.7 314.137 2585 301.92C2595.44 297.248 2598.62 310.446 2603.1 316.985C2608.93 325.474 2620.9 326.154 2629 320.362C2641.94 311.112 2644.69 289.511 2631 279.638C2621.97 273.127 2608.14 273.888 2598 277.026C2568.76 286.074 2549.93 313.596 2532.37 337C2520.63 352.659 2507.67 369.334 2488 375M806 491C831.706 491 857.328 487.698 883 488.004C912.39 488.354 944.769 492.692 971 475.655C1002.3 455.326 1023.96 403.79 985 378.7C979.615 375.232 973.326 372.934 967 372C979.969 364.619 992.925 360.389 1002.47 348C1019.31 326.149 1011.23 294.094 986 283.465C959.263 272.201 926.137 279 898 279C884.698 279 871.348 279.845 858 280.004C854.213 280.049 845.652 279.629 842.603 282.028C839.975 284.094 838.995 292.531 842.319 294.259C851.396 298.975 866.592 291.859 864.714 308C860.978 340.125 855.364 372.099 850.08 404C846.944 422.933 845.072 442.492 839.845 461C834.574 479.665 820.598 468.689 809.6 477.989C806.725 480.419 806.683 487.478 806 491M1544 490C1568.34 490 1592.62 489 1617 489C1625.67 489 1638.74 492.78 1646.89 489.396C1651.18 487.616 1652.93 479.29 1648.68 476.573C1642.76 472.791 1630 471.03 1623 470C1623.01 450.712 1628.52 431.905 1631.56 413C1635.58 388.034 1639.08 362.972 1643.25 338C1644.91 328.001 1646.51 317.987 1648.25 308C1648.95 303.967 1649.39 298.583 1654.05 297.318C1670.05 292.98 1689.77 296.799 1706 297.91C1711.91 298.315 1720.63 296.588 1725.62 300.6C1731.71 305.499 1734.56 316.852 1736.91 324C1737.88 326.944 1737.88 331.983 1740.56 333.972C1743.32 336.009 1748.76 335 1752 335C1753.61 322.281 1756 309.652 1758.08 297C1758.69 293.305 1760.66 285.897 1757.26 283.013C1754.59 280.751 1749.26 281.146 1746 280.964C1736.96 280.46 1728.09 280 1719 280C1684.98 280 1650.95 282.236 1617 279.91C1607.06 279.229 1596.96 278.123 1587 278.004C1583.92 277.967 1578.25 276.979 1575.99 279.604C1572.84 283.262 1573.24 290.646 1578.06 292.291C1585.43 294.804 1605.18 292.446 1604.89 303.001C1604.14 330.652 1596.34 360.736 1591.42 388C1587.37 410.502 1585.95 433.876 1580.12 456C1574.51 477.226 1544.46 467.926 1544 490M531 488L635 488C635.427 484.695 637.944 478.544 635.933 475.564C632.157 469.969 613.307 470.188 607 469C608.435 464.192 607.852 458.537 610.175 454C617.189 440.299 636.78 428.344 648 417.91C677.473 390.504 708.427 364.336 737 336C731.931 362.905 727.748 389.994 723.247 417C720.741 432.037 719.187 448.543 714.211 462.995C710.534 473.673 693.805 470.462 685.133 474.26C681.688 475.769 678.603 482.984 681.067 486.396C684.666 491.38 701.732 487.144 707 487.015C732.37 486.393 757.63 488 783 488C783.627 484.637 785.693 478.576 783.883 475.419C780.681 469.835 763.923 467.798 758 467C767.953 428.531 771.423 387.223 777.92 348C780.132 334.646 780.987 319.943 784.942 307C789.476 292.161 806.886 299.833 815.146 291.261C817.956 288.345 817.922 282.766 818 279L716 279C715.397 281.922 713.282 286.72 715.067 289.487C721.381 299.273 745.1 289.848 740.811 309C739.362 315.469 732.774 320.428 728 324.576C720.064 331.47 712.798 339.114 705 346.17C674.557 373.715 643.036 400.982 614 430C614.559 402.946 623.428 374.734 627.576 348C629.776 333.82 629.886 313.853 636.569 301.044C641.662 291.281 657.691 297.121 665.697 291.825C669.132 289.553 669.286 283.681 670 280C659.689 276.952 647.543 279.499 637 279.961C621.94 280.621 607.024 279 592 279C586.255 279 570.901 276.294 567.09 281.318C554.748 297.585 586.726 291.847 590.806 298.317C594.912 304.828 589.284 323.662 588.08 331C583.098 361.361 577.886 391.717 572.424 422C570.004 435.421 569.518 453.614 563.486 465.892C558.774 475.482 542.813 469.948 535.513 475.178C532.201 477.551 531.765 484.294 531 488M1055 279C1054.41 281.591 1053.33 284.312 1053.24 286.981C1052.88 297.556 1074.42 290.783 1078.97 297.434C1081.13 300.579 1079.36 305.547 1079.09 309C1078.22 319.71 1076.34 330.402 1074.56 341C1070.26 366.675 1065.07 392.241 1061.27 418C1059.13 432.558 1058.04 452.671 1051.35 465.892C1046.54 475.383 1030.85 469.844 1023.51 475.175C1020.2 477.579 1019.77 484.274 1019 488L1096 488C1101.74 488 1118 490.788 1122.14 486.396C1125.41 482.928 1124.11 477.156 1119.94 475.403C1114.37 473.063 1096.69 474.557 1095.74 466.945C1093.62 449.816 1102.41 428.097 1104.72 411C1105.42 405.781 1105.24 395.199 1110.28 392.028C1116.51 388.107 1131.74 391 1139 391C1164.37 391 1189.71 391.478 1215 392C1209.55 409.223 1209.58 429.183 1205.79 447C1204.56 452.782 1204.04 460.803 1200.86 465.866C1195.81 473.919 1161.41 468.915 1168.64 485.682C1170.97 491.08 1189.31 487.616 1194 487.17C1219.33 484.759 1245.58 488 1271 488C1271.63 484.637 1273.69 478.576 1271.88 475.419C1268.68 469.834 1251.92 467.798 1246 467C1256.29 427.238 1259.79 384.534 1266.59 344C1268.73 331.197 1269.64 317.445 1273.42 305.005C1277.36 292.023 1295.78 298.908 1303.15 291.261C1305.96 288.345 1305.92 282.766 1306 279L1204 279L1202 289C1208.98 290.445 1224.03 292.562 1227.97 299.214C1230.52 303.512 1228.47 310.382 1227.95 315C1226.44 328.456 1223.82 341.662 1221.59 355C1220.81 359.632 1220.84 369.042 1216.69 372.011C1210.31 376.57 1196.45 374 1189 374C1164.16 374 1135.24 377.771 1111 372C1116.04 355.093 1116.94 336.349 1120.4 319C1121.5 313.494 1121.29 305.029 1124.18 300.214C1129.86 290.734 1147.09 298.037 1154.44 291.259C1157.37 288.556 1157.31 282.686 1158 279L1055 279M1990 491L2028 488.039L2091 489C2091.67 485.74 2093.9 480.65 2092.38 477.434C2089.99 472.385 2068.31 472.228 2063 472C2063.12 457.335 2067.17 442.425 2069.59 428C2073.94 402.055 2078.21 376.045 2081.87 350C2083.51 338.319 2085.34 326.642 2087.25 315C2088.02 310.276 2087.89 304.154 2090.74 300.108C2097.54 290.471 2118.03 293.565 2127 297.916C2151.51 309.807 2142.85 352.489 2126.91 367.826C2115.41 378.894 2102.7 378.632 2088 378C2083.23 403.676 2119.55 402.516 2137 397.572C2165.78 389.415 2186.88 361.631 2188.91 332C2189.33 325.891 2188.23 319.862 2186.57 314C2172.8 265.195 2108.42 280 2070 280C2057.63 280 2045.31 279.005 2033 279C2029.51 278.999 2022.64 277.703 2019.74 280.028C2017.17 282.095 2016.17 289.47 2019.32 291.297C2028.28 296.488 2044.84 292.37 2043.81 308C2042.25 331.964 2037.7 356.232 2034.27 380C2030.5 406.181 2027.9 433.144 2022.33 459C2017.97 479.242 1990.06 469.037 1990 491z"
     id="path8943" />
  <path
     style="fill:#000000; stroke:none;"
     d="M1431 290.425C1373.69 298.229 1360.98 375.031 1363.04 422C1364.28 450.4 1379.68 481.697 1413 477.714C1463.6 471.668 1481.79 423.796 1487.16 379C1488.16 370.626 1490.41 361.43 1489.82 353C1488.93 340.42 1488.19 327.592 1482.68 316C1473.66 297.034 1451.26 287.667 1431 290.425M1873 290.425C1815.69 298.229 1802.98 375.031 1805.04 422C1806.28 450.4 1821.68 481.697 1855 477.714C1905.6 471.668 1923.79 423.796 1929.16 379C1930.16 370.626 1932.41 361.43 1931.82 353C1930.93 340.42 1930.19 327.592 1924.68 316C1915.66 297.034 1893.26 287.667 1873 290.425M910 295C908.991 318.506 904.626 344.161 899 367C916.481 367.751 937.403 369.763 951.999 357.671C968.02 344.399 975.285 312.092 955 299.133C942.242 290.982 924.165 292.37 910 295z"
     id="path8945" />
  <path
     style="fill:#ed1c24; stroke:none;"
     d="M1426 296.465C1410.52 299.255 1398.34 311.419 1390 324C1372.15 350.952 1364 393.031 1368.58 425C1372.77 454.257 1386.51 477.454 1420 471.536C1472.64 462.234 1484 394.131 1484 350C1484 315.517 1462.49 289.885 1426 296.465M1868 296.465C1852.52 299.255 1840.34 311.419 1832 324C1814.15 350.952 1806 393.031 1810.58 425C1814.77 454.257 1828.51 477.454 1862 471.536C1914.64 462.234 1926 394.131 1926 350C1926 315.517 1904.49 289.885 1868 296.465M915 299L905 362C919.605 362 935.475 363.287 947.996 354.211C961.874 344.153 969.395 315.181 952.985 304.108C942.108 296.769 927.423 299 915 299M2083 376C2097.29 368.141 2111.99 376.693 2124.91 362.985C2135.92 351.302 2140.53 326.891 2134.12 312C2129.43 301.095 2106.91 294.347 2096.43 301.318C2091.93 304.315 2092.33 315.162 2091.58 320C2088.68 338.642 2085.38 357.288 2083 376z"
     id="path8947" />
  <path
     style="fill:#000000; stroke:none;"
     d="M416 330C399.935 364.407 377.503 396.958 358.719 430C353.823 438.613 349.019 447.285 344.309 456C342.492 459.361 339.505 463.878 340.477 467.892C342.387 475.784 359.119 473 365 473C385.391 473 405.622 474 426 474C432.406 474 444.027 475.646 449.566 471.821C457.171 466.57 447.842 444.82 446.127 438C439.732 412.578 432.55 387.351 425.884 362C423.378 352.469 422.611 337.501 416 330z"
     id="path8949" />
  <path
     style="fill:#ed1c24; stroke:none;"
     d="M415 342L345 467L447 468C446.773 440.546 433.307 409.453 426.151 383C422.683 370.178 421.248 353.667 415 342z"
     id="path8951" />
  <path
     style="fill:#000000; stroke:none;"
     d="M903.001 382.429C891.601 384.151 892.418 408.339 890.611 418C888.254 430.603 886.622 443.343 884.589 456C883.936 460.067 881.726 466.852 884.18 470.581C889.618 478.846 908.05 475.844 916 474.714C949.358 469.972 977.409 421.598 951.532 393.174C941.006 381.61 917.602 380.223 903.001 382.429z"
     id="path8953" />
  <path
     style="fill:#ed1c24; stroke:none;"
     d="M2081 384L2081 387L2082 387L2081 384M901 388L888 468C905.018 473.395 927.65 470.334 940.826 457.7C955.474 443.655 962.814 408.763 944.985 394.39C933.504 385.135 914.714 388 901 388z"
     id="path8955" />
  <path
     style="fill:#ffffff; stroke:none;"
     d="M71 756L71 2936L71 3486L71 3578C71 3625.46 72.7207 3677.5 105.212 3716C132.405 3748.22 169.62 3772.64 212 3778.7C239.948 3782.69 269.795 3780 298 3780L432 3780L1058 3780L1241 3780C1275.5 3780 1313.9 3776.16 1347 3787.7C1409.91 3809.62 1440.95 3874.22 1465 3932L1466 3932C1488.74 3877.39 1516.67 3812.82 1576 3790.43C1611.89 3776.88 1651.31 3780 1689 3780L1868 3780L2498 3780L2632 3780C2660.44 3780 2690.86 3782.96 2719 3778.56C2760.9 3772.02 2796.46 3748.68 2823.82 3717C2856.54 3679.11 2858 3631.14 2858 3584L2858 3489L2858 2939L2858 756L71 756z"
     id="path8957" />
  <path
     style="fill:#000000; stroke:none;"
     d="M1376 803L1376 1958L1377 1958L1401.42 1890L1410.79 1863L1411 1818L1411 1728L1411 1450L1411 803L1376 803M1518 803L1518 1447L1518 1724L1518 1813L1518.33 1858L1552 1953L1553 1953L1553 803L1518 803z"
     id="path8959" />
  <path
     style="fill:#009442; stroke:none;"
     d="M 142,827 L 142,2964 L 142,3489 L 142,3582 C 142,3619.03 142.891,3657.3 173,3683.71 C 205.574,3712.29 243.494,3709 284,3709 L 485,3709 L 1329,3709 L 1329,3155 L 1075,3155 L 1075,2978 L 1074,2978 C 1040.62,3027.48 1007.78,3077.34 974.667,3127 C 958.097,3151.85 936.765,3177.02 924,3204 L 923,3204 C 950.48,3122.77 981.597,3042.54 1011.05,2962 C 1129.9134,2626.4179 1329.8369,2099.7737 1329,1983 L 1329,1933 L 1329,1739 L 1329,827 L 142,827 z "
     id="path8961"
     sodipodi:nodetypes="ccccccccccccscccccccc" />
  <path
     style="fill:#29196b; stroke:none;"
     d="M1600 827L1600 2003C1626.75 2006.95 1656.28 2020.33 1681 2031C1686.39 2033.33 1704.49 2038.18 1706.1 2044.21C1707.35 2048.9 1703.56 2056.44 1702.37 2061C1697.86 2078.31 1689.5 2097.17 1688.09 2115C1687.46 2123.04 1690.97 2131.74 1698 2136.16C1720.71 2150.42 1746.52 2111.48 1760 2098C1763.64 2094.36 1772.21 2082.16 1778 2083.75C1785.1 2085.69 1793.25 2094.48 1799 2099C1814.54 2111.21 1830 2123 1844 2137C1848.12 2141.12 1862.78 2151.53 1860.88 2158C1859.16 2163.86 1852.94 2170.04 1849.42 2175C1841.44 2186.28 1833.45 2197.59 1825.66 2209C1818.75 2219.12 1814.26 2231.11 1823.64 2241.49C1840.17 2259.77 1876.49 2233.87 1893 2225.76C1897.83 2223.38 1910.82 2214.64 1915.68 2218.42C1922.25 2223.54 1926.97 2233.95 1931.2 2241C1941.08 2257.47 1950.66 2273.82 1959.25 2291C1961.76 2296.02 1972.21 2310.45 1968.47 2315.67C1965.13 2320.34 1957.68 2323.78 1953 2327.02C1941.29 2335.14 1929.61 2343.32 1918 2351.58C1907.62 2358.96 1899.2 2368.7 1904.8 2382C1910.23 2394.88 1920.79 2395.28 1933 2394.99C1955.04 2394.45 1976.92 2390 1999 2390C2004.53 2427.47 2017.97 2463.39 2018 2502C2002.27 2504.12 1986.27 2509.96 1971 2514.29C1962.98 2516.57 1953.49 2517.63 1946 2521.26C1938.08 2525.1 1932.47 2532.97 1932.76 2542C1933.04 2550.5 1938.35 2557.32 1946 2560.66C1956.5 2565.25 1968.94 2567.16 1980 2570.15C1992.46 2573.53 2005.19 2578.28 2018 2580C2018 2603.46 2013.59 2629.14 2008.35 2652C2005.28 2665.39 2000.12 2679.3 1999 2693C1980.01 2693 1960.94 2690.24 1942 2688.91C1934.24 2688.37 1925.74 2686.48 1918 2688.3C1905.02 2691.35 1899.44 2710.38 1906.59 2720.99C1910.13 2726.24 1916.9 2729.71 1922 2733.28C1932.33 2740.51 1942.63 2747.8 1953 2754.98C1957.42 2758.04 1967.85 2762.75 1969.59 2768.09C1971.35 2773.47 1964.16 2784.31 1961.74 2789C1951.79 2808.29 1940.43 2826.78 1928.69 2845C1925.38 2850.14 1919.9 2863.62 1913.82 2865.58C1910.47 2866.66 1905.86 2863.16 1903 2861.76C1895.35 2858 1887.18 2853.36 1879 2851L1912.95 2945L2007 3204L2006 3204L1966.67 3144L1893.33 3034L1855 2976L1854 2976L1854 3155L1600 3155L1600 3709L2444 3709L2648 3709C2686.06 3709 2724.2 3712.51 2755 3685.71C2787.69 3657.27 2787 3620.79 2787 3581L2787 3490L2787 2966L2787 827L1600 827z"
     id="path8963" />
  <path
     style="fill:#fff700; stroke:none;"
     d="M205 1386C224.397 1383.39 244.341 1376.82 263 1371.03C305.301 1357.88 347.231 1341.09 385 1317.57C404.224 1305.61 423.188 1292.99 441 1279C447.136 1274.18 458.237 1262 466 1260.98C471.505 1260.25 480.013 1266.01 485 1268.15C504.514 1276.53 520.567 1290.74 539 1301L539 1201C589.776 1222.15 632.771 1266.19 663 1311C676.792 1289.08 674 1257.64 674 1233C741.894 1277.9 788.272 1353 813 1429C827.821 1422.21 838.858 1404.89 841 1389C853.249 1402.34 862.536 1418.25 874.3 1432C919.028 1484.28 972.283 1538.2 1033 1572C1027.41 1552.61 1015.23 1534.68 1007.6 1516C988.331 1468.81 971.585 1420.85 960.576 1371C956.885 1354.29 951.36 1337.08 950 1320C934.152 1327.06 925.713 1345.43 925 1362C903.462 1346.83 884.28 1313.99 887.174 1287C888.664 1273.1 895.897 1260.16 903.859 1249C912.01 1237.57 921.748 1224.3 937 1223.09C951.567 1221.94 964.994 1231.49 975 1241.04C995.094 1260.22 1014.05 1284.73 1026 1310C1043.84 1301.83 1054.61 1278.95 1055 1260L1056 1260C1085.05 1329.77 1142.59 1394.81 1204 1437.72C1221.38 1449.86 1241.42 1467.95 1262 1474C1264 1448.67 1270.08 1424.7 1265.54 1399C1254.29 1335.38 1194 1306.04 1134 1306C1133.84 1246.35 1101.73 1191.42 1055 1156.37C1042.05 1146.66 1023.6 1131.55 1007 1129.22C996.909 1127.8 982.863 1132.17 973 1134.5C945.518 1141 918.387 1152.31 895 1168.22C886.514 1173.99 878.129 1180.23 870 1186.5C867.173 1188.68 862.86 1194.05 859 1193.96C854.918 1193.86 850.831 1187.77 848.424 1185C841.021 1176.48 832.751 1168.6 824 1161.46C813.504 1152.91 793.046 1135.45 779 1134.6C773.312 1134.26 766.674 1140.24 762 1142.99C745.599 1152.62 733.355 1165.62 720 1179C713.591 1156.58 700.279 1134.21 687.33 1115C677.991 1101.15 666.664 1086.37 654 1075.43C643.562 1066.41 633.435 1059.26 621 1053.26C595.917 1041.16 573.737 1045.87 550 1057.75C508.08 1078.73 487.182 1117.27 456.829 1151C429.815 1181.02 399.645 1209.5 369 1235.73C348.672 1253.13 325.75 1266.48 302 1278.74C289.889 1284.99 276.317 1289.99 265 1297.6C236.341 1316.86 213.005 1352.22 205 1386M1677 1088L1677 1128C1677 1134.7 1675.81 1142.67 1678.35 1149C1708.16 1223.19 1802.66 1249.43 1869 1209.07C1893.91 1193.92 1906.87 1171.22 1921 1147C1956.69 1232.71 2069.6 1255.38 2135 1190C2146.68 1178.32 2159.33 1163.21 2164 1147L2165 1147C2168.6 1159.49 2176.72 1169.93 2184.58 1180C2233.22 1242.4 2331.12 1244.13 2383.16 1185C2392.59 1174.28 2402.99 1160.93 2407 1147L2408 1147C2412.78 1163.58 2424.97 1178.13 2437 1190.01C2491.62 1243.94 2579.33 1239.45 2629.82 1182C2637.39 1173.38 2647.15 1159.38 2649.61 1148C2653.51 1129.96 2650 1107.48 2650 1089L2649 1089C2626.2 1143.48 2554.77 1179.83 2497 1162.1C2455.8 1149.45 2429.96 1123.86 2408 1088L2407 1088C2395.48 1107.72 2383.43 1125.3 2365 1139.47C2321.24 1173.13 2259.75 1172.78 2214 1144.05C2190.99 1129.6 2180 1108.56 2164 1088C2152.48 1107.72 2140.43 1125.3 2122 1139.47C2078.66 1172.81 2014.94 1173.55 1970 1143.4C1948.2 1128.78 1934.44 1109.96 1921 1088L1920 1088C1911.98 1101.73 1904.76 1115.82 1893 1126.91C1847.35 1169.93 1780.4 1177.56 1727 1144.05C1713.94 1135.85 1701.79 1124.36 1692.61 1112C1687 1104.44 1683.78 1094.58 1677 1088M1677 1271L1677 1311C1677 1317.7 1675.81 1325.67 1678.35 1332C1708.14 1406.14 1802.55 1432.5 1869 1392.07C1893.91 1376.92 1906.87 1354.22 1921 1330C1956.65 1415.6 2069.49 1438.49 2135 1373C2146.68 1361.32 2159.33 1346.21 2164 1330L2165 1330C2168.43 1341.91 2176.07 1352.21 2183.37 1362C2231.13 1425.98 2331.3 1426.93 2383.16 1368C2392.59 1357.28 2402.99 1343.93 2407 1330L2408 1330C2413.24 1348.19 2427.04 1365.05 2441 1377.28C2496.95 1426.34 2580.48 1421.14 2629.82 1365C2637.39 1356.38 2647.15 1342.38 2649.61 1331C2653.51 1312.95 2650 1290.48 2650 1272L2649 1272C2626.2 1326.48 2554.77 1362.83 2497 1345.1C2455.8 1332.45 2429.96 1306.86 2408 1271L2407 1271C2395.48 1290.72 2383.43 1308.3 2365 1322.47C2321.24 1356.13 2259.75 1355.78 2214 1327.05C2190.99 1312.6 2180 1291.56 2164 1271C2152.48 1290.72 2140.43 1308.3 2122 1322.47C2078.66 1355.81 2014.94 1356.55 1970 1326.4C1948.2 1311.78 1934.44 1292.96 1921 1271L1920 1271C1911.98 1284.73 1904.76 1298.82 1893 1309.91C1847.35 1352.93 1780.4 1360.56 1727 1327.05C1713.94 1318.85 1701.79 1307.36 1692.61 1295C1687 1287.44 1683.78 1277.58 1677 1271z"
     id="path8965" />
  <path
     style="fill:#f7c500; stroke:none;"
     d="M1465 1783C1432.75 1881.95 1393.8 1979.26 1358.05 2077C1286.04 2273.89 1214.96 2471.11 1142.95 2668C1113.83 2747.62 1085.07 2827.38 1055.95 2907C1041.76 2945.8 1022.52 2985.83 1013 3026L1014 3026L1318.67 2569L1415.33 2424L1466 2349C1478.11 2374.59 1498.29 2398.43 1514 2422C1546.66 2471 1579.58 2519.84 1612 2569C1712.68 2721.73 1813.69 2874.35 1916 3026L1917 3026L1884.69 2936L1816.05 2747L1610.05 2180L1509.05 1902L1480.34 1823L1465 1783z"
     id="path8967" />
  <path
     style="fill:#fff700; stroke:none;"
     d="M1222 2042C1226.73 2056.81 1230.26 2072.02 1234.42 2087C1237.31 2097.37 1241.49 2108.1 1240.96 2119C1240.34 2131.93 1225.84 2143.61 1213 2137.73C1196.82 2130.31 1182.49 2109.49 1170 2097C1166.38 2093.38 1158.72 2082.36 1153 2083.17C1145.49 2084.24 1135.04 2095.35 1129 2099.87C1106.57 2116.69 1085.81 2135.19 1066 2155L1066 2156C1076.53 2168.35 1085.05 2182.75 1094.42 2196C1099.82 2203.62 1107.59 2211.89 1110.21 2221C1114.19 2234.83 1102.72 2249.64 1088 2247.7C1070.14 2245.33 1051.26 2231.77 1035 2224.31C1030.53 2222.26 1020 2214.93 1015.18 2217.13C1008.26 2220.3 1002.15 2234.77 998 2241C982.616 2264.08 968.658 2289.37 958 2315C971.978 2322.79 984.935 2333.33 998 2342.58C1006.05 2348.27 1015.39 2353.35 1021.78 2361C1030.21 2371.11 1026.57 2386.96 1015 2393.08C1007.41 2397.1 997.136 2394.66 989 2394.09C969.718 2392.74 950.341 2390 931 2390L920.286 2435L911 2502C933.043 2504.97 961.731 2512.14 982 2521.31C990.346 2525.09 997.144 2532.31 996.87 2542C996.622 2550.77 990.848 2557.34 983 2560.55C961.675 2569.27 933.825 2576.93 911 2580L916.439 2628L931 2693C950.341 2693 969.718 2690.26 989 2688.91C996.614 2688.38 1006.88 2685.84 1014 2689.57C1025.69 2695.69 1030.6 2710.61 1021.79 2721C1015.32 2728.62 1006.08 2733.71 998 2739.42C984.935 2748.67 971.978 2759.21 958 2767C968.016 2791.06 981.853 2813.43 994.719 2836C999.739 2844.81 1005.79 2859.5 1014.32 2865.35C1018.91 2868.5 1026.79 2862.24 1031 2860.31C1037.18 2857.47 1045.59 2855.12 1050.58 2850.36C1056.02 2845.19 1059.91 2830.31 1061 2823L1021 2842C1015.82 2824.41 1001.46 2808.42 993.247 2792C991.257 2788.02 984.477 2778.97 985.665 2774.46C987.029 2769.29 998.788 2763.89 1003 2760.98C1016.37 2751.71 1034.56 2741.75 1042.58 2727C1052.59 2708.6 1041.86 2679.23 1023 2671.09C1017.03 2668.51 1008.39 2670 1002 2670C984.564 2670 962.751 2669.05 946 2674L932 2595C941.493 2593.72 950.754 2590.33 960 2587.88C978.958 2582.88 1000.6 2580.15 1011.86 2562C1015.61 2555.95 1015 2548.82 1015 2542C1015 2535.71 1015.73 2528.85 1012.95 2523C1003.13 2502.35 978.547 2499.14 959 2493.85C950.106 2491.44 941.147 2488.23 932 2487C935.544 2467.98 937.173 2448.8 941.873 2430C943.097 2425.11 943.773 2413.95 948.303 2411.03C953.752 2407.51 966.834 2411.24 973 2411.83C997.787 2414.2 1031.8 2419.68 1043.07 2391C1055.39 2359.64 1030.62 2340.58 1008 2324.58C1002.61 2320.76 987.135 2313.63 985.526 2306.96C984.329 2302 991.523 2293.25 993.78 2289C1002.42 2272.73 1014.19 2257.52 1022 2241C1036.53 2247.05 1050.87 2254.31 1065 2261.24C1085.55 2271.33 1117.45 2268.6 1127.63 2245C1130.2 2239.06 1129 2231.33 1129 2225C1129 2218.79 1129.46 2212.72 1126.62 2207C1120.32 2194.26 1110.06 2182.68 1101.98 2171C1099.59 2167.56 1093.31 2161.53 1093.87 2157.01C1094.33 2153.34 1099.44 2150.34 1102 2148.13C1109.66 2141.54 1117.21 2134.75 1125 2128.32C1130.17 2124.06 1146.17 2108.36 1153 2109.59C1158.07 2110.5 1163.52 2118.52 1167 2122C1177.41 2132.41 1187.39 2146.36 1200 2154.03C1217.61 2164.75 1247.33 2155.7 1256.72 2138C1261.89 2128.25 1260.38 2107.48 1257.87 2097C1254.34 2082.23 1249.39 2067.8 1246 2053L1300 2032.66L1318.61 2028.21L1324.75 2038L1337 2063C1348.59 2047.5 1344.48 2033.88 1337.58 2018C1335.84 2014 1333.29 2003.41 1327.9 2003.47C1319.2 2003.58 1308.28 2009.01 1300 2011.66C1273.59 2020.09 1248.36 2034.41 1222 2042M1592 2063L1594 2063L1611 2027L1684 2054C1676.96 2076.02 1662.88 2109.85 1670.97 2133C1678.17 2153.62 1707.08 2164.67 1727 2155.58C1734.52 2152.15 1740.27 2144.73 1746 2139C1756.24 2128.76 1768.66 2118.84 1777 2107L1778 2107L1813 2135L1838 2157L1838 2158C1831.16 2164.25 1826.24 2173.4 1820.98 2181C1807.27 2200.79 1788.33 2226.88 1805.64 2251C1823.46 2275.84 1855.26 2265.96 1878 2255.22C1883.92 2252.42 1904.04 2238.89 1909.39 2244.25C1920.63 2255.53 1929.16 2275.82 1936.25 2290C1938.43 2294.36 1944.22 2301.92 1943.76 2306.91C1943.27 2312.24 1931.97 2317.5 1928 2320.28C1914.11 2330 1895.52 2339.46 1887.28 2355C1877.14 2374.1 1886.95 2403.65 1907 2412.07C1912.91 2414.55 1921.68 2413 1928 2413C1945.44 2413 1967.25 2413.95 1984 2409L1998 2487C1984.84 2488.77 1971.83 2493.73 1959 2497.12C1948.61 2499.86 1937.58 2501.49 1929 2508.38C1907.61 2525.54 1908.82 2559.48 1931 2575.36C1938.87 2581 1949.81 2582.46 1959 2584.88C1971.83 2588.27 1984.84 2593.23 1998 2595C1995.59 2614.06 1992.79 2633.36 1988.13 2652C1986.82 2657.23 1986.52 2667.59 1982.44 2671.4C1978.26 2675.29 1965.22 2672.26 1960 2671.58C1944.49 2669.54 1923.22 2665.62 1908 2670.56C1886.96 2677.4 1877.83 2710.37 1887.99 2729C1895.75 2743.22 1915.14 2752.72 1928 2761.72C1934.05 2765.95 1940.08 2771.34 1947 2774L1922.4 2818L1908 2842L1869 2823C1870.23 2830.16 1873.78 2844.87 1878.84 2850.19C1883.5 2855.07 1892.95 2857.53 1899 2860.31C1902.83 2862.07 1910.37 2867.94 1914.67 2865.87C1921.13 2862.75 1926.15 2849.84 1930 2844C1943.88 2822.95 1964.49 2795.98 1970.04 2771C1971.57 2764.12 1959.72 2758.9 1955 2755.66C1940.37 2745.59 1918.27 2735.01 1907.31 2720.99C1898.98 2710.32 1905.91 2691.35 1919 2688.3C1926.43 2686.57 1934.56 2688.6 1942 2688.96C1961.02 2689.89 1979.94 2693 1999 2693C2004.1 2655.11 2018 2618.81 2018 2580C1995.27 2575.31 1969.58 2569.6 1948 2561.07C1939.9 2557.87 1932.93 2550.57 1932.93 2541.42C1932.93 2532.49 1939.29 2524.98 1947 2521.26C1954.19 2517.78 1963.3 2516.72 1971 2514.58C1986.56 2510.25 2002.18 2505.26 2018 2502C2018 2463.92 2007.49 2426.69 1999 2390C1979.94 2390 1961.02 2393.11 1942 2394.04C1934.59 2394.4 1926.39 2396.36 1919 2394.7C1910.17 2392.71 1903.99 2382.64 1903.07 2374.17C1902.32 2367.31 1907.5 2360.8 1912.29 2356.52C1924.42 2345.65 1939.65 2337.06 1953 2327.72C1957.16 2324.8 1970.25 2318.74 1970.04 2312.96C1969.82 2306.48 1963.12 2297.75 1960.25 2292C1950.8 2273.1 1940.31 2255.09 1929.4 2237C1926.41 2232.04 1919.47 2216.94 1912.96 2216.71C1908.03 2216.53 1901.46 2221.48 1897 2223.42C1876.78 2232.25 1832.83 2265.8 1819.21 2233C1816.22 2225.79 1820.28 2217.96 1824.29 2212C1832.92 2199.19 1841.9 2186.58 1850.86 2174C1854.3 2169.17 1864.72 2159.06 1860.63 2153C1845.65 2130.8 1818.86 2113.65 1798 2097.42C1793.47 2093.9 1781.03 2081.02 1775 2083.17C1769.73 2085.05 1764.87 2092.13 1761 2096L1730 2127C1721.91 2135.08 1712.95 2142.58 1701 2137.2C1675.1 2125.52 1697.07 2082.09 1702.12 2063C1703.34 2058.37 1708.73 2047.02 1705.93 2042.64C1703.72 2039.17 1696.61 2037.46 1693 2035.86C1681.1 2030.6 1669.36 2025.12 1657 2021L1619 2008.33C1614.37 2006.79 1607.14 2002.75 1602.21 2003.5C1597.57 2004.21 1594.53 2014.26 1592.86 2018C1590.23 2023.91 1584.57 2031.54 1584.02 2038C1583.37 2045.56 1589.67 2055.83 1592 2063z"
     id="path8969" />
  <path
     style="fill:#f7c500; stroke:none;"
     d="M1246 2053C1248.35 2068.95 1255.1 2084.21 1258.33 2100C1260.32 2109.69 1261.45 2128.09 1256.72 2137C1246.43 2156.4 1216.31 2164.92 1198 2152.1C1186.1 2143.77 1176.29 2130.29 1166 2120C1162.74 2116.74 1157.85 2109.61 1153 2108.91C1145.66 2107.85 1129.52 2123.77 1124 2128.32C1116.21 2134.75 1108.66 2141.54 1101 2148.13C1098.45 2150.32 1093.42 2153.31 1093.11 2157.01C1092.71 2161.84 1099.4 2168.29 1101.98 2172C1110.06 2183.68 1120.32 2195.26 1126.62 2208C1129.32 2213.44 1129 2219.09 1129 2225C1129 2231.06 1130.09 2238.31 1127.63 2244C1118.45 2265.27 1091.15 2271.41 1071 2263.54C1054.46 2257.07 1039.06 2245.91 1022 2241C1011.29 2256.87 1001.64 2273.05 992.745 2290C990.537 2294.21 983.155 2302.98 985.161 2307.91C987.768 2314.31 1000.5 2319.94 1006 2323.86C1028.25 2339.7 1054.53 2357.6 1043.45 2389C1032.87 2419 999.297 2414.25 974 2411.83C967.186 2411.18 954.668 2407.57 948.303 2410.6C943.772 2412.76 942.982 2424.56 941.873 2429C937.127 2447.99 934.456 2467.58 932 2487C944.818 2489.65 957.351 2493.77 970 2497.12C979.005 2499.49 989.281 2501.11 997 2506.64C1020.77 2523.66 1022.37 2557.99 998 2575.36C990.702 2580.56 980.526 2582.15 972 2584.37C958.674 2587.84 945.49 2592.22 932 2595C933.142 2621.61 940.025 2648.17 946 2674C962.795 2670 982.759 2670 1000 2670C1006.46 2670 1014.82 2668.61 1021 2670.7C1040.65 2677.35 1052.54 2707.69 1042.58 2726C1034.35 2741.13 1015.73 2751.47 1002 2760.98C997.813 2763.87 985.738 2769.47 985.241 2775.04C984.771 2780.31 990.939 2788.39 993.247 2793C1001.6 2809.7 1013.62 2824.87 1021 2842C1031.82 2839.43 1053.68 2830.71 1061.18 2822.36C1069.84 2812.73 1073.34 2791.2 1077.69 2779C1087 2752.95 1096.55 2726.98 1106.05 2701C1110.17 2689.74 1117.99 2676.01 1118.77 2664C1119.45 2653.67 1112.81 2639.8 1109.67 2630C1105.35 2616.49 1102.58 2600.12 1101.17 2586C1093.75 2511.76 1106.57 2434.93 1142.31 2369C1162.16 2332.39 1188.44 2297.07 1220.09 2269.8C1229.36 2261.81 1238.73 2252.85 1249 2246.22C1257.96 2240.43 1271.72 2234.27 1278.3 2225.79C1284.15 2218.24 1286.49 2204.98 1289.69 2196C1297.2 2174.99 1304.61 2153.9 1312.42 2133C1318.26 2117.4 1323.59 2101.6 1329.42 2086C1331.91 2079.35 1337.21 2070.2 1336.69 2063C1336.05 2053.98 1327.77 2043.01 1323.75 2035C1322.46 2032.43 1321.09 2028.01 1317.79 2027.5C1312.23 2026.65 1303.34 2031.32 1298 2032.98C1280.33 2038.47 1263.27 2046.34 1246 2053M1611 2027C1605.96 2037.65 1594.68 2052.3 1593.57 2064C1593.13 2068.66 1596.17 2073.72 1597.66 2078C1601.61 2089.39 1605.81 2100.68 1609.95 2112C1623.45 2148.92 1634.24 2188.07 1650.39 2223.9C1653.63 2231.08 1665.63 2236.09 1672 2240.33C1687.1 2250.4 1701.7 2261.7 1715 2274.09C1753.28 2309.73 1782.29 2354.49 1803.69 2402C1828.7 2457.52 1836.08 2526.04 1828.71 2586C1826.61 2603.12 1822.9 2620.46 1818.14 2637C1815.95 2644.61 1810.25 2655.06 1810.93 2663C1811.64 2671.16 1816.72 2680.36 1819.58 2688C1825.66 2704.26 1831.47 2720.65 1837.31 2737C1844.22 2756.36 1851.41 2775.63 1858.31 2795C1861.17 2803.03 1863.19 2815.88 1868.84 2822.36C1876.35 2830.97 1897.26 2838.34 1908 2842L1947 2774C1934.11 2766.66 1922.11 2756.99 1910 2748.42C1902.37 2743.02 1892.57 2736.41 1887.99 2728C1877.7 2709.14 1888.14 2677.34 1909 2670.56C1925.99 2665.04 1946.68 2671.36 1964 2671.99C1968.89 2672.17 1978.17 2675.13 1982.44 2671.97C1986.54 2668.94 1986.95 2657.72 1988.13 2653C1992.81 2634.26 1996.48 2614.27 1998 2595C1985.18 2592.35 1972.65 2588.23 1960 2584.88C1951.14 2582.54 1940.78 2581.1 1933 2576.03C1908.26 2559.93 1907.55 2525.13 1931 2507.61C1939.41 2501.33 1950.05 2499.75 1960 2497.12C1972.65 2493.77 1985.18 2489.65 1998 2487C1995.97 2461.33 1991.86 2433.58 1984 2409C1966.87 2413.08 1946.58 2413 1929 2413C1922.68 2413 1913.91 2414.55 1908 2412.07C1899.36 2408.44 1891.26 2399.29 1887.26 2391C1873 2361.44 1898.73 2341.63 1920 2326.58C1925.48 2322.7 1946.05 2312.74 1943.98 2304.99C1939.62 2288.68 1927.19 2272.32 1918.6 2258C1916.09 2253.81 1912.52 2244.16 1907.79 2242.24C1903.47 2240.49 1895.85 2246.42 1892 2248.14C1878.75 2254.05 1863.69 2264.83 1849 2265.91C1842.02 2266.42 1833.9 2266.75 1827 2265.56C1804.67 2261.69 1796.52 2235.39 1800.38 2216C1802.12 2207.24 1808.3 2200.12 1813.28 2193C1821.46 2181.32 1829.29 2169.3 1838 2158L1838 2157L1778 2107L1777 2107C1762.11 2121.89 1745.69 2145.23 1727 2155.08C1721.11 2158.18 1713.45 2157 1707 2157C1701.93 2157 1696.74 2157.33 1692 2155.2C1651.35 2136.88 1677.08 2084.2 1684 2054C1660.95 2043.08 1635.92 2032.77 1611 2027z"
     id="path8971" />
  <path
     style="fill:#ed1c24; stroke:none;"
     d="M 1278,2226 L 1279,2227 L 1278,2226 M 1277,2227 C 1167.9759,2292.5669 1096.97,2414.58 1098.71,2545 C 1099.07,2572.32 1102.2,2600.36 1108.5,2627 C 1111.44,2639.43 1116.86,2651.38 1119,2664 L 1120,2664 C 1128.43,2627.56 1146.09,2591.16 1158.95,2556 C 1184.78,2485.38 1210.22,2414.62 1236.05,2344 L 1267.05,2259 C 1269.94,2251.1 1279.39,2235.12 1277,2227 M 1652,2227 L 1667.95,2272 L 1698.95,2357 L 1810,2662 L 1811,2662 C 1813.82,2649.82 1818.84,2638.2 1821.57,2626 C 1829.58,2590.29 1833.42,2552.61 1830.91,2516 C 1825.15,2431.96 1788.19,2352.91 1732.17,2291 C 1710.26,2266.79 1681.84,2241.12 1652,2227 M 1465,2392 C 1424,2445.34 1389.33,2505 1352,2561 L 1303.33,2634 C 1294.91,2646.63 1284.49,2659.27 1278,2673 L 1327,2673 L 1327,2649 L 1412,2649 L 1412,2578 L 1517,2578 L 1517,2649 L 1602,2649 L 1602,2673 L 1652,2673.1679 C 1639.8892,2652.5297 1624.99,2630.98 1612.33,2612 C 1585.25,2571.38 1558.41,2530.62 1531.33,2490 L 1487.33,2424 C 1480.47,2413.71 1474.12,2400.36 1465,2392 z "
     id="path8973"
     sodipodi:nodetypes="ccccccccsccccccccccccccccccccccccccccc" />
  <path
     style="fill:#000000;stroke:none;stroke-opacity:1;stroke-width:1;stroke-miterlimit:4;stroke-dasharray:6,1;stroke-dashoffset:0;"
     d="M 1412,2578 L 1412,2649 L 1327,2649 L 1327,2673 C 1313.904,2673 1287.6327,2673.0647 1278.0255,2672.7546 C 1277.1515,2674.2917 1273.9382,2678.9392 1271,2683 C 1283.681,2683.5339 1337,2683 1337,2683 L 1337,2659 L 1422,2659 L 1422,2588 L 1507,2588 L 1507,2659 L 1592,2659 L 1592,2683 L 1658.0077,2683 C 1655.5122,2679.1465 1654.056,2676.2854 1651.9207,2673.0974 C 1644.2432,2672.9327 1614.762,2673 1602,2673 L 1602,2649 L 1517,2649 L 1517,2578 L 1412,2578 z "
     id="path8975"
     sodipodi:nodetypes="ccccccccccccccccccccc" />
  <path
     style="fill:#fff700; stroke:none;"
     d="M 1422,2588 L 1422,2659 L 1337,2659 L 1337,2683 L 1291,2683 C 1285.4,2683 1278.4984,2682.9065 1270.9942,2683.0962 C 1268.6963,2686.4768 1263.13,2693.81 1260.33,2698 L 1234.33,2737 C 1220.95,2757.07 1203.78,2777.33 1193.24,2799 C 1186.61,2812.63 1183.54,2828.05 1177.57,2842 C 1167.51,2865.52 1155.15,2888.09 1142,2910 C 1134.34,2922.77 1124.1,2943.71 1111.83,2952.4 C 1106.09,2956.46 1097.58,2952.45 1091.21,2954.32 C 1085.43,2956.01 1076.42,2972.34 1075.28,2978 C 1071.73,2995.57 1075,3017.06 1075,3035 L 1075,3155 L 1854,3155 L 1854,3033 C 1854,3015.47 1857.79,2993 1853.58,2976 C 1852.12,2970.11 1844.12,2955.94 1837.96,2954.32 C 1831.86,2952.71 1823.62,2956.29 1818.18,2952.4 C 1807.33,2944.61 1796.83,2924.52 1790.15,2913 C 1775.82,2888.26 1762.14,2863.32 1750.87,2837 C 1745.58,2824.63 1742.65,2811.04 1736.62,2799 C 1726.13,2778.02 1710.02,2758.52 1697,2739 L 1671,2700 C 1667.75,2695.12 1661.3449,2687.0779 1657.9023,2682.8544 L 1592,2683 L 1592,2659 L 1507,2659 L 1507,2588 L 1422,2588 z "
     id="path8977"
     sodipodi:nodetypes="cccccccccccccccccccccccccccccccc" />
  <path
     style="fill:#29196b; stroke:none;"
     d="M1231 2789C1224.77 2831.34 1202.92 2877.68 1182.69 2915C1175.58 2928.13 1165.91 2940.28 1160 2954C1169.34 2954 1186.64 2957.35 1194.96 2952.97C1199.35 2950.66 1202.01 2944.98 1204.67 2941C1210.63 2932.05 1216.84 2923.21 1222.4 2914C1240.78 2883.53 1258.29 2851.81 1269.67 2818C1272.86 2808.5 1277.53 2798.96 1279 2789L1231 2789M1314 2789C1312.12 2801.73 1306.4 2814.79 1302.33 2827C1292.18 2857.45 1280 2886.75 1264.69 2915C1257.58 2928.13 1247.91 2940.28 1242 2954C1251.1 2954 1269.8 2957.59 1277.7 2952.97C1288.17 2946.86 1297.35 2926.09 1304 2916C1329.13 2877.87 1349.95 2833.13 1362 2789L1314 2789M1396 2789C1389.34 2834.27 1366.33 2880.01 1345.22 2920C1339.1 2931.59 1330.19 2941.98 1325 2954C1334.07 2954 1351.86 2957.43 1359.83 2952.97C1370.51 2946.99 1379.65 2927.09 1386.33 2917C1404.37 2889.8 1419.23 2858.46 1430.81 2828C1435.55 2815.54 1442.04 2802.25 1444 2789L1396 2789M1485 2789C1501.22 2831.05 1517.42 2870.71 1539.85 2910C1545.84 2920.49 1553.11 2930.08 1559.98 2940C1562.78 2944.05 1565.79 2950.48 1570.18 2952.97C1578.07 2957.45 1595.99 2954 1605 2954L1584.09 2919L1547.31 2836L1537.58 2803L1532.49 2790.03L1519 2789L1485 2789M1568 2789C1584.16 2830.9 1600.26 2870.56 1622.14 2910C1627.99 2920.55 1635.11 2930.09 1641.98 2940C1644.78 2944.05 1647.79 2950.48 1652.18 2952.97C1660.26 2957.56 1678.76 2954 1688 2954L1665.78 2917L1630.61 2837L1620.14 2804L1614.49 2790.03L1601 2789L1568 2789M1650 2789C1656.67 2805.04 1661.04 2822.06 1667.87 2838C1678.54 2862.91 1691.43 2886.49 1704.85 2910C1710.84 2920.49 1718.11 2930.08 1724.98 2940C1727.78 2944.05 1730.79 2950.48 1735.18 2952.97C1743.07 2957.45 1760.99 2954 1770 2954L1748.26 2916L1713.61 2837L1703.14 2804L1697.49 2790.03L1684 2789L1650 2789M1192 2800L1193 2801L1192 2800M1191 2801L1116.67 2913L1090 2954C1096.06 2954 1106.43 2955.99 1111.83 2952.97C1119.35 2948.76 1125.29 2935.87 1130.37 2929C1148.94 2903.88 1162.21 2874.98 1175.74 2847C1180.69 2836.78 1183.89 2825.68 1187.69 2815C1189.23 2810.67 1192.36 2805.59 1191 2801M1738 2802C1747.35 2841.45 1770.04 2879.29 1790.15 2914C1795.61 2923.42 1802.49 2932.04 1808.66 2941C1811.26 2944.78 1814.09 2950.65 1818.18 2952.97C1823.53 2956.01 1833.97 2954 1840 2954C1820.92 2919.73 1796.1 2887.65 1774.33 2855C1763.23 2838.34 1752.74 2815.51 1738 2802z"
     id="path8979" />
  <path
     style="fill:#f7c500; stroke:none;"
     d="M1012 3027L1013 3028L1012 3027M1917 3027L1918 3028L1917 3027z"
     id="path8981" />
  <path
     style="fill:#000000; stroke:none;"
     d="M1376 3155L1376 3732L1411 3732L1411 3155L1376 3155M1518 3155L1518 3732L1553 3732L1553 3155L1518 3155z"
     id="path8983" />
  <path
     style="fill:#ffffff; stroke:none;"
     d="M922 3205L923 3206L922 3205M2007 3205L2008 3206L2007 3205z"
     id="path8985" />
</svg>
