<?xml version="1.0" encoding="UTF-8" standalone="no"?>
<!-- Created with Inkscape (http://www.inkscape.org/) -->

<svg
   xmlns:dc="http://purl.org/dc/elements/1.1/"
   xmlns:cc="http://creativecommons.org/ns#"
   xmlns:rdf="http://www.w3.org/1999/02/22-rdf-syntax-ns#"
   xmlns:svg="http://www.w3.org/2000/svg"
   xmlns="http://www.w3.org/2000/svg"
   xmlns:sodipodi="http://sodipodi.sourceforge.net/DTD/sodipodi-0.dtd"
   xmlns:inkscape="http://www.inkscape.org/namespaces/inkscape"
   id="svg3058"
   version="1.1"
   inkscape:version="0.48.0 r9654"
   width="174"
   height="255"
   sodipodi:docname="Coat_of_Arms_of_Inta_(Komi)_(1982).svg"
   style="display:inline;enable-background:new">
  <metadata
     id="metadata3064">
    <rdf:RDF>
      <cc:Work
         rdf:about="">
        <dc:format>image/svg+xml</dc:format>
        <dc:type
           rdf:resource="http://purl.org/dc/dcmitype/StillImage" />
        <dc:title />
      </cc:Work>
    </rdf:RDF>
  </metadata>
  <defs
     id="defs3062" />
  <sodipodi:namedview
     pagecolor="#ffffff"
     bordercolor="#666666"
     borderopacity="1"
     objecttolerance="10"
     gridtolerance="10"
     guidetolerance="10"
     inkscape:pageopacity="0"
     inkscape:pageshadow="2"
     inkscape:window-width="1280"
     inkscape:window-height="947"
     id="namedview3060"
     showgrid="false"
     inkscape:snap-bbox="true"
     inkscape:bbox-paths="false"
     inkscape:snap-page="false"
     inkscape:snap-grids="true"
     inkscape:snap-to-guides="true"
     showguides="true"
     inkscape:guide-bbox="true"
     inkscape:zoom="2.8506108"
     inkscape:cx="75.454725"
     inkscape:cy="218.94486"
     inkscape:window-x="0"
     inkscape:window-y="24"
     inkscape:window-maximized="1"
     inkscape:current-layer="layer1">
    <sodipodi:guide
       orientation="0,1"
       position="86.446985,1.7363813"
       id="guide3590" />
    <sodipodi:guide
       orientation="0,1"
       position="48.246595,17.115759"
       id="guide3594" />
    <sodipodi:guide
       orientation="0,1"
       position="124.52335,17.115759"
       id="guide3596" />
    <sodipodi:guide
       orientation="0,1"
       position="57.300584,26.541829"
       id="guide3598" />
    <sodipodi:guide
       orientation="0,1"
       position="115.96547,26.541829"
       id="guide3600" />
    <sodipodi:guide
       orientation="0,1"
       position="0.9922179,47.502432"
       id="guide3602" />
    <sodipodi:guide
       orientation="0,1"
       position="173.018,47.502432"
       id="guide3604" />
    <sodipodi:guide
       orientation="1,0"
       position="0.9922179,253.88376"
       id="guide3610" />
    <sodipodi:guide
       orientation="1,0"
       position="173.018,47.502432"
       id="guide3614" />
    <sodipodi:guide
       orientation="0,1"
       position="173.018,253.88376"
       id="guide3620" />
    <sodipodi:guide
       orientation="0,1"
       position="0.9922179,253.88376"
       id="guide3622" />
    <sodipodi:guide
       orientation="1,0"
       position="4.560426,49.638483"
       id="guide4414" />
    <sodipodi:guide
       orientation="0,1"
       position="47.533671,22.100526"
       id="guide4416" />
    <sodipodi:guide
       orientation="1,0"
       position="168.56036,49.463082"
       id="guide4418" />
    <sodipodi:guide
       orientation="0,1"
       position="57.005325,32.273784"
       id="guide4422" />
    <sodipodi:guide
       orientation="0,1"
       position="86.571012,6.8214981"
       id="guide4426" />
    <sodipodi:guide
       orientation="0,1"
       position="125.41172,22.100526"
       id="guide4428" />
    <sodipodi:guide
       orientation="0,1"
       position="116.64167,32.273784"
       id="guide4430" />
    <sodipodi:guide
       orientation="0,1"
       position="4.560426,49.638483"
       id="guide4432" />
    <sodipodi:guide
       orientation="0,1"
       position="168.56036,49.638483"
       id="guide4434" />
    <sodipodi:guide
       orientation="0,1"
       position="4.560426,67.594844"
       id="guide4436" />
    <sodipodi:guide
       orientation="0,1"
       position="168.56036,67.594844"
       id="guide4438" />
    <sodipodi:guide
       orientation="0,1"
       position="4.560426,251.08653"
       id="guide4449" />
    <sodipodi:guide
       orientation="0,1"
       position="168.56036,251.08653"
       id="guide4451" />
    <sodipodi:guide
       orientation="0,1"
       position="168.56036,225.03948"
       id="guide4453" />
    <sodipodi:guide
       orientation="0,1"
       position="4.560426,225.03948"
       id="guide4455" />
    <sodipodi:guide
       orientation="0,1"
       position="4.560426,221.53146"
       id="guide4478" />
    <sodipodi:guide
       orientation="0,1"
       position="4.560426,70.686604"
       id="guide4480" />
    <sodipodi:guide
       orientation="0,1"
       position="168.56036,221.53146"
       id="guide4482" />
    <sodipodi:guide
       orientation="0,1"
       position="168.56036,70.686604"
       id="guide4484" />
    <sodipodi:guide
       orientation="0,1"
       position="80.596761,247.49082"
       id="guide3034" />
    <sodipodi:guide
       orientation="0,1"
       position="81.912268,228.54751"
       id="guide3036" />
    <sodipodi:guide
       orientation="0,1"
       position="18.418045,186.47495"
       id="guide3889" />
    <sodipodi:guide
       orientation="0,1"
       position="18.480059,182.38205"
       id="guide3891" />
    <sodipodi:guide
       orientation="0,1"
       position="23.441148,180.52165"
       id="guide3907" />
    <sodipodi:guide
       orientation="0,1"
       position="23.441148,173.51411"
       id="guide3909" />
    <sodipodi:guide
       orientation="0,1"
       position="23.503162,168.55302"
       id="guide3925" />
    <sodipodi:guide
       orientation="0,1"
       position="23.379135,157.45258"
       id="guide3927" />
    <sodipodi:guide
       orientation="0,1"
       position="22.634971,149.51484"
       id="guide3941" />
    <sodipodi:guide
       orientation="0,1"
       position="22.572957,138.53843"
       id="guide3943" />
    <sodipodi:guide
       orientation="0,1"
       position="21.518726,128.49222"
       id="guide3953" />
    <sodipodi:guide
       orientation="0,1"
       position="21.456712,114.53916"
       id="guide3955" />
  </sodipodi:namedview>
  <g
     inkscape:groupmode="layer"
     id="layer1"
     inkscape:label="Fon"
     style="display:inline"
     sodipodi:insensitive="true">
    <path
       style="fill:#cfd6da;fill-opacity:1;stroke:#7a7b7e;stroke-width:1.5;stroke-linecap:butt;stroke-linejoin:miter;stroke-miterlimit:4;stroke-opacity:1;stroke-dasharray:none"
       d="m 0.9922179,1.11624 0,206.38133 47.2543771,30.38667 9.053989,-9.42607 29.146401,24.80545 29.518485,-24.80545 8.55788,9.42607 48.49465,-30.38667 0,-206.38133 z"
       id="path3624"
       inkscape:connector-curvature="0"
       sodipodi:nodetypes="cccccccccc" />
  </g>
  <g
     inkscape:groupmode="layer"
     id="layer4"
     inkscape:label="Footer"
     style="display:inline"
     sodipodi:insensitive="true">
    <path
       style="fill:#7da6d5;fill-opacity:1;stroke:#7a7b7e;stroke-width:1px;stroke-linecap:butt;stroke-linejoin:miter;stroke-opacity:1"
       d="m 168.56036,187.40516 0,17.95636 -43.14864,27.53795 -8.77005,-10.17325 -30.070658,25.45228 -29.565687,-25.45228 -9.471654,10.17325 -42.973245,-27.53795 0,-17.95636 z"
       id="path4440"
       inkscape:connector-curvature="0"
       sodipodi:nodetypes="cccccccccc" />
  </g>
  <g
     inkscape:groupmode="layer"
     id="layer5"
     inkscape:label="TopBar"
     style="display:inline"
     sodipodi:insensitive="true">
    <path
       style="fill:none;stroke:#7a7b7e;stroke-width:1px;stroke-linecap:butt;stroke-linejoin:miter;stroke-opacity:1"
       d="m 4.560426,3.91347 0,26.04705 163.999934,0 0,-26.04705 z"
       id="path4457"
       inkscape:connector-curvature="0" />
  </g>
  <g
     inkscape:groupmode="layer"
     id="layer6"
     inkscape:label="Central"
     style="display:inline"
     sodipodi:insensitive="true">
    <path
       style="opacity:0;fill:#3465a3;fill-opacity:1;stroke:#7a7b7e;stroke-width:1px;stroke-linecap:butt;stroke-linejoin:miter;stroke-opacity:1"
       d="m 4.560426,33.46854 0,150.84486 163.999934,0 0,-150.84486 z"
       id="path4507"
       inkscape:connector-curvature="0" />
    <path
       style="fill:#3465a3;fill-opacity:1;stroke:#7a7b7e;stroke-width:1px;stroke-linecap:butt;stroke-linejoin:miter;stroke-opacity:1"
       d="m 4.560426,33.46854 0,150.84486 163.999934,0 0,-150.84486 z"
       id="path4537"
       inkscape:connector-curvature="0" />
  </g>
  <g
     inkscape:groupmode="layer"
     id="layer9"
     inkscape:label="Tower"
     style="display:inline"
     sodipodi:insensitive="true">
    <path
       style="fill:#cfd6da;fill-opacity:1;stroke:#646464;stroke-width:1px;stroke-linecap:butt;stroke-linejoin:miter;stroke-opacity:1"
       d="m 18.232004,159.375 3.472763,-80.741734 -5.82928,-5.333171 0,-10.294261 4.598349,2.654858 12.393382,-10.096492 4.340954,-36.091927 4.46498,36.339981 12.15467,10.046207 4.46498,-3.59679 0,11.534533 -4.775048,4.775049 1.55034,65.176317 z"
       id="path3836"
       inkscape:connector-curvature="0" />
    <path
       style="fill:none;stroke:#646464;stroke-width:1px;stroke-linecap:butt;stroke-linejoin:miter;stroke-opacity:1"
       d="m 32.743191,55.5642 8.805934,0"
       id="path3883"
       inkscape:connector-curvature="0" />
  </g>
  <g
     inkscape:groupmode="layer"
     id="layer14"
     inkscape:label="Windows"
     style="display:inline"
     sodipodi:insensitive="true">
    <path
       style="fill:none;stroke:#646464;stroke-width:1px;stroke-linecap:butt;stroke-linejoin:miter;stroke-opacity:1"
       d="m 24.805448,62.509725 3.844844,3.844845 4.27894,-4.27894 4.340953,4.340954 4.27894,-4.27894 3.968872,3.968871 3.906858,-3.906858"
       id="path3885"
       inkscape:connector-curvature="0" />
    <path
       style="fill:none;stroke:#646464;stroke-width:1px;stroke-linecap:butt;stroke-linejoin:miter;stroke-opacity:1"
       d="m 18.418045,68.52505 0.06201,4.0929 3.100681,0 0,-4.0929 z"
       id="path3893"
       inkscape:connector-curvature="0" />
    <path
       style="fill:none;stroke:#646464;stroke-width:1px;stroke-linecap:butt;stroke-linejoin:miter;stroke-opacity:1"
       d="m 23.503162,68.52505 0,4.0929 4.030885,0 0,-4.0929 z"
       id="path3895"
       inkscape:connector-curvature="0" />
    <path
       style="fill:none;stroke:#646464;stroke-width:1px;stroke-linecap:butt;stroke-linejoin:miter;stroke-opacity:1"
       d="m 29.456469,68.52505 0,4.0929 2.976654,0 0,-4.0929 z"
       id="path3897"
       inkscape:connector-curvature="0" />
    <path
       style="fill:none;stroke:#646464;stroke-width:1px;stroke-linecap:butt;stroke-linejoin:miter;stroke-opacity:1"
       d="m 34.479572,68.52505 0,4.0929 4.092899,0 0,-4.0929 z"
       id="path3899"
       inkscape:connector-curvature="0" />
    <path
       style="fill:none;stroke:#646464;stroke-width:1px;stroke-linecap:butt;stroke-linejoin:miter;stroke-opacity:1"
       d="m 40.370866,68.52505 0,4.0929 3.038668,0 0,-4.0929 z"
       id="path3901"
       inkscape:connector-curvature="0" />
    <path
       style="fill:none;stroke:#646464;stroke-width:1px;stroke-linecap:butt;stroke-linejoin:miter;stroke-opacity:1"
       d="m 45.455983,68.52505 0,4.0929 3.968872,0 0,-4.0929 z"
       id="path3903"
       inkscape:connector-curvature="0" />
    <path
       style="fill:none;stroke:#646464;stroke-width:1px;stroke-linecap:butt;stroke-linejoin:miter;stroke-opacity:1"
       d="m 54.385944,68.52505 0,4.0929 -2.91464,0 0,-4.0929 z"
       id="path3905"
       inkscape:connector-curvature="0" />
    <path
       style="fill:none;stroke:#646464;stroke-width:1px;stroke-linecap:butt;stroke-linejoin:miter;stroke-opacity:1"
       d="m 23.441148,74.47835 4.092899,0 0,7.00754 -4.154912,0 z"
       id="path3911"
       inkscape:connector-curvature="0" />
    <path
       style="fill:none;stroke:#646464;stroke-width:1px;stroke-linecap:butt;stroke-linejoin:miter;stroke-opacity:1"
       d="m 29.518483,74.47835 3.906858,0 0,7.00754 -3.968872,0 z"
       id="path3913"
       inkscape:connector-curvature="0" />
    <path
       style="fill:none;stroke:#646464;stroke-width:1px;stroke-linecap:butt;stroke-linejoin:miter;stroke-opacity:1"
       d="m 35.47179,74.47835 3.100681,0 0,7.00754 -3.162694,0 z"
       id="path3915"
       inkscape:connector-curvature="0" />
    <path
       style="fill:none;stroke:#646464;stroke-width:1px;stroke-linecap:butt;stroke-linejoin:miter;stroke-opacity:1"
       d="m 40.494893,74.47835 4.030886,0 0,7.00754 -4.030886,0 z"
       id="path3917"
       inkscape:connector-curvature="0" />
    <path
       style="fill:none;stroke:#646464;stroke-width:1px;stroke-linecap:butt;stroke-linejoin:miter;stroke-opacity:1"
       d="m 46.510215,74.47835 4.030885,0 0,7.00754 -4.092899,0 z"
       id="path3919"
       inkscape:connector-curvature="0" />
    <path
       style="fill:none;stroke:#646464;stroke-width:1px;stroke-linecap:butt;stroke-linejoin:miter;stroke-opacity:1"
       d="M 28.588279,84.462547 27.534047,154.16585"
       id="path3921"
       inkscape:connector-curvature="0" />
    <path
       style="fill:none;stroke:#646464;stroke-width:1px;stroke-linecap:butt;stroke-linejoin:miter;stroke-opacity:1"
       d="m 45.517997,84.400533 1.054231,62.881807"
       id="path3923"
       inkscape:connector-curvature="0" />
    <path
       style="fill:none;stroke:#646464;stroke-width:1px;stroke-linecap:butt;stroke-linejoin:miter;stroke-opacity:1"
       d="m 23.503162,86.44698 0,11.10044 3.038667,0 0,-11.10044 z"
       id="path3931"
       inkscape:connector-curvature="0" />
    <path
       style="fill:none;stroke:#646464;stroke-width:1px;stroke-linecap:butt;stroke-linejoin:miter;stroke-opacity:1"
       d="m 32.433123,86.44698 0,11.10044 3.100681,0 0,-11.10044 z"
       id="path3933"
       inkscape:connector-curvature="0" />
    <path
       style="fill:none;stroke:#646464;stroke-width:1px;stroke-linecap:butt;stroke-linejoin:miter;stroke-opacity:1"
       d="m 41.487111,86.44698 0,11.10044 -3.100681,0 0,-11.10044 z"
       id="path3937"
       inkscape:connector-curvature="0" />
    <path
       style="fill:none;stroke:#646464;stroke-width:1px;stroke-linecap:butt;stroke-linejoin:miter;stroke-opacity:1"
       d="m 47.62646,86.44698 2.976653,0 0,11.10044 -3.162694,0 z"
       id="path3939"
       inkscape:connector-curvature="0" />
    <path
       style="fill:none;stroke:#646464;stroke-width:1px;stroke-linecap:butt;stroke-linejoin:miter;stroke-opacity:1"
       d="m 22.634971,105.48516 0,10.97641 2.91464,0 0,-10.97641 z"
       id="path3945"
       inkscape:connector-curvature="0" />
    <path
       style="fill:none;stroke:#646464;stroke-width:1px;stroke-linecap:butt;stroke-linejoin:miter;stroke-opacity:1"
       d="m 32.495137,105.48516 0,10.97641 3.038667,0 0,-10.97641 z"
       id="path3947"
       inkscape:connector-curvature="0" />
    <path
       style="fill:none;stroke:#646464;stroke-width:1px;stroke-linecap:butt;stroke-linejoin:miter;stroke-opacity:1"
       d="m 38.572471,105.48516 0,10.97641 3.844845,0 0,-10.97641 z"
       id="path3949"
       inkscape:connector-curvature="0" />
    <path
       style="fill:none;stroke:#646464;stroke-width:1px;stroke-linecap:butt;stroke-linejoin:miter;stroke-opacity:1"
       d="m 48.556664,105.48516 0,10.97641 2.976654,0 0,-10.97641 z"
       id="path3951"
       inkscape:connector-curvature="0" />
    <path
       style="fill:none;stroke:#646464;stroke-width:1px;stroke-linecap:butt;stroke-linejoin:miter;stroke-opacity:1"
       d="m 21.518726,126.50778 0,13.95306 3.968872,0 0,-13.95306 z"
       id="path3957"
       inkscape:connector-curvature="0" />
    <path
       style="fill:none;stroke:#646464;stroke-width:1px;stroke-linecap:butt;stroke-linejoin:miter;stroke-opacity:1"
       d="m 31.502919,126.50778 0,13.95306 3.968871,0 0,-13.95306 z"
       id="path3959"
       inkscape:connector-curvature="0" />
    <path
       style="fill:none;stroke:#646464;stroke-width:1px;stroke-linecap:butt;stroke-linejoin:miter;stroke-opacity:1"
       d="m 38.696499,126.50778 0,13.95306 3.968871,0 0,-13.95306 z"
       id="path3961"
       inkscape:connector-curvature="0" />
    <path
       style="fill:none;stroke:#646464;stroke-width:1px;stroke-linecap:butt;stroke-linejoin:miter;stroke-opacity:1"
       d="m 48.432637,126.50778 0,13.95306 4.154912,0 0,-13.95306 z"
       id="path3963"
       inkscape:connector-curvature="0" />
  </g>
  <g
     inkscape:groupmode="layer"
     id="layer7"
     inkscape:label="Terecone"
     style="display:inline"
     sodipodi:insensitive="true">
    <path
       style="fill:#383431;fill-opacity:1;stroke:#7a7b7e;stroke-width:1px;stroke-linecap:butt;stroke-linejoin:miter;stroke-opacity:1;enable-background:new"
       d="m 4.560426,184.3134 0,-20.69732 147.687634,-59.28554 16.31229,10.17326 0,69.8096 z"
       id="path4554"
       inkscape:connector-curvature="0" />
  </g>
  <g
     inkscape:groupmode="layer"
     id="layer13"
     inkscape:label="Linii"
     sodipodi:insensitive="true">
    <path
       style="fill:#cfd6da;fill-opacity:1;stroke:#505050;stroke-width:1px;stroke-linecap:butt;stroke-linejoin:miter;stroke-opacity:1"
       d="m 161.36892,179.40217 0,-30.69518 -4.91123,30.69517 z"
       id="path3878"
       inkscape:connector-curvature="0"
       sodipodi:nodetypes="cccc" />
    <path
       style="fill:#cfd6da;fill-opacity:1;stroke:#505050;stroke-width:1px;stroke-linecap:butt;stroke-linejoin:miter;stroke-opacity:1"
       d="m 153.47588,151.68881 3.85882,-25.78395 -8.06845,13.85668 2.63102,2.98182 -3.33262,8.94545 z"
       id="path3880"
       inkscape:connector-curvature="0" />
  </g>
  <g
     inkscape:groupmode="layer"
     id="layer8"
     inkscape:label="Olen"
     style="display:inline"
     sodipodi:insensitive="true">
    <path
       style="fill:#cfd6da;fill-opacity:1;stroke:#7a7b7e;stroke-width:1;stroke-linecap:butt;stroke-linejoin:round;stroke-miterlimit:4;stroke-opacity:1;stroke-dasharray:none"
       d="m 40.43288,194.53672 3.162695,0 0,3.90686 6.945525,0 -4.526994,-11.03842 0,-15.19334 12.774805,-10.72836 c 2.574795,-1.47685 4.676482,-0.96523 3.782835,1.86041 l -7.131566,7.13157 14.852262,14.85226 c -0.409087,4.11479 0.564649,4.49981 3.317728,4.30995 l 0,5.70525 9.798152,0 0,-0.93021 -20.836576,-22.13886 -0.68215,-0.74416 22.696985,-17.3018 1.922422,-0.80618 23.193087,9.17802 -5.33317,11.03842 4.89908,10.67527 c 0.53358,1.52578 0.3897,3.09176 -0.93021,3.09176 -0.24487,3.47795 0.7916,4.15897 3.1627,4.15491 l 0,1.98443 0.99222,0.99222 0,1.92242 6.07733,0 -10.04621,-23.06906 10.17024,-15.0073 23.87524,0 -12.09265,12.09266 -10.9144,0 -1.05423,-1.86041 -1.55034,0 -0.44767,1.67073 -1.16469,1.18189 0,1.30229 1.17826,0.86819 15.9375,0 14.13911,-15.13132 0.68215,-0.99222 -0.74417,-1.42631 -2.97665,-2.48055 -14.82126,-2.04645 4.77505,-5.9533 -3.10068,-25.30156 0,-11.59655 4.03089,-2.79061 c 1.02538,-1.32019 -0.36453,-2.91464 -2.04645,-2.04645 l -3.10068,2.41853 -2.79062,0 -2.79061,-2.35652 -4.65102,0 -9.73614,2.97666 -0.062,2.10846 5.0231,2.60457 4.27894,3.10068 0.18604,2.91464 0,11.59655 c -0.51829,2.54079 -1.65859,4.35591 -4.15491,4.58901 l -53.021642,0 -3.627797,-3.6278 c -1.889968,-0.13576 -1.767388,-0.007 -1.767388,1.76739 l 3.100681,3.10068 0,12.21668 -3.348735,8.30983 -9.147009,9.14701 c -6.163269,2.54166 -8.060561,4.9715 -4.495988,9.02298 l 0,13.643 c -2.540002,2.19624 -2.233902,3.9302 -1.860422,7.13156 z"
       id="path3057"
       inkscape:connector-curvature="0"
       sodipodi:nodetypes="cccccccccccccccccccccccccccccccccccccccccccccccccccccccccccccccccccccc" />
    <rect
       style="fill:#383431;fill-opacity:1;stroke:none"
       id="rect3822"
       width="2.7542973"
       height="1.0179157"
       x="118.5572"
       y="106.52655" />
  </g>
  <g
     inkscape:groupmode="layer"
     id="layer10"
     inkscape:label="Star"
     style="display:inline"
     sodipodi:insensitive="true">
    <path
       sodipodi:type="star"
       style="fill:#798389;fill-opacity:1;fill-rule:evenodd;stroke:#505050;stroke-width:1;stroke-linejoin:round;stroke-miterlimit:4;stroke-opacity:1;stroke-dasharray:none"
       id="path3877"
       sodipodi:sides="5"
       sodipodi:cx="32.123055"
       sodipodi:cy="9.2400255"
       sodipodi:r1="9.8844118"
       sodipodi:r2="3.8159411"
       sodipodi:arg1="0.94238447"
       sodipodi:arg2="1.6297246"
       inkscape:flatsided="false"
       inkscape:rounded="0"
       inkscape:randomized="0"
       d="m 37.933712,17.23614 -6.035394,-4.186797 -5.584429,4.187882 2.116842,-7.033793 -5.708596,-4.0169804 7.343675,-0.1603256 2.056322,-6.67051225 2.421799,6.93470605 6.979473,-0.1056228 -5.846921,4.44621 z"
       inkscape:transform-center-x="-0.15157223"
       inkscape:transform-center-y="-0.73609946"
       transform="matrix(1.0345171,0,0,0.94453621,4.2813324,6.7946518)" />
  </g>
  <g
     inkscape:groupmode="layer"
     id="layer11"
     inkscape:label="Inta"
     style="display:inline"
     sodipodi:insensitive="true">
    <path
       style="fill:#798389;fill-opacity:1;stroke:#505050;stroke-width:1px;stroke-linecap:butt;stroke-linejoin:round;stroke-opacity:1"
       d="m 80.493678,7.5036446 0,15.9995134 1.302286,0.992218 0,1.984436 -6.201362,0 0,-1.984436 c -0.349579,0.262185 -12.54746,6.75084 -12.154669,-4.46498 0.29302,-8.36694 0.06202,-9.674125 0.06202,-9.674125 l -1.054231,-1.7363813 0,-1.1782587 7.131566,0 0,14.077092 c 2.507287,1.657614 3.487656,1.230186 5.271158,0 0,-7.905216 0,-11.968629 0,-11.968629 l -1.426314,0 0,-1.9844358 z"
       id="path3884"
       inkscape:connector-curvature="0"
       sodipodi:nodetypes="ccccccscccccccccc" />
    <path
       style="fill:#798389;fill-opacity:1;stroke:#505050;stroke-width:1px;stroke-linecap:butt;stroke-linejoin:round;stroke-opacity:1"
       d="m 85.507989,26.45249 8.945451,0 0,-0.964703 -1.463839,-2.535443 0,-4.129795 0.586834,-1.315507 4.121924,0 0.302651,1.129509 0,4.658724 -1.861485,1.861485 0,1.29573 9.364175,0 0,-1.841708 -0.7509,-1.300609 0,-12.731471 0.9263,-1.2278069 -0.0877,-1.8417151 -8.068442,0 0.0877,1.8417151 1.052406,1.1401069 0,4.034223 -1.140106,1.052406 -3.858822,0 -1.140107,-1.140107 0,-4.121923 1.096256,-1.0962567 0,-1.7101643 -8.112296,0 0,2.1048166 1.008556,1.0085554 0,13.462027 -0.986631,0.986631 z"
       id="path3038"
       inkscape:connector-curvature="0" />
    <path
       style="fill:#798389;fill-opacity:1;stroke:#505050;stroke-width:1px;stroke-linecap:butt;stroke-linejoin:round;stroke-opacity:1"
       d="m 109.45023,26.45249 7.98074,0 0,-2.104809 -0.9647,-0.964706 0,-9.997857 c 1.0259,-3.19657 5.07204,-2.750029 5.96363,-0.0877 l 0.2631,10.260958 -2.10481,0.877005 0,2.017109 8.68235,0 0,-1.929408 -1.02261,-1.771213 0,-9.366751 c 0.78301,-2.635097 4.7416,-2.567407 5.31993,-0.0877 l 0,10.085557 -1.1401,1.140107 0,1.929408 7.89304,0 0,-1.841708 -0.82686,-1.43216 0,-10.84591 C 138.99869,5.4017969 129.80783,7.50918 127.51653,9.5262961 123.5571,6.2531172 119.46375,6.9626783 116.46627,9.4385951 l 0,-1.9294156 -7.10374,0 0,2.0171161 1.1401,0 0,14.9967864 -1.1401,0 z"
       id="path3808"
       inkscape:connector-curvature="0"
       sodipodi:nodetypes="cccccccccccccccccccccccccccccc" />
    <path
       style="fill:#798389;fill-opacity:1;stroke:#505050;stroke-width:1px;stroke-linecap:butt;stroke-linejoin:round;stroke-opacity:1"
       d="m 162.68443,26.45249 0,-1.929408 -1.22781,0 0,-12.628872 c -0.43471,-7.98074 -15.89004,-4.38503 -16.13689,-2.4556144 -0.0877,1.2862744 0,2.3971474 0,3.3326194 l 3.24492,0 c 1.03836,-3.2598571 7.8444,-2.298275 6.84064,0 -19.6026,5.76296 -8.5113,17.29462 0,12.541171 l 1.22781,1.140104 c 1.79512,0 2.36928,0 6.05133,0 z"
       id="path3812"
       inkscape:connector-curvature="0"
       sodipodi:nodetypes="ccccccccccc" />
    <path
       style="fill:#d1d8dc;fill-opacity:1;stroke:#505050;stroke-width:1px;stroke-linecap:butt;stroke-linejoin:miter;stroke-opacity:1"
       d="m 156.01922,21.190463 c -1.97646,1.032669 -5.54018,2.31026 -6.03636,-0.263102 0.3458,-2.212842 1.95628,-3.398684 5.80749,-3.59572 0.54883,1.161978 0.24189,2.590412 0.22887,3.858822 z"
       id="path3818"
       inkscape:connector-curvature="0"
       sodipodi:nodetypes="cccc" />
  </g>
  <g
     inkscape:groupmode="layer"
     id="layer2"
     inkscape:label="Siyanie"
     style="display:inline"
     sodipodi:insensitive="true">
    <path
       style="fill:#cfd6da;fill-opacity:1;stroke:#7a7b7e;stroke-width:1px;stroke-linecap:butt;stroke-linejoin:miter;stroke-opacity:1"
       d="m 75.470575,50.41707 0,30.076605 2.077456,2.077456 0,-29.921571 z"
       id="path3837"
       inkscape:connector-curvature="0" />
    <path
       style="fill:#cfd6da;fill-opacity:1;stroke:#7a7b7e;stroke-width:1px;stroke-linecap:butt;stroke-linejoin:miter;stroke-opacity:1"
       d="m 79.50146,54.509968 1.984436,1.984436 0,29.890565 -1.953429,-1.953429 z"
       id="path3839"
       inkscape:connector-curvature="0" />
    <path
       style="fill:#cfd6da;fill-opacity:1;stroke:#7a7b7e;stroke-width:1px;stroke-linecap:butt;stroke-linejoin:miter;stroke-opacity:1"
       d="m 84.524563,48.556661 0,39.874757 2.04645,2.04645 0,-39.998785 z"
       id="path3841"
       inkscape:connector-curvature="0" />
    <path
       style="fill:#cfd6da;fill-opacity:1;stroke:#7a7b7e;stroke-width:1px;stroke-linecap:butt;stroke-linejoin:miter;stroke-opacity:1"
       d="m 88.493435,45.517994 0,33.983463 3.00766,3.007661 0,-34.014471 z"
       id="path3843"
       inkscape:connector-curvature="0" />
    <path
       style="fill:#cfd6da;fill-opacity:1;stroke:#7a7b7e;stroke-width:1px;stroke-linecap:butt;stroke-linejoin:miter;stroke-opacity:1"
       d="m 93.578552,54.447955 0,21.146644 1.984435,1.984436 0,-20.960603 z"
       id="path3845"
       inkscape:connector-curvature="0" />
    <path
       style="fill:#cfd6da;fill-opacity:1;stroke:#7a7b7e;stroke-width:1px;stroke-linecap:butt;stroke-linejoin:miter;stroke-opacity:1"
       d="m 98.3536,50.41707 0,21.208657 2.04645,1.798395 0,-20.650535 z"
       id="path3847"
       inkscape:connector-curvature="0" />
    <path
       style="fill:#cfd6da;fill-opacity:1;stroke:#7a7b7e;stroke-width:1px;stroke-linecap:butt;stroke-linejoin:miter;stroke-opacity:1"
       d="m 106.5394,51.719356 -2.13947,-2.13947 0,27.999149 2.20148,1.984436 z"
       id="path3849"
       inkscape:connector-curvature="0" />
    <path
       style="fill:#cfd6da;fill-opacity:1;stroke:#7a7b7e;stroke-width:1px;stroke-linecap:butt;stroke-linejoin:miter;stroke-opacity:1"
       d="m 110.50827,44.525776 0,28.092169 1.95343,1.953429 0,-27.937135 z"
       id="path3851"
       inkscape:connector-curvature="0" />
    <path
       style="fill:#cfd6da;fill-opacity:1;stroke:#7a7b7e;stroke-width:1px;stroke-linecap:butt;stroke-linejoin:miter;stroke-opacity:1"
       d="m 115.46936,36.464005 0,23.007053 2.07746,2.077456 0,-23.038059 z"
       id="path3853"
       inkscape:connector-curvature="0" />
    <path
       style="fill:#cfd6da;fill-opacity:1;stroke:#7a7b7e;stroke-width:1px;stroke-linecap:butt;stroke-linejoin:miter;stroke-opacity:1"
       d="m 119.56226,47.564443 0,11.162452 1.86041,1.860408 0,-11.162451 z"
       id="path3855"
       inkscape:connector-curvature="0" />
    <path
       style="fill:#cfd6da;fill-opacity:1;stroke:#7a7b7e;stroke-width:1px;stroke-linecap:butt;stroke-linejoin:miter;stroke-opacity:1"
       d="m 124.46133,42.54134 0,14.697228 2.04645,2.046449 0,-14.5732 z"
       id="path3857"
       inkscape:connector-curvature="0" />
    <path
       style="fill:#cfd6da;fill-opacity:1;stroke:#7a7b7e;stroke-width:1px;stroke-linecap:butt;stroke-linejoin:miter;stroke-opacity:1"
       d="m 129.60846,36.898101 0,24.619406 2.88364,2.883634 0,-24.960482 z"
       id="path3859"
       inkscape:connector-curvature="0" />
    <path
       style="fill:#cfd6da;fill-opacity:1;stroke:#7a7b7e;stroke-width:1px;stroke-linecap:butt;stroke-linejoin:miter;stroke-opacity:1"
       d="m 134.38351,40.556904 0,11.968629 2.01545,2.015442 0,-11.875608 z"
       id="path3861"
       inkscape:connector-curvature="0" />
    <path
       style="fill:#cfd6da;fill-opacity:1;stroke:#7a7b7e;stroke-width:1px;stroke-linecap:butt;stroke-linejoin:miter;stroke-opacity:1"
       d="m 138.4144,47.564443 0,20.960603 2.04645,2.04645 0,-21.022617 z"
       id="path3863"
       inkscape:connector-curvature="0" />
    <path
       style="fill:#cfd6da;fill-opacity:1;stroke:#7a7b7e;stroke-width:1px;stroke-linecap:butt;stroke-linejoin:miter;stroke-opacity:1"
       d="m 143.68556,48.742702 0,15.627432 1.89141,1.891415 0,-15.720452 z"
       id="path3865"
       inkscape:connector-curvature="0" />
    <path
       style="fill:#cfd6da;fill-opacity:1;stroke:#7a7b7e;stroke-width:1px;stroke-linecap:butt;stroke-linejoin:miter;stroke-opacity:1"
       d="m 147.46839,41.425095 0,26.293774 2.91464,2.914641 0,-26.231761 z"
       id="path3867"
       inkscape:connector-curvature="0" />
    <path
       style="fill:#cfd6da;fill-opacity:1;stroke:#7a7b7e;stroke-width:1px;stroke-linecap:butt;stroke-linejoin:miter;stroke-opacity:1"
       d="m 152.49149,56.494404 0,27.968143 2.94565,2.945647 0,-27.937136 z"
       id="path3869"
       inkscape:connector-curvature="0" />
    <path
       style="fill:#cfd6da;fill-opacity:1;stroke:#7a7b7e;stroke-width:1px;stroke-linecap:butt;stroke-linejoin:miter;stroke-opacity:1"
       d="m 157.76265,53.455737 0,16.123541 1.76739,1.767388 0,-16.588643 z"
       id="path3871"
       inkscape:connector-curvature="0" />
  </g>
  <g
     inkscape:groupmode="layer"
     id="layer12"
     inkscape:label="Roga"
     sodipodi:insensitive="true">
    <path
       style="fill:#cfd6da;fill-opacity:1;stroke:#7a7b7e;stroke-width:1px;stroke-linecap:butt;stroke-linejoin:round;stroke-opacity:1"
       d="m 117.86948,73.723063 9.55935,0 c 18.17424,7.198909 3.29148,27.078577 -5.17433,25.257745 -1.10207,-2.35277 -5.098,-2.141754 -5.70053,0.613904 -6.00719,-0.106014 -10.6684,-5.432278 -14.47059,-7.366843 l -0.4385,3.157219 c -1.38814,0.48725 -3.563356,-1.628469 -5.875932,-3.683422 -1.021451,0.790165 -1.670821,1.58033 0.160354,3.48674 24.976138,13.655014 35.858878,5.764904 45.970108,-6.99476 -4.09146,-3.693922 -3.11136,-5.486008 -3.77112,-7.893045 -0.55544,-2.747949 5.46666,-5.057396 3.85882,-7.191441 -1.87095,-0.730838 -3.56649,1.344741 -5.34973,2.017111 -2.66025,-0.526203 -4.44349,-2.280213 -4.82353,-4.998928 l -0.0877,-4.560426 c -1.90018,-0.146168 -3.62495,3.215685 -5.43743,4.823527 l -7.45454,-7.01604 c -1.30669,-0.640555 -2.61339,1.199434 -1.31551,2.543315 1.37397,1.578609 3.88805,2.718715 4.12192,4.735827 l -4.56042,0 c -1.7873,1.040088 -0.83769,3.069517 0.78931,3.069517 z"
       id="path3874"
       inkscape:connector-curvature="0"
       sodipodi:nodetypes="sccccccccccccccccccs" />
  </g>
</svg>
