<?xml version="1.0" encoding="UTF-8" standalone="no"?>
<!-- Created with Inkscape (http://www.inkscape.org/) -->

<svg
   xmlns:dc="http://purl.org/dc/elements/1.1/"
   xmlns:cc="http://creativecommons.org/ns#"
   xmlns:rdf="http://www.w3.org/1999/02/22-rdf-syntax-ns#"
   xmlns:svg="http://www.w3.org/2000/svg"
   xmlns="http://www.w3.org/2000/svg"
   xmlns:sodipodi="http://sodipodi.sourceforge.net/DTD/sodipodi-0.dtd"
   xmlns:inkscape="http://www.inkscape.org/namespaces/inkscape"
   width="131.42857"
   height="164.28391"
   id="svg3430"
   version="1.1"
   inkscape:version="0.48.4 r9939"
   sodipodi:docname="камызяк.svg"
   inkscape:export-filename="C:\Documents and Settings\1\Рабочий стол\камызяк.png"
   inkscape:export-xdpi="90"
   inkscape:export-ydpi="90">
  <defs
     id="defs3432" />
  <sodipodi:namedview
     id="base"
     pagecolor="#ffffff"
     bordercolor="#ffffff"
     borderopacity="0.0"
     inkscape:pageopacity="0.0"
     inkscape:pageshadow="0"
     inkscape:zoom="2.8"
     inkscape:cx="83.481736"
     inkscape:cy="51.089365"
     inkscape:document-units="px"
     inkscape:current-layer="layer1"
     showgrid="false"
     showguides="true"
     inkscape:guide-bbox="true"
     fit-margin-top="0"
     fit-margin-left="0"
     fit-margin-right="0"
     fit-margin-bottom="0"
     inkscape:window-width="1280"
     inkscape:window-height="968"
     inkscape:window-x="-4"
     inkscape:window-y="-4"
     inkscape:window-maximized="1" />
  <metadata
     id="metadata3435">
    <rdf:RDF>
      <cc:Work
         rdf:about="">
        <dc:format>image/svg+xml</dc:format>
        <dc:type
           rdf:resource="http://purl.org/dc/dcmitype/StillImage" />
        <dc:title />
      </cc:Work>
    </rdf:RDF>
  </metadata>
  <g
     inkscape:label="Layer 1"
     inkscape:groupmode="layer"
     id="layer1"
     transform="translate(-498.91062,-791.61147)">
    <g
       id="g4663"
       transform="translate(-15.37509,130.57326)">
      <path
         sodipodi:nodetypes="ccscccsc"
         inkscape:connector-curvature="0"
         id="rect3892"
         d="m 514.28571,661.03821 131.42857,0 c 0,0 -0.10665,97.09803 0,129.1811 0.0777,23.3861 -29.36787,17.61645 -49.22817,19.6794 -13.60947,2.28283 -16.91109,15.4234 -16.91109,15.4234 0,0 -3.77699,-13.04042 -17.79421,-16.05124 -20.0593,-1.17591 -47.39373,6.22032 -47.4951,-19.05156 -0.13162,-32.81177 0,-129.1811 0,-129.1811 z"
         style="fill:#2696cf;fill-opacity:1;stroke:none" />
      <g
         id="g3884">
        <g
           id="g3874"
           transform="matrix(0.5404557,0,0,0.59846625,200.34469,276.00895)">
          <path
             sodipodi:nodetypes="ccc"
             inkscape:connector-curvature="0"
             id="path3853"
             d="m 683.95114,719.37856 c -24.59485,-21.49384 -4.2227,-29.155 -0.83549,-47.0863 6.17238,18.43201 28.2094,26.57285 0.83549,47.0863 z"
             style="fill:#ffff00;fill-opacity:1;stroke:none" />
          <path
             sodipodi:nodetypes="ccc"
             inkscape:connector-curvature="0"
             id="path3853-1"
             d="m 684.1859,714.77791 c -15.2481,-18.91566 -3.02728,-22.17827 -0.89158,-33.49801 2.88205,12.56542 18.09032,15.60481 0.89158,33.49801 z"
             style="fill:#ffa810;fill-opacity:1;stroke:none" />
        </g>
        <path
           style="fill:#00ff00;fill-opacity:1;stroke:none"
           d="m 548.62182,738.61742 c 5.26073,-6.19646 13.25024,-14.72079 17.56239,-18.63086 19.51097,-17.32116 33.5688,-21.58373 34.20327,-8.53248 -0.52094,9.34642 -9.33996,12.07075 -10.29709,11.90056 2.24395,-5.1556 9.17315,-14.02013 -8.895,-9.05386 -15.33051,5.44837 -12.34036,6.46427 -30.16704,38.60014 5.34045,10.07281 16.53358,20.44551 18.02837,32.49178 -7.10919,-13.34276 -17.39844,-18.65275 -31.96274,-29.20954 0,0 6.99514,-12.22681 11.52784,-17.56574 z"
           id="rect3878"
           inkscape:connector-curvature="0"
           sodipodi:nodetypes="scccccccs" />
        <path
           style="fill:#00ff00;fill-opacity:1;stroke:none"
           d="m 607.81268,784.43829 c -9.36497,-0.29381 -29.202,-18.24448 -37.41105,-41.65215 24.0398,20.67281 32.64464,26.66223 36.07701,21.83381 3.00612,-4.78861 -4.84179,-8.9108 -6.39205,-12.0408 0,0 0.17963,-0.80551 0.67056,-0.62932 8.40205,3.01542 18.31056,11.30636 19.25521,19.50611 1.46681,12.73228 -7.99185,13.1421 -12.19968,12.98235 z"
           id="path3881"
           inkscape:connector-curvature="0"
           sodipodi:nodetypes="ccccssc" />
        <rect
           style="fill:#ffff00;fill-opacity:1;stroke:none"
           id="rect3851"
           width="3.2829959"
           height="80.054588"
           x="568.46338"
           y="704.11212" />
      </g>
    </g>
  </g>
</svg>
