<?xml version="1.0" encoding="UTF-8" standalone="no"?>
<svg xmlns="http://www.w3.org/2000/svg"
   xmlns:dc="http://purl.org/dc/elements/1.1/"
   xmlns:cc="http://creativecommons.org/ns#"
   xmlns:rdf="http://www.w3.org/1999/02/22-rdf-syntax-ns#"
   xmlns:sodipodi="http://sodipodi.sourceforge.net/DTD/sodipodi-0.dtd"
   xmlns:inkscape="http://www.inkscape.org/namespaces/inkscape"
   version="1.1"
   inkscape:version="0.48.2 r9819"
   width="600" height="600" viewBox="31 35 540 540"
   sodipodi:docname="Coat of Arms of Argun (Chechnya).svg">
  <metadata>
    <rdf:RDF>
      <cc:Work rdf:about="">
        <dc:format>image/svg+xml</dc:format>
        <dc:type rdf:resource="http://purl.org/dc/dcmitype/StillImage"/>
        <dc:title>Coat of Arms of Argun (Chechnya)</dc:title>
      </cc:Work>
    </rdf:RDF>
  </metadata>
  <path
     sodipodi:type="arc"
     style="fill:#ffffff;fill-opacity:1;fill-rule:evenodd;stroke:#000000;stroke-width:1.05054004999999990;stroke-miterlimit:4;stroke-opacity:1;stroke-dasharray:none"
     id="path3757"
     sodipodi:cx="482.65359"
     sodipodi:cy="599.44385"
     sodipodi:rx="123.14619"
     sodipodi:ry="119.17373"
     d="m 605.79978,599.44385 a 123.14619,119.17373 0 1 1 -246.29237,0 123.14619,119.17373 0 1 1 246.29237,0 z"
     transform="matrix(2.0719866,0,0,2.1981587,-699.2995,-1012.3068)" />
  <path
     sodipodi:nodetypes="cccccssssssssssssssssssssscccccccccccc"
     inkscape:connector-curvature="0"
     id="path3774"
     d="m 193.75195,470.74664 -59.47405,-58.50415 40.79626,-19.16516 c 0.39684,-2.28145 -9.86409,-9.81885 -6.45453,-9.94594 12.8077,-0.12442 22.4124,-0.13322 30.80374,-0.467 4.42091,-0.18142 -0.68676,2.13387 12.98332,14.98984 6.79013,6.38577 15.95137,15.22036 33.23676,23.63131 6.51012,3.16777 14.17262,6.27544 23.29485,9.16958 3.12325,0.99088 6.10656,1.73834 9.05264,1.6982 2.09932,-0.0285 0.83008,-31.47729 0.42207,-43.90061 -0.0969,-2.94991 0.0231,-4.29293 0.15731,-4.32586 1.81726,-0.4455 2.98478,-0.0987 4.4902,0.0259 3.43725,0.28431 6.83699,0.37326 12.93318,-0.78682 1.11101,-0.21142 -1.43075,50.81555 -0.2827,50.90254 4.90448,0.37168 6.34326,0.17147 7.66266,0.23941 0.7822,0.0402 2.57209,-0.8662 2.91794,0.57863 0.85928,3.5896 -1.33371,-32.30982 -0.10464,-46.46849 0.27016,-3.11211 0.12722,-4.52373 0.88369,-4.52632 1.89651,-0.007 3.23785,-0.3449 4.61999,-0.25999 3.96361,0.24335 7.28104,0.22254 9.69664,0.34544 1.25793,0.0639 2.5484,-1.25683 2.78116,0.20668 0.10727,0.67489 -0.20559,9.59279 -0.39779,19.57907 -0.25553,13.27595 -0.2745,28.96415 1.14459,28.63543 3.73373,-0.86489 7.35598,-1.87733 10.92058,-2.81115 24.17197,-6.3323 39.74115,-18.82755 53.47056,-31.42588 3.18295,-2.92074 3.41733,-3.24335 6.79319,-7.48277 1.44573,-1.81557 3.46763,-4.34948 6.54404,-8.11348 11.43763,-0.63803 21.21992,0.70478 31.74329,0.26819 2.13542,-0.1194 -4.79281,6.76406 -5.19648,10.24416 l 36.37258,20.17385 -56.52494,59.00851 -19.66083,-38.83465 c -19.26567,14.57097 -38.17981,23.40437 -58.34706,25.66045 l 12.14407,42.42628 -80.60947,-1.51305 12.77954,-41.35638 c -25.59602,-2.24408 -46.15977,-10.66357 -62.42316,-24.71297 z"
     style="fill:#008000;fill-opacity:1;stroke:none" />
  <path
     sodipodi:nodetypes="ccccccccccccsscscssssssssssssssssssssssscc"
     inkscape:connector-curvature="0"
     id="path3776"
     d="m 175.56567,214.03446 -37.84713,-18.6608 57.99951,-60.0172 20.64387,38.83466 c 17.98402,-11.92928 37.23551,-20.39037 57.99949,-24.71298 l -12.77954,-39.33899 80.11794,2e-5 -10.81346,39.33899 c 19.60944,4.06772 37.81978,14.14996 56.52492,24.71296 l 18.67781,-36.31292 56.0334,57.9998 -34.898,18.15646 c 0.54285,1.60835 2.01265,3.31585 3.47618,5.04109 2.24635,2.64805 4.47796,5.3379 3.32028,7.77507 -0.0968,0.20376 1.36386,0.14723 0.53346,0.29651 -4.77986,0.84776 -9.61776,0.95108 -14.4585,0.89475 -5.85147,-0.0681 -11.21559,-0.11724 -16.97784,0.38108 -0.72875,-1.80099 -2.8932,-4.10289 -5.32283,-7.38333 -3.61398,-4.87951 -8.8524,-10.69225 -17.12401,-17.35037 -4.22159,-3.39811 -9.23324,-7.01642 -15.22228,-10.84326 -6.46978,-4.13403 -13.56521,-6.48313 -19.79242,-9.13378 -7.64217,-3.25294 -14.67538,-5.62428 -20.9107,-6.05262 -1.32914,-0.0912 0.50801,49.26649 -0.78195,49.26527 -5.47817,-0.005 -11.41532,0.48376 -15.81518,0.82208 -2.13731,0.16429 -0.32871,-5.18284 -0.44959,-9.45628 -0.28342,-10.01858 -0.12809,-24.06573 0.1921,-34.02183 0.15784,-4.90784 0.38986,-8.69205 -0.13421,-8.67016 -0.98199,0.0411 -1.96757,0.0788 -2.95548,0.11078 -3.17184,0.10252 -4.28238,-0.0339 -7.46084,-0.13951 -2.01473,-0.067 -0.30835,53.00553 -2.33404,52.50639 -3.00764,-0.74113 -7.3735,-0.37905 -10.79795,-0.16285 -2.0954,0.13232 -3.83832,0.20989 -4.70194,-0.0533 -0.52106,-0.15872 -0.24538,-2.77225 -0.25393,-6.04088 -0.035,-13.362 0.86485,-43.80852 -1.43473,-43.65245 -5.32534,0.3614 -11.51123,1.91802 -17.97366,4.2961 -14.20889,5.22863 -29.75684,14.39507 -40.45075,23.30699 -13.5691,11.30803 -20.74291,22.05785 -19.79368,22.03804 1.50661,-0.0314 -7.52516,0.3735 -13.21162,0.30398 -7.1623,-0.0876 -15.35153,-0.30046 -18.7954,-0.59206 -1.57291,-0.13323 1.61646,-2.95334 2.64497,-4.44256 2.07742,-3.00803 4.4557,-6.04097 5.32766,-9.04284 z"
     style="fill:#008000;stroke:none" />
  <path
     style="fill:#008000;fill-opacity:1;stroke:#000000;stroke-width:0.53175604;stroke-linecap:butt;stroke-linejoin:miter;stroke-miterlimit:4;stroke-opacity:1;stroke-dasharray:none"
     d="m 57.749403,227.03532 486.457117,-2.40959 10.32193,45.39115 c 0.70914,15.77982 2.17993,31.39218 1.69034,47.43558 -0.33532,10.98842 -1.59029,22.17902 -4.63947,33.76416 l -7.86433,32.78248 -485.622864,-1.00869 c -2.83375,-5.09651 -4.71284,-10.56035 -6.10065,-16.21325 -2.4068,-9.80361 -3.33594,-20.17581 -5.20433,-30.1866 l 0,-54.46937 c 0.34632,-8.84023 1.5332,-17.68046 3.22418,-26.52067 2.00712,-10.49306 4.873217,-18.07216 7.738077,-28.5652 z"
     id="path3782"
     inkscape:connector-curvature="0"
     sodipodi:nodetypes="cccscccsccsc" />
  <path
     style="fill:none;stroke:#000000;stroke-width:2.24223781;stroke-linecap:butt;stroke-linejoin:miter;stroke-miterlimit:4;stroke-opacity:1;stroke-dasharray:none"
     d="m 324.38626,432.11624 0,-48.85785"
     id="path3758"
     inkscape:connector-curvature="0"
     sodipodi:nodetypes="cc" />
  <path
     style="fill:none;stroke:#000000;stroke-width:2.24223781;stroke-linecap:butt;stroke-linejoin:miter;stroke-miterlimit:4;stroke-opacity:1;stroke-dasharray:none"
     d="m 278.50862,383.97165 -0.34756,47.43133 0,1.26087"
     id="path3760"
     inkscape:connector-curvature="0"
     sodipodi:nodetypes="ccc" />
  <path
     style="fill:none;stroke:#000000;stroke-width:2.24223781;stroke-linecap:butt;stroke-linejoin:miter;stroke-miterlimit:4;stroke-opacity:1;stroke-dasharray:none"
     d="m 295.88652,434.256 0.69511,-51.35423"
     id="path3762"
     inkscape:connector-curvature="0" />
  <path
     style="fill:none;stroke:#000000;stroke-width:2.24223781;stroke-linecap:butt;stroke-linejoin:miter;stroke-miterlimit:4;stroke-opacity:1;stroke-dasharray:none"
     d="m 306.31327,435.14757 0.34755,-50.99761"
     id="path3764"
     inkscape:connector-curvature="0"
     sodipodi:nodetypes="cc" />
  <path
     style="fill:none;stroke:#000000;stroke-width:2.24223781;stroke-linecap:butt;stroke-linejoin:miter;stroke-miterlimit:4;stroke-opacity:1;stroke-dasharray:none"
     d="m 322.99603,225.80776 1.04268,-48.3229"
     id="path3768"
     inkscape:connector-curvature="0"
     sodipodi:nodetypes="cc" />
  <path
     style="fill:none;stroke:#000000;stroke-width:2.24223781;stroke-linecap:butt;stroke-linejoin:miter;stroke-miterlimit:4;stroke-opacity:1;stroke-dasharray:none"
     d="m 296.23408,227.41258 0,-52.06748"
     id="path3770"
     inkscape:connector-curvature="0" />
  <path
     style="fill:none;stroke:#000000;stroke-width:2.242;stroke-linecap:butt;stroke-linejoin:miter;stroke-miterlimit:4;stroke-opacity:1;stroke-dasharray:none"
     d="m 307.70348,227.05596 0,-51.71086"
     id="path3772"
     inkscape:connector-curvature="0" />
  <path
     sodipodi:nodetypes="csssccccccssscc"
     inkscape:connector-curvature="0"
     id="path3778"
     d="m 168.62247,384.84166 c -1.05207,0.0214 -1.52966,-4.40453 -2.15187,-5.63271 -1.05128,-2.07509 -3.09884,-3.86477 -3.97405,-5.89391 -1.36467,-3.1639 -2.73619,-6.54927 -4.0563,-10.11997 -3.53144,-9.55209 -6.69483,-20.43052 -8.37405,-31.94329 l -39.87284,13.91278 0,-82.71277 40.79625,13.61734 c 1.18867,-15.59535 10.64185,-32.0803 17.56659,-50.12868 17.35435,-0.84228 35.33947,-0.59955 32.42459,-0.44097 0.53393,-1.94939 -5.74145,6.47626 -11.3933,18.04493 -7.75059,15.86455 -16.83087,41.68759 -14.93534,69.92038 1.82475,27.17835 11.8249,46.95592 19.04573,59.16644 3.03607,5.13404 5.73079,8.67616 7.05825,11.1158 -19.0058,0.90258 -3.77858,4e-4 -32.13366,1.09463 z"
     style="fill:#ffc82a;fill-opacity:1;stroke:none" />
  <path
     sodipodi:nodetypes="ccccccccsssssssssscc"
     inkscape:connector-curvature="0"
     id="path3780"
     d="m 400.75177,224.97077 c 9.41609,-0.41335 43.70923,-0.86532 33.40121,-0.26124 9.25446,16.24915 14.70172,35.34495 18.6306,51.35948 l 39.81321,-13.11299 -0.98304,81.19972 -39.32168,-13.11299 c -3.20119,19.53966 -10.16927,38.30512 -18.30212,53.41702 -12.58974,-0.45304 -13.07446,0.24877 -32.05422,-0.47038 3.72241,-6.411 9.08588,-13.36136 11.48478,-19.10514 2.06019,-4.93274 4.15779,-9.50004 6.01915,-13.99147 2.30658,-5.5658 4.25037,-11.01515 5.31055,-16.89919 0.65433,-3.63159 1.09116,-7.75272 1.67403,-12.00671 1.36227,-9.9426 2.50966,-20.77517 0.98364,-29.09515 -0.79224,-4.31937 -1.378,-8.70435 -2.00691,-13.08723 -0.46451,-3.23722 -1.43934,-6.21495 -2.21011,-9.07206 -1.57808,-5.84959 -3.28221,-11.00677 -5.00972,-15.5156 -3.53584,-9.22864 -7.16958,-15.74104 -10.02046,-19.9148 -1.01712,-1.48908 -2.27168,-2.66794 -3.07806,-3.92418 -2.11146,-3.28944 -4.13375,-6.54568 -3.34781,-4.51575 z"
     style="fill:#ffc82a;fill-opacity:1;stroke:none" />
  <path
     sodipodi:type="arc"
     style="fill:#000000;fill-opacity:0;fill-rule:evenodd;stroke:#000000;stroke-width:0.95275587;stroke-miterlimit:4;stroke-opacity:1;stroke-dasharray:none"
     id="path2984"
     sodipodi:cx="485.43433"
     sodipodi:cy="570.24628"
     sodipodi:rx="62.963455"
     sodipodi:ry="47.073624"
     d="m 548.39778,570.24628 a 62.963455,47.073624 0 1 1 -125.92691,0 62.963455,47.073624 0 1 1 125.92691,0 z"
     transform="matrix(2.0108929,0,0,2.7542993,-674.90188,-1265.5725)" />
  <path
     style="fill:none;stroke:#000000;stroke-width:2.242;stroke-linecap:butt;stroke-linejoin:miter;stroke-miterlimit:4;stroke-opacity:1;stroke-dasharray:none"
     d="m 193.75195,470.74664 -57.01643,-57.49546 38.33864,-20.17385 c -2.67997,-3.40144 -5.1456,-6.90356 -7.40297,-10.5252 -9.16688,-14.70703 -14.89951,-31.38546 -17.60499,-51.30046 l -39.87284,13.91278 0,-82.71277 40.79625,13.61735 c 1.4955,-19.62108 11.06528,-40.51675 24.57606,-62.03457 l -37.84713,-18.6608 57.99951,-60.0172 20.64387,38.83466 c 17.98402,-11.92928 37.23551,-20.39037 57.99949,-24.71298 l -12.77954,-39.33899 80.11794,2e-5 -10.81346,39.33899 c 19.60944,4.06772 37.81978,14.14996 56.52492,24.71296 l 18.67781,-36.31292 56.0334,57.9998 -34.898,18.15646 c 14.14839,21.25575 20.57509,41.71918 25.5591,62.03457 l 39.81321,-13.113 -0.98304,81.19973 -39.32168,-13.11299 c -3.94074,24.05381 -11.74649,44.6375 -23.10151,62.03456 l 36.37258,20.17385 -56.52494,59.0085 -19.66083,-38.83465 c -19.26567,14.57097 -38.17981,23.40438 -58.34706,25.66046 l 12.14407,42.42627 -80.60947,-1.51305 12.77954,-41.35637 c -22.21641,-2.93765 -42.9871,-11.31466 -62.42316,-24.71297 z"
     id="path3756"
     inkscape:connector-curvature="0"
     sodipodi:nodetypes="cccscccccccccccccccccccccccccccccc" />
  <path
     style="fill:none;stroke:#000000;stroke-width:2.24223781;stroke-linecap:butt;stroke-linejoin:miter;stroke-miterlimit:4;stroke-opacity:1;stroke-dasharray:none"
     d="m 278.50862,225.62945 0.34755,-48.50121"
     id="path3766"
     inkscape:connector-curvature="0"
     sodipodi:nodetypes="cc" />
  <path
     style="fill:#ffc82a;fill-opacity:1;stroke:none;stroke-width:2.24200000000000000;stroke-linecap:butt;stroke-linejoin:miter;stroke-miterlimit:4;stroke-opacity:1;stroke-dasharray:none"
     d="m 278.48753,383.8213 c -0.002,-4.02572 0.009,-7.52543 0.0243,-10.72675 0.0415,-8.64281 0.11794,-15.11067 0.0826,-23.8826 -0.0122,-3.10878 -0.0796,-6.36326 -0.24922,-9.82911 -0.10061,-2.05446 -1.11895,-4.01097 -1.92191,-6.05216 -5.09341,-10.76725 -17.16614,-15.65802 -25.90459,-12.25947 -4.16378,1.61938 -7.57052,5.12075 -9.10451,10.7652 -2.39585,9.371 5.56114,14.90118 12.60511,11.66448 5.75596,-6.11078 5.41913,-8.3993 0.89755,-14.972 14.55923,-0.56445 15.49886,18.85064 11.2051,27.60155 -1.73206,3.33984 -4.84255,6.77631 -10.20458,10.36651 -5.90446,1.07355 -11.81526,2.34819 -17.61242,0.009 -4.52848,-1.82751 -8.98761,-5.86036 -13.32024,-13.91712 -3.39371,6.19027 -7.12247,11.44738 -12.68762,11.5899 -2.87702,0.0736 -6.24482,-1.21953 -10.31084,-4.45737 4.88445,-0.81878 9.07694,-2.05819 10.89448,-5.1562 2.06196,-3.51464 2.88029,-7.61947 3.63086,-11.85684 1.06952,-6.03806 2.00147,-12.34529 6.19803,-17.59767 -9.9525,1.44788 -20.83226,3.44471 -20.31618,11.7866 -9.16457,-5.49844 -7.16777,-11.68403 0,-18.18796 -13.90479,0.20275 -15.29037,-7.49966 -21.54857,-12.12529 4.40455,-7.96245 8.536,-16.20512 21.54857,-15.33495 -7.64945,-7.02653 -7.49438,-12.52337 -1.06737,-18.14469 0.018,3.10655 2.27476,5.42547 5.72675,7.32392 4.57285,2.51488 8.90831,1.13974 15.24962,3.03248 -1.80572,-2.78788 -3.0103,-6.38476 -4.02836,-10.18534 -1.42066,-5.30361 -2.47805,-11.00392 -4.29877,-15.45599 -2.12487,-5.19577 -6.43918,-8.13773 -11.92942,-8.29568 1.60537,-1.05577 3.33347,-1.99706 5.61684,-2.42038 1.93033,-0.35788 4.2575,-0.3456 7.24281,0.28062 2.42564,1.38242 5.26743,1.86338 7.36395,3.95878 1.29425,1.29358 2.30446,2.95025 2.75739,6.06632 2.29428,-3.29372 6.5182,-9.69854 10.05441,-12.56352 8.70786,-3.09344 19.34518,-3.653 25.69552,3.06498 2.8489,3.07635 3.81656,6.82689 5.91486,10.17222 2.04558,7.42777 2.03536,11.83137 1.31112,14.71847 -1.55967,6.21748 -9.44056,10.40725 -14.50448,9.70152 3.62703,-6.60052 4.56632,-10.18334 4.00608,-12.09396 -1.07635,-3.67078 -4.94809,-5.34842 -8.09089,-5.23956 -5.10048,0.8593 -9.12679,8.28702 -8.54442,13.0895 2.92541,7.83187 10.87172,12.62843 18.01659,12.00207 10.39803,-1.05658 15.0154,-7.2914 18.02358,-13.8155 1.64557,-2.89745 1.87215,-5.14388 1.90157,-8.45217 -0.66583,-13.64288 0.25192,-26.44712 -0.0801,-42.53797 l 17.79998,0.2521 c -0.7062,12.55713 -0.2539,25.86446 -0.29668,38.4381 l 4.5466,-5.92607 5.79326,6.10438 c 0.60632,-12.91683 0.93494,-17.78765 0.77579,-38.56789 l 15.9306,-0.29538 c -0.4706,19.68709 -0.20193,30.11711 -0.32659,43.92754 -0.0381,3.50885 1.27266,7.39515 3.23536,10.26923 0.58396,0.85513 1.22561,1.62065 1.90661,2.25996 1.97871,2.50969 4.09821,4.76711 6.99709,6.31732 1.76923,0.94614 3.82875,1.62884 6.32378,1.94471 5.03021,0.44172 8.19498,0.046 10.39196,-0.78415 2.91624,-1.28872 5.02683,-3.27511 6.42362,-5.64323 1.79223,-3.03855 2.40926,-6.70553 2.04517,-10.33349 -0.28603,-2.32303 -1.64479,-4.68274 -5.65355,-7.13311 -1.09631,-0.61548 -2.24681,-0.78079 -3.37864,-0.63287 -3.35783,0.43878 -6.55146,3.63426 -7.67896,6.01065 -1.07982,2.27588 -0.22233,5.70187 4.45399,11.38368 -4.82619,-0.57756 -8.50808,-1.76966 -10.9778,-4.19367 -1.88939,-1.85441 -3.06936,-4.42976 -3.50951,-8.00249 -0.95193,-10.13705 0.0273,-19.99771 8.90942,-24.76256 6.96619,-3.5834 13.83077,-4.56861 20.14837,-2.53043 2.56759,0.82833 5.04484,2.15608 7.40185,4.01175 3.12044,2.49789 5.82628,5.59844 8.26521,9.08702 2.39409,-6.25032 5.5095,-9.38157 9.16255,-10.18786 3.93016,-0.86746 7.49958,-0.17865 12.44567,3.34707 -4.84404,0.9049 -8.20269,2.991 -10.63948,5.81019 -7.05761,8.16513 -5.52204,19.8319 -10.80368,29.40929 4.93776,-0.86031 12.34541,-1.90782 16.42741,-3.9164 3.58398,-1.76354 3.24763,-3.91858 5.60907,-7.32258 1.49027,4.86761 8.83474,4.98159 1.4324,17.45307 10.80576,0.68776 14.20428,7.37593 19.11569,12.83857 -5.5956,10.26953 -12.86558,15.18199 -20.75168,15.0432 4.69838,5.31244 6.73007,10.08778 1.63599,17.40981 -1.12906,-3.24516 -3.88117,-5.44944 -7.437,-7.1383 -5.07933,-2.41245 -11.42996,-2.63841 -17.40104,-4.47895 2.51716,3.68254 -2.8473,-3.40304 3.41512,5.47805 0.92862,1.31695 2.70758,2.62143 3.58976,5.00901 3.4718,9.3962 1.68494,12.13206 4.07592,16.57447 1.30016,2.4157 3.12159,4.36602 5.56662,5.72858 2.1173,1.17993 4.70236,1.91905 7.82198,2.13767 -6.63692,8.16717 -15.32538,4.54722 -20.73595,-1.47112 -1.41108,-1.60868 -2.697,-3.73115 -3.73783,-6.85959 -1.03593,4.90199 -3.69597,7.51453 -5.94239,10.26659 -1.97828,2.42356 -4.61973,3.96096 -7.70146,5.15599 -7.269,3.43036 -13.56114,2.33594 -19.54828,-1.9578 -4.50876,-3.07297 -7.8306,-6.87577 -9.61292,-11.27535 -1.73473,-4.28219 -2.01102,-9.12972 -0.50367,-14.41988 1.31352,-4.62293 2.30356,-6.28538 5.25487,-8.8774 1.01016,-0.88719 5.19922,-1.7572 6.76055,-3.01819 -1.69372,7.40242 -4.14433,9.93254 -1.09781,14.05221 4.64183,5.33155 10.36046,4.1422 14.37999,-0.62029 4.53454,-6.98991 -0.0905,-16.269 -6.58289,-19.50716 -11.89262,-4.0094 -19.64645,0.91129 -24.07481,7.58665 -1.2377,1.86572 -3.25829,7.79138 -3.99418,9.77456 l -0.36864,45.03044 -17.35681,-0.007 0,-36.46505 -5.90848,3.56625 -4.17069,-3.92289 -0.26067,36.82171"
     id="path2987"
     inkscape:connector-curvature="0"
     sodipodi:nodetypes="cssscscccccscscssccccccscsscscsccccscscccccccccccccscsccsccsscsccsccscscscccccscsssscccsccscsccccsccccccc" />
  <path
     style="fill:none;stroke:#000000;stroke-width:2.242;stroke-linecap:butt;stroke-linejoin:miter;stroke-miterlimit:4;stroke-opacity:1;stroke-dasharray:none"
     d="m 57.456646,226.58719 106.010204,-0.36995 4.80163,0.077 m 32.11971,-0.20156 201.41434,-0.7054 m 32.41087,-0.11347 109.41214,-0.3832"
     id="path3784"
     inkscape:connector-curvature="0"
     sodipodi:nodetypes="ccccccc" />
  <path
     style="fill:#008000;stroke:#000000;stroke-width:1.77252007px;stroke-linecap:butt;stroke-linejoin:miter;stroke-opacity:1"
     d="m 300.92611,319.42224 -14.33678,-14.62169 13.98921,-14.08674 14.59745,14.08674 z"
     id="path3790"
     inkscape:connector-curvature="0" />
  <path
     style="fill:none;stroke:#000000;stroke-width:2.242;stroke-linecap:butt;stroke-linejoin:miter;stroke-opacity:1;stroke-miterlimit:4;stroke-dasharray:none"
     d="m 57.600596,383.49477 108.559784,0.11257 1.4773,0.002 0.52115,5.4e-4 m 32.52088,0.16088 3.27168,-0.12389 198.02653,0.20524 m 32.84508,0.0341 109.38352,0.1133"
     id="path3786"
     inkscape:connector-curvature="0"
     sodipodi:nodetypes="ccccccccc" />
  <path
     sodipodi:nodetypes="csccsccccccscscssccccccscsscccccccccscccccccccccccccsccsscsccsccscscscccccscssssccccccccccccccccc"
     inkscape:connector-curvature="0"
     id="path3769"
     d="m 278.48753,383.8213 c -0.002,-4.02572 0.009,-7.52543 0.0243,-10.72675 0.0415,-8.64281 0.11794,-15.11067 0.0826,-23.8826 0.23253,-5.87801 -0.16546,-10.8328 -2.17113,-15.88127 -5.09341,-10.76725 -17.16614,-15.65802 -25.90459,-12.25947 -4.16378,1.61938 -7.57052,5.12075 -9.10451,10.7652 -2.39585,9.371 5.56114,14.90118 12.60511,11.66448 5.75596,-2.50754 5.41913,-8.39929 0.89755,-14.972 10.58243,-0.41027 13.96941,9.73498 13.3813,18.66829 -0.24744,5.22125 -2.10953,9.22205 -5.19081,12.88454 -4.07736,4.82435 -7.94243,6.95948 -14.83492,7.61147 -3.3445,0.30421 -6.67432,0.14157 -9.96747,-1.18724 -4.52856,-1.8273 -8.98761,-5.86036 -13.32024,-13.91712 -3.39371,6.19027 -7.12247,11.44738 -12.68762,11.5899 -2.87702,0.0736 -6.24482,-1.21953 -10.31084,-4.45737 4.88445,-0.81878 9.07694,-2.05819 10.89448,-5.1562 2.06196,-3.51464 2.88029,-7.61947 3.63086,-11.85684 1.06952,-6.03806 2.00147,-12.34529 6.19803,-17.59767 -9.9525,1.44788 -20.83226,3.44471 -20.31618,11.7866 -9.16457,-5.49844 -7.16777,-11.68403 0,-18.18796 -13.90479,0.20275 -15.29037,-7.49966 -21.54857,-12.12529 4.40455,-7.96245 8.536,-16.20512 21.54857,-15.33495 -7.64945,-7.02653 -7.49438,-12.52337 -1.06737,-18.14469 0.018,3.10655 2.27476,5.42547 5.72675,7.32392 4.57285,2.51488 8.90831,1.13974 15.24962,3.03248 -1.80572,-2.78788 -3.0103,-6.38476 -4.02836,-10.18534 -1.42066,-5.30361 -2.47805,-11.00392 -4.29877,-15.45599 -2.12487,-5.19577 -6.43918,-8.13773 -11.92942,-8.29568 1.60537,-1.05577 3.33347,-1.99706 5.61684,-2.42038 5.21248,-0.57479 11.16631,0.93911 14.60676,4.2394 1.29425,1.29358 2.30446,2.95025 2.75739,6.06632 1.56618,-2.24845 4.03159,-5.94668 6.56359,-8.97893 2.52884,-3.70016 6.50012,-4.72549 10.36796,-5.3688 6.93745,-1.12672 14.07423,-0.16962 18.81838,4.84919 5.16735,6.8185 9.25944,16.27201 7.22598,24.89069 -1.55967,6.21748 -9.44056,10.40725 -14.50448,9.70152 3.62703,-6.60052 4.56632,-10.18334 4.00608,-12.09396 -1.07635,-3.67078 -4.94809,-5.34842 -8.09089,-5.23956 -5.10048,0.8593 -9.12679,8.28702 -8.54442,13.0895 2.92541,7.83187 10.87172,12.62843 18.01659,12.00207 10.56113,-2.02834 18.16787,-10.02101 19.65926,-19.20581 -0.004,-15.84706 0.41987,-32.61558 0.18579,-45.59983 m 17.79998,0.2521 c -0.7062,12.55713 -0.2539,25.86446 -0.29668,38.4381 l 4.5466,-5.92607 5.79326,6.10438 c 0.60632,-12.91683 0.93494,-17.78765 0.77579,-38.56789 m 15.9306,-0.29538 c -0.4706,19.68709 -0.20193,30.11711 -0.32659,43.92754 0.4804,7.81766 5.72718,15.3241 12.13906,18.84651 1.76923,0.94614 3.82875,1.62884 6.32378,1.94471 5.03021,0.44172 8.19498,0.046 10.39196,-0.78415 2.91624,-1.28872 5.02683,-3.27511 6.42362,-5.64323 1.79223,-3.03855 2.40926,-6.70553 2.04517,-10.33349 -0.28603,-2.32303 -1.64479,-4.68274 -5.65355,-7.13311 -1.09631,-0.61548 -2.24681,-0.78079 -3.37864,-0.63287 -3.35783,0.43878 -6.55146,3.63426 -7.67896,6.01065 -1.07982,2.27588 -0.22233,5.70187 4.45399,11.38368 -4.82619,-0.57756 -8.50808,-1.76966 -10.9778,-4.19367 -1.88939,-1.85441 -3.06936,-4.42976 -3.50951,-8.00249 -0.95193,-10.13705 0.0273,-19.99771 8.90942,-24.76256 6.96619,-3.5834 13.83077,-4.56861 20.14837,-2.53043 2.56759,0.82833 5.04484,2.15608 7.40185,4.01175 3.12044,2.49789 5.82628,5.59844 8.26521,9.08702 2.39409,-6.25032 5.5095,-9.38157 9.16255,-10.18786 3.93016,-0.86746 7.49958,-0.17865 12.44567,3.34707 -4.84404,0.9049 -8.20269,2.991 -10.63948,5.81019 -7.05761,8.16513 -5.52204,19.8319 -10.80368,29.40929 4.93776,-0.86031 12.34541,-1.90782 16.42741,-3.9164 3.58398,-1.76354 3.24763,-3.91858 5.60907,-7.32258 1.49027,4.86761 8.83474,4.98159 1.4324,17.45307 10.80576,0.68776 14.20428,7.37593 19.11569,12.83857 -5.5956,10.26953 -12.86558,15.18199 -20.75168,15.0432 4.69838,5.31244 6.73007,10.08778 1.63599,17.40981 -1.12906,-3.24516 -3.88117,-5.44944 -7.437,-7.1383 -5.07933,-2.41245 -11.42996,-2.63841 -17.40104,-4.47895 2.51716,3.68254 -2.8473,-3.40304 3.41512,5.47805 0.92862,1.31695 2.70758,2.62143 3.58976,5.00901 3.4718,9.3962 1.68494,12.13206 4.07592,16.57447 1.30016,2.4157 3.12159,4.36602 5.56662,5.72858 2.1173,1.17993 4.70236,1.91905 7.82198,2.13767 -6.63692,8.16717 -15.32538,4.54722 -20.73595,-1.47112 -1.41108,-1.60868 -2.697,-3.73115 -3.73783,-6.85959 -1.98439,7.11645 -7.4401,12.97563 -13.64385,15.42258 -12.62727,4.48859 -24.52574,-2.211 -29.1612,-13.23315 -1.73473,-4.28219 -2.01102,-9.12972 -0.50367,-14.41988 1.8422,-7.632 6.8223,-9.28 12.01542,-11.89559 -2.15167,7.7399 -5.86606,16.88873 6.76501,18.07544 3.7425,-0.24619 6.76479,-3.59435 7.44264,-8.36876 1.29059,-9.29641 -5.26434,-17.08844 -14.33406,-17.89838 -11.692,-0.94563 -21.05875,11.87588 -21.26701,22.37543 l -0.34492,42.13268 m -17.35681,-0.007 0,-36.46505 -5.20624,3.56625 -4.87293,-3.92289 -0.26067,36.82171"
     style="fill:#ffc82a;fill-opacity:0;stroke:#000000;stroke-width:2.2420001;stroke-linecap:butt;stroke-linejoin:miter;stroke-miterlimit:4;stroke-opacity:1;stroke-dasharray:none" />
  <path
     transform="matrix(2.0719866,0,0,2.1981587,-699.2995,-1012.3068)"
     d="m 605.79978,599.44385 a 123.14619,119.17373 0 1 1 -246.29237,0 123.14619,119.17373 0 1 1 246.29237,0 z"
     sodipodi:ry="119.17373"
     sodipodi:rx="123.14619"
     sodipodi:cy="599.44385"
     sodipodi:cx="482.65359"
     id="path3771"
     style="fill:#ffffff;fill-opacity:0;fill-rule:evenodd;stroke:#000000;stroke-width:1.05054004999999990;stroke-miterlimit:4;stroke-opacity:1;stroke-dasharray:none"
     sodipodi:type="arc" />
</svg>
