<?xml version="1.0" encoding="UTF-8" standalone="no"?>
<svg
   xmlns:dc="http://purl.org/dc/elements/1.1/"
   xmlns:cc="http://creativecommons.org/ns#"
   xmlns:rdf="http://www.w3.org/1999/02/22-rdf-syntax-ns#"
   xmlns:svg="http://www.w3.org/2000/svg"
   xmlns="http://www.w3.org/2000/svg"
   xmlns:sodipodi="http://sodipodi.sourceforge.net/DTD/sodipodi-0.dtd"
   xmlns:inkscape="http://www.inkscape.org/namespaces/inkscape"
   width="187.59045"
   height="297.61646"
   id="svg2"
   sodipodi:version="0.32"
   inkscape:version="0.46"
   sodipodi:docname="Kemerovo COA.svg"
   inkscape:output_extension="org.inkscape.output.svg.inkscape"
   version="1.0"
   inkscape:export-filename="E:\Documents\Flags\Countries\Russia\Kemerovskaya Oblast\Kemerovo COA.png"
   inkscape:export-xdpi="181.35251"
   inkscape:export-ydpi="181.35251">
  <metadata
     id="metadata55">
    <rdf:RDF>
      <cc:Work
         rdf:about="">
        <dc:format>image/svg+xml</dc:format>
        <dc:type
           rdf:resource="http://purl.org/dc/dcmitype/StillImage" />
      </cc:Work>
    </rdf:RDF>
  </metadata>
  <sodipodi:namedview
     inkscape:window-height="781"
     inkscape:window-width="1280"
     inkscape:pageshadow="2"
     inkscape:pageopacity="0.0"
     guidetolerance="10.0"
     gridtolerance="10.0"
     objecttolerance="10.0"
     borderopacity="1.0"
     bordercolor="#666666"
     pagecolor="#ffffff"
     id="base"
     showgrid="false"
     showguides="true"
     inkscape:guide-bbox="true"
     inkscape:zoom="1.9084966"
     inkscape:cx="93.795228"
     inkscape:cy="148.80822"
     inkscape:window-x="-4"
     inkscape:window-y="-4"
     inkscape:current-layer="svg2" />
  <defs
     id="defs4">
    <inkscape:perspective
       sodipodi:type="inkscape:persp3d"
       inkscape:vp_x="0 : 157.383 : 1"
       inkscape:vp_y="0 : 1000 : 0"
       inkscape:vp_z="204.74001 : 157.383 : 1"
       inkscape:persp3d-origin="102.37 : 104.922 : 1"
       id="perspective57" />
    <marker
       id="ArrowEnd"
       viewBox="0 0 10 10"
       refX="0"
       refY="5"
       markerUnits="strokeWidth"
       markerWidth="4"
       markerHeight="3"
       orient="auto">
      <path
         d="M 0,0 L 10,5 L 0,10 L 0,0 z"
         id="path7" />
    </marker>
    <marker
       id="ArrowStart"
       viewBox="0 0 10 10"
       refX="10"
       refY="5"
       markerUnits="strokeWidth"
       markerWidth="4"
       markerHeight="3"
       orient="auto">
      <path
         d="M 10,0 L 0,5 L 10,10 L 10,0 z"
         id="path10" />
    </marker>
  </defs>
  <path
     style="fill:#ffff00;stroke:#000000;stroke-width:1.80873001"
     d="M 0.9109802,0.904365 L 186.68609,0.904365 C 186.68609,86.149605 186.68609,171.39611 186.68609,256.6421 C 186.68609,299.4611 93.90509,249.17711 93.14009,296.7121 C 92.30109,249.2031 0.0057702,296.3171 0.9109802,256.6421 L 0.9109802,0.904365 z"
     id="path16" />
  <path
     style="fill:#000000;stroke:#000000;stroke-width:0.56047952"
     d="M 9.1456902,42.522905 L 178.45109,42.522905 C 178.45109,113.4841 178.45109,182.1321 178.45109,253.09511 C 178.45109,261.0141 174.17109,266.59411 167.45709,266.5661 L 109.37509,266.3251 C 105.42309,266.3087 96.67809,271.1611 93.71609,275.8121 C 90.89659,269.1851 81.177791,266.70852 76.91719,266.7051 L 18.38209,266.6581 C 12.54019,266.6541 8.9717902,261.8961 9.1456902,254.92911 L 9.1456902,42.522905 z"
     id="path18"
     sodipodi:nodetypes="ccscscsccc" />
  <path
     style="fill:#000000;stroke:#000000;stroke-width:0.21602701"
     d="M 28.04589,36.167805 L 21.15289,36.167805 L 18.77229,29.125605 C 18.20509,27.463505 17.76199,26.423005 17.44809,26.010805 C 17.12969,25.592105 16.69629,25.388805 16.13809,25.388805 L 16.13809,36.167805 L 10.02469,36.167805 L 10.02469,8.919505 L 16.13809,8.919505 L 16.13809,19.380905 C 16.66849,19.349105 17.08379,19.089205 17.37889,18.600705 C 17.67889,18.118505 18.14009,16.735605 18.77229,14.438905 C 19.23389,12.745005 19.69509,11.526805 20.16569,10.790805 C 20.63149,10.048605 21.39299,9.522205 22.44929,9.198405 C 23.50139,8.874905 25.15759,8.716505 27.40919,8.716505 L 27.40919,14.476905 L 27.10019,14.476905 C 26.05289,14.476905 25.27749,14.749605 24.77489,15.295405 C 24.26709,15.840805 23.85659,16.722805 23.52919,17.941005 C 23.20599,19.165405 22.85559,20.072605 22.48169,20.675405 C 22.10799,21.277805 21.59569,21.760005 20.95019,22.115305 C 21.83129,22.515005 22.60189,23.200205 23.26159,24.170905 C 23.91669,25.141605 24.61779,26.657805 25.35609,28.713405 L 28.04589,36.167805 z M 30.22349,8.919505 L 46.62989,8.919505 L 46.62989,14.737205 L 36.35959,14.737205 L 36.35959,19.070205 L 45.88689,19.070205 L 45.88689,24.627605 L 36.35959,24.627605 L 36.35959,29.994805 L 46.92979,29.994805 L 46.92979,36.167805 L 30.22349,36.167805 L 30.22349,8.919505 z M 50.15949,8.919505 L 58.21479,8.919505 L 61.32459,25.496805 L 64.42039,8.919505 L 72.44819,8.919505 L 72.44819,36.167805 L 67.44699,36.167805 L 67.44699,15.390605 L 63.56679,36.167805 L 59.04069,36.167805 L 55.17459,15.390605 L 55.17459,36.167805 L 50.15949,36.167805 L 50.15949,8.919505 z M 76.34209,8.919505 L 92.74809,8.919505 L 92.74809,14.737205 L 82.47849,14.737205 L 82.47849,19.070205 L 92.00609,19.070205 L 92.00609,24.627605 L 82.47849,24.627605 L 82.47849,29.994805 L 93.04809,29.994805 L 93.04809,36.167805 L 76.34209,36.167805 L 76.34209,8.919505 z M 96.31909,8.919505 L 106.49709,8.919505 C 108.71209,8.919505 110.37309,9.642705 111.47509,11.095305 C 112.57809,12.542005 113.13209,14.610205 113.13209,17.281005 C 113.13209,20.034405 112.53209,22.185305 111.32809,23.733205 C 110.12409,25.281105 108.28709,26.055005 105.81909,26.055005 L 102.46909,26.055005 L 102.46909,36.167805 L 96.31909,36.167805 L 96.31909,8.919505 z M 102.46909,20.535605 L 103.96909,20.535605 C 105.15009,20.535605 105.97609,20.256605 106.45609,19.691905 C 106.93109,19.127205 107.17109,18.404005 107.17109,17.528505 C 107.17109,16.672005 106.96309,15.942305 106.54809,15.352405 C 106.13809,14.756205 105.35809,14.457905 104.21309,14.457905 L 102.46909,14.457905 L 102.46909,20.535605 z M 115.56309,22.559505 C 115.56309,18.112205 116.46709,14.648105 118.26709,12.174005 C 120.07109,9.693405 122.58109,8.456205 125.79709,8.456205 C 129.09509,8.456205 131.63709,9.674405 133.42309,12.110505 C 135.20409,14.540405 136.09909,17.953505 136.09909,22.337505 C 136.09909,25.522105 135.70709,28.135905 134.92709,30.172605 C 134.14709,32.209005 133.02209,33.795205 131.55009,34.930605 C 130.07309,36.066305 128.24209,36.631005 126.04109,36.631005 C 123.80809,36.631005 121.95809,36.142305 120.49109,35.165305 C 119.02809,34.182105 117.84209,32.633905 116.92909,30.515105 C 116.02009,28.396205 115.56309,25.744305 115.56309,22.559505 z M 121.69009,22.597505 C 121.69009,25.350805 122.05909,27.324005 122.80209,28.529405 C 123.54509,29.728405 124.56009,30.331105 125.83809,30.331105 C 127.15309,30.331105 128.17209,29.741105 128.89209,28.567405 C 129.61209,27.387505 129.97709,25.274905 129.97709,22.229505 C 129.97709,19.660105 129.59809,17.788505 128.84609,16.602305 C 128.09409,15.422105 127.07409,14.832105 125.78209,14.832105 C 124.55109,14.832105 123.55909,15.428605 122.81109,16.634105 C 122.06409,17.833005 121.69009,19.825105 121.69009,22.597505 z M 139.40709,8.919505 L 150.87209,8.919505 C 152.78209,8.919505 154.24909,9.572905 155.26909,10.873305 C 156.29309,12.174005 156.80509,13.785505 156.80509,15.701305 C 156.80509,17.312805 156.44109,18.696005 155.71209,19.850405 C 155.22309,20.618105 154.51209,21.227005 153.57509,21.671305 C 154.99709,22.140805 156.04409,22.952705 156.71709,24.094605 C 157.38609,25.243105 157.72309,26.683305 157.72309,28.415205 C 157.72309,29.829905 157.48309,31.098805 157.00809,32.228005 C 156.52809,33.357205 155.87809,34.245405 155.04709,34.905405 C 154.53509,35.311305 153.76009,35.609605 152.72209,35.793605 C 151.34309,36.040805 150.42909,36.167805 149.97709,36.167805 L 139.40709,36.167805 L 139.40709,8.919505 z M 145.58509,19.609405 L 148.24709,19.609405 C 149.20209,19.609405 149.86609,19.380905 150.24409,18.930705 C 150.61809,18.473705 150.80309,17.820205 150.80309,16.970305 C 150.80309,16.177105 150.61809,15.555305 150.24409,15.111405 C 149.86609,14.660905 149.21509,14.438905 148.28809,14.438905 L 145.58509,14.438905 L 145.58509,19.609405 z M 145.58509,30.312105 L 148.70809,30.312105 C 149.76509,30.312105 150.50709,30.058405 150.93709,29.544405 C 151.37009,29.030705 151.58709,28.338905 151.58709,27.470005 C 151.58709,26.664305 151.37509,26.017105 150.94609,25.528605 C 150.51709,25.040105 149.76909,24.792605 148.69409,24.792605 L 145.58509,24.792605 L 145.58509,30.312105 z M 160.15509,22.559505 C 160.15509,18.112205 161.05909,14.648105 162.85809,12.174005 C 164.66209,9.693405 167.17209,8.456205 170.38809,8.456205 C 173.68709,8.456205 176.22909,9.674405 178.01409,12.110505 C 179.79509,14.540405 180.69009,17.953505 180.69009,22.337505 C 180.69009,25.522105 180.29809,28.135905 179.51809,30.172605 C 178.73909,32.209005 177.61309,33.795205 176.14109,34.930605 C 174.66509,36.066305 172.83309,36.631005 170.63209,36.631005 C 168.39909,36.631005 166.54909,36.142305 165.08209,35.165305 C 163.61909,34.182105 162.43409,32.633905 161.52009,30.515105 C 160.61109,28.396205 160.15509,25.744305 160.15509,22.559505 z M 166.28209,22.597505 C 166.28209,25.350805 166.65109,27.324005 167.39309,28.529405 C 168.13609,29.728405 169.15109,30.331105 170.42909,30.331105 C 171.74409,30.331105 172.76409,29.741105 173.48409,28.567405 C 174.20309,27.387505 174.56809,25.274905 174.56809,22.229505 C 174.56809,19.660105 174.18909,17.788505 173.43809,16.602305 C 172.68609,15.422105 171.66609,14.832105 170.37409,14.832105 C 169.14209,14.832105 168.15009,15.428605 167.40309,16.634105 C 166.65509,17.833005 166.28209,19.825105 166.28209,22.597505 z"
     id="path20" />
  <path
     style="fill:#ff0000;stroke:#000000;stroke-width:0.56699997"
     d="M 9.15625 42.53125 L 9.15625 140.3125 L 178.4375 140.3125 C 178.4375 107.89366 178.4375 75.48429 178.4375 42.53125 L 9.15625 42.53125 z "
     id="path26" />
  <path
     style="fill:#ffff00;stroke:#000000;stroke-width:1.00018799"
     d="M 153.13709,170.52611 C 152.41809,173.90811 151.42709,177.20611 150.18209,180.4041 L 138.54209,180.81811 C 137.92109,184.85311 134.87709,189.8991 132.06609,191.89111 L 138.28709,200.0951 C 134.34609,204.5481 129.80609,208.40711 124.80309,211.5281 L 117.05609,204.22911 C 113.22209,206.88511 107.34209,208.08011 103.45609,208.6421 L 103.48709,219.6091 C 100.40109,220.1191 97.23709,220.38511 94.01509,220.38511 C 91.28039,220.38511 88.57519,220.1891 85.91549,219.81011 L 85.18109,208.28611 C 80.35009,207.29311 75.53139,205.52011 71.74139,203.1001 L 64.10199,212.0641 C 58.80179,208.9001 54.01379,204.89211 49.87409,200.24311 L 57.38899,192.33011 L 50.64399,181.29511 L 37.97979,180.74711 C 36.71829,177.49611 35.70449,174.11111 34.96309,170.6181 L 153.13709,170.52611 z"
     id="path28" />
  <path
     style="fill:#ffffff;stroke:#000000;stroke-width:2.00037599"
     d="M 125.02509,134.10611 C 129.18109,140.5911 131.66409,148.4401 131.66409,156.89611 C 131.66409,179.1841 114.77009,197.25911 93.93809,197.25911 C 73.10649,197.25911 56.21249,178.40111 56.21249,156.89611 C 56.21249,135.39111 71.32129,116.7991 108.31409,116.7991 L 135.37509,116.5331 L 135.37509,124.76711 C 132.86509,125.0301 125.17609,127.71111 122.82609,130.50911 C 123.50809,131.7991 124.36309,132.8411 125.02509,134.10611 z"
     id="path30" />
  <path
     id="path34"
     d="M 42.24629,156.4411 L 55.49779,156.4411 L 44.40979,168.51411 L 31.42879,168.51411 L 42.24629,156.4411 z"
     style="fill:#ffff00;stroke:none;stroke-width:0.56699997000000002" />
  <path
     id="path36"
     d="M 42.24629,154.1351 L 55.49779,154.1351 L 44.40979,142.06211 L 31.42879,142.06211 L 42.24629,154.1351 z"
     style="fill:#ffff00;stroke:none;stroke-width:0.56699997000000002" />
  <path
     id="path38"
     d="M 38.18979,154.1351 L 27.10179,142.06211 L 5.0609902,141.92611 L 5.0609902,144.36711 L 16.18659,144.36711 L 18.37459,146.81011 L 5.0609902,146.81011 L 5.0609902,149.25111 L 20.56259,149.25111 L 22.75029,151.69311 L 5.0609902,151.69311 L 5.0609902,154.1351 L 38.18979,154.1351 z"
     style="fill:#ffff00;stroke:none;stroke-width:0.56699997000000002"
     sodipodi:nodetypes="ccccccccccccc" />
  <path
     id="path40"
     d="M 38.18979,156.3041 L 27.10179,168.37811 L 5.0609902,168.51411 L 5.0609902,166.0721 L 16.18659,166.0721 L 18.37459,163.6301 L 5.0609902,163.6301 L 5.0609902,161.1881 L 20.56259,161.1881 L 22.75029,158.74611 L 5.0609902,158.74611 L 5.0609902,156.3041 L 38.18979,156.3041 z"
     style="fill:#ffff00;stroke:none;stroke-width:0.56699997000000002"
     sodipodi:nodetypes="ccccccccccccc" />
  <path
     id="path44"
     d="M 146.31109,156.4411 L 133.05909,156.4411 L 144.14709,168.51411 L 157.12809,168.51411 L 146.31109,156.4411 z"
     style="fill:#ffff00;stroke:none;stroke-width:0.56699997000000002" />
  <path
     id="path46"
     d="M 146.31109,154.1351 L 133.05909,154.1351 L 144.14709,142.06211 L 157.12809,142.06211 L 146.31109,154.1351 z"
     style="fill:#ffff00;stroke:none;stroke-width:0.56699997000000002" />
  <path
     id="path48"
     d="M 150.36709,154.1351 L 161.45509,142.06211 L 183.49609,141.92611 L 183.49609,144.36711 L 172.37109,144.36711 L 170.18309,146.81011 L 183.49609,146.81011 L 183.49609,149.25111 L 167.99509,149.25111 L 165.80709,151.69311 L 183.49609,151.69311 L 183.49609,154.1351 L 150.36709,154.1351 z"
     style="fill:#ffff00;stroke:none;stroke-width:0.56699997000000002"
     sodipodi:nodetypes="ccccccccccccc" />
  <path
     id="path50"
     d="M 150.36709,156.3041 L 161.45509,168.37811 L 183.49609,168.51411 L 183.49609,166.0721 L 172.37109,166.0721 L 170.18309,163.6301 L 183.49609,163.6301 L 183.49609,161.1881 L 167.99509,161.1881 L 165.80709,158.74611 L 183.49609,158.74611 L 183.49609,156.3041 L 150.36709,156.3041 z"
     style="fill:#ffff00;stroke:none;stroke-width:0.56699997000000002"
     sodipodi:nodetypes="ccccccccccccc" />
</svg>
