<?xml version="1.0" encoding="UTF-8" standalone="no"?>
<!-- Created with Inkscape (http://www.inkscape.org/) -->

<svg
   xmlns:dc="http://purl.org/dc/elements/1.1/"
   xmlns:cc="http://creativecommons.org/ns#"
   xmlns:rdf="http://www.w3.org/1999/02/22-rdf-syntax-ns#"
   xmlns:svg="http://www.w3.org/2000/svg"
   xmlns="http://www.w3.org/2000/svg"
   xmlns:sodipodi="http://sodipodi.sourceforge.net/DTD/sodipodi-0.dtd"
   xmlns:inkscape="http://www.inkscape.org/namespaces/inkscape"
   version="1.1"
   width="542"
   height="703"
   id="svg2"
   inkscape:version="0.48.1 "
   sodipodi:docname="Coat of arms of Malaya Vishera.svg">
  <sodipodi:namedview
     pagecolor="#ffffff"
     bordercolor="#666666"
     borderopacity="1"
     objecttolerance="10"
     gridtolerance="10"
     guidetolerance="10"
     inkscape:pageopacity="0"
     inkscape:pageshadow="2"
     inkscape:window-width="1440"
     inkscape:window-height="848"
     id="namedview21"
     showgrid="false"
     inkscape:zoom="1.0500988"
     inkscape:cx="271"
     inkscape:cy="122.95008"
     inkscape:window-x="-8"
     inkscape:window-y="-8"
     inkscape:window-maximized="1"
     inkscape:current-layer="svg2" />
  <defs
     id="defs4" />
  <metadata
     id="metadata7">
    <rdf:RDF>
      <cc:Work
         rdf:about="">
        <dc:format>image/svg+xml</dc:format>
        <dc:type
           rdf:resource="http://purl.org/dc/dcmitype/StillImage" />
        <dc:title></dc:title>
      </cc:Work>
    </rdf:RDF>
  </metadata>
  <g
     transform="translate(0.5625,2.5)"
     id="layer2"
     style="display:inline">
    <path
       d="m 1.4375,0 0,577.84375 0,2.15625 0.0625,0 c 1.1128269,23.86304 20.799249,42.84375 44.9375,42.84375 0.712446,0 1.420674,-0.0298 2.125,-0.0625 l 0,0.0625 c 27.622771,-0.80456 56.32692,0.79534 83.4375,0.5 67.8794,0 124.48931,32.06964 137.25,74.625 l 1.03125,0.53125 1.125,-0.59375 c 12.79936,-42.52255 69.37443,-74.5625 137.21875,-74.5625 29.00391,-1.00395 60.0869,-0.53251 85.53125,-0.5 l 3,0 0,-0.125 C 519.9045,621.22112 538.02746,602.86502 539.09375,580 l 0.0625,0 0,-2.15625 0,-577.84375 z"
       id="rect4088"
       style="fill:#009240;fill-opacity:1;stroke:#000000;stroke-width:4;stroke-miterlimit:4;stroke-opacity:1;stroke-dasharray:none"
       inkscape:connector-curvature="0"
       sodipodi:nodetypes="ccccsccccccccccccccc" />
  </g>
  <g
     transform="translate(0.5625,2.5)"
     id="layer3"
     style="display:inline">
    <path
       d="m 234.59375,1.65625 12.375,71.78125 65.21875,23.375 11.78125,67.5 65.5625,23.21875 L 401.3125,255 l 65.4375,23.125 11.78125,67.5 58.59375,20.78125 0,-26.28125 L 501,327 489.3125,260.09375 423.75,236.3125 412.09375,169.46875 346.4375,145.65625 334.75,78.78125 269.46875,55.09375 260.125,1.65625 l -25.53125,0 z"
       id="rect3013"
       style="fill:#fff500;fill-opacity:1;stroke:none" />
    <path
       d="m 3.40625,260.5 0,28.6875 11.125,64.5625 65.21875,23.375 11.78125,67.5 65.5625,23.21875 11.78125,67.46875 65.4375,23.125 11.78125,67.5 L 309.75,648.5 c 7.56209,-5.01211 15.97107,-9.455 25.09375,-13.21875 L 334.125,631.125 268.5625,607.3125 256.875,540.40625 191.3125,516.625 179.65625,449.78125 114,425.96875 102.3125,359.09375 37.03125,335.40625 25.34375,268.46875 3.40625,260.5 z"
       id="rect3013-8"
       style="fill:#fff500;fill-opacity:1;stroke:none" />
    <path
       d="m 3.96875,66 0,117.1875 c 1.1460263,-0.0633 2.3936108,0.0133 3.75,0.25 17.645221,3.07918 3.236774,19.21741 14.15625,35.875 0.04609,0.0703 0.078,0.14842 0.125,0.21875 0.273,0.50198 0.564414,0.98409 0.875,1.46875 15.00795,23.41937 38.28913,6.19057 38.40625,26.375 0.13948,24.03735 -41.88654,6.54443 -42.03125,28.40625 -0.0954,14.41173 24.20819,5.23812 37.78125,20.65625 13.24705,15.95928 -0.0421,38.56351 14.25,40.875 21.58186,3.49047 11.320084,-40.85102 35,-36.71875 18.61014,3.24757 1.56466,21.00528 16.1875,38.59375 0.0246,0.0296 0.0377,0.0641 0.0625,0.0937 15.01819,22.4504 37.85273,5.75504 37.96875,25.75 0.13948,24.03735 -41.88654,6.54443 -42.03125,28.40625 -0.0954,14.41173 24.20819,5.23812 37.78125,20.65625 13.24705,15.95928 -0.0421,38.56351 14.25,40.875 21.58186,3.49047 11.32008,-40.85102 35,-36.71875 19.60627,3.4214 -0.37186,22.97334 18.8125,41.4375 14.97867,18.87923 36.13834,4.13084 36.25,23.375 0.13948,24.03735 -41.88654,6.54443 -42.03125,28.40625 -0.0954,14.41173 24.20819,5.23812 37.78125,20.65625 13.24705,15.95928 -0.0421,38.56351 14.25,40.875 21.58186,3.49047 11.32008,-40.85102 35,-36.71875 17.87888,3.11996 2.839,19.64146 14.59375,36.53125 0.19788,0.34576 0.37759,0.69394 0.59375,1.03125 15.00795,23.41937 38.28913,6.19057 38.40625,26.375 0.13948,24.03735 -41.88654,6.54443 -42.03125,28.40625 -0.0954,14.41173 24.20819,5.23812 37.78125,20.65625 12.5226,15.08651 1.34447,36.10544 12.15625,40.3125 3.72918,-0.73976 7.52235,-1.40329 11.375,-1.9375 9.63443,-9.05303 6.52107,-37.56885 25.71875,-34.21875 16.17846,2.82323 5.3959,16.63522 11.90625,31.75 l 76.65625,0 3,0 0,-0.125 c 10.95786,-0.72141 20.82994,-5.36736 28.25,-12.53125 l -3.40625,-3.9062 c 6.52222,-10.16896 13.08706,-21.98944 17.125,-33.53125 l 0,-35.71875 c -0.0524,-0.0841 -0.1027,-0.16644 -0.15625,-0.25 -15.00795,-23.41937 -38.25788,-6.19057 -38.375,-26.375 -0.115,-19.81786 28.4246,-11.40588 38.53125,-20.09375 l 0,-15.15625 c -7.20001,-4.59679 -23.8841,-1.97075 -34.28125,-13.78125 -13.24705,-15.95928 0.0421,-38.59476 -14.25,-40.90625 -21.58186,-3.49047 -11.35133,40.85102 -35.03125,36.71875 -17.90805,-3.12505 -2.76828,-19.7065 -14.625,-36.625 -0.18319,-0.3171 -0.36386,-0.62753 -0.5625,-0.9375 -15.00795,-23.41937 -38.25788,-6.19057 -38.375,-26.375 -0.13948,-24.03735 41.88654,-6.54443 42.03125,-28.40625 0.0954,-14.41173 -24.20819,-5.20687 -37.78125,-20.625 -13.24705,-15.95928 0.0421,-38.59476 -14.25,-40.90625 -21.58186,-3.49047 -11.35133,40.85102 -35.03125,36.71875 -19.63574,-3.42654 0.45557,-23.0114 -18.875,-41.5 -14.97273,-18.7742 -36.04472,-4.09184 -36.15625,-23.3125 -0.13948,-24.03735 41.88654,-6.54443 42.03125,-28.40625 0.0954,-14.41173 -24.20819,-5.20687 -37.78125,-20.625 -13.24705,-15.95928 0.0421,-38.59476 -14.25,-40.90625 -21.58186,-3.49047 -11.35133,40.85102 -35.03125,36.71875 -18.71033,-3.26505 -1.33155,-21.19431 -16.375,-38.875 -15.0189,-22.16109 -37.69681,-5.62519 -37.8125,-25.5625 -0.13948,-24.03735 41.88654,-6.54443 42.03125,-28.40625 0.0954,-14.41173 -24.20819,-5.20687 -37.78125,-20.625 -13.24705,-15.95928 0.0421,-38.59476 -14.25,-40.90625 -21.58186,-3.49047 -11.35133,40.85102 -35.03125,36.71875 -17.93281,-3.12937 -2.70822,-19.7447 -14.65625,-36.6875 -0.0582,-0.0825 -0.0968,-0.1675 -0.15625,-0.25 -0.12139,-0.2024 -0.21595,-0.42557 -0.34375,-0.625 -15.00795,-23.41937 -38.25788,-6.19057 -38.375,-26.375 C 102.57927,78.712645 144.60529,96.20557 144.75,74.34375 144.782,69.502309 142.04942,67.339841 137.90625,66 L 3.96875,66 z"
       transform="translate(-0.5625,-64.347709)"
       id="path3970"
       style="fill:#ffffff;fill-opacity:1;stroke:none" />
    <path
       d="m 1.40625,-0.34375 0,68.15625 L 9.5,77.375 57.46875,36.75 26.03125,-0.34375 l -24.625,0 z"
       id="rect3117"
       style="fill:#1f1a17;fill-opacity:1;stroke:#000000;stroke-width:2.5;stroke-miterlimit:4;stroke-opacity:1;stroke-dasharray:none" />
    <rect
       width="85.714287"
       height="62.857143"
       x="64.741425"
       y="-20.081392"
       transform="matrix(0.64650929,0.76290611,-0.76290611,0.64650929,0,0)"
       id="rect3117-6"
       style="fill:#ffffff;fill-opacity:1;stroke:#000000;stroke-width:2.5;stroke-miterlimit:4;stroke-opacity:1;stroke-dasharray:none" />
    <rect
       width="85.714287"
       height="62.857143"
       x="150.01233"
       y="-20.081392"
       transform="matrix(0.64650929,0.76290611,-0.76290611,0.64650929,0,0)"
       id="rect3117-4"
       style="fill:#1f1a17;fill-opacity:1;stroke:#000000;stroke-width:2.5;stroke-miterlimit:4;stroke-opacity:1;stroke-dasharray:none" />
    <rect
       width="85.714287"
       height="62.857143"
       x="235.28323"
       y="-20.081392"
       transform="matrix(0.64650929,0.76290611,-0.76290611,0.64650929,0,0)"
       id="rect3117-7"
       style="fill:#ffffff;fill-opacity:1;stroke:#000000;stroke-width:2.5;stroke-miterlimit:4;stroke-opacity:1;stroke-dasharray:none" />
    <rect
       width="85.714287"
       height="62.857143"
       x="320.55414"
       y="-20.081392"
       transform="matrix(0.64650929,0.76290611,-0.76290611,0.64650929,0,0)"
       id="rect3117-6-1"
       style="fill:#1f1a17;fill-opacity:1;stroke:#000000;stroke-width:2.5;stroke-miterlimit:4;stroke-opacity:1;stroke-dasharray:none" />
    <rect
       width="85.714287"
       height="62.857143"
       x="405.82504"
       y="-20.081392"
       transform="matrix(0.64650929,0.76290611,-0.76290611,0.64650929,0,0)"
       id="rect3117-4-5"
       style="fill:#ffffff;fill-opacity:1;stroke:#000000;stroke-width:2.5;stroke-miterlimit:4;stroke-opacity:1;stroke-dasharray:none" />
    <rect
       width="85.714287"
       height="62.857143"
       x="491.09595"
       y="-20.081392"
       transform="matrix(0.64650929,0.76290611,-0.76290611,0.64650929,0,0)"
       id="rect3117-1"
       style="fill:#1f1a17;fill-opacity:1;stroke:#000000;stroke-width:2.5;stroke-miterlimit:4;stroke-opacity:1;stroke-dasharray:none" />
    <rect
       width="85.714287"
       height="62.857143"
       x="576.36682"
       y="-20.081392"
       transform="matrix(0.64650929,0.76290611,-0.76290611,0.64650929,0,0)"
       id="rect3117-6-0"
       style="fill:#ffffff;fill-opacity:1;stroke:#000000;stroke-width:2.5;stroke-miterlimit:4;stroke-opacity:1;stroke-dasharray:none" />
    <rect
       width="85.714287"
       height="62.857143"
       x="661.63776"
       y="-20.081392"
       transform="matrix(0.64650929,0.76290611,-0.76290611,0.64650929,0,0)"
       id="rect3117-4-6"
       style="fill:#1f1a17;fill-opacity:1;stroke:#000000;stroke-width:2.5;stroke-miterlimit:4;stroke-opacity:1;stroke-dasharray:none" />
    <path
       d="m 498.21875,556.84375 -47.96875,40.625 21.5,25.375 22.40625,0 3,0 0,-0.125 c 15.95862,-1.05064 29.63604,-10.40069 36.75,-23.78125 l -35.6875,-42.09375 z"
       id="rect3117-8"
       style="fill:#ffffff;fill-opacity:1;stroke:#000000;stroke-width:2.5;stroke-miterlimit:4;stroke-opacity:1;stroke-dasharray:none" />
  </g>
</svg>
