<svg height="600.02856" version="1.1" width="495.58502" xmlns="http://www.w3.org/2000/svg">
<defs>
<marker id="ArrowStart" markerHeight="3" markerUnits="strokeWidth" markerWidth="4" orient="auto" refX="10" refY="5" viewBox="0 0 10 10">
<path d="M10,0 0,5 10,10z"/>
</marker>
<marker id="ArrowEnd" markerHeight="3" markerUnits="strokeWidth" markerWidth="4" orient="auto" refX="0" refY="5" viewBox="0 0 10 10">
<path d="M0,0 10,5 0,10z"/>
</marker>
</defs>
<g transform="matrix(2.84921,0,0,2.84921,-29.02625,-299.25411)">
<path d="m10.808274,105.65788 0,185.73678c0,6.51507 5.287597,11.80267 11.802672,11.80267l62.740518,0c6.515083,0 11.802671,5.28759 11.802671,11.80267 9e-6,-6.51507 5.287595,-11.80267 11.802675,-11.80267l62.74051,0c6.51508,0 11.80269,-5.2876 11.80268,-11.80267l0,-185.73678 -172.691726,0z" style="fill:#fff"/>
<path d="m10.808274,105.65788 0,185.73678c0,6.51507 5.287597,11.80267 11.802672,11.80267l62.740518,0c6.515083,0 11.802671,5.28759 11.802671,11.80267 9e-6,-6.51507 5.287595,-11.80267 11.802675,-11.80267l62.74051,0c6.51508,0 11.80269,-5.2876 11.80268,-11.80267l0,-185.73678 -172.691726,0z" style="stroke:#000;stroke-linejoin:round;fill:none;stroke-width:1.24238646;stroke-linecap:round"/>
<path d="m10.808274,105.65788 0,185.73678c0,6.51507 5.287597,11.80267 11.802672,11.80267l62.740518,0c6.515083,0 11.802671,5.28759 11.802671,11.80267 9e-6,-6.51507 5.287595,-11.80267 11.802675,-11.80267l62.74051,0c6.51508,0 11.80269,-5.2876 11.80268,-11.80267l0,-185.73678 -92.506031,0 -80.185695,0 z m 17.613417,6.16016 11.453251,11.45325 11.45325,-11.45325 11.466192,11.45325 11.453251,-11.45325 11.45325,11.45325 11.45325,-11.45325 11.453255,11.45325 11.45325,-11.45325 11.45325,11.45325 11.46619,-11.45325 11.45325,11.45325 11.45325,-11.45325 0,11.45325 10.14616,0 -10.14616,10.14616 12.11327,12.11327 -12.11327,12.11327 12.11327,12.11326 -12.11327,12.11327 12.11327,12.11327 -12.11327,12.11327 12.11327,12.11327 -12.11327,12.11326 12.11327,12.11327 -12.11327,12.11327 12.11327,12.11327 -12.11327,12.11327 12.11327,9.21436 -12.11327,0 0,9.04613 -11.45325,-11.45325 -11.45325,11.45325 -11.46619,-11.45325 -11.45325,11.45325 -11.45325,-11.45325 -11.453255,11.45325 -11.45325,-11.45325 -11.45325,11.45325 -11.453251,-11.45325 -11.466192,11.45325 -11.45325,-11.45325 -11.453251,11.45325 0,-9.04613 -12.113268,0 12.113268,-9.21436L16.308423,266.6634 28.421691,254.55013 16.308423,242.43686 28.421691,230.32359 16.308423,218.21033 28.421691,206.09706 16.308423,193.98379 28.421691,181.87052 16.308423,169.75725 28.421691,157.64399 16.308423,145.53072 28.421691,133.41745 18.275535,123.27129l10.146156,0 0,-11.45325z" style="fill:#f00"/>
<path d="m138.53493,127.9647c-10.26803,0.16901 -15.70198,6.93084 -16.11192,17.11312 4.83406,-2.15717 9.66482,-2.06339 14.49888,2.98506 1.2795,-0.90023 2.55842,-1.80672 3.83793,-2.70695 -3.38214,-8.20867 -0.24283,-12.75592 3.98626,-16.77939 -2.23089,-0.43961 -4.30966,-0.64314 -6.21115,-0.61184 z m 23.54676,7.71295c-4.26545,1.84812 -8.52767,3.89044 -12.79312,6.11845 -1.5635,1.46883 -3.12669,2.94324 -4.69081,4.4127 0.75855,1.04254 1.52196,2.09085 2.28051,3.13339 2.17974,-1.18485 4.36452,-2.37498 6.54489,-3.55983 3.12887,-3.36521 5.91081,-6.73949 8.65853,-10.10471 z m -19.76444,9.67828c-2.57658,1.54594 -4.90257,3.34035 -7.10111,5.26557 1.13782,1.99105 2.46978,3.97971 3.98626,5.97013 2.53519,-1.7779 5.13942,-3.48831 7.67587,-5.26558 -1.30396,-2.41671 -2.87841,-4.31134 -4.56102,-5.97012 z m -7.1382,7.10111 -91.665491,64.68869 2.985061,4.07897 91.01657,-65.24492 z m 11.42111,0.42643 -4.98746,3.28172c0.75855,3.64858 -0.005,6.5258 -2.28052,8.65853 6.50538,-1.31461 9.48345,-4.93774 7.26798,-11.94025z" style="stroke:#000;fill:#daa520;stroke-width:1.10000002;fill-rule:evenodd"/>
<path d="m145.71017,155.14545c0.42495,2.24529 0.14145,3.86106 -0.64893,5.06162 -0.53511,0.81282 -1.36745,1.5105 -2.48446,2.07657 0.60848,-1.6298 0.78676,-3.45057 0.51915,-5.4139l2.61424,-1.72429 z m -3.61544,-7.95399c1.04279,1.10633 1.98479,2.35607 2.85527,3.76377 -1.77745,1.22533 -3.57683,2.44826 -5.37682,3.68962 -0.90987,-1.25192 -1.73229,-2.49999 -2.48446,-3.74524 1.5862,-1.33655 3.2451,-2.58029 5.00601,-3.70815 z m 14.61011,-7.39776c-1.37881,1.62483 -2.67506,3.26073 -4.17167,4.87622 -1.74905,0.95061 -3.4986,1.90432 -5.24703,2.85527 -0.27589,-0.37901 -0.55852,-0.75204 -0.83434,-1.13098 1.21734,-1.14506 2.43709,-2.28791 3.65253,-3.43004 2.20342,-1.14847 4.39922,-2.12366 6.60051,-3.17047 z m -18.1514,-10.4199c1.05831,-0.0174 2.20185,0.0637 3.39296,0.20395 -1.40326,1.5786 -2.67364,3.27937 -3.37442,5.37681 -0.91674,2.74379 -0.8333,6.02034 0.53768,9.86369 -0.69007,0.48677 -1.38804,0.96044 -2.07656,1.44617 -2.3044,-2.13282 -4.70516,-3.39478 -7.13819,-3.78231 -1.99201,-0.31729 -3.94399,0.0253 -5.85888,0.61184 0.46309,-3.89019 1.71977,-7.09612 3.78231,-9.38162 2.4203,-2.68193 5.90443,-4.25902 10.7351,-4.33853 z m -3.74524,25.0671 0.79726,1.1866 -88.791679,63.65042 -1.316396,-1.79846 89.310815,-63.03856z" style="font-family:Sans;fill:#ffd700"/>
<path d="m104.64172,184.5808c0,0 0,0 0,0 0,0 0,0 0,0z" style="fill:#ccc;fill-rule:evenodd"/>
<path d="m104.64361,184.57892c0,6.3e-4 -6.3e-4,6.3e-4 -10e-4,10e-4 0,0 0,0 -6.3e-4,6.3e-4 0,0 0,0 0,0 0,0 0,0 0,0 0,0 0,0 0,0" style="fill:#ccc;fill-rule:evenodd"/>
<path d="m104.64172,184.5808c6.3e-4,-6.3e-4 10e-4,-6.3e-4 10e-4,-0.001 6.3e-4,0 6.3e-4,-6.3e-4 6.3e-4,-6.3e-4" style="fill:#ccc;fill-rule:evenodd"/>
<path d="m104.64486,184.57829c0,0 0,0 0,-6.2e-4 0,6.2e-4 -6.3e-4,6.2e-4 -10e-4,10e-4 6.2e-4,0 10e-4,-6.3e-4 10e-4,-6.3e-4z" style="fill:#ccc;fill-rule:evenodd"/>
<path d="m105.41783,185.56316c-0.027,0.0219 0.0201,-0.0144 0,6.3e-4l0,-6.3e-4z" style="fill:#ccc;fill-rule:evenodd"/>
<path d="m104.65928,184.56576c-6.3e-4,6.2e-4 -10e-4,6.2e-4 -0.002,10e-4l-6.3e-4,0.002c6.3e-4,-6.3e-4 0.002,-0.002 0.003,-0.003l-6.2e-4,-6.2e-4z" style="fill:#ccc;fill-rule:evenodd"/>
<path d="m104.65426,184.5714c6.3e-4,-0.001 0.002,-0.002 0.003,-0.003l-6.3e-4,6.3e-4c-6.2e-4,6.2e-4 -0.001,0.001 -0.002,0.002z" style="fill:#ccc;fill-rule:evenodd"/>
<path d="m108.53599,135.21413c-1.10323,0.0528 -2.41464,0.44798 -3.94918,1.26077 -3.16524,-1.35787 -6.100623,-2.00247 -7.490467,2.4103 -2.692556,1.19927 -5.051335,2.51177 -5.080166,4.59811 -2.338349,1.57854 -5.104158,0.87663 -7.119652,3.17047 -2.421106,1.84498 -1.087182,5.95288 1.798454,8.43604 1.161651,5.28918 3.572294,7.95422 8.714154,4.83914 1.228104,1.69891 3.278321,3.16086 1.205146,5.80326 -2.35214,1.53214 -4.094016,3.06658 -5.562223,4.59811 -4.975104,2.26876 -9.635257,3.31222 -13.071232,1.20514 -6.578064,-4.03393 -12.861477,-7.2533 -20.07964,-4.57956 1.555347,1.29392 2.480449,2.91374 2.632787,3.4115 0.253269,0.83002 -1.77801,-0.58304 -3.745233,0.61184 2.634874,1.42683 4.612528,2.98112 4.598109,3.65253 -0.01066,0.49086 -1.517782,-0.50423 -2.484461,0.53768 2.832349,3.62287 5.725143,7.09155 12.07003,5.80326 2.359664,1.69326 4.91531,3.88813 9.52995,5.58076 -2.920741,0.94725 -5.082843,2.30642 -7.119651,4.57957 1.129052,0.16174 2.263904,0.32095 3.392957,0.48206 -3.501255,1.18861 -5.476583,3.28812 -6.767376,5.80326 2.295023,-0.81718 4.315789,-1.53828 6.52635,-1.20515 -2.557144,0.92845 -4.01166,2.30367 -4.357077,4.11605 3.979337,0.0313 8.518003,0.43468 12.088567,-0.72314 1.55472,-0.87014 3.117552,-1.59491 4.672272,-1.26077 0.0094,-5.9e-4 0.02765,0.001 0.03705,0 0,4.58956 0.529727,9.39762 1.353478,14.07244 -7.142308,6.49659 -9.652391,15.20452 -7.509009,26.12392 2.956475,9.82608 1.755542,20.08919 -1.891154,21.24771 -6.716646,1.69953 -11.300926,3.8828 -13.590376,13.10831 4.74503,-2.29008 5.218085,-0.70159 5.080166,1.44618 6.231424,-4.55132 7.912101,-3.93062 7.509008,-0.96412 4.600843,-1.83369 9.136725,-3.8993 13.29372,-7.509 2.867455,-5.56377 5.03503,-11.12292 5.080167,-16.68669 -1.693266,-6.93417 -0.796907,-12.25483 2.669872,-15.96358 2.0926,5.24216 4.49533,10.40552 9.17767,14.99947 3.48746,7.19622 3.05477,12.55986 -3.13339,15.2405 -5.60389,0.6852 -8.107906,5.35658 -9.19621,11.84754 3.78963,-4.11186 5.32406,-3.7129 4.59811,1.20515 3.9545,-4.35635 6.07945,-4.60992 5.08017,0.5006 2.1766,-1.81426 4.74552,-3.42893 8.21355,-4.59811 5.60765,-1.62556 9.29127,-7.78421 10.21596,-20.3392 0.2401,-3.25927 0.28863,-3.63476 -1.50181,-6.15554 -3.45674,-4.8679 -3.45737,-10.21893 0,-16.07483 3.92066,-5.60514 5.20986,-7.14428 0.24104,-11.38403 -0.48398,-3.0643 -0.96285,-8.78324 -1.44619,-11.84754 0.32224,-5.07917 0.64127,-10.1607 0.96412,-15.2405 0.48397,-6.36933 0.62848,-12.72702 1.11245,-19.09698 -0.0884,-2.22362 -0.42211,-4.26676 -0.94558,-6.19261 -8.57558,4.90279 -19.91397,13.60661 -28.997743,20.11675 -2.36844,0.29841 -5.146004,0.26527 -8.046685,0.0371l35.283058,-24.90023 -0.20395,-0.51915c-0.49087,-1.04128 -1.02465,-2.04865 -1.5945,-3.05922 -0.19936,-7.13791 -3.49931,-11.1713 -7.24944,-14.75844 0.26692,-3.92256 -1.06591,-7.97589 -5.006,-7.78712z" style="fill-rule:evenodd"/>
<path d="m86.803195,145.29027c-0.394322,0.16801 -0.776733,0.37677 -1.142218,0.65198 0.579885,0.49588 0.97985,1.09144 1.214311,1.73088 0.247627,0.67643 0.313452,1.40614 0.21064,2.12395 -0.103439,0.72533 -0.37865,1.43811 -0.809959,2.07254l-0.0025,0c-0.337273,0.49525 -0.76921,0.94412 -1.290793,1.31336 0.232581,0.34104 0.490865,0.67267 0.772345,0.98926 0.626903,-0.45137 1.148486,-0.99615 1.557227,-1.59735l-0.0019,-0.001c0.540391,-0.79428 0.884561,-1.68887 1.014956,-2.59976 0.13165,-0.91967 0.04639,-1.85752 -0.273956,-2.73142 -0.260165,-0.71091 -0.672667,-1.37605 -1.248164,-1.95218 z m -0.01693,10.21414c0.114097,0.47707 0.23885,0.93095 0.375515,1.35912 1.444385,0.25703 3.000986,0.1141 4.280495,-0.44761 0.420025,-0.18493 0.814347,-0.41563 1.167294,-0.6921 0.359842,-0.28148 0.677682,-0.6106 0.93722,-0.98674l0.0025,-0.003 0.0069,-0.009c-0.871396,0.18181 -1.821781,0.12539 -2.614187,0.54416 -1.246283,0.54791 -2.807272,0.6175 -4.155741,0.23509z" style="fill:#c0c0c0;fill-rule:evenodd"/>
<path d="m97.710056,144.8809c-0.57487,-0.57487 -1.51021,-0.57487 -2.085707,0 -0.57487,0.5755 -0.57487,1.51021 0,2.08571 0.575497,0.5755 1.510837,0.5755 2.085707,0 0.575497,-0.5755 0.575497,-1.51021 0,-2.08571 z m -0.581139,0.58114c-0.254523,-0.25452 -0.668906,-0.25452 -0.923429,0 -0.254522,0.25453 -0.254522,0.66891 0,0.92343 0.254523,0.25452 0.668906,0.25452 0.923429,0 0.255149,-0.25452 0.255149,-0.6689 0,-0.92343z" style="fill:#ccc;fill-rule:evenodd"/>
<path d="m107.85398,179.0465c-2.22238,7.19873 -4.84095,6.57057 -11.48487,7.40122 6.13299,-0.0408 11.37328,1.41617 11.48487,-7.40122z" style="fill:#c0c0c0;fill-rule:evenodd"/>
<path d="m88.967264,198.4479c6.27e-4,0.39369 0.005,0.3473 0.01379,0.74413 7.740192,0.26928 20.780006,2.7913 25.650996,-2.84426 3.18137,-3.68072 3.43919,-7.0326 4.35886,-10.70374 -1.37417,3.56332 -2.30325,7.48578 -4.92182,10.16649 -5.4295,5.55834 -18.429434,3.06248 -25.101828,2.63738z" style="fill:#c0c0c0;fill-rule:evenodd"/>
</g>
</svg>
