<?xml version="1.0" encoding="utf-8"?>
<!-- Generator: Adobe Illustrator 13.0.1, SVG Export Plug-In . SVG Version: 6.00 Build 14948)  -->
<!DOCTYPE svg PUBLIC "-//W3C//DTD SVG 1.1//EN" "http://www.w3.org/Graphics/SVG/1.1/DTD/svg11.dtd" [
	<!ENTITY ns_extend "http://ns.adobe.com/Extensibility/1.0/">
	<!ENTITY ns_ai "http://ns.adobe.com/AdobeIllustrator/10.0/">
	<!ENTITY ns_graphs "http://ns.adobe.com/Graphs/1.0/">
	<!ENTITY ns_vars "http://ns.adobe.com/Variables/1.0/">
	<!ENTITY ns_imrep "http://ns.adobe.com/ImageReplacement/1.0/">
	<!ENTITY ns_sfw "http://ns.adobe.com/SaveForWeb/1.0/">
	<!ENTITY ns_custom "http://ns.adobe.com/GenericCustomNamespace/1.0/">
	<!ENTITY ns_adobe_xpath "http://ns.adobe.com/XPath/1.0/">
]>
<svg version="1.1"
   id="megion_coat_of_arms"
   xmlns="http://www.w3.org/2000/svg"
   xmlns:xlink="http://www.w3.org/1999/xlink"
   width="423.59375px"
	 height="530.5527344px"
	 xml:space="preserve">
<metadata>
	<sfw  xmlns="&ns_sfw;">
		<slices></slices>
		<sliceSourceBounds  y="130.2236328" height="530.5527344" x="94.703125" width="423.59375" bottomLeftOrigin="true">
			</sliceSourceBounds>
	</sfw>
</metadata>
<g>
	<path d="M0,0h211.7978516H423.59375v434.2402344c-0.5712891,34.0078125-14.2480469,53.1367188-55.8759766,53.3574219
		c-35.0146484,0-70.0253906,0-105.0390625,0c-26.4394531,0.3076172-43.9042969,13.8994141-50.8808594,42.9550781
		c-6.9775391-29.0556641-24.4404297-42.6474609-50.8818359-42.9550781c-35.0131836,0-70.0258789,0-105.0380859,0
		C14.2485352,487.3769531,0.5727539,468.2480469,0,434.2402344V0L0,0z"/>
	<path fill="#F1F1F2" d="M399.6621094,478.1240234l-1.9677734,0.9628906l-2.3066406,0.9716797l-2.4511719,0.8789063
		l-2.6025391,0.7871094l-2.75,0.6884766l-2.9101563,0.5917969l-3.0673828,0.4912109l-3.2285156,0.3916016l-3.3945313,0.2841797
		l-3.5566406,0.1816406l-3.7402344,0.0751953H262.6337891l-2.5478516,0.0703125l-2.5068359,0.1523438l-2.4580078,0.2353516
		l-2.4101563,0.3183594l-2.3574219,0.4042969l-2.3105469,0.4892578l-2.2587891,0.5751953l-2.2060547,0.6640625l-2.1552734,0.7509766
		l-2.1015625,0.8398438l-2.0449219,0.9287109L235.2861328,490.875l-1.9287109,1.1103516l-1.8740234,1.1982422l-1.8134766,1.2890625
		l-1.7519531,1.3779297l-1.6894531,1.4707031l-1.6240234,1.5556641l-1.5644531,1.6474609l-1.4960938,1.7324219l-1.4335938,1.8232422
		l-1.3632813,1.9091797l-1.2998047,1.9951172l-1.2324219,2.0810547l-1.1689453,2.1689453l-1.1025391,2.2529297l-1.0351563,2.3408203
		l-0.9697266,2.4238281l-0.140625,0.3916016l-0.140625-0.3916016l-0.9707031-2.4238281l-1.0341797-2.3408203l-1.1025391-2.2529297
		l-1.1679688-2.1689453l-1.2333984-2.0810547l-1.2988281-1.9951172l-1.3652344-1.9091797l-1.4326172-1.8232422l-1.4970703-1.7324219
		l-1.5615234-1.6474609l-1.6269531-1.5556641l-1.6894531-1.4707031l-1.7509766-1.3779297l-1.8134766-1.2890625l-1.8720703-1.1982422
		L188.3076172,490.875l-1.9902344-1.0175781l-2.0449219-0.9287109l-2.1005859-0.8398438l-2.1533203-0.7509766l-2.2070313-0.6640625
		l-2.2597656-0.5751953l-2.3095703-0.4892578l-2.359375-0.4042969l-2.4091797-0.3183594l-2.4589844-0.2353516l-2.5058594-0.1523438
		l-2.5498047-0.0703125H55.9101563l-3.7412109-0.0751953l-3.5585938-0.1816406l-3.3920898-0.2841797l-3.2290039-0.3916016
		l-3.0673828-0.4912109l-2.9082031-0.5917969l-2.7539063-0.6884766L30.659668,480.9375l-2.4521484-0.8789063l-2.3071289-0.9716797
		l-1.9663086-0.9628906v-52.4609375h58.234375h4.050293l-3.2055664-2.4814453
		c-7.184082-5.5615234-13.6694336-11.5820313-19.4570313-18.0625c-5.2324219-5.8603516-9.9008789-12.1064453-14.0048828-18.7392578
		h47.3457031h6.0195313l-5.4179688-2.6279297c-43.6787109-21.1826172-72.5175781-84.609375-90.6606445-164.2587891
		c-1.2753906-5.5976563-2.496582-11.2753906-3.6674805-17.0249023V3.1704102h417.2543945v199.2978516
		c-1.1708984,5.7495117-2.3916016,11.4272461-3.6669922,17.0249023
		c-18.1455078,79.6494141-46.9824219,143.0761719-90.6621094,164.2587891l-5.4179688,2.6279297h6.0214844h47.3447266
		c-4.1035156,6.6328125-8.7714844,12.8789063-14.0048828,18.7392578c-5.7861328,6.4804688-12.2724609,12.5009766-19.4570313,18.0625
		L337.375,425.6630859h4.0527344h58.234375V478.1240234L399.6621094,478.1240234z"/>
	<path d="M180.1015625,120.2861328c-2.3603516-1.1801758-4.8583984-2.1772461-7.4941406-2.9912109
		c-0.0625,2.1845703,0.1640625,4.1142578,0.6152344,5.847168c0.5742188,2.2055664,1.5185547,4.1040039,2.6962891,5.809082
		C177.6347656,126.2963867,179.0537109,123.4262695,180.1015625,120.2861328L180.1015625,120.2861328z M268.6806641,165.6303711
		c-15.1269531-2.8100586-28.6943359,2.2944336-40.7099609,15.3134766l5.1494141-0.1777344l3.53125-0.1225586l-2.8388672,2.1162109
		c-4.2373047,3.1601563-6.9785156,6.9228516-8.8583984,11.0302734c-1.5585938,3.3974609-2.5390625,7.0571289-3.2949219,10.8183594
		c0.7255859-0.4580078,1.4873047-0.9350586,2.2451172-1.4121094c1.3964844-0.8740234,2.7890625-1.7480469,4.3789063-2.7905273
		l3.9462891-2.5898438l-2.3857422,4.0756836c-4.3056641,7.355957-3.75,13.3891602-3.0634766,20.8300781
		c0.4589844,4.9648438,1.1494141,21.7207031-5.0800781,31.5986328c4.46875-14.1655273,3.6035156-23.5537109,2.8789063-31.3979492
		c-0.6083984-6.5996094-1.1201172-12.1474609,1.5273438-18.5009766c-0.3408203,0.2158203-0.6875,0.4301758-1.03125,0.6474609
		c-1.3925781,0.8740234-2.7871094,1.7475586-4.3779297,2.7900391l-2.1474609,1.4101563L219,206.7416992
		c0.8515625-4.784668,1.9345703-9.4887695,3.9433594-13.8701172c1.6230469-3.5458984,3.8427734-6.8554688,7.015625-9.7841797
		l-4.5,0.15625l-2.5224609,0.0859375l1.6523438-1.9160156C226.71875,178.9423828,248.3398438,155.1494141,268.6806641,165.6303711
		L268.6806641,165.6303711z M217.0068359,255.2880859c-1.4306641,4.0410156-6.5322266,15.4921875-15.3603516,21.3164063
		c5.8759766-7.0371094,10.5400391-14.3349609,13.2714844-22.0527344c2.7109375-7.6689453,3.5126953-15.7719727,1.6923828-24.4672852
		C222.0742188,236.2905273,218.2802734,251.6816406,217.0068359,255.2880859L217.0068359,255.2880859z M170.8857422,116.7949219
		c-4.2319336-1.1547852-8.8017578-1.8569336-13.7109375-2.1069336c-0.5327148-3.644043-3.2880859-5.9545898-10.9311523-5.3325195
		c-7.5146484-0.675293-15.0283203-0.3881836-22.5429688,0.8613281c0.0961914,1.324707,0.1708984,2.5854492,0.2241211,3.7841797
		c0.4916992,10.9589844-0.7685547,17.1132813-2.9648438,19.1660156l-0.7680664,0.71875l-0.5595703-0.8881836
		c-2.2148438-3.527832-3.3085938-7.5229492-3.5839844-11.8549805c-0.1889648-2.9746094-0.378418-9.1459961,2.9833984-13.3408203
		c-0.9956055,4.6699219-1.5073242,9.1235352-1.2460938,13.230957c0.2294922,3.6147461,1.0581055,6.9633789,2.6870117,9.9575195
		c1.3979492-2.4262695,2.1191406-7.9023438,1.7148438-16.9145508c-0.0927734-2.0727539-0.2460938-4.315918-0.465332-6.7353516
		c-0.3901367-4.2939453-1.4765625-8.1313477-3.2050781-12.1147461c-1.5107422,6.7539063-3.3769531,13.5083008-5.5991211,20.2617188
		c-9.949707,27.3779297-16.2260742,55.6132813-4.7988281,87.9785156c3.7324219,9.6865234,5.3320313,19.7280273,4.7988281,30.1264648
		c2.6660156-1.6000977,4.6210938-4.2661133,5.8662109-7.9995117c4.7094727,7.3330078,7.4643555,15.1518555,9.3305664,23.1953125
		c1.9550781-3.4658203,2.8432617-7.2871094,2.6660156-11.4638672c3.4208984,7.4345703,8.206543,14.4804688,14.355957,21.1347656
		c2.2490234,2.2207031,4.6821289,4.3837891,7.4458008,6.4394531c5.5791016,4.1513672,12.5371094,7.9003906,22.1040039,10.890625
		c0.3613281-1.0576172,0.6962891-2.1328125,0.9990234-3.2216797c0.5996094-2.1455078,1.0888672-4.3515625,1.453125-6.6015625l0,0
		c0.6308594-4.4726563,1.0390625-8.9667969,1.4414063-13.3955078c0.7001953-7.7001953,1.3837891-15.2128906,3.1191406-21.9350586
		c0.796875-3.0820313,4.5625-20.4052734,20.6455078-21.3300781c-18.21875,6.6694336-19.8369141,24.4765625-21.5615234,43.4643555
		c-0.4091797,4.4882813-0.8232422,9.0419922-1.4501953,13.4990234l-0.0048828,0.0224609l0,0
		c-0.3818359,2.3466797-0.8886719,4.6435547-1.5097656,6.8671875c-0.6259766,2.2412109-1.3613281,4.3974609-2.1943359,6.4482422
		c-4.3525391,10.7128906-11.4633789,18.8974609-19.4838867,21.1679688l-0.0600586,0.0146484
		c-6.8208008,1.5263672-13.0170898,3.5068359-17.7836914,6.5185547c-3.1083984,1.9619141-5.6098633,4.3759766-7.2744141,7.40625
		c4.9003906-2.2412109,10.1513672-4.1337891,16.0209961-5.4072266c-5.5991211,2.84375-9.7758789,6.3994141-12.5302734,10.6640625
		c5.065918-3.3769531,11.0195313-6.3095703,18.9287109-8.2646484c-3.5546875,2.8447266-7.1088867,5.6865234-10.6640625,8.5322266
		c23.5546875,1.6152344,38.4189453-6.5429688,50.3671875-25.2451172
		c4.9902344-7.8115234,10.4931641-14.8847656,16.7470703-21.5869141
		c12.8486328-13.7675781,28.8457031-25.9462891,50.0703125-39.7368164l0,0
		c16.0810547-10.7163086,28.0693359-19.1948242,34.6835938-27.7280273c6.4287109-8.2958984,7.7402344-16.7294922,2.75-27.5766602
		c11.9160156,8.8305664,1.6142578,25.8120117-0.8740234,29.0263672
		c-6.8291016,8.8134766-18.9765625,17.4125977-35.2509766,28.2563477l-0.0097656,0.0048828
		c-21.0683594,13.6865234-36.9277344,25.7578125-49.6318359,39.3701172
		c-10.6894531,11.4550781-19.1552734,24.0214844-26.625,39.5898438c-6.0683594,18.96875-6.2255859,39.7841797,3.0957031,57.078125
		c7.8994141,15.4853516,14.8525391,31.3496094,19.1953125,48.2558594
		c1.7773438-37.1455078,28.9726563-67.8056641,83.1806641-110.3740234
		c32.5761719-25.6113281,57.7412109-53.2929688,59.7177734-87.4443359
		c2.9316406-37.8569336-17.6835938-80.7807617-72.2490234-87.9785156c0.9775391-1.065918,1.9560547-2.1323242,2.9335938-3.1987305
		c-14.8417969-3.4663086-30.0371094-2.6669922-45.5917969,2.3989258c0.5595703-1.9550781,1.4970703-3.9101563,0.5341797-5.8652344
		c-5.6855469,4.1767578-12.0839844,7.9980469-19.1943359,11.4638672
		c-26.7099609,13.4189453-39.2294922,33.3256836-41.0556641,58.1191406
		c-15.2446289-6.8388672-22.703125-23.0205078-23.7275391-46.921875c7.34375-4.6411133,14.34375-9.5336914,19.7617188-15.5761719
		c-3.0844727,2.8457031-6.25,4.949707-9.5039063,6.2617188c-4.2685547,1.7216797-8.6704102,2.0830078-13.2177734,0.9736328
		c0.1630859,0.4135742,0.3115234,0.8408203,0.4458008,1.2802734c0.7631836,2.4907227,0.2827148,5.925293-1.0415039,9.0507813
		c0.3515625-3.1982422,0.1450195-6.0463867-0.6206055-8.5463867c-0.1450195-0.4760742-0.3134766-0.9453125-0.5048828-1.4072266
		c-0.1889648-0.4560547-0.3974609-0.8979492-0.6254883-1.324707h-0.0009766h-0.0014648l-1.0341797-1.9233398l2.0732422,0.6831055
		c4.8007813,1.581543,9.4233398,1.3974609,13.8803711-0.4003906c4.3671875-1.7612305,8.5957031-5.0654297,12.6982422-9.7744141
		c-1.1269531-1.7285156-2.0351563-3.6503906-2.6113281-5.8642578
		C171.0175781,121.5717773,170.7705078,119.3344727,170.8857422,116.7949219L170.8857422,116.7949219z M174.0966797,277.4267578
		c-9.3979492-2.9443359-16.3398438-6.6171875-21.9443359-10.6875c0.190918,15.2236328-9.0610352,25.3291016-24.8374023,31.9033203
		c-10.487793,3.9101563-15.1088867,9.7744141-17.0629883,16.5292969c1.6884766-0.5332031,3.3774414-1.0673828,5.0654297-1.5986328
		c3.8149414-7.8369141,10.1269531-10.0527344,16.7963867-11.4658203c-4.7104492,4-9.4199219,7.9990234-14.1303711,11.9970703
		c3.7128906-1.3173828,7.6054688-2.0957031,11.8701172-1.7558594c1.8100586-2.7695313,4.2856445-5.0341797,7.2636719-6.9160156
		c4.9951172-3.1542969,11.4008789-5.2119141,18.4243164-6.7900391l0,0
		c7.3364258-2.0791016,13.9228516-9.7626953,18.027832-19.8681641
		C173.7509766,278.3300781,173.9267578,277.8789063,174.0966797,277.4267578L174.0966797,277.4267578z"/>
	<g id="XMLID_2_">
		<g>
			<path fill="#FFFFFF" d="M154.7070313,118.3964844c-6.2602539-1.1000977-14.050293,2.4399414-22.5600586,8.0800781
				C144.9770508,114.4365234,151.3168945,113.8164063,154.7070313,118.3964844z"/>
		</g>
		<g>
		</g>
	</g>
	<path fill="#FFF200" d="M148.815918,120.2460938c2.6958008,0,4.8813477,2.1860352,4.8813477,4.8803711
		c0,2.6967773-2.1855469,4.8828125-4.8813477,4.8828125s-4.8813477-2.1860352-4.8813477-4.8828125
		C143.9345703,122.4321289,146.1201172,120.2460938,148.815918,120.2460938L148.815918,120.2460938z"/>
	<g id="XMLID_1_">
		<g>
			<path d="M149.4868164,122.9365234c1.300293,0,2.3598633,1.0600586,2.3598633,2.3598633s-1.0595703,2.3598633-2.3598633,2.3598633
				c-1.2998047,0-2.3500977-1.0600586-2.3500977-2.3598633S148.1870117,122.9365234,149.4868164,122.9365234z"/>
		</g>
		<g>
		</g>
	</g>
	<path fill="#00A651" d="M21.159668,476.5214844l-1.3569336-0.8847656l-1.7749023-1.3271484l-1.6552734-1.4140625
		l-1.5415039-1.5039063l-1.4311523-1.5927734l-1.3261719-1.6855469l-1.2255859-1.7802734l-1.1264648-1.8759766l-1.0317383-1.9726563
		l-0.9370117-2.0732422L6.90625,458.2373047l-0.7553711-2.2724609l-0.6674805-2.375l-0.5800781-2.4765625l-0.4936523-2.5751953
		L4,445.8623047l-0.3271484-2.7744141l-0.2456055-2.8710938l-0.1674805-2.9677734l-0.0893555-3.0556641V215.7827148
		c0.3188477,1.4438477,0.6425781,2.8828125,0.9692383,4.315918c17.628418,77.3916016,45.4165039,139.6796875,87.1918945,163.5195313
		H47.0947266h-2.4306641l1.2382813,2.0849609c4.484375,7.5517578,9.6826172,14.6357422,15.5952148,21.2578125
		c5.0527344,5.6591797,10.6201172,10.9677734,16.703125,15.9277344H22.546875h-1.387207v1.3867188V476.5214844
		L21.159668,476.5214844z M418.1142578,453.5898438l-0.6689453,2.375l-0.7558594,2.2724609l-0.8457031,2.1738281l-0.9375,2.0732422
		l-1.0332031,1.9726563l-1.1269531,1.8759766l-1.2246094,1.7802734l-1.3271484,1.6855469l-1.4306641,1.5927734l-1.5410156,1.5039063
		l-1.6552734,1.4140625l-1.7744141,1.3271484l-1.3574219,0.8847656v-52.2460938v-1.3867188h-1.3867188h-55.6542969
		c6.0820313-4.9599609,11.6494141-10.2685547,16.703125-15.9277344c5.9130859-6.6220703,11.1132813-13.7060547,15.59375-21.2578125
		l1.2402344-2.0849609h-2.4306641h-44.2373047c41.7763672-23.8398438,69.5625-86.1279297,87.1923828-163.5195313
		c0.3251953-1.4331055,0.6503906-2.8720703,0.96875-4.315918v218.4106445l-0.0888672,3.0556641l-0.1679688,2.9677734
		l-0.2460938,2.8710938l-0.3251953,2.7744141l-0.4121094,2.6757813l-0.4931641,2.5751953L418.1142578,453.5898438
		L418.1142578,453.5898438z"/>
	<path d="M16.1958008,14.9682617h20.8330078v0.152832h57.7509766v20.8339844H77.1635742v18.5351563H56.3295898v20.6801758
		H37.0288086v18.5351563H16.1958008V35.9550781h-0.1538086V15.1210938h0.1538086V14.9682617L16.1958008,14.9682617z
		 M407.4003906,14.9682617h-20.8349609v0.152832h-57.75v20.8339844h17.6181641v18.5351563h20.8310547v20.6801758h19.3007813
		v18.5351563h20.8349609V35.9550781h0.1523438V15.1210938h-0.1523438V14.9682617L407.4003906,14.9682617z M367.2646484,35.9550781
		h19.3007813v18.3818359h-19.3007813V35.9550781L367.2646484,35.9550781z M56.3295898,35.9550781H37.0288086v18.3818359h19.3007813
		V35.9550781L56.3295898,35.9550781z"/>
	<path fill="#00A651" d="M53.5566406,57.1108398H34.2543945V33.1811523h24.8491211v18.534668h15.2851563v-18.534668h17.6166992
		V17.8959961H34.2543945v-0.1538086H18.96875v0.1538086h-0.1523438v15.2851563H18.96875v57.7504883h15.2856445V72.3964844
		h19.3022461V57.1108398L53.5566406,57.1108398z M364.4912109,51.7158203v-18.534668h24.8505859v23.9296875h-19.3017578v15.2856445
		h19.3017578v18.5351563h15.2851563V33.1811523h0.1533203V17.8959961h-0.1533203v-0.1538086h-15.2851563v0.1538086h-57.7529297
		v15.2851563h17.6171875v18.534668H364.4912109L364.4912109,51.7158203z"/>
</g>
</svg>
