<?xml version="1.0" encoding="UTF-8" standalone="no"?>
<!-- Created with Inkscape (http://www.inkscape.org/) -->
<svg
   xmlns:dc="http://purl.org/dc/elements/1.1/"
   xmlns:cc="http://web.resource.org/cc/"
   xmlns:rdf="http://www.w3.org/1999/02/22-rdf-syntax-ns#"
   xmlns:svg="http://www.w3.org/2000/svg"
   xmlns="http://www.w3.org/2000/svg"
   xmlns:sodipodi="http://sodipodi.sourceforge.net/DTD/sodipodi-0.dtd"
   xmlns:inkscape="http://www.inkscape.org/namespaces/inkscape"
   height="930.12085"
   width="713.80865"
   id="svg18772"
   sodipodi:version="0.32"
   inkscape:version="0.44"
   sodipodi:docbase="D:\dokumenty\kot\do wiki"
   sodipodi:docname="murmańsk.svg"
   version="1.0">
  <defs
     id="defs18774" />
  <sodipodi:namedview
     id="base"
     pagecolor="#ffffff"
     bordercolor="#666666"
     borderopacity="1.0"
     inkscape:pageopacity="0.0"
     inkscape:pageshadow="2"
     inkscape:cx="791.93856"
     inkscape:cy="461.72123"
     inkscape:zoom="0.51777018"
     inkscape:document-units="px"
     inkscape:current-layer="layer1"
     showguides="true"
     inkscape:guide-bbox="true"
     inkscape:window-width="1024"
     inkscape:window-height="682"
     inkscape:window-x="-4"
     inkscape:window-y="-4" />
  <metadata
     id="metadata18777">
    <rdf:RDF>
      <cc:Work
         rdf:about="">
        <dc:format>image/svg+xml</dc:format>
        <dc:type
           rdf:resource="http://purl.org/dc/dcmitype/StillImage" />
      </cc:Work>
    </rdf:RDF>
  </metadata>
  <g
     inkscape:groupmode="layer"
     inkscape:label="Warstwa 1"
     id="layer1"
     transform="translate(-3.294076,-4.997067)">
    <path
       style="opacity:1;color:black;fill:#005197;fill-opacity:1;fill-rule:nonzero;stroke:#555aff;stroke-width:1;stroke-linecap:butt;stroke-linejoin:miter;marker:none;marker-start:none;marker-mid:none;marker-end:none;stroke-miterlimit:4;stroke-dasharray:none;stroke-dashoffset:0;stroke-opacity:1;visibility:visible;display:inline;overflow:visible"
       d="M 5.7940764,818.66777 L 5.7940764,7.4970673 L 714.60276,7.4970673 L 714.60276,820.93361 C 714.60276,820.93361 708.80868,874.67717 652.79928,874.67717 C 596.78987,874.67717 409.44807,874.67717 409.44807,874.67717 C 393.05314,863.74722 350.371,897.09595 357.30138,932.61794 L 357.30138,932.61794 C 357.30138,932.61794 347.64459,874.67717 309.01741,874.67717 C 270.39023,874.67717 59.872123,874.67717 59.872123,874.67717 C 59.872123,874.67717 5.7940764,857.29494 5.7940764,818.66777 z "
       id="path18845"
       sodipodi:nodetypes="ccccscccscc" />
    <path
       id="path2808"
       d="M 5.7940764,818.66777 L 5.7940764,554.08817 L 714.60276,554.08819 L 714.60276,820.93361 C 714.60276,820.93361 708.80868,874.67717 652.79928,874.67717 C 596.78987,874.67717 409.44807,874.67717 409.44807,874.67717 C 391.2091,863.38638 353.31573,899.24889 357.30138,932.61794 L 357.30138,932.61794 C 357.30138,932.61794 347.64459,874.67717 309.01741,874.67717 C 270.39023,874.67717 59.872123,874.67717 59.872123,874.67717 C 59.872123,874.67717 5.7940764,863.6344 5.7940764,818.66777 z "
       style="opacity:1;color:black;fill:#fddc00;fill-opacity:1;fill-rule:nonzero;stroke:none;stroke-width:1;stroke-linecap:butt;stroke-linejoin:miter;marker:none;marker-start:none;marker-mid:none;marker-end:none;stroke-miterlimit:4;stroke-dasharray:none;stroke-dashoffset:0;stroke-opacity:1;visibility:visible;display:inline;overflow:visible"
       sodipodi:nodetypes="ccccscccscc" />
    <path
       style="opacity:1;color:black;fill:#005197;fill-opacity:1;fill-rule:nonzero;stroke:#005197;stroke-width:1;stroke-linecap:butt;stroke-linejoin:miter;marker:none;marker-start:none;marker-mid:none;marker-end:none;stroke-miterlimit:4;stroke-dasharray:none;stroke-dashoffset:0;stroke-opacity:1;visibility:visible;display:inline;overflow:visible"
       d="M 322.4375,657.78125 L 303.625,673.46875 C 193.21462,672.21409 171.87499,701.06249 171.875,701.0625 C 188.60384,727.5266 280.0625,737.68751 280.0625,737.6875 C 281.01512,707.20383 263.71875,692.43751 263.71875,692.4375 C 263.71875,692.4375 261.82109,691.16529 263.25,688.625 C 264.67892,686.08469 269.12498,688.49998 269.125,688.5 C 279.78963,697.28265 284.21689,704.9021 286.6875,726.78125 C 289.91783,755.38843 299.84374,753.12498 299.84375,753.125 C 296.70709,749.36101 299.75001,741.46876 299.75,741.46875 C 389.45843,743.97808 457.3377,728.01865 467.375,723 C 477.41231,717.98134 480.54619,722.39458 484.9375,725.53125 C 489.32882,728.66791 506.88994,727.4053 511.28125,719.25 C 515.67257,711.09469 533.84375,709.84373 533.84375,709.84375 C 555.80036,708.58909 579.03128,718.62497 579.03125,718.625 C 577.77659,705.45103 555.8125,692.28126 555.8125,692.28125 C 565.8498,684.12593 561.21878,666.31252 561.21875,666.3125 C 561.21875,666.3125 545.14316,685.37597 515.03125,693.53125 C 484.76751,701.72768 425.96876,689.75001 425.96875,689.75 L 424.71875,677.84375 C 356.3396,681.60774 322.43749,657.78124 322.4375,657.78125 z M 240.375,681.78125 C 246.33456,681.78127 251.1875,686.63419 251.1875,692.59375 C 251.18751,698.55331 246.33456,703.375 240.375,703.375 C 234.41544,703.37498 229.59375,698.55331 229.59375,692.59375 C 229.59374,686.63419 234.41544,681.78125 240.375,681.78125 z "
       id="path18847" />
    <path
       style="opacity:1;color:black;fill:#fddc00;fill-opacity:1;fill-rule:nonzero;stroke:none;stroke-width:1;stroke-linecap:butt;stroke-linejoin:miter;marker:none;marker-start:none;marker-mid:none;marker-end:none;stroke-miterlimit:4;stroke-dasharray:none;stroke-dashoffset:0;stroke-opacity:1;visibility:visible;display:inline;overflow:visible"
       d="M 280.96875,383.90625 L 280.96875,453.6875 L 257.84375,453.6875 L 248.65625,444.5 L 159.8125,444.5 C 159.8125,444.50001 166.39265,489.96875 196.5625,489.96875 L 533.15625,489.96875 L 555.3125,474.40625 L 555.3125,459.34375 L 471.40625,459.34375 L 471.40625,394.28125 L 458.6875,394.28125 L 458.6875,459.34375 L 423.3125,459.34375 L 423.3125,445.1875 L 414.375,436.25 L 388.90625,436.25 L 388.90625,403.25 L 369.59375,403.25 L 362.03125,416.3125 L 327.15625,416.3125 L 327.15625,453.6875 L 293.6875,453.6875 L 293.6875,383.90625 L 280.96875,383.90625 z "
       id="path19737" />
    <path
       style="opacity:1;color:black;fill:none;fill-opacity:1;fill-rule:nonzero;stroke:#fddc00;stroke-width:10;stroke-linecap:butt;stroke-linejoin:miter;marker:none;marker-start:none;marker-mid:none;marker-end:none;stroke-miterlimit:4;stroke-dasharray:none;stroke-dashoffset:0;stroke-opacity:1;visibility:visible;display:inline;overflow:visible"
       d="M 132.1149,131.50156 L 193.27563,322.62885"
       id="path21515"
       sodipodi:nodetypes="cc" />
    <path
       style="opacity:1;color:black;fill:none;fill-opacity:1;fill-rule:nonzero;stroke:#fddc00;stroke-width:10;stroke-linecap:butt;stroke-linejoin:miter;marker:none;marker-start:none;marker-mid:none;marker-end:none;stroke-miterlimit:4;stroke-dasharray:none;stroke-dashoffset:0;stroke-opacity:1;visibility:visible;display:inline;overflow:visible"
       d="M 163.10577,129.35322 L 218.73144,319.80042"
       id="path22402" />
    <path
       style="opacity:1;color:black;fill:none;fill-opacity:1;fill-rule:nonzero;stroke:#fddc00;stroke-width:10;stroke-linecap:butt;stroke-linejoin:miter;marker:none;marker-start:none;marker-mid:none;marker-end:none;stroke-miterlimit:4;stroke-dasharray:none;stroke-dashoffset:0;stroke-opacity:1;visibility:visible;display:inline;overflow:visible"
       d="M 189.9758,108.14002 L 235.23058,301.88705"
       id="path1883" />
    <path
       style="opacity:1;color:black;fill:none;fill-opacity:1;fill-rule:nonzero;stroke:#fddc00;stroke-width:10;stroke-linecap:butt;stroke-linejoin:miter;marker:none;marker-start:none;marker-mid:none;marker-end:none;stroke-miterlimit:4;stroke-dasharray:none;stroke-dashoffset:0;stroke-opacity:1;visibility:visible;display:inline;overflow:visible"
       d="M 255.50095,289.63055 L 214.0174,77.498762"
       id="path1885" />
    <path
       style="opacity:1;color:black;fill:none;fill-opacity:1;fill-rule:nonzero;stroke:#fddc00;stroke-width:10;stroke-linecap:butt;stroke-linejoin:miter;marker:none;marker-start:none;marker-mid:none;marker-end:none;stroke-miterlimit:4;stroke-dasharray:none;stroke-dashoffset:0;stroke-opacity:1;visibility:visible;display:inline;overflow:visible"
       d="M 239.00182,67.599278 L 276.71413,280.67388"
       id="path1887" />
    <path
       style="opacity:1;color:black;fill:none;fill-opacity:1;fill-rule:nonzero;stroke:#fddc00;stroke-width:10;stroke-linecap:butt;stroke-linejoin:miter;marker:none;marker-start:none;marker-mid:none;marker-end:none;stroke-miterlimit:4;stroke-dasharray:none;stroke-dashoffset:0;stroke-opacity:1;visibility:visible;display:inline;overflow:visible"
       d="M 263.51482,78.912974 L 293.68468,275.01703"
       id="path1889" />
    <path
       style="opacity:1;color:black;fill:none;fill-opacity:1;fill-rule:nonzero;stroke:#fddc00;stroke-width:10;stroke-linecap:butt;stroke-linejoin:miter;marker:none;marker-start:none;marker-mid:none;marker-end:none;stroke-miterlimit:4;stroke-dasharray:none;stroke-dashoffset:0;stroke-opacity:1;visibility:visible;display:inline;overflow:visible"
       d="M 314.42645,284.91651 L 296.9845,132.65303"
       id="path1891" />
    <path
       style="opacity:1;color:black;fill:none;fill-opacity:1;fill-rule:nonzero;stroke:#fddc00;stroke-width:10;stroke-linecap:butt;stroke-linejoin:miter;marker:none;marker-start:none;marker-mid:none;marker-end:none;stroke-miterlimit:4;stroke-dasharray:none;stroke-dashoffset:0;stroke-opacity:1;visibility:visible;display:inline;overflow:visible"
       d="M 323.38313,134.06724 L 333.75401,296.23021"
       id="path1893" />
    <path
       style="opacity:1;color:black;fill:none;fill-opacity:1;fill-rule:nonzero;stroke:#fddc00;stroke-width:10;stroke-linecap:butt;stroke-linejoin:miter;marker:none;marker-start:none;marker-mid:none;marker-end:none;stroke-miterlimit:4;stroke-dasharray:none;stroke-dashoffset:0;stroke-opacity:1;visibility:visible;display:inline;overflow:visible"
       d="M 356.85281,288.21634 C 357.32421,285.85932 348.36754,115.21108 348.36754,115.21108"
       id="path1895" />
    <path
       style="opacity:1;color:black;fill:none;fill-opacity:1;fill-rule:nonzero;stroke:#fddc00;stroke-width:10;stroke-linecap:butt;stroke-linejoin:miter;marker:none;marker-start:none;marker-mid:none;marker-end:none;stroke-miterlimit:4;stroke-dasharray:none;stroke-dashoffset:0;stroke-opacity:1;visibility:visible;display:inline;overflow:visible"
       d="M 379.9516,99.654749 L 380.42301,267.00316"
       id="path1897" />
    <path
       style="opacity:1;color:black;fill:none;fill-opacity:1;fill-rule:nonzero;stroke:#fddc00;stroke-width:10;stroke-linecap:butt;stroke-linejoin:miter;marker:none;marker-start:none;marker-mid:none;marker-end:none;stroke-miterlimit:4;stroke-dasharray:none;stroke-dashoffset:0;stroke-opacity:1;visibility:visible;display:inline;overflow:visible"
       d="M 409.65005,258.51789 L 409.17865,99.183345"
       id="path1899" />
    <path
       style="opacity:1;color:black;fill:none;fill-opacity:1;fill-rule:nonzero;stroke:#fddc00;stroke-width:10;stroke-linecap:butt;stroke-linejoin:miter;marker:none;marker-start:none;marker-mid:none;marker-end:none;stroke-miterlimit:4;stroke-dasharray:none;stroke-dashoffset:0;stroke-opacity:1;visibility:visible;display:inline;overflow:visible"
       d="M 439.81991,107.66862 L 435.10587,241.07594"
       id="path1901" />
    <path
       style="opacity:1;color:black;fill:none;fill-opacity:1;fill-rule:nonzero;stroke:#fddc00;stroke-width:10;stroke-linecap:butt;stroke-linejoin:miter;marker:none;marker-start:none;marker-mid:none;marker-end:none;stroke-miterlimit:4;stroke-dasharray:none;stroke-dashoffset:0;stroke-opacity:1;visibility:visible;display:inline;overflow:visible"
       d="M 455.37624,243.90437 L 465.27572,116.15389"
       id="path1903" />
    <path
       style="opacity:1;color:black;fill:none;fill-opacity:1;fill-rule:nonzero;stroke:#fddc00;stroke-width:10;stroke-linecap:butt;stroke-linejoin:miter;marker:none;marker-start:none;marker-mid:none;marker-end:none;stroke-miterlimit:4;stroke-dasharray:none;stroke-dashoffset:0;stroke-opacity:1;visibility:visible;display:inline;overflow:visible"
       d="M 486.0175,127.46758 L 474.2324,247.20419"
       id="path1905" />
    <path
       style="opacity:1;color:black;fill:none;fill-opacity:1;fill-rule:nonzero;stroke:#fddc00;stroke-width:10;stroke-linecap:butt;stroke-linejoin:miter;marker:none;marker-start:none;marker-mid:none;marker-end:none;stroke-miterlimit:4;stroke-dasharray:none;stroke-dashoffset:0;stroke-opacity:1;visibility:visible;display:inline;overflow:visible"
       d="M 496.38839,239.19033 L 508.17349,115.21108"
       id="path1907" />
    <path
       style="opacity:1;color:black;fill:none;fill-opacity:1;fill-rule:nonzero;stroke:#fddc00;stroke-width:10;stroke-linecap:butt;stroke-linejoin:miter;marker:none;marker-start:none;marker-mid:none;marker-end:none;stroke-miterlimit:4;stroke-dasharray:none;stroke-dashoffset:0;stroke-opacity:1;visibility:visible;display:inline;overflow:visible"
       d="M 534.1007,103.42598 L 519.48718,222.69119"
       id="path1909" />
    <path
       style="opacity:1;color:black;fill:none;fill-opacity:1;fill-rule:nonzero;stroke:#fddc00;stroke-width:10;stroke-linecap:butt;stroke-linejoin:miter;marker:none;marker-start:none;marker-mid:none;marker-end:none;stroke-miterlimit:4;stroke-dasharray:none;stroke-dashoffset:0;stroke-opacity:1;visibility:visible;display:inline;overflow:visible"
       d="M 541.64317,216.56293 L 560.97073,91.640881"
       id="path1911" />
    <path
       style="opacity:1;color:black;fill:none;fill-opacity:1;fill-rule:nonzero;stroke:#fddc00;stroke-width:10;stroke-linecap:butt;stroke-linejoin:miter;marker:none;marker-start:none;marker-mid:none;marker-end:none;stroke-miterlimit:4;stroke-dasharray:none;stroke-dashoffset:0;stroke-opacity:1;visibility:visible;display:inline;overflow:visible"
       d="M 578.41268,119.92512 L 559.55652,235.41909"
       id="path1913" />
    <path
       style="opacity:1;color:black;fill:none;fill-opacity:1;fill-rule:nonzero;stroke:#fddc00;stroke-width:10;stroke-linecap:butt;stroke-linejoin:miter;marker:none;marker-start:none;marker-mid:none;marker-end:none;stroke-miterlimit:4;stroke-dasharray:none;stroke-dashoffset:0;stroke-opacity:1;visibility:visible;display:inline;overflow:visible"
       d="M 578.41268,246.73279 L 598.21164,135.48145"
       id="path1915" />
    <path
       style="opacity:1;color:black;fill:none;fill-opacity:1;fill-rule:nonzero;stroke:#fddc00;stroke-width:10;stroke-linecap:butt;stroke-linejoin:miter;marker:none;marker-start:none;marker-mid:none;marker-end:none;stroke-miterlimit:4;stroke-dasharray:none;stroke-dashoffset:0;stroke-opacity:1;visibility:visible;display:inline;overflow:visible"
       d="M 625.08167,123.22495 L 600.56866,238.71892"
       id="path1917" />
    <path
       id="path5465"
       d="M 5.7940764,818.66777 L 5.7940764,7.4970673 L 714.60276,7.4970673 L 714.60276,820.93361 C 714.60276,820.93361 708.80868,874.67717 652.79928,874.67717 C 596.78987,874.67717 409.44807,874.67717 409.44807,874.67717 C 367.69604,874.67717 359.02659,900.81705 355.30138,932.61794 L 355.30138,932.61794 C 355.30138,932.61794 346.39961,874.67717 309.01741,874.67717 C 270.39023,874.67717 59.872123,874.67717 59.872123,874.67717 C 59.872123,874.67717 5.7940764,867.59657 5.7940764,818.66777 z "
       style="opacity:1;color:black;fill:none;fill-opacity:1;fill-rule:nonzero;stroke:black;stroke-width:5;stroke-linecap:butt;stroke-linejoin:miter;marker:none;marker-start:none;marker-mid:none;marker-end:none;stroke-miterlimit:4;stroke-dasharray:none;stroke-dashoffset:0;stroke-opacity:1;visibility:visible;display:inline;overflow:visible"
       sodipodi:nodetypes="ccccscccscc" />
  </g>
</svg>
