<?xml version="1.0" encoding="UTF-8"?>
<svg xmlns="http://www.w3.org/2000/svg" width="1200" height="800" viewBox="0 0 900 600">
<rect fill="#009846" width="900" height="600"/>
<rect fill="#008DD2" width="900" height="450"/>
<path fill="#FEFEFE" d="M573 557c2,-2 6,-4 6,-5 -1,-5 10,5 17,1 2,-1 9,0 9,-5 0,-1 1,-1 6,-2 8,-3 14,-1 16,-2 8,-5 -87,-39 -93,-46 -3,-3 3,-9 -3,-9 -8,0 6,-9 7,-9 4,0 3,-12 19,-29 7,-7 11,-5 10,-6 3,-2 18,-14 19,-15 3,0 3,-3 7,-5 0,0 7,-7 9,-7l19 -8c0,0 18,-12 19,-11 0,0 5,-4 6,-5 0,0 6,-4 7,-5 0,-1 14,-9 20,-17 1,-2 9,-5 9,-6l12 -11c1,1 9,-11 11,-11 3,-6 5,-8 7,-15 0,-4 3,-2 4,-6 1,-3 2,-5 4,-5 5,-1 14,-22 6,-17 -5,3 0,-2 1,-1 1,0 6,-15 7,-17l-2 0c0,1 -4,2 -4,2 2,3 -31,12 -34,14 0,2 -1,0 -1,1 3,5 -86,48 -88,47 -15,7 -39,17 -53,20 -6,2 -27,9 -29,7 -1,1 -10,9 -10,9 0,2 -11,10 -11,10l-20 18c0,0 -9,9 -10,9 0,-1 -7,7 -8,6 -1,0 -10,6 -11,7 -2,-1 -25,-7 -24,-8 0,0 -27,-10 -30,-11 0,0 -25,-8 -24,-10 0,0 -23,-11 -22,-13 -6,-3 -15,-14 -20,-20 -7,-10 -15,-13 -26,-18 -21,-11 -29,-7 -34,-11 -3,-4 -11,-8 -16,-8 -11,0 -15,-19 -22,-17 -4,2 -4,-11 -6,-11 -3,1 -1,0 -4,4 -11,18 -4,56 6,70 2,3 1,1 3,4 2,2 5,3 16,6 7,2 49,13 48,15 22,8 29,11 49,22 10,6 16,12 22,21 0,0 3,1 -4,0 -20,-1 -21,2 -30,8 -5,4 -7,6 -7,7 0,1 -4,2 -10,3 -6,1 -8,2 -13,6 -6,6 -2,4 4,6 12,4 17,-3 30,3 19,10 19,5 37,24 21,20 22,17 51,25 23,7 25,7 49,9 24,1 47,5 58,10 10,5 4,-2 21,4 14,5 15,5 18,4z"/>
<circle fill="#FFED00" cx="450" cy="225" r="150"/>
</svg>