<?xml version="1.0" encoding="utf-8"?>
<!-- Generator: Adobe Illustrator 15.0.1, SVG Export Plug-In . SVG Version: 6.00 Build 0)  -->
<!DOCTYPE svg PUBLIC "-//W3C//DTD SVG 1.1//EN" "http://www.w3.org/Graphics/SVG/1.1/DTD/svg11.dtd">
<svg version="1.1" id="Layer_1" xmlns="http://www.w3.org/2000/svg" xmlns:xlink="http://www.w3.org/1999/xlink" x="0px" y="0px"
	 width="480px" height="640px" viewBox="0 0 480 640" enable-background="new 0 0 480 640" xml:space="preserve">
<g>
	<g>
		<g id="XMLID_1_">
			<g>
				<path d="M470.64,10.83v544.74c0,19.949-10.58,41.27-40.27,41.27c0,0-166.101,0.021-166.38,0.061
					c-10.431,1.409-19.48,22.77-22.09,30.88l-1.9,5.92l-1.91-5.92c-2.7-8.38-11.9-30.28-21.9-30.931l-167.88-0.01
					c-22.94,0-38.96-16.97-38.96-41.27V10.83H470.64z M466.64,555.57V14.83H13.35v18.42v522.32c0,18.55,10.81,37.27,34.96,37.27
					h167.44c0.18,0,0.38,0,0.57,0.021c0.06-0.011,0.12,0,0.18,0c11.34,0.779,19.85,18.989,23.52,28.43
					c3.61-9.09,12.04-26.82,23.38-28.34c0.08-0.021,0.17-0.03,0.27-0.04c0.38-0.05,0.84-0.07,1.34-0.07h165.36
					C453.08,592.84,466.64,578.91,466.64,555.57z"/>
				<path fill="#FBF239" d="M466.64,14.83l-0.029,18.45L263.67,229.93v362.98c-0.1,0.01-0.189,0.02-0.27,0.04
					c-11.341,1.52-19.771,19.25-23.38,28.34c-3.67-9.44-12.18-27.65-23.52-28.43c-0.06,0-0.12-0.011-0.18,0v-0.011V229.93
					L13.35,33.25V14.83H466.64z M308.571,138.83c3.3-3.65,4.66-8.87,4.029-15.54c-0.649-6.96-3.6-12.92-8.779-17.71
					c-1.44-1.33-3.07-2.57-4.851-3.72v-1.09c0-39.75-23.7-66.45-58.97-66.45c-37.17,0-61.2,26.47-61.2,67.43v1.21
					c-1.15,0.84-2.23,1.71-3.22,2.62c-5.18,4.79-8.13,10.75-8.78,17.71c-0.62,6.66,0.73,11.89,4.04,15.54
					c4.66,5.15,14.58,5.59,15.72,5.59c5.67,0,15.62-1.81,18.63-13.94c4.06-16.37,17.43-38.26,17.57-38.48l0.11-0.18l-0.22-0.01
					c0,0-0.33-0.01-0.96-0.01c-3.67,0-16.63,0.32-29.05,4.38c-3.63,1.19-6.91,2.61-9.81,4.23c0.52-37.77,22.83-62.09,57.17-62.09
					c32.52,0,54.47,24.55,54.94,61.23c-2.48-1.26-5.21-2.39-8.181-3.37c-12.42-4.06-25.38-4.38-29.05-4.38
					c-0.63,0-0.96,0.01-0.96,0.01l-0.22,0.01L256.64,92c0.141,0.22,13.511,22.11,17.57,38.48c3.01,12.13,12.97,13.94,18.63,13.94
					C295.12,144.42,303.861,144.02,308.571,138.83z M259.731,178.62c3.8-4.33,5.81-10.55,5.81-17.98c0-20.15-25.18-57.43-25.43-57.8
					l-0.11-0.16l-0.1,0.16c-0.28,0.4-27.73,40.93-27.73,57.8c0,15.51,10.92,25.53,27.83,25.53
					C248.71,186.17,255.35,183.63,259.731,178.62z"/>
				<path fill="#BBBCBE" d="M398.41,197.56c-6.01,8.69-11.42,17.66-16.13,26.74c-5.3-9.05-11.33-18.03-17.98-26.74H398.41z"/>
				<path fill="#BBBCBE" d="M406.2,374.11c-5.86,31.33-17.141,53.63-20.98,60.59c-3.55-6.82-13.8-28.13-20.06-57.9
					c1.02-5.62,1.8-11.14,2.37-16.55v-0.01c2.859-27.08,0.479-51.28-3.23-70.19c-0.189-0.93-0.38-1.84-0.569-2.76
					c1.25-6.79,2.859-13.72,4.88-20.76c3.37-11.72,7.89-23.74,13.83-35.89C413.68,286.99,412.66,339.65,406.2,374.11z"/>
				<path fill="#61ADEC" d="M466.64,14.83v540.74c0,23.34-13.56,37.27-36.27,37.27H265.01c-0.5,0-0.96,0.021-1.34,0.07V229.93
					l202.94-196.65L466.64,14.83z M324.55,469.57h40.03c0.57,0,1.1-0.32,1.35-0.84c0.25-0.511,0.181-1.131-0.17-1.58
					c-7.71-9.9-14.64-20.15-20.58-30.5c0.311-0.62,0.61-1.24,0.9-1.851c0.3-0.609,0.6-1.229,0.88-1.84
					c7.99-16.7,13.35-33.12,16.76-48.88c7.891,33,20.03,54.229,20.16,54.46c0.271,0.46,0.75,0.74,1.28,0.75h0.02
					c0.521,0,1-0.271,1.28-0.71c0.15-0.25,15.45-25.34,22.67-63.79c6.64-35.35,7.65-89.55-25.07-147.4
					c5.271-10.36,11.48-20.61,18.45-30.46c0.33-0.46,0.37-1.06,0.11-1.56s-0.771-0.81-1.33-0.81h-40.04c-0.57,0-1.09,0.33-1.34,0.84
					c-0.25,0.52-0.19,1.13,0.16,1.58c7.72,9.9,14.64,20.16,20.58,30.5c-6.46,12.94-11.33,25.75-14.91,38.23c0,0.01,0,0.01,0,0.02
					c-1.4,4.83-2.601,9.62-3.62,14.34c-7.89-33.01-20.03-54.25-20.17-54.48c-0.26-0.46-0.75-0.74-1.271-0.75
					c-0.54,0.01-1.02,0.27-1.3,0.71c-0.149,0.25-15.45,25.34-22.68,63.8c-6.641,35.34-7.65,89.54,25.08,147.39
					c-5.271,10.359-11.48,20.609-18.46,30.47c-0.32,0.46-0.36,1.06-0.11,1.55C323.47,469.26,323.99,469.57,324.55,469.57z"/>
				<path fill="#BBBCBE" d="M363.52,368.25c-3.079-17.81-4.81-39.76-2.239-64.06c0.29-2.74,0.64-5.51,1.04-8.31
					c3.08,17.82,4.8,39.771,2.239,64.061C364.27,362.679,363.92,365.45,363.52,368.25z"/>
				<path fill="#BBBCBE" d="M343.56,439.83c5.301,9.06,11.33,18.03,17.971,26.74H327.43C333.43,457.88,338.85,448.91,343.56,439.83z
					"/>
				<path fill="#FFFFFF" d="M364.3,197.56c6.65,8.71,12.681,17.69,17.98,26.74c4.71-9.08,10.12-18.05,16.13-26.74H364.3z
					 M344.281,431.67c8.97-18.8,14.58-37.29,17.819-54.83c-0.189-0.91-0.38-1.83-0.56-2.76c-3.71-18.91-6.09-43.11-3.21-70.18
					l2.95,0.29c-2.57,24.3-0.84,46.25,2.239,64.06c0.4-2.8,0.75-5.57,1.04-8.31l2.971,0.3v0.01c-0.57,5.41-1.351,10.93-2.37,16.55
					c6.26,29.771,16.51,51.08,20.06,57.9c3.84-6.96,15.12-29.26,20.98-60.59c6.46-34.46,7.479-87.12-23.76-143.47
					c-5.94,12.15-10.46,24.17-13.83,35.89l-2.87-0.8c0-0.01,0-0.01,0-0.02c3.58-12.48,8.45-25.29,14.91-38.23
					c-5.94-10.34-12.86-20.6-20.58-30.5c-0.351-0.45-0.41-1.06-0.16-1.58c0.25-0.51,0.77-0.84,1.34-0.84h40.04
					c0.56,0,1.07,0.31,1.33,0.81s0.22,1.1-0.11,1.56c-6.97,9.85-13.18,20.1-18.45,30.46c32.721,57.85,31.71,112.05,25.07,147.4
					c-7.22,38.45-22.52,63.54-22.67,63.79c-0.28,0.439-0.76,0.71-1.28,0.71h-0.02c-0.53-0.01-1.01-0.29-1.28-0.75
					c-0.13-0.23-12.27-21.46-20.16-54.46c-3.41,15.76-8.77,32.18-16.76,48.88L344.281,431.67z"/>
				<path fill="#BBBCBE" d="M340.62,229.43c3.55,6.82,13.8,28.12,20.07,57.93c-1.021,5.61-1.801,11.12-2.36,16.52
					c0,0.01,0,0.01,0,0.02c-2.88,27.07-0.5,51.27,3.21,70.18c0.18,0.93,0.37,1.85,0.56,2.76c-3.239,17.54-8.85,36.03-17.819,54.83
					c-0.29,0.61-0.58,1.21-0.88,1.82c-31.24-56.351-30.23-109.01-23.771-143.47C325.5,258.69,336.781,236.39,340.62,229.43z"/>
				<path fill="#FFFFFF" d="M343.56,439.83c-4.71,9.08-10.13,18.05-16.13,26.74h34.101C354.89,457.86,348.861,448.889,343.56,439.83
					z M341.781,436.74c-32.73-57.851-31.721-112.05-25.08-147.39c7.229-38.46,22.53-63.55,22.68-63.8c0.28-0.44,0.76-0.7,1.3-0.71
					c0.521,0.01,1.011,0.29,1.271,0.75c0.14,0.23,12.28,21.47,20.17,54.48c1.02-4.72,2.22-9.51,3.62-14.34l2.87,0.8
					c-2.021,7.04-3.63,13.97-4.88,20.76c0.189,0.92,0.38,1.83,0.569,2.76c3.71,18.91,6.09,43.11,3.23,70.19l-2.971-0.3
					c2.561-24.29,0.841-46.24-2.239-64.061c-0.4,2.8-0.75,5.57-1.04,8.31l-2.95-0.29c0-0.01,0-0.01,0-0.02
					c0.56-5.4,1.34-10.91,2.36-16.52c-6.271-29.81-16.521-51.11-20.07-57.93c-3.84,6.96-15.12,29.26-20.99,60.59
					c-6.46,34.46-7.47,87.12,23.771,143.47c0.3-0.61,0.59-1.21,0.88-1.82l2.68,1.29c-0.28,0.61-0.58,1.23-0.88,1.84
					c-0.29,0.61-0.59,1.23-0.9,1.851c5.94,10.35,12.87,20.6,20.58,30.5c0.351,0.449,0.42,1.069,0.17,1.58
					c-0.25,0.52-0.779,0.84-1.35,0.84h-40.03c-0.56,0-1.08-0.311-1.34-0.811c-0.25-0.49-0.21-1.09,0.11-1.55
					C330.3,457.349,336.51,447.099,341.781,436.74z"/>
				<path d="M265.54,160.64c0,7.43-2.01,13.65-5.81,17.98c-4.381,5.01-11.021,7.55-19.73,7.55c-16.91,0-27.83-10.02-27.83-25.53
					c0-16.87,27.45-57.4,27.73-57.8l0.1-0.16l0.11,0.16C240.36,103.21,265.54,140.49,265.54,160.64z"/>
				<path d="M192.64,96.18c12.42-4.06,25.38-4.38,29.05-4.38c0.63,0,0.96,0.01,0.96,0.01l0.22,0.01L222.76,92
					c-0.14,0.22-13.51,22.11-17.57,38.48c-3.01,12.13-12.96,13.94-18.63,13.94c-1.14,0-11.06-0.44-15.72-5.59
					c-3.31-3.65-4.66-8.88-4.04-15.54c0.65-6.96,3.6-12.92,8.78-17.71c0.99-0.91,2.07-1.78,3.22-2.62v-1.21
					c0-40.96,24.03-67.43,61.2-67.43c35.27,0,58.97,26.7,58.97,66.45v1.09c1.78,1.15,3.41,2.39,4.851,3.72
					c5.18,4.79,8.13,10.75,8.779,17.71c0.631,6.67-0.729,11.89-4.029,15.54c-4.71,5.19-13.45,5.59-15.73,5.59
					c-5.66,0-15.62-1.81-18.63-13.94c-4.06-16.37-17.43-38.26-17.57-38.48l-0.109-0.18l0.22-0.01c0,0,0.33-0.01,0.96-0.01
					c3.67,0,16.63,0.32,29.05,4.38c2.971,0.98,5.7,2.11,8.181,3.37C294.47,62.87,272.52,38.32,240,38.32
					c-34.34,0-56.65,24.32-57.17,62.09C185.73,98.79,189.01,97.37,192.64,96.18z"/>
				<path fill="#FFFFFF" d="M77.37,413.25c0,0-22.51,36.09-44.74,52.25c0,0,33.44,7.36,75.73-17.9v24.83h23.1v-24.83
					c42.29,25.261,74.19,17.9,74.19,17.9c-22.23-16.16-44.75-52.25-44.75-52.25c7.94,3.32,30.75,4.04,30.75,4.04
					c-24.11-16.89-41.43-48.64-41.43-48.64c6.93,2.449,27.43,4.18,27.43,4.18c-17.9-16.74-35.94-47.2-35.94-47.2
					c7.16,5.49,24.1,4.771,24.1,4.771c-15.59-11.55-30.26-34.94-30.26-34.94c5.72,2.75,19.58,1.74,19.58,1.74
					c-20.32-14.35-26.74-32.79-26.93-33.37c5.2,3.74,17.4,2.76,17.4,2.76c-10.53-11.11-26.46-48.21-26.46-48.21
					s-15.93,37.1-26.46,48.21c0,0,12.2,0.98,17.4-2.76c-0.19,0.58-6.61,19.02-26.93,33.37c0,0,13.86,1.01,19.58-1.74
					c0,0-14.67,23.39-30.26,34.94c0,0,16.93,0.72,24.1-4.771c0,0-18.04,30.46-35.94,47.2c0,0,20.48-1.73,27.42-4.17
					c-0.26,0.49-17.51,31.87-41.42,48.63C46.63,417.29,69.43,416.57,77.37,413.25z M215.75,592.84H48.31
					c-24.15,0-34.96-18.72-34.96-37.27V33.25l202.97,196.68v362.919v0.011C216.13,592.84,215.93,592.84,215.75,592.84z"/>
				<path fill="#5DA457" d="M88.05,368.66c-6.94,2.439-27.42,4.17-27.42,4.17c17.9-16.74,35.94-47.2,35.94-47.2
					c-7.17,5.49-24.1,4.771-24.1,4.771c15.59-11.55,30.26-34.94,30.26-34.94c-5.72,2.75-19.58,1.74-19.58,1.74
					c20.32-14.35,26.74-32.79,26.93-33.37c-5.2,3.74-17.4,2.76-17.4,2.76c10.53-11.11,26.46-48.21,26.46-48.21
					s15.93,37.1,26.46,48.21c0,0-12.2,0.98-17.4-2.76c0.19,0.58,6.61,19.02,26.93,33.37c0,0-13.86,1.01-19.58-1.74
					c0,0,14.67,23.39,30.26,34.94c0,0-16.94,0.72-24.1-4.771c0,0,18.04,30.46,35.94,47.2c0,0-20.5-1.73-27.43-4.18
					c0,0,17.32,31.75,41.43,48.64c0,0-22.81-0.72-30.75-4.04c0,0,22.52,36.09,44.75,52.25c0,0-31.9,7.36-74.19-17.9v24.83h-23.1
					v-24.83c-42.29,25.261-75.73,17.9-75.73,17.9c22.23-16.16,44.74-52.25,44.74-52.25c-7.94,3.32-30.74,4.04-30.74,4.04
					C70.54,400.53,87.79,369.15,88.05,368.66z"/>
			</g>
			<g>
			</g>
		</g>
	</g>
</g>
</svg>
