<?xml version="1.0" encoding="UTF-8" standalone="no"?>
<svg
   xmlns:dc="http://purl.org/dc/elements/1.1/"
   xmlns:cc="http://creativecommons.org/ns#"
   xmlns:rdf="http://www.w3.org/1999/02/22-rdf-syntax-ns#"
   xmlns="http://www.w3.org/2000/svg"
   xmlns:sodipodi="http://sodipodi.sourceforge.net/DTD/sodipodi-0.dtd"
   xmlns:inkscape="http://www.inkscape.org/namespaces/inkscape"
   width="728pt" height="852pt" viewBox="34 17 728 852"
   version="1.1"
   sodipodi:version="0.32"
   inkscape:version="0.46"
   sodipodi:docname="Coat of Arms of Saransk.svg"
   inkscape:output_extension="org.inkscape.output.svg.inkscape">
  <metadata>
    <rdf:RDF>
      <cc:Work rdf:about="">
        <dc:format>image/svg+xml</dc:format>
        <dc:type rdf:resource="http://purl.org/dc/dcmitype/StillImage" />
      </cc:Work>
    </rdf:RDF>
  </metadata>
  <path
     d=" M 43.97 27.14 C 48.97 26.92 53.98 26.95 58.99 26.98 C 272.00 26.98 485.00 26.98 698.01 26.98 C 716.02 27.13 734.04 26.67 752.05 27.23 C 752.03 250.49 752.04 473.75 752.05 697.01 C 752.59 716.62 745.89 735.90 735.33 752.24 C 729.39 761.12 722.84 769.82 714.22 776.27 C 695.37 791.81 671.70 802.55 646.96 802.44 C 584.64 802.49 522.32 802.42 460.00 802.48 C 451.56 802.39 443.12 804.01 435.49 807.68 C 423.29 813.52 411.76 822.34 405.92 834.87 C 401.26 844.09 399.94 854.52 399.74 864.73 C 397.33 862.84 398.17 859.57 397.71 856.95 C 395.97 841.71 386.16 828.80 374.56 819.37 C 363.26 809.13 348.51 802.26 333.06 802.52 C 279.04 802.38 225.02 802.50 171.00 802.46 C 161.35 802.41 151.69 802.62 142.04 802.15 C 120.98 800.50 100.96 791.48 84.55 778.40 C 59.92 759.92 44.11 729.90 43.98 698.99 C 43.97 475.04 43.99 251.09 43.97 27.14 Z"
     id="path2480"
     fill="#cecdd2" />
  <path
     fill="#d6312a"
     d=" M 280.29 118.49 C 286.98 122.81 293.35 127.61 300.03 131.94 C 301.23 132.84 302.87 133.10 304.09 132.04 C 310.26 127.79 315.74 122.53 322.29 118.80 C 322.34 124.53 322.34 130.26 322.30 135.99 C 315.61 140.25 309.24 145.14 302.21 148.81 C 298.03 147.33 294.48 144.54 290.64 142.38 C 287.25 140.21 283.46 138.59 280.45 135.89 C 279.97 130.11 280.39 124.29 280.29 118.49 Z"
     id="path2482" />
  <path
     fill="#d6312a"
     d=" M 378.45 118.69 C 384.98 122.64 391.10 127.23 397.44 131.49 C 398.62 132.13 400.18 133.44 401.53 132.46 C 407.97 128.15 413.69 122.83 420.29 118.76 C 420.45 124.51 420.41 130.27 420.34 136.02 C 413.89 140.53 407.25 144.76 400.63 149.00 C 392.92 145.26 385.73 140.56 378.39 136.18 C 378.32 130.35 378.29 124.52 378.45 118.69 Z"
     id="path2484" />
  <path
     fill="#d6312a"
     d=" M 478.74 119.90 C 485.89 124.58 492.94 129.42 499.88 134.40 C 500.25 134.44 500.99 134.53 501.36 134.58 C 507.81 129.74 514.17 124.77 520.60 119.89 C 520.63 124.94 520.79 129.99 520.70 135.04 C 520.58 136.23 520.86 137.77 519.56 138.41 C 513.47 142.63 507.09 146.44 501.01 150.68 C 493.48 146.35 485.98 141.96 478.62 137.35 C 478.69 131.54 478.60 125.72 478.74 119.90 Z"
     id="path2486" />
  <path
     fill="#d6312a"
     d=" M 280.32 153.41 C 280.26 148.24 280.22 143.06 280.39 137.89 C 287.07 142.85 293.90 147.64 300.85 152.22 C 302.38 153.51 303.92 151.92 305.15 151.04 C 310.17 147.04 315.36 143.29 320.39 139.31 C 320.89 139.29 321.88 139.24 322.38 139.21 C 322.32 143.83 322.33 148.45 322.28 153.07 C 315.62 157.69 308.77 162.02 302.10 166.63 C 294.97 162.01 287.54 157.89 280.32 153.41 Z"
     id="path2488" />
  <path
     fill="#d6312a"
     d=" M 378.44 138.07 C 385.93 142.96 392.94 148.58 400.69 153.04 C 407.26 148.10 413.64 142.92 420.30 138.12 C 420.40 143.13 420.37 148.15 420.38 153.17 C 413.70 157.73 406.91 162.15 400.14 166.59 C 393.02 161.98 385.67 157.74 378.40 153.36 C 378.32 148.27 378.34 143.17 378.44 138.07 Z"
     id="path2490" />
  <path
     fill="#d6312a"
     d=" M 478.72 139.66 C 486.43 144.23 493.49 149.79 500.99 154.68 C 507.47 149.55 514.10 144.62 520.62 139.53 C 520.67 144.68 520.79 149.84 520.53 154.98 C 514.25 158.86 508.30 163.24 502.05 167.16 C 500.61 168.33 499.04 166.81 497.72 166.20 C 491.45 162.09 484.76 158.64 478.63 154.32 C 478.66 149.43 478.62 144.54 478.72 139.66 Z"
     id="path2492" />
  <path transform="translate(0,-0.5)"
     fill="#d6312a"
     d=" M 280.35 158.14 C 287.93 162.25 294.97 167.42 302.90 170.83 C 309.17 166.47 315.40 161.95 322.22 158.49 C 322.38 163.16 322.30 167.84 322.41 172.51 C 317.72 176.58 312.19 179.49 307.17 183.11 C 305.05 184.31 302.56 186.90 300.09 185.02 C 293.57 181.29 287.39 176.92 280.53 173.81 C 280.12 168.60 280.24 163.36 280.35 158.14 Z"
     id="path2494" />
  <path transform="translate(0,-0.5)"
     fill="#d6312a"
     d=" M 378.44 158.07 C 385.35 162.29 392.49 166.16 399.14 170.77 C 407.08 168.55 412.58 161.50 420.32 158.71 C 420.36 163.40 420.37 168.08 420.50 172.77 C 415.42 176.69 409.78 179.82 404.59 183.58 C 402.83 184.54 400.83 186.66 398.73 185.30 C 391.88 181.40 385.21 177.18 378.41 173.21 C 378.32 168.16 378.33 163.12 378.44 158.07 Z"
     id="path2496" />
  <path transform="translate(0,-1)"
     fill="#d6312a"
     d=" M 478.71 159.63 C 486.31 163.65 493.57 168.26 501.00 172.57 C 507.44 168.07 514.05 163.85 520.63 159.57 C 520.69 164.72 520.79 169.88 520.52 175.03 C 513.81 179.00 507.47 183.53 500.87 187.67 C 493.37 183.40 485.94 178.98 478.63 174.39 C 478.70 169.47 478.64 164.55 478.71 159.63 Z"
     id="path2498" />
  <path transform="translate(0,-1)"
     fill="#d6312a"
     d=" M 280.36 177.82 C 287.58 182.17 294.89 186.37 302.10 190.76 C 308.97 186.71 315.32 181.83 322.30 177.96 C 322.35 182.86 322.30 187.75 322.36 192.65 C 316.76 196.63 310.88 200.19 305.28 204.16 C 303.94 204.90 302.34 206.42 300.82 205.20 C 294.01 201.08 287.09 197.14 280.30 192.98 C 280.26 187.93 280.26 182.87 280.36 177.82 Z"
     id="path2500" />
  <path transform="translate(0,-1)"
     fill="#d6312a"
     d=" M 378.45 177.80 C 385.91 182.07 393.10 186.83 400.74 190.79 C 407.13 186.32 413.58 181.92 420.29 177.96 C 420.39 182.98 420.39 188.00 420.33 193.02 C 414.67 196.83 408.81 200.32 403.23 204.23 C 401.95 205.00 400.35 206.34 398.88 205.17 C 392.02 201.22 385.33 196.96 378.40 193.11 C 378.28 188.01 378.30 182.91 378.45 177.80 Z"
     id="path2502" />
  <path transform="translate(0,-2)"
     fill="#d6312a"
     d=" M 504.84 189.81 C 510.04 186.19 515.43 182.83 520.59 179.15 C 520.60 184.05 520.97 188.96 520.54 193.85 C 520.40 195.05 518.94 195.47 518.17 196.22 C 512.46 200.04 506.55 203.55 500.96 207.56 C 493.54 203.09 486.00 198.82 478.68 194.20 C 478.64 189.33 478.62 184.47 478.73 179.61 C 486.08 182.79 492.42 187.83 499.56 191.40 C 501.46 192.45 503.25 190.68 504.84 189.81 Z"
     id="path2504" />
  <path transform="translate(0,-1)"
     fill="#d6312a"
     d=" M 280.33 212.88 C 280.29 206.90 280.18 200.93 280.37 194.95 C 287.44 200.43 295.00 205.21 302.09 210.65 C 308.93 205.73 315.13 199.95 322.25 195.41 C 322.38 201.02 322.33 206.63 322.36 212.25 C 315.96 217.29 308.96 221.49 302.04 225.77 C 294.75 221.57 287.60 217.13 280.33 212.88 Z"
     id="path2506" />
  <path transform="translate(0,-1)"
     fill="#d6312a"
     d=" M 378.48 212.99 C 378.22 206.91 378.33 200.82 378.46 194.73 C 383.83 199.40 390.00 203.00 395.63 207.34 C 397.46 208.48 399.78 210.87 402.01 209.20 C 408.27 204.71 414.07 199.58 420.28 195.01 C 420.44 200.82 420.36 206.63 420.44 212.45 C 413.99 217.30 406.98 221.32 400.30 225.83 C 393.01 221.58 385.85 217.11 378.48 212.99 Z"
     id="path2508" />
  <path transform="translate(0,-1.5)"
     fill="#d6312a"
     d=" M 478.72 196.71 C 486.52 201.18 493.18 207.50 501.11 211.65 C 507.96 207.13 513.96 201.46 520.59 196.64 C 520.72 202.50 520.72 208.38 520.67 214.25 C 515.41 217.82 510.06 221.28 504.78 224.82 C 503.04 225.89 500.99 227.66 498.98 226.13 C 492.09 222.18 485.21 218.16 478.59 213.78 C 478.71 208.09 478.65 202.40 478.72 196.71 Z"
     id="path2510" />
  <path
     fill="#d6312a"
     d=" M 280.59 230.56 C 279.86 225.37 280.38 220.10 280.39 214.88 C 287.65 219.02 294.66 223.64 302.03 227.56 C 309.17 224.05 315.22 218.67 322.25 214.94 C 322.34 220.00 322.35 225.06 322.36 230.12 C 316.61 234.92 310.42 239.16 304.59 243.86 C 304.55 283.97 304.53 324.08 304.61 364.20 C 309.09 360.88 313.28 357.20 317.67 353.77 C 312.88 376.33 307.43 398.75 302.06 421.18 C 298.07 404.04 293.27 387.09 289.00 370.01 C 287.70 364.58 285.96 359.24 285.18 353.70 C 289.25 357.34 293.65 360.60 297.60 364.37 C 297.67 353.91 298.33 343.46 297.80 333.02 C 297.88 304.66 297.51 276.30 298.28 247.97 C 298.25 246.05 298.13 243.75 296.45 242.49 C 291.32 238.31 285.44 235.07 280.59 230.56 Z"
     id="path2512" />
  <path
     fill="#d6312a"
     d=" M 378.46 215.01 C 386.07 218.74 392.87 224.07 400.55 227.56 C 407.33 223.66 413.51 218.79 420.29 214.89 C 420.25 219.96 420.71 225.05 420.21 230.10 C 414.85 235.21 408.35 238.98 402.51 243.51 C 402.43 283.76 402.41 324.01 402.52 364.26 C 406.90 360.83 411.03 357.08 415.57 353.85 C 411.06 375.49 405.53 396.91 401.08 418.56 C 400.76 418.59 400.13 418.63 399.81 418.65 C 397.01 406.53 394.22 394.41 391.52 382.26 C 389.47 372.77 386.87 363.38 385.29 353.79 C 388.64 357.38 392.14 360.84 395.60 364.32 C 395.86 325.55 395.58 286.78 395.74 248.00 C 395.49 246.17 396.21 243.67 394.34 242.51 C 389.06 238.51 383.66 234.66 378.40 230.61 C 378.34 225.41 378.34 220.21 378.46 215.01 Z"
     id="path2514" />
  <path
     fill="#d6312a"
     d=" M 478.70 216.76 C 486.60 219.77 493.08 225.57 500.86 228.83 C 507.83 225.46 513.76 220.28 520.57 216.58 C 520.74 221.76 520.74 226.95 520.64 232.13 C 514.81 236.26 509.16 240.66 503.30 244.76 C 503.01 247.15 502.70 249.54 502.73 251.95 C 502.79 281.65 502.74 311.34 502.75 341.03 C 502.99 349.30 502.17 357.62 503.33 365.84 C 507.29 362.02 511.66 358.68 515.93 355.23 C 511.36 377.65 505.89 399.88 500.96 422.22 C 496.46 403.85 492.49 385.35 488.18 366.94 C 487.29 363.10 486.45 359.25 486.11 355.33 C 489.19 359.01 492.59 362.41 496.34 365.42 C 496.42 325.27 496.47 285.12 496.31 244.98 C 490.31 240.65 484.31 236.30 478.61 231.58 C 478.68 226.64 478.64 221.70 478.70 216.76 Z"
     id="path2516" />
  <path
     fill="#d6312a"
     d=" M 600.02 478.21 C 614.44 476.44 629.13 479.12 642.52 484.54 C 651.74 488.74 661.36 492.08 670.11 497.27 C 675.44 500.26 680.36 503.90 685.33 507.45 C 677.62 508.36 669.80 508.34 662.20 510.03 C 647.55 512.79 633.48 519.32 622.60 529.61 C 597.80 553.39 562.62 566.98 528.17 562.90 C 518.61 561.85 509.36 559.08 499.86 557.65 C 487.56 555.75 475.13 554.22 462.66 554.53 C 469.68 559.59 473.82 567.71 475.53 576.03 C 476.72 583.11 471.27 589.04 471.50 596.02 C 471.63 600.99 474.54 605.67 478.67 608.36 C 483.34 611.41 488.82 612.88 494.22 614.01 C 496.60 621.49 498.60 629.13 499.29 636.97 C 499.76 643.12 502.15 648.97 502.46 655.10 C 500.53 662.24 497.07 669.42 490.97 673.89 C 487.62 676.43 483.33 677.00 479.33 677.72 C 478.22 673.84 477.78 669.52 479.84 665.87 C 482.06 661.22 486.07 657.85 489.64 654.26 C 487.53 650.07 485.43 645.88 483.42 641.65 C 480.93 635.87 475.91 631.74 471.14 627.88 C 465.05 625.43 458.35 625.03 451.91 624.04 C 448.12 623.44 445.73 619.90 442.09 619.02 C 439.72 620.88 437.96 623.85 438.32 626.95 C 438.41 630.60 438.99 635.05 435.66 637.56 C 427.59 643.99 418.99 649.74 410.80 656.03 C 404.23 661.48 398.19 668.34 389.69 670.72 C 383.86 671.70 377.83 671.51 372.03 670.40 C 371.64 669.80 370.84 668.59 370.44 667.99 C 370.76 666.20 371.10 664.42 371.44 662.65 C 378.69 661.07 385.94 659.50 393.26 658.29 C 398.48 649.14 403.84 640.06 409.85 631.41 C 407.74 626.39 405.60 621.39 403.75 616.27 C 395.88 615.91 388.47 618.70 381.08 620.96 C 372.21 622.98 363.16 624.97 354.00 624.43 C 348.26 624.39 342.75 622.32 337.00 622.54 C 332.13 622.51 327.32 623.43 322.61 624.57 C 325.35 627.49 328.06 630.44 330.54 633.59 C 328.94 638.57 328.67 643.81 328.61 649.00 C 328.67 654.53 326.01 659.57 323.05 664.06 C 320.34 668.31 316.02 671.08 312.22 674.25 C 310.33 675.88 307.83 676.39 305.47 676.92 C 302.02 669.22 307.53 661.61 311.20 655.14 C 314.56 650.73 314.70 644.08 311.37 639.62 C 308.33 635.82 303.36 634.62 298.91 633.32 C 296.52 637.53 293.44 641.67 288.78 643.53 C 283.28 645.70 277.66 648.03 273.49 652.39 C 268.26 656.90 264.81 663.20 258.99 667.06 C 250.56 673.06 240.10 675.75 229.82 675.54 C 230.21 669.87 234.51 665.83 238.96 662.90 C 245.44 658.21 253.89 656.42 259.20 650.14 C 265.74 642.77 266.70 632.30 266.29 622.88 C 266.44 620.26 263.54 619.41 261.88 618.06 C 252.73 612.37 245.99 603.78 239.85 595.10 C 234.88 588.18 228.82 582.13 223.73 575.29 C 218.93 568.49 211.21 564.72 205.64 558.66 C 197.18 557.12 188.54 557.33 179.98 557.62 C 174.25 557.77 168.34 559.60 162.75 557.53 C 158.59 556.11 153.65 554.89 151.32 550.79 C 149.38 547.74 146.89 544.33 148.56 540.60 C 154.21 538.60 160.28 540.83 165.96 539.08 C 174.23 536.65 180.90 530.81 186.60 524.56 C 189.21 521.34 193.65 521.21 197.38 520.32 C 201.52 510.12 207.15 500.65 212.15 490.89 C 214.79 496.12 214.24 502.07 215.70 507.61 C 216.01 507.53 216.62 507.39 216.92 507.31 C 217.85 505.68 218.80 504.06 219.75 502.44 C 220.14 502.38 220.91 502.25 221.30 502.19 C 223.34 506.35 224.75 510.81 226.98 514.88 C 227.80 516.57 229.77 517.04 231.33 517.82 C 238.82 520.83 246.06 524.62 252.37 529.71 C 259.43 535.53 268.20 538.84 276.99 541.06 C 280.70 542.08 284.42 540.57 288.08 540.02 C 292.41 539.33 296.63 537.96 301.01 537.61 C 309.60 537.12 318.35 538.44 326.23 541.97 C 333.75 545.45 341.87 547.38 349.89 549.35 C 352.87 550.10 355.93 550.59 359.01 550.35 C 369.98 549.61 380.80 547.07 391.07 543.16 C 398.70 540.14 406.81 538.44 414.96 537.69 C 426.40 537.32 438.22 537.32 449.06 541.49 C 457.16 537.01 465.46 532.69 474.42 530.18 C 482.11 528.04 490.27 529.14 497.94 526.91 C 508.16 524.08 519.05 522.11 527.76 515.65 C 537.03 509.42 543.60 500.02 552.94 493.89 C 566.64 484.11 583.31 479.14 600.02 478.21 Z"
     id="path2518" />
  <path
     fill="#cecdd2"
     d=" M 189.70 529.60 C 190.94 529.55 192.18 529.50 193.43 529.47 C 193.36 530.43 193.30 531.41 193.23 532.39 C 192.09 532.35 190.94 532.32 189.80 532.29 C 189.77 531.39 189.73 530.49 189.70 529.60 Z"
     id="path2520" />
</svg>