<?xml version="1.0"?><svg width="492" height="600"><path d="M 248.13781,598.29409 C 228.67822,561.77802 194.47062,551.81176 168.2917,551.81176 L 86.875071,551.81176 C 40.625109,551.81176 1.7059223,512.35491 1.7059223,468.32377 L 1.7059223,1.7059172 L 490.29442,1.7059172 L 490.29442,468.32377 C 490.29442,514.15223 451.81109,551.81176 405.12527,551.81176 C 379.12061,551.81176 353.1164,551.81176 327.11175,551.81176 C 300.40918,552.13847 268.38356,561.69656 248.13826,598.29409 L 248.13781,598.29409 z" style="fill:#fff;stroke:#000;stroke-width:3.4" /><path d="M 298.15625,108.21875 C 301.0381,114.85533 304.49906,121.37286 311.15625,125.84375 C 305.94674,124.0376 300.63759,122.47489 295.21875,121.15625 C 295.2328,121.09893 295.23609,121.0255 295.21875,120.96875 C 282.42427,112.21668 269.99814,112.23925 258.09375,113.15625 C 264.63971,117.21006 274.01652,122.72683 283.71875,123.96875 C 285.07704,124.14029 294.10677,122.69177 295.125,121.3125 C 311.5379,125.95792 327.02886,132.77107 341.1875,141.40625 C 341.58805,141.66245 341.98102,141.94208 342.40625,142.1875 C 349.85441,146.81026 356.93801,151.88752 363.59375,157.46875 C 364.20988,158.04117 364.86159,158.60511 365.5625,159.15625 C 372.21236,164.89547 378.40888,171.11684 384.125,177.71875 C 384.13419,177.72974 384.14703,177.73901 384.15625,177.75 C 410.3607,208.03018 426.1875,246.79067 426.1875,288.8125 C 426.1875,293.83047 425.93723,298.85135 425.46875,303.84375 C 425.12575,292.36125 418.79972,286.04578 412.0625,280.53125 C 412.13507,286.93867 412.50807,295.90205 416.6875,302.09375 C 417.28341,302.97148 423.56928,307.03727 425.1875,306.5 C 424.45201,313.17359 423.30021,319.7921 421.78125,326.34375 C 421.99037,316.74657 417.26867,310.20498 412.0625,304.25 C 411.05729,310.6695 409.92458,319.70075 413.0625,326.59375 C 413.47333,327.48999 418.1761,331.88179 420.28125,332.40625 C 418.7319,338.16087 416.89002,343.85272 414.78125,349.4375 C 415.74285,340.83118 412.29961,334.03421 408.375,327.6875 C 406.29559,333.96424 403.65614,342.87037 405.65625,350.3125 C 405.90629,351.23177 409.55646,355.93629 411.65625,357.15625 C 409.38997,362.43545 406.88824,367.6045 404.15625,372.65625 C 406.25621,364.41278 403.92656,357.20622 401.09375,350.34375 C 397.963,356.32287 393.83885,364.83148 394.625,372.65625 C 394.72596,373.63501 397.6812,379.09067 399.59375,380.59375 C 396.3451,385.97494 392.86707,391.19914 389.125,396.21875 C 393.4142,387.70366 392.22409,379.56302 390.375,371.71875 C 386.23724,377.25033 380.66906,385.15328 380.1875,393.1875 C 380.1249,394.27841 382.57687,401.26508 384.3125,402.40625 C 367.77459,422.79354 347.23617,439.4667 324.40625,450.1875 C 323.02326,450.67299 321.6062,451.27367 320.15625,451.96875 C 320.12614,452.02482 320.10532,452.09237 320.09375,452.15625 C 305.46655,458.46179 289.95864,462.29856 274,463.125 C 283.84934,459.29637 289.18299,451.76328 293.75,443.9375 C 285.88929,445.28459 274.94545,447.50123 268.15625,453.84375 C 267.34918,454.60186 264.58001,460.69109 264.28125,463.75 C 259.94206,464.28886 253.63305,465.44959 246.3125,467.875 C 238.61978,465.32887 232.05772,464.18922 227.71875,463.6875 C 227.35158,460.58577 224.6386,454.65288 223.84375,453.90625 C 217.05455,447.56327 206.079,445.3471 198.21875,444 C 202.72976,451.72985 208.00594,459.19061 217.625,463.0625 C 183.77314,461.03094 152.00002,445.41979 126.40625,421.71875 C 128.09699,421.02704 129.65914,412.6929 129.40625,411.53125 C 127.62652,403.46837 120.70659,396.34618 115.625,391.40625 C 114.97706,400.13544 115.16828,409.06613 121.9375,417.40625 C 117.07668,412.58662 112.43236,407.4952 108.09375,402.125 C 109.78374,400.31533 111.87,394.28971 111.8125,393.28125 C 111.33094,385.24658 105.76275,377.31239 101.625,371.78125 C 99.953865,378.8709 98.85001,386.21209 101.8125,393.84375 C 98.642547,389.45355 95.642205,384.93745 92.84375,380.28125 C 94.737416,378.38285 97.281643,373.65537 97.375,372.75 C 98.161612,364.92477 94.005754,356.41618 90.875,350.4375 C 88.286767,356.70824 86.157021,363.25068 87.40625,370.625 C 85.044674,366.13019 82.870637,361.54476 80.875,356.875 C 83.004815,355.2762 86.113949,351.21985 86.34375,350.375 C 88.343868,342.93287 85.704405,334.05754 83.625,327.78125 C 80.065606,333.53733 76.905253,339.64734 77.0625,347.15625 C 75.284962,342.25586 73.692428,337.27705 72.34375,332.25 C 74.64102,331.18661 78.564108,327.5013 78.9375,326.6875 C 82.075422,319.79449 80.941814,310.76326 79.9375,304.34375 C 75.242546,309.7136 70.934114,315.55394 70.28125,323.6875 C 69.065916,318.04685 68.135636,312.35186 67.5,306.625 C 69.729192,306.30658 74.7797,302.97172 75.3125,302.1875 C 79.491919,295.99579 79.864931,287.00027 79.9375,280.59375 C 73.976051,285.47331 68.36191,290.99845 66.90625,300.15625 C 66.638141,296.38403 66.5,292.59707 66.5,288.8125 C 66.5,285.97263 66.576115,283.15235 66.71875,280.34375 C 68.510382,280.85627 74.830076,278.13751 75.53125,277.40625 C 80.635692,272.05458 82.492571,263.33423 83.625,257.09375 C 76.392489,261.21575 69.451772,266.15629 66.96875,276.53125 C 67.532827,268.88805 68.613375,261.38403 70.1875,254.03125 C 71.078361,255.32375 78.753045,253.48916 79.625,252.84375 C 85.52053,248.45249 88.784182,240.23747 90.9375,234.3125 C 82.508117,237.38185 74.232702,241.4338 70.375,253.15625 C 84.150584,190.47022 133.4039,139.67783 196.9375,121.46875 C 198.17443,122.82869 206.94338,124.23146 208.28125,124.0625 C 217.9835,122.82058 227.36029,117.30381 233.90625,113.25 C 222.00231,112.33299 209.57617,112.31042 196.78125,121.0625 C 196.75587,121.14555 196.77179,121.22835 196.8125,121.3125 C 191.20527,122.69892 185.72459,124.37301 180.34375,126.28125 C 187.34186,121.80486 190.88829,115.11862 193.84375,108.3125 C 187.02409,110.33359 177.53115,113.44812 172.1875,119.78125 C 171.41812,120.69793 168.92199,128.88242 170.125,130.25 C 165.44747,132.246 160.86423,134.43591 156.40625,136.8125 C 161.13151,131.6496 163.20331,125.37155 164.78125,119.0625 C 158.496,122.11785 149.78516,126.65852 145.625,133.65625 C 145.09295,134.55633 144.16607,141.22926 144.9375,143.5 C 140.94621,146.03051 137.07521,148.73127 133.3125,151.5625 C 136.65359,145.97954 137.55099,139.85089 138.03125,133.75 C 132.41883,137.74652 124.71391,143.57875 121.8125,151.0625 C 121.465,151.96554 121.58467,157.8699 122.53125,160.3125 C 119.05892,163.37957 115.716,166.58119 112.5,169.90625 C 114.75029,163.97414 114.62836,157.89818 114.09375,151.9375 C 109.27824,156.76466 102.74918,163.74898 101.15625,171.53125 C 100.97169,172.44491 102.00047,177.90464 103.28125,180.25 C 100.30658,183.85368 97.490628,187.5743 94.8125,191.40625 C 96.114519,185.12037 94.949569,179.11606 93.40625,173.28125 C 89.496503,178.81328 84.258916,186.70498 84,194.59375 C 83.972579,195.50873 85.866295,200.5875 87.5,202.71875 C 85.082654,206.82128 82.856334,211.04139 80.78125,215.34375 C 81.14687,208.72576 78.945376,202.81881 76.375,197.1875 C 73.461952,203.28611 69.61286,211.97929 70.6875,219.78125 C 70.816229,220.69712 73.622984,225.44736 75.59375,227.21875 C 73.779571,231.84881 72.158455,236.56886 70.75,241.375 C 70.211996,234.3272 66.883152,228.60063 63.21875,223.21875 C 61.373626,229.73402 59.087421,238.94428 61.46875,246.46875 C 61.760599,247.38186 65.557354,251.90128 67.78125,253.15625 C 66.657637,258.35278 65.75669,263.6192 65.125,268.96875 C 63.665601,261.32214 59.14085,255.82518 54.28125,250.78125 C 53.554668,257.5552 52.801007,267.06506 56.4375,274.125 C 56.906004,275.02859 61.933664,279.22863 64.21875,279.78125 C 64.058854,282.77816 63.9375,285.7798 63.9375,288.8125 C 63.9375,291.75023 64.031499,294.69674 64.1875,297.625 C 61.752975,289.03569 55.836114,283.83682 49.625,279.25 C 50.046525,286.11928 50.934488,295.73808 55.75,302.15625 C 56.412022,303.03408 62.88026,306.79387 64.875,306.46875 C 65.624764,313.52632 66.838114,320.5283 68.4375,327.4375 C 64.977122,316.91162 57.312263,312.07552 49.40625,308.0625 C 50.98305,314.86151 53.479919,324.32715 59.375,329.9375 C 60.262626,330.77772 68.747284,333.92415 69.65625,332.4375 C 75.962193,356.53212 87.218691,379.33974 102.1875,399.0625 C 93.737353,391.03405 84.17877,390.31301 74.8125,390.46875 C 79.676838,396.07283 86.732785,403.71962 95.0625,406.0625 C 96.232189,406.38769 104.61246,405.30526 105.8125,403.65625 C 109.6889,408.45158 113.79019,413.03929 118.09375,417.40625 C 109.07513,412.31423 100.14184,413.10332 91.46875,414.625 C 97.297983,419.52242 105.68381,426.15011 114.5,427.1875 C 115.61399,427.31543 122.44792,425.34573 124.5,423.59375 C 128.48885,427.26541 132.6258,430.75904 136.90625,434.03125 C 127.88369,431.4361 119.66093,433.50534 111.78125,436.1875 C 118.47638,440.23908 128.00868,445.65218 137.125,445.3125 C 138.17714,445.26991 143.8403,442.70405 146.1875,440.65625 C 150.43224,443.47265 154.81553,446.07127 159.28125,448.46875 C 150.26868,447.68639 142.6266,450.94545 135.375,454.71875 C 142.81866,457.80095 153.37036,461.82625 162.59375,460.0625 C 163.62854,459.8617 168.72376,456.55904 170.90625,454.125 C 175.77719,456.24268 180.74655,458.06988 185.8125,459.65625 C 176.2254,460.07961 168.76764,464.69162 161.8125,469.75 C 169.8712,471.75274 181.24434,474.23967 190.375,471.03125 C 191.48602,470.63704 196.91082,465.76583 198.34375,463 C 205.72334,464.5963 213.24628,465.59717 220.90625,465.96875 C 220.90625,465.96875 229.86841,466.68437 240.78125,469.90625 C 230.39409,474.05517 218.67493,480.79129 208,491.78125 L 218.65625,491.03125 C 225.17937,481.40524 236.07902,475.41956 246.3125,471.71875 C 256.55384,475.41877 267.47111,481.39674 274,491.03125 L 284.65625,491.78125 C 273.98132,480.79129 262.26216,474.05517 251.875,469.90625 C 256.94011,468.41084 261.57789,467.46395 265.09375,466.875 C 263.75533,468.53688 270.70881,477.11204 272.03125,477.8125 C 280.86536,482.45975 292.84908,481.64403 301.375,480.8125 C 292.83305,472.44184 283.2273,464.80489 267.125,466.5625 C 269.96466,466.14327 271.75,465.96875 271.75,465.96875 C 279.21418,465.60667 286.5511,464.65133 293.75,463.125 C 295.31595,465.91621 300.53778,470.55173 301.625,470.9375 C 310.75522,474.1459 322.12879,471.69024 330.1875,469.6875 C 323.41569,464.76247 316.16389,460.28026 306.9375,459.65625 C 311.82236,458.12328 316.63997,456.34011 321.34375,454.3125 C 323.64307,456.71374 328.40989,459.77534 329.40625,459.96875 C 338.63009,461.7325 349.18134,457.73845 356.625,454.65625 C 349.62674,451.01477 342.26318,447.82728 333.65625,448.3125 C 337.91737,446.01381 342.0967,443.52464 346.15625,440.84375 C 348.6676,442.83793 353.83957,445.17809 354.84375,445.21875 C 363.96052,445.55842 373.52317,440.17702 380.21875,436.125 C 372.69239,433.5632 364.8623,431.54077 356.3125,433.625 C 360.31106,430.54296 364.16385,427.24468 367.90625,423.8125 C 370.34454,425.47417 376.45354,427.21397 377.5,427.09375 C 386.31575,426.05637 394.70202,419.42867 400.53125,414.53125 C 392.3712,413.09957 383.9463,412.31655 375.46875,416.46875 C 379.35407,412.47036 383.06215,408.28863 386.59375,403.9375 C 388.64158,405.37381 395.85768,406.26906 396.9375,405.96875 C 405.26722,403.62589 412.32317,395.97909 417.1875,390.375 C 408.55129,390.23142 399.75657,390.8614 391.8125,397.25 C 395.49165,392.28205 398.93049,387.12947 402.125,381.8125 C 403.74699,383.13406 411.72296,382.86174 412.78125,382.375 C 420.45203,378.82066 426.05529,370.34967 429.875,364.1875 C 421.1206,365.44881 412.34184,367.5624 405.53125,375.875 C 408.75447,370.05265 411.67896,364.07138 414.28125,357.9375 C 415.92831,359.03746 423.7922,357.45869 424.75,356.8125 C 431.60325,352.16256 435.6894,343.09352 438.40625,336.53125 C 430.30343,339.08474 422.27546,342.40621 417,351.125 C 419.28597,345.09462 421.29495,338.95431 422.9375,332.71875 C 425.12525,333.15478 431.84147,330.61668 432.625,329.875 C 438.52008,324.2651 441.01695,314.79947 442.59375,308 C 435.67724,311.51077 428.92784,315.65786 425.03125,323.6875 C 426.22695,317.96567 427.16644,312.19245 427.78125,306.375 C 430.26865,306.03155 435.64961,302.85824 436.25,302.0625 C 441.06553,295.64389 441.95348,286.05678 442.375,279.1875 C 436.75006,283.34088 431.33927,287.96883 428.5625,295.1875 C 428.64437,293.06775 428.71875,290.93679 428.71875,288.8125 C 428.71875,285.68478 428.60751,282.58958 428.4375,279.5 C 430.90984,278.45675 435.13513,274.88642 435.5625,274.0625 C 439.19901,267.00212 438.44533,257.46145 437.71875,250.6875 C 433.25543,255.32011 429.0986,260.35138 427.3125,267.0625 C 426.6825,262.20374 425.8494,257.41772 424.8125,252.6875 C 427.0601,251.07901 430.26429,247.24219 430.53125,246.40625 C 432.91257,238.88223 430.59467,229.67153 428.75,223.15625 C 425.3639,228.12938 422.28254,233.38685 421.40625,239.71875 C 420.06304,235.30374 418.56201,230.95137 416.875,226.6875 C 418.79283,224.66547 421.19317,220.53419 421.3125,219.6875 C 422.38715,211.88554 418.53805,203.22362 415.625,197.125 C 413.23105,202.36981 411.16787,207.83396 411.1875,213.90625 C 409.21041,209.90222 407.08771,205.98419 404.8125,202.15625 C 406.36247,199.83134 408.02561,195.3861 408,194.53125 C 407.74152,186.64292 402.50305,178.71954 398.59375,173.1875 C 397.15406,178.63023 396.02449,184.23205 396.9375,190.0625 C 394.40177,186.5056 391.73091,183.04377 388.9375,179.6875 C 390.10564,177.14702 391.01659,172.29311 390.84375,171.4375 C 389.25128,163.65523 382.72176,156.70216 377.90625,151.875 C 377.40084,157.51009 377.23996,163.25284 379.125,168.875 C 376.0577,165.75577 372.88907,162.73109 369.59375,159.84375 C 370.41626,157.21178 370.51757,151.82648 370.1875,150.96875 C 367.28608,143.48544 359.58162,137.65323 353.96875,133.65625 C 354.42806,139.48775 355.29095,145.36689 358.28125,150.75 C 354.6739,148.07808 350.97008,145.52261 347.15625,143.125 C 347.76479,140.61682 346.85366,134.457 346.34375,133.59375 C 342.18359,126.59603 333.504,122.02411 327.21875,118.96875 C 328.74319,125.06393 330.70218,131.15834 335.09375,136.21875 C 330.81251,133.9768 326.44946,131.89274 321.96875,130 C 322.9062,128.26458 320.55703,120.57457 319.8125,119.6875 C 314.46929,113.35437 304.97591,110.23984 298.15625,108.21875 z M 312.59375,130.375 C 304.35641,130.58252 298.18622,134.59218 292.46875,139 C 298.93766,140.41736 308.04287,142.13542 315.25,139.375 C 316.34077,138.95341 322.60174,132.87514 321.5625,131.5625 C 318.29781,130.65869 315.33953,130.30583 312.59375,130.375 z M 179.40625,130.46875 C 176.66049,130.39958 173.70208,130.75244 170.4375,131.65625 C 169.39825,132.96888 175.62753,139.04717 176.71875,139.46875 C 183.92544,142.22918 193.06234,140.51066 199.53125,139.09375 C 193.81378,134.68594 187.64352,130.67627 179.40625,130.46875 z M 333.75,142.53125 C 327.43045,142.63073 321.96026,145.11109 316.75,147.90625 C 322.79335,150.31983 331.35012,153.45466 338.78125,151.9375 C 339.90651,151.70388 346.95271,146.81429 346.15625,145.375 C 341.6276,143.27364 337.54173,142.47156 333.75,142.53125 z M 158.25,142.625 C 154.45819,142.56525 150.3724,143.3363 145.84375,145.4375 C 145.04774,146.87722 152.09304,151.76683 153.21875,152 C 160.64942,153.51761 169.20665,150.41268 175.25,148 C 170.03973,145.20484 164.56968,142.72459 158.25,142.625 z M 352.8125,157.34375 C 348.01513,157.31432 343.48112,158.56839 339.0625,160.0625 C 344.54412,163.39533 352.36964,167.85691 359.84375,167.59375 C 360.97618,167.55034 368.6014,163.93594 368.0625,162.40625 C 362.64852,158.69682 357.60987,157.37318 352.8125,157.34375 z M 139.1875,157.40625 C 134.39008,157.43568 129.35126,158.79057 123.9375,162.5 C 123.39861,164.02925 131.02383,167.61284 132.15625,167.65625 C 139.62993,167.9194 147.45588,163.48863 152.9375,160.15625 C 148.51887,158.66214 143.98492,157.37682 139.1875,157.40625 z M 243.09375,159.34375 C 240.69914,159.27668 238.35804,159.94511 236.0625,161.34375 C 233.88776,160.51189 231.71445,160.14531 229.59375,160.3125 C 227.17777,160.49798 224.90836,161.4586 222.75,163.125 C 220.51692,162.53583 218.35817,162.39622 216.28125,162.78125 C 209.29988,164.06077 204.07828,171.53434 200.625,185.21875 C 198.89813,192.06117 197.79002,199.77161 197.34375,208.21875 C 187.82739,204.33118 179.16348,201.61321 171.5,200.125 C 157.89517,197.48317 148.7431,200.63586 145,209.75 C 144.92947,210.22738 144.87975,210.71675 144.84375,211.21875 C 141.17063,213.30363 138.63913,216.46506 137.375,220.78125 C 137.35686,221.21403 137.36338,221.67537 137.375,222.125 C 133.92279,224.58337 131.71406,228.03147 130.90625,232.46875 C 130.93411,232.91109 130.97056,233.35588 131.03125,233.8125 C 127.8485,236.6192 126.02709,240.24757 125.6875,244.75 C 125.76309,245.19642 125.85753,245.66733 125.96875,246.125 C 123.07391,249.25535 121.64767,253.0939 121.78125,257.625 C 123.69043,264.4549 130.08926,272.20982 140.1875,280.125 C 144.14557,283.20438 148.48601,286.24501 153.15625,289.21875 C 135.65269,300.78302 125.56707,311.94701 123.03125,322.59375 C 122.80752,327.05238 124.37375,330.90992 127.5625,334.0625 C 127.4866,334.48306 127.42908,334.89575 127.375,335.3125 C 127.61792,339.74765 129.53209,343.39056 133,346.1875 C 132.97084,346.59439 132.91597,347.0049 132.90625,347.40625 C 133.60875,351.77364 135.9107,355.17596 139.625,357.59375 C 139.63825,358.02266 139.68478,358.45442 139.71875,358.875 C 140.8736,363.14277 143.49413,366.29564 147.4375,368.3125 C 147.49722,368.7572 147.57498,369.1917 147.65625,369.625 C 150.94245,378.1202 159.94699,381.32073 173.28125,378.90625 C 181.42885,376.64209 190.71309,372.52945 201.03125,366.625 C 201.69579,376.66581 203.0709,385.28156 205.03125,392.3125 C 208.70583,405.49164 214.10594,413.08474 220.75,414.375 C 223.11127,414.83351 225.52529,414.68813 227.9375,413.9375 C 229.93823,415.38407 232.02473,416.21992 234.15625,416.40625 C 236.58013,416.61802 238.96629,416.18023 241.3125,415.15625 C 243.40844,416.33389 245.49991,416.94281 247.59375,416.90625 C 250.02968,416.86377 252.36494,416.20402 254.59375,414.9375 C 256.80156,415.8899 258.95254,416.25494 261.03125,416 C 263.40957,415.70826 265.63217,414.82365 267.6875,413.375 C 270.00797,414.11055 272.22038,414.25648 274.28125,413.78125 C 282.1321,411.97051 287.50694,403.79231 290.1875,389.625 C 291.55343,382.40452 292.33687,374.11425 292.46875,364.90625 C 302.83645,370.32301 312.21567,374.04609 320.5,376.03125 C 335.23861,377.90913 343.87182,374.00723 345.59375,365.15625 C 345.59981,365.12508 345.61908,365.09376 345.625,365.0625 C 350.16369,362.80111 352.70442,359.20851 353.125,354.40625 C 353.13222,354.32379 353.1501,354.23924 353.15625,354.15625 C 357.39106,351.43593 359.52115,347.60853 359.4375,342.8125 C 359.43624,342.74053 359.4396,342.66604 359.4375,342.59375 C 363.36977,339.44526 365.08544,335.38901 364.5,330.625 C 364.49351,330.57218 364.47572,330.52169 364.46875,330.46875 C 368.03915,326.92988 369.36032,322.76408 368.28125,318.09375 C 366.11228,308.70663 355.88872,298.14703 337.8125,286.75 C 343.19735,282.99044 348.29271,278.85918 353.0625,274.40625 C 365.01392,263.60533 370.02382,254.74965 368.40625,247.875 C 367.86272,245.28426 366.39547,243.00992 364.0625,241.03125 C 364.31018,238.97004 364.15947,237.08495 363.5625,235.375 C 362.74375,232.83265 361.03414,230.70103 358.46875,228.96875 C 358.50346,226.88112 358.11989,225.02097 357.34375,223.375 C 356.2626,220.93017 354.36124,218.95523 351.625,217.5 C 351.43822,215.43312 350.87701,213.61061 349.9375,212.0625 C 348.60586,209.74264 346.50061,208.00527 343.625,206.84375 C 343.22025,204.83262 342.46085,203.11543 341.375,201.6875 C 337.48541,196.30584 329.21779,194.91558 316.65625,197.8125 C 308.81753,199.62044 299.95315,203.37091 290.03125,209.0625 C 289.55211,199.33472 288.35911,190.98937 286.59375,184.09375 C 282.91917,170.91461 277.1844,163.2293 269.96875,161.5 C 267.62137,160.93251 265.15253,161.12084 262.59375,162.03125 C 260.67693,160.81232 258.69021,160.05248 256.625,159.78125 C 254.25375,159.46495 251.83216,159.88355 249.40625,161.03125 C 247.32878,159.97514 245.22212,159.39897 243.09375,159.34375 z M 243.1875,164.46875 C 243.55772,164.46229 243.91577,164.50487 244.28125,164.53125 C 243.86065,164.90211 243.45345,165.27399 243.03125,165.6875 C 242.61323,165.3295 242.19901,164.97869 241.78125,164.65625 C 242.24941,164.56524 242.72138,164.47688 243.1875,164.46875 z M 255.0625,164.875 C 255.43029,164.8568 255.79503,164.87467 256.15625,164.90625 C 256.46124,164.93291 256.76308,164.9826 257.0625,165.03125 C 256.64985,165.32759 256.23006,165.63806 255.8125,165.96875 C 255.45932,165.59798 255.10619,165.24621 254.75,164.90625 C 254.85495,164.89708 254.95805,164.88017 255.0625,164.875 z M 231.3125,165.34375 C 230.92243,165.76852 230.54328,166.21774 230.15625,166.6875 C 229.69416,166.36989 229.23919,166.0621 228.78125,165.78125 C 229.26111,165.62987 229.76274,165.49726 230.25,165.4375 C 230.60723,165.39367 230.95647,165.35625 231.3125,165.34375 z M 267.5625,166.4375 C 268.03938,166.44571 268.51113,166.47364 268.96875,166.5625 C 279.47429,168.60257 285.19882,183.71645 286.03125,211.4375 C 284.93393,212.10524 283.80894,212.78729 282.6875,213.5 C 281.21452,200.07872 278.67988,189.06625 275.5,180.5 C 273.1483,174.55535 270.4928,169.85927 267.5625,166.4375 z M 250.1875,166.5 C 251.10465,167.06636 252.02457,167.72562 252.90625,168.53125 C 251.72378,169.66196 250.5011,170.92074 249.28125,172.3125 C 248.41024,171.19506 247.53042,170.15059 246.65625,169.1875 C 247.83633,168.07632 249.02922,167.18335 250.1875,166.5 z M 237.375,166.6875 C 238.37827,167.16807 239.38267,167.79294 240.375,168.53125 C 239.311,169.78668 238.23022,171.19664 237.15625,172.71875 C 236.15195,171.67339 235.14699,170.69743 234.15625,169.8125 C 235.22924,168.55759 236.27804,167.50154 237.375,166.6875 z M 262.78125,167.5625 C 270.7685,173.59791 276.12211,189.82789 278.78125,216.0625 C 277.91725,216.63725 277.03388,217.21233 276.15625,217.8125 C 273.11809,200.99373 268.88912,187.70496 264.0625,177.96875 C 262.44887,174.88034 260.77765,172.17319 259.0625,169.84375 C 260.3295,168.87827 261.57814,168.11983 262.78125,167.5625 z M 218.46875,167.625 C 216.0135,170.95647 213.7468,175.39318 211.6875,181 C 208.50277,189.67103 206.22221,199.9126 204.96875,211.5 C 204.28553,211.19192 203.61295,210.89106 202.9375,210.59375 C 203.20639,203.06944 203.91236,196.112 205,189.84375 C 207.26979,176.76262 211.78476,169.11618 217.4375,167.8125 C 217.77794,167.73398 218.12636,167.67404 218.46875,167.625 z M 224.65625,168.3125 C 225.70861,168.68393 226.77516,169.15012 227.84375,169.78125 C 226.24116,172.1366 224.67379,174.87953 223.125,178.03125 C 218.22712,187.99785 214.35524,200.35492 211.84375,214.75 C 211.36108,214.5161 210.88545,214.29148 210.40625,214.0625 C 211.47314,203.60364 213.25105,194.20528 215.5625,186.0625 C 217.97349,177.56936 221.12443,171.58822 224.65625,168.3125 z M 244.125,171.9375 C 245.04253,172.93541 245.93655,174.05754 246.84375,175.28125 C 246.7407,175.41086 246.63456,175.52485 246.53125,175.65625 C 245.41867,177.07137 244.30233,178.54637 243.21875,180.09375 C 242.35985,178.89996 241.51046,177.73512 240.65625,176.65625 C 241.80439,174.88045 242.96946,173.31763 244.125,171.9375 z M 256.21875,172.3125 C 262.76122,181.05637 268.19865,197.1281 272.46875,220.375 C 271.81384,220.83919 271.16218,221.33474 270.5,221.8125 C 265.35012,202.09564 259.00346,187.06372 252.40625,176.65625 C 252.39324,176.63666 252.38801,176.61331 252.375,176.59375 C 253.68006,174.97938 254.94658,173.54569 256.21875,172.3125 z M 231.875,172.78125 C 232.92407,173.70182 233.96796,174.7454 235.03125,175.90625 C 234.94906,176.03545 234.8635,176.15051 234.78125,176.28125 C 228.01525,187.03656 222.29541,201.05066 218.09375,217.84375 C 217.7749,217.68043 217.44248,217.53633 217.125,217.375 C 219.42886,204.37095 222.62823,192.96775 226.4375,183.46875 C 228.14644,179.20741 229.96351,175.63333 231.875,172.78125 z M 367.625,174.34375 C 364.72059,174.3505 361.81816,174.73241 358.96875,175.1875 C 363.76589,179.34559 370.66294,184.96007 378,185.9375 C 379.11182,186.0825 387.17904,183.83159 386.90625,182.25 C 380.48664,176.0428 374.0147,174.32889 367.625,174.34375 z M 124.375,174.4375 C 117.98527,174.4226 111.51367,176.13686 105.09375,182.34375 C 104.82139,183.9258 112.88772,186.17626 114,186.03125 C 121.33704,185.05382 128.23366,179.40764 133.03125,175.25 C 130.18184,174.79477 127.27942,174.44427 124.375,174.4375 z M 249.90625,179.84375 C 255.86854,189.69085 261.59183,204.5772 267.03125,224.34375 C 266.52205,224.72196 266.01335,225.08282 265.5,225.46875 C 259.55581,208.54727 253.04649,195.08623 246.53125,184.9375 C 247.23198,183.82223 247.91749,182.7108 248.625,181.65625 C 249.04482,181.03047 249.4877,180.43164 249.90625,179.84375 z M 238.5625,180.15625 C 239.35874,181.20741 240.16516,182.31835 240.96875,183.5 C 234.45602,193.56167 228.54062,206.0466 223.625,220.75 C 223.46701,220.6655 223.31393,220.58404 223.15625,220.5 C 227.09223,205.37929 232.04606,192.41105 237.53125,182.03125 C 237.87429,181.38218 238.2169,180.76942 238.5625,180.15625 z M 244.25,188.6875 C 249.67457,197.75074 255.25185,209.70523 260.96875,224.53125 C 255.96553,227.58659 250.56596,231.25831 245,235.4375 C 238.47086,230.78455 232.78856,226.92305 228.1875,224.25 C 232.96891,210.47845 238.46017,198.56612 244.25,188.6875 z M 376.125,192.875 C 380.12882,197.7487 385.94572,204.41155 392.96875,206.59375 C 394.03399,206.9218 402.3152,206.03252 402.3125,204.4375 C 394.67622,194.03534 385.30001,192.97033 376.125,192.875 z M 115.84375,192.9375 C 106.66874,193.03281 97.324229,194.12865 89.6875,204.53125 C 89.685257,206.12583 97.934316,206.98429 99,206.65625 C 106.02303,204.47404 111.83993,197.81075 115.84375,192.9375 z M 327.5625,201.53125 C 331.95857,201.57261 335.22434,202.73637 337.1875,204.96875 C 337.22138,205.11568 337.28439,205.23819 337.34375,205.375 C 334.04631,205.01389 330.21522,205.08113 325.78125,205.625 C 315.8657,206.84099 304.01781,210.88211 290.28125,217.71875 C 290.27642,216.60079 290.24114,215.49283 290.21875,214.40625 C 301.65002,208.30637 311.05447,204.39034 318.4375,202.6875 C 321.8526,201.89989 324.92486,201.50643 327.5625,201.53125 z M 163.8125,204.625 C 165.94948,204.55816 168.28133,204.75849 170.8125,205.25 C 177.77326,206.60157 186.09082,209.50764 195.46875,213.625 C 196.02567,213.89003 196.57134,214.16849 197.125,214.4375 C 197.11669,215.04584 197.12675,215.66597 197.125,216.28125 C 184.08525,211.98048 172.50373,209.32405 162.71875,208.46875 C 159.20131,208.16136 156.03512,208.21321 153.1875,208.59375 C 155.77403,206.11162 159.33589,204.76501 163.8125,204.625 z M 331.9375,210.28125 C 334.70535,210.22691 337.11765,210.49983 339.15625,211.03125 C 339.28561,212.08773 339.29454,213.25662 339.1875,214.53125 C 337.55844,214.42989 335.83599,214.4055 334,214.4375 C 322.36405,214.6406 307.74749,218.34679 290.15625,225.59375 C 290.18771,224.57748 290.23212,223.55599 290.25,222.5625 C 305.75163,215.78091 318.00055,211.76405 327.03125,210.65625 C 328.77063,210.44294 330.40818,210.31127 331.9375,210.28125 z M 390.25,212.6875 C 393.36687,218.15419 397.96031,225.70335 404.5,229.03125 C 405.49222,229.53204 413.79642,230.06862 414.0625,228.5 C 408.30449,216.98392 399.25746,214.3246 390.25,212.6875 z M 101.75,212.78125 C 92.742979,214.41834 83.695508,217.07857 77.9375,228.59375 C 78.204036,230.16282 86.507333,229.59499 87.5,229.09375 C 94.039242,225.76585 98.633137,218.24749 101.75,212.78125 z M 343.84375,213.25 C 344.45409,213.74221 344.97251,214.29425 345.40625,214.90625 C 345.42585,215.06602 345.48224,215.22391 345.53125,215.375 C 344.91669,215.24199 344.28353,215.13661 343.625,215.03125 C 343.71459,214.42626 343.78939,213.82532 343.84375,213.25 z M 158.90625,213.46875 C 160.07935,213.45135 161.30941,213.51272 162.59375,213.625 C 169.65754,214.24215 178.21186,216.29093 187.96875,219.40625 C 191.10478,220.51391 194.21286,221.6837 197.25,222.90625 C 197.25635,223.09354 197.24307,223.28089 197.25,223.46875 C 180.72297,219.39461 166.40371,217.36039 154.8125,217.5625 C 153.24872,217.58977 151.76446,217.69593 150.34375,217.84375 C 150.24117,216.94497 150.18989,216.06441 150.1875,215.21875 C 152.60393,214.12319 155.51705,213.51903 158.90625,213.46875 z M 286.09375,216.65625 C 286.10227,217.71459 286.12928,218.75234 286.125,219.84375 C 285.21393,220.32107 284.30198,220.78053 283.375,221.28125 C 283.30186,220.29989 283.23982,219.30252 283.15625,218.34375 C 284.15432,217.77642 285.12273,217.19501 286.09375,216.65625 z M 202.8125,217.3125 C 203.33399,217.58404 203.85756,217.85052 204.375,218.125 C 204.36019,218.33338 204.32667,218.54083 204.3125,218.75 C 203.80869,218.56818 203.31235,218.39605 202.8125,218.21875 C 202.81155,217.9176 202.81213,217.61203 202.8125,217.3125 z M 334.71875,219.5625 C 335.95674,219.54092 337.15649,219.56623 338.28125,219.625 C 337.94779,220.94552 337.53084,222.37749 337.03125,223.84375 C 324.63733,223.57805 308.88768,226.51751 289.8125,232.65625 C 289.86769,231.72326 289.95567,230.79069 290,229.875 C 309.44558,223.29 324.36988,219.74291 334.71875,219.5625 z M 342.5625,220.09375 C 344.11468,220.36156 345.51184,220.75296 346.75,221.21875 C 346.76071,222.28684 346.65245,223.45927 346.40625,224.71875 C 344.82197,224.45183 343.14106,224.22182 341.34375,224.0625 C 341.80856,222.68398 342.22218,221.36845 342.5625,220.09375 z M 279.1875,220.625 C 279.26804,221.56084 279.36332,222.47832 279.4375,223.4375 C 278.72823,223.83603 278.03066,224.2759 277.3125,224.6875 C 277.1738,223.7756 277.02054,222.86194 276.875,221.96875 C 277.64357,221.51249 278.43336,221.06614 279.1875,220.625 z M 155.21875,222.6875 C 162.30808,222.56353 171.03324,223.70198 181.0625,225.78125 C 185.52951,226.8503 189.9323,228.07594 194.21875,229.375 C 178.17379,226.97236 164.22023,226.13427 152.75,226.96875 C 152.2203,225.60234 151.77154,224.25021 151.40625,222.96875 C 152.61844,222.817 153.87066,222.71096 155.21875,222.6875 z M 351.15625,223.90625 C 351.7118,224.45953 352.19514,225.03352 352.5625,225.6875 C 352.5653,225.8485 352.59205,226.03207 352.625,226.1875 C 352.02389,225.98981 351.39833,225.83073 350.75,225.65625 C 350.90521,225.05858 351.03973,224.47772 351.15625,223.90625 z M 146.71875,223.96875 C 147.07087,225.09368 147.49241,226.25812 147.9375,227.4375 C 147.92738,227.43874 147.91637,227.43626 147.90625,227.4375 C 146.36793,227.62619 144.91746,227.86449 143.53125,228.15625 C 143.33704,227.26186 143.21081,226.38196 143.125,225.53125 C 144.19894,224.90923 145.40677,224.38975 146.71875,223.96875 z M 273.15625,224.21875 C 273.30613,225.08746 273.44694,225.95626 273.59375,226.84375 C 273.0606,227.15922 272.53784,227.45887 272,227.78125 C 271.80118,226.9436 271.57803,226.13461 271.375,225.3125 C 271.9664,224.95033 272.5727,224.57274 273.15625,224.21875 z M 286.0625,224.4375 C 286.04382,225.41471 286.02816,226.37339 286,227.375 C 285.2783,227.68658 284.54372,227.98966 283.8125,228.3125 C 283.76873,227.36835 283.74047,226.42535 283.6875,225.5 C 284.47562,225.13756 285.28939,224.78719 286.0625,224.4375 z M 279.71875,227.375 C 279.77849,228.27587 279.85177,229.1736 279.90625,230.09375 C 279.3353,230.3553 278.76399,230.60689 278.1875,230.875 C 278.07446,229.99827 277.93167,229.14215 277.8125,228.28125 C 278.44646,227.97897 279.09367,227.66978 279.71875,227.375 z M 333.875,229.0625 C 334.27172,229.05186 334.64438,229.06754 335.03125,229.0625 C 334.50012,230.32594 333.90763,231.62574 333.28125,232.96875 C 321.28863,232.85561 306.66314,234.81267 289.40625,238.78125 C 289.47498,237.93868 289.53352,237.11082 289.59375,236.28125 C 308.08324,231.83997 322.90349,229.35689 333.875,229.0625 z M 339.4375,229.125 C 340.12678,229.15957 340.78696,229.19314 341.4375,229.25 C 342.67275,229.35793 343.85488,229.51128 344.96875,229.6875 C 344.50753,230.93414 343.91318,232.25769 343.28125,233.625 C 341.50534,233.39877 339.64739,233.23278 337.71875,233.125 C 337.85892,232.80117 338.0186,232.48113 338.15625,232.15625 C 338.61722,231.11555 339.03194,230.11989 339.4375,229.125 z M 349.15625,230.59375 C 350.6954,231.02707 352.05329,231.55418 353.25,232.15625 C 353.15028,233.19741 352.89488,234.30219 352.53125,235.5 C 350.98225,235.06648 349.33599,234.66076 347.5625,234.3125 C 348.14996,233.03111 348.69528,231.79037 349.15625,230.59375 z M 285.875,231.28125 C 285.83985,232.18407 285.79241,233.07857 285.75,234 C 285.17312,234.19445 284.61395,234.39372 284.03125,234.59375 C 284.01022,233.69611 283.99778,232.81956 283.96875,231.9375 C 284.59808,231.71474 285.25437,231.49811 285.875,231.28125 z M 157.5,232 C 162.69042,231.94307 168.50509,232.23698 174.875,232.875 C 179.65725,233.50154 184.39257,234.28911 189,235.1875 C 177.08067,234.63677 166.36258,234.80427 157,235.71875 C 156.3046,234.47587 155.61998,233.25161 155.03125,232.0625 C 155.84278,232.03267 156.65447,232.00927 157.5,232 z M 150,232.40625 C 150.58284,233.68335 151.22956,234.98669 151.90625,236.3125 C 150.18811,236.54388 148.51821,236.8062 146.90625,237.09375 C 146.22075,235.75897 145.62971,234.45166 145.125,233.1875 C 146.29776,232.91627 147.52722,232.66145 148.84375,232.5 C 149.21752,232.45415 149.61638,232.44604 150,232.40625 z M 401.0625,234.25 C 403.21627,240.17587 406.47901,248.39 412.375,252.78125 C 413.27046,253.44406 421.34642,255.37964 421.875,253.875 C 418.13592,241.52918 409.68249,237.38859 401.0625,234.25 z M 140.53125,234.65625 C 140.53981,234.65249 140.55393,234.66 140.5625,234.65625 C 141.03864,235.76413 141.57682,236.87655 142.15625,238.03125 C 142.12498,238.03843 142.09372,238.0553 142.0625,238.0625 C 140.56991,238.40674 139.17804,238.82114 137.84375,239.25 C 137.54646,238.36068 137.305,237.48081 137.125,236.625 C 138.13736,235.88631 139.25588,235.21629 140.53125,234.65625 z M 357.34375,235.25 C 357.84544,235.86362 358.23125,236.52297 358.53125,237.21875 C 358.51901,237.3579 358.55077,237.48708 358.5625,237.625 C 357.98998,237.36612 357.4027,237.11591 356.78125,236.875 C 356.98471,236.32783 357.17736,235.77738 357.34375,235.25 z M 330.5,238.15625 C 330.54266,238.15621 330.58243,238.15626 330.625,238.15625 C 325.40912,247.37282 317.23994,257.70445 306.625,268.84375 C 303.3639,267.61301 297.54539,265.31892 290.25,262.375 C 289.48188,262.08517 289.11499,261.92543 288.40625,261.65625 C 289.09516,255.26982 289.41673,248.60175 289.5,241.75 C 305.96176,239.41077 319.62126,238.16771 330.5,238.15625 z M 335.40625,238.25 C 337.29848,238.31978 339.08982,238.46768 340.78125,238.625 C 340.05959,239.93834 339.28234,241.29152 338.4375,242.6875 C 333.43565,250.95272 325.28923,260.05997 314.59375,269.75 C 323.00553,260.06399 329.98246,249.4925 335.40625,238.25 z M 345.15625,239.15625 C 345.80348,239.25832 346.45229,239.35025 347.0625,239.46875 C 348.31564,239.71208 349.50741,239.9794 350.625,240.28125 C 348.83561,243.92079 346.16563,248.04986 342.71875,252.59375 C 337.21148,259.85375 328.83111,267.59147 318.125,275.59375 C 318.02379,275.54167 317.91401,275.4896 317.8125,275.4375 C 328.15297,265.49221 336.79232,254.26266 343.5625,242.03125 C 344.12713,241.04906 344.65095,240.09904 345.15625,239.15625 z M 169.46875,240.6875 C 179.7838,240.95245 189.91081,241.91058 199.1875,243.40625 C 199.91229,246.54395 200.37256,251.37665 201.21875,256.46875 C 201.42028,258.42639 201.6684,260.68772 201.9375,262.9375 C 192.62239,266.90949 185.60134,269.90139 184,270.78125 C 173.69872,259.73455 165.72477,249.75428 160.09375,240.9375 C 163.05932,240.78018 166.18818,240.70327 169.46875,240.6875 z M 154.625,241.34375 C 160.14092,251.04079 167.31726,261.22654 176,271.53125 C 163.97999,260.49252 155.12918,250.56502 149.65625,241.90625 C 151.24197,241.6813 152.90114,241.50407 154.625,241.34375 z M 354.6875,241.625 C 356.15738,242.21629 357.44712,242.872 358.5625,243.59375 C 357.58499,248.60188 353.19422,255.2047 345.9375,262.9375 C 340.86977,268.3371 333.87545,273.83182 325.28125,279.375 C 324.86111,279.1449 324.45746,278.91818 324.03125,278.6875 C 333.13333,270.89993 341.13775,262.13366 347.875,252.5 C 350.72171,248.56669 352.9933,244.95279 354.6875,241.625 z M 144.75,242.78125 C 145.73449,244.45179 146.79692,246.1631 147.96875,247.90625 C 154.47983,257.51654 162.90855,267.53505 173.125,277.53125 C 173.06433,277.56315 172.99806,277.59311 172.9375,277.625 C 156.16685,264.99646 145.00805,253.70801 139.90625,244.0625 C 141.0361,243.67427 142.24947,243.32684 143.53125,243.03125 C 143.92255,242.94099 144.34683,242.86583 144.75,242.78125 z M 135.5625,245.96875 C 137.74604,249.85475 140.64159,253.99855 144.25,258.3125 C 150.51209,265.74368 158.16482,273.33486 167.0625,280.8125 C 166.68134,281.0248 166.31378,281.22545 165.9375,281.4375 C 146.88185,269.24264 135.48603,258.0506 132.3125,248.3125 C 133.25466,247.46246 134.33322,246.6648 135.5625,245.96875 z M 268.3125,247.21875 C 269.0873,249.92681 269.83114,252.83472 270.5625,256 C 268.75105,255.24905 266.37205,254.44594 263.46875,253.5625 C 262.02164,252.48549 260.53046,251.39681 258.9375,250.25 C 262.43453,249.06441 265.56059,247.98247 268.3125,247.21875 z M 362.28125,247.21875 C 362.6817,247.84861 363.00552,248.47225 363.21875,249.15625 C 363.09556,249.78818 363.31137,250.49609 363.25,250.8125 C 363.1268,251.44444 363.18274,252.76349 362.875,254.34375 C 361.8913,259.40139 356.68225,265.93853 348,273.4375 C 343.95223,276.93343 338.89283,280.36635 332.96875,283.75 C 332.24763,283.32206 331.52412,282.89889 330.78125,282.46875 C 338.21039,276.75316 344.99107,270.36702 351.0625,263.375 C 356.51208,257.30034 360.231,251.93093 362.28125,247.21875 z M 220.84375,247.59375 C 223.82151,248.30548 227.02207,249.1327 230.5,250.0625 C 229.44476,250.83418 227.80602,252.26028 225.78125,254.09375 C 222.707,255.17765 220.27265,256.08142 218.65625,256.53125 C 219.1804,253.83697 219.91063,250.83501 220.84375,247.59375 z M 128.8125,253.15625 C 131.54437,258.11899 135.88232,263.50072 141.65625,269.09375 C 147.0877,274.31705 153.37509,279.53899 160.40625,284.65625 C 159.66701,285.09947 158.93643,285.52665 158.21875,285.96875 C 140.6746,276.26145 130.31178,266.77246 127.78125,257.875 C 127.84802,256.18227 128.20639,254.61347 128.8125,253.15625 z M 244.25,255.09375 C 248.16366,256.30409 252.23466,257.48356 256.3125,258.65625 C 256.5344,258.72005 256.7475,258.77906 256.96875,258.84375 C 257.77722,259.17176 258.56507,259.51592 259.375,259.84375 C 259.39681,259.85258 259.4157,259.86616 259.4375,259.875 C 260.29762,260.33439 261.13736,260.79066 262,261.25 C 263.01428,261.93729 264.01289,262.62488 265.03125,263.3125 C 265.1501,263.39276 265.25649,263.48198 265.375,263.5625 C 266.08534,264.16025 266.78791,264.74568 267.5,265.34375 C 270.14298,267.56376 272.6425,269.8548 274.9375,272 L 276,276.5625 L 277.4375,282.84375 L 277.875,286.3125 L 277.9375,289.6875 L 277.71875,292.125 L 275.34375,304.375 C 272.54197,307.10192 269.40278,309.96913 265.96875,312.96875 C 264.95679,313.69901 263.93894,314.44176 262.875,315.1875 C 261.83997,315.77837 260.80187,316.36893 259.71875,316.96875 C 259.19943,317.19629 258.68656,317.42781 258.15625,317.65625 C 254.15243,318.95861 249.81209,320.28115 245.1875,321.5625 C 244.31237,321.36259 243.51232,321.19018 242.59375,320.96875 C 240.21891,320.47422 238.01119,319.85754 236.03125,319.28125 C 234.63447,318.75568 233.36367,318.21487 232.15625,317.71875 C 230.99214,317.12227 229.91943,316.54651 228.90625,316 C 228.21119,315.54338 227.5423,315.08912 226.90625,314.65625 C 224.3619,312.62439 222.2141,310.69211 220.5,309.375 C 219.26185,308.22147 217.58287,306.53705 215.59375,304.59375 C 215.06754,302.74664 214.2386,300.44038 213.3125,297.65625 C 213.06726,296.60111 212.80164,295.41612 212.53125,294.1875 C 212.39166,293.06337 212.2397,291.8153 212.09375,290.5 C 212.07008,289.25793 212.06421,287.87041 212.0625,286.40625 C 212.20255,284.77517 212.35255,282.97955 212.59375,281 C 212.61833,280.83778 212.63151,280.63508 212.65625,280.46875 C 213.18082,278.60525 213.82004,276.27725 214.46875,273.5625 C 218.53178,269.76893 222.35391,266.22764 225.78125,263.1875 C 226.54854,262.63092 227.41696,261.99879 228.15625,261.46875 C 229.0965,260.9258 230.13068,260.29379 231.03125,259.78125 C 232.45764,259.14584 233.94312,258.48773 235.28125,257.90625 C 238.47572,256.87568 241.50687,255.91244 244.25,255.09375 z M 408.375,257.03125 C 409.50698,263.27219 411.36478,271.96082 416.46875,277.3125 C 417.24416,278.1212 424.90851,281.40303 425.6875,280 C 424.07038,267.12251 416.39295,261.60062 408.375,257.03125 z M 245.75,273.4375 C 238.81937,273.18061 232.42476,277.82008 230.71875,284.8125 C 228.76902,292.80382 233.65751,300.86459 241.65625,302.8125 C 249.65499,304.76042 257.73778,299.86633 259.6875,291.875 C 261.63723,283.88368 256.71749,275.79168 248.71875,273.84375 C 247.71891,273.60026 246.74009,273.4742 245.75,273.4375 z M 285.96875,280.09375 C 288.58401,282.60864 290.91759,284.88701 293.03125,287 C 292.76187,287.34143 292.43158,287.70994 292.1875,288.03125 C 290.35179,290.10695 288.27474,292.57056 286.125,294.71875 L 284.5,287.625 L 285.96875,280.09375 z M 204.4375,281.84375 L 206.09375,289.03125 L 204.75,295.8125 C 202.79829,293.9938 200.45816,291.64647 197.84375,288.96875 C 201.01495,285.27357 203.27142,282.80633 204.4375,281.84375 z M 325.28125,286.53125 C 325.72573,286.76035 326.15636,286.98923 326.59375,287.21875 C 326.32263,287.3576 326.02406,287.48638 325.75,287.625 C 325.40812,287.38832 325.09638,287.14384 324.75,286.90625 C 324.92777,286.78362 325.10414,286.6546 325.28125,286.53125 z M 166.53125,288.96875 C 166.61346,289.0244 166.69886,289.06938 166.78125,289.125 C 166.40945,289.38637 166.05406,289.64569 165.6875,289.90625 C 165.54,289.83234 165.39668,289.76139 165.25,289.6875 C 165.6726,289.44592 166.10239,289.21028 166.53125,288.96875 z M 332.34375,290.375 C 338.03337,293.62277 343.03861,296.8847 347.25,300.125 C 356.8165,307.17195 362.32011,313.8217 363.625,319.46875 C 364.07722,321.42582 363.85408,323.26521 362.96875,324.9375 C 359.08429,315.30693 348.35732,304.00772 330.875,291.28125 C 331.36525,290.98001 331.85782,290.68174 332.34375,290.375 z M 159.53125,293.09375 C 159.86444,293.28884 160.19508,293.49315 160.53125,293.6875 C 144.06578,306.07045 133.67791,317.50054 129.40625,327.875 C 128.68241,326.25293 128.2913,324.29304 128.40625,322 C 129.70667,317.00366 135.24616,310.52913 144.5,303.46875 C 148.79889,300.06484 153.84928,296.58393 159.53125,293.09375 z M 324.96875,294.71875 C 333.21267,300.12116 340.10855,305.46435 345.5,310.59375 C 352.98827,317.42484 357.56472,323.64759 359.1875,328.90625 C 358.26075,329.53942 357.20161,330.13014 356,330.6875 C 350.96738,320.68818 340.42124,308.7515 324.34375,295.0625 C 324.55108,294.94959 324.76211,294.83259 324.96875,294.71875 z M 167.0625,297.3125 C 167.12449,297.34559 167.18792,297.37319 167.25,297.40625 C 151.48865,311.16528 141.15596,323.47911 136.25,334.28125 C 135.00722,333.46856 133.98349,332.74545 133.125,332.125 C 134.68806,327.25767 139.29525,321.03866 146.6875,314.0625 C 152.14917,308.71929 158.97531,303.0567 167.0625,297.3125 z M 319.71875,299.625 C 329.2618,307.03688 336.94818,314.21091 342.625,320.875 C 346.33909,325.05407 349.16641,328.95981 351.15625,332.53125 C 350.54102,332.71707 349.90951,332.89044 349.25,333.0625 C 348.50085,333.21567 347.70427,333.3367 346.90625,333.46875 C 341.42845,323.81817 332.35596,312.48295 319.71875,299.625 z M 169.8125,304.3125 C 158.00991,316.8608 149.65437,328.0692 144.78125,337.9375 C 144.75156,337.9318 144.71712,337.94325 144.6875,337.9375 C 143.3722,337.68208 142.12168,337.31053 140.96875,336.84375 C 142.96365,333.1035 145.93971,328.86818 149.90625,324.25 C 155.06711,318.01785 161.77537,311.2878 169.8125,304.3125 z M 307.34375,305.21875 C 317.22575,315.81602 324.93672,325.78528 330.46875,334.71875 C 319.69978,334.83976 306.63014,333.96256 291.46875,332.15625 C 291.08852,326.00607 290.41972,319.79722 289.40625,313.53125 C 294.42598,311.3851 300.42111,308.6095 307.34375,305.21875 z M 318.28125,307.4375 C 326.93523,315.75944 333.76343,323.65921 338.6875,330.84375 C 339.51524,331.99874 340.31047,333.11121 341.03125,334.21875 C 339.73176,334.33916 338.36495,334.42158 336.96875,334.5 C 332.45393,326.4759 326.2106,317.42463 318.28125,307.4375 z M 184.59375,307.5625 C 190.3036,310.47298 196.17686,313.10902 202.125,315.25 C 201.38461,321.48841 200.94784,327.81417 200.90625,334.09375 C 185.9378,336.49268 172.87739,338.37508 162,338.84375 C 167.43428,329.42162 174.99868,318.84812 184.59375,307.5625 z M 172.125,311.90625 C 164.60843,321.76469 158.76608,330.78749 154.65625,338.90625 C 153.45402,338.87601 152.28916,338.83038 151.15625,338.75 C 152.08379,337.23058 153.06575,335.6851 154.1875,334.0625 C 158.71898,327.24877 164.74785,319.78049 172.125,311.90625 z M 272.40625,319.4375 C 272.16032,320.70181 271.20734,323.82008 269.96875,328.5 C 269.94278,328.59977 269.93227,328.68254 269.90625,328.78125 C 265.49519,327.77012 261.9758,326.88896 259.75,326.59375 C 261.41685,325.21801 263.33164,323.44824 265.3125,322 C 265.43225,321.91243 265.56653,321.81122 265.6875,321.71875 C 267.7425,321.00374 269.96459,320.23274 272.40625,319.4375 z M 219.6875,320.625 C 221.34511,321.02446 223.86663,321.84896 226.90625,322.8125 C 228.80662,324.49209 230.4501,325.92926 231.84375,327 C 227.65739,327.9999 225.20855,328.53623 222.03125,329.28125 C 221.13186,326.37828 220.34681,323.47817 219.6875,320.625 z M 225.8125,331.875 C 224.98043,332.16429 223.94417,332.55057 223.1875,332.8125 C 223.16642,332.75038 223.14599,332.68714 223.125,332.625 C 224.01992,332.37429 224.86983,332.14564 225.8125,331.875 z M 359.6875,334.0625 C 359.49945,335.08157 359.09819,336.05565 358.5,336.9375 C 358.31966,336.31052 358.1386,335.677 357.90625,335.03125 C 358.52516,334.71824 359.12172,334.39227 359.6875,334.0625 z M 228.46875,334.65625 C 227.30313,335.20243 225.48596,336.0721 224.5,336.53125 C 224.46571,336.43853 224.44036,336.34281 224.40625,336.25 C 225.66045,335.76646 227.10056,335.20132 228.46875,334.65625 z M 266.84375,335.46875 C 267.17703,335.58021 267.50981,335.70286 267.84375,335.8125 C 267.8338,335.84514 267.82235,335.87387 267.8125,335.90625 C 267.5058,335.77505 267.15952,335.60577 266.84375,335.46875 z M 246.09375,335.71875 C 251.57669,340.07305 257.3702,344.14994 263.25,347.84375 C 257.79569,363.96739 252.41862,376.94386 247.15625,386.75 C 240.91999,376.60891 234.86279,363.96142 229.5,348.78125 C 233.26018,346.2236 238.93179,341.75596 246.09375,335.71875 z M 291.03125,335.90625 C 307.31706,338.74794 321.45,340.00789 333.40625,339.75 C 333.49171,339.90586 333.60354,340.06363 333.6875,340.21875 C 334.39698,341.46642 335.08149,342.65564 335.6875,343.84375 C 324.26718,343.70078 309.25413,341.51527 291.1875,337.59375 C 291.13048,337.02807 291.0921,336.47628 291.03125,335.90625 z M 233.53125,336.125 C 230.22395,338.12073 227.85015,339.53719 226.0625,340.59375 C 225.99047,340.41527 225.91518,340.24151 225.84375,340.0625 C 228.11289,338.9427 230.78033,337.57155 233.53125,336.125 z M 239.4375,336.5625 C 233.41737,341.1213 228.96413,344.48644 228,345.15625 C 227.8597,344.8397 227.73242,344.50652 227.59375,344.1875 C 230.807,342.25862 234.84567,339.64479 239.4375,336.5625 z M 53.59375,336.59375 C 56.310594,343.15602 60.397192,352.25633 67.25,356.90625 C 68.291047,357.60799 77.479923,359.37615 78,357.65625 C 73.181353,343.94723 63.450096,339.69967 53.59375,336.59375 z M 353.28125,337.03125 C 353.73552,338.23322 354.09261,339.36972 354.3125,340.46875 C 353.32175,340.99998 352.19332,341.47902 350.9375,341.90625 C 350.49076,340.73193 349.98575,339.51847 349.40625,338.28125 C 349.52855,338.2592 349.65966,338.24128 349.78125,338.21875 C 351.01977,337.84682 352.16308,337.44488 353.28125,337.03125 z M 201,337.0625 C 200.94658,338.05054 200.88693,339.02878 200.84375,340 C 183.2147,344.67309 168.39474,348.09644 156.90625,348.46875 C 157.67679,346.84289 158.51141,345.18929 159.46875,343.4375 C 159.64506,343.10061 159.84896,342.74653 160.03125,342.40625 C 171.6502,342.13357 185.35259,340.3587 201,337.0625 z M 261.75,337.40625 C 263.41924,338.16708 265.09256,338.91298 266.78125,339.625 C 266.73006,339.77174 266.70653,339.88796 266.65625,340.03125 C 265.19725,339.28616 263.54689,338.42175 261.75,337.40625 z M 133.4375,338.1875 C 133.79256,338.36899 134.15878,338.5457 134.53125,338.71875 C 134.40932,339.09148 134.26418,339.44371 134.15625,339.8125 C 133.87636,339.31611 133.64744,338.76164 133.4375,338.1875 z M 343.90625,339.0625 C 344.68518,340.49731 345.33306,341.88712 345.90625,343.21875 C 345.2931,343.33506 344.68442,343.43213 344.03125,343.53125 C 343.24899,343.60743 342.42501,343.67015 341.59375,343.71875 C 340.99143,342.33644 340.32119,340.92578 339.59375,339.46875 C 341.06632,339.36252 342.51138,339.22208 343.90625,339.0625 z M 257.0625,339.125 C 259.81303,340.73344 262.59497,342.28748 265.40625,343.75 C 265.3527,343.94535 265.2796,344.16041 265.25,344.3125 C 263.3846,343.44202 260.5268,341.57558 257.0625,339.125 z M 285.8125,340.28125 C 286.02381,340.34141 286.22688,340.40921 286.4375,340.46875 C 286.4886,341.09058 286.54615,341.73031 286.59375,342.34375 C 286.33544,342.25912 286.07208,342.1793 285.8125,342.09375 C 285.81539,341.48808 285.81343,340.89229 285.8125,340.28125 z M 139.25,340.53125 C 140.34399,340.87896 141.48928,341.20764 142.6875,341.5 C 142.8306,341.52125 142.98085,341.54196 143.125,341.5625 C 142.55404,342.91752 142.05604,344.23151 141.625,345.53125 C 140.30178,344.84745 139.22555,344.20978 138.3125,343.6875 C 138.5147,342.70091 138.8234,341.64412 139.25,340.53125 z M 206.40625,341.5625 C 206.45434,342.50841 206.50669,343.44539 206.5625,344.375 C 206.30491,344.47309 206.03761,344.55888 205.78125,344.65625 C 205.82792,343.68809 205.90946,342.70302 205.96875,341.71875 C 206.11769,341.67089 206.25697,341.61069 206.40625,341.5625 z M 291.59375,341.875 C 309.86473,346.72181 325.40798,349.07814 338.03125,348.96875 C 338.6591,350.48858 339.19423,351.95021 339.625,353.34375 C 339.0017,353.39556 338.38022,353.46956 337.71875,353.5 C 326.72016,353.41715 311.19627,350.12773 291.78125,344.03125 C 291.72642,343.32221 291.65489,342.59156 291.59375,341.875 z M 149.1875,342.1875 C 150.41521,342.2733 151.67904,342.33217 152.96875,342.375 C 152.02764,344.4208 151.21095,346.3859 150.5,348.3125 C 149.12349,348.19227 147.82164,347.92256 146.59375,347.5625 C 147.27213,345.8844 148.16425,344.07807 149.1875,342.1875 z M 200.71875,343.375 C 200.68304,344.45798 200.67906,345.53292 200.65625,346.59375 C 182.91204,353.18896 168.31643,357.74499 157.28125,357.9375 C 155.89919,357.9616 154.57178,357.82381 153.3125,357.59375 C 153.80744,355.87988 154.50751,354.0153 155.3125,352.0625 C 167.64615,351.64457 182.89318,348.77714 200.71875,343.375 z M 280.15625,344.1875 C 280.36697,344.27215 280.57119,344.35359 280.78125,344.4375 C 280.76672,345.06905 280.73595,345.72114 280.71875,346.34375 C 280.46841,346.23158 280.22028,346.11323 279.96875,346 C 280.03552,345.3932 280.09276,344.80013 280.15625,344.1875 z M 212.1875,345.375 C 212.3331,346.30313 212.47353,347.21361 212.625,348.125 C 212.4055,348.23608 212.18733,348.35834 211.96875,348.46875 C 211.91453,347.5014 211.85587,346.51588 211.8125,345.53125 C 211.9375,345.47607 212.06227,345.43046 212.1875,345.375 z M 354.28125,345.625 C 353.99247,346.64252 353.51016,347.57481 352.8125,348.40625 C 352.6966,347.76061 352.54104,347.10741 352.375,346.4375 C 353.04096,346.18553 353.66891,345.9003 354.28125,345.625 z M 285.75,346.375 C 286.12462,346.51767 286.50261,346.64106 286.875,346.78125 C 286.92621,347.55945 286.98604,348.33004 287.03125,349.09375 C 286.59766,348.90771 286.15629,348.72082 285.71875,348.53125 C 285.73866,347.82018 285.73558,347.09422 285.75,346.375 z M 274.15625,347.5 C 274.34444,347.59957 274.53107,347.68239 274.71875,347.78125 C 274.64166,348.38107 274.57866,349.00233 274.5,349.59375 C 274.26364,349.45662 274.01867,349.3258 273.78125,349.1875 C 273.90412,348.62234 274.03576,348.07066 274.15625,347.5 z M 206.78125,347.71875 C 206.8589,348.80533 206.94298,349.8745 207.03125,350.9375 C 206.5455,351.17852 206.07465,351.41921 205.59375,351.65625 C 205.61416,350.51307 205.64875,349.35558 205.6875,348.1875 C 206.0531,348.03492 206.41352,347.87387 206.78125,347.71875 z M 347.59375,347.90625 C 347.93413,349.18178 348.14242,350.38842 348.25,351.53125 C 347.20692,351.95568 346.04614,352.33189 344.75,352.625 C 344.42224,351.37059 344.02474,350.08636 343.5625,348.75 C 343.70726,348.73941 343.85613,348.73009 344,348.71875 C 345.25988,348.48023 346.44725,348.19791 347.59375,347.90625 z M 218.3125,348.5625 C 218.56297,349.50258 218.8389,350.42219 219.09375,351.34375 C 218.87874,351.48254 218.6516,351.61204 218.4375,351.75 C 218.27717,350.76406 218.11953,349.75543 217.96875,348.75 C 218.08299,348.68453 218.19807,348.62825 218.3125,348.5625 z M 292.09375,348.71875 C 309.87646,355.03086 324.96208,358.33951 337.15625,358.65625 C 338.42368,358.55144 339.61926,358.41843 340.78125,358.25 C 340.97954,359.55272 341.05181,360.76097 341.03125,361.90625 C 338.25775,362.69781 334.71699,363.0031 330.40625,362.75 C 320.77659,361.66545 307.9089,357.76293 292.21875,351.3125 C 292.17714,350.45335 292.1452,349.59031 292.09375,348.71875 z M 139.3125,349.71875 C 139.66163,349.85355 140.01138,349.99919 140.375,350.125 C 140.29934,350.48133 140.22022,350.83583 140.15625,351.1875 C 139.84001,350.74523 139.57302,350.23819 139.3125,349.71875 z M 267.75,350.03125 C 267.95141,350.16649 268.1429,350.30324 268.34375,350.4375 C 263.63008,370.34829 258.53219,385.45423 253.125,395.59375 C 252.69398,395.02917 252.24552,394.44285 251.8125,393.84375 C 251.19709,392.9755 250.58279,392.07337 249.96875,391.15625 C 256.39899,380.19543 262.46873,366.35715 267.75,350.03125 z M 200.59375,350.25 C 200.58371,351.54567 200.58423,352.83346 200.59375,354.09375 C 186.4748,360.85778 174.58022,365.60988 165.03125,366.78125 C 159.69087,367.43625 154.97619,365.68533 152.15625,364.78125 C 152.1546,363.791 152.25428,362.7153 152.4375,361.5625 C 153.59722,361.67852 154.80933,361.77478 156.0625,361.8125 C 168.01094,361.07331 182.97849,357.21981 200.59375,350.25 z M 279.46875,350.25 C 279.83212,350.43392 280.20115,350.60012 280.5625,350.78125 C 280.53309,351.52796 280.50225,352.26711 280.46875,353 C 280.05619,352.76934 279.63488,352.5471 279.21875,352.3125 C 279.3093,351.6334 279.38248,350.93714 279.46875,350.25 z M 224.75,351.1875 C 231.09139,367.77382 237.86187,381.21393 244.5625,391.34375 C 243.64781,392.87879 242.75016,394.31545 241.84375,395.65625 C 241.48389,395.06476 241.13957,394.46799 240.78125,393.84375 C 234.67574,382.97618 228.97791,368.75045 224.46875,351.375 C 224.5616,351.30798 224.65703,351.25475 224.75,351.1875 z M 145.28125,351.4375 C 146.42732,351.67541 147.62685,351.89333 148.875,352.0625 C 148.98699,352.0673 149.10618,352.05819 149.21875,352.0625 C 148.80231,353.43952 148.47617,354.78339 148.1875,356.09375 C 146.79126,355.54958 145.65522,355.02011 144.6875,354.59375 C 144.78331,353.61209 144.98402,352.56218 145.28125,351.4375 z M 213.1875,351.4375 C 213.38424,352.54324 213.60716,353.6391 213.8125,354.71875 C 213.35957,355.00607 212.91738,355.27954 212.46875,355.5625 C 212.36617,354.38391 212.27333,353.20713 212.1875,352 C 212.5244,351.81588 212.84886,351.62419 213.1875,351.4375 z M 285.53125,353.25 C 286.11572,353.52925 286.70239,353.79095 287.28125,354.0625 C 287.32137,354.98092 287.34428,355.88569 287.375,356.78125 C 286.71472,356.43101 286.07689,356.08038 285.40625,355.71875 C 285.45193,354.90805 285.49313,354.07262 285.53125,353.25 z M 272.84375,353.375 C 273.18885,353.59762 273.53164,353.81167 273.875,354.03125 C 270.46509,377.53886 265.70821,393.92639 259.8125,403.0625 C 258.61737,401.97035 257.41378,400.73284 256.1875,399.34375 C 256.37741,399.00888 256.56116,398.68832 256.75,398.34375 C 263.02092,386.90154 268.56961,371.68196 272.84375,353.375 z M 220,354.5625 C 225.62911,374.05431 232.21868,389.17057 239.03125,399.53125 C 237.90572,400.96001 236.76684,402.22093 235.65625,403.34375 C 233.6197,400.48838 231.64846,396.94164 229.78125,392.71875 C 225.4532,382.68157 221.68582,370.12771 219.03125,355.21875 C 219.3502,354.99825 219.67956,354.78579 220,354.5625 z M 207.34375,354.59375 C 207.47179,355.9154 207.60543,357.21738 207.75,358.5 C 207.01778,358.95046 206.31376,359.37593 205.59375,359.8125 C 205.56434,358.40912 205.53142,356.9775 205.53125,355.53125 C 206.13166,355.22313 206.73729,354.91067 207.34375,354.59375 z M 292.40625,356.40625 C 306.53154,362.65238 318.87665,366.47311 329.3125,367.84375 C 333.34888,367.93301 336.86959,367.61572 339.90625,366.96875 C 337.60294,371.15108 331.57381,372.65554 322.09375,371.09375 C 314.18123,369.35132 304.24238,365.39275 292.46875,359.4375 C 292.45615,358.43788 292.43323,357.42525 292.40625,356.40625 z M 347.75,356.65625 C 347.34583,357.67697 346.72685,358.56813 345.90625,359.34375 C 345.86122,358.66557 345.78382,357.96003 345.6875,357.25 C 346.40189,357.06269 347.09028,356.87449 347.75,356.65625 z M 278.53125,356.96875 C 279.08668,357.30939 279.6369,357.63645 280.1875,357.96875 C 278.55727,384.59402 274.02878,401.28654 266.8125,407.8125 C 265.69008,407.33168 264.54982,406.70738 263.375,405.90625 C 265.07348,403.26007 266.68643,400.14719 268.1875,396.5625 C 272.60176,386.02091 276.14759,372.65752 278.53125,356.96875 z M 200.625,357.96875 C 200.6638,359.57705 200.74124,361.14172 200.8125,362.6875 C 190.42855,368.73697 181.36984,373.09599 173.65625,374.875 C 168.00351,376.17869 162.67237,374.5812 159.90625,374.0625 C 157.80903,373.65651 155.85063,372.4616 154.28125,370.4375 C 157.21764,370.92054 160.5237,371.05706 164.21875,370.78125 C 174.42915,369.06599 186.6501,364.76583 200.625,357.96875 z M 214.5,358.28125 C 217.96968,375.26223 222.52113,388.79463 227.625,398.5625 C 229.14758,401.47665 230.70502,404.04638 232.28125,406.28125 C 231.10729,407.15143 229.96665,407.8573 228.8125,408.375 C 225.04878,405.04591 221.66883,398.98257 218.9375,390.5 C 216.2201,381.78731 214.10149,371.36857 212.84375,359.375 C 213.39477,359.0146 213.94413,358.65057 214.5,358.28125 z M 146.28125,360.46875 C 146.64968,360.5687 147.02378,360.66095 147.40625,360.75 C 147.36654,361.11639 147.30962,361.48332 147.28125,361.84375 C 146.91994,361.43277 146.59454,360.9631 146.28125,360.46875 z M 285.0625,360.84375 C 285.8797,361.31227 286.69418,361.76966 287.5,362.21875 C 287.87849,390.84508 282.97798,406.47764 273.125,408.75 C 272.83939,408.80025 272.54198,408.8215 272.25,408.84375 C 275.05805,405.15092 277.43868,400.07208 279.375,393.625 C 282.11985,384.48683 284.07112,373.46242 285.0625,360.84375 z M 208.21875,362.3125 C 209.99719,376.06094 212.75326,387.4126 216.1875,396.09375 C 218.40534,401.70005 220.85538,406.17389 223.46875,409.5 C 222.89034,409.48291 222.32229,409.45488 221.75,409.34375 C 215.79982,407.86059 211.0691,400.05725 208.34375,387.0625 C 206.98398,380.26815 206.05004,372.51441 205.6875,363.90625 C 206.5285,363.39636 207.3652,362.84498 208.21875,362.3125 z M 62.09375,364.28125 C 65.913458,370.44342 71.548427,378.91438 79.21875,382.46875 C 80.382984,383.00445 89.9474,383.28665 90.1875,381.46875 C 83.069951,368.45431 72.533779,365.78543 62.09375,364.28125 z M 376.375,391.3125 C 371.29341,396.25333 364.37348,403.40588 362.59375,411.46875 C 362.32766,412.69098 364.05732,421.8419 365.84375,421.6875 C 376.77788,412.15939 377.13741,401.58397 376.375,391.3125 z M 247.375,395.40625 C 248.48789,396.93924 249.61496,398.37243 250.71875,399.71875 C 249.75318,401.24876 248.79505,402.64804 247.8125,403.875 C 246.70996,402.63635 245.60246,401.24066 244.5,399.6875 C 244.71582,399.38525 244.94047,399.09257 245.15625,398.78125 C 245.90594,397.69965 246.63266,396.56501 247.375,395.40625 z M 253.78125,403.28125 C 254.9098,404.50173 256.0247,405.60874 257.125,406.625 C 256.18458,407.68374 255.24136,408.58305 254.25,409.3125 C 253.1933,408.72463 252.1376,407.96899 251.0625,407.0625 C 251.98372,405.90826 252.88082,404.64575 253.78125,403.28125 z M 241.6875,403.34375 C 242.71196,404.71837 243.73269,406.00015 244.75,407.15625 C 243.69237,408.12588 242.63671,408.93321 241.5625,409.5625 C 240.53292,408.84168 239.51317,407.94083 238.5,406.875 C 239.55453,405.80753 240.6316,404.62974 241.6875,403.34375 z M 359.34375,408.71875 C 353.40118,412.93278 345.27212,419.09334 342.1875,427 C 341.72386,428.19941 342.03614,437.7805 343.875,437.90625 C 356.48716,429.9584 358.49174,419.2704 359.34375,408.71875 z M 132.625,408.8125 C 133.47701,419.36413 135.51284,430.0526 148.125,438 C 149.96385,437.87424 150.27613,428.26191 149.8125,427.0625 C 146.72834,419.15583 138.56756,413.02608 132.625,408.8125 z M 260.6875,409.59375 C 261.14428,409.93264 261.58084,410.26188 262.03125,410.5625 C 261.4981,410.71438 260.96076,410.80698 260.40625,410.875 C 260.11685,410.89516 259.82405,410.91462 259.53125,410.90625 C 259.92167,410.48958 260.30539,410.05361 260.6875,409.59375 z M 235.15625,409.9375 C 235.56636,410.40308 235.96284,410.86174 236.375,411.28125 C 235.78244,411.32845 235.19027,411.33338 234.59375,411.28125 C 234.26669,411.23526 233.94867,411.14555 233.625,411.0625 C 234.13517,410.70951 234.64507,410.34261 235.15625,409.9375 z M 248,410.46875 C 248.41163,410.84519 248.80938,411.2235 249.21875,411.5625 C 248.65511,411.66393 248.07694,411.73992 247.5,411.75 C 247.23064,411.74054 246.95722,411.69051 246.6875,411.65625 C 247.12422,411.27723 247.56712,410.89259 248,410.46875 z M 339.65625,423.53125 C 332.95261,426.89496 323.71309,431.87231 319.34375,439.4375 C 318.68436,440.58544 317.52359,450.39853 319.375,450.8125 C 333.4466,444.68659 337.14591,434.13479 339.65625,423.53125 z M 152.34375,423.59375 C 154.8541,434.19731 158.55385,444.78033 172.625,450.90625 C 174.47684,450.49227 173.31564,440.67964 172.65625,439.53125 C 168.2869,431.96561 159.04694,426.95701 152.34375,423.59375 z M 317.65625,435.375 C 310.30845,437.77784 300.11287,441.42717 294.5,448.46875 C 293.65247,449.53837 290.95807,459.35719 292.78125,460.0625 C 308.06142,455.9711 313.47235,445.79819 317.65625,435.375 z M 174.34375,435.4375 C 178.5272,445.8607 183.93857,456.06484 199.21875,460.15625 C 201.04193,459.45093 198.34798,449.63211 197.5,448.5625 C 191.88757,441.52045 181.6911,437.8399 174.34375,435.4375 z M 220.71875,466.375 C 207.06943,466.24053 198.40541,473.28187 190.625,480.90625 C 199.15092,481.73777 211.13463,482.55351 219.96875,477.90625 C 221.30589,477.19825 228.41103,468.43327 226.875,466.90625 C 224.70925,466.57524 222.66865,466.39421 220.71875,466.375 z" fill="#00579c" /></svg>