<?xml version="1.0" encoding="UTF-8" ?>
<!DOCTYPE svg PUBLIC "-//W3C//DTD SVG 1.1//EN" "http://www.w3.org/Graphics/SVG/1.1/DTD/svg11.dtd">
<svg width="690pt" height="886pt" viewBox="0 0 690 886" version="1.1" xmlns="http://www.w3.org/2000/svg">
<g id="#0000ffff">
<path fill="#0000ff" opacity="1.00" d=" M 0.00 0.00 L 690.00 0.00 L 690.00 726.16 C 686.90 732.37 685.82 739.37 682.59 745.53 C 680.27 751.74 675.29 756.31 671.96 761.94 C 667.70 766.05 664.36 771.12 659.34 774.38 C 652.06 783.37 640.82 788.09 629.85 790.88 C 624.11 792.62 618.87 796.04 612.79 796.61 C 606.71 797.16 600.69 798.09 594.70 799.23 C 569.44 800.33 544.14 799.93 518.86 800.40 C 483.56 801.08 448.27 801.08 412.97 800.96 C 407.54 800.75 402.00 802.37 397.66 805.68 C 393.00 809.03 388.16 812.16 383.67 815.74 C 378.41 820.12 374.46 825.80 369.56 830.55 C 366.78 833.16 364.93 836.58 362.12 839.16 C 357.79 843.09 355.78 848.75 352.49 853.46 C 348.10 860.82 347.18 870.20 341.07 876.52 C 337.17 870.64 336.44 863.51 334.10 857.01 C 332.72 849.98 329.21 843.62 325.41 837.63 C 322.41 832.68 317.28 829.54 314.52 824.42 C 307.58 818.69 302.64 810.53 294.47 806.34 C 288.36 803.82 283.00 798.79 276.03 798.98 C 247.68 799.00 219.33 799.15 190.99 798.56 C 162.66 797.95 134.31 798.33 105.99 797.13 C 97.58 796.92 89.47 794.40 81.29 792.68 C 72.79 789.28 63.05 789.86 55.12 784.95 C 51.35 783.17 47.58 781.32 44.36 778.64 C 39.04 774.31 33.11 770.66 28.50 765.52 C 23.50 759.83 17.70 754.76 13.83 748.16 C 10.35 743.14 9.39 736.95 6.43 731.67 C 4.88 726.91 4.16 721.91 2.93 717.07 C 2.04 714.09 2.90 710.15 0.00 708.17 L 0.00 0.00 M 321.10 64.13 C 316.90 65.64 314.57 69.67 311.63 72.73 C 307.36 74.34 302.52 74.90 298.92 77.94 C 296.88 79.92 295.77 82.71 293.53 84.50 C 291.57 85.28 289.44 85.58 287.50 86.40 C 285.14 88.13 285.12 92.23 281.95 92.99 C 277.08 94.42 272.13 95.97 268.04 99.10 C 263.79 101.70 262.70 106.96 259.44 110.44 C 255.41 112.86 250.32 113.45 246.86 116.88 C 240.98 121.66 239.25 130.03 240.63 137.21 C 241.43 141.52 239.86 145.74 239.66 150.03 C 239.71 152.58 240.68 155.02 241.77 157.30 C 244.36 162.69 252.25 163.01 254.20 168.83 C 255.53 172.20 257.28 175.52 259.92 178.05 C 262.44 180.06 265.64 180.92 268.32 182.67 C 270.02 184.31 270.72 187.05 273.11 187.91 C 277.99 189.74 283.28 189.95 288.34 191.13 C 288.18 193.78 286.09 195.56 284.86 197.74 C 283.41 200.16 282.75 202.97 281.33 205.41 C 277.56 207.33 273.05 206.90 269.01 208.08 C 265.19 209.30 261.27 207.83 257.40 208.44 C 254.00 208.97 250.87 207.17 247.62 206.53 C 240.76 204.73 233.38 206.16 227.04 209.07 C 221.71 211.36 217.74 215.71 213.24 219.22 C 210.72 220.49 207.57 220.32 205.45 222.39 C 203.18 224.73 199.79 224.37 196.83 224.73 C 188.27 225.09 179.42 229.68 175.70 237.67 C 173.76 241.41 173.01 245.85 169.91 248.91 C 166.74 252.14 165.84 256.78 165.16 261.09 C 164.54 266.46 167.69 271.18 169.42 276.03 C 169.39 278.48 167.02 280.96 168.74 283.30 C 174.92 293.22 187.55 297.52 198.76 295.45 C 200.59 295.36 202.70 294.54 204.39 295.51 C 206.55 298.92 208.48 302.84 212.33 304.64 C 216.71 307.34 221.98 307.61 226.97 307.22 C 234.00 306.67 240.93 309.45 247.95 308.08 C 254.64 307.01 260.08 302.24 263.65 296.70 C 265.05 294.79 266.14 291.85 269.01 292.13 C 271.77 291.63 272.51 295.02 273.90 296.69 C 279.51 295.10 285.16 293.04 291.07 293.18 C 297.79 293.25 302.29 299.00 307.20 302.79 C 311.06 307.28 315.74 311.33 318.00 316.96 C 319.98 321.71 319.97 326.97 320.20 332.03 C 320.65 347.10 320.87 362.22 319.80 377.26 C 313.49 375.07 307.92 371.26 302.31 367.73 C 298.75 365.06 294.48 363.40 291.36 360.16 C 293.47 355.63 296.26 351.16 296.36 346.01 C 296.55 341.19 296.98 335.46 293.16 331.83 C 290.17 328.08 284.87 327.75 281.61 324.39 C 274.23 316.55 261.38 314.71 252.06 320.09 C 247.90 322.94 245.11 327.20 242.24 331.23 C 239.67 332.71 236.66 333.61 235.54 336.69 C 229.74 337.95 223.61 338.41 218.36 341.44 C 215.14 343.34 211.60 345.58 210.39 349.33 C 209.97 351.83 212.08 354.32 210.80 356.77 C 209.04 361.08 208.26 365.91 209.58 370.46 C 210.61 373.86 213.49 376.42 214.12 379.98 C 214.75 386.79 221.48 390.48 227.10 392.93 C 232.60 395.55 238.92 394.46 244.61 396.22 C 252.44 403.54 264.56 407.82 274.67 402.57 C 280.45 399.84 282.78 393.15 283.31 387.18 C 283.47 384.11 285.84 381.84 288.29 380.31 C 293.29 380.43 296.98 384.50 301.11 386.84 C 307.03 390.17 311.44 395.61 314.51 401.58 C 317.22 406.65 316.08 412.57 316.51 418.07 C 317.14 427.87 317.04 437.68 316.97 447.50 C 313.42 447.09 310.08 445.78 306.94 444.12 C 303.80 442.67 300.75 440.28 297.09 440.85 C 296.33 447.54 296.45 454.31 296.77 461.02 C 296.55 464.52 300.22 465.81 302.66 467.32 C 308.25 470.58 313.75 475.57 314.65 482.32 C 315.35 487.18 315.34 492.10 315.44 497.00 C 315.00 515.02 314.94 533.04 313.95 551.04 C 312.98 562.92 311.93 575.06 307.26 586.17 C 304.89 592.88 300.17 598.34 295.82 603.84 C 293.14 607.18 289.52 609.54 286.26 612.27 C 278.15 618.14 268.57 621.59 260.49 627.53 C 254.67 631.22 249.12 635.33 244.33 640.30 C 239.51 643.48 236.57 648.54 232.43 652.44 C 230.45 654.17 229.05 657.30 226.03 657.19 C 219.69 657.46 213.33 657.26 206.99 657.46 C 182.00 658.23 156.99 657.78 131.99 658.51 C 125.87 658.73 119.60 658.03 113.63 659.72 C 103.13 662.60 92.64 665.92 83.04 671.12 C 80.91 671.91 81.06 675.13 83.38 675.56 C 93.61 680.19 104.31 683.82 115.15 686.76 C 117.93 687.38 120.83 687.40 123.65 687.02 L 122.66 686.36 C 123.31 686.53 124.61 686.86 125.26 687.03 L 124.37 687.71 C 134.22 688.52 144.13 688.13 154.00 688.23 C 168.00 688.10 182.00 688.65 196.00 688.66 C 200.46 688.64 204.93 688.69 209.38 689.09 C 208.10 696.57 203.35 702.89 198.73 708.69 C 194.35 714.32 188.51 718.49 183.25 723.22 C 179.90 725.26 176.50 727.44 174.50 730.95 C 178.65 732.95 183.20 731.23 187.38 730.26 C 197.66 726.40 207.20 720.66 215.60 713.60 C 220.85 708.49 225.13 702.50 229.97 697.02 C 232.62 694.04 234.04 688.66 238.94 689.08 C 256.94 688.42 275.01 688.19 292.99 689.37 C 291.02 701.80 282.54 711.66 276.10 722.03 C 273.44 727.02 270.80 732.40 270.98 738.21 C 271.46 738.19 272.40 738.14 272.87 738.11 C 277.34 734.53 280.73 729.76 285.30 726.29 C 294.67 720.32 303.83 713.63 310.87 704.93 C 314.14 700.73 315.92 695.69 317.77 690.78 C 318.44 688.52 321.15 688.89 322.98 688.70 C 337.24 688.41 351.56 688.05 365.79 689.06 C 367.64 691.39 368.73 694.21 370.26 696.75 C 373.77 703.58 378.73 709.52 383.72 715.31 C 388.17 720.89 394.17 724.92 399.87 729.10 C 404.37 731.94 409.00 735.57 414.59 735.42 C 413.76 732.26 411.41 729.94 409.66 727.30 C 406.45 722.44 402.95 717.73 400.52 712.41 C 396.98 704.95 393.48 697.24 392.55 688.96 C 407.34 688.34 422.15 688.05 436.94 688.61 C 441.09 688.87 445.46 688.13 449.44 689.58 C 450.84 690.93 451.60 692.78 452.55 694.46 C 455.38 700.04 459.32 704.92 463.22 709.77 C 466.96 715.03 472.54 718.49 477.51 722.45 C 485.19 727.45 493.22 732.60 502.39 734.23 C 502.31 733.46 502.15 731.92 502.07 731.14 C 498.78 727.04 494.45 723.90 491.30 719.68 C 489.20 716.79 486.34 714.51 484.53 711.40 C 480.36 704.40 475.42 697.33 474.59 688.99 C 487.45 688.01 500.40 688.12 513.27 688.95 C 513.26 699.02 509.55 708.60 505.94 717.85 C 505.30 719.48 505.05 721.22 504.78 722.95 C 507.42 723.02 510.06 723.07 512.69 722.78 L 511.81 722.25 L 512.86 722.49 C 518.29 718.51 519.38 711.37 521.44 705.40 C 523.17 700.87 523.21 695.80 525.50 691.49 C 528.81 689.68 532.81 689.56 536.39 690.58 C 539.28 691.54 542.10 690.09 544.97 689.82 C 546.67 690.10 548.32 690.66 550.05 690.91 C 552.10 690.55 553.88 689.05 556.01 689.11 C 561.66 689.92 567.45 689.33 573.05 688.38 L 573.75 687.92 C 575.88 687.63 578.07 687.38 580.18 687.99 C 580.57 688.03 581.33 688.12 581.72 688.16 C 583.57 689.04 585.57 689.57 587.54 690.14 C 587.66 693.27 587.81 696.45 588.96 699.41 C 592.94 699.13 595.63 695.88 598.44 693.45 C 602.98 687.47 606.10 679.73 604.65 672.14 C 603.49 667.17 602.68 661.80 599.01 657.94 C 596.08 654.96 593.48 650.73 588.88 650.47 C 588.16 653.58 587.95 656.82 586.94 659.87 C 585.60 661.44 583.48 660.32 581.81 660.16 C 578.91 659.27 575.94 661.07 573.06 660.11 C 569.11 659.08 564.99 659.35 560.96 659.02 C 556.09 658.79 551.23 657.39 546.37 658.41 C 542.87 659.15 539.71 656.20 536.19 657.26 C 532.52 658.15 528.52 657.66 525.27 655.72 C 522.26 645.24 520.18 634.15 514.03 624.93 C 510.66 623.66 506.98 624.05 503.46 624.00 C 503.73 628.44 506.42 632.15 507.81 636.27 C 510.34 643.20 512.93 650.33 513.11 657.79 C 497.78 659.01 482.37 658.33 467.01 658.21 C 464.01 657.99 460.75 658.29 457.97 657.03 C 454.71 653.28 451.84 649.18 448.49 645.50 C 439.37 636.87 427.18 632.91 416.60 626.51 C 410.07 623.56 404.39 619.17 397.97 616.03 C 391.35 611.45 384.53 606.91 379.16 600.85 C 375.54 595.87 372.20 590.55 370.35 584.64 C 366.64 573.41 363.64 561.84 362.79 550.00 C 360.68 530.42 360.35 510.70 359.08 491.06 C 359.11 480.85 357.74 470.66 358.60 460.46 C 359.05 450.11 362.51 439.42 370.11 432.10 C 371.98 430.05 374.93 428.26 374.44 425.05 C 374.14 421.62 375.13 415.91 370.97 414.64 C 366.98 415.31 363.36 417.36 359.33 417.92 C 357.54 409.42 357.17 400.64 357.66 391.99 C 358.09 384.44 364.24 379.04 369.88 374.82 C 374.92 371.40 379.41 366.97 385.06 364.59 L 385.88 365.05 C 387.47 371.60 388.81 378.47 393.05 383.95 C 397.77 389.73 403.53 395.46 411.08 397.09 C 413.65 397.59 415.50 395.37 417.10 393.75 C 423.40 393.45 430.19 393.35 435.50 389.47 C 438.42 386.68 439.98 382.73 443.09 380.11 C 446.22 378.37 449.82 377.67 452.96 375.91 C 460.83 372.35 465.60 364.52 468.83 356.85 C 470.76 352.80 469.35 348.32 469.21 344.07 C 468.91 341.19 469.10 338.05 467.54 335.49 C 465.70 332.99 463.22 330.92 460.34 329.74 C 456.76 328.38 452.40 329.32 449.32 326.69 C 447.69 325.25 445.53 324.89 443.49 324.44 C 441.76 320.51 439.77 316.32 435.88 314.12 C 432.80 312.69 429.28 312.87 425.99 313.10 C 421.76 313.32 418.37 317.40 413.99 316.15 C 409.21 315.28 404.12 315.53 399.72 317.74 C 394.86 319.59 392.13 324.39 389.78 328.72 C 387.53 332.79 387.51 337.57 385.92 341.85 C 383.90 344.44 380.41 345.15 377.59 346.57 C 370.51 349.34 364.21 353.89 356.88 356.05 C 356.62 345.56 354.36 334.94 356.51 324.53 C 358.63 315.39 367.57 310.91 373.66 304.69 C 377.95 301.63 381.17 297.25 385.86 294.75 C 389.94 292.44 393.62 289.35 398.01 287.65 C 401.24 288.34 402.88 291.68 405.49 293.43 C 411.49 297.27 418.87 299.14 425.96 298.19 C 428.83 298.13 429.27 294.45 431.82 293.78 C 434.51 292.86 437.28 292.16 439.98 291.25 C 441.45 292.71 442.85 294.24 444.24 295.78 C 448.72 300.68 455.33 303.79 462.04 303.34 C 464.52 302.95 466.34 300.60 468.96 300.69 C 475.50 300.46 482.62 301.26 488.29 297.26 C 494.48 293.96 496.45 286.77 497.40 280.34 C 497.49 277.83 499.99 276.93 501.70 275.63 C 505.03 273.51 506.54 269.65 508.23 266.26 C 510.40 261.87 510.47 256.89 511.25 252.16 C 511.89 248.23 514.92 245.30 516.04 241.54 C 514.35 240.22 511.50 239.41 511.48 236.85 C 510.82 232.55 511.14 227.94 508.94 224.02 C 507.53 220.66 504.41 218.59 502.21 215.82 C 500.70 213.98 500.10 211.25 497.67 210.35 C 490.61 207.19 482.71 209.25 475.34 209.66 C 472.92 208.17 471.30 205.70 468.92 204.17 C 466.12 202.42 462.99 201.35 460.01 199.97 C 457.35 199.01 457.54 195.00 454.67 194.34 C 445.05 191.99 434.32 194.17 426.93 200.94 C 424.91 202.77 423.05 205.22 420.09 205.40 C 418.83 204.65 418.75 203.01 418.10 201.83 C 416.37 197.35 412.78 193.86 409.08 190.94 C 406.23 188.63 402.59 187.46 400.01 184.83 C 400.64 181.63 404.94 181.24 406.70 178.79 C 409.16 174.43 413.84 172.10 418.06 169.76 C 423.60 170.73 429.43 170.28 434.35 167.33 C 436.90 166.42 436.89 163.33 438.50 161.56 C 441.58 159.72 445.24 158.49 447.47 155.54 C 450.95 150.21 451.87 143.80 453.93 137.89 C 456.05 132.04 455.46 124.73 450.66 120.34 C 448.30 117.42 444.14 116.97 441.63 114.36 C 439.36 108.84 437.80 102.78 433.50 98.37 C 431.68 96.83 429.15 98.04 427.06 98.12 C 422.30 94.19 415.90 94.88 410.20 93.73 C 408.99 88.84 408.29 83.28 404.16 79.85 C 399.95 74.99 392.79 78.20 387.63 75.45 C 384.61 73.87 381.49 72.26 378.02 72.06 C 374.13 71.55 370.51 73.32 366.96 74.61 C 364.44 72.27 362.13 69.58 359.00 68.02 C 347.63 61.70 333.47 59.55 321.10 64.13 Z" />
<path fill="#0000ff" opacity="1.00" d=" M 352.65 262.57 C 354.43 262.46 356.23 262.30 358.03 262.44 C 361.67 264.84 363.83 269.03 367.82 271.02 C 371.82 273.57 376.70 273.81 380.94 275.81 C 375.11 280.86 368.26 284.55 362.22 289.33 C 359.19 291.33 356.63 294.80 352.66 294.65 C 352.36 283.96 352.36 273.26 352.65 262.57 Z" />
<path fill="#0000ff" opacity="1.00" d=" M 317.60 268.64 C 319.30 266.87 324.70 266.58 324.44 270.00 C 324.59 276.35 324.60 282.73 324.38 289.09 C 324.06 289.47 323.43 290.24 323.11 290.63 C 319.03 287.89 315.38 284.56 311.20 281.97 C 312.95 277.37 314.73 272.65 317.60 268.64 Z" />
<path fill="#0000ff" opacity="1.00" d=" M 336.37 633.25 C 339.21 632.72 340.93 635.58 342.80 637.21 C 347.73 642.81 352.28 649.25 354.02 656.60 C 345.70 657.50 337.29 657.76 328.93 657.38 C 326.49 657.51 327.66 654.38 327.84 653.03 C 329.72 646.13 331.63 638.80 336.37 633.25 Z" />
<path fill="#0000ff" opacity="1.00" d=" M 380.51 639.49 C 391.50 641.15 401.39 646.68 410.93 652.10 C 413.31 653.54 416.13 654.85 417.19 657.64 C 406.54 657.50 395.86 657.76 385.26 656.64 C 383.49 650.98 381.48 645.35 380.51 639.49 Z" />
<path fill="#0000ff" opacity="1.00" d=" M 281.64 645.69 C 287.54 643.63 293.95 643.66 299.76 641.29 C 298.48 646.30 298.96 651.54 297.70 656.55 C 286.32 657.67 274.66 658.18 263.36 656.22 C 268.19 650.93 274.98 647.95 281.64 645.69 Z" />
</g>
<g id="#000000ff">
<path fill="#000000" opacity="1.00" d=" M 321.10 64.13 C 333.47 59.55 347.63 61.70 359.00 68.02 C 362.13 69.58 364.44 72.27 366.96 74.61 C 370.51 73.32 374.13 71.55 378.02 72.06 C 381.49 72.26 384.61 73.87 387.63 75.45 C 392.79 78.20 399.95 74.99 404.16 79.85 C 408.29 83.28 408.99 88.84 410.20 93.73 C 415.90 94.88 422.30 94.19 427.06 98.12 C 429.15 98.04 431.68 96.83 433.50 98.37 C 437.80 102.78 439.36 108.84 441.63 114.36 C 444.14 116.97 448.30 117.42 450.66 120.34 C 455.46 124.73 456.05 132.04 453.93 137.89 C 451.87 143.80 450.95 150.21 447.47 155.54 C 445.24 158.49 441.58 159.72 438.50 161.56 C 436.89 163.33 436.90 166.42 434.35 167.33 C 429.43 170.28 423.60 170.73 418.06 169.76 C 413.84 172.10 409.16 174.43 406.70 178.79 C 404.94 181.24 400.64 181.63 400.01 184.83 C 402.59 187.46 406.23 188.63 409.08 190.94 C 412.78 193.86 416.37 197.35 418.10 201.83 C 418.75 203.01 418.83 204.65 420.09 205.40 C 423.05 205.22 424.91 202.77 426.93 200.94 C 434.32 194.17 445.05 191.99 454.67 194.34 C 457.54 195.00 457.35 199.01 460.01 199.97 C 462.99 201.35 466.12 202.42 468.92 204.17 C 471.30 205.70 472.92 208.17 475.34 209.66 C 482.71 209.25 490.61 207.19 497.67 210.35 C 500.10 211.25 500.70 213.98 502.21 215.82 C 504.41 218.59 507.53 220.66 508.94 224.02 C 511.14 227.94 510.82 232.55 511.48 236.85 C 511.50 239.41 514.35 240.22 516.04 241.54 C 514.92 245.30 511.89 248.23 511.25 252.16 C 510.47 256.89 510.40 261.87 508.23 266.26 C 506.54 269.65 505.03 273.51 501.70 275.63 C 499.99 276.93 497.49 277.83 497.40 280.34 C 496.45 286.77 494.48 293.96 488.29 297.26 C 482.62 301.26 475.50 300.46 468.96 300.69 C 466.34 300.60 464.52 302.95 462.04 303.34 C 455.33 303.79 448.72 300.68 444.24 295.78 C 442.85 294.24 441.45 292.71 439.98 291.25 C 437.28 292.16 434.51 292.86 431.82 293.78 C 429.27 294.45 428.83 298.13 425.96 298.19 C 418.87 299.14 411.49 297.27 405.49 293.43 C 402.88 291.68 401.24 288.34 398.01 287.65 C 393.62 289.35 389.94 292.44 385.86 294.75 C 381.17 297.25 377.95 301.63 373.66 304.69 C 367.57 310.91 358.63 315.39 356.51 324.53 C 354.36 334.94 356.62 345.56 356.88 356.05 C 364.21 353.89 370.51 349.34 377.59 346.57 C 380.41 345.15 383.90 344.44 385.92 341.85 C 387.51 337.57 387.53 332.79 389.78 328.72 C 392.13 324.39 394.86 319.59 399.72 317.74 C 404.12 315.53 409.21 315.28 413.99 316.15 C 418.37 317.40 421.76 313.32 425.99 313.10 C 429.28 312.87 432.80 312.69 435.88 314.12 C 439.77 316.32 441.76 320.51 443.49 324.44 C 445.53 324.89 447.69 325.25 449.32 326.69 C 452.40 329.32 456.76 328.38 460.34 329.74 C 463.22 330.92 465.70 332.99 467.54 335.49 C 469.10 338.05 468.91 341.19 469.21 344.07 C 469.35 348.32 470.76 352.80 468.83 356.85 C 465.60 364.52 460.83 372.35 452.96 375.91 C 449.82 377.67 446.22 378.37 443.09 380.11 C 439.98 382.73 438.42 386.68 435.50 389.47 C 430.19 393.35 423.40 393.45 417.10 393.75 C 415.50 395.37 413.65 397.59 411.08 397.09 C 403.53 395.46 397.77 389.73 393.05 383.95 C 388.81 378.47 387.47 371.60 385.88 365.05 L 385.06 364.59 C 379.41 366.97 374.92 371.40 369.88 374.82 C 364.24 379.04 358.09 384.44 357.66 391.99 C 357.17 400.64 357.54 409.42 359.33 417.92 C 363.36 417.36 366.98 415.31 370.97 414.64 C 375.13 415.91 374.14 421.62 374.44 425.05 C 374.93 428.26 371.98 430.05 370.11 432.10 C 362.51 439.42 359.05 450.11 358.60 460.46 C 357.74 470.66 359.11 480.85 359.08 491.06 C 360.35 510.70 360.68 530.42 362.79 550.00 C 363.64 561.84 366.64 573.41 370.35 584.64 C 372.20 590.55 375.54 595.87 379.16 600.85 C 384.53 606.91 391.35 611.45 397.97 616.03 C 404.39 619.17 410.07 623.56 416.60 626.51 C 427.18 632.91 439.37 636.87 448.49 645.50 C 451.84 649.18 454.71 653.28 457.97 657.03 C 460.75 658.29 464.01 657.99 467.01 658.21 C 482.37 658.33 497.78 659.01 513.11 657.79 C 512.93 650.33 510.34 643.20 507.81 636.27 C 506.42 632.15 503.73 628.44 503.46 624.00 C 506.98 624.05 510.66 623.66 514.03 624.93 C 520.18 634.15 522.26 645.24 525.27 655.72 C 528.52 657.66 532.52 658.15 536.19 657.26 C 539.71 656.20 542.87 659.15 546.37 658.41 C 551.23 657.39 556.09 658.79 560.96 659.02 C 564.99 659.35 569.11 659.08 573.06 660.11 C 575.94 661.07 578.91 659.27 581.81 660.16 C 583.48 660.32 585.60 661.44 586.94 659.87 C 587.95 656.82 588.16 653.58 588.88 650.47 C 593.48 650.73 596.08 654.96 599.01 657.94 C 602.68 661.80 603.49 667.17 604.65 672.14 C 606.10 679.73 602.98 687.47 598.44 693.45 C 595.63 695.88 592.94 699.13 588.96 699.41 C 587.81 696.45 587.66 693.27 587.54 690.14 C 585.57 689.57 583.57 689.04 581.72 688.16 C 583.58 687.67 585.41 687.02 587.23 686.36 C 587.67 678.57 588.24 670.79 587.98 662.99 C 587.29 662.99 585.92 663.00 585.24 663.00 C 583.21 670.63 581.19 678.26 578.61 685.73 C 579.01 686.29 579.79 687.42 580.18 687.99 C 578.07 687.38 575.88 687.63 573.75 687.92 C 577.27 686.25 577.79 682.11 578.92 678.82 C 580.24 673.61 582.24 668.55 582.84 663.19 C 580.48 662.32 576.66 661.19 575.21 664.03 C 572.26 671.45 570.82 679.37 568.18 686.91 C 569.78 687.43 571.40 687.93 573.05 688.38 C 567.45 689.33 561.66 689.92 556.01 689.11 C 553.88 689.05 552.10 690.55 550.05 690.91 C 548.32 690.66 546.67 690.10 544.97 689.82 C 542.10 690.09 539.28 691.54 536.39 690.58 C 532.81 689.56 528.81 689.68 525.50 691.49 C 523.21 695.80 523.17 700.87 521.44 705.40 C 519.38 711.37 518.29 718.51 512.86 722.49 C 517.10 712.22 520.77 701.61 522.80 690.67 C 524.08 680.20 524.20 669.60 523.07 659.11 C 521.00 647.69 517.59 636.49 512.62 626.00 C 510.36 626.00 508.10 626.00 505.85 626.00 C 507.99 630.68 509.91 635.46 511.74 640.27 C 513.87 646.78 514.82 653.61 516.85 660.15 C 517.25 668.10 516.87 676.08 517.03 684.05 C 517.21 687.56 515.33 690.72 515.10 694.20 C 514.03 703.62 510.14 712.35 507.00 721.20 C 508.60 721.54 510.20 721.87 511.81 722.25 L 512.69 722.78 C 510.06 723.07 507.42 723.02 504.78 722.95 C 505.05 721.22 505.30 719.48 505.94 717.85 C 509.55 708.60 513.26 699.02 513.27 688.95 C 500.40 688.12 487.45 688.01 474.59 688.99 C 475.42 697.33 480.36 704.40 484.53 711.40 C 486.34 714.51 489.20 716.79 491.30 719.68 C 494.45 723.90 498.78 727.04 502.07 731.14 C 502.15 731.92 502.31 733.46 502.39 734.23 C 493.22 732.60 485.19 727.45 477.51 722.45 C 472.54 718.49 466.96 715.03 463.22 709.77 C 459.32 704.92 455.38 700.04 452.55 694.46 C 451.60 692.78 450.84 690.93 449.44 689.58 C 445.46 688.13 441.09 688.87 436.94 688.61 C 422.15 688.05 407.34 688.34 392.55 688.96 C 393.48 697.24 396.98 704.95 400.52 712.41 C 402.95 717.73 406.45 722.44 409.66 727.30 C 411.41 729.94 413.76 732.26 414.59 735.42 C 409.00 735.57 404.37 731.94 399.87 729.10 C 394.17 724.92 388.17 720.89 383.72 715.31 C 378.73 709.52 373.77 703.58 370.26 696.75 C 368.73 694.21 367.64 691.39 365.79 689.06 C 351.56 688.05 337.24 688.41 322.98 688.70 C 321.15 688.89 318.44 688.52 317.77 690.78 C 315.92 695.69 314.14 700.73 310.87 704.93 C 303.83 713.63 294.67 720.32 285.30 726.29 C 280.73 729.76 277.34 734.53 272.87 738.11 C 272.40 738.14 271.46 738.19 270.98 738.21 C 270.80 732.40 273.44 727.02 276.10 722.03 C 282.54 711.66 291.02 701.80 292.99 689.37 C 275.01 688.19 256.94 688.42 238.94 689.08 C 234.04 688.66 232.62 694.04 229.97 697.02 C 225.13 702.50 220.85 708.49 215.60 713.60 C 207.20 720.66 197.66 726.40 187.38 730.26 C 183.20 731.23 178.65 732.95 174.50 730.95 C 176.50 727.44 179.90 725.26 183.25 723.22 C 188.51 718.49 194.35 714.32 198.73 708.69 C 203.35 702.89 208.10 696.57 209.38 689.09 C 204.93 688.69 200.46 688.64 196.00 688.66 C 182.00 688.65 168.00 688.10 154.00 688.23 C 144.13 688.13 134.22 688.52 124.37 687.71 L 125.26 687.03 C 154.13 687.08 183.01 686.94 211.87 686.12 C 215.14 682.72 216.37 677.90 218.94 674.00 C 188.96 674.07 158.97 673.78 128.99 674.33 C 114.69 674.31 100.38 675.03 86.09 674.45 C 97.52 680.48 109.97 684.23 122.66 686.36 L 123.65 687.02 C 120.83 687.40 117.93 687.38 115.15 686.76 C 104.31 683.82 93.61 680.19 83.38 675.56 C 81.06 675.13 80.91 671.91 83.04 671.12 C 92.64 665.92 103.13 662.60 113.63 659.72 C 119.60 658.03 125.87 658.73 131.99 658.51 C 156.99 657.78 182.00 658.23 206.99 657.46 C 213.33 657.26 219.69 657.46 226.03 657.19 C 229.05 657.30 230.45 654.17 232.43 652.44 C 236.57 648.54 239.51 643.48 244.33 640.30 C 249.12 635.33 254.67 631.22 260.49 627.53 C 268.57 621.59 278.15 618.14 286.26 612.27 C 289.52 609.54 293.14 607.18 295.82 603.84 C 300.17 598.34 304.89 592.88 307.26 586.17 C 311.93 575.06 312.98 562.92 313.95 551.04 C 314.94 533.04 315.00 515.02 315.44 497.00 C 315.34 492.10 315.35 487.18 314.65 482.32 C 313.75 475.57 308.25 470.58 302.66 467.32 C 300.22 465.81 296.55 464.52 296.77 461.02 C 296.45 454.31 296.33 447.54 297.09 440.85 C 300.75 440.28 303.80 442.67 306.94 444.12 C 310.08 445.78 313.42 447.09 316.97 447.50 C 317.04 437.68 317.14 427.87 316.51 418.07 C 316.08 412.57 317.22 406.65 314.51 401.58 C 311.44 395.61 307.03 390.17 301.11 386.84 C 296.98 384.50 293.29 380.43 288.29 380.31 C 285.84 381.84 283.47 384.11 283.31 387.18 C 282.78 393.15 280.45 399.84 274.67 402.57 C 264.56 407.82 252.44 403.54 244.61 396.22 C 238.92 394.46 232.60 395.55 227.10 392.93 C 221.48 390.48 214.75 386.79 214.12 379.98 C 213.49 376.42 210.61 373.86 209.58 370.46 C 208.26 365.91 209.04 361.08 210.80 356.77 C 212.08 354.32 209.97 351.83 210.39 349.33 C 211.60 345.58 215.14 343.34 218.36 341.44 C 223.61 338.41 229.74 337.95 235.54 336.69 C 236.66 333.61 239.67 332.71 242.24 331.23 C 245.11 327.20 247.90 322.94 252.06 320.09 C 261.38 314.71 274.23 316.55 281.61 324.39 C 284.87 327.75 290.17 328.08 293.16 331.83 C 296.98 335.46 296.55 341.19 296.36 346.01 C 296.26 351.16 293.47 355.63 291.36 360.16 C 294.48 363.40 298.75 365.06 302.31 367.73 C 307.92 371.26 313.49 375.07 319.80 377.26 C 320.87 362.22 320.65 347.10 320.20 332.03 C 319.97 326.97 319.98 321.71 318.00 316.96 C 315.74 311.33 311.06 307.28 307.20 302.79 C 302.29 299.00 297.79 293.25 291.07 293.18 C 285.16 293.04 279.51 295.10 273.90 296.69 C 272.51 295.02 271.77 291.63 269.01 292.13 C 266.14 291.85 265.05 294.79 263.65 296.70 C 260.08 302.24 254.64 307.01 247.95 308.08 C 240.93 309.45 234.00 306.67 226.97 307.22 C 221.98 307.61 216.71 307.34 212.33 304.64 C 208.48 302.84 206.55 298.92 204.39 295.51 C 202.70 294.54 200.59 295.36 198.76 295.45 C 187.55 297.52 174.92 293.22 168.74 283.30 C 167.02 280.96 169.39 278.48 169.42 276.03 C 167.69 271.18 164.54 266.46 165.16 261.09 C 165.84 256.78 166.74 252.14 169.91 248.91 C 173.01 245.85 173.76 241.41 175.70 237.67 C 179.42 229.68 188.27 225.09 196.83 224.73 C 199.79 224.37 203.18 224.73 205.45 222.39 C 207.57 220.32 210.72 220.49 213.24 219.22 C 217.74 215.71 221.71 211.36 227.04 209.07 C 233.38 206.16 240.76 204.73 247.62 206.53 C 250.87 207.17 254.00 208.97 257.40 208.44 C 261.27 207.83 265.19 209.30 269.01 208.08 C 273.05 206.90 277.56 207.33 281.33 205.41 C 282.75 202.97 283.41 200.16 284.86 197.74 C 286.09 195.56 288.18 193.78 288.34 191.13 C 283.28 189.95 277.99 189.74 273.11 187.91 C 270.72 187.05 270.02 184.31 268.32 182.67 C 265.64 180.92 262.44 180.06 259.92 178.05 C 257.28 175.52 255.53 172.20 254.20 168.83 C 252.25 163.01 244.36 162.69 241.77 157.30 C 240.68 155.02 239.71 152.58 239.66 150.03 C 239.86 145.74 241.43 141.52 240.63 137.21 C 239.25 130.03 240.98 121.66 246.86 116.88 C 250.32 113.45 255.41 112.86 259.44 110.44 C 262.70 106.96 263.79 101.70 268.04 99.10 C 272.13 95.97 277.08 94.42 281.95 92.99 C 285.12 92.23 285.14 88.13 287.50 86.40 C 289.44 85.58 291.57 85.28 293.53 84.50 C 295.77 82.71 296.88 79.92 298.92 77.94 C 302.52 74.90 307.36 74.34 311.63 72.73 C 314.57 69.67 316.90 65.64 321.10 64.13 M 320.64 67.72 C 317.22 69.50 315.31 72.97 314.60 76.65 C 310.25 77.31 305.26 76.71 301.62 79.67 C 298.41 82.32 296.85 86.33 294.60 89.73 C 292.74 89.52 290.67 87.89 288.89 88.90 C 287.62 91.13 286.92 93.62 285.94 95.99 C 280.21 96.70 274.26 98.02 269.61 101.64 C 265.64 104.54 264.01 109.41 262.87 113.97 C 259.18 114.66 255.26 114.96 252.00 116.99 C 247.50 119.56 244.01 124.02 243.04 129.16 C 241.47 134.02 245.38 138.83 243.67 143.65 C 242.95 146.72 241.55 149.92 242.88 153.04 C 244.45 159.14 251.00 161.27 255.68 164.35 C 256.56 168.77 258.51 173.01 262.00 175.98 C 264.99 179.02 269.35 179.66 273.18 181.09 C 273.32 182.52 273.47 183.95 273.64 185.38 C 281.58 188.16 290.21 188.13 298.34 186.28 C 306.01 183.78 314.08 180.82 319.41 174.44 C 320.72 173.21 322.56 170.59 324.47 172.42 C 330.62 177.63 338.50 180.20 346.44 180.92 C 345.26 181.50 344.05 182.01 342.81 182.45 C 341.28 182.15 339.76 181.83 338.24 181.57 C 334.96 180.18 331.58 179.04 328.28 177.70 C 326.62 176.47 324.91 175.31 323.23 174.13 C 318.79 178.54 313.84 182.65 307.94 184.91 C 306.49 185.65 304.53 186.00 303.71 187.53 C 300.68 195.81 303.14 206.32 310.40 211.65 C 311.42 212.66 313.06 213.42 313.21 215.02 C 313.19 217.73 311.72 220.23 311.81 222.92 C 312.58 226.36 313.77 230.17 316.98 232.09 C 320.36 234.41 324.62 234.44 328.55 234.14 C 328.72 236.84 329.25 239.76 331.33 241.69 C 336.57 246.44 343.49 248.50 349.83 251.30 C 352.74 252.46 353.98 255.57 355.75 257.92 C 356.75 256.93 357.76 255.95 358.78 254.97 C 359.00 255.24 359.45 255.77 359.67 256.03 C 360.92 264.03 368.17 269.68 375.75 271.31 C 380.86 272.38 386.43 272.78 391.40 270.89 C 391.99 270.98 393.15 271.15 393.73 271.23 C 396.33 279.06 400.63 286.69 407.58 291.42 C 412.77 295.15 419.41 295.66 425.59 295.90 C 425.69 294.31 425.82 292.73 425.97 291.15 C 427.93 291.01 429.90 290.95 431.86 290.69 C 435.26 290.40 437.76 287.81 440.76 286.47 C 444.98 294.64 453.01 301.55 462.70 300.96 C 462.97 299.27 463.23 297.59 463.47 295.90 C 467.62 296.83 471.73 298.22 476.03 298.24 C 481.89 297.97 487.99 295.34 491.16 290.20 C 493.63 285.97 493.74 280.92 493.95 276.17 C 495.33 275.63 496.77 275.20 498.07 274.46 C 505.20 270.41 506.96 261.53 507.84 254.04 C 507.76 249.94 509.91 246.39 511.81 242.92 C 510.51 242.14 509.21 241.37 507.91 240.62 C 510.22 231.10 505.66 220.45 496.52 216.42 C 496.34 215.29 496.17 214.17 496.01 213.05 C 493.63 212.36 491.21 211.84 488.75 211.65 C 487.72 211.43 486.59 211.00 485.58 211.43 C 481.15 211.23 477.11 213.17 473.00 214.48 C 471.63 211.84 470.38 208.92 467.83 207.18 C 463.23 203.58 457.25 202.97 451.89 201.07 C 452.32 199.73 452.77 198.39 453.20 197.04 C 448.70 196.20 443.83 195.70 439.56 197.74 C 433.21 198.85 428.47 203.64 424.08 207.99 C 422.09 210.04 418.91 208.87 416.40 208.81 C 416.20 200.61 409.70 194.70 403.09 190.89 C 399.50 189.00 395.91 186.98 391.98 185.92 C 386.35 186.19 380.67 186.91 375.04 186.04 C 370.97 185.29 367.52 182.89 363.85 181.19 C 361.07 181.47 358.34 182.09 355.59 182.51 L 354.85 180.91 C 357.88 180.07 360.89 179.15 363.98 178.53 C 367.88 181.01 371.88 183.85 376.65 184.20 C 385.11 185.84 393.89 183.30 401.36 179.34 C 403.35 178.64 402.68 176.52 402.42 174.97 C 405.28 173.72 408.30 172.71 410.80 170.77 C 412.66 169.46 414.05 167.50 416.12 166.47 C 418.78 166.63 421.36 167.45 424.02 167.66 C 427.46 167.51 430.64 166.00 433.74 164.62 C 433.51 163.22 433.27 161.82 433.08 160.42 C 437.58 158.98 442.27 157.10 445.33 153.32 C 448.14 149.22 448.39 144.09 449.51 139.39 C 451.00 136.46 453.65 133.57 452.40 130.01 C 451.19 123.03 444.63 118.69 437.99 117.81 C 437.52 111.68 435.80 105.34 431.20 100.97 C 429.95 101.99 428.66 102.95 427.36 103.89 C 425.02 101.34 422.50 98.53 418.93 97.84 C 414.77 96.55 410.53 98.01 406.41 98.66 C 407.35 91.68 405.43 82.78 398.23 79.87 C 394.78 77.64 390.94 83.29 387.95 80.03 C 384.67 76.97 380.36 75.29 375.98 74.58 C 371.75 74.84 369.04 78.27 365.47 80.00 C 361.72 70.49 351.13 66.77 341.84 65.25 C 334.76 63.71 327.12 64.38 320.64 67.72 M 295.08 190.07 C 289.46 195.21 284.88 201.81 283.72 209.47 C 276.98 208.86 270.49 211.08 264.00 212.46 C 262.48 212.99 261.28 211.51 259.96 211.04 C 258.05 211.59 255.98 213.23 254.00 212.01 C 250.11 210.10 245.88 209.04 241.60 208.45 C 230.49 208.39 220.92 215.39 213.89 223.44 C 212.27 223.36 210.62 223.25 209.04 223.68 C 207.62 224.36 206.94 225.91 205.80 226.92 C 200.71 227.32 195.53 227.28 190.59 228.73 C 184.09 230.84 178.58 236.14 176.71 242.78 C 175.90 245.64 174.79 248.51 172.53 250.55 C 168.30 254.32 167.52 260.50 168.52 265.81 C 169.27 270.00 171.70 273.58 173.83 277.17 C 173.81 279.24 170.83 280.43 171.35 282.65 C 176.20 289.58 184.72 293.12 192.99 293.49 C 197.26 292.97 201.47 292.03 205.70 291.20 C 207.41 296.00 210.39 300.51 214.87 303.14 C 220.26 305.78 226.34 304.49 232.01 303.83 C 236.88 304.49 241.67 307.53 246.67 305.78 C 255.58 304.34 261.12 296.19 265.01 288.77 C 267.99 288.79 270.93 289.27 273.81 290.03 C 274.31 291.06 274.81 292.09 275.32 293.13 C 279.43 291.86 283.70 291.25 287.86 290.23 C 292.02 290.00 295.96 288.44 299.67 286.65 C 307.55 282.74 312.36 274.50 314.43 266.21 C 319.98 265.45 325.67 265.12 330.95 263.07 C 336.56 260.70 342.02 256.85 344.62 251.16 C 340.67 249.49 336.98 247.27 332.93 245.85 C 332.69 245.69 332.22 245.37 331.99 245.20 C 329.80 242.44 327.48 239.64 326.86 236.05 C 322.12 236.00 316.70 235.51 313.68 231.32 C 309.92 227.52 310.25 221.89 310.43 216.97 C 310.88 213.99 308.00 212.45 306.05 210.86 C 303.62 206.98 301.09 203.06 300.39 198.44 C 300.39 194.84 300.75 191.18 299.89 187.65 C 298.24 188.35 296.47 188.90 295.08 190.07 M 347.02 252.03 C 342.37 258.97 335.36 264.24 327.18 266.16 C 327.38 276.99 326.11 287.89 327.34 298.67 C 320.52 293.91 315.26 286.72 307.19 283.92 C 303.93 286.39 300.60 288.81 296.94 290.65 C 299.25 293.55 302.58 295.31 305.40 297.64 C 312.59 303.59 319.32 310.84 321.98 320.01 C 322.85 325.29 322.78 330.67 323.11 336.00 C 323.18 351.46 323.16 366.92 323.05 382.38 C 321.61 382.08 320.08 381.96 318.81 381.14 C 311.49 376.84 304.12 372.62 296.97 368.06 C 296.01 367.39 294.94 367.09 293.77 367.17 C 292.82 364.31 289.23 363.72 287.04 361.98 C 285.65 361.16 282.22 359.03 281.93 361.89 C 284.19 366.27 286.95 370.53 287.59 375.57 C 289.32 376.62 291.08 377.63 292.96 378.42 C 294.70 379.59 296.56 380.57 298.35 381.68 C 308.61 387.40 317.80 396.97 319.56 409.00 C 319.58 417.65 319.52 426.31 319.51 434.97 C 318.85 440.38 319.00 445.84 318.96 451.28 C 311.30 451.59 305.58 445.36 298.36 443.83 C 298.16 449.79 298.52 455.75 298.48 461.71 C 299.92 462.63 301.38 463.52 302.87 464.37 C 306.40 467.05 310.68 468.88 313.46 472.45 C 315.17 474.98 316.29 477.87 317.38 480.72 C 318.59 486.74 318.18 492.89 318.16 498.99 C 318.30 512.00 317.00 524.98 317.16 537.99 C 317.31 547.09 316.47 556.16 315.45 565.19 C 314.20 573.33 312.61 581.54 309.22 589.11 C 307.76 592.45 305.45 595.34 304.12 598.75 C 303.16 599.57 302.22 600.43 301.48 601.47 C 293.35 613.42 279.71 619.51 267.59 626.52 C 253.65 634.70 241.15 645.49 231.40 658.42 C 227.92 663.48 224.02 668.36 221.83 674.17 C 219.68 676.42 218.68 679.49 217.13 682.16 C 212.01 691.60 208.03 701.79 201.24 710.22 C 195.36 717.63 187.37 722.85 180.56 729.28 C 191.52 726.90 201.71 721.48 210.26 714.27 C 226.01 700.95 235.92 682.55 248.27 666.34 C 253.01 661.09 257.63 655.66 263.23 651.28 C 267.05 648.29 271.60 646.47 275.61 643.79 C 285.01 640.97 294.87 640.08 304.11 636.73 C 303.03 643.81 300.83 650.76 300.93 657.99 C 308.24 658.28 315.52 657.61 322.82 657.45 C 325.88 647.94 327.56 637.19 334.77 629.74 C 336.92 627.29 339.75 630.02 341.55 631.50 C 349.21 637.75 353.34 646.90 357.98 655.35 C 358.59 658.70 360.03 661.82 360.99 665.09 C 365.01 677.67 368.32 690.90 376.31 701.71 C 381.23 708.19 386.02 715.18 392.80 719.84 C 394.89 722.92 398.24 724.70 401.17 726.85 C 403.39 728.46 405.67 730.06 408.27 731.03 C 407.12 729.13 406.36 726.56 404.26 725.54 C 397.89 714.35 392.04 702.70 388.85 690.15 C 386.84 681.78 384.59 673.46 383.08 664.98 C 381.09 655.03 377.70 645.45 375.14 635.65 C 379.84 634.94 384.52 636.48 388.89 638.09 C 401.08 642.30 412.29 648.89 422.87 656.18 C 424.24 657.02 425.54 658.25 427.25 658.25 C 436.50 658.65 445.75 659.06 455.01 658.74 C 450.71 652.89 446.06 647.19 440.19 642.83 C 428.77 635.53 416.09 630.53 404.49 623.54 C 394.64 617.72 384.68 611.63 376.95 603.07 C 374.18 600.13 372.72 596.27 370.20 593.18 C 360.82 571.37 358.90 547.39 357.82 523.96 C 356.73 511.99 356.92 499.97 355.97 488.00 C 355.69 479.03 355.56 470.06 355.42 461.10 C 355.45 448.91 360.44 436.77 369.42 428.47 C 372.66 425.86 371.47 421.33 370.85 417.83 C 366.67 418.68 362.51 419.92 358.78 422.04 C 358.02 422.06 356.49 422.12 355.72 422.15 C 354.82 411.11 354.58 400.02 354.89 388.96 C 356.37 380.43 364.12 375.32 370.62 370.59 C 375.96 366.16 381.84 362.52 387.51 358.55 C 388.87 357.82 390.23 356.33 391.90 357.10 C 391.93 358.23 391.56 359.26 390.78 360.17 L 389.82 360.55 C 387.03 375.53 398.21 390.66 412.38 394.93 C 413.10 393.36 413.92 391.86 414.81 390.39 C 419.39 391.07 424.21 391.37 428.61 389.63 C 434.40 387.85 437.41 382.17 440.56 377.48 C 444.38 375.88 448.68 375.46 452.24 373.20 C 459.61 368.58 465.00 360.88 467.02 352.44 C 466.26 352.24 464.75 351.84 463.99 351.64 C 464.75 349.88 465.63 348.17 466.25 346.35 C 467.54 342.84 466.12 338.86 463.93 336.04 C 459.90 331.24 452.96 331.46 447.25 331.04 C 446.95 330.40 446.33 329.13 446.03 328.50 C 443.88 329.27 441.68 329.90 439.42 330.14 C 439.63 326.55 439.42 322.71 437.39 319.61 C 435.48 316.98 432.21 315.84 429.12 315.37 C 425.30 315.73 422.10 318.02 418.65 319.46 C 415.19 319.81 411.78 318.30 408.32 318.47 C 405.21 319.00 402.11 319.85 399.29 321.29 C 393.42 325.78 389.95 333.09 390.08 340.48 C 391.40 341.27 392.78 342.11 393.45 343.58 C 395.18 346.76 397.45 349.69 398.66 353.12 C 398.31 354.08 397.65 354.89 397.06 355.72 C 395.68 356.06 394.35 356.94 392.91 356.80 C 392.40 354.79 394.75 353.97 395.87 352.74 C 394.72 349.62 393.25 346.48 390.76 344.21 C 379.26 348.05 368.62 354.20 357.95 359.91 C 356.56 360.70 354.96 360.91 353.41 361.10 C 353.64 349.07 352.15 337.05 353.01 325.03 C 354.13 319.42 357.57 314.53 361.95 310.94 C 370.48 303.77 378.32 295.67 387.95 289.92 C 390.75 287.93 394.35 286.76 396.41 283.94 C 395.70 280.13 393.46 276.79 392.15 273.16 C 378.45 281.08 365.50 290.28 353.19 300.22 C 352.09 300.98 350.95 302.27 349.48 301.64 C 349.22 285.51 349.31 269.36 349.63 253.23 C 348.76 252.82 347.89 252.42 347.02 252.03 M 352.65 262.57 C 352.36 273.26 352.36 283.96 352.66 294.65 C 356.63 294.80 359.19 291.33 362.22 289.33 C 368.26 284.55 375.11 280.86 380.94 275.81 C 376.70 273.81 371.82 273.57 367.82 271.02 C 363.83 269.03 361.67 264.84 358.03 262.44 C 356.23 262.30 354.43 262.46 352.65 262.57 M 317.60 268.64 C 314.73 272.65 312.95 277.37 311.20 281.97 C 315.38 284.56 319.03 287.89 323.11 290.63 C 323.43 290.24 324.06 289.47 324.38 289.09 C 324.60 282.73 324.59 276.35 324.44 270.00 C 324.70 266.58 319.30 266.87 317.60 268.64 M 255.68 321.69 C 250.84 324.34 246.69 328.57 244.87 333.85 C 244.35 336.22 241.44 335.72 239.64 336.36 C 239.38 337.65 239.10 338.94 238.80 340.23 C 229.57 339.97 219.47 342.05 213.15 349.31 C 213.15 351.52 215.98 353.34 214.55 355.53 C 212.70 359.45 210.30 363.78 211.70 368.24 C 212.36 371.99 214.99 374.84 217.47 377.54 C 218.98 379.12 217.41 381.30 217.11 383.07 C 220.10 385.77 223.15 388.58 226.94 390.12 C 232.50 392.44 238.64 392.91 244.61 392.60 C 248.86 396.53 253.67 400.17 259.39 401.60 C 265.64 403.85 273.26 401.64 277.35 396.40 C 279.82 393.15 279.72 388.87 280.33 385.02 C 280.50 381.94 283.96 380.59 284.89 377.82 C 285.27 372.50 282.88 367.43 279.53 363.43 C 277.56 360.82 281.26 358.95 282.93 357.55 C 284.93 357.93 288.20 360.25 289.31 357.35 C 293.01 350.90 295.04 342.82 292.28 335.65 C 290.48 331.56 285.77 330.47 282.03 328.94 C 279.20 326.82 277.05 323.74 273.71 322.30 C 268.06 319.98 261.41 319.21 255.68 321.69 M 336.37 633.25 C 331.63 638.80 329.72 646.13 327.84 653.03 C 327.66 654.38 326.49 657.51 328.93 657.38 C 337.29 657.76 345.70 657.50 354.02 656.60 C 352.28 649.25 347.73 642.81 342.80 637.21 C 340.93 635.58 339.21 632.72 336.37 633.25 M 380.51 639.49 C 381.48 645.35 383.49 650.98 385.26 656.64 C 395.86 657.76 406.54 657.50 417.19 657.64 C 416.13 654.85 413.31 653.54 410.93 652.10 C 401.39 646.68 391.50 641.15 380.51 639.49 M 281.64 645.69 C 274.98 647.95 268.19 650.93 263.36 656.22 C 274.66 658.18 286.32 657.67 297.70 656.55 C 298.96 651.54 298.48 646.30 299.76 641.29 C 293.95 643.66 287.54 643.63 281.64 645.69 M 590.95 652.92 C 590.26 654.15 589.80 655.48 589.98 656.92 C 590.09 670.41 589.86 683.91 590.10 697.40 C 593.08 695.36 595.47 692.61 597.98 690.04 C 602.07 684.69 602.95 677.68 602.98 671.14 C 601.89 667.43 600.45 663.78 598.42 660.49 C 596.09 657.81 593.44 655.44 590.95 652.92 M 525.03 658.81 C 524.82 663.36 525.43 667.90 526.22 672.37 C 527.91 668.38 530.00 664.46 530.97 660.22 C 529.04 659.55 527.04 659.10 525.03 658.81 M 532.99 660.88 C 530.35 666.68 528.34 672.75 525.94 678.65 C 524.90 682.04 524.99 685.66 525.02 689.18 C 527.57 688.80 530.06 688.17 532.56 687.54 C 533.58 685.43 534.56 683.28 535.15 681.01 C 537.01 673.95 540.57 667.42 541.94 660.22 C 539.09 658.84 535.52 658.86 532.99 660.88 M 122.00 660.78 C 110.94 661.87 100.42 665.91 90.27 670.25 C 88.56 670.88 86.92 671.71 85.53 672.90 C 130.27 673.12 175.02 672.96 219.77 672.98 C 221.76 668.42 224.50 664.26 227.11 660.05 C 192.07 659.76 157.03 660.22 122.00 660.78 M 256.18 660.90 C 252.67 664.62 249.46 668.66 246.68 672.95 C 284.80 673.04 322.91 673.01 361.03 672.97 C 359.54 668.94 358.51 664.77 357.02 660.75 C 346.69 660.64 336.35 660.51 326.01 660.34 C 302.74 659.71 279.44 660.48 256.18 660.90 M 384.98 660.45 C 385.00 664.45 386.06 668.34 386.91 672.22 C 429.62 672.75 472.32 673.21 515.03 673.00 C 515.12 668.91 514.64 664.85 514.18 660.80 C 498.79 660.58 483.39 660.50 468.00 660.27 C 440.33 659.67 412.65 660.50 384.98 660.45 M 543.47 662.48 C 540.49 671.02 537.45 679.54 534.57 688.11 C 538.31 689.53 544.42 689.14 545.41 684.43 C 547.86 676.68 550.80 669.07 552.97 661.25 C 549.94 659.81 545.61 659.32 543.47 662.48 M 554.69 662.41 C 551.76 670.88 548.95 679.40 546.19 687.92 C 549.42 688.96 553.38 689.84 555.56 686.46 C 558.51 678.09 561.30 669.63 563.11 660.93 C 560.36 661.30 556.98 660.74 554.69 662.41 M 564.98 663.05 C 562.52 670.37 560.60 677.87 558.09 685.19 C 556.79 687.30 559.59 687.96 560.81 689.10 C 562.48 688.20 564.27 687.57 566.08 687.02 C 568.74 679.53 570.52 671.76 573.18 664.26 C 573.76 663.16 573.25 661.99 573.02 660.89 C 570.37 661.32 566.77 660.62 564.98 663.05 M 245.00 674.75 C 242.05 678.69 239.02 682.60 236.72 686.97 C 279.53 687.03 322.35 686.99 365.16 686.98 C 364.24 682.61 362.50 678.46 361.55 674.10 C 322.70 673.65 283.85 674.34 245.00 674.75 M 387.09 673.99 C 388.33 678.34 389.22 682.79 390.82 687.04 C 432.21 686.95 473.61 687.03 515.00 687.00 C 515.00 682.66 515.00 678.33 515.00 674.00 C 472.36 673.99 429.72 674.01 387.09 673.99 M 296.57 689.49 C 294.53 694.72 292.76 700.07 289.92 704.95 C 285.74 714.42 277.51 721.78 274.90 731.97 C 279.73 727.75 284.36 723.25 289.83 719.85 C 300.86 712.44 311.93 702.90 314.95 689.33 C 309.37 688.44 303.67 688.22 298.05 688.72 C 297.68 688.91 296.94 689.30 296.57 689.49 M 452.90 689.40 C 454.30 693.04 456.01 696.74 459.06 699.32 C 459.29 700.23 459.70 701.06 460.29 701.81 C 466.09 709.25 472.62 716.24 480.59 721.40 C 485.28 724.29 489.85 727.55 495.18 729.21 C 491.43 724.51 487.04 720.34 483.55 715.44 C 480.29 711.31 478.13 706.48 475.14 702.21 C 473.96 697.89 472.34 693.68 470.31 689.70 C 464.64 688.12 458.66 688.86 452.90 689.40 Z" />
</g>
<g id="#ffff00ff">
<path fill="#ffff00" opacity="1.00" d=" M 320.64 67.72 C 327.12 64.38 334.76 63.71 341.84 65.25 C 351.13 66.77 361.72 70.49 365.47 80.00 C 369.04 78.27 371.75 74.84 375.98 74.58 C 380.36 75.29 384.67 76.97 387.95 80.03 C 390.94 83.29 394.78 77.64 398.23 79.87 C 405.43 82.78 407.35 91.68 406.41 98.66 C 410.53 98.01 414.77 96.55 418.93 97.84 C 422.50 98.53 425.02 101.34 427.36 103.89 C 428.66 102.95 429.95 101.99 431.20 100.97 C 435.80 105.34 437.52 111.68 437.99 117.81 C 444.63 118.69 451.19 123.03 452.40 130.01 C 453.65 133.57 451.00 136.46 449.51 139.39 C 448.39 144.09 448.14 149.22 445.33 153.32 C 442.27 157.10 437.58 158.98 433.08 160.42 C 433.27 161.82 433.51 163.22 433.74 164.62 C 430.64 166.00 427.46 167.51 424.02 167.66 C 421.36 167.45 418.78 166.63 416.12 166.47 C 414.05 167.50 412.66 169.46 410.80 170.77 C 408.30 172.71 405.28 173.72 402.42 174.97 C 402.68 176.52 403.35 178.64 401.36 179.34 C 393.89 183.30 385.11 185.84 376.65 184.20 C 371.88 183.85 367.88 181.01 363.98 178.53 C 360.89 179.15 357.88 180.07 354.85 180.91 C 352.04 180.82 349.24 180.89 346.44 180.92 C 338.50 180.20 330.62 177.63 324.47 172.42 C 322.56 170.59 320.72 173.21 319.41 174.44 C 314.08 180.82 306.01 183.78 298.34 186.28 C 290.21 188.13 281.58 188.16 273.64 185.38 C 273.47 183.95 273.32 182.52 273.18 181.09 C 269.35 179.66 264.99 179.02 262.00 175.98 C 258.51 173.01 256.56 168.77 255.68 164.35 C 251.00 161.27 244.45 159.14 242.88 153.04 C 241.55 149.92 242.95 146.72 243.67 143.65 C 245.38 138.83 241.47 134.02 243.04 129.16 C 244.01 124.02 247.50 119.56 252.00 116.99 C 255.26 114.96 259.18 114.66 262.87 113.97 C 264.01 109.41 265.64 104.54 269.61 101.64 C 274.26 98.02 280.21 96.70 285.94 95.99 C 286.92 93.62 287.62 91.13 288.89 88.90 C 290.67 87.89 292.74 89.52 294.60 89.73 C 296.85 86.33 298.41 82.32 301.62 79.67 C 305.26 76.71 310.25 77.31 314.60 76.65 C 315.31 72.97 317.22 69.50 320.64 67.72 M 254.59 126.59 C 251.19 128.43 249.68 132.37 249.11 135.99 C 249.49 139.63 251.93 142.83 251.59 146.60 C 251.37 149.91 253.19 152.81 254.43 155.75 C 256.05 155.81 257.66 155.85 259.28 155.88 C 258.15 153.80 256.12 152.57 254.13 151.45 C 254.49 148.64 255.28 145.91 255.74 143.12 C 254.58 140.81 251.55 139.13 252.23 136.19 C 253.74 131.87 257.17 128.40 261.03 126.06 C 263.24 124.64 265.86 123.55 267.16 121.10 C 262.70 122.21 258.51 124.22 254.59 126.59 M 422.02 150.98 C 414.56 154.54 406.17 154.83 398.10 153.94 C 398.45 156.19 398.74 158.45 398.95 160.72 C 391.94 163.01 384.64 164.42 377.31 165.16 C 379.11 166.53 380.06 168.47 380.10 170.74 C 375.60 169.96 371.05 169.38 366.61 168.26 C 363.00 167.36 359.64 165.51 355.91 165.13 C 352.06 165.09 348.24 166.19 344.39 165.60 C 337.41 164.63 329.89 164.21 323.94 160.01 C 322.69 159.36 321.59 158.13 320.12 158.09 C 317.61 159.47 315.99 162.03 313.56 163.55 C 308.50 166.74 303.33 170.07 297.36 171.18 C 297.51 169.86 297.68 168.54 297.85 167.22 C 292.23 166.81 286.25 167.48 281.03 164.94 C 278.09 162.95 276.40 159.66 274.07 157.06 C 274.09 159.85 273.61 163.06 275.73 165.27 C 279.67 170.41 286.89 169.45 292.45 171.40 C 293.05 172.58 293.67 173.75 294.29 174.93 C 297.51 174.52 300.72 173.95 303.77 172.83 C 310.35 170.71 315.13 165.44 320.96 161.97 C 324.54 163.86 327.98 166.30 332.08 166.94 C 336.73 167.71 341.41 168.38 346.11 168.70 C 350.61 169.07 355.34 167.26 359.59 169.45 C 367.05 173.03 375.60 173.43 383.57 171.54 C 385.53 170.50 384.73 166.68 387.40 166.55 C 393.14 165.67 399.14 164.74 403.78 160.91 C 403.27 159.65 402.77 158.38 402.26 157.13 C 408.08 156.93 413.89 156.44 419.63 155.50 C 422.79 154.86 426.20 153.92 428.35 151.34 C 430.73 148.51 432.32 145.12 433.74 141.72 C 429.17 143.97 426.80 149.06 422.02 150.98 Z" />
<path fill="#ffff00" opacity="1.00" d=" M 323.23 174.13 C 324.91 175.31 326.62 176.47 328.28 177.70 C 329.95 180.23 328.37 182.98 327.55 185.49 C 325.10 192.23 325.54 200.26 329.67 206.26 C 329.44 198.23 327.87 189.13 333.45 182.41 C 335.00 181.93 336.62 181.75 338.24 181.57 C 339.76 181.83 341.28 182.15 342.81 182.45 C 347.01 183.37 351.39 183.61 355.59 182.51 C 358.34 182.09 361.07 181.47 363.85 181.19 C 367.52 182.89 370.97 185.29 375.04 186.04 C 380.67 186.91 386.35 186.19 391.98 185.92 C 395.91 186.98 399.50 189.00 403.09 190.89 C 409.70 194.70 416.20 200.61 416.40 208.81 C 418.91 208.87 422.09 210.04 424.08 207.99 C 428.47 203.64 433.21 198.85 439.56 197.74 C 442.61 197.80 445.69 197.66 448.72 198.13 C 450.23 199.63 451.26 201.56 452.87 202.99 C 457.87 204.83 463.91 205.03 467.71 209.25 C 469.71 211.20 470.78 214.30 473.35 215.54 C 477.68 215.12 481.64 213.13 485.58 211.43 C 486.59 211.00 487.72 211.43 488.75 211.65 C 494.35 214.65 498.66 219.47 503.15 223.85 C 507.90 229.18 505.78 236.71 508.04 242.94 C 508.99 245.03 507.88 247.15 507.32 249.17 C 505.86 253.55 506.16 258.28 504.76 262.67 C 503.41 267.04 500.52 270.67 498.07 274.46 C 496.77 275.20 495.33 275.63 493.95 276.17 C 493.74 280.92 493.63 285.97 491.16 290.20 C 487.99 295.34 481.89 297.97 476.03 298.24 C 471.73 298.22 467.62 296.83 463.47 295.90 C 463.23 297.59 462.97 299.27 462.70 300.96 C 453.01 301.55 444.98 294.64 440.76 286.47 C 437.76 287.81 435.26 290.40 431.86 290.69 C 429.90 290.95 427.93 291.01 425.97 291.15 C 425.82 292.73 425.69 294.31 425.59 295.90 C 419.41 295.66 412.77 295.15 407.58 291.42 C 400.63 286.69 396.33 279.06 393.73 271.23 C 393.15 271.15 391.99 270.98 391.40 270.89 C 387.29 270.17 383.11 270.41 378.97 270.24 C 374.23 270.09 369.76 267.85 366.29 264.72 C 363.75 262.08 362.15 258.72 359.67 256.03 C 359.45 255.77 359.00 255.24 358.78 254.97 C 357.76 255.95 356.75 256.93 355.75 257.92 C 353.98 255.57 352.74 252.46 349.83 251.30 C 343.49 248.50 336.57 246.44 331.33 241.69 C 329.25 239.76 328.72 236.84 328.55 234.14 C 324.62 234.44 320.36 234.41 316.98 232.09 C 313.77 230.17 312.58 226.36 311.81 222.92 C 311.72 220.23 313.19 217.73 313.21 215.02 C 313.06 213.42 311.42 212.66 310.40 211.65 C 303.14 206.32 300.68 195.81 303.71 187.53 C 304.53 186.00 306.49 185.65 307.94 184.91 C 313.84 182.65 318.79 178.54 323.23 174.13 M 317.12 202.97 C 317.39 207.56 319.78 211.80 323.16 214.84 C 325.35 216.75 328.29 217.58 330.34 219.65 C 332.38 222.47 333.16 225.98 335.11 228.86 C 337.17 232.11 340.73 233.85 343.87 235.87 C 344.10 235.45 344.57 234.62 344.80 234.20 C 338.61 230.75 335.96 224.02 333.50 217.79 C 331.41 217.48 328.91 217.42 327.64 215.43 C 324.68 211.44 321.85 207.16 320.73 202.25 C 319.47 197.84 320.95 193.31 320.89 188.84 C 316.96 192.34 316.77 198.10 317.12 202.97 M 369.94 251.92 C 374.60 259.69 383.43 263.81 392.19 264.72 C 395.01 265.19 398.08 264.93 400.69 266.28 C 403.20 268.57 403.91 272.23 406.45 274.54 C 408.68 276.64 410.83 278.90 413.40 280.61 C 416.96 282.29 420.98 282.60 424.86 282.93 C 425.13 281.29 425.43 279.66 425.69 278.02 C 428.43 278.32 431.17 278.80 433.94 278.88 C 437.07 278.91 439.69 276.67 442.76 276.38 C 445.07 277.56 446.74 279.64 448.76 281.24 C 453.23 285.04 459.09 287.05 464.95 287.04 C 469.54 287.16 474.93 286.99 478.02 283.03 C 481.02 280.08 479.99 275.55 479.77 271.82 C 478.24 274.41 477.24 277.25 475.91 279.94 C 475.09 281.94 472.69 282.33 470.82 282.71 C 462.78 283.52 454.59 280.78 448.62 275.33 C 445.65 273.48 444.73 268.55 440.60 269.08 C 439.70 270.90 438.84 273.10 436.59 273.53 C 431.66 275.88 426.39 273.81 421.36 273.10 C 420.76 274.73 420.16 276.37 419.57 278.01 C 413.59 275.65 408.80 270.74 406.10 264.96 C 405.17 263.65 404.81 261.33 402.87 261.24 C 397.27 260.66 391.50 260.75 386.14 258.78 C 380.51 257.04 375.54 253.71 369.94 251.92 Z" />
<path fill="#ffff00" opacity="1.00" d=" M 295.08 190.07 C 296.47 188.90 298.24 188.35 299.89 187.65 C 299.44 191.24 299.37 194.93 300.39 198.44 C 301.09 203.06 303.62 206.98 306.05 210.86 C 306.96 212.63 308.01 214.38 308.50 216.34 C 308.94 219.43 308.27 222.64 309.20 225.68 C 310.43 229.60 312.76 233.41 316.38 235.53 C 319.21 237.02 322.41 237.53 325.48 238.35 C 327.03 241.16 328.83 244.01 331.99 245.20 C 332.22 245.37 332.69 245.69 332.93 245.85 C 335.47 248.51 338.89 249.98 341.78 252.17 C 341.35 254.00 340.08 255.47 338.61 256.59 C 334.67 259.66 330.16 262.20 325.22 263.20 C 321.31 263.99 317.36 264.45 313.45 265.19 C 311.34 271.77 308.34 278.43 302.82 282.84 C 298.48 286.47 292.79 287.67 287.86 290.23 C 283.70 291.25 279.43 291.86 275.32 293.13 C 274.81 292.09 274.31 291.06 273.81 290.03 C 270.93 289.27 267.99 288.79 265.01 288.77 C 261.12 296.19 255.58 304.34 246.67 305.78 C 241.67 307.53 236.88 304.49 232.01 303.83 C 226.34 304.49 220.26 305.78 214.87 303.14 C 210.39 300.51 207.41 296.00 205.70 291.20 C 201.47 292.03 197.26 292.97 192.99 293.49 C 184.72 293.12 176.20 289.58 171.35 282.65 C 170.83 280.43 173.81 279.24 173.83 277.17 C 171.70 273.58 169.27 270.00 168.52 265.81 C 167.52 260.50 168.30 254.32 172.53 250.55 C 174.79 248.51 175.90 245.64 176.71 242.78 C 178.58 236.14 184.09 230.84 190.59 228.73 C 195.53 227.28 200.71 227.32 205.80 226.92 C 206.94 225.91 207.62 224.36 209.04 223.68 C 210.62 223.25 212.27 223.36 213.89 223.44 C 220.92 215.39 230.49 208.39 241.60 208.45 C 245.88 209.04 250.11 210.10 254.00 212.01 C 255.98 213.23 258.05 211.59 259.96 211.04 C 261.28 211.51 262.48 212.99 264.00 212.46 C 270.49 211.08 276.98 208.86 283.72 209.47 C 284.88 201.81 289.46 195.21 295.08 190.07 M 287.59 216.68 C 286.05 218.19 283.91 217.43 282.12 216.96 C 277.19 215.51 271.93 215.90 266.95 216.90 C 260.98 217.96 257.30 224.43 257.97 230.20 C 262.22 227.03 265.24 221.93 270.75 220.77 C 277.71 218.50 284.69 221.31 291.62 222.05 C 291.26 216.23 292.41 210.51 293.97 204.93 C 290.43 207.98 290.16 213.02 287.59 216.68 M 180.75 262.83 C 178.74 266.86 178.27 272.14 181.08 275.94 C 184.26 279.90 189.15 282.07 194.04 283.04 C 201.14 284.86 208.34 282.56 215.46 282.11 C 216.09 288.57 223.08 292.36 228.97 292.96 C 237.68 293.13 246.17 290.03 253.66 285.76 C 257.06 284.21 258.13 280.03 261.53 278.47 C 262.94 277.52 264.45 278.78 265.79 279.22 C 273.52 283.09 282.80 282.70 290.79 279.88 C 297.22 277.16 302.96 271.22 302.95 263.86 C 298.15 267.04 294.67 272.11 289.13 274.16 C 284.34 275.95 279.24 277.80 274.04 276.91 C 269.56 276.41 265.76 273.83 262.21 271.25 C 261.05 273.31 260.03 275.60 257.97 276.92 C 252.45 280.62 246.90 284.62 240.38 286.31 C 235.76 287.44 230.62 289.35 226.11 286.83 C 221.63 285.07 221.11 279.79 218.77 276.21 C 214.48 276.97 210.33 278.48 205.95 278.74 C 198.92 279.38 191.07 278.32 185.76 273.27 C 182.74 270.21 183.31 265.54 182.75 261.64 C 182.25 261.93 181.25 262.53 180.75 262.83 Z" />
<path fill="#ffff00" opacity="1.00" d=" M 329.08 270.29 C 332.92 268.44 336.75 266.56 340.69 264.91 C 341.09 272.11 341.14 279.37 342.52 286.47 C 343.19 285.48 344.20 284.59 344.28 283.31 C 344.85 278.14 343.45 272.75 345.50 267.79 C 345.97 280.25 345.09 292.91 348.12 305.13 C 353.87 303.54 357.85 298.91 362.52 295.53 C 369.86 290.12 377.38 284.95 385.18 280.21 C 386.57 279.39 388.04 278.67 389.63 278.30 C 390.87 280.29 391.65 282.51 392.49 284.69 C 378.56 293.65 364.98 303.59 354.29 316.37 C 352.30 318.90 349.97 321.58 349.83 324.96 C 349.60 329.23 350.25 333.48 350.40 337.74 C 350.76 346.83 350.72 355.93 351.51 364.99 C 356.08 364.67 359.63 361.60 363.54 359.57 C 369.46 356.41 375.46 353.40 381.52 350.54 C 384.42 349.20 387.29 347.34 390.58 347.35 C 391.65 348.71 392.41 350.28 393.23 351.81 C 384.65 358.04 375.21 363.11 367.26 370.20 C 362.93 374.34 356.48 374.34 351.74 377.76 C 348.32 380.04 345.03 383.22 344.48 387.51 C 343.32 395.09 344.55 402.80 345.56 410.33 C 348.73 402.27 345.93 393.10 349.08 385.00 C 350.56 382.20 353.54 380.73 356.10 379.08 C 354.40 383.56 352.27 388.07 352.58 393.00 C 352.96 402.68 351.87 412.53 353.91 422.08 C 354.36 422.10 355.27 422.13 355.72 422.15 C 356.49 422.12 358.02 422.06 358.78 422.04 C 362.12 421.86 365.43 421.40 368.74 420.89 C 368.58 421.42 368.26 422.48 368.10 423.00 C 364.53 424.09 361.21 425.91 358.62 428.61 C 354.60 432.61 348.94 435.53 347.17 441.28 C 344.55 450.62 345.53 460.41 345.46 469.98 C 345.40 473.60 345.98 477.20 347.02 480.67 C 348.94 472.22 348.78 463.49 349.89 454.93 C 350.56 450.37 350.56 445.32 353.52 441.51 C 355.98 438.29 358.31 434.81 361.80 432.60 C 360.29 438.42 356.27 443.21 355.00 449.12 C 352.03 459.49 352.69 470.36 352.74 481.02 C 352.87 500.99 354.36 520.91 356.23 540.78 C 358.08 555.38 359.07 570.41 364.74 584.17 C 365.89 587.53 367.48 590.80 370.20 593.18 C 372.72 596.27 374.18 600.13 376.95 603.07 C 384.68 611.63 394.64 617.72 404.49 623.54 C 416.09 630.53 428.77 635.53 440.19 642.83 C 446.06 647.19 450.71 652.89 455.01 658.74 C 445.75 659.06 436.50 658.65 427.25 658.25 C 425.54 658.25 424.24 657.02 422.87 656.18 C 412.29 648.89 401.08 642.30 388.89 638.09 C 384.52 636.48 379.84 634.94 375.14 635.65 C 377.70 645.45 381.09 655.03 383.08 664.98 C 384.59 673.46 386.84 681.78 388.85 690.15 C 392.04 702.70 397.89 714.35 404.26 725.54 C 400.02 724.53 396.79 721.42 392.80 719.84 C 386.02 715.18 381.23 708.19 376.31 701.71 C 368.32 690.90 365.01 677.67 360.99 665.09 C 360.03 661.82 358.59 658.70 357.98 655.35 C 357.50 650.57 355.02 646.41 352.87 642.25 C 349.85 636.20 345.05 631.13 339.55 627.28 C 337.29 625.69 334.56 627.22 333.00 629.03 C 328.73 633.69 326.52 639.81 324.73 645.77 C 323.69 649.02 323.38 652.65 321.39 655.52 C 315.39 657.36 308.90 656.11 302.72 656.11 C 302.40 642.78 308.90 630.81 313.88 618.87 C 315.83 613.19 318.98 607.93 320.14 602.00 C 317.62 604.60 315.87 607.80 313.59 610.59 C 311.40 612.72 308.27 613.39 305.52 614.49 C 297.15 617.30 289.05 620.92 281.51 625.51 C 278.26 627.49 275.50 630.16 273.02 633.02 C 278.69 631.62 283.40 628.00 288.74 625.80 C 295.35 623.02 301.92 619.66 309.19 619.04 C 308.46 620.86 308.07 623.12 306.18 624.15 C 302.50 626.24 298.19 626.75 294.25 628.21 C 284.49 631.65 274.69 635.30 265.90 640.86 C 260.78 643.91 256.74 648.36 252.43 652.42 C 247.16 657.67 242.05 663.30 238.72 670.04 C 242.57 667.78 245.58 664.45 248.92 661.55 C 248.72 663.14 248.53 664.74 248.27 666.34 C 235.92 682.55 226.01 700.95 210.26 714.27 C 201.71 721.48 191.52 726.90 180.56 729.28 C 187.37 722.85 195.36 717.63 201.24 710.22 C 208.03 701.79 212.01 691.60 217.13 682.16 C 218.68 679.49 219.68 676.42 221.83 674.17 C 226.07 671.12 227.97 666.10 231.14 662.13 C 237.96 653.39 245.30 644.90 254.25 638.27 C 260.54 633.81 266.93 629.47 273.69 625.76 C 280.13 621.93 287.04 618.71 292.54 613.52 C 297.07 609.21 302.24 604.96 304.12 598.75 C 305.45 595.34 307.76 592.45 309.22 589.11 C 312.61 581.54 314.20 573.33 315.45 565.19 C 319.06 549.06 316.56 532.41 317.99 516.07 C 318.89 507.40 318.49 498.68 318.64 489.99 C 318.68 486.86 318.56 483.66 317.38 480.72 C 316.29 477.87 315.17 474.98 313.46 472.45 C 310.68 468.88 306.40 467.05 302.87 464.37 C 298.37 459.27 299.86 452.18 300.31 446.03 C 306.72 448.23 312.60 453.59 319.79 452.14 C 320.45 437.50 322.78 422.71 320.50 408.11 L 319.56 409.00 C 317.80 396.97 308.61 387.40 298.35 381.68 C 296.56 380.57 294.70 379.59 292.96 378.42 C 288.48 374.80 286.76 369.21 285.23 363.90 C 288.11 364.89 290.99 365.92 293.77 367.17 C 295.69 369.36 297.92 371.28 300.52 372.61 C 306.33 375.65 311.64 379.54 317.43 382.63 C 319.38 383.56 321.52 384.77 323.77 384.17 C 325.55 382.25 325.19 379.45 325.32 377.05 C 325.06 366.36 325.58 355.68 325.39 344.99 C 325.28 335.86 325.74 326.52 323.33 317.62 C 320.52 310.17 315.22 303.91 309.28 298.72 C 307.28 296.81 304.85 294.90 304.28 292.04 C 305.15 289.42 308.56 287.77 311.13 288.99 C 317.00 291.23 320.89 296.39 325.85 299.97 C 326.22 299.65 326.97 298.99 327.34 298.67 C 329.33 289.36 327.90 279.72 329.08 270.29 M 346.39 505.34 C 344.09 512.71 345.87 520.43 346.21 527.94 C 347.08 532.99 347.75 538.07 348.63 543.12 C 348.86 535.54 350.63 527.98 349.56 520.40 C 349.07 516.29 349.78 512.12 348.99 508.05 C 348.59 506.74 348.31 504.26 346.39 505.34 M 349.27 549.84 C 348.73 555.36 349.52 560.89 349.71 566.41 C 350.63 572.34 352.38 578.14 354.14 583.88 C 358.70 594.54 366.66 603.58 376.24 610.06 C 373.17 603.13 366.43 598.83 362.47 592.47 C 356.56 585.39 355.79 575.85 353.81 567.20 C 352.39 561.42 354.13 554.31 349.27 549.84 M 342.06 562.80 C 343.38 572.95 343.09 583.71 347.97 593.01 C 350.76 599.47 355.24 604.95 359.54 610.45 C 361.91 613.46 365.03 615.82 367.07 619.10 C 362.03 618.43 357.36 615.79 354.36 611.67 C 351.53 607.64 346.87 605.07 341.96 604.87 C 347.25 611.59 353.52 617.47 358.51 624.44 C 362.55 631.16 364.73 638.77 368.05 645.84 C 371.20 656.47 373.88 667.26 377.26 677.81 C 379.01 681.31 379.56 685.80 383.00 688.15 C 382.20 683.21 380.40 678.51 379.46 673.61 C 377.96 665.94 375.09 658.57 374.41 650.74 C 374.26 647.49 372.25 644.83 371.45 641.77 C 370.62 635.69 365.96 631.07 365.02 625.00 C 375.01 626.83 384.34 630.93 393.48 635.19 C 393.48 635.59 393.49 636.39 393.49 636.78 C 399.83 635.89 405.84 640.17 409.82 644.74 C 414.79 643.08 418.31 648.41 423.17 648.07 C 421.42 645.95 419.08 644.49 416.52 643.56 C 410.02 641.10 405.14 635.74 398.64 633.28 C 396.12 632.36 393.90 630.83 391.83 629.17 C 386.70 625.06 380.08 623.28 375.25 618.75 C 365.75 610.51 357.23 600.97 350.99 590.01 C 347.75 582.09 345.29 573.75 344.85 565.16 C 344.98 563.47 343.28 563.19 342.06 562.80 Z" />
<path fill="#ffff00" opacity="1.00" d=" M 418.65 319.46 C 422.10 318.02 425.30 315.73 429.12 315.37 C 432.21 315.84 435.48 316.98 437.39 319.61 C 439.42 322.71 439.63 326.55 439.42 330.14 C 441.68 329.90 443.88 329.27 446.03 328.50 C 446.33 329.13 446.95 330.40 447.25 331.04 C 452.96 331.46 459.90 331.24 463.93 336.04 C 466.12 338.86 467.54 342.84 466.25 346.35 C 465.63 348.17 464.75 349.88 463.99 351.64 C 464.75 351.84 466.26 352.24 467.02 352.44 C 465.00 360.88 459.61 368.58 452.24 373.20 C 448.68 375.46 444.38 375.88 440.56 377.48 C 437.41 382.17 434.40 387.85 428.61 389.63 C 424.21 391.37 419.39 391.07 414.81 390.39 C 413.92 391.86 413.10 393.36 412.38 394.93 C 398.21 390.66 387.03 375.53 389.82 360.55 L 390.78 360.17 C 393.25 359.31 395.57 357.94 397.06 355.72 C 397.65 354.89 398.31 354.08 398.66 353.12 C 397.45 349.69 395.18 346.76 393.45 343.58 C 392.78 342.11 391.40 341.27 390.08 340.48 C 389.95 333.09 393.42 325.78 399.29 321.29 C 402.11 319.85 405.21 319.00 408.32 318.47 C 411.78 318.30 415.19 319.81 418.65 319.46 M 445.95 363.91 C 443.08 365.69 439.59 365.61 436.43 366.52 C 433.76 368.80 431.98 372.01 429.02 373.99 C 424.80 377.18 419.22 376.57 414.26 377.03 C 410.51 381.07 404.70 377.53 401.77 374.24 C 398.78 371.37 399.79 366.06 396.24 363.77 C 395.77 368.26 396.17 373.21 399.17 376.82 C 402.53 380.73 407.10 383.78 412.19 384.83 C 415.20 385.60 416.00 380.94 419.02 381.24 C 424.78 381.08 430.95 379.37 434.62 374.60 C 437.92 369.19 445.15 369.64 449.68 365.77 C 453.19 363.64 454.24 359.47 454.69 355.67 C 451.28 357.89 449.54 361.91 445.95 363.91 Z" />
<path fill="#ffff00" opacity="1.00" d=" M 255.68 321.69 C 261.41 319.21 268.06 319.98 273.71 322.30 C 277.05 323.74 279.20 326.82 282.03 328.94 C 285.77 330.47 290.48 331.56 292.28 335.65 C 295.04 342.82 293.01 350.90 289.31 357.35 C 288.20 360.25 284.93 357.93 282.93 357.55 C 281.26 358.95 277.56 360.82 279.53 363.43 C 282.88 367.43 285.27 372.50 284.89 377.82 C 283.96 380.59 280.50 381.94 280.33 385.02 C 279.72 388.87 279.82 393.15 277.35 396.40 C 273.26 401.64 265.64 403.85 259.39 401.60 C 253.67 400.17 248.86 396.53 244.61 392.60 C 238.64 392.91 232.50 392.44 226.94 390.12 C 223.15 388.58 220.10 385.77 217.11 383.07 C 217.41 381.30 218.98 379.12 217.47 377.54 C 214.99 374.84 212.36 371.99 211.70 368.24 C 210.30 363.78 212.70 359.45 214.55 355.53 C 215.98 353.34 213.15 351.52 213.15 349.31 C 219.47 342.05 229.57 339.97 238.80 340.23 C 239.10 338.94 239.38 337.65 239.64 336.36 C 241.44 335.72 244.35 336.22 244.87 333.85 C 246.69 328.57 250.84 324.34 255.68 321.69 M 219.33 355.35 C 216.64 360.57 218.97 366.64 221.56 371.40 C 223.05 374.65 226.78 375.52 229.29 377.70 C 231.11 379.88 232.28 382.75 234.96 384.06 C 238.77 386.08 242.72 388.11 246.99 388.90 C 250.15 388.53 254.17 387.60 255.24 384.15 C 249.12 384.13 242.52 384.35 237.25 380.72 C 235.90 379.26 235.30 377.30 234.45 375.55 C 230.17 373.11 224.91 370.51 223.77 365.24 C 222.33 361.02 224.46 356.85 225.16 352.73 C 223.10 353.15 220.42 353.21 219.33 355.35 M 268.71 388.72 C 265.33 391.42 260.58 390.19 256.91 392.17 C 256.90 394.68 260.06 394.98 261.98 394.98 C 266.76 394.57 272.02 392.98 274.68 388.66 C 277.04 385.53 275.96 381.38 275.63 377.82 C 272.56 380.99 272.54 386.16 268.71 388.72 Z" />
<path fill="#ffff00" opacity="1.00" d=" M 284.45 635.65 C 290.62 633.90 296.60 630.96 303.16 631.13 C 302.02 632.29 300.97 633.68 299.40 634.29 C 291.43 637.30 282.80 639.04 275.61 643.79 C 271.60 646.47 267.05 648.29 263.23 651.28 C 262.69 650.83 261.59 649.94 261.04 649.50 C 267.55 643.01 275.68 638.34 284.45 635.65 Z" />
<path fill="#ffff00" opacity="1.00" d=" M 296.57 689.49 C 296.94 689.30 297.68 688.91 298.05 688.72 C 303.67 688.22 309.37 688.44 314.95 689.33 C 311.93 702.90 300.86 712.44 289.83 719.85 C 284.36 723.25 279.73 727.75 274.90 731.97 C 277.51 721.78 285.74 714.42 289.92 704.95 C 292.76 700.07 294.53 694.72 296.57 689.49 Z" />
<path fill="#ffff00" opacity="1.00" d=" M 456.25 692.44 C 459.58 689.53 464.34 690.75 468.09 692.06 C 471.11 694.89 472.08 699.32 475.14 702.21 C 478.13 706.48 480.29 711.31 483.55 715.44 C 487.04 720.34 491.43 724.51 495.18 729.21 C 489.85 727.55 485.28 724.29 480.59 721.40 C 472.62 716.24 466.09 709.25 460.29 701.81 C 459.70 701.06 459.29 700.23 459.06 699.32 C 458.37 696.93 457.42 694.63 456.25 692.44 Z" />
</g>
<g id="#edd10eff">
<path fill="#edd10e" opacity="1.00" d=" M 254.59 126.59 C 258.51 124.22 262.70 122.21 267.16 121.10 C 265.86 123.55 263.24 124.64 261.03 126.06 C 257.17 128.40 253.74 131.87 252.23 136.19 C 251.55 139.13 254.58 140.81 255.74 143.12 C 255.28 145.91 254.49 148.64 254.13 151.45 C 256.12 152.57 258.15 153.80 259.28 155.88 C 257.66 155.85 256.05 155.81 254.43 155.75 C 253.19 152.81 251.37 149.91 251.59 146.60 C 251.93 142.83 249.49 139.63 249.11 135.99 C 249.68 132.37 251.19 128.43 254.59 126.59 Z" />
<path fill="#edd10e" opacity="1.00" d=" M 422.02 150.98 C 426.80 149.06 429.17 143.97 433.74 141.72 C 432.32 145.12 430.73 148.51 428.35 151.34 C 426.20 153.92 422.79 154.86 419.63 155.50 C 413.89 156.44 408.08 156.93 402.26 157.13 C 402.77 158.38 403.27 159.65 403.78 160.91 C 399.14 164.74 393.14 165.67 387.40 166.55 C 384.73 166.68 385.53 170.50 383.57 171.54 C 375.60 173.43 367.05 173.03 359.59 169.45 C 355.34 167.26 350.61 169.07 346.11 168.70 C 341.41 168.38 336.73 167.71 332.08 166.94 C 327.98 166.30 324.54 163.86 320.96 161.97 C 315.13 165.44 310.35 170.71 303.77 172.83 C 300.72 173.95 297.51 174.52 294.29 174.93 C 293.67 173.75 293.05 172.58 292.45 171.40 C 286.89 169.45 279.67 170.41 275.73 165.27 C 273.61 163.06 274.09 159.85 274.07 157.06 C 276.40 159.66 278.09 162.95 281.03 164.94 C 286.25 167.48 292.23 166.81 297.85 167.22 C 297.68 168.54 297.51 169.86 297.36 171.18 C 303.33 170.07 308.50 166.74 313.56 163.55 C 315.99 162.03 317.61 159.47 320.12 158.09 C 321.59 158.13 322.69 159.36 323.94 160.01 C 329.89 164.21 337.41 164.63 344.39 165.60 C 348.24 166.19 352.06 165.09 355.91 165.13 C 359.64 165.51 363.00 167.36 366.61 168.26 C 371.05 169.38 375.60 169.96 380.10 170.74 C 380.06 168.47 379.11 166.53 377.31 165.16 C 384.64 164.42 391.94 163.01 398.95 160.72 C 398.74 158.45 398.45 156.19 398.10 153.94 C 406.17 154.83 414.56 154.54 422.02 150.98 Z" />
<path fill="#edd10e" opacity="1.00" d=" M 328.28 177.70 C 331.58 179.04 334.96 180.18 338.24 181.57 C 336.62 181.75 335.00 181.93 333.45 182.41 C 327.87 189.13 329.44 198.23 329.67 206.26 C 325.54 200.26 325.10 192.23 327.55 185.49 C 328.37 182.98 329.95 180.23 328.28 177.70 Z" />
<path fill="#edd10e" opacity="1.00" d=" M 299.89 187.65 C 300.75 191.18 300.39 194.84 300.39 198.44 C 299.37 194.93 299.44 191.24 299.89 187.65 Z" />
<path fill="#edd10e" opacity="1.00" d=" M 317.12 202.97 C 316.77 198.10 316.96 192.34 320.89 188.84 C 320.95 193.31 319.47 197.84 320.73 202.25 C 321.85 207.16 324.68 211.44 327.64 215.43 C 328.91 217.42 331.41 217.48 333.50 217.79 C 335.96 224.02 338.61 230.75 344.80 234.20 C 344.57 234.62 344.10 235.45 343.87 235.87 C 340.73 233.85 337.17 232.11 335.11 228.86 C 333.16 225.98 332.38 222.47 330.34 219.65 C 328.29 217.58 325.35 216.75 323.16 214.84 C 319.78 211.80 317.39 207.56 317.12 202.97 Z" />
<path fill="#edd10e" opacity="1.00" d=" M 439.56 197.74 C 443.83 195.70 448.70 196.20 453.20 197.04 C 452.77 198.39 452.32 199.73 451.89 201.07 C 457.25 202.97 463.23 203.58 467.83 207.18 C 470.38 208.92 471.63 211.84 473.00 214.48 C 477.11 213.17 481.15 211.23 485.58 211.43 C 481.64 213.13 477.68 215.12 473.35 215.54 C 470.78 214.30 469.71 211.20 467.71 209.25 C 463.91 205.03 457.87 204.83 452.87 202.99 C 451.26 201.56 450.23 199.63 448.72 198.13 C 445.69 197.66 442.61 197.80 439.56 197.74 Z" />
<path fill="#edd10e" opacity="1.00" d=" M 287.59 216.68 C 290.16 213.02 290.43 207.98 293.97 204.93 C 292.41 210.51 291.26 216.23 291.62 222.05 C 284.69 221.31 277.71 218.50 270.75 220.77 C 265.24 221.93 262.22 227.03 257.97 230.20 C 257.30 224.43 260.98 217.96 266.95 216.90 C 271.93 215.90 277.19 215.51 282.12 216.96 C 283.91 217.43 286.05 218.19 287.59 216.68 Z" />
<path fill="#edd10e" opacity="1.00" d=" M 306.05 210.86 C 308.00 212.45 310.88 213.99 310.43 216.97 C 310.25 221.89 309.92 227.52 313.68 231.32 C 316.70 235.51 322.12 236.00 326.86 236.05 C 327.48 239.64 329.80 242.44 331.99 245.20 C 328.83 244.01 327.03 241.16 325.48 238.35 C 322.41 237.53 319.21 237.02 316.38 235.53 C 312.76 233.41 310.43 229.60 309.20 225.68 C 308.27 222.64 308.94 219.43 308.50 216.34 C 308.01 214.38 306.96 212.63 306.05 210.86 Z" />
<path fill="#edd10e" opacity="1.00" d=" M 488.75 211.65 C 491.21 211.84 493.63 212.36 496.01 213.05 C 496.17 214.17 496.34 215.29 496.52 216.42 C 505.66 220.45 510.22 231.10 507.91 240.62 C 509.21 241.37 510.51 242.14 511.81 242.92 C 509.91 246.39 507.76 249.94 507.84 254.04 C 506.96 261.53 505.20 270.41 498.07 274.46 C 500.52 270.67 503.41 267.04 504.76 262.67 C 506.16 258.28 505.86 253.55 507.32 249.17 C 507.88 247.15 508.99 245.03 508.04 242.94 C 505.78 236.71 507.90 229.18 503.15 223.85 C 498.66 219.47 494.35 214.65 488.75 211.65 Z" />
<path fill="#edd10e" opacity="1.00" d=" M 332.93 245.85 C 336.98 247.27 340.67 249.49 344.62 251.16 C 342.02 256.85 336.56 260.70 330.95 263.07 C 325.67 265.12 319.98 265.45 314.43 266.21 C 312.36 274.50 307.55 282.74 299.67 286.65 C 295.96 288.44 292.02 290.00 287.86 290.23 C 292.79 287.67 298.48 286.47 302.82 282.84 C 308.34 278.43 311.34 271.77 313.45 265.19 C 317.36 264.45 321.31 263.99 325.22 263.20 C 330.16 262.20 334.67 259.66 338.61 256.59 C 340.08 255.47 341.35 254.00 341.78 252.17 C 338.89 249.98 335.47 248.51 332.93 245.85 Z" />
<path fill="#edd10e" opacity="1.00" d=" M 347.02 252.03 C 347.89 252.42 348.76 252.82 349.63 253.23 C 349.31 269.36 349.22 285.51 349.48 301.64 C 350.95 302.27 352.09 300.98 353.19 300.22 C 365.50 290.28 378.45 281.08 392.15 273.16 C 393.46 276.79 395.70 280.13 396.41 283.94 C 394.35 286.76 390.75 287.93 387.95 289.92 C 378.32 295.67 370.48 303.77 361.95 310.94 C 357.57 314.53 354.13 319.42 353.01 325.03 C 352.15 337.05 353.64 349.07 353.41 361.10 C 354.96 360.91 356.56 360.70 357.95 359.91 C 368.62 354.20 379.26 348.05 390.76 344.21 C 393.25 346.48 394.72 349.62 395.87 352.74 C 394.75 353.97 392.40 354.79 392.91 356.80 C 394.35 356.94 395.68 356.06 397.06 355.72 C 395.57 357.94 393.25 359.31 390.78 360.17 C 391.56 359.26 391.93 358.23 391.90 357.10 C 390.23 356.33 388.87 357.82 387.51 358.55 C 381.84 362.52 375.96 366.16 370.62 370.59 C 364.12 375.32 356.37 380.43 354.89 388.96 C 354.58 400.02 354.82 411.11 355.72 422.15 C 355.27 422.13 354.36 422.10 353.91 422.08 C 351.87 412.53 352.96 402.68 352.58 393.00 C 352.27 388.07 354.40 383.56 356.10 379.08 C 353.54 380.73 350.56 382.20 349.08 385.00 C 345.93 393.10 348.73 402.27 345.56 410.33 C 344.55 402.80 343.32 395.09 344.48 387.51 C 345.03 383.22 348.32 380.04 351.74 377.76 C 356.48 374.34 362.93 374.34 367.26 370.20 C 375.21 363.11 384.65 358.04 393.23 351.81 C 392.41 350.28 391.65 348.71 390.58 347.35 C 387.29 347.34 384.42 349.20 381.52 350.54 C 375.46 353.40 369.46 356.41 363.54 359.57 C 359.63 361.60 356.08 364.67 351.51 364.99 C 350.72 355.93 350.76 346.83 350.40 337.74 C 350.25 333.48 349.60 329.23 349.83 324.96 C 349.97 321.58 352.30 318.90 354.29 316.37 C 364.98 303.59 378.56 293.65 392.49 284.69 C 391.65 282.51 390.87 280.29 389.63 278.30 C 388.04 278.67 386.57 279.39 385.18 280.21 C 377.38 284.95 369.86 290.12 362.52 295.53 C 357.85 298.91 353.87 303.54 348.12 305.13 C 345.09 292.91 345.97 280.25 345.50 267.79 C 343.45 272.75 344.85 278.14 344.28 283.31 C 344.20 284.59 343.19 285.48 342.52 286.47 C 341.14 279.37 341.09 272.11 340.69 264.91 C 336.75 266.56 332.92 268.44 329.08 270.29 C 327.90 279.72 329.33 289.36 327.34 298.67 C 326.11 287.89 327.38 276.99 327.18 266.16 C 335.36 264.24 342.37 258.97 347.02 252.03 Z" />
<path fill="#edd10e" opacity="1.00" d=" M 369.94 251.92 C 375.54 253.71 380.51 257.04 386.14 258.78 C 391.50 260.75 397.27 260.66 402.87 261.24 C 404.81 261.33 405.17 263.65 406.10 264.96 C 408.80 270.74 413.59 275.65 419.57 278.01 C 420.16 276.37 420.76 274.73 421.36 273.10 C 426.39 273.81 431.66 275.88 436.59 273.53 C 438.84 273.10 439.70 270.90 440.60 269.08 C 444.73 268.55 445.65 273.48 448.62 275.33 C 454.59 280.78 462.78 283.52 470.82 282.71 C 472.69 282.33 475.09 281.94 475.91 279.94 C 477.24 277.25 478.24 274.41 479.77 271.82 C 479.99 275.55 481.02 280.08 478.02 283.03 C 474.93 286.99 469.54 287.16 464.95 287.04 C 459.09 287.05 453.23 285.04 448.76 281.24 C 446.74 279.64 445.07 277.56 442.76 276.38 C 439.69 276.67 437.07 278.91 433.94 278.88 C 431.17 278.80 428.43 278.32 425.69 278.02 C 425.43 279.66 425.13 281.29 424.86 282.93 C 420.98 282.60 416.96 282.29 413.40 280.61 C 410.83 278.90 408.68 276.64 406.45 274.54 C 403.91 272.23 403.20 268.57 400.69 266.28 C 398.08 264.93 395.01 265.19 392.19 264.72 C 383.43 263.81 374.60 259.69 369.94 251.92 Z" />
<path fill="#edd10e" opacity="1.00" d=" M 359.67 256.03 C 362.15 258.72 363.75 262.08 366.29 264.72 C 369.76 267.85 374.23 270.09 378.97 270.24 C 383.11 270.41 387.29 270.17 391.40 270.89 C 386.43 272.78 380.86 272.38 375.75 271.31 C 368.17 269.68 360.92 264.03 359.67 256.03 Z" />
<path fill="#edd10e" opacity="1.00" d=" M 180.75 262.83 C 181.25 262.53 182.25 261.93 182.75 261.64 C 183.31 265.54 182.74 270.21 185.76 273.27 C 191.07 278.32 198.92 279.38 205.95 278.74 C 210.33 278.48 214.48 276.97 218.77 276.21 C 221.11 279.79 221.63 285.07 226.11 286.83 C 230.62 289.35 235.76 287.44 240.38 286.31 C 246.90 284.62 252.45 280.62 257.97 276.92 C 260.03 275.60 261.05 273.31 262.21 271.25 C 265.76 273.83 269.56 276.41 274.04 276.91 C 279.24 277.80 284.34 275.95 289.13 274.16 C 294.67 272.11 298.15 267.04 302.95 263.86 C 302.96 271.22 297.22 277.16 290.79 279.88 C 282.80 282.70 273.52 283.09 265.79 279.22 C 264.45 278.78 262.94 277.52 261.53 278.47 C 258.13 280.03 257.06 284.21 253.66 285.76 C 246.17 290.03 237.68 293.13 228.97 292.96 C 223.08 292.36 216.09 288.57 215.46 282.11 C 208.34 282.56 201.14 284.86 194.04 283.04 C 189.15 282.07 184.26 279.90 181.08 275.94 C 178.27 272.14 178.74 266.86 180.75 262.83 Z" />
<path fill="#edd10e" opacity="1.00" d=" M 307.19 283.92 C 315.26 286.72 320.52 293.91 327.34 298.67 C 326.97 298.99 326.22 299.65 325.85 299.97 C 320.89 296.39 317.00 291.23 311.13 288.99 C 308.56 287.77 305.15 289.42 304.28 292.04 C 304.85 294.90 307.28 296.81 309.28 298.72 C 315.22 303.91 320.52 310.17 323.33 317.62 C 325.74 326.52 325.28 335.86 325.39 344.99 C 325.58 355.68 325.06 366.36 325.32 377.05 C 325.19 379.45 325.55 382.25 323.77 384.17 C 321.52 384.77 319.38 383.56 317.43 382.63 C 311.64 379.54 306.33 375.65 300.52 372.61 C 297.92 371.28 295.69 369.36 293.77 367.17 C 294.94 367.09 296.01 367.39 296.97 368.06 C 304.12 372.62 311.49 376.84 318.81 381.14 C 320.08 381.96 321.61 382.08 323.05 382.38 C 323.16 366.92 323.18 351.46 323.11 336.00 C 322.78 330.67 322.85 325.29 321.98 320.01 C 319.32 310.84 312.59 303.59 305.40 297.64 C 302.58 295.31 299.25 293.55 296.94 290.65 C 300.60 288.81 303.93 286.39 307.19 283.92 Z" />
<path fill="#edd10e" opacity="1.00" d=" M 219.33 355.35 C 220.42 353.21 223.10 353.15 225.16 352.73 C 224.46 356.85 222.33 361.02 223.77 365.24 C 224.91 370.51 230.17 373.11 234.45 375.55 C 235.30 377.30 235.90 379.26 237.25 380.72 C 242.52 384.35 249.12 384.13 255.24 384.15 C 254.17 387.60 250.15 388.53 246.99 388.90 C 242.72 388.11 238.77 386.08 234.96 384.06 C 232.28 382.75 231.11 379.88 229.29 377.70 C 226.78 375.52 223.05 374.65 221.56 371.40 C 218.97 366.64 216.64 360.57 219.33 355.35 Z" />
<path fill="#edd10e" opacity="1.00" d=" M 445.95 363.91 C 449.54 361.91 451.28 357.89 454.69 355.67 C 454.24 359.47 453.19 363.64 449.68 365.77 C 445.15 369.64 437.92 369.19 434.62 374.60 C 430.95 379.37 424.78 381.08 419.02 381.24 C 416.00 380.94 415.20 385.60 412.19 384.83 C 407.10 383.78 402.53 380.73 399.17 376.82 C 396.17 373.21 395.77 368.26 396.24 363.77 C 399.79 366.06 398.78 371.37 401.77 374.24 C 404.70 377.53 410.51 381.07 414.26 377.03 C 419.22 376.57 424.80 377.18 429.02 373.99 C 431.98 372.01 433.76 368.80 436.43 366.52 C 439.59 365.61 443.08 365.69 445.95 363.91 Z" />
<path fill="#edd10e" opacity="1.00" d=" M 281.93 361.89 C 282.22 359.03 285.65 361.16 287.04 361.98 C 289.23 363.72 292.82 364.31 293.77 367.17 C 290.99 365.92 288.11 364.89 285.23 363.90 C 286.76 369.21 288.48 374.80 292.96 378.42 C 291.08 377.63 289.32 376.62 287.59 375.57 C 286.95 370.53 284.19 366.27 281.93 361.89 Z" />
<path fill="#edd10e" opacity="1.00" d=" M 268.71 388.72 C 272.54 386.16 272.56 380.99 275.63 377.82 C 275.96 381.38 277.04 385.53 274.68 388.66 C 272.02 392.98 266.76 394.57 261.98 394.98 C 260.06 394.98 256.90 394.68 256.91 392.17 C 260.58 390.19 265.33 391.42 268.71 388.72 Z" />
<path fill="#edd10e" opacity="1.00" d=" M 319.56 409.00 L 320.50 408.11 C 322.78 422.71 320.45 437.50 319.79 452.14 C 312.60 453.59 306.72 448.23 300.31 446.03 C 299.86 452.18 298.37 459.27 302.87 464.37 C 301.38 463.52 299.92 462.63 298.48 461.71 C 298.52 455.75 298.16 449.79 298.36 443.83 C 305.58 445.36 311.30 451.59 318.96 451.28 C 319.00 445.84 318.85 440.38 319.51 434.97 C 319.52 426.31 319.58 417.65 319.56 409.00 Z" />
<path fill="#edd10e" opacity="1.00" d=" M 358.78 422.04 C 362.51 419.92 366.67 418.68 370.85 417.83 C 371.47 421.33 372.66 425.86 369.42 428.47 C 360.44 436.77 355.45 448.91 355.42 461.10 C 355.56 470.06 355.69 479.03 355.97 488.00 C 356.92 499.97 356.73 511.99 357.82 523.96 C 358.90 547.39 360.82 571.37 370.20 593.18 C 367.48 590.80 365.89 587.53 364.74 584.17 C 359.07 570.41 358.08 555.38 356.23 540.78 C 354.36 520.91 352.87 500.99 352.74 481.02 C 352.69 470.36 352.03 459.49 355.00 449.12 C 356.27 443.21 360.29 438.42 361.80 432.60 C 358.31 434.81 355.98 438.29 353.52 441.51 C 350.56 445.32 350.56 450.37 349.89 454.93 C 348.78 463.49 348.94 472.22 347.02 480.67 C 345.98 477.20 345.40 473.60 345.46 469.98 C 345.53 460.41 344.55 450.62 347.17 441.28 C 348.94 435.53 354.60 432.61 358.62 428.61 C 361.21 425.91 364.53 424.09 368.10 423.00 C 368.26 422.48 368.58 421.42 368.74 420.89 C 365.43 421.40 362.12 421.86 358.78 422.04 Z" />
<path fill="#edd10e" opacity="1.00" d=" M 346.39 505.34 C 348.31 504.26 348.59 506.74 348.99 508.05 C 349.78 512.12 349.07 516.29 349.56 520.40 C 350.63 527.98 348.86 535.54 348.63 543.12 C 347.75 538.07 347.08 532.99 346.21 527.94 C 345.87 520.43 344.09 512.71 346.39 505.34 Z" />
<path fill="#edd10e" opacity="1.00" d=" M 349.27 549.84 C 354.13 554.31 352.39 561.42 353.81 567.20 C 355.79 575.85 356.56 585.39 362.47 592.47 C 366.43 598.83 373.17 603.13 376.24 610.06 C 366.66 603.58 358.70 594.54 354.14 583.88 C 352.38 578.14 350.63 572.34 349.71 566.41 C 349.52 560.89 348.73 555.36 349.27 549.84 Z" />
<path fill="#edd10e" opacity="1.00" d=" M 342.06 562.80 C 343.28 563.19 344.98 563.47 344.85 565.16 C 345.29 573.75 347.75 582.09 350.99 590.01 C 357.23 600.97 365.75 610.51 375.25 618.75 C 380.08 623.28 386.70 625.06 391.83 629.17 C 393.90 630.83 396.12 632.36 398.64 633.28 C 405.14 635.74 410.02 641.10 416.52 643.56 C 419.08 644.49 421.42 645.95 423.17 648.07 C 418.31 648.41 414.79 643.08 409.82 644.74 C 405.84 640.17 399.83 635.89 393.49 636.78 C 393.49 636.39 393.48 635.59 393.48 635.19 C 384.34 630.93 375.01 626.83 365.02 625.00 C 365.96 631.07 370.62 635.69 371.45 641.77 C 372.25 644.83 374.26 647.49 374.41 650.74 C 375.09 658.57 377.96 665.94 379.46 673.61 C 380.40 678.51 382.20 683.21 383.00 688.15 C 379.56 685.80 379.01 681.31 377.26 677.81 C 373.88 667.26 371.20 656.47 368.05 645.84 C 364.73 638.77 362.55 631.16 358.51 624.44 C 353.52 617.47 347.25 611.59 341.96 604.87 C 346.87 605.07 351.53 607.64 354.36 611.67 C 357.36 615.79 362.03 618.43 367.07 619.10 C 365.03 615.82 361.91 613.46 359.54 610.45 C 355.24 604.95 350.76 599.47 347.97 593.01 C 343.09 583.71 343.38 572.95 342.06 562.80 Z" />
<path fill="#edd10e" opacity="1.00" d=" M 301.48 601.47 C 302.22 600.43 303.16 599.57 304.12 598.75 C 302.24 604.96 297.07 609.21 292.54 613.52 C 287.04 618.71 280.13 621.93 273.69 625.76 C 266.93 629.47 260.54 633.81 254.25 638.27 C 245.30 644.90 237.96 653.39 231.14 662.13 C 227.97 666.10 226.07 671.12 221.83 674.17 C 224.02 668.36 227.92 663.48 231.40 658.42 C 241.15 645.49 253.65 634.70 267.59 626.52 C 279.71 619.51 293.35 613.42 301.48 601.47 Z" />
<path fill="#edd10e" opacity="1.00" d=" M 313.59 610.59 C 315.87 607.80 317.62 604.60 320.14 602.00 C 318.98 607.93 315.83 613.19 313.88 618.87 C 308.90 630.81 302.40 642.78 302.72 656.11 C 308.90 656.11 315.39 657.36 321.39 655.52 C 323.38 652.65 323.69 649.02 324.73 645.77 C 326.52 639.81 328.73 633.69 333.00 629.03 C 334.56 627.22 337.29 625.69 339.55 627.28 C 345.05 631.13 349.85 636.20 352.87 642.25 C 355.02 646.41 357.50 650.57 357.98 655.35 C 353.34 646.90 349.21 637.75 341.55 631.50 C 339.75 630.02 336.92 627.29 334.77 629.74 C 327.56 637.19 325.88 647.94 322.82 657.45 C 315.52 657.61 308.24 658.28 300.93 657.99 C 300.83 650.76 303.03 643.81 304.11 636.73 C 294.87 640.08 285.01 640.97 275.61 643.79 C 282.80 639.04 291.43 637.30 299.40 634.29 C 300.97 633.68 302.02 632.29 303.16 631.13 C 296.60 630.96 290.62 633.90 284.45 635.65 C 275.68 638.34 267.55 643.01 261.04 649.50 C 261.59 649.94 262.69 650.83 263.23 651.28 C 257.63 655.66 253.01 661.09 248.27 666.34 C 248.53 664.74 248.72 663.14 248.92 661.55 C 245.58 664.45 242.57 667.78 238.72 670.04 C 242.05 663.30 247.16 657.67 252.43 652.42 C 256.74 648.36 260.78 643.91 265.90 640.86 C 274.69 635.30 284.49 631.65 294.25 628.21 C 298.19 626.75 302.50 626.24 306.18 624.15 C 308.07 623.12 308.46 620.86 309.19 619.04 C 301.92 619.66 295.35 623.02 288.74 625.80 C 283.40 628.00 278.69 631.62 273.02 633.02 C 275.50 630.16 278.26 627.49 281.51 625.51 C 289.05 620.92 297.15 617.30 305.52 614.49 C 308.27 613.39 311.40 612.72 313.59 610.59 Z" />
<path fill="#edd10e" opacity="1.00" d=" M 452.90 689.40 C 458.66 688.86 464.64 688.12 470.31 689.70 C 472.34 693.68 473.96 697.89 475.14 702.21 C 472.08 699.32 471.11 694.89 468.09 692.06 C 464.34 690.75 459.58 689.53 456.25 692.44 C 457.42 694.63 458.37 696.93 459.06 699.32 C 456.01 696.74 454.30 693.04 452.90 689.40 Z" />
<path fill="#edd10e" opacity="1.00" d=" M 392.80 719.84 C 396.79 721.42 400.02 724.53 404.26 725.54 C 406.36 726.56 407.12 729.13 408.27 731.03 C 405.67 730.06 403.39 728.46 401.17 726.85 C 398.24 724.70 394.89 722.92 392.80 719.84 Z" />
</g>
<g id="#857747ff">
<path fill="#857747" opacity="1.00" d=" M 346.44 180.92 C 349.24 180.89 352.04 180.82 354.85 180.91 L 355.59 182.51 C 351.39 183.61 347.01 183.37 342.81 182.45 C 344.05 182.01 345.26 181.50 346.44 180.92 Z" />
</g>
<g id="#ffffffff">
<path fill="#ffffff" opacity="1.00" d=" M 317.38 480.72 C 318.56 483.66 318.68 486.86 318.64 489.99 C 318.49 498.68 318.89 507.40 317.99 516.07 C 316.56 532.41 319.06 549.06 315.45 565.19 C 316.47 556.16 317.31 547.09 317.16 537.99 C 317.00 524.98 318.30 512.00 318.16 498.99 C 318.18 492.89 318.59 486.74 317.38 480.72 Z" />
<path fill="#ffffff" opacity="1.00" d=" M 505.85 626.00 C 508.10 626.00 510.36 626.00 512.62 626.00 C 517.59 636.49 521.00 647.69 523.07 659.11 C 524.20 669.60 524.08 680.20 522.80 690.67 C 520.77 701.61 517.10 712.22 512.86 722.49 L 511.81 722.25 C 510.20 721.87 508.60 721.54 507.00 721.20 C 510.14 712.35 514.03 703.62 515.10 694.20 C 515.33 690.72 517.21 687.56 517.03 684.05 C 516.87 676.08 517.25 668.10 516.85 660.15 C 514.82 653.61 513.87 646.78 511.74 640.27 C 509.91 635.46 507.99 630.68 505.85 626.00 Z" />
<path fill="#ffffff" opacity="1.00" d=" M 590.95 652.92 C 593.44 655.44 596.09 657.81 598.42 660.49 C 600.45 663.78 601.89 667.43 602.98 671.14 C 602.95 677.68 602.07 684.69 597.98 690.04 C 595.47 692.61 593.08 695.36 590.10 697.40 C 589.86 683.91 590.09 670.41 589.98 656.92 C 589.80 655.48 590.26 654.15 590.95 652.92 Z" />
<path fill="#ffffff" opacity="1.00" d=" M 525.03 658.81 C 527.04 659.10 529.04 659.55 530.97 660.22 C 530.00 664.46 527.91 668.38 526.22 672.37 C 525.43 667.90 524.82 663.36 525.03 658.81 Z" />
<path fill="#ffffff" opacity="1.00" d=" M 532.99 660.88 C 535.52 658.86 539.09 658.84 541.94 660.22 C 540.57 667.42 537.01 673.95 535.15 681.01 C 534.56 683.28 533.58 685.43 532.56 687.54 C 530.06 688.17 527.57 688.80 525.02 689.18 C 524.99 685.66 524.90 682.04 525.94 678.65 C 528.34 672.75 530.35 666.68 532.99 660.88 Z" />
<path fill="#ffffff" opacity="1.00" d=" M 122.00 660.78 C 157.03 660.22 192.07 659.76 227.11 660.05 C 224.50 664.26 221.76 668.42 219.77 672.98 C 175.02 672.96 130.27 673.12 85.53 672.90 C 86.92 671.71 88.56 670.88 90.27 670.25 C 100.42 665.91 110.94 661.87 122.00 660.78 Z" />
<path fill="#ffffff" opacity="1.00" d=" M 256.18 660.90 C 279.44 660.48 302.74 659.71 326.01 660.34 C 336.35 660.51 346.69 660.64 357.02 660.75 C 358.51 664.77 359.54 668.94 361.03 672.97 C 322.91 673.01 284.80 673.04 246.68 672.95 C 249.46 668.66 252.67 664.62 256.18 660.90 Z" />
<path fill="#ffffff" opacity="1.00" d=" M 384.98 660.45 C 412.65 660.50 440.33 659.67 468.00 660.27 C 483.39 660.50 498.79 660.58 514.18 660.80 C 514.64 664.85 515.12 668.91 515.03 673.00 C 472.32 673.21 429.62 672.75 386.91 672.22 C 386.06 668.34 385.00 664.45 384.98 660.45 Z" />
<path fill="#ffffff" opacity="1.00" d=" M 543.47 662.48 C 545.61 659.32 549.94 659.81 552.97 661.25 C 550.80 669.07 547.86 676.68 545.41 684.43 C 544.42 689.14 538.31 689.53 534.57 688.11 C 537.45 679.54 540.49 671.02 543.47 662.48 Z" />
<path fill="#ffffff" opacity="1.00" d=" M 554.69 662.41 C 556.98 660.74 560.36 661.30 563.11 660.93 C 561.30 669.63 558.51 678.09 555.56 686.46 C 553.38 689.84 549.42 688.96 546.19 687.92 C 548.95 679.40 551.76 670.88 554.69 662.41 Z" />
<path fill="#ffffff" opacity="1.00" d=" M 564.98 663.05 C 566.77 660.62 570.37 661.32 573.02 660.89 C 573.25 661.99 573.76 663.16 573.18 664.26 C 570.52 671.76 568.74 679.53 566.08 687.02 C 564.27 687.57 562.48 688.20 560.81 689.10 C 559.59 687.96 556.79 687.30 558.09 685.19 C 560.60 677.87 562.52 670.37 564.98 663.05 Z" />
<path fill="#ffffff" opacity="1.00" d=" M 575.21 664.03 C 576.66 661.19 580.48 662.32 582.84 663.19 C 582.24 668.55 580.24 673.61 578.92 678.82 C 577.79 682.11 577.27 686.25 573.75 687.92 L 573.05 688.38 C 571.40 687.93 569.78 687.43 568.18 686.91 C 570.82 679.37 572.26 671.45 575.21 664.03 Z" />
<path fill="#ffffff" opacity="1.00" d=" M 585.24 663.00 C 585.92 663.00 587.29 662.99 587.98 662.99 C 588.24 670.79 587.67 678.57 587.23 686.36 C 585.41 687.02 583.58 687.67 581.72 688.16 C 581.33 688.12 580.57 688.03 580.18 687.99 C 579.79 687.42 579.01 686.29 578.61 685.73 C 581.19 678.26 583.21 670.63 585.24 663.00 Z" />
<path fill="#ffffff" opacity="1.00" d=" M 86.09 674.45 C 100.38 675.03 114.69 674.31 128.99 674.33 C 158.97 673.78 188.96 674.07 218.94 674.00 C 216.37 677.90 215.14 682.72 211.87 686.12 C 183.01 686.94 154.13 687.08 125.26 687.03 C 124.61 686.86 123.31 686.53 122.66 686.36 C 109.97 684.23 97.52 680.48 86.09 674.45 Z" />
<path fill="#ffffff" opacity="1.00" d=" M 245.00 674.75 C 283.85 674.34 322.70 673.65 361.55 674.10 C 362.50 678.46 364.24 682.61 365.16 686.98 C 322.35 686.99 279.53 687.03 236.72 686.97 C 239.02 682.60 242.05 678.69 245.00 674.75 Z" />
<path fill="#ffffff" opacity="1.00" d=" M 387.09 673.99 C 429.72 674.01 472.36 673.99 515.00 674.00 C 515.00 678.33 515.00 682.66 515.00 687.00 C 473.61 687.03 432.21 686.95 390.82 687.04 C 389.22 682.79 388.33 678.34 387.09 673.99 Z" />
</g>
</svg>
