<?xml version="1.0" encoding="UTF-8"?>
<svg xmlns="http://www.w3.org/2000/svg" width="752" height="925" viewBox="-817.752 -906.572 1635.504 2011.753" xmlns:xlink="http://www.w3.org/1999/xlink">
<g style="stroke:red;stroke-width:0.762;stroke-linejoin:bevel">
<path style="fill:#E31E24" d="M-805.371,815.107
C-805.371,894.912,-740.823,959.453,-661.016,959.453H-144.346
C-69.1895,969.531,-10.0684,1028.65,0,1103.8
C10.0684,1028.65,69.1895,969.531,144.346,959.453H661.016
C740.823,959.453,805.371,894.912,805.371,815.107V-896.191H-805.371Z"/>
<circle style="fill:#ffffff" r="84.6631"/>
<g style="fill:#ffffff" id="Main">
<path d="M-381.351,534.884
L0,257.816
L381.351,534.884
L300.547,593.592
L40.6091,404.733V475.01
L252.185,628.727
L183.092,678.921
L40.6091,575.402V694.264H-40.6091V575.402
L-183.092,678.921
L-252.185,628.727
L-40.6091,475.01V404.733
L-300.547,593.592Z"/>
<path d="M-125.424,-181.314
L-82.0955,-314.665
C-70.536,-350.233,-37.3966,-374.31,0,-374.31
C37.3966,-374.31,70.536,-350.233,82.0955,-314.665
L184.218,-0.356055
L132.058,37.5426
L23.7773,-295.718
C20.4314,-306.016,10.8318,-312.991,0,-312.991
C-10.8318,-312.991,-20.4314,-306.016,-23.7773,-295.718
L-60.9485,-181.314Z"/>
</g>
<use transform="rotate(72)" xlink:href="#Main"/>
<use transform="rotate(144)" xlink:href="#Main"/>
<use transform="rotate(216)" xlink:href="#Main"/>
<use transform="rotate(288)" xlink:href="#Main"/>
</g>
</svg>