<?xml version="1.0" encoding="UTF-8" standalone="no"?>
<!-- Created with Inkscape (http://www.inkscape.org/) -->

<svg
  xmlns:svg="http://www.w3.org/2000/svg"
  xmlns="http://www.w3.org/2000/svg"
  xmlns:xlink="http://www.w3.org/1999/xlink"
  version="1.1"
  width="600"
  height="706.7"
  id="svg2">
 <path
   d="M 4.938,4.938 V 552.1 C 5.432,608.9 47.9,653.8 118.5,655.3 h 115.1 c 36,0.5 51.3,13.3 66.6,46.4 c 12.9,-32.6 26.2,-45.9 65.7,-46.4 H 481 c 70.1,-1.5 112.6,-46.4 114.1,-103.2 V 4.938 H 4.938 z"
   style="fill:#ffffff" />
 <g
   style="fill:#10de10;fill-rule:nonzero">
  <path
    d="M 5.432,492.3 H 594.6 V 559 H 5.432 v -66.7 z" />
  <g
    style="fill:#3d3dff">
   <path
     d="M 5.432,395.2 H 594.6 v 64.7 H 5.432 v -64.7 z" />
   <path
     d="m 5.432,188.1 c 0,0 14.818,8.4 24.198,5.9 c 23.21,-4.9 37.53,-34.6 60.74,-38 c 11.33,-1.5 17.33,6.4 28.13,5.4 c 31.1,-2.5 89.9,-122.9 179.3,-96.26 c 1.5,27.2 36,17.3 59.7,18.3 c 31.6,1.5 51.9,57.76 82,65.66 c 15.3,4.4 19.8,-6.5 35.1,-4 c 41,6.9 121,51.9 121,51.9 l -2,170 H 5.402 V 188.1 h 0.03 z" />
  </g>
 </g>
 <g
   transform="matrix(5.63,0,0,5.63,-2712,-2271)">
  <path
    d="M 536.3,444.6 L 535,443.5 L 521.3,455 h -4.4 L 535,439.8 l 2.6,2.2 m -1.9,13 H 514.6 V 439.8 H 535 m 0.7,15.2 h -18.8 v 3.7 h 18.8 m 0,0 H 519 v 3.3 h 16.7 m 0,0 h -12.1 l -1.2,2.6 v 6.3 h 4.1 c 0.8,-4.1 5.3,-6 9,-5.8 m -13.1,5.8 v 22.9 h 4.1 v -22.9 h -4.1 z m 7.8,-31.1 v 3.9 m -3.8,-3.9 v 7 m -3.8,-7 V 450 m -3.8,-10.2 v 13.6 m -0.6,11.2 l -1,-2.6 h 6.4 l -1.2,2.6 h -4.2 z m 4.2,29.2 v -29.2 h -4.2 v 29.2 h 4.2 z m 4.9,2.1 v -2.1 h -10.9 v 2.1 h 10.9 z m 4.1,3 h -17.6 v -3 h 17.6 v 3 z m 8.6,-15.3 c 0,0.5 -2.3,0.8 -5.1,0.8 c -2.6,0 -4.8,-0.3 -4.8,-0.8 c 0,-0.5 2.2,-0.8 4.8,-0.8 c 2.8,0 5.1,0.3 5.1,0.8 z m 0,0.1 l -4,4.8 v 11.2 c -0.7,0.4 -1.3,0.3 -2,0 v -11.2 l -4,-4.8"
    id="a"
    style="fill:#ffffff;stroke:#000000;stroke-width:0.8881;stroke-linecap:round;stroke-linejoin:miter;stroke-miterlimit:4;stroke-dasharray:none" />
  <use
    transform="matrix(-1,0,0,1,1070,0)"
    id="use21"
    x="0"
    y="0"
    width="744.1"
    height="1052"
    xlink:href="#a" />
 </g>
 <g
   style="fill:none;stroke:#000000;stroke-width:10;stroke-linecap:round;stroke-linejoin:miter;stroke-miterlimit:4;stroke-dasharray:none">
  <path
    d="M 4.938,4.938 V 552.1 C 5.432,608.9 47.9,653.8 118.5,655.3 h 115.1 c 36,0.5 51.3,13.3 66.6,46.4 c 12.9,-32.6 26.2,-45.9 65.7,-46.4 H 481 c 70.1,-1.5 112.6,-46.4 114.1,-103.2 V 4.938 H 4.938 z" />
  <path
    d="m 318,441.7 c -1,-11.8 -10.8,0 -17.3,7.4 c 6.5,-19.7 14.4,-33 16.3,-22.2 m -16.3,22.8 c 1.5,-15.9 2.5,-54.9 9.4,-33.1 m -28.6,25.1 c 1,-11.8 11.3,0 17.3,7.4 c -6,-19.7 -14.8,-33 -16.3,-22.2 m 16.3,22.8 c -1.5,-15.9 -3,-54.9 -8.9,-33.1"
    style="stroke:#ffffff;stroke-width:5" />
 </g>
</svg>
