<?xml version="1.0" encoding="utf-8"?>
<!DOCTYPE svg PUBLIC "-//W3C//DTD SVG 1.1//EN" "http://www.w3.org/Graphics/SVG/1.1/DTD/svg11.dtd">
<svg version="1.1" id="Layer_1" xmlns="http://www.w3.org/2000/svg" xmlns:xlink="http://www.w3.org/1999/xlink" x="0px" y="0px"
	 width="459px" height="545px" viewBox="0 0 459 545" enable-background="new 0 0 459 545" xml:space="preserve">
<g transform="translate(0.470703, 0.887695)">
	<path fill="#FFFFFF" d="M0,0h457.841v423.523l-0.21,4.395l-0.209,4.393l-0.418,4.396l-0.628,4.394l-0.838,4.186l-1.046,3.976
		l-1.255,4.186l-1.465,3.767l-1.466,3.975l-1.883,3.559l-1.883,3.766l-2.093,3.349l-2.302,3.348l-2.721,3.348l-2.72,2.931
		l-2.72,2.93l-3.141,2.719l-3.347,2.721l-3.348,2.303l-3.768,2.511l-3.766,1.882l-3.768,2.093l-4.184,1.675l-4.186,1.674
		l-4.395,1.256l-4.604,1.256l-4.604,1.254l-4.813,0.837l-5.021,0.628l-5.231,0.419l-5.231,0.209l-5.441,0.209h-51.894h-3.557
		l-3.35,0.209h-3.347l-3.349,0.419l-3.139,0.21l-3.139,0.419l-2.93,0.419l-2.931,0.627l-2.928,0.628l-2.721,0.628l-2.72,0.628
		l-2.721,0.837l-2.721,0.837l-2.511,0.837l-2.303,0.836l-2.51,1.046l-2.302,1.047l-2.302,1.047l-2.302,1.047l-2.093,1.255
		l-2.093,1.256l-2.092,1.255L251.1,524.8l-2.093,1.256l-1.883,1.466l-1.884,1.465l-1.883,1.464l-1.674,1.465l-1.885,1.465
		l-1.673,1.464l-1.883,1.674l-7.324,7.324l-7.324-7.324l-1.883-1.674l-1.674-1.464l-1.884-1.465l-1.674-1.465l-1.883-1.464
		l-1.884-1.465l-2.092-1.466l-1.884-1.256l-2.093-1.255l-2.092-1.255l-2.093-1.256l-2.093-1.255l-2.302-1.047l-2.302-1.047
		l-2.302-1.047l-2.511-1.046l-2.511-0.836l-2.512-0.837l-2.511-0.837l-2.721-0.837l-2.72-0.628l-2.722-0.628l-2.928-0.628
		l-2.93-0.627l-3.139-0.419l-2.93-0.419l-3.139-0.21l-3.348-0.419h-3.349l-3.558-0.209h-3.557H92.697l-5.44-0.209l-5.231-0.209
		l-5.23-0.419l-5.022-0.628l-4.813-0.837l-4.604-1.254l-4.604-1.256l-4.395-1.256l-4.185-1.674l-4.186-1.675l-3.976-2.093
		l-3.767-1.882l-3.558-2.511l-3.348-2.303l-3.348-2.721l-2.93-2.719l-2.93-2.93l-2.721-2.931l-2.511-3.348l-2.511-3.348
		l-2.093-3.349l-1.883-3.766l-1.884-3.559l-1.674-3.975l-1.255-3.767l-1.256-4.186l-1.046-3.976L1.464,441.1l-0.628-4.394
		l-0.418-4.396l-0.209-4.393L0,423.523V0z"/>
</g>
<g transform="translate(6.12012, 6.32813)">
	<path fill="#161413" d="M0,0h446.751v418.083l-0.21,4.186l-0.209,4.185l-0.419,4.186l-0.627,3.976l-0.838,3.976l-1.046,3.977
		l-1.045,3.557l-1.257,3.766l-1.465,3.558l-1.674,3.558l-1.883,3.139l-1.884,3.348l-2.302,3.139l-2.302,2.93l-2.511,2.721
		l-2.721,2.72l-2.72,2.511l-3.139,2.513l-3.139,2.301l-3.349,2.092l-3.557,1.884l-3.557,1.883l-3.768,1.675l-4.186,1.465
		l-3.976,1.255l-4.394,1.256l-4.395,1.046l-4.813,0.628l-4.604,0.837l-5.022,0.419l-5.021,0.209l-5.231,0.209h-51.895h-3.557
		l-3.558,0.209h-3.558l-3.348,0.419l-3.348,0.209l-3.14,0.419l-3.139,0.629l-3.138,0.418l-2.931,0.628l-2.93,0.627l-2.929,0.837
		l-2.929,0.837l-2.722,0.837l-2.511,0.837l-2.719,1.046l-2.513,1.047l-2.511,1.046l-2.302,1.257l-2.51,1.046l-2.303,1.255
		l-2.093,1.256l-2.302,1.255l-2.092,1.465l-2.092,1.465l-2.094,1.465l-2.093,1.465l-1.884,1.465l-1.882,1.674l-1.883,1.674
		l-1.885,1.465l-1.674,1.674l-3.766,3.558l-3.559-3.558l-1.883-1.674l-1.884-1.465l-1.882-1.674l-1.883-1.674l-1.885-1.465
		l-2.093-1.465l-2.092-1.465l-2.092-1.465l-2.094-1.465l-2.092-1.255l-2.302-1.256l-2.511-1.255l-2.302-1.046l-2.303-1.257
		l-2.511-1.046l-2.51-1.047l-2.722-1.046l-2.511-0.837l-2.93-0.837l-2.719-0.837l-2.722-0.837l-2.93-0.627l-3.138-0.628l-3.14-0.418
		l-3.139-0.629l-3.138-0.419l-3.35-0.209l-3.348-0.419h-3.557l-3.558-0.209h-3.766H87.048l-5.23-0.209l-5.022-0.209l-5.022-0.419
		l-4.813-0.837l-4.604-0.628l-4.394-1.046l-4.395-1.256l-4.186-1.255l-3.767-1.465l-3.976-1.675l-3.767-1.883l-3.348-1.884
		l-3.349-2.092l-3.139-2.301L24.9,477.51l-2.72-2.511l-2.721-2.72l-2.511-2.721l-2.302-2.93l-2.302-3.139l-1.884-3.348l-1.883-3.139
		l-1.674-3.558l-1.465-3.558l-1.256-3.766l-1.255-3.557l-0.837-3.977l-0.837-3.976l-0.628-3.976l-0.419-4.186L0,422.269v-4.186V0z"
		/>
</g>
<g transform="translate(8.63086, 9.04785)">
	<path fill="#3E97D1" d="M0,0h220.76h220.55v415.363c0,44.778-28.668,76.377-84.327,76.377h-51.895
		c-39.967,0-65.495,13.811-84.328,32.434c-18.831-18.623-44.57-32.434-84.327-32.434H84.537C28.877,491.74,0,460.142,0,415.363V0z"
		/>
</g>
<g>
	<g id="Fish_2">
		<g>
			<path fill="#FFFFFF" d="M318.995,424.519c-0.879,0.109-4.913,1.013-9.678,1.31c-5.635,0.353-10.703-0.354-10.703-0.354
				s-5.679-1.836-9.877-4.132c-2.96-1.617-6.458-3.303-7.993-4.994c-1.442-1.591-1.011-3.236-1.011-3.236s-2.739-1.992-3.175-2.879
				c-0.972-1.973-0.451-5.895-1.254-5.954c-1.19-0.086-2.688-0.682-2.688-0.682s-6.676-4.467-7.348-5.258
				c-0.295-0.348-0.434-0.65-0.538-0.9c-0.104-0.246-0.202-0.621-0.202-0.621s-1.81,1.271-4.216,2.825
				c-2.06,1.33-3.874,2.412-3.874,2.412s0.626,0.565,0.983,1.002c0.43,0.524,0.782,0.914,0.927,1.165
				c0.467,0.813,0.821,2.058,0.821,2.058s-0.741,0.357-1.341,0.433c0.22-0.027-0.666-0.007-1.522-0.106
				c-0.732-0.087-1.35-0.282-2.252-0.443c-0.705-0.126-2.04-0.138-3.256-0.257c-0.376-0.037-0.998-0.194-0.99-0.198
				c-0.491,0.245-0.979,0.481-1.461,0.709c-4.783,2.25-9.096,3.603-12.309,3.476c-1.144-0.044-3.763,0.821-5.153,1.314
				c-0.49,0.174-0.734,0.267-0.734,0.267s0.006,0.173,0.015,0.487c0.023,0.731,0.063,1.604,0.133,2.342
				c0.145,1.525,0.735,3.154,0.735,3.154s2.371,0.889,3.43,2.632c1.548,2.547,4.953,6.185,6.806,7.889
				c2.469,2.269,3.4,1.542,3.4,1.542s0.586-2.581,0.729-5.436c0.082-1.665-0.109-2.965-0.166-4.236
				c-0.051-1.116,0.036-2.314,0.036-2.314s2.304-0.445,7.04,1.713c4.029,1.837,9.038,4.651,12.783,7.442
				c2.938,2.188,6.196,4.952,8.135,6.581c1.943,1.631,4.445,4.56,5.309,1.178c0.298-1.171-0.534-3.217-0.714-4.125
				c-0.345-1.741-0.362-3.94,0.346-4.558c0.342-0.298,1.267-0.51,2.354-0.419c1.138,0.096,2.433,0.504,2.433,0.504
				s6.19,3.2,8.925,6.079c2.234,2.351,3.513,5.232,3.513,5.232s1.658,6.787,3.601,12.66c1.526,4.613,3.284,8.317,4.164,10.054
				c1.362,2.688,3.923,4.783,3.923,4.783s2.481-5.372,3.972-10.386c0.839-2.826-0.232-5.254-0.557-7.436
				c-0.539-3.645,0.705-4.431,0.705-4.431s0.758-1.332,1.701-1.529c2.338-0.489,6.588-0.17,8.947-0.379
				c1.174-0.104,1.714-3.562,1.714-3.562s3.028-2.06,7.437-4.736c4.469-2.717,10.319-6.052,10.319-6.052
				C330.512,423.554,324.606,423.821,318.995,424.519z M271.288,415.978c-0.43,0.026-1.103-0.159-4.222-0.881
				c-3.195-0.74-5.279-1.404-5.28-1.856c-0.003-0.659,0.441-1.158,1.102-1.938c0.241-0.285,0.321-1.086,0.338-1.229
				c0.058-0.667-0.209-2.156-0.04-2.487c0.104-0.203,0.35-0.892,0.765-1.064c0.238-0.1,0.7,0.249,1.057,0.504
				c0.678,0.485,2.509,1.221,4.043,3.005c1.819,1.487,2.639,2.695,3.218,3.641c0.566,0.964,0.669,1.808,0.653,1.807
				C272.675,415.91,271.65,415.958,271.288,415.978z M224.981,366.608c0,0-1.597-0.376-2.563-0.232
				c-2.182,0.326-3.295-0.554-3.295-0.554s-0.628-2.629-1.133-3.188c-0.439-0.486-4.313-0.551-4.313-0.551s-0.586-2.377-1.163-2.99
				c-0.129-0.138-3-0.198-3-0.198s-0.499-2.525-1.608-2.811c-0.59-0.152-3.896-0.649-3.896-0.649s-0.737-0.278-1.365-1.124
				c-0.493-0.666-2.431-2.058-1.914-1.935c-3.79-0.903-15.686-8.403-17.99-9.771c-5.268-3.13-6.387-4.714-7.546-5.347
				c-2.323-1.27-1.981-0.652-3.066-0.059c-0.911,0.221-2.735-1.214-3.843-1.374c-1.018-0.147-2.937,0.057-3.931-0.094
				c-1.815-0.277-1.271-0.989-2.421-1.537c-2.119-1.013-4.546-0.05-4.546-0.05s-3.259,0.125-4.866-0.804
				c-3.209-1.852-7.285-2.8-10.365-3.903c-4.078-1.46-7.02-2.522-7.02-2.522s-0.61,4.899,0.797,9.596
				c0.635,2.113,3.346,7.832,5.417,11.443c2.127,3.708,5.868,6.859,8.517,10.24c1.519,1.936,4.131,2.927,5.818,4.137
				c2.508,1.799,4.474,3.505,4.474,3.505s21.556,19.676,31.118,26.764c0.768,0.568,2.329,1.696,2.329,1.696s0.127-1.821,0.532-2.085
				c0.563-0.369,0.861-2.039,1.492-2.438c0.873-0.553,1.783-0.23,1.783-0.23l1.855-1.452l2.098,0.337l5.02-3.746
				c0,0,1.698-3.521,2.933-3.639c1.382-0.13,3.26-0.697,4.569-0.752c1.08-0.045,3.793-0.262,3.719-1.12
				c-0.026-0.32-0.065-0.186-0.193-0.058c-0.324,0.323-0.764,0.505-0.951,0.481c-1.127-0.136-2.698-0.515-3.273-0.639
				c-0.146-0.03-1.441-0.334-2.688-0.564c-1.244-0.228-2.617-0.311-3.285-0.61c-1.325-0.595-1.295-0.79-0.735-2.261
				c0.403-1.052,0.964-1.469,1.08-2.066c0.071-0.298,0.589-1.963,0.67-2.283c1.079-1.636,0.923-1.949,2.644-0.616
				c0.271,0.253,1.398,1.503,2.234,2.261c0.865,0.782,1.129,1.032,2.948,2.756c0.417,0.396,0.782,0.802,1.076,1.177
				c0.296,0.377,0.651,0.977,0.651,0.977s0.432-1.224,0.578-1.535c0.348-0.749,0.686-1.285,0.686-1.285s0.945-0.612,1.826-0.392
				c0.61,0.152,0.771-1.692,1.346-2.019c0.004-0.004,1.36-0.005,1.363-0.01c0.53-0.581,1.939-1.756,1.995-1.763
				c0.226-0.024,0.438-0.061,0.678-0.019c0.209,0.017,0.743,0.102,0.743,0.102s-0.33-0.496-0.473-0.799
				C225.819,368.485,224.981,366.608,224.981,366.608z M146.03,341.17c-1.108,0.055-2.07-0.931-2.146-2.2
				c-0.078-1.271,0.758-2.345,1.867-2.398c1.108-0.055,2.07,0.931,2.146,2.201C147.975,340.042,147.139,341.116,146.03,341.17z
				 M161.614,357.314c-0.268-0.619-0.08-1.327,0.271-1.853c0.223-0.332,0.535-0.389,0.773-0.458c0.508-0.146,1.383-0.09,2.046-0.495
				c1.251-0.765,2.597-1.73,2.699-5.252c0.067-1.995,0.146-2.839,0.052-4.013c-0.132-1.724,0.146-2.88,0.459-2.894
				c0.546-0.026,1.082,1.068,1.352,1.886c0.313,0.95,0.532,2.063,0.684,3.261c0.074,0.6,0.132,1.22,0.174,1.854
				c0.021,0.315,0.035,0.636,0.049,0.956c0.014,0.321,0.021,0.645,0.027,0.968c0.046,1.718-0.974,5.839-5.303,6.891
				C165.62,357.943,162.27,358.831,161.614,357.314z M176.436,354.61C176.427,354.857,176.417,354.877,176.436,354.61
				c0.001-0.034,0.002-0.083,0.004-0.125c-0.228,2.426-1.234,5.638-3.365,8.26c-2.838,3.094-6.826,3.088-7.374,1.438
				c-0.149-0.449-0.31-1.038-0.11-1.637c0.357-1.04,1.441-1.72,2.455-2.033c1.197-0.369,5.28-2.499,5.094-8.96
				c-0.096-3.871-0.828-6.038-1.254-7.368c-0.148-0.459-0.938-2.25-0.65-2.55c0.428-0.444,2.751,1.85,3.894,4.733
				c1.323,3.335,1.343,7.034,1.312,8.117c0.004-0.043,0.012-0.089,0.016-0.131C176.446,354.464,176.44,354.541,176.436,354.61z
				 M190.407,363.396c0,0-0.192,0.512-0.475,0.562c-0.426,0.077-1.278,0.01-1.278,0.01s-3.021-0.7-6.771-1.089
				c-2.177-0.225-3.213-0.785-3.439-1.322c-0.131-0.304,0.141-1.241,0.272-1.524c0.14-0.3,1.04-1.452,1.103-1.831
				c0.166-1.006,0.095-1.643,0.354-2.411c0.225-0.673,0.971-1.374,1.146-1.42c0.493-0.127,1.775,0.925,5.215,3.702
				c1.305,1.054,2.203,1.871,2.877,2.777C190.585,362.432,190.407,363.396,190.407,363.396z M204.352,370.912
				c0,0-0.708,0.539-1.104,0.582c-0.539,0.057-2.797-0.614-3.428-0.64c-2.597-0.103-4.299-0.408-6.441-1.237
				c-0.445-0.171-0.599-0.896-0.586-0.954c0.087-0.418,0.238-0.998,0.423-1.18c1.887-1.848,1.454-2.79,1.604-4.271
				c0.033-0.313,1.17-0.921,1.373-0.972s1.507,0.703,3.014,1.994c0.951,0.815,1.668,1.539,2.584,2.451
				c0.883,0.88,1.523,1.651,1.909,2.285C204.45,370.203,204.352,370.912,204.352,370.912z"/>
		</g>
	</g>
	<g id="Fish_1">
		<g>
			<path fill="#FFFFFF" d="M323.862,326.916c0,0-2.94,1.063-7.019,2.522c-3.08,1.104-7.157,2.052-10.366,3.903
				c-1.608,0.929-4.867,0.804-4.867,0.804s-2.425-0.963-4.545,0.05c-1.15,0.548-0.604,1.26-2.422,1.537
				c-0.993,0.15-2.912-0.054-3.929,0.094c-1.108,0.16-2.933,1.595-3.844,1.374c-1.084-0.594-0.741-1.211-3.065,0.059
				c-1.16,0.633-2.279,2.217-7.548,5.347c-2.304,1.368-14.199,8.868-17.989,9.771c0.517-0.123-1.421,1.269-1.915,1.935
				c-0.627,0.846-1.363,1.124-1.363,1.124s-3.308,0.497-3.898,0.649c-1.108,0.285-1.607,2.811-1.607,2.811s-2.871,0.061-3,0.198
				c-0.577,0.613-1.163,2.99-1.163,2.99s-3.873,0.064-4.313,0.551c-0.506,0.559-1.132,3.188-1.132,3.188s-1.114,0.88-3.296,0.554
				c-0.967-0.144-2.563,0.232-2.563,0.232s-0.836,1.877-1.546,3.397c-0.965,2.068-2.785,2.35-2.785,2.35s-1.551-0.672-2.983-0.511
				c-0.057,0.005-1.466,1.181-1.995,1.761c-0.005,0.005-1.359,0.006-1.365,0.009c-0.572,0.328-0.734,2.172-1.346,2.019
				c-0.878-0.221-1.824,0.393-1.824,0.393s-1.59,2.529-1.441,4.267c0.073,0.858-2.641,1.076-3.721,1.121
				c-1.308,0.055-3.186,0.622-4.566,0.752c-1.236,0.116-2.934,3.638-2.934,3.638l-5.02,3.746l-2.098-0.337l-1.855,1.452
				c0,0-0.91-0.322-1.783,0.231c-0.631,0.398-0.93,2.068-1.493,2.438c-0.692,0.452-0.212,3.451-1.53,5.006
				c-0.674,0.791-7.348,5.258-7.348,5.258s-1.498,0.596-2.688,0.682c-0.805,0.06-0.283,3.981-1.256,5.954
				c-0.435,0.887-3.174,2.879-3.174,2.879s0.432,1.646-1.012,3.236c-1.534,1.691-5.031,3.377-7.992,4.994
				c-4.197,2.296-9.877,4.132-9.877,4.132s-5.067,0.707-10.703,0.354c-4.764-0.297-8.801-1.2-9.679-1.31
				c-5.61-0.697-11.517-0.965-22.323,1.629c0,0,5.85,3.335,10.32,6.052c4.408,2.677,7.436,4.736,7.436,4.736
				s0.541,3.457,1.715,3.562c2.358,0.209,6.61-0.11,8.946,0.379c0.944,0.197,1.701,1.529,1.701,1.529s1.245,0.786,0.706,4.431
				c-0.324,2.182-1.395,4.609-0.557,7.436c1.49,5.014,3.973,10.386,3.973,10.386s2.561-2.096,3.922-4.783
				c0.88-1.736,2.639-5.44,4.164-10.054c1.943-5.873,3.601-12.66,3.601-12.66s1.28-2.882,3.513-5.232
				c2.736-2.879,8.924-6.079,8.924-6.079s1.295-0.408,2.434-0.504c1.087-0.091,2.01,0.121,2.354,0.419
				c0.709,0.617,0.689,2.816,0.346,4.558c-0.178,0.908-1.012,2.954-0.714,4.125c0.863,3.382,3.365,0.453,5.309-1.178
				c1.938-1.629,5.198-4.393,8.134-6.581c3.748-2.791,8.755-5.605,12.784-7.442c4.735-2.158,7.04-1.713,7.04-1.713
				s0.087,1.198,0.036,2.314c-0.057,1.271-0.248,2.571-0.165,4.236c0.143,2.854,0.728,5.436,0.728,5.436s0.932,0.727,3.399-1.542
				c1.854-1.704,5.26-5.342,6.808-7.889c1.06-1.743,3.429-2.632,3.429-2.632s0.592-1.629,0.735-3.154
				c0.155-1.619,0.165-3.887,0.165-3.887s4.462-1.708,6.056-1.646c7.573,0.298,21.271-7.623,32.802-16.169
				c9.563-7.088,31.117-26.764,31.117-26.764s1.966-1.706,4.475-3.505c1.687-1.21,4.3-2.201,5.817-4.137
				c2.649-3.381,6.391-6.532,8.518-10.24c2.07-3.611,4.784-9.33,5.417-11.443C324.472,331.815,323.862,326.916,323.862,326.916z
				 M191.932,415.097c-3.118,0.722-3.793,0.907-4.221,0.881c-0.361-0.02-1.385-0.067-1.631-0.501
				c-0.018,0.001,0.085-0.843,0.651-1.807c0.579-0.945,1.397-2.153,3.22-3.641c1.532-1.784,3.363-2.52,4.041-3.005
				c0.357-0.255,0.818-0.604,1.057-0.504c0.415,0.173,0.66,0.861,0.764,1.064c0.17,0.331-0.098,1.82-0.041,2.487
				c0.018,0.144,0.098,0.944,0.34,1.229c0.66,0.78,1.104,1.279,1.102,1.938C197.213,413.692,195.129,414.356,191.932,415.097z
				 M210.702,405.217c0,0-1.576,0.6-2.502,0.688c-1.215,0.119-2.551,0.131-3.255,0.257c-0.904,0.161-1.521,0.356-2.252,0.443
				c-0.857,0.1-1.743,0.079-1.524,0.106c-0.6-0.075-1.34-0.433-1.34-0.433s0.354-1.245,0.822-2.058
				c0.344-0.6,1.711-2.119,3.482-3.557c3.155-2.561,3.793-2.309,4.075-2.298s1.08,0.927,1.208,1.253
				c0.15,0.383,0.053,1.801,0.186,2.197c0.074,0.219,0.652,0.983,0.739,1.221C211.012,404.812,210.702,405.217,210.702,405.217z
				 M223.926,395.286c-1.884,0.271-3.978,0.431-5.792,0.834c-1.73,0.385-3.088,0.597-3.289,0.604
				c-0.744,0.034-1.438-0.155-1.438-0.155s-0.079-0.569,0.393-1.503c0.536-1.062,1.528-2.337,3.647-3.987
				c2.421-1.786,3.144-2.56,3.735-3.151c0.359-0.357,0.941-0.52,1.208-0.491c0.628,0.069,1.353,2.063,1.329,3.123
				c-0.004,0.648,0.208,1.329,0.671,2.315C225.505,395.179,225.27,395.093,223.926,395.286z M236.693,386.686
				c0.021-0.003-1.741,0.13-3.652,0.465c-0.423,0.076-2.47,0.72-4.027,0.944c-0.829,0.119-1.717-0.102-1.717-0.102
				s-0.589-2.285,4.101-5.917c1.233-1.233,3.42-3.369,3.42-3.369s1.216-0.594,1.627-0.439c0.411,0.153,0.854,1.911,1.09,3.739
				c0.162,1.14,0.595,1.639,0.929,2.05c0.647,0.798,1.023,1.098,0.968,1.834C239.407,386.213,239.376,386.299,236.693,386.686z
				 M251.782,377.781c-0.669,0.3-2.042,0.383-3.285,0.61c-1.247,0.23-2.543,0.534-2.688,0.564c-0.575,0.124-2.146,0.503-3.272,0.639
				c-0.367,0.046-1.627-0.773-1.462-1.517c0.1-0.453,0.819-1.512,1.866-2.507c1.82-1.724,2.083-1.974,2.948-2.756
				c0.836-0.758,1.962-2.008,2.236-2.261c1.718-1.333,1.563-1.02,2.642,0.616c0.08,0.32,0.6,1.985,0.67,2.283
				c0.117,0.598,0.676,1.015,1.08,2.066C253.078,376.991,253.107,377.187,251.782,377.781z M265.62,369.617
				c-2.143,0.829-3.844,1.135-6.44,1.237c-0.632,0.025-2.89,0.696-3.428,0.64c-0.397-0.043-1.104-0.582-1.104-0.582
				s-0.098-0.709,0.649-1.94c0.386-0.634,1.028-1.405,1.91-2.285c0.916-0.912,1.633-1.636,2.585-2.451
				c1.507-1.291,2.81-2.045,3.014-1.994c0.201,0.051,1.339,0.659,1.371,0.972c0.151,1.48-0.281,2.423,1.604,4.271
				c0.187,0.182,0.337,0.762,0.426,1.18C266.219,368.721,266.065,369.446,265.62,369.617z M280.556,361.557
				c-0.228,0.537-1.264,1.098-3.438,1.322c-3.751,0.389-6.772,1.089-6.772,1.089s-0.852,0.067-1.279-0.01
				c-0.28-0.05-0.476-0.562-0.476-0.562s-0.176-0.965,0.998-2.547c0.673-0.906,1.572-1.724,2.876-2.777
				c3.442-2.777,4.722-3.829,5.215-3.702c0.177,0.046,0.924,0.747,1.148,1.42c0.258,0.769,0.187,1.405,0.352,2.411
				c0.062,0.379,0.964,1.531,1.104,1.831C280.415,360.315,280.684,361.253,280.556,361.557z M293.299,364.183
				c-0.549,1.65-4.536,1.656-7.375-1.438c-2.132-2.623-3.136-5.835-3.364-8.262c0.001,0.043,0.002,0.091,0.004,0.126
				c0.019,0.268,0.01,0.248,0,0c-0.005-0.069-0.011-0.146-0.02-0.255c0.004,0.041,0.012,0.087,0.016,0.129
				c-0.032-1.085-0.012-4.782,1.311-8.115c1.145-2.884,3.466-5.178,3.894-4.733c0.288,0.3-0.501,2.091-0.648,2.55
				c-0.428,1.33-1.16,3.497-1.256,7.368c-0.185,6.461,3.896,8.591,5.096,8.96c1.014,0.313,2.097,0.993,2.454,2.033
				C293.606,363.145,293.447,363.733,293.299,364.183z M297.385,357.314c-0.653,1.517-4.006,0.629-3.283,0.851
				c-4.327-1.052-5.348-5.173-5.301-6.891c0.005-0.323,0.014-0.646,0.026-0.968c0.013-0.32,0.029-0.641,0.049-0.956
				c0.041-0.634,0.098-1.254,0.174-1.854c0.151-1.198,0.37-2.311,0.684-3.261c0.27-0.817,0.805-1.912,1.352-1.886
				c0.313,0.014,0.591,1.17,0.459,2.894c-0.095,1.174-0.016,2.018,0.052,4.013c0.104,3.521,1.448,4.487,2.699,5.252
				c0.663,0.405,1.538,0.35,2.045,0.495c0.238,0.069,0.552,0.126,0.774,0.458C297.465,355.987,297.653,356.695,297.385,357.314z
				 M312.969,341.17c-1.109-0.054-1.945-1.128-1.868-2.397c0.077-1.271,1.038-2.256,2.147-2.201
				c1.109,0.054,1.945,1.128,1.868,2.398C315.04,340.239,314.078,341.225,312.969,341.17z"/>
		</g>
	</g>
	<g id="Lune">
		<g>
			<path fill-rule="evenodd" clip-rule="evenodd" fill="#FFFFFF" d="M324.634,210.58c-0.222-3.879-15.941,73.701-95.135,73.701
				c-78.399,0-94.906-77.994-95.152-73.375c-1.599,29.979,11.682,60.012,36.549,78.97c32.654,24.893,79.501,26.044,113.382,2.754
				C311.499,273.918,326.448,242.292,324.634,210.58z"/>
		</g>
	</g>
	<g id="Cross">
		<g>
			<polygon fill-rule="evenodd" clip-rule="evenodd" fill="#FFFFFF" points="330.194,115.078 247.425,125.866 258.27,43.153 
				200.729,43.153 211.574,125.866 128.807,115.078 128.807,172.617 211.574,161.828 200.729,244.541 258.27,244.541 
				247.48,161.772 330.194,172.617 			"/>
		</g>
	</g>
</g>
</svg>
