<?xml version="1.0" encoding="UTF-8" standalone="no"?>
<!-- Created with Inkscape (http://www.inkscape.org/) -->

<svg
   xmlns:dc="http://purl.org/dc/elements/1.1/"
   xmlns:cc="http://creativecommons.org/ns#"
   xmlns:rdf="http://www.w3.org/1999/02/22-rdf-syntax-ns#"
   xmlns:svg="http://www.w3.org/2000/svg"
   xmlns="http://www.w3.org/2000/svg"
   xmlns:xlink="http://www.w3.org/1999/xlink"
   version="1.1"
   width="185"
   height="284"
   id="svg2"
   style="display:inline">
  <metadata
     id="metadata8">
    <rdf:RDF>
      <cc:Work
         rdf:about="">
        <dc:format>image/svg+xml</dc:format>
        <dc:type
           rdf:resource="http://purl.org/dc/dcmitype/StillImage" />
        <dc:title></dc:title>
      </cc:Work>
    </rdf:RDF>
  </metadata>
  <defs
     id="defs6">
    <linearGradient
       id="linearGradient4358">
      <stop
         id="stop4360"
         style="stop-color:#ba1602;stop-opacity:1"
         offset="0" />
      <stop
         id="stop4362"
         style="stop-color:#f6ce00;stop-opacity:1"
         offset="1" />
    </linearGradient>
    <linearGradient
       id="linearGradient4155">
      <stop
         id="stop4157"
         style="stop-color:#c46300;stop-opacity:1"
         offset="0" />
      <stop
         id="stop4159"
         style="stop-color:#ffe202;stop-opacity:1"
         offset="1" />
    </linearGradient>
    <filter
       color-interpolation-filters="sRGB"
       id="filter4328">
      <feGaussianBlur
         result="result0"
         in="SourceGraphic"
         stdDeviation="0.01"
         id="feGaussianBlur4330" />
      <feColorMatrix
         values="1 0 0 -1 0 1 0 1 -1 0 1 0 0 -1 0 -0.8 -1 0 4 -2.5 "
         in="result0"
         result="fbSourceGraphicAlpha"
         id="feColorMatrix4332" />
      <feGaussianBlur
         stdDeviation="0.5"
         in="fbSourceGraphicAlpha"
         result="result0"
         id="feGaussianBlur4334" />
      <feDiffuseLighting
         lighting-color="#ffffff"
         result="result6"
         diffuseConstant="0.40000001"
         surfaceScale="15"
         id="feDiffuseLighting4336">
        <feDistantLight
           elevation="25"
           azimuth="235"
           id="feDistantLight4338" />
      </feDiffuseLighting>
      <feComposite
         in2="SourceGraphic"
         operator="in"
         in="result6"
         result="result2"
         id="feComposite4340" />
      <feComposite
         in2="SourceGraphic"
         operator="arithmetic"
         k1="0"
         k2="0.8"
         k3="0.8"
         k4="0"
         id="feComposite4342" />
    </filter>
    <filter
       color-interpolation-filters="sRGB"
       id="filter4328-9">
      <feGaussianBlur
         result="result0"
         in="SourceGraphic"
         stdDeviation="0.01"
         id="feGaussianBlur4330-9" />
      <feColorMatrix
         values="1 0 0 -1 0 1 0 1 -1 0 1 0 0 -1 0 -0.8 -1 0 4 -2.5 "
         in="result0"
         result="fbSourceGraphicAlpha"
         id="feColorMatrix4332-7" />
      <feGaussianBlur
         stdDeviation="0.5"
         in="fbSourceGraphicAlpha"
         result="result0"
         id="feGaussianBlur4334-2" />
      <feDiffuseLighting
         lighting-color="#ffffff"
         result="result6"
         diffuseConstant="0.40000001"
         surfaceScale="15"
         id="feDiffuseLighting4336-6">
        <feDistantLight
           elevation="25"
           azimuth="235"
           id="feDistantLight4338-9" />
      </feDiffuseLighting>
      <feComposite
         in2="SourceGraphic"
         operator="in"
         in="result6"
         result="result2"
         id="feComposite4340-2" />
      <feComposite
         in2="SourceGraphic"
         operator="arithmetic"
         k1="0"
         k2="0.8"
         k3="0.8"
         k4="0"
         id="feComposite4342-3" />
    </filter>
    <filter
       color-interpolation-filters="sRGB"
       id="filter4328-1">
      <feGaussianBlur
         result="result0"
         in="SourceGraphic"
         stdDeviation="0.01"
         id="feGaussianBlur4330-4" />
      <feColorMatrix
         values="1 0 0 -1 0 1 0 1 -1 0 1 0 0 -1 0 -0.8 -1 0 4 -2.5 "
         in="result0"
         result="fbSourceGraphicAlpha"
         id="feColorMatrix4332-2" />
      <feGaussianBlur
         stdDeviation="0.5"
         in="fbSourceGraphicAlpha"
         result="result0"
         id="feGaussianBlur4334-7" />
      <feDiffuseLighting
         lighting-color="#ffffff"
         result="result6"
         diffuseConstant="0.40000001"
         surfaceScale="15"
         id="feDiffuseLighting4336-64">
        <feDistantLight
           elevation="25"
           azimuth="235"
           id="feDistantLight4338-1" />
      </feDiffuseLighting>
      <feComposite
         in2="SourceGraphic"
         operator="in"
         in="result6"
         result="result2"
         id="feComposite4340-5" />
      <feComposite
         in2="SourceGraphic"
         operator="arithmetic"
         k1="0"
         k2="0.8"
         k3="0.8"
         k4="0"
         id="feComposite4342-9" />
    </filter>
    <filter
       color-interpolation-filters="sRGB"
       id="filter4328-1-3">
      <feGaussianBlur
         result="result0"
         in="SourceGraphic"
         stdDeviation="0.01"
         id="feGaussianBlur4330-4-5" />
      <feColorMatrix
         values="1 0 0 -1 0 1 0 1 -1 0 1 0 0 -1 0 -0.8 -1 0 4 -2.5 "
         in="result0"
         result="fbSourceGraphicAlpha"
         id="feColorMatrix4332-2-8" />
      <feGaussianBlur
         stdDeviation="0.5"
         in="fbSourceGraphicAlpha"
         result="result0"
         id="feGaussianBlur4334-7-1" />
      <feDiffuseLighting
         lighting-color="#ffffff"
         result="result6"
         diffuseConstant="0.40000001"
         surfaceScale="15"
         id="feDiffuseLighting4336-64-3">
        <feDistantLight
           elevation="25"
           azimuth="235"
           id="feDistantLight4338-1-2" />
      </feDiffuseLighting>
      <feComposite
         in2="SourceGraphic"
         operator="in"
         in="result6"
         result="result2"
         id="feComposite4340-5-1" />
      <feComposite
         in2="SourceGraphic"
         operator="arithmetic"
         k1="0"
         k2="0.8"
         k3="0.8"
         k4="0"
         id="feComposite4342-9-4" />
    </filter>
    <filter
       color-interpolation-filters="sRGB"
       id="filter4328-6">
      <feGaussianBlur
         result="result0"
         in="SourceGraphic"
         stdDeviation="0.01"
         id="feGaussianBlur4330-6" />
      <feColorMatrix
         values="1 0 0 -1 0 1 0 1 -1 0 1 0 0 -1 0 -0.8 -1 0 4 -2.5 "
         in="result0"
         result="fbSourceGraphicAlpha"
         id="feColorMatrix4332-9" />
      <feGaussianBlur
         stdDeviation="0.5"
         in="fbSourceGraphicAlpha"
         result="result0"
         id="feGaussianBlur4334-5" />
      <feDiffuseLighting
         lighting-color="#ffffff"
         result="result6"
         diffuseConstant="0.40000001"
         surfaceScale="15"
         id="feDiffuseLighting4336-8">
        <feDistantLight
           elevation="25"
           azimuth="235"
           id="feDistantLight4338-3" />
      </feDiffuseLighting>
      <feComposite
         in2="SourceGraphic"
         operator="in"
         in="result6"
         result="result2"
         id="feComposite4340-6" />
      <feComposite
         in2="SourceGraphic"
         operator="arithmetic"
         k1="0"
         k2="0.8"
         k3="0.8"
         k4="0"
         id="feComposite4342-5" />
    </filter>
    <filter
       color-interpolation-filters="sRGB"
       id="filter4328-9-7">
      <feGaussianBlur
         result="result0"
         in="SourceGraphic"
         stdDeviation="0.01"
         id="feGaussianBlur4330-9-6" />
      <feColorMatrix
         values="1 0 0 -1 0 1 0 1 -1 0 1 0 0 -1 0 -0.8 -1 0 4 -2.5 "
         in="result0"
         result="fbSourceGraphicAlpha"
         id="feColorMatrix4332-7-6" />
      <feGaussianBlur
         stdDeviation="0.5"
         in="fbSourceGraphicAlpha"
         result="result0"
         id="feGaussianBlur4334-2-3" />
      <feDiffuseLighting
         lighting-color="#ffffff"
         result="result6"
         diffuseConstant="0.40000001"
         surfaceScale="15"
         id="feDiffuseLighting4336-6-1">
        <feDistantLight
           elevation="25"
           azimuth="235"
           id="feDistantLight4338-9-6" />
      </feDiffuseLighting>
      <feComposite
         in2="SourceGraphic"
         operator="in"
         in="result6"
         result="result2"
         id="feComposite4340-2-6" />
      <feComposite
         in2="SourceGraphic"
         operator="arithmetic"
         k1="0"
         k2="0.8"
         k3="0.8"
         k4="0"
         id="feComposite4342-3-2" />
    </filter>
    <linearGradient
       id="linearGradient4155-1">
      <stop
         id="stop4157-2"
         style="stop-color:#c46300;stop-opacity:1"
         offset="0" />
      <stop
         id="stop4159-3"
         style="stop-color:#ffe202;stop-opacity:1"
         offset="1" />
    </linearGradient>
    <linearGradient
       x1="70.934792"
       y1="32.299194"
       x2="71.163872"
       y2="45.709839"
       id="linearGradient4364"
       xlink:href="#linearGradient4358"
       gradientUnits="userSpaceOnUse" />
  </defs>
  <g
     transform="translate(-8.7842713,86.298669)"
     id="layer5"
     style="display:inline" />
  <g
     transform="translate(-8.7842713,86.298669)"
     id="layer1"
     style="display:inline" />
  <g
     transform="translate(-8.7842713,86.298669)"
     id="layer2"
     style="display:inline" />
  <g
     transform="translate(-8.7842713,86.298669)"
     id="layer3"
     style="display:inline" />
  <g
     transform="translate(-8.7842713,86.298669)"
     id="layer4"
     style="display:inline" />
  <g
     transform="translate(-8.7842713,86.298669)"
     id="layer6"
     style="display:inline" />
  <path
     d="m 0.64802372,52.445903 0,75.276627 0,55.01161 0,58.66673 c 0,12.74183 12.78015128,25.06806 29.05575828,24.89171 l 39.558397,0 c 15.402928,-0.3968 20.602761,7.94169 23.133566,16.98004 2.53079,-9.03835 7.684375,-17.37684 23.087295,-16.98004 l 39.60467,0 c 16.2756,0.17635 29.05576,-12.14988 29.05576,-24.89171 l 0,-58.66673 0,-55.01161 0,-75.276627 -183.49544628,0 z"
     id="path3663"
     style="fill:#267a1e;fill-opacity:1;stroke:#000000;stroke-width:1.31583858;stroke-linecap:round;stroke-linejoin:round;stroke-miterlimit:4;stroke-opacity:1;stroke-dasharray:none;stroke-dashoffset:0;display:inline;enable-background:new" />
  <path
     d="m 1.3561162,187.25361 0,-134.247002 182.0642638,0 0,134.247002 -182.0642638,0 z"
     id="path3661"
     style="fill:#ba1602;fill-opacity:1;stroke:none;display:inline;enable-background:new" />
  <path
     d="m 92.765882,95.520603 c -32.489924,0 -58.993025,7.741147 -60.378606,17.442707 l -0.09253,0 0,88.64782 0.138802,0 c 2.067411,9.50702 28.305252,17.02631 60.332339,17.02631 32.014813,0 58.154703,-7.52446 60.239803,-17.02631 0.007,-0.0327 0.0397,-0.0597 0.0462,-0.0925 0.0751,-0.37202 0.13873,-0.73271 0.13873,-1.11041 l -0.0462,-0.64774 c -0.0164,-0.14583 -0.065,-0.27152 -0.0925,-0.4164 l 0,-84.48379 c 0.0751,-0.37201 0.13874,-0.7327 0.13874,-1.11041 l -0.0461,-0.64774 c -1.10328,-9.82616 -27.7983,-17.581507 -60.378613,-17.581507 z"
     id="path2987"
     style="fill:#999999;fill-opacity:1;stroke:#000000;stroke-width:0.76336193;stroke-miterlimit:4;stroke-opacity:1;stroke-dasharray:none;display:inline" />
  <g
     transform="matrix(1.4805482,0,0,1.4805482,-13.00078,-8.672977)"
     id="g4374"
     style="display:inline">
    <path
       d="M 109.16252,79.547027 A 39.893284,11.852843 0 1 1 29.396887,79.800124"
       transform="matrix(1.0213724,0,0,0.93009082,0.61859645,17.100893)"
       id="path2987-8-7"
       style="fill:none;stroke:#000000;stroke-width:0.61559701;stroke-miterlimit:4;stroke-opacity:1;stroke-dasharray:none" />
    <path
       d="M 109.16252,79.547027 A 39.893284,11.852843 0 1 1 29.396887,79.800124"
       transform="matrix(1.0213724,0,0,0.93009082,0.61859645,25.102197)"
       id="path2987-8-7-3"
       style="fill:none;stroke:#000000;stroke-width:0.61559701;stroke-miterlimit:4;stroke-opacity:1;stroke-dasharray:none" />
    <path
       d="M 109.16252,79.547027 A 39.893284,11.852843 0 1 1 29.396887,79.800124"
       transform="matrix(1.0213724,0,0,0.93009082,0.61859645,33.229862)"
       id="path2987-8-7-4"
       style="fill:none;stroke:#000000;stroke-width:0.61559701;stroke-miterlimit:4;stroke-opacity:1;stroke-dasharray:none" />
    <path
       d="M 109.16252,79.547027 A 39.893284,11.852843 0 1 1 29.396887,79.800124"
       transform="matrix(1.0213724,0,0,0.93009082,0.61859645,40.544759)"
       id="path2987-8-7-2"
       style="fill:none;stroke:#000000;stroke-width:0.61559701;stroke-miterlimit:4;stroke-opacity:1;stroke-dasharray:none" />
    <path
       d="M 109.16252,79.547027 A 39.893284,11.852843 0 1 1 29.396887,79.800124"
       transform="matrix(1.0213724,0,0,0.93009082,0.61859645,49.756111)"
       id="path2987-8-7-9"
       style="fill:none;stroke:#000000;stroke-width:0.61559701;stroke-miterlimit:4;stroke-opacity:1;stroke-dasharray:none" />
    <path
       d="M 109.16252,79.547027 A 39.893284,11.852843 0 1 1 29.396887,79.800124"
       transform="matrix(1.0213724,0,0,0.93009082,0.61859645,58.425621)"
       id="path2987-8-7-1"
       style="fill:none;stroke:#000000;stroke-width:0.61559701;stroke-miterlimit:4;stroke-opacity:1;stroke-dasharray:none" />
  </g>
  <g
     transform="matrix(1.4805482,0,0,1.4805482,-13.00078,-8.6729837)"
     id="g4444"
     style="display:inline">
    <rect
       width="30.842913"
       height="58.620689"
       x="55.747128"
       y="93.678162"
       id="rect3852"
       style="color:#000000;fill:#000000;fill-opacity:1;stroke:#000000;stroke-width:0.51559412;stroke-linecap:butt;stroke-linejoin:miter;stroke-miterlimit:4;stroke-opacity:1;stroke-dasharray:none;stroke-dashoffset:0;marker:none;visibility:visible;display:inline;overflow:visible;enable-background:accumulate" />
    <path
       d="m 79.515648,121.56804 c -0.297942,-6.40674 4.063832,-9.88866 4.063832,-9.88866 0,0 -0.340889,3.44342 -0.135461,5.14752 0.184851,1.53339 1.290735,2.92738 1.219149,4.47022 -0.133838,2.8845 -4.063831,5.82482 -4.063831,5.82482 0,0 -0.992813,-3.59976 -1.083689,-5.5539 z"
       id="path3862"
       style="fill:#ba0e02;fill-opacity:1;stroke:#000000;stroke-width:1px;stroke-linecap:butt;stroke-linejoin:miter;stroke-opacity:1" />
    <path
       d="m 73.690822,131.05032 c 0,0 5.998726,1.27323 7.72128,-3.65746 1.420087,-4.0649 -3.661434,-12.75002 -5.418442,-16.93263 -0.915389,-2.17911 -0.812766,-7.04397 -0.812766,-7.04397 0,0 -4.364573,4.56185 -4.605677,18.69363 -0.05384,3.15546 3.115605,8.94043 3.115605,8.94043 z"
       id="path3856"
       style="fill:#ba0e02;fill-opacity:1;stroke:#000000;stroke-width:1px;stroke-linecap:butt;stroke-linejoin:miter;stroke-opacity:1" />
    <path
       d="m 65.698619,134.5723 c 0,0 -5.782408,-3.13501 -6.908515,-5.96028 -2.335619,-5.8598 1.896455,-18.82909 1.896455,-18.82909 0,0 0.833917,5.16117 1.760994,7.58582 1.306315,3.41651 4.811598,5.1894 5.282982,9.61773 0.277087,2.60304 -2.031916,7.58582 -2.031916,7.58582 z"
       id="path3858"
       style="fill:#ba0e02;fill-opacity:1;stroke:#000000;stroke-width:1px;stroke-linecap:butt;stroke-linejoin:miter;stroke-opacity:1" />
    <path
       d="m 66.646846,141.07444 c 0.139229,2.21097 -3.918199,-5.67011 -4.063832,-8.94044 -0.200123,-4.49395 3.161464,-10.64281 4.470216,-12.73333 1.148335,-1.83428 1.625532,-5.9603 1.625532,-5.9603 0,0 1.852591,3.46188 2.302839,5.68937 0.438053,2.16715 3.914675,4.7559 4.876598,10.97235 0.56993,3.68319 -2.999122,11.32008 -3.115605,10.29503 -0.677305,-5.96028 -3.928371,-8.39858 -3.928371,-8.39858 0,0 -2.371145,5.84003 -2.167377,9.0759 z"
       id="path3854"
       style="fill:#ba0e02;fill-opacity:1;stroke:#000000;stroke-width:1px;stroke-linecap:butt;stroke-linejoin:miter;stroke-opacity:1" />
    <path
       d="m 78.025576,141.61628 c -1.040249,0.96696 -1.123518,-5.60464 -0.135461,-8.12767 1.048105,-2.67636 5.960287,-6.2312 5.960287,-6.2312 0,0 0.64343,3.61036 0.948227,5.41844 0.281344,1.66896 1.242951,3.37513 0.812767,5.01205 -0.66138,2.51667 -5.415819,8.76036 -4.876598,6.09575 0.510544,-2.5229 0.811762,-6.00058 0.541844,-5.01205 -0.290799,1.06501 -0.99209,0.74486 -3.251066,2.84468 z"
       id="path3860"
       style="fill:#ba0e02;fill-opacity:1;stroke:#000000;stroke-width:1px;stroke-linecap:butt;stroke-linejoin:miter;stroke-opacity:1" />
    <path
       d="m 62.989397,143.78366 c 1.271,2.44401 1.011373,-5.65135 0.135461,-8.26313 -1.002339,-2.98876 -5.824826,-7.45036 -5.824826,-7.45036 0,0 -0.409354,2.18948 -0.406383,3.79291 0.0041,2.20125 -1.661608,5.4525 -0.812766,7.99221 0.779911,2.33347 5.379679,7.04946 5.012059,5.41844 -0.292167,-1.29626 -1.041094,-5.27513 -0.677305,-4.26702 0.377656,1.04654 1.755274,1.20308 2.57376,2.77695 z"
       id="path3864"
       style="fill:#ba0e02;fill-opacity:1;stroke:#000000;stroke-width:1px;stroke-linecap:butt;stroke-linejoin:miter;stroke-opacity:1" />
    <path
       d="m 52.829816,154.21416 8.127665,5.5539 4.876599,-6.09575 2.524366,-0.0211 -0.49245,6.38774 10.15958,-0.27092 -0.406384,-6.36667 5.418443,6.50214 7.179437,-6.50214 -5.418443,-5.82482 -25.33122,-0.13546 z"
       id="path4413"
       style="fill:#000000;fill-opacity:1;stroke:none" />
    <path
       d="m 39.419172,130.1961 10.546561,-12.79766 c 3.610545,-1.65393 4.651306,-0.14454 4.709581,3.41836 l -8.306033,13.83658 c -0.657375,-3.67762 -2.633661,-5.57635 -6.950109,-4.45728 z"
       transform="matrix(0.79369093,-0.55950796,0.60832123,0.73000312,-41.5814,86.328059)"
       id="path3866-31"
       style="fill:#c39900;fill-opacity:1;stroke:none;filter:url(#filter4328-1-3)" />
    <path
       d="m 54.048967,154.34962 12.025131,-12.05603 c 3.610545,-1.65393 4.202825,-0.4473 4.2611,3.1156 l -9.7841,12.8688 c -0.657375,-3.67762 -2.185683,-5.04744 -6.502131,-3.92837 z"
       transform="matrix(1.0604839,0,0,1.0337688,-3.1674951,-5.4012988)"
       id="path3866"
       style="fill:#c39900;fill-opacity:1;stroke:none;filter:url(#filter4328-6)" />
    <path
       d="m 77.21281,119.63014 11.920573,-12.05603 c 3.610545,-1.65393 5.224707,-0.4473 5.282982,3.1156 L 83.444019,124.6422 c -0.657375,-3.67762 -1.914761,-6.13113 -6.231209,-5.01206 z"
       transform="matrix(-1,0,0,1,166.3462,33.594345)"
       id="path3866-3"
       style="fill:#c39900;fill-opacity:1;stroke:none;filter:url(#filter4328-9-7)" />
    <path
       d="m 54.387619,154.21415 6.502132,4.1993 c 0.609075,-4.66623 -2.668094,-6.85167 -6.502132,-4.1993 z"
       id="path4415"
       style="fill:#8f5d00;fill-opacity:1;stroke:none" />
    <path
       d="m 69.175903,159.19712 8.004625,-0.31887 c -2.270121,-4.16344 -6.345712,-4.05903 -8.004625,0.31887 z"
       id="path4415-8"
       style="fill:#8f5d00;fill-opacity:1;stroke:none" />
    <path
       d="m 83.074653,158.40999 5.973228,-5.2132 c -4.547393,-1.78123 -7.627563,0.82869 -5.973228,5.2132 z"
       id="path4415-5"
       style="fill:#8f5d00;fill-opacity:1;stroke:none" />
  </g>
  <rect
     width="6.2172561"
     height="13.437295"
     x="104.92652"
     y="85.275558"
     id="rect3909"
     style="fill:#edb435;fill-opacity:1;stroke:#000000;stroke-width:0.80000001;stroke-linejoin:round;stroke-miterlimit:4;stroke-opacity:1;stroke-dasharray:none;display:inline" />
  <path
     d="m 109.1665,79.587481 a 39.893284,11.852843 0 1 1 -0.008,-0.07509"
     transform="matrix(1.5148966,0,0,1.5386436,-12.021363,-9.1867313)"
     id="path2987-5"
     style="fill:#646665;fill-opacity:1;stroke:#000000;stroke-width:0.5;stroke-miterlimit:4;stroke-opacity:1;stroke-dasharray:none;display:inline" />
  <path
     d="m 109.16252,79.547027 a 39.893284,11.852843 0 1 1 -0.004,-0.03464"
     transform="matrix(1.4530007,0,0,1.3688761,-7.9332575,3.9671149)"
     id="path2987-8"
     style="fill:#21302c;fill-opacity:1;stroke:#000000;stroke-width:0.5;stroke-miterlimit:4;stroke-opacity:1;stroke-dasharray:none;display:inline" />
  <path
     d="m 65.333793,20.779401 -10.99768,4.429452"
     id="path3939"
     style="fill:none;stroke:#000000;stroke-width:0.44416448;stroke-linecap:butt;stroke-linejoin:miter;stroke-miterlimit:4;stroke-opacity:1;stroke-dasharray:none;display:inline" />
  <path
     d="M 49.572893,11.069618 63.611857,52.584842 119.76772,53.387069 132.20223,10.86906 120.56994,4.4512479 116.95992,21.097449 107.8346,18.791048 100.27071,18.030358 101.31651,0.84122842 80.859728,1.041785 82.01293,17.938682 74.441916,18.678604 65.333793,20.77941 61.535383,4.1776965 z"
     id="path4007"
     style="fill:#f6ce00;fill-opacity:1;stroke:#000000;stroke-width:0.74027407;stroke-linecap:butt;stroke-linejoin:miter;stroke-miterlimit:4;stroke-opacity:1;stroke-dasharray:none;display:inline" />
  <path
     d="m 99.440592,27.390651 -0.60167,6.943537 6.220818,0.485662 7.08683,1.72046 1.70473,-6.167117 -7.28738,-2.054231 z"
     id="path4019"
     style="fill:none;stroke:#000000;stroke-width:0.44416448;stroke-linecap:butt;stroke-linejoin:miter;stroke-miterlimit:4;stroke-opacity:1;stroke-dasharray:none;display:inline" />
  <path
     d="m 106.83181,27.214428 1.25348,-6.969343 8.59887,2.030635 5.94149,2.331471 -2.15599,6.768785 -6.01669,-2.206122 z"
     id="path4021"
     style="fill:none;stroke:#000000;stroke-width:0.44416448;stroke-linecap:butt;stroke-linejoin:miter;stroke-miterlimit:4;stroke-opacity:1;stroke-dasharray:none;display:inline" />
  <path
     d="m 105.72875,27.020997 1.1532,-7.026608 -7.33752,-0.868834 -7.553809,-0.200557 0.100278,7.301334 6.919204,0 z"
     id="path4023"
     style="fill:none;stroke:#000000;stroke-width:0.44416448;stroke-linecap:butt;stroke-linejoin:miter;stroke-miterlimit:4;stroke-opacity:1;stroke-dasharray:none;display:inline" />
  <path
     d="m 113.14935,36.841146 1.85515,-6.267396 10.27853,3.960995 -1.80502,6.217256 z"
     id="path4025"
     style="fill:none;stroke:#000000;stroke-width:0.44416448;stroke-linecap:butt;stroke-linejoin:miter;stroke-miterlimit:4;stroke-opacity:1;stroke-dasharray:none;display:inline" />
  <path
     d="m 125.634,33.431683 -4.26183,-1.704731 2.40668,-6.61837 3.81058,1.403897 z"
     id="path4027"
     style="fill:none;stroke:#000000;stroke-width:0.44416448;stroke-linecap:butt;stroke-linejoin:round;stroke-miterlimit:4;stroke-opacity:1;stroke-dasharray:none;display:inline" />
  <path
     d="m 116.55881,20.896893 11.33145,4.362106"
     id="path4029"
     style="fill:none;stroke:#000000;stroke-width:0.44416448;stroke-linecap:butt;stroke-linejoin:miter;stroke-miterlimit:4;stroke-opacity:1;stroke-dasharray:none;display:inline" />
  <path
     d="m 120.62008,4.5013871 -6.46795,2.7576537 -2.70751,12.3843722 5.51531,1.454029 z"
     id="path4031"
     style="fill:#c5a563;fill-opacity:1;stroke:#000000;stroke-width:0.74027407;stroke-linecap:butt;stroke-linejoin:miter;stroke-miterlimit:4;stroke-opacity:1;stroke-dasharray:none;display:inline" />
  <path
     d="m 112.34712,15.281307 6.21726,-1.604454 11.43173,4.81336"
     id="path4033"
     style="fill:none;stroke:#000000;stroke-width:0.44416448;stroke-linecap:butt;stroke-linejoin:miter;stroke-miterlimit:4;stroke-opacity:1;stroke-dasharray:none;display:inline" />
  <path
     d="m 112.53551,14.432506 6.27956,-1.926057 5.22308,2.256262 2.14738,-7.2529749"
     id="path4035"
     style="fill:none;stroke:#000000;stroke-width:0.44416448;stroke-linecap:butt;stroke-linejoin:miter;stroke-miterlimit:4;stroke-opacity:1;stroke-dasharray:none;display:inline" />
  <path
     d="m 127.18831,8.1114072 -2.10584,7.1025558 5.05189,2.09368"
     id="path4037"
     style="fill:none;stroke:#000000;stroke-width:0.44416448;stroke-linecap:butt;stroke-linejoin:miter;stroke-miterlimit:4;stroke-opacity:1;stroke-dasharray:none;display:inline" />
  <path
     d="m 82.063069,17.888543 18.157501,0"
     id="path4039"
     style="fill:none;stroke:#000000;stroke-width:0.44416448;stroke-linecap:butt;stroke-linejoin:miter;stroke-miterlimit:4;stroke-opacity:1;stroke-dasharray:none;display:inline" />
  <path
     d="M 81.260843,10.167113 100.53861,10.025291"
     id="path4041"
     style="fill:none;stroke:#000000;stroke-width:0.44416448;stroke-linecap:butt;stroke-linejoin:miter;stroke-miterlimit:4;stroke-opacity:1;stroke-dasharray:none;display:inline" />
  <path
     d="m 81.461399,8.8634946 9.125328,0.1002775 0,-7.97212768"
     id="path4043"
     style="fill:none;stroke:#000000;stroke-width:0.44416448;stroke-linecap:butt;stroke-linejoin:miter;stroke-miterlimit:4;stroke-opacity:1;stroke-dasharray:none;display:inline" />
  <path
     d="m 91.790065,0.84122901 0.100277,8.02226559 8.765748,0"
     id="path4045"
     style="fill:none;stroke:#000000;stroke-width:0.44416448;stroke-linecap:butt;stroke-linejoin:miter;stroke-miterlimit:4;stroke-opacity:1;stroke-dasharray:none;display:inline" />
  <path
     d="m 90.89973,26.087035 -0.100278,-7.095431 -8.767835,0.176231 -6.486632,0.643208 0.985579,7.028085 6.127056,-0.534327 z"
     id="path4047"
     style="fill:none;stroke:#000000;stroke-width:0.44416448;stroke-linecap:butt;stroke-linejoin:miter;stroke-miterlimit:4;stroke-opacity:1;stroke-dasharray:none;display:inline" />
  <path
     d="m 75.494837,27.164287 -1.144597,-7.202834 -8.411212,1.929619 -6.066839,2.315005 1.926055,6.748018 6.175722,-2.085078 z"
     id="path4049"
     style="fill:none;stroke:#000000;stroke-width:0.44416448;stroke-linecap:butt;stroke-linejoin:miter;stroke-miterlimit:4;stroke-opacity:1;stroke-dasharray:none;display:inline" />
  <path
     d="m 57.545019,34.28405 4.311966,-2.206125 6.066839,-2.055706 1.504175,6.317535 -5.615586,2.005567 -4.16155,2.657375"
     id="path4051"
     style="fill:none;stroke:#000000;stroke-width:0.44416448;stroke-linecap:butt;stroke-linejoin:miter;stroke-miterlimit:4;stroke-opacity:1;stroke-dasharray:none;display:inline" />
  <path
     d="m 68.843535,29.697054 7.349689,-1.640951 6.772348,-0.706988 0.5358,6.843259 -5.826222,0.477059 -7.24437,1.469764 z"
     id="path4053"
     style="fill:none;stroke:#000000;stroke-width:0.44416448;stroke-linecap:butt;stroke-linejoin:miter;stroke-miterlimit:4;stroke-opacity:1;stroke-dasharray:none;display:inline" />
  <path
     d="m 84.066521,27.239144 0.501392,6.986908 13.042684,0 0.501392,-6.886629 z"
     id="path4151"
     style="fill:none;stroke:#000000;stroke-width:0.44416448;stroke-linecap:butt;stroke-linejoin:miter;stroke-miterlimit:4;stroke-opacity:1;stroke-dasharray:none;display:inline" />
  <path
     d="m 57.093767,33.281258 3.660158,-1.754871 -1.955427,-6.919203 -4.111411,1.75487"
     id="path3937"
     style="fill:none;stroke:#000000;stroke-width:0.44416448;stroke-linecap:butt;stroke-linejoin:miter;stroke-miterlimit:4;stroke-opacity:1;stroke-dasharray:none;display:inline" />
  <g
     transform="matrix(-1.4805482,0,0,1.4805482,70.811863,25.078984)"
     id="g3981"
     style="display:inline">
    <path
       d="m 6.2313656,-14.033819 -4.368619,1.86259 -1.82872507,8.4605068 3.62939567,0.7905172 z"
       id="path4031-0"
       style="fill:#c5a563;fill-opacity:1;stroke:#000000;stroke-width:0.5;stroke-linecap:butt;stroke-linejoin:miter;stroke-miterlimit:4;stroke-opacity:1;stroke-dasharray:none;display:inline" />
    <path
       d="m 0.64359653,-6.7527859 4.19929407,-1.083689 7.8170654,3.3468514"
       id="path4033-3"
       style="fill:none;stroke:#000000;stroke-width:0.30000001;stroke-linecap:butt;stroke-linejoin:miter;stroke-miterlimit:4;stroke-opacity:1;stroke-dasharray:none;display:inline" />
    <path
       d="m 0.91451852,-7.5655519 4.09769708,-1.253015 3.623584,1.523937 1.354611,-4.7072731"
       id="path4035-8"
       style="fill:none;stroke:#000000;stroke-width:0.30000001;stroke-linecap:butt;stroke-linejoin:miter;stroke-miterlimit:4;stroke-opacity:1;stroke-dasharray:none;display:inline" />
    <path
       d="m 10.735448,-11.595519 -1.3546123,4.6734066 3.6119633,1.5858579"
       id="path4037-7"
       style="fill:none;stroke:#000000;stroke-width:0.30000001;stroke-linecap:butt;stroke-linejoin:miter;stroke-miterlimit:4;stroke-opacity:1;stroke-dasharray:none;display:inline" />
  </g>
  <path
     d="m 89.47204,42.323315 a 18.693628,3.3865268 0 1 1 -2.9e-4,-0.01886"
     transform="matrix(1.4805482,0,0,1.4805482,-13.00078,-9.5754817)"
     id="path4153"
     style="fill:url(#linearGradient4364);fill-opacity:1;stroke:#000000;stroke-width:0.5;stroke-miterlimit:4;stroke-opacity:1;stroke-dasharray:none;display:inline" />
  <path
     d="m 86.322942,34.309188 c -0.116608,0.0093 -0.216825,0.05958 -0.321973,0.09253 -0.01392,0.0044 -0.0322,-0.0047 -0.046,0 -0.351556,0.121835 -0.596033,0.351718 -0.735939,0.64774 -0.242883,-0.369662 -0.797718,-0.598051 -1.33389,-0.555206 -0.553035,0.0442 -0.933279,0.364427 -1.103908,0.786542 -0.169935,-0.27923 -0.475047,-0.476441 -0.827932,-0.555206 -0.01362,-0.0033 -0.03213,0.0028 -0.046,0 -0.124292,-0.02358 -0.230255,-0.05727 -0.36797,-0.04627 -0.176546,0.01407 -0.354804,0.07351 -0.505958,0.138801 -0.334927,0.125862 -0.598768,0.317066 -0.73594,0.601473 -0.05158,-0.07472 -0.116061,-0.123048 -0.183985,-0.185068 -0.009,-0.0073 -0.03678,0.007 -0.046,0 -0.253114,-0.218649 -0.566321,-0.40207 -0.96592,-0.370137 -0.36869,0.02946 -0.69536,0.198551 -0.919924,0.416404 -0.06137,0.05487 -0.08962,0.120709 -0.137987,0.185068 -0.06007,0.08735 -0.10731,0.177887 -0.137987,0.277603 -0.0077,0.01769 -0.03923,0.02823 -0.046,0.04627 -0.245668,-0.381266 -0.692346,-0.613475 -1.241898,-0.555205 -0.55172,0.0585 -0.990137,0.406414 -1.149904,0.832808 -0.245668,-0.381266 -0.738344,-0.659743 -1.287894,-0.601473 -0.367814,0.039 -0.701013,0.192808 -0.919925,0.416404 -0.171587,0.161565 -0.30861,0.345008 -0.36797,0.555206 -0.300591,-0.323905 -0.858254,-0.455772 -1.379885,-0.32387 -0.538036,0.136048 -0.867424,0.526837 -0.96592,0.97161 -0.296584,-0.342679 -0.79797,-0.505653 -1.33389,-0.370137 -0.538038,0.136047 -0.959416,0.526837 -1.057912,0.97161 -0.296582,-0.342679 -0.751975,-0.505654 -1.287895,-0.370138 -0.577892,0.146131 -0.99962,0.585778 -1.057912,1.064144 -0.03827,0.106274 -0.03872,0.214859 -0.046,0.32387 -0.361014,-0.253906 -0.942952,-0.238198 -1.425882,0 -0.49812,0.245683 -0.777596,0.701025 -0.781935,1.156679 -0.360977,-0.273107 -0.883726,-0.337251 -1.379886,-0.09253 -0.49812,0.245683 -0.777596,0.701025 -0.781935,1.156679 -0.360976,-0.273107 -0.883729,-0.337251 -1.379887,-0.09253 -0.664161,0.327578 -1.010177,1.010495 -0.735939,1.573083 0.274238,0.562587 1.037699,0.790247 1.70186,0.462671 0.476078,-0.234812 0.798771,-0.674367 0.827931,-1.110411 0.360939,0.256247 0.89505,0.285405 1.379886,0.04627 0.49812,-0.245682 0.777596,-0.701025 0.781935,-1.156678 0.360782,0.27557 0.881766,0.338218 1.379886,0.09253 0.484837,-0.239129 0.808308,-0.712731 0.827932,-1.156678 0.360566,0.243822 0.857811,0.281082 1.333889,0.04627 0.238096,-0.117437 0.416893,-0.266556 0.551956,-0.462671 0.0264,-0.02486 0.02199,-0.06605 0.046,-0.09253 0.02868,-0.04949 0.07033,-0.08713 0.09199,-0.138801 0.07718,-0.11147 0.148597,-0.198559 0.183985,-0.32387 0.300033,0.32618 0.856195,0.456293 1.379886,0.32387 0.538035,-0.136048 0.867423,-0.526837 0.96592,-0.97161 0.295884,0.345046 0.795852,0.506188 1.333889,0.370137 0.523691,-0.13242 0.946889,-0.495219 1.057912,-0.925342 0.29395,0.305336 0.78865,0.435422 1.287895,0.32387 0.527311,-0.05592 0.973529,-0.387146 1.149905,-0.786542 0.251393,0.36542 0.750884,0.565881 1.287893,0.508939 0.551719,-0.0585 0.944143,-0.360148 1.103909,-0.786541 0.244643,0.38351 0.736173,0.613706 1.287893,0.555205 0.302069,-0.03202 0.520375,-0.159456 0.735939,-0.32387 0.08029,-0.05354 0.165235,-0.118207 0.229981,-0.185068 0.01451,-0.01682 0.0326,-0.02883 0.046,-0.04627 0.06011,-0.06839 0.09573,-0.153478 0.137987,-0.231336 0.191469,0.265218 0.50613,0.453976 0.873929,0.508938 0.01377,0.0025 0.03205,-0.0022 0.046,0 0.108539,0.01273 0.206625,0.01229 0.321973,0 0.03114,-0.0033 0.06162,0.005 0.09199,0 0.553033,-0.04418 0.933279,-0.364426 1.103908,-0.786541 0.234746,0.389722 0.688862,0.645667 1.241897,0.601473 0.538286,-0.04301 1.015341,-0.3347 1.195901,-0.740274 0.161085,0.235666 0.429916,0.377525 0.735939,0.462671 0.0447,0.01244 0.09131,0.03805 0.137987,0.04627 0.124515,0.03382 0.276521,0.04627 0.413966,0.04627 0.530232,0 0.978873,-0.269143 1.195903,-0.647739 0.211922,0.389917 0.701913,0.647739 1.241897,0.647739 0.03194,0.0021 0.05944,0 0.09199,0 0.12025,-0.0068 0.26117,-0.01377 0.36797,-0.04627 0.333699,-0.08661 0.613717,-0.30072 0.781935,-0.555205 0.123951,0.201301 0.322905,0.310214 0.551954,0.416404 0.104186,0.04829 0.201,0.117185 0.321974,0.138801 0.12518,0.03026 0.278969,0.04627 0.413965,0.04627 0.08891,-0.007 0.192013,-0.02597 0.275977,-0.04627 0.120976,-0.02162 0.217795,-0.09051 0.321974,-0.138801 0.22905,-0.106185 0.428012,-0.215103 0.551954,-0.416404 0.168219,0.254485 0.448236,0.468599 0.781935,0.555205 0.13319,0.04045 0.306333,0.04627 0.459962,0.04627 0.539984,0 1.029975,-0.257822 1.241899,-0.647739 0.217028,0.378596 0.665669,0.647739 1.195901,0.647739 0.137439,0 0.289444,-0.01244 0.413966,-0.04627 0.04668,-0.0081 0.09329,-0.03383 0.137987,-0.04627 0.306023,-0.08515 0.574854,-0.227005 0.735939,-0.462671 0.180561,0.405574 0.657615,0.697264 1.195901,0.740274 0.553035,0.04419 1.007152,-0.211751 1.241898,-0.601473 0.17063,0.422115 0.55087,0.742362 1.10391,0.786541 0.0304,0.005 0.0609,-0.0033 0.092,0 0.11535,0.01229 0.21344,0.01273 0.32198,0 0.0139,-0.0022 0.0322,0.0025 0.046,0 0.3678,-0.05496 0.68246,-0.24372 0.87393,-0.508938 0.0422,0.07786 0.0779,0.162949 0.13798,0.231336 0.0133,0.01744 0.0314,0.02945 0.046,0.04627 0.0648,0.06686 0.14969,0.131532 0.22998,0.185068 0.21557,0.164414 0.43388,0.291846 0.73594,0.32387 0.55172,0.0585 1.04325,-0.171695 1.2879,-0.555205 0.15976,0.426393 0.55219,0.728044 1.10391,0.786541 0.53701,0.05694 1.0365,-0.143524 1.28789,-0.508939 0.17638,0.399396 0.62259,0.730621 1.14991,0.786542 0.49924,0.111544 0.99394,-0.01854 1.28789,-0.32387 0.11102,0.430123 0.53422,0.792922 1.05791,0.925342 0.53804,0.136048 1.03801,-0.0251 1.33389,-0.370137 0.0985,0.444773 0.42788,0.835562 0.96592,0.97161 0.52369,0.13242 1.07985,0.0024 1.37989,-0.32387 0.0354,0.125314 0.10679,0.2124 0.18398,0.32387 0.0217,0.05167 0.0633,0.08931 0.092,0.138801 0.024,0.02649 0.0196,0.06768 0.046,0.09253 0.13506,0.196115 0.31386,0.345234 0.55195,0.462671 0.47608,0.234815 0.97333,0.197555 1.33389,-0.04627 0.0196,0.443947 0.3431,0.917549 0.82793,1.156678 0.49812,0.245684 1.01911,0.183036 1.37989,-0.09253 0.004,0.455653 0.28382,0.910996 0.78194,1.156678 0.48483,0.239138 1.01894,0.20998 1.37988,-0.04627 0.0292,0.436044 0.35186,0.875599 0.82793,1.110411 0.66416,0.327576 1.42762,0.09992 1.70186,-0.462671 0.27424,-0.562588 -0.0718,-1.245505 -0.73594,-1.573083 -0.49615,-0.244716 -1.01891,-0.180572 -1.37988,0.09253 -0.004,-0.455654 -0.28382,-0.910996 -0.78194,-1.156679 -0.49616,-0.244716 -1.01891,-0.180572 -1.37988,0.09253 -0.004,-0.455654 -0.28382,-0.910996 -0.78194,-1.156679 -0.48293,-0.238198 -1.06487,-0.253906 -1.42588,0 -0.007,-0.109012 -0.008,-0.217596 -0.046,-0.32387 -0.0583,-0.478366 -0.48002,-0.918013 -1.05791,-1.064144 -0.53592,-0.135514 -0.99132,0.02747 -1.2879,0.370138 -0.0985,-0.444773 -0.51987,-0.835563 -1.05791,-0.97161 -0.53592,-0.135515 -1.03731,0.02746 -1.33389,0.370137 -0.0985,-0.444773 -0.42788,-0.835562 -0.96592,-0.97161 -0.52163,-0.131902 -1.0793,-3.5e-5 -1.37989,0.32387 -0.0593,-0.210198 -0.19638,-0.393641 -0.36797,-0.555206 -0.21891,-0.223596 -0.55211,-0.377406 -0.91992,-0.416404 -0.54955,-0.05827 -1.04223,0.220207 -1.28789,0.601473 -0.15977,-0.426394 -0.59819,-0.774312 -1.14991,-0.832808 -0.54955,-0.05827 -0.99623,0.173939 -1.2419,0.555205 -0.007,-0.01803 -0.0383,-0.02857 -0.046,-0.04627 -0.0307,-0.09971 -0.0779,-0.19025 -0.13798,-0.277603 -0.0484,-0.06436 -0.0766,-0.130199 -0.13799,-0.185068 -0.22456,-0.217853 -0.55123,-0.386942 -0.91993,-0.416404 -0.39959,-0.03194 -0.7128,0.151488 -0.96592,0.370137 -0.009,0.007 -0.037,-0.0073 -0.046,0 -0.0679,0.06202 -0.13239,0.110345 -0.18398,0.185068 -0.13716,-0.284407 -0.40101,-0.475611 -0.73594,-0.601473 -0.15115,-0.06529 -0.32941,-0.124736 -0.50596,-0.138801 -0.1377,-0.01096 -0.24368,0.02268 -0.36797,0.04627 -0.0138,0.0028 -0.0323,-0.0033 -0.046,0 -0.35288,0.07877 -0.658,0.275976 -0.82793,0.555206 -0.170628,-0.422115 -0.550873,-0.742347 -1.103908,-0.786542 -0.536172,-0.04285 -1.091007,0.185544 -1.33389,0.555206 -0.139897,-0.296022 -0.384383,-0.525905 -0.735939,-0.64774 -0.01377,-0.0047 -0.03201,0.0044 -0.046,0 -0.105148,-0.03296 -0.205371,-0.08321 -0.321973,-0.09253 -0.04559,-0.0037 -0.09332,-1.07e-4 -0.137987,0 -0.135233,3.26e-4 -0.291344,0.01436 -0.413966,0.04627 -0.139497,0.03324 -0.253237,0.06981 -0.367969,0.138801 -0.01789,0.01125 -0.02886,0.03428 -0.046,0.04627 -0.08048,0.05403 -0.165615,0.116178 -0.229981,0.185068 -0.03482,0.04115 -0.06414,0.09325 -0.09199,0.138802 -0.03595,0.0501 -0.110316,0.08402 -0.137987,0.138801 -0.152495,-0.305399 -0.448288,-0.547987 -0.827932,-0.64774 -0.159268,-0.05534 -0.32176,-0.04627 -0.505959,-0.04627 -0.116253,0 -0.215154,0.02208 -0.321974,0.04627 -0.0148,0.004 -0.03152,-0.0044 -0.046,0 -0.336964,0.08746 -0.614209,0.297106 -0.781936,0.555206 -0.125683,-0.204129 -0.318427,-0.356682 -0.551954,-0.462672 -0.101521,-0.04607 -0.204736,-0.07158 -0.321973,-0.09253 -0.124988,-0.03043 -0.279501,-0.04627 -0.413966,-0.04627 -0.09302,0 -0.190083,0.03093 -0.275977,0.04627 -0.11723,0.02094 -0.220464,0.04646 -0.321973,0.09253 -0.233527,0.105993 -0.426271,0.258543 -0.551955,0.462672 -0.167727,-0.258101 -0.444971,-0.467753 -0.781935,-0.555206 -0.1343,-0.04156 -0.305139,-0.04627 -0.459962,-0.04627 -0.138698,0 -0.287419,0.01303 -0.413966,0.04627 -0.379645,0.09976 -0.675438,0.342343 -0.827931,0.64774 -0.02767,-0.05478 -0.102039,-0.0887 -0.137987,-0.138801 -0.02785,-0.04556 -0.05716,-0.09766 -0.09199,-0.138802 -0.06436,-0.06889 -0.149505,-0.131043 -0.229982,-0.185068 -0.01714,-0.01199 -0.02812,-0.035 -0.046,-0.04627 -0.114727,-0.06899 -0.228459,-0.105563 -0.367969,-0.138801 -0.122619,-0.03193 -0.278727,-0.04594 -0.413966,-0.04627 -0.04467,-1.07e-4 -0.0924,-0.0037 -0.137987,0 z"
     id="path4163"
     style="fill:#f7bd00;fill-opacity:1;stroke:#000000;stroke-width:0.44286212;stroke-linecap:round;stroke-linejoin:round;stroke-miterlimit:4;stroke-opacity:1;stroke-dasharray:none;stroke-dashoffset:0;display:inline" />
  <path
     d="m 84.366042,44.487957 c -0.330665,0.03177 -0.560494,0.178573 -0.7695,0.370137 -0.115764,0.106096 -0.252589,0.184814 -0.316854,0.32387 -0.241973,-0.365434 -0.694261,-0.513397 -1.222148,-0.462672 -0.529062,0.05084 -1.004947,0.332117 -1.176883,0.740275 -0.23753,-0.384032 -0.680728,-0.560962 -1.222148,-0.508939 -0.518193,0.04979 -0.95285,0.34439 -1.131619,0.740274 -0.02375,-0.03841 -0.0618,-0.05795 -0.09053,-0.09253 -0.03752,-0.04671 -0.09009,-0.09859 -0.135796,-0.138801 -0.07826,-0.06331 -0.130259,-0.142266 -0.226324,-0.185069 -0.01184,-0.0062 -0.03312,0.0059 -0.04526,0 -0.110819,-0.04525 -0.235662,-0.07548 -0.362117,-0.09253 -0.195951,-0.04012 -0.376194,-0.04168 -0.588443,0 -0.521859,0.102469 -0.908239,0.409678 -1.041089,0.832808 -0.272468,-0.358978 -0.73337,-0.521256 -1.267413,-0.416404 -0.521859,0.102469 -0.953505,0.455948 -1.086355,0.879075 -0.272468,-0.358978 -0.733367,-0.521258 -1.267413,-0.416404 -0.511134,0.100352 -0.900287,0.467494 -1.041089,0.879076 -0.304843,-0.427429 -0.947499,-0.558388 -1.539001,-0.32387 -0.490299,0.177364 -0.827168,0.570483 -0.86003,1.017877 -0.331012,-0.303239 -0.850939,-0.386084 -1.357943,-0.185069 -0.495432,0.196427 -0.848808,0.623524 -0.905294,1.064144 -0.331011,-0.303238 -0.805677,-0.339817 -1.312678,-0.138801 -0.485254,0.19239 -0.793692,0.58716 -0.860031,1.017877 -0.331012,-0.303242 -0.850941,-0.33981 -1.357943,-0.138802 -0.678675,0.269077 -1.081712,0.942645 -0.860029,1.526816 0.221682,0.584172 0.950855,0.824282 1.629531,0.555205 0.484767,-0.192199 0.793238,-0.587637 0.86003,-1.017877 0.332429,0.285881 0.908175,0.335062 1.403207,0.138802 0.509007,-0.201809 0.817545,-0.610544 0.86003,-1.064144 0.330615,0.305675 0.848939,0.386882 1.357942,0.185068 0.509007,-0.201807 0.817546,-0.610545 0.860032,-1.064144 0.165306,0.152836 0.357701,0.237584 0.58844,0.277603 0.01407,0.0028 0.03102,-0.0024 0.04526,0 0.102128,0.01407 0.208428,0.01184 0.316853,0 0.07296,-0.0031 0.151859,0.01466 0.226324,0 0.267869,-0.05259 0.452197,-0.206874 0.633706,-0.370137 0.08593,-0.07641 0.162039,-0.140711 0.226324,-0.231336 0.06386,-0.09234 0.14576,-0.174845 0.181059,-0.277602 0.276906,0.342162 0.791241,0.518782 1.312678,0.416404 0.536151,-0.105252 0.919737,-0.486877 1.041089,-0.925343 0.271648,0.361304 0.776524,0.567943 1.312678,0.462671 0.536152,-0.105267 0.91974,-0.486875 1.04109,-0.925342 0.164345,0.218589 0.39695,0.348186 0.678971,0.416404 0.0209,0.0068 0.02387,0.04043 0.04526,0.04627 0.04989,0.0098 0.08361,-0.004 0.135796,0 0.126379,0.02258 0.27118,0.05936 0.407383,0.04627 0.517675,-0.04973 0.907273,-0.391242 1.086354,-0.786541 0.243525,0.367728 0.738774,0.606002 1.267413,0.555206 0.543559,-0.05223 0.969691,-0.408257 1.131618,-0.832809 0.2365,0.386268 0.723855,0.653702 1.267413,0.601473 0.54356,-0.05223 0.969691,-0.408255 1.131619,-0.832808 0.01081,0.01732 0.03349,0.02948 0.04526,0.04627 0.05887,0.08519 0.101506,0.163642 0.181059,0.231335 0.07755,0.06599 0.177312,0.139187 0.271589,0.185069 0.115127,0.06023 0.227769,0.111929 0.362118,0.138801 0.09259,0.01852 0.172588,0.04627 0.271588,0.04627 0.519958,0 0.962395,-0.271307 1.176885,-0.647739 0.208786,0.38941 0.691177,0.647739 1.222148,0.647739 0.545955,0 0.976791,-0.286811 1.176883,-0.694007 0.200092,0.407196 0.676193,0.694007 1.222148,0.694007 0.545955,0 0.976792,-0.286811 1.176883,-0.694007 0.07299,0.148526 0.188082,0.261721 0.316854,0.370137 0.224266,0.188816 0.513213,0.32387 0.86003,0.32387 0.03161,0.0021 0.0585,0 0.09053,0 0.346817,0 0.635764,-0.135055 0.86003,-0.32387 0.128778,-0.10842 0.24387,-0.221611 0.316854,-0.370137 0.200091,0.407196 0.630928,0.694007 1.176883,0.694007 0.545955,0 1.022056,-0.286811 1.222148,-0.694007 0.200092,0.407196 0.630928,0.694007 1.176883,0.694007 0.530971,0 1.013362,-0.258329 1.222149,-0.647739 0.214489,0.376432 0.656926,0.647739 1.176884,0.647739 0.09901,0 0.179002,-0.02775 0.271588,-0.04627 0.134345,-0.02687 0.246994,-0.07857 0.362118,-0.138801 0.09428,-0.04588 0.194038,-0.119081 0.271589,-0.185069 0.07955,-0.06769 0.122189,-0.146145 0.181059,-0.231335 0.01184,-0.01679 0.0344,-0.02895 0.04526,-0.04627 0.16193,0.424553 0.58806,0.780574 1.13162,0.832808 0.54356,0.05223 1.03092,-0.215205 1.26741,-0.601473 0.16193,0.424552 0.58806,0.780575 1.13162,0.832809 0.52864,0.0508 1.02389,-0.187478 1.26742,-0.555206 0.17908,0.395299 0.56867,0.73681 1.08635,0.786541 0.1362,0.01303 0.281,-0.02369 0.40738,-0.04627 0.0522,-0.004 0.0859,0.0098 0.1358,0 0.0214,-0.0058 0.0244,-0.03946 0.0453,-0.04627 0.28202,-0.06822 0.51462,-0.197815 0.67897,-0.416404 0.12135,0.438467 0.50494,0.820075 1.04109,0.925342 0.53615,0.105267 1.04103,-0.101373 1.31268,-0.462671 0.12134,0.438466 0.50494,0.820091 1.04109,0.925343 0.52143,0.10238 1.03577,-0.07425 1.31267,-0.416404 0.0353,0.102764 0.1172,0.185261 0.18106,0.277602 0.0643,0.09063 0.1404,0.154925 0.22633,0.231336 0.18151,0.163263 0.36584,0.317548 0.6337,0.370137 0.0745,0.01466 0.15337,-0.0031 0.22633,0 0.10842,0.01184 0.21472,0.01407 0.31685,0 0.0142,-0.0024 0.0312,0.0028 0.0453,0 0.23074,-0.04002 0.42314,-0.124766 0.58844,-0.277603 0.0425,0.453599 0.35103,0.862337 0.86003,1.064144 0.50901,0.201814 1.02733,0.120606 1.35795,-0.185068 0.0425,0.4536 0.35102,0.862335 0.86003,1.064144 0.49503,0.19626 1.07077,0.147077 1.4032,-0.138802 0.0668,0.43024 0.37527,0.825678 0.86003,1.017877 0.67868,0.269077 1.40785,0.02897 1.62953,-0.555205 0.22169,-0.584171 -0.18135,-1.257739 -0.86003,-1.526816 -0.507,-0.201008 -1.02693,-0.16444 -1.35794,0.138802 -0.0663,-0.430717 -0.37477,-0.825487 -0.86003,-1.017877 -0.507,-0.201016 -0.98167,-0.164437 -1.31268,0.138801 -0.0565,-0.44062 -0.40986,-0.867717 -0.90529,-1.064144 -0.507,-0.201015 -1.02693,-0.118177 -1.35794,0.185069 -0.0329,-0.447394 -0.36974,-0.840513 -0.86003,-1.017877 -0.59151,-0.234518 -1.23416,-0.103565 -1.53901,0.32387 -0.1408,-0.411582 -0.52995,-0.778724 -1.04108,-0.879076 -0.53405,-0.104852 -0.99495,0.05743 -1.26742,0.416404 -0.13285,-0.423127 -0.56449,-0.776606 -1.08635,-0.879075 -0.53404,-0.104852 -0.99495,0.05743 -1.26742,0.416404 -0.13284,-0.42313 -0.51923,-0.730339 -1.04108,-0.832808 -0.21225,-0.04168 -0.3925,-0.04012 -0.58845,0 -0.12645,0.01706 -0.25129,0.04729 -0.36211,0.09253 -0.0121,0.0059 -0.0334,-0.0062 -0.0453,0 -0.0961,0.0428 -0.14807,0.12176 -0.22633,0.185069 -0.0457,0.04021 -0.0983,0.09209 -0.13579,0.138801 -0.0287,0.03459 -0.0668,0.05413 -0.0905,0.09253 -0.17877,-0.395884 -0.61342,-0.690483 -1.13162,-0.740274 -0.54142,-0.05203 -0.98462,0.124899 -1.22215,0.508939 -0.17193,-0.408158 -0.64782,-0.689433 -1.17688,-0.740275 -0.52789,-0.05072 -0.98017,0.09724 -1.22215,0.462672 -0.0643,-0.139053 -0.201086,-0.217774 -0.316847,-0.32387 -0.209006,-0.191564 -0.438834,-0.338365 -0.7695,-0.370137 -0.464076,-0.04459 -0.90349,0.131946 -1.176885,0.416404 -0.08101,0.08429 -0.133664,0.173402 -0.181058,0.277603 -0.214233,-0.377044 -0.656405,-0.64774 -1.176884,-0.64774 -0.543807,0 -0.975559,0.242668 -1.176884,0.64774 -0.208553,-0.389919 -0.690751,-0.64774 -1.222148,-0.64774 -0.543807,0 -0.975558,0.242668 -1.176883,0.64774 -0.208555,-0.389919 -0.645487,-0.64774 -1.176884,-0.64774 -0.03149,-0.0019 -0.05863,0 -0.09054,0 -0.152867,0 -0.273339,0.05286 -0.407383,0.09253 -0.33192,0.09825 -0.620941,0.277455 -0.7695,0.555206 -0.201325,-0.405072 -0.633077,-0.64774 -1.176884,-0.64774 -0.531397,0 -1.013595,0.257821 -1.222148,0.64774 -0.201325,-0.405072 -0.633076,-0.64774 -1.176883,-0.64774 -0.520479,0 -0.962651,0.270696 -1.176885,0.64774 -0.04739,-0.104201 -0.100041,-0.193321 -0.181058,-0.277603 -0.273395,-0.284452 -0.712808,-0.460995 -1.176884,-0.416404 z"
     id="path4163-50-1"
     style="fill:#f7bd00;fill-opacity:1;stroke:#000000;stroke-width:0.4393267;stroke-linecap:round;stroke-linejoin:round;stroke-miterlimit:4;stroke-opacity:1;stroke-dasharray:none;stroke-dashoffset:0;display:inline" />
  <path
     d="m 65.351986,20.68272 -10.99066,4.608986"
     id="path4212"
     style="fill:none;stroke:#000000;stroke-width:0.44416448;stroke-linecap:butt;stroke-linejoin:miter;stroke-miterlimit:4;stroke-opacity:1;stroke-dasharray:none;display:inline" />
  <g
     transform="matrix(1.4805482,0,0,1.4805482,-13.00078,-8.672977)"
     id="g4676">
    <path
       d="m 93.4387,93.007663 0,7.662837"
       id="path4668"
       style="fill:none;stroke:#000000;stroke-width:1px;stroke-linecap:butt;stroke-linejoin:miter;stroke-opacity:1" />
    <path
       d="m 93.4387,108.71647 0,8.04598"
       id="path4670"
       style="fill:none;stroke:#000000;stroke-width:1px;stroke-linecap:butt;stroke-linejoin:miter;stroke-opacity:1" />
    <path
       d="m 93.4387,124.04215 0,9.29118"
       id="path4672"
       style="fill:none;stroke:#000000;stroke-width:1px;stroke-linecap:butt;stroke-linejoin:miter;stroke-opacity:1" />
    <path
       d="m 93.4387,141.95402 0,9.67433"
       id="path4674"
       style="fill:none;stroke:#000000;stroke-width:1px;stroke-linecap:butt;stroke-linejoin:miter;stroke-opacity:1" />
  </g>
  <path
     d="m 134.91223,138.10551 0,11.91246"
     id="path4668-0"
     style="fill:none;stroke:#000000;stroke-width:1.48054814px;stroke-linecap:butt;stroke-linejoin:miter;stroke-opacity:1" />
  <path
     d="m 134.77041,162.07224 0,10.91975"
     id="path4670-7"
     style="fill:none;stroke:#000000;stroke-width:1.48054814px;stroke-linecap:butt;stroke-linejoin:miter;stroke-opacity:1" />
  <path
     d="m 134.77041,186.60624 0,12.90515"
     id="path4672-7"
     style="fill:none;stroke:#000000;stroke-width:1.48054814px;stroke-linecap:butt;stroke-linejoin:miter;stroke-opacity:1" />
  <path
     d="m 144.91328,113.62421 a 54.861732,11.243269 0 1 1 -0.001,-0.009"
     transform="translate(2.1673771,-0.27092248)"
     id="path4649"
     style="fill:#000000;fill-opacity:1;stroke:none" />
  <path
     d="m 142.35751,124.20764 0,11.77065"
     id="path4668-8"
     style="fill:none;stroke:#000000;stroke-width:1.48054814px;stroke-linecap:butt;stroke-linejoin:miter;stroke-opacity:1" />
  <path
     d="m 142.42841,147.46528 0,12.62154"
     id="path4670-0"
     style="fill:none;stroke:#000000;stroke-width:1.48054814px;stroke-linecap:butt;stroke-linejoin:miter;stroke-opacity:1" />
  <path
     d="m 142.42841,170.58114 0,13.33059"
     id="path4672-0"
     style="fill:none;stroke:#000000;stroke-width:1.48054814px;stroke-linecap:butt;stroke-linejoin:miter;stroke-opacity:1" />
  <path
     d="m 142.42841,197.38415 0,13.33061"
     id="path4674-4"
     style="fill:none;stroke:#000000;stroke-width:1.48054814px;stroke-linecap:butt;stroke-linejoin:miter;stroke-opacity:1" />
  <path
     d="m 148.9519,132.57473 0,11.91246"
     id="path4668-5"
     style="fill:none;stroke:#000000;stroke-width:1.48054814px;stroke-linecap:butt;stroke-linejoin:miter;stroke-opacity:1" />
  <path
     d="m 148.881,156.39962 0,11.06157"
     id="path4670-9"
     style="fill:none;stroke:#000000;stroke-width:1.48054814px;stroke-linecap:butt;stroke-linejoin:miter;stroke-opacity:1" />
  <path
     d="m 148.9519,180.93364 0,12.62151"
     id="path4672-6"
     style="fill:none;stroke:#000000;stroke-width:1.48054814px;stroke-linecap:butt;stroke-linejoin:miter;stroke-opacity:1" />
  <path
     d="m 59.916345,129.16091 0,11.3452"
     id="path4668-7"
     style="fill:none;stroke:#000000;stroke-width:1.48054814px;stroke-linecap:butt;stroke-linejoin:miter;stroke-opacity:1" />
  <path
     d="m 59.916345,152.41856 0,11.91246"
     id="path4670-72"
     style="fill:none;stroke:#000000;stroke-width:1.48054814px;stroke-linecap:butt;stroke-linejoin:miter;stroke-opacity:1" />
  <path
     d="m 59.916345,175.10897 0,13.75604"
     id="path4672-9"
     style="fill:none;stroke:#000000;stroke-width:1.48054814px;stroke-linecap:butt;stroke-linejoin:miter;stroke-opacity:1" />
  <path
     d="m 59.916345,201.62835 0,14.32332"
     id="path4674-7"
     style="fill:none;stroke:#000000;stroke-width:1.48054814px;stroke-linecap:butt;stroke-linejoin:miter;stroke-opacity:1" />
  <path
     d="m 50.343838,138.23707 0,11.91246"
     id="path4668-0-9"
     style="fill:none;stroke:#000000;stroke-width:1.48054814px;stroke-linecap:butt;stroke-linejoin:miter;stroke-opacity:1" />
  <path
     d="m 50.485652,162.2038 0,10.91975"
     id="path4670-7-8"
     style="fill:none;stroke:#000000;stroke-width:1.48054814px;stroke-linecap:butt;stroke-linejoin:miter;stroke-opacity:1" />
  <path
     d="m 50.485652,186.7378 0,12.90515"
     id="path4672-7-0"
     style="fill:none;stroke:#000000;stroke-width:1.48054814px;stroke-linecap:butt;stroke-linejoin:miter;stroke-opacity:1" />
  <path
     d="m 42.898554,124.33921 0,11.77064"
     id="path4668-8-0"
     style="fill:none;stroke:#000000;stroke-width:1.48054814px;stroke-linecap:butt;stroke-linejoin:miter;stroke-opacity:1" />
  <path
     d="m 42.82765,147.59684 0,12.62154"
     id="path4670-0-2"
     style="fill:none;stroke:#000000;stroke-width:1.48054814px;stroke-linecap:butt;stroke-linejoin:miter;stroke-opacity:1" />
  <path
     d="m 42.82765,170.7127 0,13.33059"
     id="path4672-0-1"
     style="fill:none;stroke:#000000;stroke-width:1.48054814px;stroke-linecap:butt;stroke-linejoin:miter;stroke-opacity:1" />
  <path
     d="m 42.82765,197.51572 0,13.3306"
     id="path4674-4-5"
     style="fill:none;stroke:#000000;stroke-width:1.48054814px;stroke-linecap:butt;stroke-linejoin:miter;stroke-opacity:1" />
  <path
     d="m 36.304162,132.70629 0,11.91246"
     id="path4668-5-7"
     style="fill:none;stroke:#000000;stroke-width:1.48054814px;stroke-linecap:butt;stroke-linejoin:miter;stroke-opacity:1" />
  <path
     d="m 36.375066,156.53118 0,11.06158"
     id="path4670-9-3"
     style="fill:none;stroke:#000000;stroke-width:1.48054814px;stroke-linecap:butt;stroke-linejoin:miter;stroke-opacity:1" />
  <path
     d="m 36.304162,181.0652 0,12.62151"
     id="path4672-6-4"
     style="fill:none;stroke:#000000;stroke-width:1.48054814px;stroke-linecap:butt;stroke-linejoin:miter;stroke-opacity:1" />
  <path
     d="M 90.84375,98.968752 C 59.360713,99.245999 34.707357,106.25342 35.75,114.625 c 1.042643,8.37158 27.391963,14.9335 58.875,14.65625 31.48304,-0.27725 56.16764,-7.28467 55.125,-15.65625 -1.06612,-8.36684 -27.44022,-14.933345 -58.90625,-14.656248 z m 11.46875,3.749998 c 0,0 23.62653,4.84094 23.875,11.625 0.22326,6.0956 -14.4375,8.4375 -14.4375,8.4375 0,0 9.20776,-4.39029 8.8125,-8.4375 -0.70121,-7.18 -18.25,-11.625 -18.25,-11.625 z m -10.21875,4.625 c 0,0 16.38378,3.72366 15.25,9.625 -2.3477,12.21984 -36.71875,6.8125 -36.71875,6.8125 0,0 25.713877,2.18727 28.875,-7.21875 1.25723,-3.74094 -7.40625,-9.21875 -7.40625,-9.21875 z m 38.09375,0 c 0,0 10.04856,3.8273 10.4375,7.21875 0.3877,3.38058 -11.4375,5.21875 -11.4375,5.21875 0,0 6.74872,-1.80802 7.21875,-4.625 0.54814,-3.28514 -6.21875,-7.8125 -6.21875,-7.8125 z M 44.15625,111.75 c 0,0 -1.145044,2.7655 -0.59375,4 1.239943,2.77657 7.625,5.03125 7.625,5.03125 0,0 -7.83172,-1.12323 -9.03125,-4.21875 -0.628041,-1.62073 2,-4.8125 2,-4.8125 z"
     id="path2987-0"
     style="fill:#0584dd;fill-opacity:1;stroke:none;display:inline" />
  <g
     transform="translate(0,2.1146741e-6)"
     id="g4651"
     style="display:inline">
    <g
       id="g4667">
      <path
         d="m 107.5625,77.96875 c -2.3155,0.06481 -4.76532,0.797396 -6.875,2.03125 -3.41022,1.994482 -5.78125,5.875 -5.78125,5.875 l -35.3125,18.84375 c 6.093928,-0.70249 9.861104,2.67056 9.125,7.65625 L 102.0625,93.53125 c 0,0 6.58608,-1.794592 9.125,-3.90625 3.73914,-3.109902 4.83234,-7.226525 2.375,-9.625 -1.52975,-1.493103 -3.6845,-2.096062 -6,-2.03125 z M 108,88.09375 c 0.23481,-0.02346 0.5625,0 0.5625,0 0,0 -4.56039,1.786131 -7.11454,1.603945 0,0 -26.224603,15.012505 -30.01046,16.833555 2.969124,-2.75357 29.62513,-17.40625 29.62513,-17.40625 2.19359,0.380226 5.2937,-0.86706 6.93737,-1.03125 z"
         id="path3089"
         style="fill:#edb435;fill-opacity:1;stroke:#000000;stroke-width:0.80000001;stroke-linecap:round;stroke-linejoin:round;stroke-miterlimit:4;stroke-opacity:1;stroke-dasharray:none;display:inline" />
      <path
         d="m 62.137041,105.05163 c -0.6917,0.006 -1.474,0.0925 -2.267089,0.2776 0,0 -3.475481,1.18555 -5.505789,3.79391 -3.718863,4.77767 -4.340218,7.64962 -3.562569,8.05048 0.867619,0.22144 2.776028,-0.92534 2.776028,-0.92534 0,0 -0.144576,2.96945 0.925342,3.14616 0.735595,-0.31757 1.157757,-3.01174 3.423768,-4.81178 -2.078389,0.68263 -3.284966,2.12829 -3.284966,2.12829 0,0 -0.191434,-1.23585 0,-1.85069 -0.995561,0.0607 -1.850685,0.83281 -1.850685,0.83281 0.28363,-2.48176 1.410171,-3.88396 2.544692,-5.08938 l 0,1.85068 c 1.276335,-2.00904 2.209299,-3.19095 3.840172,-4.34911 l -1.110411,-0.18507 c 1.312945,-1.53177 4.496617,-1.74883 4.164041,-0.46267 l -2.498425,4.25658 4.117775,-4.53418 c 2.445929,0.49784 2.938392,1.36148 3.423768,3.74764 -3.605276,0.90984 -5.293067,8.28784 -5.293067,8.28784 0,0 -0.923626,-1.67707 -1.184332,-2.04178 l -1.064144,0.87908 c 0,0 -0.366127,-0.96316 0.366593,-2.1992 -1.47141,0.9475 -1.691971,2.63304 -0.782995,3.26334 0.422051,0.29266 1.156678,-1.01788 1.156678,-1.01788 0.432931,0.95467 0.658947,2.61654 1.60375,2.69254 1.078044,-1.6401 2.063697,-6.79475 6.169128,-8.19833 1.006016,-3.53865 -1.265355,-7.58446 -6.107263,-7.54154 z"
         id="path3989"
         style="fill:#000000;fill-opacity:1;stroke:none;display:inline" />
    </g>
  </g>
</svg>
